<svg width="302" height="212" viewBox="0 0 302 212" fill="none" xmlns="http://www.w3.org/2000/svg">
<rect x="1" y="1" width="30" height="30" stroke="#3B687F"/>
<rect x="1" y="31" width="30" height="30" stroke="#3B687F"/>
<rect x="1" y="61" width="30" height="30" stroke="#3B687F"/>
<rect x="1" y="91" width="30" height="30" stroke="#3B687F"/>
<rect x="1" y="121" width="30" height="30" stroke="#3B687F"/>
<rect x="1" y="151" width="30" height="30" stroke="#3B687F"/>
<rect x="1" y="181" width="30" height="30" stroke="#3B687F"/>
<rect x="31" y="1" width="30" height="30" stroke="#3B687F"/>
<rect x="31" y="31" width="30" height="30" stroke="#3B687F"/>
<rect x="31" y="61" width="30" height="30" stroke="#3B687F"/>
<rect x="31" y="91" width="30" height="30" stroke="#3B687F"/>
<rect x="31" y="121" width="30" height="30" stroke="#3B687F"/>
<rect x="31" y="151" width="30" height="30" stroke="#3B687F"/>
<rect x="31" y="181" width="30" height="30" stroke="#3B687F"/>
<rect x="61" y="1" width="30" height="30" stroke="#3B687F"/>
<rect x="61" y="31" width="30" height="30" stroke="#3B687F"/>
<rect x="61" y="61" width="30" height="30" stroke="#3B687F"/>
<rect x="61" y="91" width="30" height="30" stroke="#3B687F"/>
<rect x="61" y="121" width="30" height="30" stroke="#3B687F"/>
<rect x="61" y="151" width="30" height="30" stroke="#3B687F"/>
<rect x="61" y="181" width="30" height="30" stroke="#3B687F"/>
<rect x="91" y="1" width="30" height="30" stroke="#3B687F"/>
<rect x="91" y="31" width="30" height="30" stroke="#3B687F"/>
<rect x="91" y="61" width="30" height="30" stroke="#3B687F"/>
<rect x="91" y="91" width="30" height="30" stroke="#3B687F"/>
<rect x="91" y="121" width="30" height="30" stroke="#3B687F"/>
<rect x="91" y="151" width="30" height="30" stroke="#3B687F"/>
<rect x="91" y="181" width="30" height="30" stroke="#3B687F"/>
<rect x="121" y="1" width="30" height="30" stroke="#3B687F"/>
<rect x="121" y="31" width="30" height="30" stroke="#3B687F"/>
<rect x="121" y="61" width="30" height="30" stroke="#3B687F"/>
<rect x="121" y="91" width="30" height="30" stroke="#3B687F"/>
<rect x="121" y="121" width="30" height="30" stroke="#3B687F"/>
<rect x="121" y="151" width="30" height="30" stroke="#3B687F"/>
<rect x="121" y="181" width="30" height="30" stroke="#3B687F"/>
<rect x="151" y="1" width="30" height="30" stroke="#3B687F"/>
<rect x="151" y="31" width="30" height="30" stroke="#3B687F"/>
<rect x="151" y="61" width="30" height="30" stroke="#3B687F"/>
<rect x="151" y="91" width="30" height="30" stroke="#3B687F"/>
<rect x="151" y="121" width="30" height="30" stroke="#3B687F"/>
<rect x="151" y="151" width="30" height="30" stroke="#3B687F"/>
<rect x="151" y="181" width="30" height="30" stroke="#3B687F"/>
<rect x="181" y="1" width="30" height="30" stroke="#3B687F"/>
<rect x="181" y="31" width="30" height="30" stroke="#3B687F"/>
<rect x="181" y="61" width="30" height="30" stroke="#3B687F"/>
<rect x="181" y="91" width="30" height="30" stroke="#3B687F"/>
<rect x="181" y="121" width="30" height="30" stroke="#3B687F"/>
<rect x="181" y="151" width="30" height="30" stroke="#3B687F"/>
<rect x="181" y="181" width="30" height="30" stroke="#3B687F"/>
<rect x="211" y="1" width="30" height="30" stroke="#3B687F"/>
<rect x="211" y="31" width="30" height="30" stroke="#3B687F"/>
<rect x="211" y="61" width="30" height="30" stroke="#3B687F"/>
<rect x="211" y="91" width="30" height="30" stroke="#3B687F"/>
<rect x="211" y="121" width="30" height="30" stroke="#3B687F"/>
<rect x="211" y="151" width="30" height="30" stroke="#3B687F"/>
<rect x="211" y="181" width="30" height="30" stroke="#3B687F"/>
<rect x="241" y="1" width="30" height="30" stroke="#3B687F"/>
<rect x="241" y="31" width="30" height="30" stroke="#3B687F"/>
<rect x="241" y="61" width="30" height="30" stroke="#3B687F"/>
<rect x="241" y="91" width="30" height="30" stroke="#3B687F"/>
<rect x="241" y="121" width="30" height="30" stroke="#3B687F"/>
<rect x="241" y="151" width="30" height="30" stroke="#3B687F"/>
<rect x="241" y="181" width="30" height="30" stroke="#3B687F"/>
<rect x="271" y="1" width="30" height="30" stroke="#3B687F"/>
<rect x="271" y="31" width="30" height="30" stroke="#3B687F"/>
<rect x="271" y="61" width="30" height="30" stroke="#3B687F"/>
<rect x="271" y="91" width="30" height="30" stroke="#3B687F"/>
<rect x="271" y="121" width="30" height="30" stroke="#3B687F"/>
<rect x="271" y="151" width="30" height="30" stroke="#3B687F"/>
<rect x="271" y="181" width="30" height="30" stroke="#3B687F"/>
<path d="M289.485 136.132C288.476 126.64 286.584 117.128 282.947 108.136C276.578 92.3969 264.525 77.939 246.832 71.3242C229.794 64.9591 210.047 67.7508 196.963 79.5615C192.81 83.3057 189.004 86.2157 183.408 88.0812C177.62 90.0124 171.576 91.4772 165.553 92.7122C153.235 95.2412 140.482 96.3907 127.877 95.182C116.339 94.0719 104.661 88.495 92.9544 90.2423C86.4014 91.2211 82.7554 93.916 78.2801 101.252C73.8048 108.587 74.3484 112.244 71.2418 117.463C69.0992 121.063 67.464 125.221 67.1032 129.228C66.3743 137.34 69.5403 145.361 75.5264 151.45C90.5025 166.69 114.307 159.3 133.583 164.456C143.803 167.189 152.167 174.198 160.502 179.847C168.881 185.529 177.017 192.295 187.641 194.213C197.382 195.973 207.83 196.105 217.734 195.954C228.145 195.796 238.666 194.778 248.709 192.242C258.053 189.884 267.441 186.265 274.907 180.642C281.938 175.347 286.304 167.82 288.307 159.891C290.273 152.12 290.324 144.041 289.485 136.145V136.132Z" stroke="#65C6DA" stroke-width="2" stroke-miterlimit="10"/>
<path d="M260.959 125.972C256.943 120.38 251.408 115.847 245.847 111.768C240.091 107.556 233.138 101.914 226.154 100.067C219.22 98.2417 213.285 102.027 207.483 104.75C201.108 107.738 194.426 110.19 187.555 112.03C171.666 116.269 154.679 117.295 138.023 115.075C133.446 114.465 128.867 113.648 124.379 112.471C119.891 111.294 115.476 110.048 110.989 111.075C107.736 111.819 102.44 113.373 100.307 115.909C98.9206 117.566 98.5754 119.838 97.6583 121.795C95.7614 125.83 92.2274 129.12 94.9207 133.938C96.9506 137.564 101.407 139.746 105.242 140.941C112.219 143.109 119.408 142.679 126.501 142.572C135.055 142.45 143.582 143.541 152.091 144.909C167.765 147.432 182.779 149.958 196.183 159.342C207.308 167.127 218.341 176.925 232.492 177.595C244.85 178.184 257.122 172.565 263.171 162.241C269.667 151.154 268.848 136.952 260.966 125.98L260.959 125.972Z" stroke="#93D7E5" stroke-width="2" stroke-miterlimit="10"/>
<path d="M255.559 137.708C253.787 129.793 247.312 126.414 241.377 121.3C239.987 120.101 238.655 118.857 237.298 117.631C236 116.462 234.666 115.294 233.104 114.474C230.926 113.338 228.186 113.323 225.812 112.786C223.438 112.249 221.223 111.678 218.812 111.809C213.524 112.091 209.781 115.242 207.642 119.557C202.646 129.662 206.16 142.071 215.712 149.182C220.319 152.615 225.707 154.856 230.472 158.045C234.775 160.919 237.905 166.975 243.697 167.065C250.11 167.16 253.463 161.566 254.689 156.434C256.089 150.57 256.902 143.722 255.559 137.708Z" stroke="#B2E3ED" stroke-width="2" stroke-miterlimit="10"/>
<path d="M250.176 138.593C248.852 134.856 245.701 132.821 241.876 131.58C239.449 130.793 236.937 129.834 235.062 128.12C233.056 126.282 232.894 124.005 231.387 121.948C230.598 120.871 229.355 120.158 228.157 119.49C227.43 119.078 226.684 118.668 225.87 118.492C221.024 117.429 214.922 122.797 214.163 126.855C213.478 130.538 215.593 133.866 218.759 136.067C223.055 139.051 227.568 140.177 230.83 144.482C233.286 147.729 233.613 152.646 238.082 154.164C247.854 157.476 252.636 145.528 250.177 138.602L250.176 138.593Z" stroke="white" stroke-width="2" stroke-miterlimit="10"/>
<path d="M193.186 124.84C186.509 121.99 179.191 121.224 172.14 121.617C168.812 121.807 165.418 122.901 162.114 122.834C158.089 122.749 154.809 122.417 150.801 123.224C146.648 124.062 142.625 124.542 138.32 123.94C133.985 123.335 130.06 121.483 125.89 120.205C120.634 118.591 109.962 117.73 107.059 123.617C106.458 124.838 106.715 126.364 107.383 127.62C109.91 132.365 114.899 135.615 120.093 136.677C127.682 138.233 135.971 137.481 143.626 137.642C151.787 137.806 159.961 137.994 168.13 138.572C172.136 138.857 175.932 139.338 179.74 140.827C183.032 142.116 186.37 143.707 189.891 144.093C195.041 144.658 200.904 142.743 202.773 137.764C205.227 131.244 198.495 127.106 193.172 124.838L193.186 124.84Z" stroke="#B2E3ED" stroke-width="2" stroke-miterlimit="10"/>
<path d="M142.795 43.3548C136.268 40.1057 129.941 39.1245 122.965 40.8166C118.151 41.9897 111.358 43.76 107.608 47.7344C103.124 52.4908 99.8461 63.0273 100.006 70.0873C100.153 76.6566 107.365 78.69 111.731 78.9744C114.844 79.1734 117.106 77.4956 119.947 76.358C123.267 75.0285 126.846 75.2418 130.231 76.0807C136.061 77.524 141.684 81.3632 147.762 80.9722C152.931 80.638 157.396 77.2325 159.157 71.239C163.209 57.4462 151.826 47.841 142.795 43.3548Z" stroke="#65C6DA" stroke-width="2" stroke-miterlimit="10"/>
<path d="M152.938 68.7953C152.808 67.9446 152.483 67.1322 152.169 66.3505C150.68 62.6642 149.143 58.5411 146.743 55.6825C144.343 52.8239 140.648 51.3831 137.45 50.088C133.584 48.5016 129.411 47.6432 125.356 48.1414C120.136 48.7851 110.395 53.4524 109.094 61.2234C108.846 62.7026 109.135 64.2353 109.425 65.7068C109.928 68.2665 110.992 70.6499 113.338 69.9295C119.693 67.9906 126.059 68.1745 132.361 70.3357C135.376 71.3703 138.408 72.3666 141.488 73.0027C143.976 73.5162 147.547 74.4665 150.018 73.7307C151.519 73.2862 152.938 71.7075 152.997 69.7149C153.009 69.4007 152.985 69.0942 152.938 68.7953Z" stroke="#B2E3ED" stroke-width="2" stroke-miterlimit="10"/>
</svg>
