<svg width="302" height="212" viewBox="0 0 302 212" fill="none" xmlns="http://www.w3.org/2000/svg">
<rect x="1" y="1" width="30" height="30" stroke="#3B687F"/>
<rect x="1" y="31" width="30" height="30" stroke="#3B687F"/>
<rect x="1" y="61" width="30" height="30" stroke="#3B687F"/>
<rect x="1" y="91" width="30" height="30" stroke="#3B687F"/>
<rect x="1" y="121" width="30" height="30" stroke="#3B687F"/>
<rect x="1" y="151" width="30" height="30" stroke="#3B687F"/>
<rect x="1" y="181" width="30" height="30" stroke="#3B687F"/>
<rect x="31" y="1" width="30" height="30" stroke="#3B687F"/>
<rect x="31" y="31" width="30" height="30" stroke="#3B687F"/>
<rect x="31" y="61" width="30" height="30" stroke="#3B687F"/>
<rect x="31" y="91" width="30" height="30" stroke="#3B687F"/>
<rect x="31" y="121" width="30" height="30" stroke="#3B687F"/>
<rect x="31" y="151" width="30" height="30" stroke="#3B687F"/>
<rect x="31" y="181" width="30" height="30" stroke="#3B687F"/>
<rect x="61" y="1" width="30" height="30" stroke="#3B687F"/>
<rect x="61" y="31" width="30" height="30" stroke="#3B687F"/>
<rect x="61" y="61" width="30" height="30" stroke="#3B687F"/>
<rect x="61" y="91" width="30" height="30" stroke="#3B687F"/>
<rect x="61" y="121" width="30" height="30" stroke="#3B687F"/>
<rect x="61" y="151" width="30" height="30" stroke="#3B687F"/>
<rect x="61" y="181" width="30" height="30" stroke="#3B687F"/>
<rect x="91" y="1" width="30" height="30" stroke="#3B687F"/>
<rect x="91" y="31" width="30" height="30" stroke="#3B687F"/>
<rect x="91" y="61" width="30" height="30" stroke="#3B687F"/>
<rect x="91" y="91" width="30" height="30" stroke="#3B687F"/>
<rect x="91" y="121" width="30" height="30" stroke="#3B687F"/>
<rect x="91" y="151" width="30" height="30" stroke="#3B687F"/>
<rect x="91" y="181" width="30" height="30" stroke="#3B687F"/>
<rect x="121" y="1" width="30" height="30" stroke="#3B687F"/>
<rect x="121" y="31" width="30" height="30" stroke="#3B687F"/>
<rect x="121" y="61" width="30" height="30" stroke="#3B687F"/>
<rect x="121" y="91" width="30" height="30" stroke="#3B687F"/>
<rect x="121" y="121" width="30" height="30" stroke="#3B687F"/>
<rect x="121" y="151" width="30" height="30" stroke="#3B687F"/>
<rect x="121" y="181" width="30" height="30" stroke="#3B687F"/>
<rect x="151" y="1" width="30" height="30" stroke="#3B687F"/>
<rect x="151" y="31" width="30" height="30" stroke="#3B687F"/>
<rect x="151" y="61" width="30" height="30" stroke="#3B687F"/>
<rect x="151" y="91" width="30" height="30" stroke="#3B687F"/>
<rect x="151" y="121" width="30" height="30" stroke="#3B687F"/>
<rect x="151" y="151" width="30" height="30" stroke="#3B687F"/>
<rect x="151" y="181" width="30" height="30" stroke="#3B687F"/>
<rect x="181" y="1" width="30" height="30" stroke="#3B687F"/>
<rect x="181" y="31" width="30" height="30" stroke="#3B687F"/>
<rect x="181" y="61" width="30" height="30" stroke="#3B687F"/>
<rect x="181" y="91" width="30" height="30" stroke="#3B687F"/>
<rect x="181" y="121" width="30" height="30" stroke="#3B687F"/>
<rect x="181" y="151" width="30" height="30" stroke="#3B687F"/>
<rect x="181" y="181" width="30" height="30" stroke="#3B687F"/>
<rect x="211" y="1" width="30" height="30" stroke="#3B687F"/>
<rect x="211" y="31" width="30" height="30" stroke="#3B687F"/>
<rect x="211" y="61" width="30" height="30" stroke="#3B687F"/>
<rect x="211" y="91" width="30" height="30" stroke="#3B687F"/>
<rect x="211" y="121" width="30" height="30" stroke="#3B687F"/>
<rect x="211" y="151" width="30" height="30" stroke="#3B687F"/>
<rect x="211" y="181" width="30" height="30" stroke="#3B687F"/>
<rect x="241" y="1" width="30" height="30" stroke="#3B687F"/>
<rect x="241" y="31" width="30" height="30" stroke="#3B687F"/>
<rect x="241" y="61" width="30" height="30" stroke="#3B687F"/>
<rect x="241" y="91" width="30" height="30" stroke="#3B687F"/>
<rect x="241" y="121" width="30" height="30" stroke="#3B687F"/>
<rect x="241" y="151" width="30" height="30" stroke="#3B687F"/>
<rect x="241" y="181" width="30" height="30" stroke="#3B687F"/>
<rect x="271" y="1" width="30" height="30" stroke="#3B687F"/>
<rect x="271" y="31" width="30" height="30" stroke="#3B687F"/>
<rect x="271" y="61" width="30" height="30" stroke="#3B687F"/>
<rect x="271" y="91" width="30" height="30" stroke="#3B687F"/>
<rect x="271" y="121" width="30" height="30" stroke="#3B687F"/>
<rect x="271" y="151" width="30" height="30" stroke="#3B687F"/>
<rect x="271" y="181" width="30" height="30" stroke="#3B687F"/>
<rect x="32" y="32" width="28" height="28" fill="#65C6DA"/>
<rect x="62" y="32" width="28" height="28" fill="#65C6DA"/>
<rect x="92" y="32" width="28" height="28" fill="#65C6DA"/>
<rect x="122" y="32" width="28" height="28" fill="#65C6DA"/>
<rect x="152" y="32" width="28" height="28" fill="#65C6DA"/>
<rect x="182" y="32" width="28" height="28" fill="white"/>
<rect x="212" y="32" width="28" height="28" fill="#65C6DA"/>
<rect x="242" y="32" width="28" height="28" fill="#65C6DA"/>
<rect x="32" y="62" width="28" height="28" fill="white"/>
<rect x="32" y="92" width="28" height="28" fill="#65C6DA"/>
<rect x="32" y="122" width="28" height="28" fill="#65C6DA"/>
<rect x="32" y="152" width="28" height="28" fill="#B2E3ED"/>
<rect x="62" y="62" width="28" height="28" fill="#93D7E5"/>
<rect x="62" y="92" width="28" height="28" fill="#65C6DA"/>
<rect x="62" y="122" width="28" height="28" fill="#65C6DA"/>
<rect x="62" y="152" width="28" height="28" fill="#B2E3ED"/>
<rect x="92" y="62" width="28" height="28" fill="#93D7E5"/>
<rect x="92" y="92" width="28" height="28" fill="#93D7E5"/>
<rect x="92" y="122" width="28" height="28" fill="#B2E3ED"/>
<rect x="92" y="152" width="28" height="28" fill="#65C6DA"/>
<rect x="122" y="62" width="28" height="28" fill="#B2E3ED"/>
<rect x="122" y="92" width="28" height="28" fill="#B2E3ED"/>
<rect x="122" y="122" width="28" height="28" fill="#93D7E5"/>
<rect x="122" y="152" width="28" height="28" fill="#65C6DA"/>
<rect x="152" y="62" width="28" height="28" fill="white"/>
<rect x="152" y="92" width="28" height="28" fill="#B2E3ED"/>
<rect x="152" y="122" width="28" height="28" fill="#65C6DA"/>
<rect x="152" y="152" width="28" height="28" fill="#65C6DA"/>
<rect x="182" y="62" width="28" height="28" fill="white"/>
<rect x="182" y="92" width="28" height="28" fill="#65C6DA"/>
<rect x="182" y="122" width="28" height="28" fill="#65C6DA"/>
<rect x="182" y="152" width="28" height="28" fill="#65C6DA"/>
<rect x="212" y="62" width="28" height="28" fill="#65C6DA"/>
<rect x="212" y="92" width="28" height="28" fill="#65C6DA"/>
<rect x="212" y="122" width="28" height="28" fill="#93D7E5"/>
<rect x="212" y="152" width="28" height="28" fill="#93D7E5"/>
<rect x="242" y="62" width="28" height="28" fill="#65C6DA"/>
<rect x="242" y="92" width="28" height="28" fill="#65C6DA"/>
<rect x="242" y="122" width="28" height="28" fill="#93D7E5"/>
<rect x="242" y="152" width="28" height="28" fill="#B2E3ED"/>
</svg>
