<svg width="300" height="210" viewBox="0 0 300 210" fill="none" xmlns="http://www.w3.org/2000/svg">
<rect x="0.5" y="0.5" width="299" height="209" stroke="#345B74"/>
<path d="M235.5 78L247.191 96H223.809L235.5 78Z" fill="#A1CF6F"/>
<path d="M130.912 138.176V147.92C130.912 148.752 131.488 149.056 132.304 149.056C132.8 149.056 133.248 148.944 133.712 148.768L134.064 149.744C133.616 149.984 132.928 150.176 132.064 150.176C130.576 150.176 129.568 149.312 129.568 147.856V139.248H126.976V138.176H130.912ZM143.257 148.16C143.257 148.832 143.465 149.088 143.945 149.232L143.609 150.192C142.889 150.096 142.297 149.76 142.073 148.992C141.465 149.776 140.521 150.176 139.433 150.176C137.737 150.176 136.713 149.152 136.713 147.584C136.713 145.856 138.105 144.88 140.649 144.88H141.897V144.192C141.897 142.96 141.145 142.512 139.897 142.512C139.337 142.512 138.569 142.64 137.705 142.944L137.337 141.92C138.377 141.552 139.273 141.392 140.105 141.392C142.201 141.392 143.257 142.448 143.257 144.112V148.16ZM139.769 149.168C140.601 149.168 141.401 148.72 141.897 147.968V145.808H140.681C138.825 145.808 138.153 146.48 138.153 147.568C138.153 148.624 138.665 149.168 139.769 149.168ZM148.147 142.672C148.771 141.856 149.587 141.392 150.563 141.392C152.803 141.392 153.715 143.136 153.715 145.776C153.715 148.336 152.547 150.176 150.371 150.176C149.411 150.176 148.659 149.856 148.083 149.12L147.987 150H146.803V138.176L148.147 138.016V142.672ZM150.067 149.088C151.459 149.088 152.259 148.016 152.259 145.776C152.259 143.584 151.571 142.48 150.259 142.48C149.331 142.48 148.611 143.152 148.147 143.824V148C148.595 148.688 149.283 149.088 150.067 149.088ZM157.469 146.256C157.533 148.208 158.621 149.056 159.917 149.056C160.781 149.056 161.421 148.8 162.173 148.304L162.797 149.2C162.013 149.808 160.957 150.176 159.917 150.176C157.453 150.176 156.061 148.416 156.061 145.792C156.061 143.248 157.485 141.392 159.725 141.392C161.853 141.392 163.165 142.976 163.165 145.536C163.165 145.824 163.149 146.08 163.133 146.256H157.469ZM159.741 142.496C158.493 142.496 157.581 143.376 157.469 145.232H161.853C161.821 143.424 161.021 142.496 159.741 142.496ZM169.287 138.176V147.92C169.287 148.752 169.863 149.056 170.679 149.056C171.175 149.056 171.623 148.944 172.087 148.768L172.439 149.744C171.991 149.984 171.303 150.176 170.439 150.176C168.951 150.176 167.943 149.312 167.943 147.856V139.248H165.351V138.176H169.287Z" fill="white"/>
<path d="M103.288 109.192H111.296V113H89.0638V109.192H98.5278V79.568L89.7357 84.888L87.6638 81.584L99.1438 74.416H103.288V109.192ZM130.986 73.8C138.266 73.8 142.634 78.448 142.634 84.552C142.634 91.664 138.098 97.376 125.386 108.968H143.53L142.97 113H120.01V109.192C134.57 95.248 137.706 90.992 137.706 84.72C137.706 80.408 135.074 77.776 130.762 77.776C127.01 77.776 124.938 79.008 122.474 81.864L119.226 79.344C122.25 75.648 125.778 73.8 130.986 73.8ZM164.564 73.8C171.844 73.8 176.38 78.224 176.38 83.488C176.38 88.136 172.908 91.664 168.876 92.448C173.356 92.784 177.612 95.92 177.612 101.912C177.612 108.576 172.236 113.616 164.228 113.616C159.916 113.616 155.324 112.048 152.412 108.52L155.548 105.944C157.732 108.52 160.98 109.752 164.116 109.752C169.492 109.752 172.684 106.728 172.684 101.912C172.684 96.368 169.268 94.576 164.676 94.576H161.484L162.044 90.824H164.34C168.036 90.824 171.62 88.752 171.62 84.104C171.62 79.904 168.428 77.608 164.34 77.608C161.036 77.608 158.74 78.784 156.164 81.136L153.588 78.28C156.892 75.144 160.588 73.8 164.564 73.8ZM212.646 99.84V103.648H207.662V113H203.126V103.648H187.11V100.176L198.422 73.8L202.342 75.48L192.094 99.84H203.182L203.574 88.92H207.662V99.84H212.646Z" fill="white"/>
</svg>
