<svg width="302" height="212" viewBox="0 0 302 212" fill="none" xmlns="http://www.w3.org/2000/svg">
<rect x="1" y="1" width="30" height="30" stroke="#3B687F"/>
<rect x="1" y="31" width="30" height="30" stroke="#3B687F"/>
<rect x="1" y="61" width="30" height="30" stroke="#3B687F"/>
<rect x="1" y="91" width="30" height="30" stroke="#3B687F"/>
<rect x="1" y="121" width="30" height="30" stroke="#3B687F"/>
<rect x="1" y="151" width="30" height="30" stroke="#3B687F"/>
<rect x="1" y="181" width="30" height="30" stroke="#3B687F"/>
<rect x="31" y="1" width="30" height="30" stroke="#3B687F"/>
<rect x="31" y="31" width="30" height="30" stroke="#3B687F"/>
<rect x="31" y="61" width="30" height="30" stroke="#3B687F"/>
<rect x="31" y="91" width="30" height="30" stroke="#3B687F"/>
<rect x="31" y="121" width="30" height="30" stroke="#3B687F"/>
<rect x="31" y="151" width="30" height="30" stroke="#3B687F"/>
<rect x="31" y="181" width="30" height="30" stroke="#3B687F"/>
<rect x="61" y="1" width="30" height="30" stroke="#3B687F"/>
<rect x="61" y="31" width="30" height="30" stroke="#3B687F"/>
<rect x="61" y="61" width="30" height="30" stroke="#3B687F"/>
<rect x="61" y="91" width="30" height="30" stroke="#3B687F"/>
<rect x="61" y="121" width="30" height="30" stroke="#3B687F"/>
<rect x="61" y="151" width="30" height="30" stroke="#3B687F"/>
<rect x="61" y="181" width="30" height="30" stroke="#3B687F"/>
<rect x="91" y="1" width="30" height="30" stroke="#3B687F"/>
<rect x="91" y="31" width="30" height="30" stroke="#3B687F"/>
<rect x="91" y="61" width="30" height="30" stroke="#3B687F"/>
<rect x="91" y="91" width="30" height="30" stroke="#3B687F"/>
<rect x="91" y="121" width="30" height="30" stroke="#3B687F"/>
<rect x="91" y="151" width="30" height="30" stroke="#3B687F"/>
<rect x="91" y="181" width="30" height="30" stroke="#3B687F"/>
<rect x="121" y="1" width="30" height="30" stroke="#3B687F"/>
<rect x="121" y="31" width="30" height="30" stroke="#3B687F"/>
<rect x="121" y="61" width="30" height="30" stroke="#3B687F"/>
<rect x="121" y="91" width="30" height="30" stroke="#3B687F"/>
<rect x="121" y="121" width="30" height="30" stroke="#3B687F"/>
<rect x="121" y="151" width="30" height="30" stroke="#3B687F"/>
<rect x="121" y="181" width="30" height="30" stroke="#3B687F"/>
<rect x="151" y="1" width="30" height="30" stroke="#3B687F"/>
<rect x="151" y="31" width="30" height="30" stroke="#3B687F"/>
<rect x="151" y="61" width="30" height="30" stroke="#3B687F"/>
<rect x="151" y="91" width="30" height="30" stroke="#3B687F"/>
<rect x="151" y="121" width="30" height="30" stroke="#3B687F"/>
<rect x="151" y="151" width="30" height="30" stroke="#3B687F"/>
<rect x="151" y="181" width="30" height="30" stroke="#3B687F"/>
<rect x="181" y="1" width="30" height="30" stroke="#3B687F"/>
<rect x="181" y="31" width="30" height="30" stroke="#3B687F"/>
<rect x="181" y="61" width="30" height="30" stroke="#3B687F"/>
<rect x="181" y="91" width="30" height="30" stroke="#3B687F"/>
<rect x="181" y="121" width="30" height="30" stroke="#3B687F"/>
<rect x="181" y="151" width="30" height="30" stroke="#3B687F"/>
<rect x="181" y="181" width="30" height="30" stroke="#3B687F"/>
<rect x="211" y="1" width="30" height="30" stroke="#3B687F"/>
<rect x="211" y="31" width="30" height="30" stroke="#3B687F"/>
<rect x="211" y="61" width="30" height="30" stroke="#3B687F"/>
<rect x="211" y="91" width="30" height="30" stroke="#3B687F"/>
<rect x="211" y="121" width="30" height="30" stroke="#3B687F"/>
<rect x="211" y="151" width="30" height="30" stroke="#3B687F"/>
<rect x="211" y="181" width="30" height="30" stroke="#3B687F"/>
<rect x="241" y="1" width="30" height="30" stroke="#3B687F"/>
<rect x="241" y="31" width="30" height="30" stroke="#3B687F"/>
<rect x="241" y="61" width="30" height="30" stroke="#3B687F"/>
<rect x="241" y="91" width="30" height="30" stroke="#3B687F"/>
<rect x="241" y="121" width="30" height="30" stroke="#3B687F"/>
<rect x="241" y="151" width="30" height="30" stroke="#3B687F"/>
<rect x="241" y="181" width="30" height="30" stroke="#3B687F"/>
<rect x="271" y="1" width="30" height="30" stroke="#3B687F"/>
<rect x="271" y="31" width="30" height="30" stroke="#3B687F"/>
<rect x="271" y="61" width="30" height="30" stroke="#3B687F"/>
<rect x="271" y="91" width="30" height="30" stroke="#3B687F"/>
<rect x="271" y="121" width="30" height="30" stroke="#3B687F"/>
<rect x="271" y="151" width="30" height="30" stroke="#3B687F"/>
<rect x="271" y="181" width="30" height="30" stroke="#3B687F"/>
<circle cx="172.5" cy="99.5" r="4.5" fill="#65C6DA"/>
<circle cx="132.5" cy="99.5" r="4.5" fill="#65C6DA"/>
<circle cx="63.5" cy="193.5" r="4.5" fill="#65C6DA"/>
<circle cx="67.5" cy="86.5" r="4.5" fill="#65C6DA"/>
<circle cx="121.5" cy="120.5" r="4.5" fill="#65C6DA"/>
<circle cx="174.5" cy="176.5" r="4.5" fill="#65C6DA"/>
<circle cx="235.5" cy="165.5" r="4.5" fill="#65C6DA"/>
<circle cx="210.5" cy="165.5" r="4.5" fill="#65C6DA"/>
<circle cx="105.5" cy="44.5" r="4.5" fill="#65C6DA"/>
<circle cx="45.5" cy="122.5" r="4.5" fill="#65C6DA"/>
<circle cx="143.5" cy="74.5" r="4.5" fill="#65C6DA"/>
<circle cx="96.5" cy="125.5" r="4.5" fill="#65C6DA"/>
<circle cx="230.5" cy="131.5" r="4.5" fill="#65C6DA"/>
<circle cx="273.5" cy="83.5" r="4.5" fill="#65C6DA"/>
<circle cx="85.5" cy="144.5" r="4.5" fill="#65C6DA"/>
<circle cx="291.5" cy="61.5" r="4.5" fill="#65C6DA"/>
<circle cx="76.5" cy="102.5" r="4.5" fill="#65C6DA"/>
<circle cx="189.5" cy="70.5" r="4.5" fill="#65C6DA"/>
<circle cx="210.5" cy="185.5" r="4.5" fill="#65C6DA"/>
<circle cx="219.5" cy="151.5" r="4.5" fill="#65C6DA"/>
<circle cx="282.5" cy="121.5" r="4.5" fill="#65C6DA"/>
<circle cx="252.5" cy="122.5" r="4.5" fill="#65C6DA"/>
<circle cx="252.5" cy="146.5" r="4.5" fill="#65C6DA"/>
<path d="M63.4519 58.4158L75.3654 70.3293C88.2597 57.435 88.2597 36.5291 75.3654 23.6348L63.6543 35.3458C66.5812 38.2723 68.3915 42.3154 68.3915 46.7814C68.3915 51.3494 66.4975 55.475 63.4519 58.4158Z" fill="#A1CF6F"/>
<path d="M52.0543 14C61.198 14 69.4736 17.7168 75.4526 23.7219L63.7413 35.4333C60.8083 32.4559 56.7298 30.61 52.2203 30.61C52.1648 30.61 52.1095 30.6103 52.0542 30.6109L52.0543 14Z" fill="#FCD65B"/>
<path d="M28.7219 23.6857C35.1875 17.2202 43.6674 13.9967 52.1415 14.0151L52.1415 30.6102C47.6048 30.6318 43.5097 32.5215 40.5858 35.5496L28.7219 23.6857Z" fill="white"/>
<path d="M28.6708 70.3292C15.7764 57.4349 15.7764 36.529 28.6708 23.6346L40.5858 35.5496C37.7769 38.4586 36.0489 42.4182 36.0489 46.7813C36.0489 55.7125 43.2891 62.9526 52.2202 62.9526C56.5834 62.9526 60.5429 61.2247 63.4519 58.4158L75.3654 70.3292C62.471 83.2236 41.5651 83.2236 28.6708 70.3292Z" fill="#65C6DA"/>
<path d="M11 166.899L34.7989 182.449L49.0782 154.264L68.1173 161.067L83.4544 128.994L105.667 135.798L124.177 166.899L139.514 198L158.553 161.067L171.246 128.994L179.179 85.2584L188.169 55.1292L206.68 25L223.074 55.1292L233.652 98.8652L254.277 107.612L273.317 92.0618L295 70.6798" stroke="#65C6DA" stroke-width="2" stroke-linejoin="round"/>
<path d="M7 156.08L24.4597 136.667L49.8555 139.7L67.3152 111.793L92.7111 106.94L110.171 85.7067L133.979 96.6267L151.968 76L164.137 92.38L187.946 106.94L199.056 136.667L221.278 156.08L246.674 167L267.837 152.44L289 163.967" stroke="#A1CF6F" stroke-width="2" stroke-linejoin="round"/>
</svg>
