<svg width="302" height="212" viewBox="0 0 302 212" fill="none" xmlns="http://www.w3.org/2000/svg">
<rect x="1" y="1" width="30" height="30" stroke="#3B687F"/>
<rect x="1" y="31" width="30" height="30" stroke="#3B687F"/>
<rect x="1" y="61" width="30" height="30" stroke="#3B687F"/>
<rect x="1" y="91" width="30" height="30" stroke="#3B687F"/>
<rect x="1" y="121" width="30" height="30" stroke="#3B687F"/>
<rect x="1" y="151" width="30" height="30" stroke="#3B687F"/>
<rect x="1" y="181" width="30" height="30" stroke="#3B687F"/>
<rect x="31" y="1" width="30" height="30" stroke="#3B687F"/>
<rect x="31" y="31" width="30" height="30" stroke="#3B687F"/>
<rect x="31" y="61" width="30" height="30" stroke="#3B687F"/>
<rect x="31" y="91" width="30" height="30" stroke="#3B687F"/>
<rect x="31" y="121" width="30" height="30" stroke="#3B687F"/>
<rect x="31" y="151" width="30" height="30" stroke="#3B687F"/>
<rect x="31" y="181" width="30" height="30" stroke="#3B687F"/>
<rect x="61" y="1" width="30" height="30" stroke="#3B687F"/>
<rect x="61" y="31" width="30" height="30" stroke="#3B687F"/>
<rect x="61" y="61" width="30" height="30" stroke="#3B687F"/>
<rect x="61" y="91" width="30" height="30" stroke="#3B687F"/>
<rect x="61" y="121" width="30" height="30" stroke="#3B687F"/>
<rect x="61" y="151" width="30" height="30" stroke="#3B687F"/>
<rect x="61" y="181" width="30" height="30" stroke="#3B687F"/>
<rect x="91" y="1" width="30" height="30" stroke="#3B687F"/>
<rect x="91" y="31" width="30" height="30" stroke="#3B687F"/>
<rect x="91" y="61" width="30" height="30" stroke="#3B687F"/>
<rect x="91" y="91" width="30" height="30" stroke="#3B687F"/>
<rect x="91" y="121" width="30" height="30" stroke="#3B687F"/>
<rect x="91" y="151" width="30" height="30" stroke="#3B687F"/>
<rect x="91" y="181" width="30" height="30" stroke="#3B687F"/>
<rect x="121" y="1" width="30" height="30" stroke="#3B687F"/>
<rect x="121" y="31" width="30" height="30" stroke="#3B687F"/>
<rect x="121" y="61" width="30" height="30" stroke="#3B687F"/>
<rect x="121" y="91" width="30" height="30" stroke="#3B687F"/>
<rect x="121" y="121" width="30" height="30" stroke="#3B687F"/>
<rect x="121" y="151" width="30" height="30" stroke="#3B687F"/>
<rect x="121" y="181" width="30" height="30" stroke="#3B687F"/>
<rect x="151" y="1" width="30" height="30" stroke="#3B687F"/>
<rect x="151" y="31" width="30" height="30" stroke="#3B687F"/>
<rect x="151" y="61" width="30" height="30" stroke="#3B687F"/>
<rect x="151" y="91" width="30" height="30" stroke="#3B687F"/>
<rect x="151" y="121" width="30" height="30" stroke="#3B687F"/>
<rect x="151" y="151" width="30" height="30" stroke="#3B687F"/>
<rect x="151" y="181" width="30" height="30" stroke="#3B687F"/>
<rect x="181" y="1" width="30" height="30" stroke="#3B687F"/>
<rect x="181" y="31" width="30" height="30" stroke="#3B687F"/>
<rect x="181" y="61" width="30" height="30" stroke="#3B687F"/>
<rect x="181" y="91" width="30" height="30" stroke="#3B687F"/>
<rect x="181" y="121" width="30" height="30" stroke="#3B687F"/>
<rect x="181" y="151" width="30" height="30" stroke="#3B687F"/>
<rect x="181" y="181" width="30" height="30" stroke="#3B687F"/>
<rect x="211" y="1" width="30" height="30" stroke="#3B687F"/>
<rect x="211" y="31" width="30" height="30" stroke="#3B687F"/>
<rect x="211" y="61" width="30" height="30" stroke="#3B687F"/>
<rect x="211" y="91" width="30" height="30" stroke="#3B687F"/>
<rect x="211" y="121" width="30" height="30" stroke="#3B687F"/>
<rect x="211" y="151" width="30" height="30" stroke="#3B687F"/>
<rect x="211" y="181" width="30" height="30" stroke="#3B687F"/>
<rect x="241" y="1" width="30" height="30" stroke="#3B687F"/>
<rect x="241" y="31" width="30" height="30" stroke="#3B687F"/>
<rect x="241" y="61" width="30" height="30" stroke="#3B687F"/>
<rect x="241" y="91" width="30" height="30" stroke="#3B687F"/>
<rect x="241" y="121" width="30" height="30" stroke="#3B687F"/>
<rect x="241" y="151" width="30" height="30" stroke="#3B687F"/>
<rect x="241" y="181" width="30" height="30" stroke="#3B687F"/>
<rect x="271" y="1" width="30" height="30" stroke="#3B687F"/>
<rect x="271" y="31" width="30" height="30" stroke="#3B687F"/>
<rect x="271" y="61" width="30" height="30" stroke="#3B687F"/>
<rect x="271" y="91" width="30" height="30" stroke="#3B687F"/>
<rect x="271" y="121" width="30" height="30" stroke="#3B687F"/>
<rect x="271" y="151" width="30" height="30" stroke="#3B687F"/>
<rect x="271" y="181" width="30" height="30" stroke="#3B687F"/>
<path d="M11 160.899L34.7989 176.449L49.0782 148.264L68.1173 155.067L83.4544 122.994L105.667 129.798L124.177 160.899L139.514 192L158.553 155.067L171.246 122.994L179.179 79.2584L188.169 49.1292L206.68 19L223.074 49.1292L233.652 92.8652L254.277 101.612L273.317 86.0618L295 64.6798" stroke="#65C6DA" stroke-width="2" stroke-linejoin="round"/>
<path d="M7 150.08L24.4597 130.667L49.8555 133.7L67.3152 105.793L92.7111 100.94L110.171 79.7067L133.979 90.6267L151.968 70L164.137 86.38L187.946 100.94L199.056 130.667L221.278 150.08L246.674 161L267.837 146.44L289 157.967" stroke="#A1CF6F" stroke-width="2" stroke-linejoin="round"/>
</svg>
