<svg width="300" height="212" viewBox="0 0 300 212" fill="none" xmlns="http://www.w3.org/2000/svg">
<path d="M82.641 181L65.3205 151L48 181M82.641 181H48M82.641 181L65.3205 211L48 181M99.641 151L82.3205 121L65 151M99.641 151H65M99.641 151L82.3205 181M65 151L82.3205 181M116.641 121L99.3205 91L82 121M116.641 121H82M116.641 121L99.3205 151M82 121L99.3205 151M133.641 91L116.321 61L99 91M133.641 91H99M133.641 91L116.321 121M99 91L116.321 121M150.641 61L133.321 31L116 61M150.641 61H116M150.641 61L133.321 91M116 61L133.321 91M167.641 31L150.321 1L133 31M167.641 31H133M167.641 31L150.321 61M133 31L150.321 61M82.3205 181L99.641 211H65L82.3205 181ZM99.3205 151L116.641 181M99.3205 151L82 181M116.641 181H82M116.641 181L99.3205 211L82 181M116.321 121L133.641 151M116.321 121L99 151M133.641 151H99M133.641 151L116.321 181M99 151L116.321 181M133.321 91L150.641 121M133.321 91L116 121M150.641 121H116M150.641 121L133.321 151M116 121L133.321 151M150.321 61L167.641 91M150.321 61L133 91M167.641 91H133M167.641 91L150.321 121M133 91L150.321 121M184.641 61L167.321 31L150 61M184.641 61H150M184.641 61L167.321 91M150 61L167.321 91M116.321 181L133.641 211H99L116.321 181ZM133.321 151L150.641 181M133.321 151L116 181M150.641 181H116M150.641 181L133.321 211L116 181M150.321 121L167.641 151M150.321 121L133 151M167.641 151H133M167.641 151L150.321 181M133 151L150.321 181M167.321 91L184.641 121M167.321 91L150 121M184.641 121H150M184.641 121L167.321 151M150 121L167.321 151M201.641 91L184.321 61L167 91M201.641 91H167M201.641 91L184.321 121M167 91L184.321 121M150.321 181L167.641 211H133L150.321 181ZM167.321 151L184.641 181M167.321 151L150 181M184.641 181H150M184.641 181L167.321 211L150 181M184.321 121L201.641 151M184.321 121L167 151M201.641 151H167M201.641 151L184.321 181M167 151L184.321 181M218.641 121L201.321 91L184 121M218.641 121H184M218.641 121L201.321 151M184 121L201.321 151M184.321 181L201.641 211H167L184.321 181ZM201.321 151L218.641 181M201.321 151L184 181M218.641 181H184M218.641 181L201.321 211L184 181M235.641 151L218.321 121L201 151M235.641 151H201M235.641 151L218.321 181M201 151L218.321 181M218.321 181L235.641 211H201L218.321 181ZM252.641 181L235.321 151L218 181M252.641 181H218M252.641 181L235.321 211L218 181M48.3205 181L65.641 211H31L48.3205 181ZM252.321 181L269.641 211H235L252.321 181Z" stroke="#24405A"/>
<path d="M92 111L166 187" stroke="#A1CF6F" stroke-width="2" stroke-linejoin="round"/>
<path d="M95 172L194 94" stroke="#65C6DA" stroke-width="2" stroke-linejoin="round"/>
</svg>
