<svg width="300" height="210" viewBox="0 0 300 210" fill="none" xmlns="http://www.w3.org/2000/svg">
<path d="M253.902 105.049C253.902 162.46 207.361 209 149.951 209C92.5404 209 46 162.46 46 105.049M253.902 105.049C253.902 47.6388 207.361 1.09842 149.951 1.09842C92.5404 1.09842 46 47.6388 46 105.049M253.902 105.049C253.902 86.802 249.098 68.8763 239.975 53.0738L149.951 105.049M253.902 105.049H149.951M46 105.049C46 123.296 50.8032 141.222 59.9268 157.025L149.951 105.049M46 105.049H149.951M149.852 104.951L239.876 156.926C230.753 172.729 217.63 185.851 201.828 194.975L149.852 104.951ZM149.852 104.951L59.8283 52.9754C68.9519 37.1729 82.0744 24.0504 97.8769 14.9268L149.852 104.951ZM149.852 104.951L149.852 208.902C131.605 208.902 113.679 204.098 97.8769 194.975L149.852 104.951ZM149.852 104.951L149.852 1C168.1 0.999999 186.025 5.80318 201.828 14.9268L149.852 104.951ZM238.643 104.572C238.643 153.819 198.721 193.741 149.474 193.741C100.227 193.741 60.3052 153.819 60.3052 104.572C60.3052 55.3258 100.227 15.4036 149.474 15.4036C198.721 15.4036 238.643 55.3258 238.643 104.572ZM224.338 105.049C224.338 146.132 191.033 179.436 149.951 179.436C108.868 179.436 75.564 146.132 75.564 105.049C75.564 63.9665 108.868 30.6624 149.951 30.6624C191.033 30.6624 224.338 63.9665 224.338 105.049ZM209.079 104.572C209.079 137.491 182.393 164.177 149.474 164.177C116.555 164.177 89.8691 137.491 89.8691 104.572C89.8691 71.6535 116.555 44.9676 149.474 44.9676C182.393 44.9676 209.079 71.6535 209.079 104.572ZM194.774 105.049C194.774 129.804 174.706 149.872 149.951 149.872C125.196 149.872 105.128 129.804 105.128 105.049C105.128 80.2942 125.196 60.2264 149.951 60.2264C174.706 60.2264 194.774 80.2942 194.774 105.049ZM179.515 104.572C179.515 121.163 166.065 134.613 149.474 134.613C132.883 134.613 119.433 121.163 119.433 104.572C119.433 87.9813 132.883 74.5315 149.474 74.5315C166.065 74.5315 179.515 87.9813 179.515 104.572ZM165.21 105.049C165.21 113.476 158.378 120.308 149.951 120.308C141.524 120.308 134.692 113.476 134.692 105.049C134.692 96.622 141.524 89.7904 149.951 89.7904C158.378 89.7904 165.21 96.622 165.21 105.049Z" stroke="#2F546C"/>
<path d="M149.474 61.0817L132.785 79.6784L124.678 105.904L93.207 137.376L111.327 170.755L149.474 173.139L198.112 188.398L224.338 149.297L212.417 103.997V68.2342L177.131 53.9291L149.474 61.0817Z" stroke="#65C6DA" stroke-width="2" stroke-linejoin="round"/>
<path d="M123.248 120.686L105.128 105.428L110.85 82.5394L127.062 66.8037L148.997 75.8636L162.825 78.7247L173.793 91.1225L194.297 105.428L187.144 127.839L178.561 157.403L148.997 163.602L127.062 144.052L123.248 120.686Z" stroke="#A1CF6F" stroke-width="2" stroke-linejoin="round"/>
</svg>
