<svg width="303" height="210" viewBox="0 0 303 210" fill="none" xmlns="http://www.w3.org/2000/svg">
<path d="M248.5 154.793V125.207L258.5 135.207V164.793L248.5 154.793Z" stroke="#192D48"/>
<path d="M248.5 123.793V94.2071L258.5 104.207V133.793L248.5 123.793Z" stroke="#192D48"/>
<path d="M248.5 92.7929V63.2071L258.5 73.2071V102.793L248.5 92.7929Z" stroke="#192D48"/>
<path d="M248.5 61.7929V32.2071L258.5 42.2071V71.7929L248.5 61.7929Z" stroke="#192D48"/>
<path d="M248.5 30.7929V1.20711L258.5 11.2071V40.7929L248.5 30.7929Z" stroke="#192D48"/>
<path d="M259.5 165.793V136.207L269.5 146.207V175.793L259.5 165.793Z" stroke="#192D48"/>
<path d="M259.5 134.793V105.207L269.5 115.207V144.793L259.5 134.793Z" stroke="#192D48"/>
<path d="M259.5 103.793V74.2071L269.5 84.2071V113.793L259.5 103.793Z" stroke="#192D48"/>
<path d="M259.5 72.7929V43.2071L269.5 53.2071V82.7929L259.5 72.7929Z" stroke="#192D48"/>
<path d="M259.5 41.7929V12.2071L269.5 22.2071V51.7929L259.5 41.7929Z" stroke="#192D48"/>
<path d="M270.5 176.793V147.207L280.5 157.207V186.793L270.5 176.793Z" stroke="#192D48"/>
<path d="M270.5 145.793V116.207L280.5 126.207V155.793L270.5 145.793Z" stroke="#192D48"/>
<path d="M270.5 114.793V85.2071L280.5 95.2071V124.793L270.5 114.793Z" stroke="#192D48"/>
<path d="M270.5 83.7929V54.2071L280.5 64.2071V93.7929L270.5 83.7929Z" stroke="#192D48"/>
<path d="M270.5 52.7929V23.2071L280.5 33.2071V62.7929L270.5 52.7929Z" stroke="#192D48"/>
<path d="M281.5 187.793V158.207L291.5 168.207V197.793L281.5 187.793Z" stroke="#192D48"/>
<path d="M292.5 198.793V169.207L302.5 179.207V208.793L292.5 198.793Z" stroke="#192D48"/>
<path d="M281.5 156.793V127.207L291.5 137.207V166.793L281.5 156.793Z" stroke="#192D48"/>
<path d="M292.5 167.793V138.207L302.5 148.207V177.793L292.5 167.793Z" stroke="#192D48"/>
<path d="M281.5 125.793V96.2071L291.5 106.207V135.793L281.5 125.793Z" stroke="#192D48"/>
<path d="M292.5 136.793V107.207L302.5 117.207V146.793L292.5 136.793Z" stroke="#192D48"/>
<path d="M281.5 94.7929V65.2071L291.5 75.2071V104.793L281.5 94.7929Z" stroke="#192D48"/>
<path d="M292.5 105.793V76.2071L302.5 86.2071V115.793L292.5 105.793Z" stroke="#192D48"/>
<path d="M281.5 63.7929V34.2071L291.5 44.2071V73.7929L281.5 63.7929Z" stroke="#192D48"/>
<path d="M292.5 74.7929V45.2071L302.5 55.2071V84.7929L292.5 74.7929Z" stroke="#192D48"/>
<rect x="217.5" y="124.5" width="30" height="30" stroke="#24405A"/>
<rect x="186.5" y="124.5" width="30" height="30" stroke="#24405A"/>
<rect x="155.5" y="124.5" width="30" height="30" stroke="#24405A"/>
<rect x="124.5" y="124.5" width="30" height="30" stroke="#24405A"/>
<rect x="93.5" y="124.5" width="30" height="30" stroke="#24405A"/>
<rect x="62.5" y="124.5" width="30" height="30" stroke="#24405A"/>
<rect x="31.5" y="124.5" width="30" height="30" stroke="#24405A"/>
<rect x="0.5" y="124.5" width="30" height="30" stroke="#24405A"/>
<rect x="217.5" y="93.5" width="30" height="30" stroke="#24405A"/>
<rect x="186.5" y="93.5" width="30" height="30" stroke="#24405A"/>
<rect x="155.5" y="93.5" width="30" height="30" stroke="#24405A"/>
<rect x="124.5" y="93.5" width="30" height="30" stroke="#24405A"/>
<rect x="93.5" y="93.5" width="30" height="30" stroke="#24405A"/>
<rect x="31.5" y="93.5" width="30" height="30" stroke="#24405A"/>
<rect x="62.5" y="93.5" width="30" height="30" stroke="#24405A"/>
<rect x="0.5" y="93.5" width="30" height="30" stroke="#24405A"/>
<rect x="217.5" y="62.5" width="30" height="30" stroke="#24405A"/>
<rect x="186.5" y="62.5" width="30" height="30" stroke="#24405A"/>
<rect x="155.5" y="62.5" width="30" height="30" stroke="#24405A"/>
<rect x="124.5" y="62.5" width="30" height="30" stroke="#24405A"/>
<rect x="31.5" y="62.5" width="30" height="30" stroke="#24405A"/>
<rect x="93.5" y="62.5" width="30" height="30" stroke="#24405A"/>
<rect x="62.5" y="62.5" width="30" height="30" stroke="#24405A"/>
<rect x="0.5" y="62.5" width="30" height="30" stroke="#24405A"/>
<rect x="217.5" y="31.5" width="30" height="30" stroke="#24405A"/>
<rect x="186.5" y="31.5" width="30" height="30" stroke="#24405A"/>
<rect x="155.5" y="31.5" width="30" height="30" stroke="#24405A"/>
<rect x="31.5" y="31.5" width="30" height="30" stroke="#24405A"/>
<rect x="124.5" y="31.5" width="30" height="30" stroke="#24405A"/>
<rect x="93.5" y="31.5" width="30" height="30" stroke="#24405A"/>
<rect x="62.5" y="31.5" width="30" height="30" stroke="#24405A"/>
<rect x="0.5" y="31.5" width="30" height="30" stroke="#24405A"/>
<rect x="217.5" y="0.5" width="30" height="30" stroke="#24405A"/>
<rect x="186.5" y="0.5" width="30" height="30" stroke="#24405A"/>
<rect x="31.5" y="0.5" width="30" height="30" stroke="#24405A"/>
<rect x="155.5" y="0.5" width="30" height="30" stroke="#24405A"/>
<rect x="124.5" y="0.5" width="30" height="30" stroke="#24405A"/>
<rect x="93.5" y="0.5" width="30" height="30" stroke="#24405A"/>
<rect x="62.5" y="0.5" width="30" height="30" stroke="#24405A"/>
<rect x="0.5" y="0.5" width="30" height="30" stroke="#24405A"/>
<path d="M228.207 165.5L218.207 155.5H247.793L257.793 165.5H228.207Z" stroke="#192D48"/>
<path d="M42.2071 165.5L32.2071 155.5H61.7929L71.7929 165.5H42.2071Z" stroke="#192D48"/>
<path d="M197.207 165.5L187.207 155.5H216.793L226.793 165.5H197.207Z" stroke="#192D48"/>
<path d="M166.207 165.5L156.207 155.5H185.793L195.793 165.5H166.207Z" stroke="#192D48"/>
<path d="M135.207 165.5L125.207 155.5H154.793L164.793 165.5H135.207Z" stroke="#192D48"/>
<path d="M104.207 165.5L94.2071 155.5H123.793L133.793 165.5H104.207Z" stroke="#192D48"/>
<path d="M73.2071 165.5L63.2071 155.5H92.7929L102.793 165.5H73.2071Z" stroke="#192D48"/>
<path d="M11.2071 165.5L1.20711 155.5H30.7929L40.7929 165.5H11.2071Z" stroke="#192D48"/>
<path d="M64.2071 187.5L54.2071 177.5H83.7929L93.7929 187.5H64.2071Z" stroke="#192D48"/>
<path d="M250.207 187.5L240.207 177.5H269.793L279.793 187.5H250.207Z" stroke="#192D48"/>
<path d="M219.207 187.5L209.207 177.5H238.793L248.793 187.5H219.207Z" stroke="#192D48"/>
<path d="M188.207 187.5L178.207 177.5H207.793L217.793 187.5H188.207Z" stroke="#192D48"/>
<path d="M157.207 187.5L147.207 177.5H176.793L186.793 187.5H157.207Z" stroke="#192D48"/>
<path d="M126.207 187.5L116.207 177.5H145.793L155.793 187.5H126.207Z" stroke="#192D48"/>
<path d="M95.2071 187.5L85.2071 177.5H114.793L124.793 187.5H95.2071Z" stroke="#192D48"/>
<path d="M53.2071 176.5L43.2071 166.5H72.7929L82.7929 176.5H53.2071Z" stroke="#192D48"/>
<path d="M33.2071 187.5L23.2071 177.5H52.7929L62.7929 187.5H33.2071Z" stroke="#192D48"/>
<path d="M239.207 176.5L229.207 166.5H258.793L268.793 176.5H239.207Z" stroke="#192D48"/>
<path d="M208.207 176.5L198.207 166.5H227.793L237.793 176.5H208.207Z" stroke="#192D48"/>
<path d="M177.207 176.5L167.207 166.5H196.793L206.793 176.5H177.207Z" stroke="#192D48"/>
<path d="M146.207 176.5L136.207 166.5H165.793L175.793 176.5H146.207Z" stroke="#192D48"/>
<path d="M115.207 176.5L105.207 166.5H134.793L144.793 176.5H115.207Z" stroke="#192D48"/>
<path d="M75.2071 198.5L65.2071 188.5H94.7929L104.793 198.5H75.2071Z" stroke="#192D48"/>
<path d="M84.2071 176.5L74.2071 166.5H103.793L113.793 176.5H84.2071Z" stroke="#192D48"/>
<path d="M22.2071 176.5L12.2071 166.5H41.7929L51.7929 176.5H22.2071Z" stroke="#192D48"/>
<path d="M261.207 198.5L251.207 188.5H280.793L290.793 198.5H261.207Z" stroke="#192D48"/>
<path d="M230.207 198.5L220.207 188.5H249.793L259.793 198.5H230.207Z" stroke="#192D48"/>
<path d="M199.207 198.5L189.207 188.5H218.793L228.793 198.5H199.207Z" stroke="#192D48"/>
<path d="M168.207 198.5L158.207 188.5H187.793L197.793 198.5H168.207Z" stroke="#192D48"/>
<path d="M86.2071 209.5L76.2071 199.5H105.793L115.793 209.5H86.2071Z" stroke="#192D48"/>
<path d="M137.207 198.5L127.207 188.5H156.793L166.793 198.5H137.207Z" stroke="#192D48"/>
<path d="M106.207 198.5L96.2071 188.5H125.793L135.793 198.5H106.207Z" stroke="#192D48"/>
<path d="M44.2071 198.5L34.2071 188.5H63.7929L73.7929 198.5H44.2071Z" stroke="#192D48"/>
<path d="M272.207 209.5L262.207 199.5H291.793L301.793 209.5H272.207Z" stroke="#192D48"/>
<path d="M241.207 209.5L231.207 199.5H260.793L270.793 209.5H241.207Z" stroke="#192D48"/>
<path d="M210.207 209.5L200.207 199.5H229.793L239.793 209.5H210.207Z" stroke="#192D48"/>
<path d="M179.207 209.5L169.207 199.5H198.793L208.793 209.5H179.207Z" stroke="#192D48"/>
<path d="M148.207 209.5L138.207 199.5H167.793L177.793 209.5H148.207Z" stroke="#192D48"/>
<path d="M117.207 209.5L107.207 199.5H136.793L146.793 209.5H117.207Z" stroke="#192D48"/>
<path d="M55.2071 209.5L45.2071 199.5H74.7929L84.7929 209.5H55.2071Z" stroke="#192D48"/>
<path d="M78 160.899L93.838 176.449L103.341 148.264L116.011 155.067L126.218 122.994L141 129.798L153.318 160.899L166 162L176.196 155.067L184.642 122.994L189.922 79.2584L195.905 49.1292L208.223 19L219.134 49.1292L226.173 92.8652L239.899 101.612L252.57 86.0618L267 64.6798" stroke="#65C6DA" stroke-width="2" stroke-linejoin="round"/>
<path d="M21 148.16L37.7786 114.667L62.1839 119.9L78.9625 71.7533L103.368 63.38L120.146 26.7467L143.026 45.5867L153 60.5L167 67L194.887 63.38L205.565 114.667L226.919 148.16L251.325 167L271.662 141.88L292 161.767" stroke="#A1CF6F" stroke-width="2" stroke-linejoin="round"/>
</svg>
