<svg width="302" height="212" viewBox="0 0 302 212" fill="none" xmlns="http://www.w3.org/2000/svg">
<rect x="1" y="1" width="30" height="30" stroke="#3B687F"/>
<rect x="1" y="31" width="30" height="30" stroke="#3B687F"/>
<rect x="1" y="61" width="30" height="30" stroke="#3B687F"/>
<rect x="1" y="91" width="30" height="30" stroke="#3B687F"/>
<rect x="1" y="121" width="30" height="30" stroke="#3B687F"/>
<rect x="1" y="151" width="30" height="30" stroke="#3B687F"/>
<rect x="1" y="181" width="30" height="30" stroke="#3B687F"/>
<rect x="31" y="1" width="30" height="30" stroke="#3B687F"/>
<rect x="31" y="31" width="30" height="30" stroke="#3B687F"/>
<rect x="31" y="61" width="30" height="30" stroke="#3B687F"/>
<rect x="31" y="91" width="30" height="30" stroke="#3B687F"/>
<rect x="31" y="121" width="30" height="30" stroke="#3B687F"/>
<rect x="31" y="151" width="30" height="30" stroke="#3B687F"/>
<rect x="31" y="181" width="30" height="30" stroke="#3B687F"/>
<rect x="61" y="1" width="30" height="30" stroke="#3B687F"/>
<rect x="61" y="31" width="30" height="30" stroke="#3B687F"/>
<rect x="61" y="61" width="30" height="30" stroke="#3B687F"/>
<rect x="61" y="91" width="30" height="30" stroke="#3B687F"/>
<rect x="61" y="121" width="30" height="30" stroke="#3B687F"/>
<rect x="61" y="151" width="30" height="30" stroke="#3B687F"/>
<rect x="61" y="181" width="30" height="30" stroke="#3B687F"/>
<rect x="91" y="1" width="30" height="30" stroke="#3B687F"/>
<rect x="91" y="31" width="30" height="30" stroke="#3B687F"/>
<rect x="91" y="61" width="30" height="30" stroke="#3B687F"/>
<rect x="91" y="91" width="30" height="30" stroke="#3B687F"/>
<rect x="91" y="121" width="30" height="30" stroke="#3B687F"/>
<rect x="91" y="151" width="30" height="30" stroke="#3B687F"/>
<rect x="91" y="181" width="30" height="30" stroke="#3B687F"/>
<rect x="121" y="1" width="30" height="30" stroke="#3B687F"/>
<rect x="121" y="31" width="30" height="30" stroke="#3B687F"/>
<rect x="121" y="61" width="30" height="30" stroke="#3B687F"/>
<rect x="121" y="91" width="30" height="30" stroke="#3B687F"/>
<rect x="121" y="121" width="30" height="30" stroke="#3B687F"/>
<rect x="121" y="151" width="30" height="30" stroke="#3B687F"/>
<rect x="121" y="181" width="30" height="30" stroke="#3B687F"/>
<rect x="151" y="1" width="30" height="30" stroke="#3B687F"/>
<rect x="151" y="31" width="30" height="30" stroke="#3B687F"/>
<rect x="151" y="61" width="30" height="30" stroke="#3B687F"/>
<rect x="151" y="91" width="30" height="30" stroke="#3B687F"/>
<rect x="151" y="121" width="30" height="30" stroke="#3B687F"/>
<rect x="151" y="151" width="30" height="30" stroke="#3B687F"/>
<rect x="151" y="181" width="30" height="30" stroke="#3B687F"/>
<rect x="181" y="1" width="30" height="30" stroke="#3B687F"/>
<rect x="181" y="31" width="30" height="30" stroke="#3B687F"/>
<rect x="181" y="61" width="30" height="30" stroke="#3B687F"/>
<rect x="181" y="91" width="30" height="30" stroke="#3B687F"/>
<rect x="181" y="121" width="30" height="30" stroke="#3B687F"/>
<rect x="181" y="151" width="30" height="30" stroke="#3B687F"/>
<rect x="181" y="181" width="30" height="30" stroke="#3B687F"/>
<rect x="211" y="1" width="30" height="30" stroke="#3B687F"/>
<rect x="211" y="31" width="30" height="30" stroke="#3B687F"/>
<rect x="211" y="61" width="30" height="30" stroke="#3B687F"/>
<rect x="211" y="91" width="30" height="30" stroke="#3B687F"/>
<rect x="211" y="121" width="30" height="30" stroke="#3B687F"/>
<rect x="211" y="151" width="30" height="30" stroke="#3B687F"/>
<rect x="211" y="181" width="30" height="30" stroke="#3B687F"/>
<rect x="241" y="1" width="30" height="30" stroke="#3B687F"/>
<rect x="241" y="31" width="30" height="30" stroke="#3B687F"/>
<rect x="241" y="61" width="30" height="30" stroke="#3B687F"/>
<rect x="241" y="91" width="30" height="30" stroke="#3B687F"/>
<rect x="241" y="121" width="30" height="30" stroke="#3B687F"/>
<rect x="241" y="151" width="30" height="30" stroke="#3B687F"/>
<rect x="241" y="181" width="30" height="30" stroke="#3B687F"/>
<rect x="271" y="1" width="30" height="30" stroke="#3B687F"/>
<rect x="271" y="31" width="30" height="30" stroke="#3B687F"/>
<rect x="271" y="61" width="30" height="30" stroke="#3B687F"/>
<rect x="271" y="91" width="30" height="30" stroke="#3B687F"/>
<rect x="271" y="121" width="30" height="30" stroke="#3B687F"/>
<rect x="271" y="151" width="30" height="30" stroke="#3B687F"/>
<rect x="271" y="181" width="30" height="30" stroke="#3B687F"/>
<path d="M274.275 81.9724L274.188 81.9172V82L274.275 81.9724ZM273.406 81.227L273.609 81.1442V81.0337L273.406 81.227ZM277 79.0736L276.971 78.6871L276.913 78.4663L277 79.0736ZM264.333 76.2301L264.13 76.3129L262.478 76.7822L261.899 76.9755L261.232 77.1687L261 77.2515V77.3344L261.087 78.7699L261.174 80.0951L261.261 81.3098L261.406 81.3926L261.928 81.2546L264.275 80.592L264.333 80.7301L268.507 79.2117L268.536 79.2669L268.913 79.1288L270.246 78.6319L271.522 80.0951L271.696 79.9571L271.783 79.5429L271.754 80.2055H272.043L272.13 80.5368L272.391 81.0061L273.754 79.4325L274.884 79.7914L275.145 79.2393L277 78.3006L276.217 76.8374L276.42 77.7761L275.464 78.4663L274.391 78.5491L272.246 76.3681L271.29 74.9877L272.246 74.0215L271.261 73.9663L270.855 73.0552L270.826 73L269.174 74.7117L265.522 75.8712L264.333 76.2301Z" fill="#192D48" stroke="#2F546C" stroke-width="2" stroke-linejoin="round"/>
<path d="M159 58.6292L159.56 60.6365L160.735 67.874L161.295 70.7577L161.463 73.3021L162.106 74.8288L162.246 76.1292L162.358 76.5533L162.33 76.6381L161.211 78.504L161.938 79.748L163.338 89.6995L163.394 91L164.793 90.9152L170.306 90.6042L184.075 89.4451L185.446 89.3037V89.1624L185.054 86.9855L183.347 86.109L182.004 84.6955L179.877 83.395L179.205 83.3385L178.17 82.5469L178.45 78.6454L177.47 77.7407L177.806 76.1575L179.597 74.5178L179.289 71.1252L179.933 70.3901L182.116 68.0719L184.606 64.8489L185.558 64.1704L187.237 63.3506L189 62.0218L187.825 62.248L187.125 61.7108L184.438 62.0784L184.019 61.5695L181.612 62.559L179.681 61.7391L179.149 61.0889L177.61 61.2019L176.575 60.6648L176.91 60.269L175.595 59.8449H174.42L172.545 60.6648L172.181 60.0994L169.215 59.6753L168.207 57.1309L168.095 56.3675L166.808 56L166.92 58.1769L163.506 58.4313L159.28 58.601L159 58.6292Z" fill="#192D48" stroke="#2F546C" stroke-width="2" stroke-linejoin="round"/>
<path d="M132.466 58.7117L123.173 58.1047L116.407 57.47L109.668 56.6974L105.485 56.1456L98.8029 55.1246L95.4618 54.5728L87.9934 53.1656L87.2073 53L86 58.6289L86.5335 59.6499L86.9546 61.2226L86.7019 61.4434L87.2354 62.8782L87.9654 63.4853L90.043 66.9068L90.2395 67.4862L91.0818 67.431L90.0992 71.9562L89.7061 72.0666L89.1726 73.5842L91.9522 73.7774L92.1768 75.0466L93.7491 78.8268L94.0299 79.0476L95.1248 81.255L95.4056 81.0343L97.736 81.0067L100.684 81.3102L101.414 80.372L102.284 81.9172L102.453 82L102.481 81.8344L102.874 79.1304L112.476 80.2892L120.141 81.0067L124.184 81.3378L131.4 81.7517L131.765 81.7793H131.849L131.877 81.393L131.961 79.4891L132.073 76.9781L132.102 76.3435L132.158 75.2398L132.607 66.5756L132.972 59.843L133 58.7393L132.466 58.7117Z" fill="#192D48" stroke="#2F546C" stroke-width="2" stroke-linejoin="round"/>
<path d="M158.99 59.2209L150.401 59.3865L144.4 59.3589L139.252 59.2485L133.223 59.0276L132.91 59L132.882 60.1043L132.512 66.8405L132.057 75.5092L132 76.6135L133.109 76.6687L145.651 77L157.227 76.9172L162.033 76.7791L163 76.7239L162.886 76.3098L162.744 75.0399L162.09 73.5491L161.919 71.0644L161.35 68.2485L160.156 61.181L159.587 59.2209L158.99 59.2209Z" fill="#192D48" stroke="#2F546C" stroke-width="2" stroke-linejoin="round"/>
<path d="M87.0275 52.788L84.578 52.2814L83.7798 52.0844L83.422 52L80.2293 66.6904L80.367 67.9006L80.2569 69.167L80.3119 69.4484V69.4766L80.3394 70.0113L81.2752 71.0525L79.9266 74.5141L77.0642 78.3415L76.9816 79.045L77.7248 80.8462L75.1101 91.9343L75 92.5253L75.7706 92.6942L83.5596 94.2702L86.6697 94.8612L87.4679 95.0019L88.2385 95.1426L92.2018 95.7899L99.3028 96.8874L100.101 97L100.211 96.0713L100.459 94.242L101.394 86.925L101.89 83.2946L102 82.3659L101.835 82.2814L100.982 80.7054L100.266 81.6623L97.3761 81.3527L95.0917 81.3809L94.8165 81.606L93.7431 79.3546L93.4679 79.1295L91.9266 75.2739L91.7064 73.9794L88.9816 73.7824L89.5046 72.2345L89.8899 72.122L90.8532 67.5066L90.0275 67.5629L89.8349 66.9719L87.7982 63.4822L87.0826 62.8631L86.5596 61.3996L86.8073 61.1745L86.3945 59.5704L85.8716 58.5291L87.055 52.788L87.0275 52.788Z" fill="#192D48" stroke="#2F546C" stroke-width="2" stroke-linejoin="round"/>
<path d="M53.5667 59.6954L53.5951 59.2343L53.5384 59.2614L53.5667 59.6954ZM59.6024 57.2269L59.7724 56.9556L59.574 56.9285L59.6024 57.2269ZM59.064 56.7386L59.234 56.196L59.064 56.1418V56.7386ZM61.1325 55.9519L61.1042 55.4094L60.6225 56.1147L61.1325 55.9519ZM61.1892 54.8126L61.2742 54.27L61.2175 54.1344L61.1892 54.8126ZM61.2742 52.1541L61.2459 51.8557L61.1325 51.8286L61.2742 52.1541ZM62.181 50.3637L61.926 50.3366L61.4159 51.0962L62.181 50.3637ZM61.4726 49.6313L61.6143 49.5228L61.6426 49.4414L61.4726 49.6313ZM61.3309 49.7127L61.2459 49.1701L60.9909 49.6313L61.3309 49.7127ZM61.1892 48.9531L60.9342 48.8446L61.1325 49.1159L61.1892 48.9531ZM62.0393 49.4143V49.0616L61.9543 49.1973L62.0393 49.4143ZM62.2943 49.0616L62.181 48.9803H62.1526L62.2943 49.0616ZM60.6792 48.4648L60.5375 48.3563L60.4808 48.3292L60.6792 48.4648ZM61.7276 48.3563L60.9625 48.5462L61.1609 48.6005L61.7276 48.3563ZM61.1042 48.3021L60.9625 48.1393L60.9342 48.1664L61.1042 48.3021ZM61.6993 47.9766H61.5859L61.7276 48.0308L61.6993 47.9766ZM56.1453 61.8927L57.1654 62.9507L56.9954 64.9852L57.1938 65.5006L58.7239 66.2873L63.0311 66.6671L63.2011 67.1554L65.2413 67.1825L67.1682 67.4266L70.3135 67.1011L71.872 67.3453L72.2971 67.1554L80.2596 68.8915L80.798 69L80.7413 68.7287L80.8547 67.508L80.713 66.3416L84 52.1813L83.5466 52.0999L76.9159 50.6079L71.1353 49.1973L64.5896 47.4612L62.6344 47L63.0878 49.36L62.6627 50.1196L61.8976 49.7398L62.6344 53.0222L61.841 54.1073L61.4726 55.111V56.1418L59.8007 57.254L59.0923 56.82L58.4122 57.1455L59.659 55.5993L59.3473 56.6572L60.0558 55.9248L60.6225 56.0333L60.4525 54.6769L60.8208 54.7312L61.5859 53.1036L61.3309 52.8594L60.3391 54.0801L59.6874 54.1073L60.3958 53.3477L61.1892 53.1578L60.9059 51.7744L60.1124 51.5845L59.7157 50.9334L59.234 51.1776L56.6271 50.0925L54.3318 48.3835L53.7084 50.0382L53.6517 50.7435L54.1335 51.9914L53.8218 56.0333L53.5951 56.6572L54.8702 56.7657L53.5951 57.6338L54.2751 57.9593L53.7367 59.6954L53.4817 58.3391L53 59.9125L53.6517 60.672L54.3601 60.6178L55.2102 61.106L55.6353 61.8927L56.1453 61.8927Z" fill="#192D48" stroke="#2F546C" stroke-width="2" stroke-linejoin="round"/>
<path d="M105.269 127.144L95.7886 125.975L90.6969 125.252L83.4392 124.111L82.7078 124V124.056L81.4701 129.453L80.8231 129.425L79.8385 128.563L78.6008 129.592L78.5726 134.015L78.1225 134.961V135.045V135.073L78.0662 135.768L79.0508 138.383L79.9229 139.552L78.3476 140.47L77.7287 141.611L76.716 144.059L76.2096 144.17L76.1815 146.201L77.0535 146.841L76.6034 148.065L75.5907 148.121L75 149.206L77.0254 150.457L80.8512 152.572L92.6661 158.776L102.681 160H102.793L103.581 151.793L103.778 149.762L105.887 128.229L106 127.227L105.269 127.144Z" fill="#192D48" stroke="#2F546C" stroke-width="2" stroke-linejoin="round"/>
<path d="M57.1632 142.477L57.2758 143.088V143.199L57.1632 142.477ZM53.0238 140.09L53.2209 140.507L53.3336 140.479L53.0238 140.09ZM57.9516 140.007L58.0361 140.729L58.543 141.089L57.9516 140.007ZM54.5444 136.066L54.2347 135.983L54.4881 136.094L54.5444 136.066ZM51.4188 135.233L50.6585 135.678L50.8556 135.872L51.4188 135.233ZM49.9545 134.706L49.8982 134.928L50.1516 134.984L49.9545 134.706ZM52.4325 135.261L53.6715 135.955L53.8968 135.761L52.4325 135.261ZM45.8433 110.949L45.8151 110.866V110.977L45.8433 110.949ZM62.091 89.8846L60.9928 89.607L48.9408 86.3322L44.4635 85V85.111L44.2101 87.8586L43.0274 91.1057L41.0563 93.5203L41 94.7414L41.9574 96.4344L42.4361 98.6546L41.7603 100.459L41.8729 102.263L41.535 103.012L42.6895 105.482L43.4217 106.426L43.3653 109.118L45.1112 110.755L46.1249 109.09L47.2231 109.95L47.6455 109.562L46.1249 109.839L46.0967 111.255L46.4065 113.031L45.5617 112.226L45.083 111.144L44.9422 112.642L45.3364 115.612L46.9133 117.527L45.8715 118.859L46.0404 120.552L47.1668 122.273L49.1379 127.601L49.7574 127.934L49.5603 131.626L49.87 132.07L54.0939 133.568L55.3892 134.928L55.8397 135.816L57.0787 136.51L58.4303 136.76L58.9935 138.286L60.1198 138.814L61.8094 140.784L63.3863 143.365L63.2736 145.752L64.1466 146.89L75.6635 148L76.6772 147.944L77.1278 146.723L76.2549 146.085L76.283 144.059L76.7899 143.948L77.8036 141.506L78.4231 140.368L80 139.452L79.1271 138.286L78.1415 135.678L78.1978 134.984V134.956L77.4657 133.985L75.213 131.015L70.8484 124.965L64.7661 116.361L61.3307 111.671L58.0079 106.953L61.8375 90.9392L62.091 89.8846Z" fill="#192D48"/>
<path d="M42.8303 110.811L42.8022 110.838M57.1632 142.477L57.2758 143.088V143.199L57.1632 142.477ZM53.0238 140.09L53.2209 140.507L53.3336 140.479L53.0238 140.09ZM57.9516 140.007L58.0361 140.729L58.543 141.089L57.9516 140.007ZM54.5444 136.066L54.2347 135.983L54.4881 136.094L54.5444 136.066ZM51.4188 135.233L50.6585 135.678L50.8556 135.872L51.4188 135.233ZM49.9545 134.706L49.8982 134.928L50.1516 134.984L49.9545 134.706ZM52.4325 135.261L53.6715 135.955L53.8968 135.761L52.4325 135.261ZM45.8433 110.949L45.8151 110.866V110.977L45.8433 110.949ZM62.091 89.8846L60.9928 89.607L48.9408 86.3322L44.4635 85V85.111L44.2101 87.8586L43.0274 91.1057L41.0563 93.5203L41 94.7414L41.9574 96.4344L42.4361 98.6546L41.7603 100.459L41.8729 102.263L41.535 103.012L42.6895 105.482L43.4217 106.426L43.3653 109.118L45.1112 110.755L46.1249 109.09L47.2231 109.95L47.6455 109.562L46.1249 109.839L46.0967 111.255L46.4065 113.031L45.5617 112.226L45.083 111.144L44.9422 112.642L45.3364 115.612L46.9133 117.527L45.8715 118.859L46.0404 120.552L47.1668 122.273L49.1379 127.601L49.7574 127.934L49.5603 131.626L49.87 132.07L54.0939 133.568L55.3892 134.928L55.8397 135.816L57.0787 136.51L58.4303 136.76L58.9935 138.286L60.1198 138.814L61.8094 140.784L63.3863 143.365L63.2736 145.752L64.1466 146.89L75.6635 148L76.6772 147.944L77.1278 146.723L76.2549 146.085L76.283 144.059L76.7899 143.948L77.8036 141.506L78.4231 140.368L80 139.452L79.1271 138.286L78.1415 135.678L78.1978 134.984V134.956L77.4657 133.985L75.213 131.015L70.8484 124.965L64.7661 116.361L61.3307 111.671L58.0079 106.953L61.8375 90.9392L62.091 89.8846Z" stroke="#2F546C" stroke-width="2" stroke-linejoin="round"/>
<path d="M139.886 111.437L140 106.058L138.626 106.003L131.643 105.756L130.956 105.729L130.384 105.701L121.884 105.18L116.217 104.741L109.148 104.082L108.461 104L108.375 104.714L106.83 119.011L106.286 124.005L106.057 126.173L106 126.887L106.887 126.969L121.311 128.177L127.665 128.561L133.99 128.835L134.906 128.863L135.478 128.89L136.68 128.918L137.253 128.945L139.056 129H139.513V128.451L139.828 113.934L139.857 112.315V111.794L139.886 111.437Z" fill="#192D48" stroke="#2F546C" stroke-width="2" stroke-linejoin="round"/>
<path d="M83.334 123.113L86.3111 105.185L87.8282 96.2069L88 95.3202L87.1698 95.1816L83.9351 94.5997L75.834 93.048L75.0324 92.8818L74.2309 92.7155L70.1947 91.8565L62.9523 90.194L62.1508 90L61.8931 91.053L58 107.041L61.3779 111.752L64.8702 116.435L71.0534 125.025L75.4905 131.065L77.7805 134.03L78.5248 135V134.917L78.9828 133.975L79.0115 129.569L80.271 128.544L81.2729 129.403L81.9313 129.43L83.1908 124.055V123.999L83.334 123.113Z" fill="#192D48" stroke="#2F546C" stroke-width="2" stroke-linejoin="round"/>
<path d="M134.915 131.279L134.943 130.537L134.972 129.795L135 129.054L134.089 129.025L127.797 128.74L121.477 128.341L107.128 127.086L106.246 127L106.132 128.027L103.996 150.104L103.797 152.186L103 160.601L103.114 160.629L107.043 161L107.413 159.003L108.125 158.433L116.096 159.146H116.153L115.441 157.748L119.057 158.005L128.082 158.518L133.719 158.775L134.687 132.02L134.886 132.049L134.915 131.279Z" fill="#192D48" stroke="#2F546C" stroke-width="2" stroke-linejoin="round"/>
<path d="M44.3652 84.1802L48.8322 85.5207L60.8565 88.8162L61.9522 89.0955L62.7388 89.291L69.8466 90.9667L73.8079 91.8324L74.5945 92L74.7069 91.4135L77.3759 80.4099L76.6173 78.6225L76.7016 77.9243L79.6234 74.1261L81 70.691L80.0448 69.6577L80.0167 69.127V69.0991L79.4829 68.9874L71.5884 67.2L71.167 67.3955L69.6219 67.1441L66.5034 67.4793L64.593 67.2279L62.5702 67.2L62.4017 66.6973L58.1314 66.3063L56.6143 65.4964L56.4176 64.9657L56.5862 62.8712L55.5748 61.782L55.4905 61.8099L55.2938 61.9495L53.8891 61.2234L53.0463 61.4748L52.4844 61.1955L51.8945 63.5973L51.5011 64.2675L49.7593 68.4847L49.2536 70.8027L48.9446 70.8306L47.3151 74.6847L46.2194 76.3324L45.8261 76.6117L44.8147 78.5667L44.6181 80.6333L44 82.4766L44.3652 84.1522L44.3652 84.1802ZM54.6477 61.2514L54.5634 61L54.5353 61.1955L54.6477 61.2514Z" fill="#192D48" stroke="#2F546C" stroke-width="2" stroke-linejoin="round"/>
<path d="M100.011 96.8627L92.6718 95.7785L88.5755 95.139L87.779 95L87.6083 95.8897L86.1007 104.897L83.1422 122.885L83 123.775L83.7396 123.886L91.0788 125.026L96.2276 125.749L105.814 126.917L106.554 127L106.61 126.277L106.838 124.081L107.379 119.021L108.915 104.536L109 103.813L108.431 103.758L101.177 102.896L100.068 102.757L100.779 97.3354L100.836 96.9739L100.011 96.8627Z" fill="#192D48" stroke="#2F546C" stroke-width="2" stroke-linejoin="round"/>
<path d="M131.467 93.1222L131.691 88.6077L131.972 82.5306L132 81.7781L131.635 81.7492L124.421 81.3151L120.379 80.9678L112.716 80.2154L103.116 79L102.723 81.836L102.695 82.0096L102.582 82.9646L102.077 86.6977L101.123 94.2219L100.87 96.1029L100.758 97.0579L100.702 97.4341L100 103.077L101.095 103.222L108.253 104.119L108.814 104.177L109.488 104.264L116.421 104.958L121.979 105.421L130.316 105.971L130.877 106L130.905 105.248L131.046 102.209L131.298 96.9132L131.411 94.656L131.439 93.9035L131.467 93.1222Z" fill="#192D48" stroke="#2F546C" stroke-width="2" stroke-linejoin="round"/>
<path d="M196.972 132.603L193.994 133.051L195.207 131.092L194.683 130L184.176 131.036L175.296 131.763L174 131.847L174.165 132.631L175.241 138.285L175.269 139.545L175.572 147.158L175.6 148.417L175.682 148.445L176.096 148.893L177.751 148.837L177.916 151.3L177.971 152L178.826 151.916L181.446 151.72L191.843 150.74H191.898L191.871 150.125L192.146 149.929L191.65 148.977L192.698 144.499L192.284 143.995L193.856 142.232L193.746 140.72L194.904 138.761V138.733L194.849 138.677L195.842 137.753L195.566 136.634L196.338 135.402L196.173 134.254L197 132.631V132.603L196.972 132.603Z" fill="#192D48" stroke="#2F546C" stroke-width="2" stroke-linejoin="round"/>
<path d="M189.507 94.4902L187.931 93.6566L187.071 92.4781L186.785 90.7822L187.014 90.0061L186.183 89L184.779 89.1437L170.68 90.3222L165.035 90.6384L163.602 90.7247L163 90.7534L163.487 93.944L163.086 95.4675L163.716 96.416V96.6172L163.917 96.646L164.834 99.348L165.722 100.756L165.78 102.366L166.754 103.717L166.582 104.292L167.47 107.914V108L173.345 107.828L179.621 107.281L185.782 106.505L187.186 107.741L187.243 107.799L187.501 107.684L187.3 106.563L188.361 105.902L188.79 102.97L188.361 102.769L188.619 101.274L189.908 101.015L191.341 99.9803L191.971 98.1695L192 97.2496L190.854 96.1574L190.51 95.4675L189.421 94.7776L189.478 94.6339L189.507 94.4902Z" fill="#192D48" stroke="#2F546C" stroke-width="2" stroke-linejoin="round"/>
<path d="M173.972 127.472L173.268 115.722L172.001 115L171.888 114.444L170.875 113.556L171.86 112.361L171.466 111.667L170.734 111.694L170.058 111.222L169.776 111L168.819 111.056L158.429 111.444L153.67 111.556H144.209L140.408 111.5L139.338 111.472V112L139.31 113.639L139 128.333V128.889L140.211 128.917L146.743 129L162.033 128.778L172.93 128.278L174 128.194L173.972 127.472Z" fill="#192D48" stroke="#2F546C" stroke-width="2" stroke-linejoin="round"/>
<path d="M186.823 107.234L185.413 106L179.228 106.775L172.927 107.32L167.029 107.492L167 107.664L167.719 109.041L168.381 109.501L169.158 110.878L169.273 110.993L169.561 111.222L170.251 111.71L170.999 111.681L171.402 112.399L170.395 113.632L171.431 114.55L171.546 115.124L172.84 115.87L173.56 128.007L173.588 128.753L173.646 129.499L173.675 130.245L173.732 131.02L173.761 131.766L175.113 131.68L184.378 130.934L195.339 129.872L195.886 130.991L194.62 133L197.727 132.541H197.756V132.311L197.813 130.991L198.389 130.274L198.216 129.471L198.187 129.442L198.159 129.413L198.274 129.04L198.446 129.098L198.533 129.327L198.504 129.413V129.442V129.672L198.619 129.7L198.849 129.413V129.385L198.878 129.299L199.626 128.84L199.741 128.782L200 126.429L199.942 126.315L199.856 126.286L197.813 124.622L198.13 124.019L197.554 122.384L196.519 121.58L194.562 120.719L193.325 119.715L193.469 117.649L193.843 115.727L191.772 115.842L191.139 115.182L190.851 113.862L187.571 111.107L186.65 108.554L186.881 107.291L186.823 107.234Z" fill="#192D48" stroke="#2F546C" stroke-width="2" stroke-linejoin="round"/>
<path d="M163.612 96.8598L162.744 95.9907L159.69 95.0935L158.709 95.0654L157.224 95.486L155.459 94.3645L149.94 94.4206L141.899 94.3365L132.401 94.0281L131.56 94L131.532 94.729L131.42 96.9159L131.168 102.047L131.028 104.991L131 105.72L131.672 105.748L138.509 106L139.853 106.056L139.741 111.551L139.713 111.916L140.778 111.944L144.56 112H153.974L158.709 111.888L169.047 111.495L170 111.439L169.888 111.327L169.131 109.981L168.487 109.533L167.787 108.187L167.815 108.019V107.935L166.946 104.402L167.114 103.841L166.162 102.523L166.106 100.953L165.237 99.5795L164.341 96.9439L164.144 96.9159L163.612 96.8598Z" fill="#192D48" stroke="#2F546C" stroke-width="2" stroke-linejoin="round"/>
<path d="M174.317 131.132L174.26 130.403L174.231 129.702L174.174 129L173.09 129.081L162.048 129.567L146.554 129.783L139.935 129.702L138.708 129.675H138.251L136.454 129.621L135.883 129.594L134.685 129.567L134.114 129.54L134.086 130.241L134.057 130.943L134.029 131.645L134 132.374H134.171L141.076 132.535L148.38 132.616L148.466 141.847L148.98 143.466L150.121 144.491L151.348 144.545L151.605 144.06L153.288 145.517L155.485 145.733L155.885 146.165L156.683 145.814L158.681 146.705V147.217L159.423 147.19L160.193 146.57L161.62 147.433L162.961 147.892L163.874 146.705L166.784 148L167.868 147.163L168.753 146.839L169.466 147.001L172.148 146.273L173.575 146.839L174.859 147.622L175.971 147.811H176L175.971 146.597L175.658 139.256L175.629 138.041L174.516 132.589L174.345 131.834L174.317 131.132Z" fill="#192D48" stroke="#2F546C" stroke-width="2" stroke-linejoin="round"/>
<path d="M161.872 77.1667L157.077 77.3056L145.528 77.3889L133.015 77.0556L131.908 77L131.88 77.6389L131.766 80.1667L131.681 82.0833L131.653 82.4722H131.568L131.539 83.1944L131.255 89.0278L131.028 93.3611L131 94.1111L131.851 94.1389L141.47 94.4444L149.614 94.5278L155.204 94.4722L156.991 95.5833L158.495 95.1667L159.488 95.1944L162.581 96.0833L163.461 96.9444L164 97V96.8056L163.376 95.8889L163.773 94.4167L163.291 91.3333L163.887 91.3056L163.83 90.0278L162.411 80.25L161.673 79.0278L162.808 77.1945L162.837 77.1111L161.872 77.1667Z" fill="#192D48" stroke="#2F546C" stroke-width="2" stroke-linejoin="round"/>
<path d="M197.218 172.757L196.847 172.838L196.676 173L197.218 172.757ZM198.415 172.757L198.216 172.676L198.159 172.757H198.415ZM199.1 172.542H198.9L198.786 172.676L199.1 172.542ZM198.758 172.353L198.701 172.272L198.672 172.353H198.758ZM201.039 170.924L200.953 170.978H201.096L201.039 170.924ZM205.031 169.333L205.202 169.118L205.002 169.36L205.031 169.333ZM205.601 168.632L205.544 168.659V168.686L205.601 168.632ZM190.945 171.005L191.373 170.493L190.204 170.196L189.69 170.6L190.945 171.005ZM202.778 168.659L202.664 168.551L202.635 168.605L202.778 168.659ZM203.092 168.174L202.807 168.093L202.892 168.363L203.092 168.174ZM205.43 167.716V167.635V167.662V167.716ZM206 167.365L205.971 167.338L206 167.392V167.365ZM205.772 167.311L205.715 167.284L205.686 167.365L205.772 167.311ZM203.776 167.23L204.033 167.15V167.069L203.776 167.23ZM203.919 167.096L204.061 166.961L204.033 166.934L203.919 167.096ZM202.921 166.098L202.864 166.152H202.892L202.921 166.098ZM192.399 151H192.342L181.593 151.944L178.884 152.132L178 152.213L178.029 152.86L178.599 158.064L179.54 159.304L179.568 160.032L180.481 161.542L181.222 163.752L180.965 164.993L180.766 168.066L180.338 169.064H180.395L180.481 169.765L179.996 170.412L183.532 170.034L186.297 170.762L188.265 171.005L189.263 170.331L188.721 169.657L190.546 169.118L190.489 169.711L191.43 169.495L192.2 170.627L192.855 170.412L194.566 171.517L193.511 171.868L195.935 172.542H196.847L197.389 171.922L198.558 171.328L199.385 172.461L199.955 171.436L199.784 169.819L201.324 170.385L201.495 170.87L203.32 171.086L204.232 171.787L204.118 172.353L205.401 171.221L204.917 170.627L202.778 170.115L201.98 169.684L201.951 168.875L202.835 168.983L203.519 167.662L202.635 166.502L202.151 167.608L201.039 167.419L201.809 166.233L201.295 166.098L200.041 166.934L198.244 167.042L197.731 166.664L198.558 165.289L199.528 165.262L201.181 165.775L202.379 165.882L201.723 165.1L200.468 162.782L200.811 161.488L190.974 162.512L191.344 162.162L190.945 161.191L191.544 160.355L191.886 158.252L194.053 154.748L192.998 153.534L193.055 152.645L192.399 151.189L192.399 151Z" fill="#192D48" stroke="#2F546C" stroke-width="2" stroke-linejoin="round"/>
<path d="M163.505 192.735L162.159 187.645V188.601L163.505 192.735ZM163.196 183.793L162.243 185.593L162.131 186.183L163.196 183.793ZM163.953 182.472L164.85 181.291L164.206 181.684L163.953 182.472ZM167.121 179.604L165.019 180.7L165.607 180.588L167.121 179.604ZM167.402 179.21L167.991 178.732L167.766 178.788L167.402 179.21ZM134.15 132.028L133.953 132L133 158.375L127.449 158.122L118.561 157.615L115 157.362L115.701 158.74L115.729 158.768L118.757 161.805L120.495 163.858L122.794 165.573L124.421 168.553L125.037 171.674L126.355 172.546L127.393 173.699L128.879 174.233L131.037 175.611L132.019 175.976L133.364 174.627L133.785 173.193L134.486 171.815L136.673 170.943L137.514 171.365L139.953 171.562L142.168 172.94L143.682 173.221L143.262 174.008L144.131 174.571L144.944 175.555L145.112 176.595L145.645 177.298L146.879 180.278L148.112 181.319L149.065 182.893L150.271 184.131L150.804 184.299L151.252 187.505L152.57 188.236L152.626 189.248L152.963 189.164L155.262 191.975L156.411 192.229L157.869 193.1H160.112L161.738 194L163.673 193.578L162.804 192.763L162.019 190.401L161.71 188.348L161.262 187.673L161.458 186.296L160.869 186.239L160.084 184.946L160.981 185.902L162.019 185.537L162.579 184.046L161.458 182.528L163.14 182.725L163.925 181.516L163.813 181.094L164.514 180.166L164.346 180.981L165.131 180.363L164.822 179.266L165.832 179.8L167.121 179.069L165.86 177.748L166.645 178.057L168.103 178.141L170.009 177.72L172.14 176.286L173.43 175.217L173.626 174.43L174.411 173.615L173.991 172.265L174.075 171.421L175.477 170.803L175.364 172.293H176.206L175.28 173.08L179.009 171.112L179.626 171.084L180.019 169.284H180.131L180.551 168.244L180.748 165.039L181 163.745L180.271 161.439L179.374 159.865L179.346 159.106L178.421 157.812L177.86 152.385L177.832 151.711L177.776 151.008L177.607 148.533L175.925 148.59L175.505 148.14L175.421 148.112H175.392L174.299 147.915L173.037 147.099L171.635 146.509L169 147.268L168.299 147.099L167.43 147.437L166.364 148.308L163.505 146.959L162.607 148.196L161.29 147.718L159.888 146.818L159.131 147.465L158.402 147.493V146.959L156.439 146.031L155.654 146.396L155.262 145.946L153.103 145.722L151.449 144.203L151.196 144.709L149.991 144.653L148.869 143.585L148.364 141.898L148.28 132.281L141.103 132.197L134.318 132.028L134.15 132.028Z" fill="#192D48" stroke="#2F546C" stroke-width="2" stroke-linejoin="round"/>
<path d="M268.806 79L264.806 80.4667L264.75 80.3333L262.5 80.9733L262 81.1067L262.056 81.3733L263.111 85.2933L263.444 85.6933L262.722 86.5467L263.222 87L264.833 85.5067L265.694 84.36L265.861 84.68L269.917 82.9467L270 82.8667L269.972 82.2267L269.806 81.6667L268.944 79.3467L268.833 79.0533L268.806 79Z" fill="#192D48" stroke="#2F546C" stroke-width="2" stroke-linejoin="round"/>
<path d="M264.658 59L264.28 59.4642L263.844 59.3771L263.611 61.2918V61.3208L264.309 63.9317L264.251 64.4539L263 66.1075L263.32 67.616V69.5017L263.087 71.2423L264.396 76L265.589 75.6229L269.255 74.4044L270.913 72.6058V72.1416L271 71.3874L270.796 71.4744L270.767 71.3003L268.935 69.0666L268.876 68.8635L264.658 59Z" fill="#192D48" stroke="#2F546C" stroke-width="2" stroke-linejoin="round"/>
<path d="M271.188 81.3434L271.165 80.7108L271.098 80.9518L271.188 81.3434ZM271.639 80.8614L271.346 80.1084L271.323 80.8916L271.639 80.8614ZM271.504 79.9277L271.662 80.4699L271.865 80.9518L272 80.5904L271.797 80.0783L271.729 79.7169H271.504V79.9277ZM269 78.6928L269.09 79.0241L269.789 81.6446L269.925 82.2771L269.947 83L269.992 82.9096L271.075 81.7651L270.872 79.7169L271.323 79.5964L270.331 78L269.293 78.5422L269 78.6928Z" fill="#192D48" stroke="#2F546C" stroke-width="2" stroke-linejoin="round"/>
<path d="M265 75.9522L263.714 71.4301L263.943 69.7757V67.9835L263.629 66.5496L264.857 64.9779L264.914 64.4816L264.229 62L263.857 62.1379L262.286 62.6893L260.743 63.2684L257.2 64.5092L257 64.5643L258.286 67.4596L258.714 70.1893L260.229 72.4779L261.657 77L261.714 76.9724L261.943 76.8897L262.6 76.6967L263.171 76.5037L264.8 76.0349L265 75.9522Z" fill="#192D48" stroke="#2F546C" stroke-width="2" stroke-linejoin="round"/>
<path d="M205.028 136.851L205.142 137.075L205.54 137.328L205.71 148.827L205.767 155.137L207.215 163.776L207.329 163.748L208.607 164L208.948 161.504L209.516 162.906L210.481 163.776L212.327 162.71L212.129 162.542L212.185 162.57L210.907 159.681L223.176 157.718L224 157.577V157.549L223.233 156.119L223.176 154.072L222.552 152.95L222.864 150.762L223.375 150.201L221.274 146.499L217.468 135.056L217.439 135L216.587 135.14L212.043 135.869L209.771 136.15L205 136.795L205.028 136.851Z" fill="#192D48" stroke="#2F546C" stroke-width="2" stroke-linejoin="round"/>
<path d="M244.735 192.575H244.679L244.707 192.603L244.735 192.575ZM244.482 192.546V192.575H244.51L244.482 192.546ZM240.399 192.972H240.371V193L240.399 192.972ZM248.396 191.185H248.368L248.396 191.242V191.185ZM249.156 190.987V190.93L249.1 191.015L249.156 190.987ZM248.875 190.93L248.762 190.817L248.734 190.845L248.875 190.93ZM248.79 191.157L248.452 190.732L248.65 191.1L248.79 191.157ZM251.466 189.484V189.598L251.522 189.541L251.466 189.484ZM251.86 189.201L251.944 189.059L251.832 189.172L251.86 189.201ZM251.944 188.917H251.916V188.946L251.944 188.917ZM251.691 188.407L251.663 188.379V188.435L251.691 188.407ZM251.888 187.726L251.832 187.755L251.916 187.783L251.888 187.726ZM252.001 187.726L251.944 187.67L251.972 187.755L252.001 187.726ZM251.804 187.67L251.775 187.641V187.698L251.804 187.67ZM252.845 187.471V187.443L252.789 187.556L252.845 187.471ZM251.663 187.585H251.606L251.663 187.613V187.585ZM252.254 187.244H252.17L252.141 187.273L252.254 187.244ZM250.114 187.216V187.159L250.086 187.216H250.114ZM250.367 187.131H250.283L250.367 187.301V187.131ZM249.692 187.159V186.989L249.551 187.018L249.692 187.159ZM249.297 186.876L249.438 187.018V186.961L249.297 186.876ZM253.437 187.046L252.93 187.273L253.099 187.301L253.437 187.046ZM249.494 186.791H249.325V186.847L249.494 186.791ZM253.944 185.373L253.972 185.231L254 184.863L253.944 185.373ZM253.972 183.785L253.859 183.502L253.803 183.615L253.972 183.785ZM247.467 184.494L247.411 184.579L247.551 184.608L247.467 184.494ZM246.932 184.239L246.678 184.324L246.876 184.352L246.932 184.239ZM246.369 184.296V184.211L246.341 184.239L246.369 184.296ZM245.777 184.267L245.608 184.381L245.834 184.494L245.777 184.267ZM246.566 184.296L246.538 184.211L246.397 184.182L246.566 184.296ZM242.877 181.517L242.708 181.602L243.046 181.716L242.877 181.517ZM242.201 180.61L241.976 180.27L242.06 180.525L242.201 180.61ZM243.074 181.177L242.68 180.27L242.398 180.185L243.074 181.177ZM241.948 180.043L241.863 179.816L241.807 179.674L241.948 180.043ZM239.61 176.896L239.103 176.527L239.301 176.726L239.61 176.896ZM252.282 174.996L250.227 171.537H250.114L252.282 174.996ZM238.062 169.467L237.977 169.439L238.062 169.496V169.467ZM237.893 169.269L237.864 169.297L237.893 169.326V169.269ZM237.695 168.985V168.957L237.667 168.985H237.695ZM237.808 168.872L237.893 168.929V168.872H237.808ZM237.977 168.759L237.864 168.787H237.893L237.977 168.759ZM237.78 168.73L237.695 168.645L237.724 168.674L237.78 168.73ZM237.583 168.418H237.527L237.611 168.447L237.583 168.418ZM237.78 168.078H237.667L237.639 168.107L237.78 168.078ZM237.893 168.135L237.752 167.993L237.808 168.021L237.893 168.135ZM236.823 166.916L236.766 166.887V166.916H236.823ZM235.612 166.916L235.527 166.802L235.555 166.944L235.612 166.916ZM225.361 165.98L226.206 165.328L225.277 165.952L225.361 165.98ZM227.051 164.619L227.136 164.534L226.798 164.676L227.051 164.619ZM216.35 162.72L213.281 163.712L214.971 163.23L216.35 162.72ZM223.982 157.9L223.165 158.041L211 160.026L212.267 162.946L212.352 162.975L212.042 164.137L212.943 163.74L213.929 162.861L215.618 162.805L217.561 162.096L218.885 162.294L218.575 162.776L220.997 163.598L223.081 164.619L223.559 165.753L225.108 165.413L228.769 162.408L230.12 162.464L235.64 166.661L236.766 166.434L237.949 168.021L238.174 170.545L237.808 172.133L237.977 172.926L238.963 174.911L238.512 173.352L239.779 173.323L239.892 174.457L239.216 176.215L241.553 179.448L242.426 179.476L241.694 178.484L242.595 178.597L243.13 178.257L242.905 180.071L244.116 181.035L244.933 183.247L246.031 183.927L247.439 184.296L249.382 186.791L250.396 187.329L249.044 187.415L249.663 188.123L251.888 187.386L252.986 186.762L254 183.19L253.493 177.633L253.38 177.066L250.677 172.53L248.368 169.241L247.073 166.547L248.171 167.483L248.396 167.313L248.875 169.666L250.114 171.452L248.903 169.071L248.959 167.936L245.327 163.485L244.454 162.096L243.299 159.743L242.511 157.758L241.891 157.049L241.75 156.142L241.722 156.113L239.779 156L239.019 156.595L238.597 158.779L238.202 157.758L224.911 159.431L223.954 157.928L223.982 157.9Z" fill="#192D48"/>
<path d="M244.538 192.518V192.49M240.709 192.943V192.972M240.652 192.972V192.943M251.437 188.832L251.409 188.804M250.931 188.379L250.902 188.35M252.479 187.103H252.451M244.735 192.575H244.679L244.707 192.603L244.735 192.575ZM244.482 192.546V192.575H244.51L244.482 192.546ZM240.399 192.972H240.371V193L240.399 192.972ZM248.396 191.185H248.368L248.396 191.242V191.185ZM249.156 190.987V190.93L249.1 191.015L249.156 190.987ZM248.875 190.93L248.762 190.817L248.734 190.845L248.875 190.93ZM248.79 191.157L248.452 190.732L248.65 191.1L248.79 191.157ZM251.466 189.484V189.598L251.522 189.541L251.466 189.484ZM251.86 189.201L251.944 189.059L251.832 189.172L251.86 189.201ZM251.944 188.917H251.916V188.946L251.944 188.917ZM251.691 188.407L251.663 188.379V188.435L251.691 188.407ZM251.888 187.726L251.832 187.755L251.916 187.783L251.888 187.726ZM252.001 187.726L251.944 187.67L251.972 187.755L252.001 187.726ZM251.804 187.67L251.775 187.641V187.698L251.804 187.67ZM252.845 187.471V187.443L252.789 187.556L252.845 187.471ZM251.663 187.585H251.606L251.663 187.613V187.585ZM252.254 187.244H252.17L252.141 187.273L252.254 187.244ZM250.114 187.216V187.159L250.086 187.216H250.114ZM250.367 187.131H250.283L250.367 187.301V187.131ZM249.692 187.159V186.989L249.551 187.018L249.692 187.159ZM249.297 186.876L249.438 187.018V186.961L249.297 186.876ZM253.437 187.046L252.93 187.273L253.099 187.301L253.437 187.046ZM249.494 186.791H249.325V186.847L249.494 186.791ZM253.944 185.373L253.972 185.231L254 184.863L253.944 185.373ZM253.972 183.785L253.859 183.502L253.803 183.615L253.972 183.785ZM247.467 184.494L247.411 184.579L247.551 184.608L247.467 184.494ZM246.932 184.239L246.678 184.324L246.876 184.352L246.932 184.239ZM246.369 184.296V184.211L246.341 184.239L246.369 184.296ZM245.777 184.267L245.608 184.381L245.834 184.494L245.777 184.267ZM246.566 184.296L246.538 184.211L246.397 184.182L246.566 184.296ZM242.877 181.517L242.708 181.602L243.046 181.716L242.877 181.517ZM242.201 180.61L241.976 180.27L242.06 180.525L242.201 180.61ZM243.074 181.177L242.68 180.27L242.398 180.185L243.074 181.177ZM241.948 180.043L241.863 179.816L241.807 179.674L241.948 180.043ZM239.61 176.896L239.103 176.527L239.301 176.726L239.61 176.896ZM252.282 174.996L250.227 171.537H250.114L252.282 174.996ZM238.062 169.467L237.977 169.439L238.062 169.496V169.467ZM237.893 169.269L237.864 169.297L237.893 169.326V169.269ZM237.695 168.985V168.957L237.667 168.985H237.695ZM237.808 168.872L237.893 168.929V168.872H237.808ZM237.977 168.759L237.864 168.787H237.893L237.977 168.759ZM237.78 168.73L237.695 168.645L237.724 168.674L237.78 168.73ZM237.583 168.418H237.527L237.611 168.447L237.583 168.418ZM237.78 168.078H237.667L237.639 168.107L237.78 168.078ZM237.893 168.135L237.752 167.993L237.808 168.021L237.893 168.135ZM236.823 166.916L236.766 166.887V166.916H236.823ZM235.612 166.916L235.527 166.802L235.555 166.944L235.612 166.916ZM225.361 165.98L226.206 165.328L225.277 165.952L225.361 165.98ZM227.051 164.619L227.136 164.534L226.798 164.676L227.051 164.619ZM216.35 162.72L213.281 163.712L214.971 163.23L216.35 162.72ZM223.982 157.9L223.165 158.041L211 160.026L212.267 162.946L212.352 162.975L212.042 164.137L212.943 163.74L213.929 162.861L215.618 162.805L217.561 162.096L218.885 162.294L218.575 162.776L220.997 163.598L223.081 164.619L223.559 165.753L225.108 165.413L228.769 162.408L230.12 162.464L235.64 166.661L236.766 166.434L237.949 168.021L238.174 170.545L237.808 172.133L237.977 172.926L238.963 174.911L238.512 173.352L239.779 173.323L239.892 174.457L239.216 176.215L241.553 179.448L242.426 179.476L241.694 178.484L242.595 178.597L243.13 178.257L242.905 180.071L244.116 181.035L244.933 183.247L246.031 183.927L247.439 184.296L249.382 186.791L250.396 187.329L249.044 187.415L249.663 188.123L251.888 187.386L252.986 186.762L254 183.19L253.493 177.633L253.38 177.066L250.677 172.53L248.368 169.241L247.073 166.547L248.171 167.483L248.396 167.313L248.875 169.666L250.114 171.452L248.903 169.071L248.959 167.936L245.327 163.485L244.454 162.096L243.299 159.743L242.511 157.758L241.891 157.049L241.75 156.142L241.722 156.113L239.779 156L239.019 156.595L238.597 158.779L238.202 157.758L224.911 159.431L223.954 157.928L223.982 157.9Z" stroke="#2F546C" stroke-width="2" stroke-linejoin="round"/>
<path d="M241.936 151.678L241.908 150.849L241.717 151.567L241.936 151.678ZM242.236 150.407L242.127 149.772L242.045 150.158L242.236 150.407ZM229.463 133L229.108 133.083L228.071 133.304L224.25 134.105L223.895 134.188L223.513 134.243L221.384 134.658L220.811 134.768L218.491 135.21L218 135.266L218.027 135.321L221.684 146.594L223.704 150.241L223.213 150.794L222.913 152.949L223.513 154.054L223.568 156.071L224.305 157.48V157.508L224.277 157.536L225.205 159L238.087 157.37L238.469 158.365L238.879 156.237L239.616 155.657L241.499 155.767L241.335 152.783L241.69 152.148L241.499 150.96L241.881 149.827L242.454 149.191L242.045 148.804L243 147.616H242.973L241.335 146.069L239.097 142.836L237.869 142.256L232.602 137.78L231.319 136.122L228.835 135.072L228.699 134.52L229.463 133Z" fill="#192D48" stroke="#2F546C" stroke-width="2" stroke-linejoin="round"/>
<path d="M205.361 165.492L205.219 165.52V165.548L205.361 165.492ZM208 165.153H207.603L207.972 165.181L208 165.153ZM204.708 165.435L204.594 165.548L204.623 165.576L204.708 165.435ZM207.376 165.209H206.297L207.319 165.238L207.376 165.209ZM195.541 138.299V138.327L194.349 140.304L194.462 141.829L192.845 143.608L193.27 144.116L192.192 148.634L192.703 149.594L192.419 149.792L192.447 150.413V150.611L193.1 152.135L193.043 153.067L194.093 154.338L191.937 158.009L191.596 160.211L191 161.087L191.397 162.103L191.028 162.47L200.82 161.397L200.479 162.753L201.728 165.181L202.381 166V165.972L203.431 164.786L205.644 164.306L207.688 164.532L208 164.136V164.108L206.553 155.411L206.496 149.057L206.326 137.48L205.928 137.226L205.815 137H205.758L204.339 137.198L201.841 137.537L196.165 138.242L195.541 138.299Z" fill="#192D48" stroke="#2F546C" stroke-width="2" stroke-linejoin="round"/>
<path d="M229.768 132.981L229 134.543L229.137 135.11L231.635 136.189L232.925 137.893L238.222 142.492L239.457 143.088L241.708 146.41L243.354 148L243.629 146.694L243.19 145.445L244.37 146.353L245.029 145.814L243.903 144.849L245.276 144.763L247.416 142.89L247.169 142.407L248.487 141.356L248.35 140.845L249.31 140.221L249.365 138.773L250.875 135.877L251.89 134.543L252 134.486L245.879 130.483L243.601 130.937L240.5 130.823L238.963 130L229.851 132.981H229.768Z" fill="#192D48" stroke="#2F546C" stroke-width="2" stroke-linejoin="round"/>
<path d="M189.421 94.5166L189.364 94.657L190.434 95.3311L190.772 96.0051L191.898 97.0723L191.87 97.9711L191.25 99.7404L189.843 100.751L188.576 101.004L188.323 102.465L188.745 102.661L188.323 105.526L187.281 106.172L187.479 107.267L187.225 107.38L187 108.615L187.901 111.115L191.11 113.811L191.391 115.103L192.01 115.749L194.037 115.637L193.671 117.518L193.53 119.54L194.741 120.523L196.655 121.366L197.668 122.152L198.231 123.753L197.921 124.343L199.92 125.972L200.004 126L199.836 125.831L200.399 124.511L202.566 125.101L203.101 124.483L202.679 123.248L204.452 122.209L203.973 121.534L204.396 120.58V120.495L204.283 120.467L204.311 117.968L204.93 117.518L206 115.019L205.775 113.923L205.071 112.603L205.465 111.115L203.495 97.2689L203.213 96.96L202.481 95.303L201.89 94.6851L201.637 93.0562V93L197.837 93.5336L195.557 93.8145L189.421 94.5166Z" fill="#192D48" stroke="#2F546C" stroke-width="2" stroke-linejoin="round"/>
<path d="M214.954 95L210.557 95.7766L209.552 95.9779L205.989 96.5531L205.241 97.1571L204.121 97.6748L203.69 97.646L203.172 97.3872L203 97.2146L205.012 111.394L204.609 112.918L205.328 114.27L205.557 115.392L204.466 117.951L203.833 118.411L203.805 120.971L203.92 121L204.034 120.971L204.466 120.166H205.529L206.822 119.735L208.431 120.338L208.603 119.677L209.523 118.987L210.902 119.188L211.649 117.721L213.69 117.894L213.661 117.06L215.471 114.673L215.184 113.58L216.448 113.551L218 112.314L217.626 110.905L217.684 110.847L217.626 110.358L215.902 100.177L215.126 95.8341L215.04 95.3739L214.954 95Z" fill="#192D48" stroke="#2F546C" stroke-width="2" stroke-linejoin="round"/>
<path d="M198.363 128.887L198.279 128.661L198.112 128.604L198 128.972L198.028 129L198.335 128.972L198.363 128.887ZM217.472 110.396L217.417 110.452L217.78 111.838L216.271 113.054L215.042 113.082L215.321 114.156L213.561 116.503L213.589 117.323L211.606 117.153L210.879 118.595L209.538 118.397L208.644 119.076L208.477 119.726L206.912 119.132L205.655 119.557H204.621L204.202 120.348L204.09 120.377V120.461L203.671 121.423L204.146 122.101L202.386 123.147L202.805 124.391L202.274 125.013L200.123 124.42L199.565 125.749L199.732 125.918L199.788 126.031L199.537 128.35L199.425 128.406L198.698 128.859L198.67 128.943L199.481 128.83L205.124 128.067L204.845 126.936L205.795 126.908L217.165 125.381L225.155 124.024L225.267 123.939L225.463 123.713L227.558 122.582L229.178 120.433L229.402 119.698L230.463 118.85L231.804 117.125L232 116.842L231.916 116.814H231.218L230.324 116.305L228.731 114.354L228.173 112.375V112.318L228.117 112.262L226.943 111.583L226.412 110.679L225.351 111.725L224.68 111.894L223.842 111.555L223.116 112.121L221.607 111.442L221.216 111.612L219.791 110.368L219.065 110L217.696 110.17L217.472 110.396Z" fill="#192D48" stroke="#2F546C" stroke-width="2" stroke-linejoin="round"/>
<path d="M254.933 134.007L254.629 134.319L254.684 134.376L254.933 134.007ZM255.154 132.363L255.016 132.59L255.071 132.816L255.154 132.363ZM256.813 129.725L256.398 130.009L256.177 130.349L256.813 129.725ZM260.379 127.939L260.213 127.825L259.853 127.797L260.379 127.939ZM259.632 127.769H259.384L258.969 127.996L259.632 127.769ZM260.489 128.081L261.291 126.039L260.738 126.89L260.489 128.081ZM261.678 125.387L262.037 124.848H261.844L261.678 125.387ZM264 123.175L263.392 120.027L263.917 121.672L264 123.175ZM260.627 116L260.572 116.028L260.489 116.057H260.517L262.037 118.694L263.226 119.913L260.627 116ZM260.13 116.17L259.909 116.227L259.964 116.255H260.434L260.379 116.085L260.296 116.113H260.213V116.17L260.158 116.199L260.13 116.17ZM234.56 122.636L234.422 123.061L234.449 124.281L234.145 124.252L233.426 125.755L232.625 125.84L231.132 127.343L230.469 127.088L229.612 128.393L227.345 130.491L226.239 130.775L225.078 131.881L225.023 132.618L224 133.185L224.028 134.433V134.716L224.387 134.631L228.257 133.809L229.308 133.582L229.667 133.497H229.75L238.927 130.519L240.475 131.342L243.599 131.455L245.894 131.001L252.058 135L252.169 134.915L255.016 133.724L255.044 132.164L256.066 130.264L257.172 129.187L259.467 127.627L259.771 127.06L260.379 127.343L260.655 125.472L260.323 126.124L259.162 126.521L258.057 126.549L259.411 125.528L258.997 125.075L259.467 124.054L256.868 123.628L256.757 123.487L258.969 123.061L259.688 123.43L260.6 123.345L261.346 122.778L261.899 121.672L262.397 121.53L262.314 119.97L261.678 119.346L261.042 119.942L261.18 121.445L260.71 119.601L260.351 119.516L257.614 120.679L258.831 119.46L258.886 118.978L260.158 118.666L260.517 117.701L261.374 118.212L260.462 116.822L259.826 116.255L248.769 119.488L241.719 121.331L234.587 122.693L234.56 122.636Z" fill="#192D48" stroke="#2F546C" stroke-width="2" stroke-linejoin="round"/>
<path d="M234.857 97.2196L234.144 94.1377L234.001 93.5099L233.203 90L232.175 90.6563L229.979 92.34L228.552 94.0806L227.439 94.2519L225.385 95.4218L224.244 94.737L220.792 94.3375L218.966 94.794L217.168 95.2221L215.285 95.6216L215 95.7072L215.086 96.1638L215.856 100.473L217.568 110.574L217.625 111.06L217.853 110.831L219.251 110.66L219.993 111.031L221.448 112.287L221.847 112.115L223.388 112.8L224.13 112.23L224.986 112.572L225.67 112.401L226.755 111.345L227.297 112.258L228.495 112.943L228.552 113L229.779 112.401L230.207 111.459L229.864 110.489L230.835 109.005L231.548 108.891L231.462 107.635L232.632 106.037L232.832 106.266L233.887 105.467L234.8 104.097L234.943 97.8474L235 97.8188L234.857 97.2196Z" fill="#192D48" stroke="#2F546C" stroke-width="2" stroke-linejoin="round"/>
<path d="M225.444 124.052L217.26 125.383L205.615 126.88L204.642 126.908L204.928 128.017L199.149 128.766L198.319 128.877V128.905L198.09 129.182L197.976 129.154V128.932V128.905L197.661 128.932L197.69 128.96L197.861 129.737L197.289 130.43L197.232 131.705V131.927V131.955L196.373 133.563L196.545 134.7L195.744 135.92L196.03 137.029L195 137.945L195.057 138L195.687 137.945L201.409 137.251L203.927 136.919L205.358 136.724H205.415L205.386 136.669L210.193 136.031L212.482 135.754L217.06 135.033L217.918 134.894L218.433 134.839L220.866 134.395L221.466 134.284L223.698 133.868L224.099 133.813V133.536L224.07 132.315L225.129 131.761L225.186 131.04L226.388 129.958L227.532 129.681L229.878 127.629L230.765 126.354L231.452 126.603L232.997 125.133L233.827 125.05L234.571 123.581L234.886 123.608L234.857 122.416L235 122L234.542 122.083L232.911 122.527L230.966 122.915L226.073 123.886L225.558 123.969L225.444 124.052Z" fill="#192D48" stroke="#2F546C" stroke-width="2" stroke-linejoin="round"/>
<path d="M260.216 115.575H260.3L260.384 115.547L260.328 115.407L260.216 115.575ZM259.264 112.44V112.58L259.404 112.496L259.264 112.44ZM259.6 111.796L259.544 112.16L259.46 112.3L259.6 111.796ZM259.852 111.069L259.88 110.901L259.824 111.069H259.852ZM260.02 110.313L260.104 110.117L259.964 110.621L260.02 110.313ZM260.048 109.893L260.16 109.277L260.02 109.417L260.048 109.893ZM260.552 107.122L260.608 106.87L260.58 106.926L260.552 107.122ZM260.44 106.478L260.076 106.618L259.516 106.87L259.32 107.122L259.404 107.15L258.733 111.321L258.984 111.992L259.376 110.257L260.104 107.99L260.44 106.506V106.478ZM261 106.254L260.916 106.282L260.888 106.394L260.748 107.262L260.86 106.954L261 106.254ZM231.747 116.975L231.551 117.254L230.207 118.962L229.143 119.802L228.919 120.529L227.295 122.656L225.196 123.776L225 124L225.504 123.916L230.291 122.936L232.194 122.545L233.79 122.097L234.238 122.013L234.266 122.069L241.488 120.725L248.627 118.906L259.824 115.715L259.74 115.575L259.712 115.491L259.908 115.687L260.132 115.631L260.104 115.603L259.908 114.651L260.048 114.679L260.496 115.519L260.58 115.491L260.636 115.463L260.524 115.239L259.376 113.476L257.949 113.728L257.305 114.26L256.689 113.7L254.589 113L253.134 112.944L255.961 112.692L257.529 113.756L257.977 113.056L256.717 111.461L257.613 111.517L257.137 110.229L256.017 110.285L253.358 108.13H253.022L256.773 109.977L256.521 108.69L256.773 108.27L254.869 107.542L253.218 107.43L252.406 106.702L251.734 107.122L251.482 105.191L251.762 105.247L251.706 103.679L251.65 103.623L251.594 103.651L251.538 103.623L251.398 103.511L251.314 103.427L250.418 103.036L249.495 102.364L248.207 102.028L248.123 102V102.028L247.955 103.204L245.351 102.084L245.407 103.707L243.98 106.422L243.112 107.374L242.552 109.025L240.844 108.438L240.005 112.244L239.333 113.532L239.221 115.211L238.717 116.023L236.841 116.583L235.302 117.786L234.574 117.898L233.874 118.514L232.11 117.87L231.802 117.003L231.747 116.975Z" fill="#192D48"/>
<path d="M259.768 111.461L259.74 111.237M260.216 115.575H260.3L260.384 115.547L260.328 115.407L260.216 115.575ZM259.264 112.44V112.58L259.404 112.496L259.264 112.44ZM259.6 111.796L259.544 112.16L259.46 112.3L259.6 111.796ZM259.852 111.069L259.88 110.901L259.824 111.069H259.852ZM260.02 110.313L260.104 110.117L259.964 110.621L260.02 110.313ZM260.048 109.893L260.16 109.277L260.02 109.417L260.048 109.893ZM260.552 107.122L260.608 106.87L260.58 106.926L260.552 107.122ZM260.44 106.478L260.076 106.618L259.516 106.87L259.32 107.122L259.404 107.15L258.733 111.321L258.984 111.992L259.376 110.257L260.104 107.99L260.44 106.506V106.478ZM261 106.254L260.916 106.282L260.888 106.394L260.748 107.262L260.86 106.954L261 106.254ZM231.747 116.975L231.551 117.254L230.207 118.962L229.143 119.802L228.919 120.529L227.295 122.656L225.196 123.776L225 124L225.504 123.916L230.291 122.936L232.194 122.545L233.79 122.097L234.238 122.013L234.266 122.069L241.488 120.725L248.627 118.906L259.824 115.715L259.74 115.575L259.712 115.491L259.908 115.687L260.132 115.631L260.104 115.603L259.908 114.651L260.048 114.679L260.496 115.519L260.58 115.491L260.636 115.463L260.524 115.239L259.376 113.476L257.949 113.728L257.305 114.26L256.689 113.7L254.589 113L253.134 112.944L255.961 112.692L257.529 113.756L257.977 113.056L256.717 111.461L257.613 111.517L257.137 110.229L256.017 110.285L253.358 108.13H253.022L256.773 109.977L256.521 108.69L256.773 108.27L254.869 107.542L253.218 107.43L252.406 106.702L251.734 107.122L251.482 105.191L251.762 105.247L251.706 103.679L251.65 103.623L251.594 103.651L251.538 103.623L251.398 103.511L251.314 103.427L250.418 103.036L249.495 102.364L248.207 102.028L248.123 102V102.028L247.955 103.204L245.351 102.084L245.407 103.707L243.98 106.422L243.112 107.374L242.552 109.025L240.844 108.438L240.005 112.244L239.333 113.532L239.221 115.211L238.717 116.023L236.841 116.583L235.302 117.786L234.574 117.898L233.874 118.514L232.11 117.87L231.802 117.003L231.747 116.975Z" stroke="#2F546C" stroke-width="2" stroke-linejoin="round"/>
<path d="M202 76.5575L201.3 77.4331L200.88 78.704L201.076 79.41L202 76.5575ZM185.925 69.9205L186.345 69.3274L186.037 69.6098L185.925 69.9205ZM186.569 68.9885L186.429 68.819L186.121 69.0167L186.569 68.9885ZM180.464 70.5701L179.82 71.3044L180.128 74.6935L178.336 76.3316L178 77.9132L178.98 78.8169L178.7 82.7144L179.736 83.5052L180.408 83.5617L182.537 84.8609L183.881 86.273L185.589 87.1485L185.981 89.3232V89.4644L186.793 90.4529L186.569 91.2155L186.849 92.8818L187.69 94.0397L189.23 94.8588L189.202 95L195.307 94.2939L197.575 94.0115L201.356 93.4749L201.244 93.0513V91.7238L200.488 90.3117L200.292 88.5324L200.656 86.5554L200.46 85.0303L201.132 83.1381L200.88 82.8274L200.936 81.0764L201.3 79.749L200.88 79.2971L200.068 79.5795L199.62 80.7657L198.555 81.387L198.891 79.8902L199.844 78.6192L199.9 78.0544L199.928 78.0261L198.583 76.6705V74.75L197.071 73.5073L194.999 73.3661L192.87 72.8012L188.278 71.3891L187.382 70.8807L187.298 70.9655L185.869 70.7678L185.393 71.0502L185.589 68.9885L183.293 70.1747L180.492 70.6266L180.464 70.5701ZM185.953 69.0732L185.897 68.8755L185.701 68.9603L185.953 69.0732ZM184.945 68.8755L185.029 68.7061L184.973 68.6496L184.945 68.8755ZM186.99 68.3954L186.905 68L186.821 68.4801L186.99 68.3954Z" fill="#192D48" stroke="#2F546C" stroke-width="2" stroke-linejoin="round"/>
<path d="M239.413 102.357L235.479 103.341L234.26 98L234.205 98.0281L234.066 104.185L233.18 105.534L232.155 106.321L231.961 106.096L230.825 107.671L230.909 108.908L230.216 109.02L229.274 110.482L229.607 111.438L229.191 112.365L228 112.956V113.012L228.554 114.98L230.133 116.92L231.019 117.426H231.712L231.795 117.454L231.85 117.482L232.155 118.353L233.9 119L234.593 118.382L235.313 118.269L236.837 117.06L238.693 116.498L239.191 115.683L239.302 113.996L239.967 112.703L240.798 108.88L242.488 109.47L243.042 107.811L243.9 106.855L245.313 104.129L245.258 102.498L247.834 103.623L248 102.442V102.414L247.197 101.008L245.535 100.811L244.565 101.57V102.133L243.734 102.329L242.515 103.201L241.878 103.341L240.604 105.169L239.967 102.217L239.413 102.357Z" fill="#192D48" stroke="#2F546C" stroke-width="2" stroke-linejoin="round"/>
<path d="M256 97.951L256.128 98.3706L258.777 105L261.809 104.217L261.777 104.161H261.84L261.936 104.189L262 104.161L261.936 104.049L261.17 102.259L257.436 99.1538L257.596 97H256.83L256.255 97.3916L256 97.951Z" fill="#192D48" stroke="#2F546C" stroke-width="2" stroke-linejoin="round"/>
<path d="M252 104H252.143H252.2H252.257H252.314H252.514H252.571H252.629H253H252.6H252.114H252Z" fill="#192D48" stroke="#2F546C" stroke-width="2" stroke-linejoin="round"/>
<path d="M261.797 106.63L262 105.151L261.826 106.247L261.71 106.712L261.681 106.767L261.768 106.74L261.797 106.63ZM261.942 104.082L261.884 104.11L261.942 104.274V104.603V104.082ZM240 102.384L240.668 105.26L242.003 103.479L242.67 103.342L243.947 102.493L244.818 102.301V101.753L245.834 101.014L247.575 101.205L248.417 102.575L248.504 102.603L249.839 102.932L250.797 103.589L251.726 103.973L251.813 104.055L251.929 103.836L252.422 103.808L252.828 104.027L252.451 104.685V104.712L251.9 106.301L253.699 107.397L255.499 107.479L256.689 108L256.195 106.685L254.657 106.192L254.28 105.069L255.237 106.274L256.021 106.384L255.325 105.726L254.773 103.781L254.918 102.658L254.309 101.425L254.947 100.932L255.412 99.3425L255.237 101.699L255.731 102.493L256.195 101.562L256.456 103.096L255.963 104.219L257.385 104.712L256.166 105.096L256.805 106.219L257.85 106.548L258.43 105.589L258.372 106.932L259.359 106.904L259.997 107.589H260.026L260.23 107.342L260.81 107.096L261.187 106.959L261.158 106.904L261.913 104.795V104.712L261.768 104.164V104.137L259.011 104.904L256.602 98.411L256.485 98L255.992 98.137L253.931 98.7397L242.583 101.726L240.522 102.247L240 102.384Z" fill="#192D48" stroke="#2F546C" stroke-width="2" stroke-linejoin="round"/>
<path d="M262.655 97.5487L262.522 97.2147V97.5487H262.655ZM262.92 96.5189L263 95.6839L262.841 96.4076L262.92 96.5189ZM261.832 87.9742L259.044 87.2505L258.566 87.1113L258.115 87L257 89.5885L257.478 90.2008L257.451 92.0656L257.956 92.1491L258.991 94.9881L258.938 95.0716L257.637 97.0755L257.77 98.6064L260.903 99.7197L260.929 101L261.646 99.9423L261.752 98.4115L262.496 97.8827L262.204 96.7415L262.761 95.3777V92.3996L262.575 91.4254L261.327 91.4533L261.646 90.1173L261.832 87.9742Z" fill="#192D48" stroke="#2F546C" stroke-width="2" stroke-linejoin="round"/>
<path d="M261.843 90.2278L261.431 90.8284L261.321 91L261.843 90.2278ZM265.633 88.8263L267.006 87.5678V87.5106L265.633 88.8263ZM262.036 89.7129V88.7405L261.953 89.2553L262.036 89.7129ZM268.407 85.1367L268.078 85.0508L268.023 85.3083L268.407 85.1367ZM269.149 84.6218L269.121 84.9078L269.176 84.7362L269.149 84.6218ZM268.38 84.6504L266.54 86.4237L263.711 87.6822L262.969 88.3401L262.914 88.9693L262.145 89.6271L262.255 90.4852L263.436 89.999L265.166 88.5403L267.089 87.482L270 84.6218L267.94 86.2521L267.281 86.5381L268.38 84.6504ZM269.231 83.4492L269.341 83.2776L269.011 83.678L269.231 83.4492ZM238.362 82.3909L237.922 82.3337L238.252 82.7913L238.362 82.3909ZM247.48 73.6388L247.535 73.3242L247.315 73.6102L247.48 73.6388ZM247.617 71.5795L247.507 71.6367L247.37 71.9513L247.617 71.5795ZM236 87.8252L236.192 88.6833L237.648 89.0551L245.997 86.6812L254.401 84.0498L255.939 85.2797L256.241 85.9947L258.026 86.7956L258.081 86.91L258.548 87.0244L259.042 87.1674L261.926 87.911L261.871 87.768L262.118 88.9407L262.667 88.7977L262.969 87.5106V87.482L262.475 86.9958L263.189 86.0805L262.859 85.6515L261.816 81.447L261.761 81.161L261.624 81.0752L261.541 79.8167L261.459 78.4439L261.376 76.9566V76.8708L261.321 76.8994L259.948 72.2087L258.493 69.8347L258.081 67.0032L256.845 64L256.68 64.0858L250.94 66.0879L249.787 67.375L248.496 69.9492L248.551 70.5212L246.848 73.2098L247.892 73.5816L248.194 75.6123L246.985 77.2712L243.36 79.5593L242.674 79.2733L239.982 79.6737L237.483 81.2468L237.62 82.0763L238.499 82.8771L238.005 85.3941L236.027 87.7966L236 87.8252Z" fill="#192D48" stroke="#2F546C" stroke-width="2" stroke-linejoin="round"/>
<path d="M258.028 86.6706L256.222 85.8917L255.917 85.1962L254.361 84L245.861 86.5593L237.417 88.8682L235.944 88.5066L235.75 87.672L235.278 88.0337L234.528 88.5622L233.167 89.9531L233 90.0922L233.778 93.5139L233.917 94.1259L234.611 97.1303L234.75 97.7145L235.972 103L239.917 102.026L240.472 101.887L240.972 101.748L242.944 101.22L253.806 98.1874L255.778 97.5754L256.25 97.4363L256.472 96.8799L256.972 96.4905H257.639L257.722 96.2401L258.806 95.0161L258.917 94.8214L259 94.7657L257.917 91.9283L257.389 91.8448L257.417 89.981L256.917 89.369L258.083 86.7818L258.028 86.6706Z" fill="#192D48" stroke="#2F546C" stroke-width="2" stroke-linejoin="round"/>
<path d="M271.732 71.9719H271.703L271.76 72L271.732 71.9719ZM273.842 65.9839L273.614 65.6466V65.8153L273.842 65.9839ZM273.443 65.6747V65.3936L273.414 65.2249L273.443 65.6747ZM274.47 64.494L274.413 64.4659L274.441 64.5502L274.47 64.494ZM277.322 63.0883L277.265 62.6667L277.151 62.8634L277.322 63.0883ZM276.609 63.257L276.638 62.9478L276.295 63.004L276.609 63.257ZM277.664 62.3293H277.55V62.3855L277.664 62.3293ZM276.238 62.751L275.982 62.6948L275.953 62.9478L276.238 62.751ZM277.693 61.8795L277.95 62.0763L277.864 61.8514L277.693 61.8795ZM276.923 61.9076L276.666 62.3855L277.008 62.2169L276.923 61.9076ZM275.696 61.9357L275.582 62.1044L275.668 62.3574L275.696 61.9357ZM277.379 61.008L277.351 60.7831L277.265 60.9237L277.379 61.008ZM277.237 61.1205L276.98 60.8956V61.0924L277.237 61.1205ZM275.639 61.7671L275.582 61.4578L275.468 61.7108L275.639 61.7671ZM278.349 60.7831L277.921 61.4016L277.893 60.9518L278.349 60.7831ZM280.431 58.8996L280.232 58.6185L280.117 58.6747L280.431 58.8996ZM281.201 57.6345L281.03 57.5502L281.002 57.6345H281.201ZM281.572 55.4418H281.315L281.601 55.5261L281.572 55.4418ZM282 55.7229L281.914 55.2169L281.686 55.1888L282 55.7229ZM281.544 55.2731L281.487 54.739L281.287 55.1044L281.544 55.2731ZM265 59.6867L269.136 69.245L269.193 69.4418L270.99 71.6064V71.5783L271.275 71.494L271.332 69.8915L271.789 69.3293L272.074 67.8393L271.817 67.5863L272.302 66.1245L273.956 65.3654L275.04 64.0723L275.44 61.8233L277.18 61.7108L276.951 60.5582L279.119 59.743L279.262 58.4779L279.775 58.5903L281.201 57.4377L281.829 55.9478L280.374 54.514L278.834 54.2048L278.263 53.0522V52.3775L277.322 52.6586L276.267 52.2932V51.1406L273.414 45.0683L271.332 44L269.022 45.9116L268.394 45.7992L267.852 44.8153L267.111 45.0964L266.055 50.2691L266.426 51.9558L266.74 55.3855L265.913 58.0281L266.483 58.4498L265.799 59.743L265.057 59.6305L265 59.6867Z" fill="#192D48" stroke="#2F546C" stroke-width="2" stroke-linejoin="round"/>
<path d="M206.115 77.7053L205.972 77.4826L205.944 77.761L206.115 77.7053ZM206.573 77.2042L206.23 76.7587L206.172 76.9536L206.573 77.2042ZM206.859 75.1995L206.573 74.949V75.0046L206.859 75.1995ZM206.144 97L209.692 96.4432L210.694 96.2483L215.072 95.4965L215.158 95.8585L215.444 95.7749L217.333 95.3852L219.135 94.9675L220.967 94.522L220.938 94.4385L221.882 92.6288L221.797 91.1253L222.855 88.536L223.685 89.0093L224 88.4246L223.914 86.1972L223.142 84.8051L221.997 81.8538L220.995 80.768L220.48 80.6288L218.62 81.8817L218.821 82.1322L217.848 83.9142L216.903 83.7471L216.617 81.8817L217.018 81.7425L217.848 79.877L217.933 76.5916L216.646 73.8074L213.784 73.3341L213.498 72.9165L210.837 72.1647L209.635 73.6125L209.749 74.8654L208.834 75.9791L209.034 77.7053L208.147 78.3179V76.1462L207.346 77.7889L206.401 79.2367L205.772 79.71L206.087 81.2413L205.686 82.8283L205.915 84.8051L205.629 85.7796L207.689 89.6218L207.947 91.0975L207.689 93.826L206.316 96.8886L206.144 97ZM212.268 71.9142L211.524 71.9698L211.981 72.3039L212.268 71.9142ZM207.918 72.6381H207.689L207.947 72.7494L207.918 72.6381ZM212.926 69.1021L212.64 68.6566L212.525 68.6845L212.926 69.1021ZM187 71.1346L187.916 71.6357L192.609 73.0278L194.783 73.5847L196.901 73.7239L198.446 74.949V76.8422L199.82 78.1787V78.1508L200.936 75.0046L202.281 74.0858L203.311 72.9721L203.483 73.9745L204.541 72.3875L207.088 71.4408L207.288 71.051L209.864 71.3573L210.865 71.8585L211.352 70.6334L211.81 70.9118L213.813 70.6056L213.326 69.826L212.439 69.3248L212.611 67.5151L210.865 68.4617L209.263 68.2668L208.748 67.0696L208.92 66.6798L206.745 67.6821L205.343 67.7656L202.824 69.2691L202.538 69.826L200.993 69.464L200.02 69.8817L198.074 68.239L193.753 66.9582L193.667 66.4571L190.892 69.0464L189.318 69.4362L187.086 71.0789L187 71.1346ZM197.13 64.8144L193.782 66.4292L194.898 67.4872L195.327 66.4292L196.472 65.065L197.13 64.8144ZM193.381 61L191.092 62.5313L190.978 63.2831L192.78 62.0023L193.381 61Z" fill="#192D48" stroke="#2F546C" stroke-width="2" stroke-linejoin="round"/>
<path d="M64 138.5C96.6667 122.333 180.4 93.8001 254 109" stroke="#65C6DA" stroke-width="3"/>
<path d="M64.5 138.998C67 138.498 119.5 214.5 245.5 178.5M253 109.5C242.5 109.999 216.1 125.098 212.5 147.5" stroke="#65C6DA" stroke-width="3"/>
<path d="M66 136.5C70.1667 122 84.6 87.1 103 73.5" stroke="#65C6DA" stroke-width="3"/>
<path d="M177 81.9999C197 74.9999 242.5 66.7999 264.5 89.9999" stroke="#65C6DA" stroke-width="3"/>
</svg>
