<svg width="300" height="212" viewBox="0 0 300 212" fill="none" xmlns="http://www.w3.org/2000/svg">
<rect x="17" y="1" width="30" height="30" stroke="#3B687F"/>
<rect x="17" y="31" width="30" height="30" stroke="#3B687F"/>
<rect x="17" y="61" width="30" height="30" stroke="#3B687F"/>
<rect x="17" y="91" width="30" height="30" stroke="#3B687F"/>
<rect x="17" y="121" width="30" height="30" stroke="#3B687F"/>
<rect x="17" y="151" width="30" height="30" stroke="#3B687F"/>
<rect x="17" y="181" width="30" height="30" stroke="#3B687F"/>
<rect x="47" y="1" width="30" height="30" stroke="#3B687F"/>
<rect x="47" y="31" width="30" height="30" stroke="#3B687F"/>
<rect x="47" y="61" width="30" height="30" stroke="#3B687F"/>
<rect x="47" y="91" width="30" height="30" stroke="#3B687F"/>
<rect x="47" y="121" width="30" height="30" stroke="#3B687F"/>
<rect x="47" y="151" width="30" height="30" stroke="#3B687F"/>
<rect x="47" y="181" width="30" height="30" stroke="#3B687F"/>
<rect x="77" y="1" width="30" height="30" stroke="#3B687F"/>
<rect x="77" y="31" width="30" height="30" stroke="#3B687F"/>
<rect x="77" y="61" width="30" height="30" stroke="#3B687F"/>
<rect x="77" y="91" width="30" height="30" stroke="#3B687F"/>
<rect x="77" y="121" width="30" height="30" stroke="#3B687F"/>
<rect x="77" y="151" width="30" height="30" stroke="#3B687F"/>
<rect x="77" y="181" width="30" height="30" stroke="#3B687F"/>
<rect x="107" y="1" width="30" height="30" stroke="#3B687F"/>
<rect x="107" y="31" width="30" height="30" stroke="#3B687F"/>
<rect x="107" y="61" width="30" height="30" stroke="#3B687F"/>
<rect x="107" y="91" width="30" height="30" stroke="#3B687F"/>
<rect x="107" y="121" width="30" height="30" stroke="#3B687F"/>
<rect x="107" y="151" width="30" height="30" stroke="#3B687F"/>
<rect x="107" y="181" width="30" height="30" stroke="#3B687F"/>
<rect x="137" y="1" width="30" height="30" stroke="#3B687F"/>
<rect x="137" y="31" width="30" height="30" stroke="#3B687F"/>
<rect x="137" y="61" width="30" height="30" stroke="#3B687F"/>
<rect x="137" y="91" width="30" height="30" stroke="#3B687F"/>
<rect x="137" y="121" width="30" height="30" stroke="#3B687F"/>
<rect x="137" y="151" width="30" height="30" stroke="#3B687F"/>
<rect x="137" y="181" width="30" height="30" stroke="#3B687F"/>
<rect x="167" y="1" width="30" height="30" stroke="#3B687F"/>
<rect x="167" y="31" width="30" height="30" stroke="#3B687F"/>
<rect x="167" y="61" width="30" height="30" stroke="#3B687F"/>
<rect x="167" y="91" width="30" height="30" stroke="#3B687F"/>
<rect x="167" y="121" width="30" height="30" stroke="#3B687F"/>
<rect x="167" y="151" width="30" height="30" stroke="#3B687F"/>
<rect x="167" y="181" width="30" height="30" stroke="#3B687F"/>
<rect x="197" y="1" width="30" height="30" stroke="#3B687F"/>
<rect x="197" y="31" width="30" height="30" stroke="#3B687F"/>
<rect x="197" y="61" width="30" height="30" stroke="#3B687F"/>
<rect x="197" y="91" width="30" height="30" stroke="#3B687F"/>
<rect x="197" y="121" width="30" height="30" stroke="#3B687F"/>
<rect x="197" y="151" width="30" height="30" stroke="#3B687F"/>
<rect x="197" y="181" width="30" height="30" stroke="#3B687F"/>
<rect x="227" y="1" width="30" height="30" stroke="#3B687F"/>
<rect x="227" y="31" width="30" height="30" stroke="#3B687F"/>
<rect x="227" y="61" width="30" height="30" stroke="#3B687F"/>
<rect x="227" y="91" width="30" height="30" stroke="#3B687F"/>
<rect x="227" y="121" width="30" height="30" stroke="#3B687F"/>
<rect x="227" y="151" width="30" height="30" stroke="#3B687F"/>
<rect x="227" y="181" width="30" height="30" stroke="#3B687F"/>
<rect x="257" y="1" width="30" height="30" stroke="#3B687F"/>
<rect x="257" y="31" width="30" height="30" stroke="#3B687F"/>
<rect x="257" y="61" width="30" height="30" stroke="#3B687F"/>
<rect x="257" y="91" width="30" height="30" stroke="#3B687F"/>
<rect x="257" y="121" width="30" height="30" stroke="#3B687F"/>
<rect x="257" y="151" width="30" height="30" stroke="#3B687F"/>
<rect x="257" y="181" width="30" height="30" stroke="#3B687F"/>
<path d="M277 83.32L261.522 107L239.008 103.3L223.529 137.34L201.015 143.26L185.537 169.16L164.43 155.84L148.482 181L137.694 161.02L116.587 143.26L106.737 132L87.0375 140.5L64.5235 143.3L45.7617 161.06L27 147" stroke="white" stroke-opacity="0.31" stroke-width="2" stroke-linejoin="round"/>
<rect x="17" y="1" width="30" height="30" stroke="#3B687F"/>
<rect x="17" y="31" width="30" height="30" stroke="#3B687F"/>
<rect x="17" y="61" width="30" height="30" stroke="#3B687F"/>
<rect x="17" y="91" width="30" height="30" stroke="#3B687F"/>
<rect x="17" y="121" width="30" height="30" stroke="#3B687F"/>
<rect x="17" y="151" width="30" height="30" stroke="#3B687F"/>
<rect x="17" y="181" width="30" height="30" stroke="#3B687F"/>
<rect x="47" y="1" width="30" height="30" stroke="#3B687F"/>
<rect x="47" y="31" width="30" height="30" stroke="#3B687F"/>
<rect x="47" y="61" width="30" height="30" stroke="#3B687F"/>
<rect x="47" y="91" width="30" height="30" stroke="#3B687F"/>
<rect x="47" y="121" width="30" height="30" stroke="#3B687F"/>
<rect x="47" y="151" width="30" height="30" stroke="#3B687F"/>
<rect x="47" y="181" width="30" height="30" stroke="#3B687F"/>
<rect x="77" y="1" width="30" height="30" stroke="#3B687F"/>
<rect x="77" y="31" width="30" height="30" stroke="#3B687F"/>
<rect x="77" y="61" width="30" height="30" stroke="#3B687F"/>
<rect x="77" y="91" width="30" height="30" stroke="#3B687F"/>
<rect x="77" y="121" width="30" height="30" stroke="#3B687F"/>
<rect x="77" y="151" width="30" height="30" stroke="#3B687F"/>
<rect x="77" y="181" width="30" height="30" stroke="#3B687F"/>
<rect x="107" y="1" width="30" height="30" stroke="#3B687F"/>
<rect x="107" y="31" width="30" height="30" stroke="#3B687F"/>
<rect x="107" y="61" width="30" height="30" stroke="#3B687F"/>
<rect x="107" y="91" width="30" height="30" stroke="#3B687F"/>
<rect x="107" y="121" width="30" height="30" stroke="#3B687F"/>
<rect x="107" y="151" width="30" height="30" stroke="#3B687F"/>
<rect x="107" y="181" width="30" height="30" stroke="#3B687F"/>
<rect x="137" y="1" width="30" height="30" stroke="#3B687F"/>
<rect x="137" y="31" width="30" height="30" stroke="#3B687F"/>
<rect x="137" y="61" width="30" height="30" stroke="#3B687F"/>
<rect x="137" y="91" width="30" height="30" stroke="#3B687F"/>
<rect x="137" y="121" width="30" height="30" stroke="#3B687F"/>
<rect x="137" y="151" width="30" height="30" stroke="#3B687F"/>
<rect x="137" y="181" width="30" height="30" stroke="#3B687F"/>
<rect x="167" y="1" width="30" height="30" stroke="#3B687F"/>
<rect x="167" y="31" width="30" height="30" stroke="#3B687F"/>
<rect x="167" y="61" width="30" height="30" stroke="#3B687F"/>
<rect x="167" y="91" width="30" height="30" stroke="#3B687F"/>
<rect x="167" y="121" width="30" height="30" stroke="#3B687F"/>
<rect x="167" y="151" width="30" height="30" stroke="#3B687F"/>
<rect x="167" y="181" width="30" height="30" stroke="#3B687F"/>
<rect x="197" y="1" width="30" height="30" stroke="#3B687F"/>
<rect x="197" y="31" width="30" height="30" stroke="#3B687F"/>
<rect x="197" y="61" width="30" height="30" stroke="#3B687F"/>
<rect x="197" y="91" width="30" height="30" stroke="#3B687F"/>
<rect x="197" y="121" width="30" height="30" stroke="#3B687F"/>
<rect x="197" y="151" width="30" height="30" stroke="#3B687F"/>
<rect x="197" y="181" width="30" height="30" stroke="#3B687F"/>
<rect x="227" y="1" width="30" height="30" stroke="#3B687F"/>
<rect x="227" y="31" width="30" height="30" stroke="#3B687F"/>
<rect x="227" y="61" width="30" height="30" stroke="#3B687F"/>
<rect x="227" y="91" width="30" height="30" stroke="#3B687F"/>
<rect x="227" y="121" width="30" height="30" stroke="#3B687F"/>
<rect x="227" y="151" width="30" height="30" stroke="#3B687F"/>
<rect x="227" y="181" width="30" height="30" stroke="#3B687F"/>
<rect x="257" y="1" width="30" height="30" stroke="#3B687F"/>
<rect x="257" y="31" width="30" height="30" stroke="#3B687F"/>
<rect x="257" y="61" width="30" height="30" stroke="#3B687F"/>
<rect x="257" y="91" width="30" height="30" stroke="#3B687F"/>
<rect x="257" y="121" width="30" height="30" stroke="#3B687F"/>
<rect x="257" y="151" width="30" height="30" stroke="#3B687F"/>
<rect x="257" y="181" width="30" height="30" stroke="#3B687F"/>
<path d="M277 83.32L261.522 107L239.008 103.3L223.529 137.34L201.015 143.26L185.537 169.16L164.43 155.84L148.482 181L137.694 161.02L116.587 143.26L106.737 132L87.0375 140.5L64.5235 143.3L45.7617 161.06L27 147" stroke="#FCD65B" stroke-width="2" stroke-linejoin="round"/>
<path d="M27 74.0002L42.4784 97.6802L64.9925 93.9802L80.4709 128.02L102.985 133.94L118.463 159.84L139.57 146.52L155.518 171.68L166.306 151.7L187.413 133.94L197.263 122.68L216.962 131.18L239.477 133.98L258.238 151.74L277 137.68" stroke="#A1CF6F" stroke-width="2" stroke-linejoin="round"/>
<rect x="7" y="2" width="1" height="208" fill="#A1CF6F"/>
<rect y="203" width="1" height="7" transform="rotate(-90 0 203)" fill="#A1CF6F"/>
<rect y="187" width="1" height="7" transform="rotate(-90 0 187)" fill="#A1CF6F"/>
<rect y="171" width="1" height="7" transform="rotate(-90 0 171)" fill="#A1CF6F"/>
<rect y="155" width="1" height="7" transform="rotate(-90 0 155)" fill="#A1CF6F"/>
<rect y="139" width="1" height="7" transform="rotate(-90 0 139)" fill="#A1CF6F"/>
<rect y="123" width="1" height="7" transform="rotate(-90 0 123)" fill="#A1CF6F"/>
<rect y="107" width="1" height="7" transform="rotate(-90 0 107)" fill="#A1CF6F"/>
<rect y="91" width="1" height="7" transform="rotate(-90 0 91)" fill="#A1CF6F"/>
<rect y="75" width="1" height="7" transform="rotate(-90 0 75)" fill="#A1CF6F"/>
<rect y="59" width="1" height="7" transform="rotate(-90 0 59)" fill="#A1CF6F"/>
<rect y="43" width="1" height="7" transform="rotate(-90 0 43)" fill="#A1CF6F"/>
<rect y="27" width="1" height="7" transform="rotate(-90 0 27)" fill="#A1CF6F"/>
<rect y="11" width="1" height="7" transform="rotate(-90 0 11)" fill="#A1CF6F"/>
<rect x="293" y="210" width="1" height="208" transform="rotate(-180 293 210)" fill="#FCD65B"/>
<rect x="300" y="9" width="1" height="7" transform="rotate(90 300 9)" fill="#FCD65B"/>
<rect x="300" y="25" width="1" height="7" transform="rotate(90 300 25)" fill="#FCD65B"/>
<rect x="300" y="41" width="1" height="7" transform="rotate(90 300 41)" fill="#FCD65B"/>
<rect x="300" y="57" width="1" height="7" transform="rotate(90 300 57)" fill="#FCD65B"/>
<rect x="300" y="73" width="1" height="7" transform="rotate(90 300 73)" fill="#FCD65B"/>
<rect x="300" y="89" width="1" height="7" transform="rotate(90 300 89)" fill="#FCD65B"/>
<rect x="300" y="105" width="1" height="7" transform="rotate(90 300 105)" fill="#FCD65B"/>
<rect x="300" y="121" width="1" height="7" transform="rotate(90 300 121)" fill="#FCD65B"/>
<rect x="300" y="137" width="1" height="7" transform="rotate(90 300 137)" fill="#FCD65B"/>
<rect x="300" y="153" width="1" height="7" transform="rotate(90 300 153)" fill="#FCD65B"/>
<rect x="300" y="169" width="1" height="7" transform="rotate(90 300 169)" fill="#FCD65B"/>
<rect x="300" y="185" width="1" height="7" transform="rotate(90 300 185)" fill="#FCD65B"/>
<rect x="300" y="201" width="1" height="7" transform="rotate(90 300 201)" fill="#FCD65B"/>
</svg>
