<svg width="302" height="212" viewBox="0 0 302 212" fill="none" xmlns="http://www.w3.org/2000/svg">
<rect x="1" y="1" width="30" height="30" stroke="#3B687F"/>
<rect x="1" y="31" width="30" height="30" stroke="#3B687F"/>
<rect x="1" y="61" width="30" height="30" stroke="#3B687F"/>
<rect x="1" y="91" width="30" height="30" stroke="#3B687F"/>
<rect x="1" y="121" width="30" height="30" stroke="#3B687F"/>
<rect x="1" y="151" width="30" height="30" stroke="#3B687F"/>
<rect x="1" y="181" width="30" height="30" stroke="#3B687F"/>
<rect x="31" y="1" width="30" height="30" stroke="#3B687F"/>
<rect x="31" y="31" width="30" height="30" stroke="#3B687F"/>
<rect x="31" y="61" width="30" height="30" stroke="#3B687F"/>
<rect x="31" y="91" width="30" height="30" stroke="#3B687F"/>
<rect x="31" y="121" width="30" height="30" stroke="#3B687F"/>
<rect x="31" y="151" width="30" height="30" stroke="#3B687F"/>
<rect x="31" y="181" width="30" height="30" stroke="#3B687F"/>
<rect x="61" y="1" width="30" height="30" stroke="#3B687F"/>
<rect x="61" y="31" width="30" height="30" stroke="#3B687F"/>
<rect x="61" y="61" width="30" height="30" stroke="#3B687F"/>
<rect x="61" y="91" width="30" height="30" stroke="#3B687F"/>
<rect x="61" y="121" width="30" height="30" stroke="#3B687F"/>
<rect x="61" y="151" width="30" height="30" stroke="#3B687F"/>
<rect x="61" y="181" width="30" height="30" stroke="#3B687F"/>
<rect x="91" y="1" width="30" height="30" stroke="#3B687F"/>
<rect x="91" y="31" width="30" height="30" stroke="#3B687F"/>
<rect x="91" y="61" width="30" height="30" stroke="#3B687F"/>
<rect x="91" y="91" width="30" height="30" stroke="#3B687F"/>
<rect x="91" y="121" width="30" height="30" stroke="#3B687F"/>
<rect x="91" y="151" width="30" height="30" stroke="#3B687F"/>
<rect x="91" y="181" width="30" height="30" stroke="#3B687F"/>
<rect x="121" y="1" width="30" height="30" stroke="#3B687F"/>
<rect x="121" y="31" width="30" height="30" stroke="#3B687F"/>
<rect x="121" y="61" width="30" height="30" stroke="#3B687F"/>
<rect x="121" y="91" width="30" height="30" stroke="#3B687F"/>
<rect x="121" y="121" width="30" height="30" stroke="#3B687F"/>
<rect x="121" y="151" width="30" height="30" stroke="#3B687F"/>
<rect x="121" y="181" width="30" height="30" stroke="#3B687F"/>
<rect x="151" y="1" width="30" height="30" stroke="#3B687F"/>
<rect x="151" y="31" width="30" height="30" stroke="#3B687F"/>
<rect x="151" y="61" width="30" height="30" stroke="#3B687F"/>
<rect x="151" y="91" width="30" height="30" stroke="#3B687F"/>
<rect x="151" y="121" width="30" height="30" stroke="#3B687F"/>
<rect x="151" y="151" width="30" height="30" stroke="#3B687F"/>
<rect x="151" y="181" width="30" height="30" stroke="#3B687F"/>
<rect x="181" y="1" width="30" height="30" stroke="#3B687F"/>
<rect x="181" y="31" width="30" height="30" stroke="#3B687F"/>
<rect x="181" y="61" width="30" height="30" stroke="#3B687F"/>
<rect x="181" y="91" width="30" height="30" stroke="#3B687F"/>
<rect x="181" y="121" width="30" height="30" stroke="#3B687F"/>
<rect x="181" y="151" width="30" height="30" stroke="#3B687F"/>
<rect x="181" y="181" width="30" height="30" stroke="#3B687F"/>
<rect x="211" y="1" width="30" height="30" stroke="#3B687F"/>
<rect x="211" y="31" width="30" height="30" stroke="#3B687F"/>
<rect x="211" y="61" width="30" height="30" stroke="#3B687F"/>
<rect x="211" y="91" width="30" height="30" stroke="#3B687F"/>
<rect x="211" y="121" width="30" height="30" stroke="#3B687F"/>
<rect x="211" y="151" width="30" height="30" stroke="#3B687F"/>
<rect x="211" y="181" width="30" height="30" stroke="#3B687F"/>
<rect x="241" y="1" width="30" height="30" stroke="#3B687F"/>
<rect x="241" y="31" width="30" height="30" stroke="#3B687F"/>
<rect x="241" y="61" width="30" height="30" stroke="#3B687F"/>
<rect x="241" y="91" width="30" height="30" stroke="#3B687F"/>
<rect x="241" y="121" width="30" height="30" stroke="#3B687F"/>
<rect x="241" y="151" width="30" height="30" stroke="#3B687F"/>
<rect x="241" y="181" width="30" height="30" stroke="#3B687F"/>
<rect x="271" y="1" width="30" height="30" stroke="#3B687F"/>
<rect x="271" y="31" width="30" height="30" stroke="#3B687F"/>
<rect x="271" y="61" width="30" height="30" stroke="#3B687F"/>
<rect x="271" y="91" width="30" height="30" stroke="#3B687F"/>
<rect x="271" y="121" width="30" height="30" stroke="#3B687F"/>
<rect x="271" y="151" width="30" height="30" stroke="#3B687F"/>
<rect x="271" y="181" width="30" height="30" stroke="#3B687F"/>
<line x1="40" y1="104" x2="40" y2="174" stroke="#A1CF6F" stroke-width="2"/>
<line x1="71" y1="79" x2="71" y2="144" stroke="#A1CF6F" stroke-width="2"/>
<line x1="164" y1="76" x2="164" y2="162" stroke="#A1CF6F" stroke-width="2"/>
<line x1="256" y1="30" x2="256" y2="136" stroke="#A1CF6F" stroke-width="2"/>
<line y1="-1" x2="86" y2="-1" transform="matrix(4.37113e-08 1 1 -4.37113e-08 101 88)" stroke="#F05D84" stroke-width="2"/>
<line x1="24" y1="165" x2="39" y2="165" stroke="#A1CF6F" stroke-width="2"/>
<line x1="55" y1="135" x2="70" y2="135" stroke="#A1CF6F" stroke-width="2"/>
<line x1="148" y1="153" x2="163" y2="153" stroke="#A1CF6F" stroke-width="2"/>
<line x1="240" y1="107" x2="255" y2="107" stroke="#A1CF6F" stroke-width="2"/>
<line y1="-1" x2="15" y2="-1" transform="matrix(-1 0 0 1 116 154)" stroke="#F05D84" stroke-width="2"/>
<line x1="39" y1="111" x2="54" y2="111" stroke="#A1CF6F" stroke-width="2"/>
<line x1="70" y1="82" x2="85" y2="82" stroke="#A1CF6F" stroke-width="2"/>
<line x1="163" y1="83" x2="178" y2="83" stroke="#A1CF6F" stroke-width="2"/>
<line x1="255" y1="46" x2="270" y2="46" stroke="#A1CF6F" stroke-width="2"/>
<line y1="-1" x2="15" y2="-1" transform="matrix(-1 0 0 1 101 96)" stroke="#F05D84" stroke-width="2"/>
<line y1="-1" x2="86" y2="-1" transform="matrix(4.37113e-08 1 1 -4.37113e-08 131 104)" stroke="#F05D84" stroke-width="2"/>
<line y1="-1" x2="86" y2="-1" transform="matrix(4.37113e-08 1 1 -4.37113e-08 225 88)" stroke="#F05D84" stroke-width="2"/>
<line y1="-1" x2="86" y2="-1" transform="matrix(4.37113e-08 1 1 -4.37113e-08 195 83)" stroke="#F05D84" stroke-width="2"/>
<line y1="-1" x2="15" y2="-1" transform="matrix(-1 0 0 1 146 186)" stroke="#F05D84" stroke-width="2"/>
<line y1="-1" x2="15" y2="-1" transform="matrix(-1 0 0 1 240 166)" stroke="#F05D84" stroke-width="2"/>
<line y1="-1" x2="15" y2="-1" transform="matrix(-1 0 0 1 210 161)" stroke="#F05D84" stroke-width="2"/>
<line y1="-1" x2="15" y2="-1" transform="matrix(-1 0 0 1 131 126)" stroke="#F05D84" stroke-width="2"/>
<line y1="-1" x2="15" y2="-1" transform="matrix(-1 0 0 1 225 96)" stroke="#F05D84" stroke-width="2"/>
<line y1="-1" x2="15" y2="-1" transform="matrix(-1 0 0 1 195 91)" stroke="#F05D84" stroke-width="2"/>
</svg>
