<svg width="300" height="210" viewBox="0 0 300 210" fill="none" xmlns="http://www.w3.org/2000/svg">
<path d="M254 105.202C254 162.639 207.438 209.202 150 209.202C92.5624 209.202 46 162.639 46 105.202M254 105.202C254 47.7641 207.438 1.20168 150 1.20168C92.5624 1.20168 46 47.7641 46 105.202M254 105.202C254 86.9459 249.195 69.0117 240.067 53.2017L150 105.202M254 105.202H150M46 105.202C46 123.457 50.8054 141.392 59.9334 157.202L150 105.202M46 105.202H150M149.901 105.103L239.968 157.103C230.84 172.913 217.711 186.042 201.901 195.17L149.901 105.103ZM149.901 105.103L59.8348 53.1032C68.9628 37.2932 82.0915 24.1645 97.9015 15.0366L149.901 105.103ZM149.901 105.103L149.901 209.103C131.646 209.103 113.711 204.298 97.9014 195.17L149.901 105.103ZM149.901 105.103L149.902 1.10321C168.157 1.10321 186.092 5.90866 201.902 15.0366L149.901 105.103ZM238.734 104.725C238.734 153.994 198.793 193.936 149.523 193.936C100.253 193.936 60.3119 153.994 60.3119 104.725C60.3119 55.4547 100.253 15.5136 149.523 15.5136C198.793 15.5136 238.734 55.4547 238.734 104.725ZM224.422 105.202C224.422 146.304 191.102 179.624 150 179.624C108.898 179.624 75.578 146.304 75.578 105.202C75.578 64.0995 108.898 30.7797 150 30.7797C191.102 30.7797 224.422 64.0995 224.422 105.202ZM209.156 104.725C209.156 137.659 182.457 164.358 149.523 164.358C116.589 164.358 89.8899 137.659 89.8899 104.725C89.8899 71.7902 116.589 45.0916 149.523 45.0916C182.457 45.0916 209.156 71.7902 209.156 104.725ZM194.844 105.202C194.844 129.968 174.767 150.046 150 150.046C125.233 150.046 105.156 129.968 105.156 105.202C105.156 80.435 125.233 60.3576 150 60.3576C174.767 60.3576 194.844 80.435 194.844 105.202ZM179.578 104.725C179.578 121.324 166.122 134.78 149.523 134.78C132.924 134.78 119.468 121.324 119.468 104.725C119.468 88.1257 132.924 74.6696 149.523 74.6696C166.122 74.6696 179.578 88.1257 179.578 104.725ZM165.266 105.202C165.266 113.633 158.431 120.468 150 120.468C141.569 120.468 134.734 113.633 134.734 105.202C134.734 96.7705 141.569 89.9356 150 89.9356C158.431 89.9356 165.266 96.7705 165.266 105.202Z" stroke="#2F546C"/>
<circle cx="208.78" cy="104.626" r="4.29358" fill="#65C6DA"/>
<circle cx="163.936" cy="78.8647" r="4.29358" fill="#65C6DA"/>
<circle cx="113.367" cy="168.553" r="4.29358" fill="#65C6DA"/>
<circle cx="112.413" cy="40.6996" r="4.29358" fill="#65C6DA"/>
<circle cx="149.624" cy="104.626" r="4.29358" fill="#65C6DA"/>
<circle cx="150.578" cy="31.1583" r="4.29358" fill="#65C6DA"/>
<circle cx="76.1559" cy="105.58" r="4.29358" fill="#65C6DA"/>
<circle cx="188.743" cy="83.6354" r="4.29358" fill="#65C6DA"/>
<circle cx="120.046" cy="105.58" r="4.29358" fill="#65C6DA"/>
<circle cx="111.459" cy="126.571" r="4.29358" fill="#65C6DA"/>
<circle cx="111.459" cy="82.6812" r="4.29358" fill="#65C6DA"/>
</svg>
