<svg width="301" height="211" viewBox="0 0 301 211" fill="none" xmlns="http://www.w3.org/2000/svg">
<rect x="94.2305" y="63.1967" width="10.6424" height="10.661" transform="rotate(-180 94.2305 63.1967)" stroke="#24405A"/>
<rect x="94.2305" y="52.7896" width="10.6424" height="10.661" transform="rotate(-180 94.2305 52.7896)" stroke="#24405A"/>
<rect x="94.2305" y="42.3826" width="10.6424" height="10.661" transform="rotate(-180 94.2305 42.3826)" stroke="#24405A"/>
<rect x="94.231" y="31.9753" width="10.6424" height="10.661" transform="rotate(-180 94.231 31.9753)" stroke="#24405A"/>
<rect x="94.231" y="21.568" width="10.6424" height="10.661" transform="rotate(-180 94.231 21.568)" stroke="#24405A"/>
<rect x="94.2305" y="11.161" width="10.6424" height="10.661" transform="rotate(-180 94.2305 11.161)" stroke="#24405A"/>
<rect x="83.8398" y="63.1967" width="10.2668" height="10.661" transform="rotate(-180 83.8398 63.1967)" stroke="#24405A"/>
<rect x="83.8394" y="52.7896" width="10.2668" height="10.661" transform="rotate(-180 83.8394 52.7896)" stroke="#24405A"/>
<rect x="83.8398" y="42.3826" width="10.2668" height="10.661" transform="rotate(-180 83.8398 42.3826)" stroke="#24405A"/>
<rect x="83.8394" y="31.9753" width="10.2668" height="10.661" transform="rotate(-180 83.8394 31.9753)" stroke="#24405A"/>
<rect x="83.8398" y="21.568" width="10.2668" height="10.661" transform="rotate(-180 83.8398 21.568)" stroke="#24405A"/>
<rect x="83.8394" y="11.161" width="10.2668" height="10.661" transform="rotate(-180 83.8394 11.161)" stroke="#24405A"/>
<rect x="73.8257" y="63.1967" width="10.6424" height="10.661" transform="rotate(-180 73.8257 63.1967)" stroke="#24405A"/>
<rect x="73.8247" y="52.7896" width="10.6424" height="10.661" transform="rotate(-180 73.8247 52.7896)" stroke="#24405A"/>
<rect x="73.8257" y="42.3826" width="10.6424" height="10.661" transform="rotate(-180 73.8257 42.3826)" stroke="#24405A"/>
<rect x="73.8247" y="31.9753" width="10.6424" height="10.661" transform="rotate(-180 73.8247 31.9753)" stroke="#24405A"/>
<rect x="73.8257" y="21.568" width="10.6424" height="10.661" transform="rotate(-180 73.8257 21.568)" stroke="#24405A"/>
<rect x="73.8247" y="11.161" width="10.6424" height="10.661" transform="rotate(-180 73.8247 11.161)" stroke="#24405A"/>
<rect x="63.4346" y="63.1967" width="10.6424" height="10.661" transform="rotate(-180 63.4346 63.1967)" stroke="#24405A"/>
<rect x="63.4346" y="52.7896" width="10.6424" height="10.661" transform="rotate(-180 63.4346 52.7896)" stroke="#24405A"/>
<rect x="63.4341" y="42.3826" width="10.6424" height="10.661" transform="rotate(-180 63.4341 42.3826)" stroke="#24405A"/>
<rect x="63.4341" y="31.9753" width="10.6424" height="10.661" transform="rotate(-180 63.4341 31.9753)" stroke="#24405A"/>
<rect x="63.4346" y="21.568" width="10.6424" height="10.661" transform="rotate(-180 63.4346 21.568)" stroke="#24405A"/>
<rect x="63.4346" y="11.161" width="10.6424" height="10.661" transform="rotate(-180 63.4346 11.161)" stroke="#24405A"/>
<rect x="53.0435" y="63.1967" width="10.6424" height="10.661" transform="rotate(-180 53.0435 63.1967)" stroke="#24405A"/>
<rect x="53.0435" y="52.7896" width="10.6424" height="10.661" transform="rotate(-180 53.0435 52.7896)" stroke="#24405A"/>
<rect x="53.043" y="42.3826" width="10.6424" height="10.661" transform="rotate(-180 53.043 42.3826)" stroke="#24405A"/>
<rect x="53.043" y="31.9753" width="10.6424" height="10.661" transform="rotate(-180 53.043 31.9753)" stroke="#24405A"/>
<rect x="53.0435" y="21.568" width="10.6424" height="10.661" transform="rotate(-180 53.0435 21.568)" stroke="#24405A"/>
<rect x="53.0435" y="11.161" width="10.6424" height="10.661" transform="rotate(-180 53.0435 11.161)" stroke="#24405A"/>
<rect x="42.6528" y="63.1967" width="10.6424" height="10.661" transform="rotate(-180 42.6528 63.1967)" stroke="#24405A"/>
<rect x="42.6528" y="52.7896" width="10.6424" height="10.661" transform="rotate(-180 42.6528 52.7896)" stroke="#24405A"/>
<rect x="42.6523" y="42.3824" width="10.6424" height="10.661" transform="rotate(-180 42.6523 42.3824)" stroke="#24405A"/>
<rect x="42.6523" y="31.9753" width="10.6424" height="10.661" transform="rotate(-180 42.6523 31.9753)" stroke="#24405A"/>
<rect x="42.6528" y="21.568" width="10.6424" height="10.661" transform="rotate(-180 42.6528 21.568)" stroke="#24405A"/>
<rect x="42.6528" y="11.161" width="10.6424" height="10.661" transform="rotate(-180 42.6528 11.161)" stroke="#24405A"/>
<rect x="32.2632" y="63.1967" width="10.2668" height="10.661" transform="rotate(-180 32.2632 63.1967)" stroke="#24405A"/>
<rect x="32.2632" y="52.7896" width="10.2668" height="10.661" transform="rotate(-180 32.2632 52.7896)" stroke="#24405A"/>
<rect x="32.2627" y="42.3826" width="10.2668" height="10.661" transform="rotate(-180 32.2627 42.3826)" stroke="#24405A"/>
<rect x="32.2627" y="31.9753" width="10.2668" height="10.661" transform="rotate(-180 32.2627 31.9753)" stroke="#24405A"/>
<rect x="32.2632" y="21.568" width="10.2668" height="10.661" transform="rotate(-180 32.2632 21.568)" stroke="#24405A"/>
<rect x="32.2632" y="11.161" width="10.2668" height="10.661" transform="rotate(-180 32.2632 11.161)" stroke="#24405A"/>
<rect x="22.2485" y="63.1967" width="10.6424" height="10.661" transform="rotate(-180 22.2485 63.1967)" stroke="#24405A"/>
<rect x="22.2485" y="52.7896" width="10.6424" height="10.661" transform="rotate(-180 22.2485 52.7896)" stroke="#24405A"/>
<rect x="22.2485" y="42.3826" width="10.6424" height="10.661" transform="rotate(-180 22.2485 42.3826)" stroke="#24405A"/>
<rect x="22.2485" y="31.9753" width="10.6424" height="10.661" transform="rotate(-180 22.2485 31.9753)" stroke="#24405A"/>
<rect x="22.2476" y="21.568" width="10.6424" height="10.661" transform="rotate(-180 22.2476 21.568)" stroke="#24405A"/>
<rect x="22.248" y="11.161" width="10.6424" height="10.661" transform="rotate(-180 22.248 11.161)" stroke="#24405A"/>
<rect x="11.8569" y="63.1967" width="10.6424" height="10.661" transform="rotate(-180 11.8569 63.1967)" stroke="#24405A"/>
<rect x="11.8574" y="52.7896" width="10.6424" height="10.661" transform="rotate(-180 11.8574 52.7896)" stroke="#24405A"/>
<rect x="11.8574" y="42.3826" width="10.6424" height="10.661" transform="rotate(-180 11.8574 42.3826)" stroke="#24405A"/>
<rect x="11.8574" y="31.9753" width="10.6424" height="10.661" transform="rotate(-180 11.8574 31.9753)" stroke="#24405A"/>
<rect x="11.8564" y="21.568" width="10.6424" height="10.661" transform="rotate(-180 11.8564 21.568)" stroke="#24405A"/>
<rect x="11.8564" y="11.161" width="10.6424" height="10.661" transform="rotate(-180 11.8564 11.161)" stroke="#24405A"/>
<rect x="94.2305" y="135.851" width="10.6424" height="10.661" transform="rotate(-180 94.2305 135.851)" stroke="#24405A"/>
<rect x="94.2305" y="125.444" width="10.6424" height="10.661" transform="rotate(-180 94.2305 125.444)" stroke="#24405A"/>
<rect x="94.2305" y="115.037" width="10.6424" height="10.661" transform="rotate(-180 94.2305 115.037)" stroke="#24405A"/>
<rect x="94.231" y="104.629" width="10.6424" height="10.661" transform="rotate(-180 94.231 104.629)" stroke="#24405A"/>
<rect x="94.231" y="94.222" width="10.6424" height="10.661" transform="rotate(-180 94.231 94.222)" stroke="#24405A"/>
<rect x="94.2305" y="83.8151" width="10.6424" height="10.661" transform="rotate(-180 94.2305 83.8151)" stroke="#24405A"/>
<rect x="83.8398" y="135.851" width="10.2668" height="10.661" transform="rotate(-180 83.8398 135.851)" stroke="#24405A"/>
<rect x="83.8394" y="125.444" width="10.2668" height="10.661" transform="rotate(-180 83.8394 125.444)" stroke="#24405A"/>
<rect x="83.8398" y="115.037" width="10.2668" height="10.661" transform="rotate(-180 83.8398 115.037)" stroke="#24405A"/>
<rect x="83.8394" y="104.629" width="10.2668" height="10.661" transform="rotate(-180 83.8394 104.629)" stroke="#24405A"/>
<rect x="83.8398" y="94.222" width="10.2668" height="10.661" transform="rotate(-180 83.8398 94.222)" stroke="#24405A"/>
<rect x="83.8394" y="83.8151" width="10.2668" height="10.661" transform="rotate(-180 83.8394 83.8151)" stroke="#24405A"/>
<rect x="73.8257" y="135.851" width="10.6424" height="10.661" transform="rotate(-180 73.8257 135.851)" stroke="#24405A"/>
<rect x="73.8247" y="125.444" width="10.6424" height="10.661" transform="rotate(-180 73.8247 125.444)" stroke="#24405A"/>
<rect x="73.8257" y="115.037" width="10.6424" height="10.661" transform="rotate(-180 73.8257 115.037)" stroke="#24405A"/>
<rect x="73.8247" y="104.629" width="10.6424" height="10.661" transform="rotate(-180 73.8247 104.629)" stroke="#24405A"/>
<rect x="73.8257" y="94.222" width="10.6424" height="10.661" transform="rotate(-180 73.8257 94.222)" stroke="#24405A"/>
<rect x="73.8247" y="83.8151" width="10.6424" height="10.661" transform="rotate(-180 73.8247 83.8151)" stroke="#24405A"/>
<rect x="63.4346" y="135.851" width="10.6424" height="10.661" transform="rotate(-180 63.4346 135.851)" stroke="#24405A"/>
<rect x="63.4346" y="125.444" width="10.6424" height="10.661" transform="rotate(-180 63.4346 125.444)" stroke="#24405A"/>
<rect x="63.4341" y="115.037" width="10.6424" height="10.661" transform="rotate(-180 63.4341 115.037)" stroke="#24405A"/>
<rect x="63.4341" y="104.629" width="10.6424" height="10.661" transform="rotate(-180 63.4341 104.629)" stroke="#24405A"/>
<rect x="63.4346" y="94.222" width="10.6424" height="10.661" transform="rotate(-180 63.4346 94.222)" stroke="#24405A"/>
<rect x="63.4346" y="83.8151" width="10.6424" height="10.661" transform="rotate(-180 63.4346 83.8151)" stroke="#24405A"/>
<rect x="53.0435" y="135.851" width="10.6424" height="10.661" transform="rotate(-180 53.0435 135.851)" stroke="#24405A"/>
<rect x="53.0435" y="125.444" width="10.6424" height="10.661" transform="rotate(-180 53.0435 125.444)" stroke="#24405A"/>
<rect x="53.043" y="115.037" width="10.6424" height="10.661" transform="rotate(-180 53.043 115.037)" stroke="#24405A"/>
<rect x="53.043" y="104.629" width="10.6424" height="10.661" transform="rotate(-180 53.043 104.629)" stroke="#24405A"/>
<rect x="53.0435" y="94.222" width="10.6424" height="10.661" transform="rotate(-180 53.0435 94.222)" stroke="#24405A"/>
<rect x="53.0435" y="83.8151" width="10.6424" height="10.661" transform="rotate(-180 53.0435 83.8151)" stroke="#24405A"/>
<rect x="42.6528" y="135.851" width="10.6424" height="10.661" transform="rotate(-180 42.6528 135.851)" stroke="#24405A"/>
<rect x="42.6528" y="125.444" width="10.6424" height="10.661" transform="rotate(-180 42.6528 125.444)" stroke="#24405A"/>
<rect x="42.6523" y="115.036" width="10.6424" height="10.661" transform="rotate(-180 42.6523 115.036)" stroke="#24405A"/>
<rect x="42.6523" y="104.629" width="10.6424" height="10.661" transform="rotate(-180 42.6523 104.629)" stroke="#24405A"/>
<rect x="42.6528" y="94.222" width="10.6424" height="10.661" transform="rotate(-180 42.6528 94.222)" stroke="#24405A"/>
<rect x="42.6528" y="83.8151" width="10.6424" height="10.661" transform="rotate(-180 42.6528 83.8151)" stroke="#24405A"/>
<rect x="32.2632" y="135.851" width="10.2668" height="10.661" transform="rotate(-180 32.2632 135.851)" stroke="#24405A"/>
<rect x="32.2632" y="125.444" width="10.2668" height="10.661" transform="rotate(-180 32.2632 125.444)" stroke="#24405A"/>
<rect x="32.2627" y="115.037" width="10.2668" height="10.661" transform="rotate(-180 32.2627 115.037)" stroke="#24405A"/>
<rect x="32.2627" y="104.629" width="10.2668" height="10.661" transform="rotate(-180 32.2627 104.629)" stroke="#24405A"/>
<rect x="32.2632" y="94.222" width="10.2668" height="10.661" transform="rotate(-180 32.2632 94.222)" stroke="#24405A"/>
<rect x="32.2632" y="83.8151" width="10.2668" height="10.661" transform="rotate(-180 32.2632 83.8151)" stroke="#24405A"/>
<rect x="22.2485" y="135.851" width="10.6424" height="10.661" transform="rotate(-180 22.2485 135.851)" stroke="#24405A"/>
<rect x="22.2485" y="125.444" width="10.6424" height="10.661" transform="rotate(-180 22.2485 125.444)" stroke="#24405A"/>
<rect x="22.2485" y="115.037" width="10.6424" height="10.661" transform="rotate(-180 22.2485 115.037)" stroke="#24405A"/>
<rect x="22.2485" y="104.629" width="10.6424" height="10.661" transform="rotate(-180 22.2485 104.629)" stroke="#24405A"/>
<rect x="22.2476" y="94.222" width="10.6424" height="10.661" transform="rotate(-180 22.2476 94.222)" stroke="#24405A"/>
<rect x="22.248" y="83.8151" width="10.6424" height="10.661" transform="rotate(-180 22.248 83.8151)" stroke="#24405A"/>
<rect x="11.8569" y="135.851" width="10.6424" height="10.661" transform="rotate(-180 11.8569 135.851)" stroke="#24405A"/>
<rect x="11.8574" y="125.444" width="10.6424" height="10.661" transform="rotate(-180 11.8574 125.444)" stroke="#24405A"/>
<rect x="11.8574" y="115.037" width="10.6424" height="10.661" transform="rotate(-180 11.8574 115.037)" stroke="#24405A"/>
<rect x="11.8574" y="104.629" width="10.6424" height="10.661" transform="rotate(-180 11.8574 104.629)" stroke="#24405A"/>
<rect x="11.8564" y="94.222" width="10.6424" height="10.661" transform="rotate(-180 11.8564 94.222)" stroke="#24405A"/>
<rect x="11.8564" y="83.8151" width="10.6424" height="10.661" transform="rotate(-180 11.8564 83.8151)" stroke="#24405A"/>
<rect x="94.2305" y="209.505" width="10.6424" height="10.661" transform="rotate(-180 94.2305 209.505)" stroke="#24405A"/>
<rect x="94.2305" y="199.098" width="10.6424" height="10.661" transform="rotate(-180 94.2305 199.098)" stroke="#24405A"/>
<rect x="94.2305" y="188.691" width="10.6424" height="10.661" transform="rotate(-180 94.2305 188.691)" stroke="#24405A"/>
<rect x="94.231" y="178.283" width="10.6424" height="10.661" transform="rotate(-180 94.231 178.283)" stroke="#24405A"/>
<rect x="94.231" y="167.876" width="10.6424" height="10.661" transform="rotate(-180 94.231 167.876)" stroke="#24405A"/>
<rect x="94.2305" y="157.469" width="10.6424" height="10.661" transform="rotate(-180 94.2305 157.469)" stroke="#24405A"/>
<rect x="83.8398" y="209.505" width="10.2668" height="10.661" transform="rotate(-180 83.8398 209.505)" stroke="#24405A"/>
<rect x="83.8394" y="199.098" width="10.2668" height="10.661" transform="rotate(-180 83.8394 199.098)" stroke="#24405A"/>
<rect x="83.8398" y="188.691" width="10.2668" height="10.661" transform="rotate(-180 83.8398 188.691)" stroke="#24405A"/>
<rect x="83.8394" y="178.283" width="10.2668" height="10.661" transform="rotate(-180 83.8394 178.283)" stroke="#24405A"/>
<rect x="83.8398" y="167.876" width="10.2668" height="10.661" transform="rotate(-180 83.8398 167.876)" stroke="#24405A"/>
<rect x="83.8394" y="157.469" width="10.2668" height="10.661" transform="rotate(-180 83.8394 157.469)" stroke="#24405A"/>
<rect x="73.8257" y="209.505" width="10.6424" height="10.661" transform="rotate(-180 73.8257 209.505)" stroke="#24405A"/>
<rect x="73.8247" y="199.098" width="10.6424" height="10.661" transform="rotate(-180 73.8247 199.098)" stroke="#24405A"/>
<rect x="73.8257" y="188.691" width="10.6424" height="10.661" transform="rotate(-180 73.8257 188.691)" stroke="#24405A"/>
<rect x="73.8247" y="178.283" width="10.6424" height="10.661" transform="rotate(-180 73.8247 178.283)" stroke="#24405A"/>
<rect x="73.8257" y="167.876" width="10.6424" height="10.661" transform="rotate(-180 73.8257 167.876)" stroke="#24405A"/>
<rect x="73.8247" y="157.469" width="10.6424" height="10.661" transform="rotate(-180 73.8247 157.469)" stroke="#24405A"/>
<rect x="63.4346" y="209.505" width="10.6424" height="10.661" transform="rotate(-180 63.4346 209.505)" stroke="#24405A"/>
<rect x="63.4346" y="199.098" width="10.6424" height="10.661" transform="rotate(-180 63.4346 199.098)" stroke="#24405A"/>
<rect x="63.4341" y="188.691" width="10.6424" height="10.661" transform="rotate(-180 63.4341 188.691)" stroke="#24405A"/>
<rect x="63.4341" y="178.283" width="10.6424" height="10.661" transform="rotate(-180 63.4341 178.283)" stroke="#24405A"/>
<rect x="63.4346" y="167.876" width="10.6424" height="10.661" transform="rotate(-180 63.4346 167.876)" stroke="#24405A"/>
<rect x="63.4346" y="157.469" width="10.6424" height="10.661" transform="rotate(-180 63.4346 157.469)" stroke="#24405A"/>
<rect x="53.0435" y="209.505" width="10.6424" height="10.661" transform="rotate(-180 53.0435 209.505)" stroke="#24405A"/>
<rect x="53.0435" y="199.098" width="10.6424" height="10.661" transform="rotate(-180 53.0435 199.098)" stroke="#24405A"/>
<rect x="53.043" y="188.691" width="10.6424" height="10.661" transform="rotate(-180 53.043 188.691)" stroke="#24405A"/>
<rect x="53.043" y="178.283" width="10.6424" height="10.661" transform="rotate(-180 53.043 178.283)" stroke="#24405A"/>
<rect x="53.0435" y="167.876" width="10.6424" height="10.661" transform="rotate(-180 53.0435 167.876)" stroke="#24405A"/>
<rect x="53.0435" y="157.469" width="10.6424" height="10.661" transform="rotate(-180 53.0435 157.469)" stroke="#24405A"/>
<rect x="42.6528" y="209.505" width="10.6424" height="10.661" transform="rotate(-180 42.6528 209.505)" stroke="#24405A"/>
<rect x="42.6528" y="199.098" width="10.6424" height="10.661" transform="rotate(-180 42.6528 199.098)" stroke="#24405A"/>
<rect x="42.6523" y="188.69" width="10.6424" height="10.661" transform="rotate(-180 42.6523 188.69)" stroke="#24405A"/>
<rect x="42.6523" y="178.283" width="10.6424" height="10.661" transform="rotate(-180 42.6523 178.283)" stroke="#24405A"/>
<rect x="42.6528" y="167.876" width="10.6424" height="10.661" transform="rotate(-180 42.6528 167.876)" stroke="#24405A"/>
<rect x="42.6528" y="157.469" width="10.6424" height="10.661" transform="rotate(-180 42.6528 157.469)" stroke="#24405A"/>
<rect x="32.2632" y="209.505" width="10.2668" height="10.661" transform="rotate(-180 32.2632 209.505)" stroke="#24405A"/>
<rect x="32.2632" y="199.098" width="10.2668" height="10.661" transform="rotate(-180 32.2632 199.098)" stroke="#24405A"/>
<rect x="32.2627" y="188.691" width="10.2668" height="10.661" transform="rotate(-180 32.2627 188.691)" stroke="#24405A"/>
<rect x="32.2627" y="178.283" width="10.2668" height="10.661" transform="rotate(-180 32.2627 178.283)" stroke="#24405A"/>
<rect x="32.2632" y="167.876" width="10.2668" height="10.661" transform="rotate(-180 32.2632 167.876)" stroke="#24405A"/>
<rect x="32.2632" y="157.469" width="10.2668" height="10.661" transform="rotate(-180 32.2632 157.469)" stroke="#24405A"/>
<rect x="22.2485" y="209.505" width="10.6424" height="10.661" transform="rotate(-180 22.2485 209.505)" stroke="#24405A"/>
<rect x="22.2485" y="199.098" width="10.6424" height="10.661" transform="rotate(-180 22.2485 199.098)" stroke="#24405A"/>
<rect x="22.2485" y="188.691" width="10.6424" height="10.661" transform="rotate(-180 22.2485 188.691)" stroke="#24405A"/>
<rect x="22.2485" y="178.283" width="10.6424" height="10.661" transform="rotate(-180 22.2485 178.283)" stroke="#24405A"/>
<rect x="22.2476" y="167.876" width="10.6424" height="10.661" transform="rotate(-180 22.2476 167.876)" stroke="#24405A"/>
<rect x="22.248" y="157.469" width="10.6424" height="10.661" transform="rotate(-180 22.248 157.469)" stroke="#24405A"/>
<rect x="11.8569" y="209.505" width="10.6424" height="10.661" transform="rotate(-180 11.8569 209.505)" stroke="#24405A"/>
<rect x="11.8574" y="199.098" width="10.6424" height="10.661" transform="rotate(-180 11.8574 199.098)" stroke="#24405A"/>
<rect x="11.8574" y="188.691" width="10.6424" height="10.661" transform="rotate(-180 11.8574 188.691)" stroke="#24405A"/>
<rect x="11.8574" y="178.283" width="10.6424" height="10.661" transform="rotate(-180 11.8574 178.283)" stroke="#24405A"/>
<rect x="11.8564" y="167.876" width="10.6424" height="10.661" transform="rotate(-180 11.8564 167.876)" stroke="#24405A"/>
<rect x="11.8564" y="157.469" width="10.6424" height="10.661" transform="rotate(-180 11.8564 157.469)" stroke="#24405A"/>
<rect x="197.222" y="63.1967" width="10.6424" height="10.661" transform="rotate(-180 197.222 63.1967)" stroke="#24405A"/>
<rect x="197.222" y="52.7896" width="10.6424" height="10.661" transform="rotate(-180 197.222 52.7896)" stroke="#24405A"/>
<rect x="197.222" y="42.3826" width="10.6424" height="10.661" transform="rotate(-180 197.222 42.3826)" stroke="#24405A"/>
<rect x="197.222" y="31.9753" width="10.6424" height="10.661" transform="rotate(-180 197.222 31.9753)" stroke="#24405A"/>
<rect x="197.222" y="21.568" width="10.6424" height="10.661" transform="rotate(-180 197.222 21.568)" stroke="#24405A"/>
<rect x="197.222" y="11.161" width="10.6424" height="10.661" transform="rotate(-180 197.222 11.161)" stroke="#24405A"/>
<rect x="186.831" y="63.1967" width="10.2668" height="10.661" transform="rotate(-180 186.831 63.1967)" stroke="#24405A"/>
<rect x="186.831" y="52.7896" width="10.2668" height="10.661" transform="rotate(-180 186.831 52.7896)" stroke="#24405A"/>
<rect x="186.831" y="42.3826" width="10.2668" height="10.661" transform="rotate(-180 186.831 42.3826)" stroke="#24405A"/>
<rect x="186.831" y="31.9753" width="10.2668" height="10.661" transform="rotate(-180 186.831 31.9753)" stroke="#24405A"/>
<rect x="186.831" y="21.568" width="10.2668" height="10.661" transform="rotate(-180 186.831 21.568)" stroke="#24405A"/>
<rect x="186.831" y="11.161" width="10.2668" height="10.661" transform="rotate(-180 186.831 11.161)" stroke="#24405A"/>
<rect x="176.817" y="63.1967" width="10.6424" height="10.661" transform="rotate(-180 176.817 63.1967)" stroke="#24405A"/>
<rect x="176.816" y="52.7896" width="10.6424" height="10.661" transform="rotate(-180 176.816 52.7896)" stroke="#24405A"/>
<rect x="176.817" y="42.3826" width="10.6424" height="10.661" transform="rotate(-180 176.817 42.3826)" stroke="#24405A"/>
<rect x="176.816" y="31.9753" width="10.6424" height="10.661" transform="rotate(-180 176.816 31.9753)" stroke="#24405A"/>
<rect x="176.817" y="21.568" width="10.6424" height="10.661" transform="rotate(-180 176.817 21.568)" stroke="#24405A"/>
<rect x="176.816" y="11.161" width="10.6424" height="10.661" transform="rotate(-180 176.816 11.161)" stroke="#24405A"/>
<rect x="166.426" y="63.1967" width="10.6424" height="10.661" transform="rotate(-180 166.426 63.1967)" stroke="#24405A"/>
<rect x="166.426" y="52.7896" width="10.6424" height="10.661" transform="rotate(-180 166.426 52.7896)" stroke="#24405A"/>
<rect x="166.426" y="42.3826" width="10.6424" height="10.661" transform="rotate(-180 166.426 42.3826)" stroke="#24405A"/>
<rect x="166.426" y="31.9753" width="10.6424" height="10.661" transform="rotate(-180 166.426 31.9753)" stroke="#24405A"/>
<rect x="166.426" y="21.568" width="10.6424" height="10.661" transform="rotate(-180 166.426 21.568)" stroke="#24405A"/>
<rect x="166.426" y="11.161" width="10.6424" height="10.661" transform="rotate(-180 166.426 11.161)" stroke="#24405A"/>
<rect x="156.035" y="63.1967" width="10.6424" height="10.661" transform="rotate(-180 156.035 63.1967)" stroke="#24405A"/>
<rect x="156.035" y="52.7896" width="10.6424" height="10.661" transform="rotate(-180 156.035 52.7896)" stroke="#24405A"/>
<rect x="156.035" y="42.3826" width="10.6424" height="10.661" transform="rotate(-180 156.035 42.3826)" stroke="#24405A"/>
<rect x="156.035" y="31.9753" width="10.6424" height="10.661" transform="rotate(-180 156.035 31.9753)" stroke="#24405A"/>
<rect x="156.035" y="21.568" width="10.6424" height="10.661" transform="rotate(-180 156.035 21.568)" stroke="#24405A"/>
<rect x="156.035" y="11.161" width="10.6424" height="10.661" transform="rotate(-180 156.035 11.161)" stroke="#24405A"/>
<rect x="145.645" y="63.1967" width="10.6424" height="10.661" transform="rotate(-180 145.645 63.1967)" stroke="#24405A"/>
<rect x="145.645" y="52.7896" width="10.6424" height="10.661" transform="rotate(-180 145.645 52.7896)" stroke="#24405A"/>
<rect x="145.644" y="42.3824" width="10.6424" height="10.661" transform="rotate(-180 145.644 42.3824)" stroke="#24405A"/>
<rect x="145.644" y="31.9753" width="10.6424" height="10.661" transform="rotate(-180 145.644 31.9753)" stroke="#24405A"/>
<rect x="145.645" y="21.568" width="10.6424" height="10.661" transform="rotate(-180 145.645 21.568)" stroke="#24405A"/>
<rect x="145.645" y="11.161" width="10.6424" height="10.661" transform="rotate(-180 145.645 11.161)" stroke="#24405A"/>
<rect x="135.255" y="63.1967" width="10.2668" height="10.661" transform="rotate(-180 135.255 63.1967)" stroke="#24405A"/>
<rect x="135.255" y="52.7896" width="10.2668" height="10.661" transform="rotate(-180 135.255 52.7896)" stroke="#24405A"/>
<rect x="135.254" y="42.3826" width="10.2668" height="10.661" transform="rotate(-180 135.254 42.3826)" stroke="#24405A"/>
<rect x="135.254" y="31.9753" width="10.2668" height="10.661" transform="rotate(-180 135.254 31.9753)" stroke="#24405A"/>
<rect x="135.255" y="21.568" width="10.2668" height="10.661" transform="rotate(-180 135.255 21.568)" stroke="#24405A"/>
<rect x="135.255" y="11.161" width="10.2668" height="10.661" transform="rotate(-180 135.255 11.161)" stroke="#24405A"/>
<rect x="125.24" y="63.1967" width="10.6424" height="10.661" transform="rotate(-180 125.24 63.1967)" stroke="#24405A"/>
<rect x="125.24" y="52.7896" width="10.6424" height="10.661" transform="rotate(-180 125.24 52.7896)" stroke="#24405A"/>
<rect x="125.24" y="42.3826" width="10.6424" height="10.661" transform="rotate(-180 125.24 42.3826)" stroke="#24405A"/>
<rect x="125.24" y="31.9753" width="10.6424" height="10.661" transform="rotate(-180 125.24 31.9753)" stroke="#24405A"/>
<rect x="125.239" y="21.568" width="10.6424" height="10.661" transform="rotate(-180 125.239 21.568)" stroke="#24405A"/>
<rect x="125.239" y="11.161" width="10.6424" height="10.661" transform="rotate(-180 125.239 11.161)" stroke="#24405A"/>
<rect x="114.848" y="63.1967" width="10.6424" height="10.661" transform="rotate(-180 114.848 63.1967)" stroke="#24405A"/>
<rect x="114.849" y="52.7896" width="10.6424" height="10.661" transform="rotate(-180 114.849 52.7896)" stroke="#24405A"/>
<rect x="114.849" y="42.3826" width="10.6424" height="10.661" transform="rotate(-180 114.849 42.3826)" stroke="#24405A"/>
<rect x="114.849" y="31.9753" width="10.6424" height="10.661" transform="rotate(-180 114.849 31.9753)" stroke="#24405A"/>
<rect x="114.848" y="21.568" width="10.6424" height="10.661" transform="rotate(-180 114.848 21.568)" stroke="#24405A"/>
<rect x="114.848" y="11.161" width="10.6424" height="10.661" transform="rotate(-180 114.848 11.161)" stroke="#24405A"/>
<rect x="197.222" y="135.851" width="10.6424" height="10.661" transform="rotate(-180 197.222 135.851)" stroke="#24405A"/>
<rect x="197.222" y="125.444" width="10.6424" height="10.661" transform="rotate(-180 197.222 125.444)" stroke="#24405A"/>
<rect x="197.222" y="115.037" width="10.6424" height="10.661" transform="rotate(-180 197.222 115.037)" stroke="#24405A"/>
<rect x="197.222" y="104.629" width="10.6424" height="10.661" transform="rotate(-180 197.222 104.629)" stroke="#24405A"/>
<rect x="197.222" y="94.222" width="10.6424" height="10.661" transform="rotate(-180 197.222 94.222)" stroke="#24405A"/>
<rect x="197.222" y="83.8151" width="10.6424" height="10.661" transform="rotate(-180 197.222 83.8151)" stroke="#24405A"/>
<rect x="186.831" y="135.851" width="10.2668" height="10.661" transform="rotate(-180 186.831 135.851)" stroke="#24405A"/>
<rect x="186.831" y="125.444" width="10.2668" height="10.661" transform="rotate(-180 186.831 125.444)" stroke="#24405A"/>
<rect x="186.831" y="115.037" width="10.2668" height="10.661" transform="rotate(-180 186.831 115.037)" stroke="#24405A"/>
<rect x="186.831" y="104.629" width="10.2668" height="10.661" transform="rotate(-180 186.831 104.629)" stroke="#24405A"/>
<rect x="186.831" y="94.222" width="10.2668" height="10.661" transform="rotate(-180 186.831 94.222)" stroke="#24405A"/>
<rect x="186.831" y="83.8151" width="10.2668" height="10.661" transform="rotate(-180 186.831 83.8151)" stroke="#24405A"/>
<rect x="176.817" y="135.851" width="10.6424" height="10.661" transform="rotate(-180 176.817 135.851)" stroke="#24405A"/>
<rect x="176.816" y="125.444" width="10.6424" height="10.661" transform="rotate(-180 176.816 125.444)" stroke="#24405A"/>
<rect x="176.817" y="115.037" width="10.6424" height="10.661" transform="rotate(-180 176.817 115.037)" stroke="#24405A"/>
<rect x="176.816" y="104.629" width="10.6424" height="10.661" transform="rotate(-180 176.816 104.629)" stroke="#24405A"/>
<rect x="176.817" y="94.222" width="10.6424" height="10.661" transform="rotate(-180 176.817 94.222)" stroke="#24405A"/>
<rect x="176.816" y="83.8151" width="10.6424" height="10.661" transform="rotate(-180 176.816 83.8151)" stroke="#24405A"/>
<rect x="166.426" y="135.851" width="10.6424" height="10.661" transform="rotate(-180 166.426 135.851)" stroke="#24405A"/>
<rect x="166.426" y="125.444" width="10.6424" height="10.661" transform="rotate(-180 166.426 125.444)" stroke="#24405A"/>
<rect x="166.426" y="115.037" width="10.6424" height="10.661" transform="rotate(-180 166.426 115.037)" stroke="#24405A"/>
<rect x="166.426" y="104.629" width="10.6424" height="10.661" transform="rotate(-180 166.426 104.629)" stroke="#24405A"/>
<rect x="166.426" y="94.222" width="10.6424" height="10.661" transform="rotate(-180 166.426 94.222)" stroke="#24405A"/>
<rect x="166.426" y="83.8151" width="10.6424" height="10.661" transform="rotate(-180 166.426 83.8151)" stroke="#24405A"/>
<rect x="156.035" y="135.851" width="10.6424" height="10.661" transform="rotate(-180 156.035 135.851)" stroke="#24405A"/>
<rect x="156.035" y="125.444" width="10.6424" height="10.661" transform="rotate(-180 156.035 125.444)" stroke="#24405A"/>
<rect x="156.035" y="115.037" width="10.6424" height="10.661" transform="rotate(-180 156.035 115.037)" stroke="#24405A"/>
<rect x="156.035" y="104.629" width="10.6424" height="10.661" transform="rotate(-180 156.035 104.629)" stroke="#24405A"/>
<rect x="156.035" y="94.222" width="10.6424" height="10.661" transform="rotate(-180 156.035 94.222)" stroke="#24405A"/>
<rect x="156.035" y="83.8151" width="10.6424" height="10.661" transform="rotate(-180 156.035 83.8151)" stroke="#24405A"/>
<rect x="145.645" y="135.851" width="10.6424" height="10.661" transform="rotate(-180 145.645 135.851)" stroke="#24405A"/>
<rect x="145.645" y="125.444" width="10.6424" height="10.661" transform="rotate(-180 145.645 125.444)" stroke="#24405A"/>
<rect x="145.644" y="115.036" width="10.6424" height="10.661" transform="rotate(-180 145.644 115.036)" stroke="#24405A"/>
<rect x="145.644" y="104.629" width="10.6424" height="10.661" transform="rotate(-180 145.644 104.629)" stroke="#24405A"/>
<rect x="145.645" y="94.222" width="10.6424" height="10.661" transform="rotate(-180 145.645 94.222)" stroke="#24405A"/>
<rect x="145.645" y="83.8151" width="10.6424" height="10.661" transform="rotate(-180 145.645 83.8151)" stroke="#24405A"/>
<rect x="135.255" y="135.851" width="10.2668" height="10.661" transform="rotate(-180 135.255 135.851)" stroke="#24405A"/>
<rect x="135.255" y="125.444" width="10.2668" height="10.661" transform="rotate(-180 135.255 125.444)" stroke="#24405A"/>
<rect x="135.254" y="115.037" width="10.2668" height="10.661" transform="rotate(-180 135.254 115.037)" stroke="#24405A"/>
<rect x="135.254" y="104.629" width="10.2668" height="10.661" transform="rotate(-180 135.254 104.629)" stroke="#24405A"/>
<rect x="135.255" y="94.222" width="10.2668" height="10.661" transform="rotate(-180 135.255 94.222)" stroke="#24405A"/>
<rect x="135.255" y="83.8151" width="10.2668" height="10.661" transform="rotate(-180 135.255 83.8151)" stroke="#24405A"/>
<rect x="125.24" y="135.851" width="10.6424" height="10.661" transform="rotate(-180 125.24 135.851)" stroke="#24405A"/>
<rect x="125.24" y="125.444" width="10.6424" height="10.661" transform="rotate(-180 125.24 125.444)" stroke="#24405A"/>
<rect x="125.24" y="115.037" width="10.6424" height="10.661" transform="rotate(-180 125.24 115.037)" stroke="#24405A"/>
<rect x="125.24" y="104.629" width="10.6424" height="10.661" transform="rotate(-180 125.24 104.629)" stroke="#24405A"/>
<rect x="125.239" y="94.222" width="10.6424" height="10.661" transform="rotate(-180 125.239 94.222)" stroke="#24405A"/>
<rect x="125.239" y="83.8151" width="10.6424" height="10.661" transform="rotate(-180 125.239 83.8151)" stroke="#24405A"/>
<rect x="114.848" y="135.851" width="10.6424" height="10.661" transform="rotate(-180 114.848 135.851)" stroke="#24405A"/>
<rect x="114.849" y="125.444" width="10.6424" height="10.661" transform="rotate(-180 114.849 125.444)" stroke="#24405A"/>
<rect x="114.849" y="115.037" width="10.6424" height="10.661" transform="rotate(-180 114.849 115.037)" stroke="#24405A"/>
<rect x="114.849" y="104.629" width="10.6424" height="10.661" transform="rotate(-180 114.849 104.629)" stroke="#24405A"/>
<rect x="114.848" y="94.222" width="10.6424" height="10.661" transform="rotate(-180 114.848 94.222)" stroke="#24405A"/>
<rect x="114.848" y="83.8151" width="10.6424" height="10.661" transform="rotate(-180 114.848 83.8151)" stroke="#24405A"/>
<rect x="197.222" y="209.505" width="10.6424" height="10.661" transform="rotate(-180 197.222 209.505)" stroke="#24405A"/>
<rect x="197.222" y="199.098" width="10.6424" height="10.661" transform="rotate(-180 197.222 199.098)" stroke="#24405A"/>
<rect x="197.222" y="188.691" width="10.6424" height="10.661" transform="rotate(-180 197.222 188.691)" stroke="#24405A"/>
<rect x="197.222" y="178.283" width="10.6424" height="10.661" transform="rotate(-180 197.222 178.283)" stroke="#24405A"/>
<rect x="197.222" y="167.876" width="10.6424" height="10.661" transform="rotate(-180 197.222 167.876)" stroke="#24405A"/>
<rect x="197.222" y="157.469" width="10.6424" height="10.661" transform="rotate(-180 197.222 157.469)" stroke="#24405A"/>
<rect x="186.831" y="209.505" width="10.2668" height="10.661" transform="rotate(-180 186.831 209.505)" stroke="#24405A"/>
<rect x="186.831" y="199.098" width="10.2668" height="10.661" transform="rotate(-180 186.831 199.098)" stroke="#24405A"/>
<rect x="186.831" y="188.691" width="10.2668" height="10.661" transform="rotate(-180 186.831 188.691)" stroke="#24405A"/>
<rect x="186.831" y="178.283" width="10.2668" height="10.661" transform="rotate(-180 186.831 178.283)" stroke="#24405A"/>
<rect x="186.831" y="167.876" width="10.2668" height="10.661" transform="rotate(-180 186.831 167.876)" stroke="#24405A"/>
<rect x="186.831" y="157.469" width="10.2668" height="10.661" transform="rotate(-180 186.831 157.469)" stroke="#24405A"/>
<rect x="176.817" y="209.505" width="10.6424" height="10.661" transform="rotate(-180 176.817 209.505)" stroke="#24405A"/>
<rect x="176.816" y="199.098" width="10.6424" height="10.661" transform="rotate(-180 176.816 199.098)" stroke="#24405A"/>
<rect x="176.817" y="188.691" width="10.6424" height="10.661" transform="rotate(-180 176.817 188.691)" stroke="#24405A"/>
<rect x="176.816" y="178.283" width="10.6424" height="10.661" transform="rotate(-180 176.816 178.283)" stroke="#24405A"/>
<rect x="176.817" y="167.876" width="10.6424" height="10.661" transform="rotate(-180 176.817 167.876)" stroke="#24405A"/>
<rect x="176.816" y="157.469" width="10.6424" height="10.661" transform="rotate(-180 176.816 157.469)" stroke="#24405A"/>
<rect x="166.426" y="209.505" width="10.6424" height="10.661" transform="rotate(-180 166.426 209.505)" stroke="#24405A"/>
<rect x="166.426" y="199.098" width="10.6424" height="10.661" transform="rotate(-180 166.426 199.098)" stroke="#24405A"/>
<rect x="166.426" y="188.691" width="10.6424" height="10.661" transform="rotate(-180 166.426 188.691)" stroke="#24405A"/>
<rect x="166.426" y="178.283" width="10.6424" height="10.661" transform="rotate(-180 166.426 178.283)" stroke="#24405A"/>
<rect x="166.426" y="167.876" width="10.6424" height="10.661" transform="rotate(-180 166.426 167.876)" stroke="#24405A"/>
<rect x="166.426" y="157.469" width="10.6424" height="10.661" transform="rotate(-180 166.426 157.469)" stroke="#24405A"/>
<rect x="156.035" y="209.505" width="10.6424" height="10.661" transform="rotate(-180 156.035 209.505)" stroke="#24405A"/>
<rect x="156.035" y="199.098" width="10.6424" height="10.661" transform="rotate(-180 156.035 199.098)" stroke="#24405A"/>
<rect x="156.035" y="188.691" width="10.6424" height="10.661" transform="rotate(-180 156.035 188.691)" stroke="#24405A"/>
<rect x="156.035" y="178.283" width="10.6424" height="10.661" transform="rotate(-180 156.035 178.283)" stroke="#24405A"/>
<rect x="156.035" y="167.876" width="10.6424" height="10.661" transform="rotate(-180 156.035 167.876)" stroke="#24405A"/>
<rect x="156.035" y="157.469" width="10.6424" height="10.661" transform="rotate(-180 156.035 157.469)" stroke="#24405A"/>
<rect x="145.645" y="209.505" width="10.6424" height="10.661" transform="rotate(-180 145.645 209.505)" stroke="#24405A"/>
<rect x="145.645" y="199.098" width="10.6424" height="10.661" transform="rotate(-180 145.645 199.098)" stroke="#24405A"/>
<rect x="145.644" y="188.69" width="10.6424" height="10.661" transform="rotate(-180 145.644 188.69)" stroke="#24405A"/>
<rect x="145.644" y="178.283" width="10.6424" height="10.661" transform="rotate(-180 145.644 178.283)" stroke="#24405A"/>
<rect x="145.645" y="167.876" width="10.6424" height="10.661" transform="rotate(-180 145.645 167.876)" stroke="#24405A"/>
<rect x="145.645" y="157.469" width="10.6424" height="10.661" transform="rotate(-180 145.645 157.469)" stroke="#24405A"/>
<rect x="135.255" y="209.505" width="10.2668" height="10.661" transform="rotate(-180 135.255 209.505)" stroke="#24405A"/>
<rect x="135.255" y="199.098" width="10.2668" height="10.661" transform="rotate(-180 135.255 199.098)" stroke="#24405A"/>
<rect x="135.254" y="188.691" width="10.2668" height="10.661" transform="rotate(-180 135.254 188.691)" stroke="#24405A"/>
<rect x="135.254" y="178.283" width="10.2668" height="10.661" transform="rotate(-180 135.254 178.283)" stroke="#24405A"/>
<rect x="135.255" y="167.876" width="10.2668" height="10.661" transform="rotate(-180 135.255 167.876)" stroke="#24405A"/>
<rect x="135.255" y="157.469" width="10.2668" height="10.661" transform="rotate(-180 135.255 157.469)" stroke="#24405A"/>
<rect x="125.24" y="209.505" width="10.6424" height="10.661" transform="rotate(-180 125.24 209.505)" stroke="#24405A"/>
<rect x="125.24" y="199.098" width="10.6424" height="10.661" transform="rotate(-180 125.24 199.098)" stroke="#24405A"/>
<rect x="125.24" y="188.691" width="10.6424" height="10.661" transform="rotate(-180 125.24 188.691)" stroke="#24405A"/>
<rect x="125.24" y="178.283" width="10.6424" height="10.661" transform="rotate(-180 125.24 178.283)" stroke="#24405A"/>
<rect x="125.239" y="167.876" width="10.6424" height="10.661" transform="rotate(-180 125.239 167.876)" stroke="#24405A"/>
<rect x="125.239" y="157.469" width="10.6424" height="10.661" transform="rotate(-180 125.239 157.469)" stroke="#24405A"/>
<rect x="114.848" y="209.505" width="10.6424" height="10.661" transform="rotate(-180 114.848 209.505)" stroke="#24405A"/>
<rect x="114.849" y="199.098" width="10.6424" height="10.661" transform="rotate(-180 114.849 199.098)" stroke="#24405A"/>
<rect x="114.849" y="188.691" width="10.6424" height="10.661" transform="rotate(-180 114.849 188.691)" stroke="#24405A"/>
<rect x="114.849" y="178.283" width="10.6424" height="10.661" transform="rotate(-180 114.849 178.283)" stroke="#24405A"/>
<rect x="114.848" y="167.876" width="10.6424" height="10.661" transform="rotate(-180 114.848 167.876)" stroke="#24405A"/>
<rect x="114.848" y="157.469" width="10.6424" height="10.661" transform="rotate(-180 114.848 157.469)" stroke="#24405A"/>
<rect x="300.213" y="63.1967" width="10.6424" height="10.661" transform="rotate(-180 300.213 63.1967)" stroke="#24405A"/>
<rect x="300.213" y="52.7896" width="10.6424" height="10.661" transform="rotate(-180 300.213 52.7896)" stroke="#24405A"/>
<rect x="300.214" y="42.3826" width="10.6424" height="10.661" transform="rotate(-180 300.214 42.3826)" stroke="#24405A"/>
<rect x="300.214" y="31.9753" width="10.6424" height="10.661" transform="rotate(-180 300.214 31.9753)" stroke="#24405A"/>
<rect x="300.214" y="21.568" width="10.6424" height="10.661" transform="rotate(-180 300.214 21.568)" stroke="#24405A"/>
<rect x="300.213" y="11.161" width="10.6424" height="10.661" transform="rotate(-180 300.213 11.161)" stroke="#24405A"/>
<rect x="289.823" y="63.1967" width="10.2668" height="10.661" transform="rotate(-180 289.823 63.1967)" stroke="#24405A"/>
<rect x="289.822" y="52.7896" width="10.2668" height="10.661" transform="rotate(-180 289.822 52.7896)" stroke="#24405A"/>
<rect x="289.823" y="42.3826" width="10.2668" height="10.661" transform="rotate(-180 289.823 42.3826)" stroke="#24405A"/>
<rect x="289.822" y="31.9753" width="10.2668" height="10.661" transform="rotate(-180 289.822 31.9753)" stroke="#24405A"/>
<rect x="289.823" y="21.568" width="10.2668" height="10.661" transform="rotate(-180 289.823 21.568)" stroke="#24405A"/>
<rect x="289.822" y="11.161" width="10.2668" height="10.661" transform="rotate(-180 289.822 11.161)" stroke="#24405A"/>
<rect x="279.808" y="63.1967" width="10.6424" height="10.661" transform="rotate(-180 279.808 63.1967)" stroke="#24405A"/>
<rect x="279.807" y="52.7896" width="10.6424" height="10.661" transform="rotate(-180 279.807 52.7896)" stroke="#24405A"/>
<rect x="279.808" y="42.3826" width="10.6424" height="10.661" transform="rotate(-180 279.808 42.3826)" stroke="#24405A"/>
<rect x="279.807" y="31.9753" width="10.6424" height="10.661" transform="rotate(-180 279.807 31.9753)" stroke="#24405A"/>
<rect x="279.808" y="21.568" width="10.6424" height="10.661" transform="rotate(-180 279.808 21.568)" stroke="#24405A"/>
<rect x="279.807" y="11.161" width="10.6424" height="10.661" transform="rotate(-180 279.807 11.161)" stroke="#24405A"/>
<rect x="269.417" y="63.1967" width="10.6424" height="10.661" transform="rotate(-180 269.417 63.1967)" stroke="#24405A"/>
<rect x="269.417" y="52.7896" width="10.6424" height="10.661" transform="rotate(-180 269.417 52.7896)" stroke="#24405A"/>
<rect x="269.417" y="42.3826" width="10.6424" height="10.661" transform="rotate(-180 269.417 42.3826)" stroke="#24405A"/>
<rect x="269.417" y="31.9753" width="10.6424" height="10.661" transform="rotate(-180 269.417 31.9753)" stroke="#24405A"/>
<rect x="269.417" y="21.568" width="10.6424" height="10.661" transform="rotate(-180 269.417 21.568)" stroke="#24405A"/>
<rect x="269.417" y="11.161" width="10.6424" height="10.661" transform="rotate(-180 269.417 11.161)" stroke="#24405A"/>
<rect x="259.026" y="63.1967" width="10.6424" height="10.661" transform="rotate(-180 259.026 63.1967)" stroke="#24405A"/>
<rect x="259.026" y="52.7896" width="10.6424" height="10.661" transform="rotate(-180 259.026 52.7896)" stroke="#24405A"/>
<rect x="259.026" y="42.3826" width="10.6424" height="10.661" transform="rotate(-180 259.026 42.3826)" stroke="#24405A"/>
<rect x="259.026" y="31.9753" width="10.6424" height="10.661" transform="rotate(-180 259.026 31.9753)" stroke="#24405A"/>
<rect x="259.026" y="21.568" width="10.6424" height="10.661" transform="rotate(-180 259.026 21.568)" stroke="#24405A"/>
<rect x="259.026" y="11.161" width="10.6424" height="10.661" transform="rotate(-180 259.026 11.161)" stroke="#24405A"/>
<rect x="248.636" y="63.1967" width="10.6424" height="10.661" transform="rotate(-180 248.636 63.1967)" stroke="#24405A"/>
<rect x="248.636" y="52.7896" width="10.6424" height="10.661" transform="rotate(-180 248.636 52.7896)" stroke="#24405A"/>
<rect x="248.635" y="42.3824" width="10.6424" height="10.661" transform="rotate(-180 248.635 42.3824)" stroke="#24405A"/>
<rect x="248.635" y="31.9753" width="10.6424" height="10.661" transform="rotate(-180 248.635 31.9753)" stroke="#24405A"/>
<rect x="248.636" y="21.568" width="10.6424" height="10.661" transform="rotate(-180 248.636 21.568)" stroke="#24405A"/>
<rect x="248.636" y="11.161" width="10.6424" height="10.661" transform="rotate(-180 248.636 11.161)" stroke="#24405A"/>
<rect x="238.246" y="63.1967" width="10.2668" height="10.661" transform="rotate(-180 238.246 63.1967)" stroke="#24405A"/>
<rect x="238.246" y="52.7896" width="10.2668" height="10.661" transform="rotate(-180 238.246 52.7896)" stroke="#24405A"/>
<rect x="238.246" y="42.3826" width="10.2668" height="10.661" transform="rotate(-180 238.246 42.3826)" stroke="#24405A"/>
<rect x="238.246" y="31.9753" width="10.2668" height="10.661" transform="rotate(-180 238.246 31.9753)" stroke="#24405A"/>
<rect x="238.246" y="21.568" width="10.2668" height="10.661" transform="rotate(-180 238.246 21.568)" stroke="#24405A"/>
<rect x="238.246" y="11.161" width="10.2668" height="10.661" transform="rotate(-180 238.246 11.161)" stroke="#24405A"/>
<rect x="228.231" y="63.1967" width="10.6424" height="10.661" transform="rotate(-180 228.231 63.1967)" stroke="#24405A"/>
<rect x="228.231" y="52.7896" width="10.6424" height="10.661" transform="rotate(-180 228.231 52.7896)" stroke="#24405A"/>
<rect x="228.231" y="42.3826" width="10.6424" height="10.661" transform="rotate(-180 228.231 42.3826)" stroke="#24405A"/>
<rect x="228.231" y="31.9753" width="10.6424" height="10.661" transform="rotate(-180 228.231 31.9753)" stroke="#24405A"/>
<rect x="228.23" y="21.568" width="10.6424" height="10.661" transform="rotate(-180 228.23 21.568)" stroke="#24405A"/>
<rect x="228.231" y="11.161" width="10.6424" height="10.661" transform="rotate(-180 228.231 11.161)" stroke="#24405A"/>
<rect x="217.84" y="63.1967" width="10.6424" height="10.661" transform="rotate(-180 217.84 63.1967)" stroke="#24405A"/>
<rect x="217.84" y="52.7896" width="10.6424" height="10.661" transform="rotate(-180 217.84 52.7896)" stroke="#24405A"/>
<rect x="217.84" y="42.3826" width="10.6424" height="10.661" transform="rotate(-180 217.84 42.3826)" stroke="#24405A"/>
<rect x="217.84" y="31.9753" width="10.6424" height="10.661" transform="rotate(-180 217.84 31.9753)" stroke="#24405A"/>
<rect x="217.839" y="21.568" width="10.6424" height="10.661" transform="rotate(-180 217.839 21.568)" stroke="#24405A"/>
<rect x="217.839" y="11.161" width="10.6424" height="10.661" transform="rotate(-180 217.839 11.161)" stroke="#24405A"/>
<rect x="300.213" y="135.851" width="10.6424" height="10.661" transform="rotate(-180 300.213 135.851)" stroke="#24405A"/>
<rect x="300.213" y="125.444" width="10.6424" height="10.661" transform="rotate(-180 300.213 125.444)" stroke="#24405A"/>
<rect x="300.214" y="115.037" width="10.6424" height="10.661" transform="rotate(-180 300.214 115.037)" stroke="#24405A"/>
<rect x="300.214" y="104.629" width="10.6424" height="10.661" transform="rotate(-180 300.214 104.629)" stroke="#24405A"/>
<rect x="300.214" y="94.222" width="10.6424" height="10.661" transform="rotate(-180 300.214 94.222)" stroke="#24405A"/>
<rect x="300.213" y="83.8151" width="10.6424" height="10.661" transform="rotate(-180 300.213 83.8151)" stroke="#24405A"/>
<rect x="289.823" y="135.851" width="10.2668" height="10.661" transform="rotate(-180 289.823 135.851)" stroke="#24405A"/>
<rect x="289.822" y="125.444" width="10.2668" height="10.661" transform="rotate(-180 289.822 125.444)" stroke="#24405A"/>
<rect x="289.823" y="115.037" width="10.2668" height="10.661" transform="rotate(-180 289.823 115.037)" stroke="#24405A"/>
<rect x="289.822" y="104.629" width="10.2668" height="10.661" transform="rotate(-180 289.822 104.629)" stroke="#24405A"/>
<rect x="289.823" y="94.222" width="10.2668" height="10.661" transform="rotate(-180 289.823 94.222)" stroke="#24405A"/>
<rect x="289.822" y="83.8151" width="10.2668" height="10.661" transform="rotate(-180 289.822 83.8151)" stroke="#24405A"/>
<rect x="279.808" y="135.851" width="10.6424" height="10.661" transform="rotate(-180 279.808 135.851)" stroke="#24405A"/>
<rect x="279.807" y="125.444" width="10.6424" height="10.661" transform="rotate(-180 279.807 125.444)" stroke="#24405A"/>
<rect x="279.808" y="115.037" width="10.6424" height="10.661" transform="rotate(-180 279.808 115.037)" stroke="#24405A"/>
<rect x="279.807" y="104.629" width="10.6424" height="10.661" transform="rotate(-180 279.807 104.629)" stroke="#24405A"/>
<rect x="279.808" y="94.222" width="10.6424" height="10.661" transform="rotate(-180 279.808 94.222)" stroke="#24405A"/>
<rect x="279.807" y="83.8151" width="10.6424" height="10.661" transform="rotate(-180 279.807 83.8151)" stroke="#24405A"/>
<rect x="269.417" y="135.851" width="10.6424" height="10.661" transform="rotate(-180 269.417 135.851)" stroke="#24405A"/>
<rect x="269.417" y="125.444" width="10.6424" height="10.661" transform="rotate(-180 269.417 125.444)" stroke="#24405A"/>
<rect x="269.417" y="115.037" width="10.6424" height="10.661" transform="rotate(-180 269.417 115.037)" stroke="#24405A"/>
<rect x="269.417" y="104.629" width="10.6424" height="10.661" transform="rotate(-180 269.417 104.629)" stroke="#24405A"/>
<rect x="269.417" y="94.222" width="10.6424" height="10.661" transform="rotate(-180 269.417 94.222)" stroke="#24405A"/>
<rect x="269.417" y="83.8151" width="10.6424" height="10.661" transform="rotate(-180 269.417 83.8151)" stroke="#24405A"/>
<rect x="259.026" y="135.851" width="10.6424" height="10.661" transform="rotate(-180 259.026 135.851)" stroke="#24405A"/>
<rect x="259.026" y="125.444" width="10.6424" height="10.661" transform="rotate(-180 259.026 125.444)" stroke="#24405A"/>
<rect x="259.026" y="115.037" width="10.6424" height="10.661" transform="rotate(-180 259.026 115.037)" stroke="#24405A"/>
<rect x="259.026" y="104.629" width="10.6424" height="10.661" transform="rotate(-180 259.026 104.629)" stroke="#24405A"/>
<rect x="259.026" y="94.222" width="10.6424" height="10.661" transform="rotate(-180 259.026 94.222)" stroke="#24405A"/>
<rect x="259.026" y="83.8151" width="10.6424" height="10.661" transform="rotate(-180 259.026 83.8151)" stroke="#24405A"/>
<rect x="248.636" y="135.851" width="10.6424" height="10.661" transform="rotate(-180 248.636 135.851)" stroke="#24405A"/>
<rect x="248.636" y="125.444" width="10.6424" height="10.661" transform="rotate(-180 248.636 125.444)" stroke="#24405A"/>
<rect x="248.635" y="115.036" width="10.6424" height="10.661" transform="rotate(-180 248.635 115.036)" stroke="#24405A"/>
<rect x="248.635" y="104.629" width="10.6424" height="10.661" transform="rotate(-180 248.635 104.629)" stroke="#24405A"/>
<rect x="248.636" y="94.222" width="10.6424" height="10.661" transform="rotate(-180 248.636 94.222)" stroke="#24405A"/>
<rect x="248.636" y="83.8151" width="10.6424" height="10.661" transform="rotate(-180 248.636 83.8151)" stroke="#24405A"/>
<rect x="238.246" y="135.851" width="10.2668" height="10.661" transform="rotate(-180 238.246 135.851)" stroke="#24405A"/>
<rect x="238.246" y="125.444" width="10.2668" height="10.661" transform="rotate(-180 238.246 125.444)" stroke="#24405A"/>
<rect x="238.246" y="115.037" width="10.2668" height="10.661" transform="rotate(-180 238.246 115.037)" stroke="#24405A"/>
<rect x="238.246" y="104.629" width="10.2668" height="10.661" transform="rotate(-180 238.246 104.629)" stroke="#24405A"/>
<rect x="238.246" y="94.222" width="10.2668" height="10.661" transform="rotate(-180 238.246 94.222)" stroke="#24405A"/>
<rect x="238.246" y="83.8151" width="10.2668" height="10.661" transform="rotate(-180 238.246 83.8151)" stroke="#24405A"/>
<rect x="228.231" y="135.851" width="10.6424" height="10.661" transform="rotate(-180 228.231 135.851)" stroke="#24405A"/>
<rect x="228.231" y="125.444" width="10.6424" height="10.661" transform="rotate(-180 228.231 125.444)" stroke="#24405A"/>
<rect x="228.231" y="115.037" width="10.6424" height="10.661" transform="rotate(-180 228.231 115.037)" stroke="#24405A"/>
<rect x="228.231" y="104.629" width="10.6424" height="10.661" transform="rotate(-180 228.231 104.629)" stroke="#24405A"/>
<rect x="228.23" y="94.222" width="10.6424" height="10.661" transform="rotate(-180 228.23 94.222)" stroke="#24405A"/>
<rect x="228.231" y="83.8151" width="10.6424" height="10.661" transform="rotate(-180 228.231 83.8151)" stroke="#24405A"/>
<rect x="217.84" y="135.851" width="10.6424" height="10.661" transform="rotate(-180 217.84 135.851)" stroke="#24405A"/>
<rect x="217.84" y="125.444" width="10.6424" height="10.661" transform="rotate(-180 217.84 125.444)" stroke="#24405A"/>
<rect x="217.84" y="115.037" width="10.6424" height="10.661" transform="rotate(-180 217.84 115.037)" stroke="#24405A"/>
<rect x="217.84" y="104.629" width="10.6424" height="10.661" transform="rotate(-180 217.84 104.629)" stroke="#24405A"/>
<rect x="217.839" y="94.222" width="10.6424" height="10.661" transform="rotate(-180 217.839 94.222)" stroke="#24405A"/>
<rect x="217.839" y="83.8151" width="10.6424" height="10.661" transform="rotate(-180 217.839 83.8151)" stroke="#24405A"/>
<rect x="300.213" y="209.5" width="10.6424" height="10.661" transform="rotate(-180 300.213 209.5)" stroke="#24405A"/>
<rect x="300.213" y="199.093" width="10.6424" height="10.661" transform="rotate(-180 300.213 199.093)" stroke="#24405A"/>
<rect x="300.214" y="188.686" width="10.6424" height="10.661" transform="rotate(-180 300.214 188.686)" stroke="#24405A"/>
<rect x="300.214" y="178.279" width="10.6424" height="10.661" transform="rotate(-180 300.214 178.279)" stroke="#24405A"/>
<rect x="300.214" y="167.871" width="10.6424" height="10.661" transform="rotate(-180 300.214 167.871)" stroke="#24405A"/>
<rect x="300.213" y="157.464" width="10.6424" height="10.661" transform="rotate(-180 300.213 157.464)" stroke="#24405A"/>
<rect x="289.823" y="209.5" width="10.2668" height="10.661" transform="rotate(-180 289.823 209.5)" stroke="#24405A"/>
<rect x="289.822" y="199.093" width="10.2668" height="10.661" transform="rotate(-180 289.822 199.093)" stroke="#24405A"/>
<rect x="289.823" y="188.686" width="10.2668" height="10.661" transform="rotate(-180 289.823 188.686)" stroke="#24405A"/>
<rect x="289.822" y="178.279" width="10.2668" height="10.661" transform="rotate(-180 289.822 178.279)" stroke="#24405A"/>
<rect x="289.823" y="167.871" width="10.2668" height="10.661" transform="rotate(-180 289.823 167.871)" stroke="#24405A"/>
<rect x="289.822" y="157.464" width="10.2668" height="10.661" transform="rotate(-180 289.822 157.464)" stroke="#24405A"/>
<rect x="279.808" y="209.5" width="10.6424" height="10.661" transform="rotate(-180 279.808 209.5)" stroke="#24405A"/>
<rect x="279.807" y="199.093" width="10.6424" height="10.661" transform="rotate(-180 279.807 199.093)" stroke="#24405A"/>
<rect x="279.808" y="188.686" width="10.6424" height="10.661" transform="rotate(-180 279.808 188.686)" stroke="#24405A"/>
<rect x="279.807" y="178.279" width="10.6424" height="10.661" transform="rotate(-180 279.807 178.279)" stroke="#24405A"/>
<rect x="279.808" y="167.871" width="10.6424" height="10.661" transform="rotate(-180 279.808 167.871)" stroke="#24405A"/>
<rect x="279.807" y="157.464" width="10.6424" height="10.661" transform="rotate(-180 279.807 157.464)" stroke="#24405A"/>
<rect x="269.417" y="209.5" width="10.6424" height="10.661" transform="rotate(-180 269.417 209.5)" stroke="#24405A"/>
<rect x="269.417" y="199.093" width="10.6424" height="10.661" transform="rotate(-180 269.417 199.093)" stroke="#24405A"/>
<rect x="269.417" y="188.686" width="10.6424" height="10.661" transform="rotate(-180 269.417 188.686)" stroke="#24405A"/>
<rect x="269.417" y="178.279" width="10.6424" height="10.661" transform="rotate(-180 269.417 178.279)" stroke="#24405A"/>
<rect x="269.417" y="167.871" width="10.6424" height="10.661" transform="rotate(-180 269.417 167.871)" stroke="#24405A"/>
<rect x="269.417" y="157.464" width="10.6424" height="10.661" transform="rotate(-180 269.417 157.464)" stroke="#24405A"/>
<rect x="259.026" y="209.5" width="10.6424" height="10.661" transform="rotate(-180 259.026 209.5)" stroke="#24405A"/>
<rect x="259.026" y="199.093" width="10.6424" height="10.661" transform="rotate(-180 259.026 199.093)" stroke="#24405A"/>
<rect x="259.026" y="188.686" width="10.6424" height="10.661" transform="rotate(-180 259.026 188.686)" stroke="#24405A"/>
<rect x="259.026" y="178.279" width="10.6424" height="10.661" transform="rotate(-180 259.026 178.279)" stroke="#24405A"/>
<rect x="259.026" y="167.871" width="10.6424" height="10.661" transform="rotate(-180 259.026 167.871)" stroke="#24405A"/>
<rect x="259.026" y="157.464" width="10.6424" height="10.661" transform="rotate(-180 259.026 157.464)" stroke="#24405A"/>
<rect x="248.636" y="209.5" width="10.6424" height="10.661" transform="rotate(-180 248.636 209.5)" stroke="#24405A"/>
<rect x="248.636" y="199.093" width="10.6424" height="10.661" transform="rotate(-180 248.636 199.093)" stroke="#24405A"/>
<rect x="248.635" y="188.686" width="10.6424" height="10.661" transform="rotate(-180 248.635 188.686)" stroke="#24405A"/>
<rect x="248.635" y="178.279" width="10.6424" height="10.661" transform="rotate(-180 248.635 178.279)" stroke="#24405A"/>
<rect x="248.636" y="167.871" width="10.6424" height="10.661" transform="rotate(-180 248.636 167.871)" stroke="#24405A"/>
<rect x="248.636" y="157.464" width="10.6424" height="10.661" transform="rotate(-180 248.636 157.464)" stroke="#24405A"/>
<rect x="238.246" y="209.5" width="10.2668" height="10.661" transform="rotate(-180 238.246 209.5)" stroke="#24405A"/>
<rect x="238.246" y="199.093" width="10.2668" height="10.661" transform="rotate(-180 238.246 199.093)" stroke="#24405A"/>
<rect x="238.246" y="188.686" width="10.2668" height="10.661" transform="rotate(-180 238.246 188.686)" stroke="#24405A"/>
<rect x="238.246" y="178.279" width="10.2668" height="10.661" transform="rotate(-180 238.246 178.279)" stroke="#24405A"/>
<rect x="238.246" y="167.871" width="10.2668" height="10.661" transform="rotate(-180 238.246 167.871)" stroke="#24405A"/>
<rect x="238.246" y="157.464" width="10.2668" height="10.661" transform="rotate(-180 238.246 157.464)" stroke="#24405A"/>
<rect x="228.231" y="209.5" width="10.6424" height="10.661" transform="rotate(-180 228.231 209.5)" stroke="#24405A"/>
<rect x="228.231" y="199.093" width="10.6424" height="10.661" transform="rotate(-180 228.231 199.093)" stroke="#24405A"/>
<rect x="228.231" y="188.686" width="10.6424" height="10.661" transform="rotate(-180 228.231 188.686)" stroke="#24405A"/>
<rect x="228.231" y="178.279" width="10.6424" height="10.661" transform="rotate(-180 228.231 178.279)" stroke="#24405A"/>
<rect x="228.23" y="167.871" width="10.6424" height="10.661" transform="rotate(-180 228.23 167.871)" stroke="#24405A"/>
<rect x="228.231" y="157.464" width="10.6424" height="10.661" transform="rotate(-180 228.231 157.464)" stroke="#24405A"/>
<rect x="217.84" y="209.5" width="10.6424" height="10.661" transform="rotate(-180 217.84 209.5)" stroke="#24405A"/>
<rect x="217.84" y="199.093" width="10.6424" height="10.661" transform="rotate(-180 217.84 199.093)" stroke="#24405A"/>
<rect x="217.84" y="188.686" width="10.6424" height="10.661" transform="rotate(-180 217.84 188.686)" stroke="#24405A"/>
<rect x="217.84" y="178.279" width="10.6424" height="10.661" transform="rotate(-180 217.84 178.279)" stroke="#24405A"/>
<rect x="217.839" y="167.871" width="10.6424" height="10.661" transform="rotate(-180 217.839 167.871)" stroke="#24405A"/>
<rect x="217.839" y="157.464" width="10.6424" height="10.661" transform="rotate(-180 217.839 157.464)" stroke="#24405A"/>
<ellipse cx="178.99" cy="103.009" rx="4.48716" ry="4.47867" fill="#65C6DA"/>
<ellipse cx="185.97" cy="42.2986" rx="4.48716" ry="4.47867" fill="#65C6DA"/>
<ellipse cx="139.104" cy="103.009" rx="4.48716" ry="4.47867" fill="#65C6DA"/>
<ellipse cx="20.4437" cy="194.573" rx="4.48716" ry="4.47867" fill="#65C6DA"/>
<ellipse cx="20.4437" cy="50.2607" rx="4.48716" ry="4.47867" fill="#65C6DA"/>
<ellipse cx="128.136" cy="123.91" rx="4.48716" ry="4.47867" fill="#65C6DA"/>
<ellipse cx="58.3353" cy="16.4218" rx="4.48716" ry="4.47867" fill="#65C6DA"/>
<ellipse cx="47.3666" cy="117.938" rx="4.48716" ry="4.47867" fill="#65C6DA"/>
<ellipse cx="154.061" cy="115.948" rx="4.48716" ry="4.47867" fill="#65C6DA"/>
<ellipse cx="128.136" cy="8.45975" rx="4.48716" ry="4.47867" fill="#65C6DA"/>
<ellipse cx="150.073" cy="35.3317" rx="4.48716" ry="4.47867" fill="#65C6DA"/>
<ellipse cx="131.127" cy="193.578" rx="4.48716" ry="4.47867" fill="#65C6DA"/>
<ellipse cx="40.3866" cy="173.673" rx="4.48716" ry="4.47867" fill="#65C6DA"/>
<ellipse cx="233.833" cy="110.972" rx="4.48716" ry="4.47867" fill="#65C6DA"/>
<ellipse cx="230.842" cy="50.2607" rx="4.48716" ry="4.47867" fill="#65C6DA"/>
<ellipse cx="42.3807" cy="188.602" rx="4.48716" ry="4.47867" fill="#65C6DA"/>
<ellipse cx="268.733" cy="37.3223" rx="4.48716" ry="4.47867" fill="#65C6DA"/>
<ellipse cx="248.79" cy="28.3649" rx="4.48716" ry="4.47867" fill="#65C6DA"/>
<ellipse cx="78.2782" cy="98.0331" rx="4.48716" ry="4.47867" fill="#65C6DA"/>
<ellipse cx="154.487" cy="197.479" rx="4.48716" ry="4.47867" fill="#65C6DA"/>
<ellipse cx="230.842" cy="190.592" rx="4.48716" ry="4.47867" fill="#65C6DA"/>
<ellipse cx="263.747" cy="169.692" rx="4.48716" ry="4.47867" fill="#65C6DA"/>
<ellipse cx="286.681" cy="184.621" rx="4.48716" ry="4.47867" fill="#65C6DA"/>
<ellipse cx="283.69" cy="101.019" rx="4.48716" ry="4.47867" fill="#65C6DA"/>
<ellipse cx="255.77" cy="102.014" rx="4.48716" ry="4.47867" fill="#65C6DA"/>
<ellipse cx="255.77" cy="125.9" rx="4.48716" ry="4.47867" fill="#65C6DA"/>
</svg>
