<svg width="302" height="212" viewBox="0 0 302 212" fill="none" xmlns="http://www.w3.org/2000/svg">
<rect x="1" y="1" width="30" height="30" stroke="#3B687F"/>
<rect x="1" y="31" width="30" height="30" stroke="#3B687F"/>
<rect x="1" y="61" width="30" height="30" stroke="#3B687F"/>
<rect x="1" y="91" width="30" height="30" stroke="#3B687F"/>
<rect x="1" y="121" width="30" height="30" stroke="#3B687F"/>
<rect x="1" y="151" width="30" height="30" stroke="#3B687F"/>
<rect x="1" y="181" width="30" height="30" stroke="#3B687F"/>
<rect x="31" y="1" width="30" height="30" stroke="#3B687F"/>
<rect x="31" y="31" width="30" height="30" stroke="#3B687F"/>
<rect x="31" y="61" width="30" height="30" stroke="#3B687F"/>
<rect x="31" y="91" width="30" height="30" stroke="#3B687F"/>
<rect x="31" y="121" width="30" height="30" stroke="#3B687F"/>
<rect x="31" y="151" width="30" height="30" stroke="#3B687F"/>
<rect x="31" y="181" width="30" height="30" stroke="#3B687F"/>
<rect x="61" y="1" width="30" height="30" stroke="#3B687F"/>
<rect x="61" y="31" width="30" height="30" stroke="#3B687F"/>
<rect x="61" y="61" width="30" height="30" stroke="#3B687F"/>
<rect x="61" y="91" width="30" height="30" stroke="#3B687F"/>
<rect x="61" y="121" width="30" height="30" stroke="#3B687F"/>
<rect x="61" y="151" width="30" height="30" stroke="#3B687F"/>
<rect x="61" y="181" width="30" height="30" stroke="#3B687F"/>
<rect x="91" y="1" width="30" height="30" stroke="#3B687F"/>
<rect x="91" y="31" width="30" height="30" stroke="#3B687F"/>
<rect x="91" y="61" width="30" height="30" stroke="#3B687F"/>
<rect x="91" y="91" width="30" height="30" stroke="#3B687F"/>
<rect x="91" y="121" width="30" height="30" stroke="#3B687F"/>
<rect x="91" y="151" width="30" height="30" stroke="#3B687F"/>
<rect x="91" y="181" width="30" height="30" stroke="#3B687F"/>
<rect x="121" y="1" width="30" height="30" stroke="#3B687F"/>
<rect x="121" y="31" width="30" height="30" stroke="#3B687F"/>
<rect x="121" y="61" width="30" height="30" stroke="#3B687F"/>
<rect x="121" y="91" width="30" height="30" stroke="#3B687F"/>
<rect x="121" y="121" width="30" height="30" stroke="#3B687F"/>
<rect x="121" y="151" width="30" height="30" stroke="#3B687F"/>
<rect x="121" y="181" width="30" height="30" stroke="#3B687F"/>
<rect x="151" y="1" width="30" height="30" stroke="#3B687F"/>
<rect x="151" y="31" width="30" height="30" stroke="#3B687F"/>
<rect x="151" y="61" width="30" height="30" stroke="#3B687F"/>
<rect x="151" y="91" width="30" height="30" stroke="#3B687F"/>
<rect x="151" y="121" width="30" height="30" stroke="#3B687F"/>
<rect x="151" y="151" width="30" height="30" stroke="#3B687F"/>
<rect x="151" y="181" width="30" height="30" stroke="#3B687F"/>
<rect x="181" y="1" width="30" height="30" stroke="#3B687F"/>
<rect x="181" y="31" width="30" height="30" stroke="#3B687F"/>
<rect x="181" y="61" width="30" height="30" stroke="#3B687F"/>
<rect x="181" y="91" width="30" height="30" stroke="#3B687F"/>
<rect x="181" y="121" width="30" height="30" stroke="#3B687F"/>
<rect x="181" y="151" width="30" height="30" stroke="#3B687F"/>
<rect x="181" y="181" width="30" height="30" stroke="#3B687F"/>
<rect x="211" y="1" width="30" height="30" stroke="#3B687F"/>
<rect x="211" y="31" width="30" height="30" stroke="#3B687F"/>
<rect x="211" y="61" width="30" height="30" stroke="#3B687F"/>
<rect x="211" y="91" width="30" height="30" stroke="#3B687F"/>
<rect x="211" y="121" width="30" height="30" stroke="#3B687F"/>
<rect x="211" y="151" width="30" height="30" stroke="#3B687F"/>
<rect x="211" y="181" width="30" height="30" stroke="#3B687F"/>
<rect x="241" y="1" width="30" height="30" stroke="#3B687F"/>
<rect x="241" y="31" width="30" height="30" stroke="#3B687F"/>
<rect x="241" y="61" width="30" height="30" stroke="#3B687F"/>
<rect x="241" y="91" width="30" height="30" stroke="#3B687F"/>
<rect x="241" y="121" width="30" height="30" stroke="#3B687F"/>
<rect x="241" y="151" width="30" height="30" stroke="#3B687F"/>
<rect x="241" y="181" width="30" height="30" stroke="#3B687F"/>
<rect x="271" y="1" width="30" height="30" stroke="#3B687F"/>
<rect x="271" y="31" width="30" height="30" stroke="#3B687F"/>
<rect x="271" y="61" width="30" height="30" stroke="#3B687F"/>
<rect x="271" y="91" width="30" height="30" stroke="#3B687F"/>
<rect x="271" y="121" width="30" height="30" stroke="#3B687F"/>
<rect x="271" y="151" width="30" height="30" stroke="#3B687F"/>
<rect x="271" y="181" width="30" height="30" stroke="#3B687F"/>
<circle cx="98.2679" cy="173.268" r="4.5" transform="rotate(10.8698 98.2679 173.268)" fill="#65C6DA"/>
<circle cx="102.268" cy="160.268" r="4.5" transform="rotate(10.8698 102.268 160.268)" fill="#65C6DA"/>
<circle cx="121.268" cy="139.268" r="4.5" transform="rotate(10.8698 121.268 139.268)" fill="#65C6DA"/>
<circle cx="91.2679" cy="159.268" r="4.5" transform="rotate(10.8698 91.2679 159.268)" fill="#65C6DA"/>
<circle cx="78.2679" cy="138.268" r="4.5" transform="rotate(10.8698 78.2679 138.268)" fill="#65C6DA"/>
<circle cx="99.2679" cy="146.268" r="4.5" transform="rotate(10.8698 99.2679 146.268)" fill="#65C6DA"/>
<circle cx="99.2679" cy="132.268" r="4.5" transform="rotate(10.8698 99.2679 132.268)" fill="#65C6DA"/>
<circle cx="111.268" cy="130.268" r="4.5" transform="rotate(10.8698 111.268 130.268)" fill="#65C6DA"/>
<circle cx="110.268" cy="144.268" r="4.5" transform="rotate(10.8698 110.268 144.268)" fill="#65C6DA"/>
<circle cx="104.268" cy="120.268" r="4.5" transform="rotate(10.8698 104.268 120.268)" fill="#65C6DA"/>
<circle cx="90.2679" cy="125.268" r="4.5" transform="rotate(10.8698 90.2679 125.268)" fill="#65C6DA"/>
<circle cx="89.2679" cy="139.268" r="4.5" transform="rotate(10.8698 89.2679 139.268)" fill="#65C6DA"/>
<circle cx="84.2679" cy="149.268" r="4.5" transform="rotate(10.8698 84.2679 149.268)" fill="#65C6DA"/>
<circle cx="85.2679" cy="116.268" r="4.5" transform="rotate(10.8698 85.2679 116.268)" fill="#65C6DA"/>
<circle cx="99.2679" cy="108.268" r="4.5" transform="rotate(10.8698 99.2679 108.268)" fill="#65C6DA"/>
<circle cx="91.2679" cy="96.2679" r="4.5" transform="rotate(10.8698 91.2679 96.2679)" fill="#65C6DA"/>
<circle cx="98.2679" cy="77.2679" r="4.5" transform="rotate(10.8698 98.2679 77.2679)" fill="#65C6DA"/>
<circle cx="96.2679" cy="57.2679" r="4.5" transform="rotate(10.8698 96.2679 57.2679)" fill="#65C6DA"/>
<circle cx="221.268" cy="72.2679" r="4.5" transform="rotate(10.8698 221.268 72.2679)" fill="#FCD65B"/>
<circle cx="214.268" cy="92.2679" r="4.5" transform="rotate(10.8698 214.268 92.2679)" fill="#FCD65B"/>
<circle cx="219.268" cy="108.268" r="4.5" transform="rotate(10.8698 219.268 108.268)" fill="#FCD65B"/>
<circle cx="208.268" cy="117.268" r="4.5" transform="rotate(10.8698 208.268 117.268)" fill="#FCD65B"/>
<circle cx="196.268" cy="151.268" r="4.5" transform="rotate(10.8698 196.268 151.268)" fill="#FCD65B"/>
<circle cx="209.268" cy="140.268" r="4.5" transform="rotate(10.8698 209.268 140.268)" fill="#FCD65B"/>
<circle cx="214.268" cy="130.268" r="4.5" transform="rotate(10.8698 214.268 130.268)" fill="#FCD65B"/>
<circle cx="222.268" cy="141.268" r="4.5" transform="rotate(10.8698 222.268 141.268)" fill="#FCD65B"/>
<circle cx="227.268" cy="130.268" r="4.5" transform="rotate(10.8698 227.268 130.268)" fill="#FCD65B"/>
<circle cx="237.268" cy="155.268" r="4.5" transform="rotate(10.8698 237.268 155.268)" fill="#FCD65B"/>
<circle cx="223.268" cy="152.268" r="4.5" transform="rotate(10.8698 223.268 152.268)" fill="#FCD65B"/>
<circle cx="209.268" cy="160.268" r="4.5" transform="rotate(10.8698 209.268 160.268)" fill="#FCD65B"/>
<circle cx="221.268" cy="174.268" r="4.5" transform="rotate(10.8698 221.268 174.268)" fill="#FCD65B"/>
</svg>
