<svg width="300" height="210" viewBox="0 0 300 210" fill="none" xmlns="http://www.w3.org/2000/svg">
<rect x="35" y="32" width="30" height="30" stroke="#192D48"/>
<rect x="35" y="62" width="30" height="30" stroke="#192D48"/>
<rect x="35" y="92" width="30" height="30" stroke="#192D48"/>
<rect x="35" y="122" width="30" height="30" stroke="#192D48"/>
<rect x="35" y="152" width="30" height="30" stroke="#192D48"/>
<rect x="65" y="32" width="30" height="30" stroke="#192D48"/>
<rect x="65" y="62" width="30" height="30" stroke="#192D48"/>
<rect x="65" y="92" width="30" height="30" stroke="#192D48"/>
<rect x="65" y="122" width="30" height="30" stroke="#192D48"/>
<rect x="65" y="152" width="30" height="30" stroke="#192D48"/>
<rect x="95" y="32" width="30" height="30" stroke="#192D48"/>
<rect x="95" y="62" width="30" height="30" stroke="#192D48"/>
<rect x="95" y="92" width="30" height="30" stroke="#192D48"/>
<rect x="95" y="122" width="30" height="30" stroke="#192D48"/>
<rect x="95" y="152" width="30" height="30" stroke="#192D48"/>
<rect x="125" y="32" width="30" height="30" stroke="#192D48"/>
<rect x="125" y="62" width="30" height="30" stroke="#192D48"/>
<rect x="125" y="92" width="30" height="30" stroke="#192D48"/>
<rect x="125" y="122" width="30" height="30" stroke="#192D48"/>
<rect x="125" y="152" width="30" height="30" stroke="#192D48"/>
<rect x="155" y="32" width="30" height="30" stroke="#192D48"/>
<rect x="155" y="62" width="30" height="30" stroke="#192D48"/>
<rect x="155" y="92" width="30" height="30" stroke="#192D48"/>
<rect x="155" y="122" width="30" height="30" stroke="#192D48"/>
<rect x="155" y="152" width="30" height="30" stroke="#192D48"/>
<rect x="185" y="32" width="30" height="30" stroke="#192D48"/>
<rect x="185" y="62" width="30" height="30" stroke="#192D48"/>
<rect x="185" y="92" width="30" height="30" stroke="#192D48"/>
<rect x="185" y="122" width="30" height="30" stroke="#192D48"/>
<rect x="185" y="152" width="30" height="30" stroke="#192D48"/>
<rect x="215" y="32" width="30" height="30" stroke="#192D48"/>
<rect x="215" y="62" width="30" height="30" stroke="#192D48"/>
<rect x="215" y="92" width="30" height="30" stroke="#192D48"/>
<rect x="215" y="122" width="30" height="30" stroke="#192D48"/>
<rect x="215" y="152" width="30" height="30" stroke="#192D48"/>
<rect x="0.5" y="0.5" width="299" height="209" stroke="#345B74"/>
<path d="M109.48 25.256C108.472 25.904 107.056 26.408 105.304 26.408C101.968 26.408 100.384 24.584 100.384 21.656V15.872H97.7201V13.256H100.384V10.496L104.176 10.04V13.256H108.28L107.896 15.872H104.176V21.656C104.176 22.928 104.728 23.408 106 23.408C106.888 23.408 107.632 23.168 108.232 22.832L109.48 25.256ZM117.895 6.584C119.215 6.584 120.127 7.52 120.127 8.72C120.127 9.944 119.215 10.856 117.895 10.856C116.575 10.856 115.639 9.944 115.639 8.72C115.639 7.52 116.575 6.584 117.895 6.584ZM120.175 13.256V23.408H123.439V26H112.783V23.408H116.383V15.848H112.903V13.256H120.175ZM138.261 25.256C137.253 25.904 135.837 26.408 134.085 26.408C130.749 26.408 129.165 24.584 129.165 21.656V15.872H126.501V13.256H129.165V10.496L132.957 10.04V13.256H137.061L136.677 15.872H132.957V21.656C132.957 22.928 133.509 23.408 134.781 23.408C135.669 23.408 136.413 23.168 137.013 22.832L138.261 25.256ZM147.828 8.192V21.992C147.828 23.024 148.452 23.408 149.46 23.408C150.132 23.408 150.756 23.24 151.284 23.024L152.172 25.568C151.332 26.024 150.132 26.408 148.5 26.408C145.428 26.408 144.036 24.512 144.036 21.512V10.784H140.292V8.192H147.828ZM158.859 20.744C159.123 22.832 160.299 23.648 161.931 23.648C163.083 23.648 164.187 23.24 165.195 22.592L166.707 24.656C165.507 25.688 163.779 26.408 161.619 26.408C157.251 26.408 154.995 23.6 154.995 19.64C154.995 15.872 157.203 12.824 161.211 12.824C164.859 12.824 167.187 15.272 167.187 19.376C167.187 19.808 167.163 20.36 167.115 20.744H158.859ZM161.211 15.368C159.867 15.368 158.979 16.328 158.811 18.44H163.491C163.467 16.592 162.819 15.368 161.211 15.368ZM175.073 23.696C176.345 23.696 177.185 23.312 177.185 22.496C177.185 21.68 176.705 21.368 174.161 20.672C171.833 20.048 170.225 19.04 170.225 16.784C170.225 14.504 172.169 12.824 175.745 12.824C178.025 12.824 179.657 13.472 180.905 14.384L179.393 16.616C178.337 15.968 177.089 15.536 175.865 15.536C174.617 15.536 174.041 15.848 174.041 16.52C174.041 17.168 174.545 17.456 177.041 18.152C179.513 18.848 181.121 19.688 181.121 22.184C181.121 24.992 178.337 26.408 175.097 26.408C172.625 26.408 170.729 25.64 169.433 24.488L171.329 22.352C172.313 23.12 173.585 23.696 175.073 23.696Z" fill="white"/>
<path d="M80.5726 203H79.0366L82.1406 198.552L79.4046 194.568H81.0046L82.9566 197.704L84.9246 194.568H86.4766L83.7406 198.488L86.8446 203H85.2126L82.8926 199.384L80.5726 203ZM89.7344 198.568V197.416H95.3344V198.568H89.7344ZM104.976 201.16C104.976 201.832 105.184 202.088 105.664 202.232L105.328 203.192C104.608 203.096 104.016 202.76 103.792 201.992C103.184 202.776 102.24 203.176 101.152 203.176C99.4561 203.176 98.4321 202.152 98.4321 200.584C98.4321 198.856 99.8241 197.88 102.368 197.88H103.616V197.192C103.616 195.96 102.864 195.512 101.616 195.512C101.056 195.512 100.288 195.64 99.4241 195.944L99.0561 194.92C100.096 194.552 100.992 194.392 101.824 194.392C103.92 194.392 104.976 195.448 104.976 197.112V201.16ZM101.488 202.168C102.32 202.168 103.12 201.72 103.616 200.968V198.808H102.4C100.544 198.808 99.8721 199.48 99.8721 200.568C99.8721 201.624 100.384 202.168 101.488 202.168ZM109.354 203H107.818L110.922 198.552L108.186 194.568H109.786L111.738 197.704L113.706 194.568H115.258L112.522 198.488L115.626 203H113.994L111.674 199.384L109.354 203ZM121.316 190.632C121.908 190.632 122.308 191.032 122.308 191.576C122.308 192.12 121.908 192.52 121.316 192.52C120.74 192.52 120.356 192.12 120.356 191.576C120.356 191.032 120.74 190.632 121.316 190.632ZM122.388 194.568V201.928H124.756V203H118.452V201.928H121.044V195.64H118.532V194.568H122.388ZM130.589 202.072C131.885 202.072 132.669 201.544 132.669 200.728C132.669 199.976 132.429 199.576 130.637 199.128C128.893 198.696 127.757 198.168 127.757 196.696C127.757 195.288 129.053 194.392 130.957 194.392C132.317 194.392 133.309 194.808 134.029 195.32L133.421 196.248C132.797 195.816 132.077 195.48 130.989 195.48C129.645 195.48 129.165 195.944 129.165 196.584C129.165 197.352 129.693 197.608 131.389 198.072C133.037 198.52 134.125 199.096 134.125 200.664C134.125 202.472 132.381 203.176 130.589 203.176C129.053 203.176 128.013 202.664 127.293 202.04L128.045 201.16C128.701 201.704 129.597 202.072 130.589 202.072ZM150.193 191.176V200.92C150.193 201.752 150.769 202.056 151.585 202.056C152.081 202.056 152.529 201.944 152.993 201.768L153.345 202.744C152.897 202.984 152.209 203.176 151.345 203.176C149.857 203.176 148.849 202.312 148.849 200.856V192.248H146.257V191.176H150.193ZM162.539 201.16C162.539 201.832 162.747 202.088 163.227 202.232L162.891 203.192C162.171 203.096 161.579 202.76 161.355 201.992C160.747 202.776 159.803 203.176 158.715 203.176C157.019 203.176 155.995 202.152 155.995 200.584C155.995 198.856 157.387 197.88 159.931 197.88H161.179V197.192C161.179 195.96 160.427 195.512 159.179 195.512C158.619 195.512 157.851 195.64 156.987 195.944L156.619 194.92C157.659 194.552 158.555 194.392 159.387 194.392C161.483 194.392 162.539 195.448 162.539 197.112V201.16ZM159.051 202.168C159.883 202.168 160.683 201.72 161.179 200.968V198.808H159.963C158.107 198.808 157.435 199.48 157.435 200.568C157.435 201.624 157.947 202.168 159.051 202.168ZM167.428 195.672C168.052 194.856 168.868 194.392 169.844 194.392C172.084 194.392 172.996 196.136 172.996 198.776C172.996 201.336 171.828 203.176 169.652 203.176C168.692 203.176 167.94 202.856 167.364 202.12L167.268 203H166.084V191.176L167.428 191.016V195.672ZM169.348 202.088C170.74 202.088 171.54 201.016 171.54 198.776C171.54 196.584 170.852 195.48 169.54 195.48C168.612 195.48 167.892 196.152 167.428 196.824V201C167.876 201.688 168.564 202.088 169.348 202.088ZM176.75 199.256C176.814 201.208 177.902 202.056 179.198 202.056C180.062 202.056 180.702 201.8 181.454 201.304L182.078 202.2C181.294 202.808 180.238 203.176 179.198 203.176C176.734 203.176 175.342 201.416 175.342 198.792C175.342 196.248 176.766 194.392 179.006 194.392C181.134 194.392 182.446 195.976 182.446 198.536C182.446 198.824 182.43 199.08 182.414 199.256H176.75ZM179.022 195.496C177.774 195.496 176.862 196.376 176.75 198.232H181.134C181.102 196.424 180.302 195.496 179.022 195.496ZM188.568 191.176V200.92C188.568 201.752 189.144 202.056 189.96 202.056C190.456 202.056 190.904 201.944 191.368 201.768L191.72 202.744C191.272 202.984 190.584 203.176 189.72 203.176C188.232 203.176 187.224 202.312 187.224 200.856V192.248H184.632V191.176H188.568ZM197.746 202.072C199.042 202.072 199.826 201.544 199.826 200.728C199.826 199.976 199.586 199.576 197.794 199.128C196.05 198.696 194.914 198.168 194.914 196.696C194.914 195.288 196.21 194.392 198.114 194.392C199.474 194.392 200.466 194.808 201.186 195.32L200.578 196.248C199.954 195.816 199.234 195.48 198.146 195.48C196.802 195.48 196.322 195.944 196.322 196.584C196.322 197.352 196.85 197.608 198.546 198.072C200.194 198.52 201.282 199.096 201.282 200.664C201.282 202.472 199.538 203.176 197.746 203.176C196.21 203.176 195.17 202.664 194.45 202.04L195.202 201.16C195.858 201.704 196.754 202.072 197.746 202.072Z" fill="white"/>
<path d="M16.568 160.251L25.048 163.195C26.776 163.787 28.152 164.731 28.392 166.971L27.32 167.163C27.016 165.435 26.296 164.923 25 164.491L25 164.939L16.568 167.867L16.568 166.443L23.976 164.027L16.568 161.643L16.568 160.251ZM20.568 157.266L19.416 157.266L19.416 151.666L20.568 151.666L20.568 157.266ZM23.16 142.024C23.832 142.024 24.088 141.816 24.232 141.336L25.192 141.672C25.096 142.392 24.76 142.984 23.992 143.208C24.776 143.816 25.176 144.76 25.176 145.848C25.176 147.544 24.152 148.568 22.584 148.568C20.856 148.568 19.88 147.176 19.88 144.632L19.88 143.384L19.192 143.384C17.96 143.384 17.512 144.136 17.512 145.384C17.512 145.944 17.64 146.712 17.944 147.576L16.92 147.944C16.552 146.904 16.392 146.008 16.392 145.176C16.392 143.08 17.448 142.024 19.112 142.024L23.16 142.024ZM24.168 145.512C24.168 144.68 23.72 143.88 22.968 143.384L20.808 143.384L20.808 144.6C20.808 146.456 21.48 147.128 22.568 147.128C23.624 147.128 24.168 146.616 24.168 145.512ZM25 137.646L25 139.182L20.552 136.078L16.568 138.814L16.568 137.214L19.704 135.262L16.568 133.294L16.568 131.742L20.488 134.478L25 131.374L25 133.006L21.384 135.326L25 137.646ZM12.632 125.684C12.632 125.092 13.032 124.692 13.576 124.692C14.12 124.692 14.52 125.092 14.52 125.684C14.52 126.26 14.12 126.644 13.576 126.644C13.032 126.644 12.632 126.26 12.632 125.684ZM16.568 124.612L23.928 124.612L23.928 122.244L25 122.244L25 128.548L23.928 128.548L23.928 125.956L17.64 125.956L17.64 128.468L16.568 128.468L16.568 124.612ZM24.072 116.411C24.072 115.115 23.544 114.331 22.728 114.331C21.976 114.331 21.576 114.571 21.128 116.363C20.696 118.107 20.168 119.243 18.696 119.243C17.288 119.243 16.392 117.947 16.392 116.043C16.392 114.683 16.808 113.691 17.32 112.971L18.248 113.579C17.816 114.203 17.48 114.923 17.48 116.011C17.48 117.355 17.944 117.835 18.584 117.835C19.352 117.835 19.608 117.307 20.072 115.611C20.52 113.963 21.096 112.875 22.664 112.875C24.472 112.875 25.176 114.619 25.176 116.411C25.176 117.947 24.664 118.987 24.04 119.707L23.16 118.955C23.704 118.299 24.072 117.403 24.072 116.411ZM13.176 96.8071L22.92 96.8071C23.752 96.8071 24.056 96.2311 24.056 95.4151C24.056 94.9191 23.944 94.4711 23.768 94.0071L24.744 93.6551C24.984 94.1031 25.176 94.7911 25.176 95.6551C25.176 97.1431 24.312 98.1511 22.856 98.1511L14.248 98.1511L14.248 100.743L13.176 100.743L13.176 96.8071ZM23.16 84.4614C23.832 84.4614 24.088 84.2534 24.232 83.7734L25.192 84.1094C25.096 84.8294 24.76 85.4214 23.992 85.6454C24.776 86.2534 25.176 87.1974 25.176 88.2854C25.176 89.9814 24.152 91.0054 22.584 91.0054C20.856 91.0054 19.88 89.6134 19.88 87.0694L19.88 85.8214L19.192 85.8214C17.96 85.8214 17.512 86.5734 17.512 87.8214C17.512 88.3814 17.64 89.1494 17.944 90.0134L16.92 90.3814C16.552 89.3414 16.392 88.4454 16.392 87.6134C16.392 85.5174 17.448 84.4614 19.112 84.4614L23.16 84.4614ZM24.168 87.9494C24.168 87.1174 23.72 86.3174 22.968 85.8214L20.808 85.8214L20.808 87.0374C20.808 88.8934 21.48 89.5654 22.568 89.5654C23.624 89.5654 24.168 89.0534 24.168 87.9494ZM17.672 79.5716C16.856 78.9476 16.392 78.1316 16.392 77.1556C16.392 74.9156 18.136 74.0036 20.776 74.0036C23.336 74.0036 25.176 75.1716 25.176 77.3476C25.176 78.3076 24.856 79.0596 24.12 79.6356L25 79.7316L25 80.9156L13.176 80.9156L13.016 79.5716L17.672 79.5716ZM24.088 77.6516C24.088 76.2596 23.016 75.4596 20.776 75.4596C18.584 75.4596 17.48 76.1476 17.48 77.4596C17.48 78.3876 18.152 79.1076 18.824 79.5716L23 79.5716C23.688 79.1236 24.088 78.4356 24.088 77.6516ZM21.256 70.2499C23.208 70.1859 24.056 69.0979 24.056 67.8019C24.056 66.9379 23.8 66.2979 23.304 65.5459L24.2 64.9219C24.808 65.7059 25.176 66.7619 25.176 67.8019C25.176 70.2659 23.416 71.6579 20.792 71.6579C18.248 71.6579 16.392 70.2339 16.392 67.9939C16.392 65.8659 17.976 64.5539 20.536 64.5539C20.824 64.5539 21.08 64.5699 21.256 64.5859L21.256 70.2499ZM17.496 67.9779C17.496 69.2259 18.376 70.1379 20.232 70.2499L20.232 65.8659C18.424 65.8979 17.496 66.6979 17.496 67.9779ZM13.176 58.4321L22.92 58.4321C23.752 58.4321 24.056 57.8561 24.056 57.0401C24.056 56.5441 23.944 56.0961 23.768 55.6321L24.744 55.2801C24.984 55.7281 25.176 56.4161 25.176 57.2801C25.176 58.7681 24.312 59.7761 22.856 59.7761L14.248 59.7761L14.248 62.3681L13.176 62.3681L13.176 58.4321ZM24.072 49.2544C24.072 47.9584 23.544 47.1744 22.728 47.1744C21.976 47.1744 21.576 47.4144 21.128 49.2064C20.696 50.9504 20.168 52.0864 18.696 52.0864C17.288 52.0864 16.392 50.7904 16.392 48.8864C16.392 47.5264 16.808 46.5344 17.32 45.8144L18.248 46.4224C17.816 47.0464 17.48 47.7664 17.48 48.8544C17.48 50.1984 17.944 50.6784 18.584 50.6784C19.352 50.6784 19.608 50.1504 20.072 48.4544C20.52 46.8064 21.096 45.7184 22.664 45.7184C24.472 45.7184 25.176 47.4624 25.176 49.2544C25.176 50.7904 24.664 51.8304 24.04 52.5504L23.16 51.7984C23.704 51.1424 24.072 50.2464 24.072 49.2544Z" fill="white"/>
<rect x="255" y="32" width="35" height="4" fill="#A1CF6F"/>
<rect x="255" y="46" width="35" height="4" fill="#65C6DA"/>
<rect x="255" y="60" width="35" height="4" fill="#FCD65B"/>
</svg>
