<svg width="302" height="212" viewBox="0 0 302 212" fill="none" xmlns="http://www.w3.org/2000/svg">
<rect x="1" y="1" width="30" height="30" stroke="#3B687F"/>
<rect x="1" y="31" width="30" height="30" stroke="#3B687F"/>
<rect x="1" y="61" width="30" height="30" stroke="#3B687F"/>
<rect x="1" y="91" width="30" height="30" stroke="#3B687F"/>
<rect x="1" y="121" width="30" height="30" stroke="#3B687F"/>
<rect x="1" y="151" width="30" height="30" stroke="#3B687F"/>
<rect x="1" y="181" width="30" height="30" stroke="#3B687F"/>
<rect x="31" y="1" width="30" height="30" stroke="#3B687F"/>
<rect x="31" y="31" width="30" height="30" stroke="#3B687F"/>
<rect x="31" y="61" width="30" height="30" stroke="#3B687F"/>
<rect x="31" y="91" width="30" height="30" stroke="#3B687F"/>
<rect x="31" y="121" width="30" height="30" stroke="#3B687F"/>
<rect x="31" y="151" width="30" height="30" stroke="#3B687F"/>
<rect x="31" y="181" width="30" height="30" stroke="#3B687F"/>
<rect x="61" y="1" width="30" height="30" stroke="#3B687F"/>
<rect x="61" y="31" width="30" height="30" stroke="#3B687F"/>
<rect x="61" y="61" width="30" height="30" stroke="#3B687F"/>
<rect x="61" y="91" width="30" height="30" stroke="#3B687F"/>
<rect x="61" y="121" width="30" height="30" stroke="#3B687F"/>
<rect x="61" y="151" width="30" height="30" stroke="#3B687F"/>
<rect x="61" y="181" width="30" height="30" stroke="#3B687F"/>
<rect x="91" y="1" width="30" height="30" stroke="#3B687F"/>
<rect x="91" y="31" width="30" height="30" stroke="#3B687F"/>
<rect x="91" y="61" width="30" height="30" stroke="#3B687F"/>
<rect x="91" y="91" width="30" height="30" stroke="#3B687F"/>
<rect x="91" y="121" width="30" height="30" stroke="#3B687F"/>
<rect x="91" y="151" width="30" height="30" stroke="#3B687F"/>
<rect x="91" y="181" width="30" height="30" stroke="#3B687F"/>
<rect x="121" y="1" width="30" height="30" stroke="#3B687F"/>
<rect x="121" y="31" width="30" height="30" stroke="#3B687F"/>
<rect x="121" y="61" width="30" height="30" stroke="#3B687F"/>
<rect x="121" y="91" width="30" height="30" stroke="#3B687F"/>
<rect x="121" y="121" width="30" height="30" stroke="#3B687F"/>
<rect x="121" y="151" width="30" height="30" stroke="#3B687F"/>
<rect x="121" y="181" width="30" height="30" stroke="#3B687F"/>
<rect x="151" y="1" width="30" height="30" stroke="#3B687F"/>
<rect x="151" y="31" width="30" height="30" stroke="#3B687F"/>
<rect x="151" y="61" width="30" height="30" stroke="#3B687F"/>
<rect x="151" y="91" width="30" height="30" stroke="#3B687F"/>
<rect x="151" y="121" width="30" height="30" stroke="#3B687F"/>
<rect x="151" y="151" width="30" height="30" stroke="#3B687F"/>
<rect x="151" y="181" width="30" height="30" stroke="#3B687F"/>
<rect x="181" y="1" width="30" height="30" stroke="#3B687F"/>
<rect x="181" y="31" width="30" height="30" stroke="#3B687F"/>
<rect x="181" y="61" width="30" height="30" stroke="#3B687F"/>
<rect x="181" y="91" width="30" height="30" stroke="#3B687F"/>
<rect x="181" y="121" width="30" height="30" stroke="#3B687F"/>
<rect x="181" y="151" width="30" height="30" stroke="#3B687F"/>
<rect x="181" y="181" width="30" height="30" stroke="#3B687F"/>
<rect x="211" y="1" width="30" height="30" stroke="#3B687F"/>
<rect x="211" y="31" width="30" height="30" stroke="#3B687F"/>
<rect x="211" y="61" width="30" height="30" stroke="#3B687F"/>
<rect x="211" y="91" width="30" height="30" stroke="#3B687F"/>
<rect x="211" y="121" width="30" height="30" stroke="#3B687F"/>
<rect x="211" y="151" width="30" height="30" stroke="#3B687F"/>
<rect x="211" y="181" width="30" height="30" stroke="#3B687F"/>
<rect x="241" y="1" width="30" height="30" stroke="#3B687F"/>
<rect x="241" y="31" width="30" height="30" stroke="#3B687F"/>
<rect x="241" y="61" width="30" height="30" stroke="#3B687F"/>
<rect x="241" y="91" width="30" height="30" stroke="#3B687F"/>
<rect x="241" y="121" width="30" height="30" stroke="#3B687F"/>
<rect x="241" y="151" width="30" height="30" stroke="#3B687F"/>
<rect x="241" y="181" width="30" height="30" stroke="#3B687F"/>
<rect x="271" y="1" width="30" height="30" stroke="#3B687F"/>
<rect x="271" y="31" width="30" height="30" stroke="#3B687F"/>
<rect x="271" y="61" width="30" height="30" stroke="#3B687F"/>
<rect x="271" y="91" width="30" height="30" stroke="#3B687F"/>
<rect x="271" y="121" width="30" height="30" stroke="#3B687F"/>
<rect x="271" y="151" width="30" height="30" stroke="#3B687F"/>
<rect x="271" y="181" width="30" height="30" stroke="#3B687F"/>
<rect width="92" height="79" transform="matrix(1 -8.74228e-08 -8.74228e-08 -1 43 184)" fill="#65C6DA"/>
<rect width="39" height="71" transform="matrix(1 -8.74228e-08 -8.74228e-08 -1 92 180)" fill="#93D7E5"/>
<rect width="214" height="72" transform="matrix(1 -8.74228e-08 -8.74228e-08 -1 43 101)" fill="#A1CF6F"/>
<rect width="52" height="79" transform="matrix(1 -8.74228e-08 -8.74228e-08 -1 139 184)" fill="#FCD65B"/>
<rect width="44" height="44" transform="matrix(1 -8.74228e-08 -8.74228e-08 -1 143 180)" fill="#FDE28C"/>
<rect width="44" height="23" transform="matrix(1 -8.74228e-08 -8.74228e-08 -1 143 132)" fill="#FDE28C"/>
<rect width="62" height="46" transform="matrix(1 -8.74228e-08 -8.74228e-08 -1 195 151)" fill="white"/>
<rect width="30" height="29" transform="matrix(1 -8.74228e-08 -8.74228e-08 -1 195 184)" fill="#F05D84"/>
<rect width="28" height="29" transform="matrix(1 -8.74228e-08 -8.74228e-08 -1 229 184)" fill="#65C6DA"/>
</svg>
