<svg width="302" height="212" viewBox="0 0 302 212" fill="none" xmlns="http://www.w3.org/2000/svg">
<rect x="18" y="170" width="24" height="25" fill="#65C6DA"/>
<rect x="46" y="150" width="24" height="45" fill="#65C6DA"/>
<rect x="74" y="120" width="24" height="75" fill="#65C6DA"/>
<rect x="102" y="80" width="24" height="115" fill="#65C6DA"/>
<rect x="130" y="50" width="24" height="145" fill="#65C6DA"/>
<rect x="158" y="65" width="24" height="130" fill="#65C6DA"/>
<rect x="186" y="100" width="24" height="95" fill="#65C6DA"/>
<rect x="214" y="130" width="24" height="65" fill="#65C6DA"/>
<rect x="242" y="155" width="24" height="40" fill="#65C6DA"/>
<rect x="270" y="175" width="24" height="20" fill="#65C6DA"/>
<line x1="16" y1="20" x2="16" y2="40" stroke="#3B687F" stroke-width="2" stroke-dasharray="3 3"/>
<line x1="44" y1="20" x2="44" y2="40" stroke="#3B687F" stroke-width="2" stroke-dasharray="3 3"/>
<line x1="72" y1="20" x2="72" y2="40" stroke="#3B687F" stroke-width="2" stroke-dasharray="3 3"/>
<line x1="100" y1="20" x2="100" y2="40" stroke="#3B687F" stroke-width="2" stroke-dasharray="3 3"/>
<line x1="128" y1="20" x2="128" y2="40" stroke="#3B687F" stroke-width="2" stroke-dasharray="3 3"/>
<line x1="156" y1="20" x2="156" y2="40" stroke="#3B687F" stroke-width="2" stroke-dasharray="3 3"/>
<line x1="184" y1="20" x2="184" y2="40" stroke="#3B687F" stroke-width="2" stroke-dasharray="3 3"/>
<line x1="212" y1="20" x2="212" y2="40" stroke="#3B687F" stroke-width="2" stroke-dasharray="3 3"/>
<line x1="240" y1="20" x2="240" y2="40" stroke="#3B687F" stroke-width="2" stroke-dasharray="3 3"/>
<line x1="268" y1="20" x2="268" y2="40" stroke="#3B687F" stroke-width="2" stroke-dasharray="3 3"/>
<line x1="296" y1="20" x2="296" y2="40" stroke="#3B687F" stroke-width="2" stroke-dasharray="3 3"/>
</svg>
