<svg width="302" height="212" viewBox="0 0 302 212" fill="none" xmlns="http://www.w3.org/2000/svg">
<rect x="1" y="1" width="30" height="30" stroke="#3B687F"/>
<rect x="1" y="31" width="30" height="30" stroke="#3B687F"/>
<rect x="1" y="61" width="30" height="30" stroke="#3B687F"/>
<rect x="1" y="91" width="30" height="30" stroke="#3B687F"/>
<rect x="1" y="121" width="30" height="30" stroke="#3B687F"/>
<rect x="1" y="151" width="30" height="30" stroke="#3B687F"/>
<rect x="1" y="181" width="30" height="30" stroke="#3B687F"/>
<rect x="1" y="211" width="30" height="30" stroke="#3B687F"/>
<rect x="31" y="1" width="30" height="30" stroke="#3B687F"/>
<rect x="31" y="31" width="30" height="30" stroke="#3B687F"/>
<rect x="31" y="61" width="30" height="30" stroke="#3B687F"/>
<rect x="31" y="91" width="30" height="30" stroke="#3B687F"/>
<rect x="31" y="121" width="30" height="30" stroke="#3B687F"/>
<rect x="31" y="151" width="30" height="30" stroke="#3B687F"/>
<rect x="31" y="181" width="30" height="30" stroke="#3B687F"/>
<rect x="31" y="211" width="30" height="30" stroke="#3B687F"/>
<rect x="61" y="1" width="30" height="30" stroke="#3B687F"/>
<rect x="61" y="31" width="30" height="30" stroke="#3B687F"/>
<rect x="61" y="61" width="30" height="30" stroke="#3B687F"/>
<rect x="61" y="91" width="30" height="30" stroke="#3B687F"/>
<rect x="61" y="121" width="30" height="30" stroke="#3B687F"/>
<rect x="61" y="151" width="30" height="30" stroke="#3B687F"/>
<rect x="61" y="181" width="30" height="30" stroke="#3B687F"/>
<rect x="61" y="211" width="30" height="30" stroke="#3B687F"/>
<rect x="91" y="1" width="30" height="30" stroke="#3B687F"/>
<rect x="91" y="31" width="30" height="30" stroke="#3B687F"/>
<rect x="91" y="61" width="30" height="30" stroke="#3B687F"/>
<rect x="91" y="91" width="30" height="30" stroke="#3B687F"/>
<rect x="91" y="121" width="30" height="30" stroke="#3B687F"/>
<rect x="91" y="151" width="30" height="30" stroke="#3B687F"/>
<rect x="91" y="181" width="30" height="30" stroke="#3B687F"/>
<rect x="91" y="211" width="30" height="30" stroke="#3B687F"/>
<rect x="121" y="1" width="30" height="30" stroke="#3B687F"/>
<rect x="121" y="31" width="30" height="30" stroke="#3B687F"/>
<rect x="121" y="61" width="30" height="30" stroke="#3B687F"/>
<rect x="121" y="91" width="30" height="30" stroke="#3B687F"/>
<rect x="121" y="121" width="30" height="30" stroke="#3B687F"/>
<rect x="121" y="151" width="30" height="30" stroke="#3B687F"/>
<rect x="121" y="181" width="30" height="30" stroke="#3B687F"/>
<rect x="121" y="211" width="30" height="30" stroke="#3B687F"/>
<rect x="151" y="1" width="30" height="30" stroke="#3B687F"/>
<rect x="151" y="31" width="30" height="30" stroke="#3B687F"/>
<rect x="151" y="61" width="30" height="30" stroke="#3B687F"/>
<rect x="151" y="91" width="30" height="30" stroke="#3B687F"/>
<rect x="151" y="121" width="30" height="30" stroke="#3B687F"/>
<rect x="151" y="151" width="30" height="30" stroke="#3B687F"/>
<rect x="151" y="181" width="30" height="30" stroke="#3B687F"/>
<rect x="151" y="211" width="30" height="30" stroke="#3B687F"/>
<rect x="181" y="1" width="30" height="30" stroke="#3B687F"/>
<rect x="181" y="31" width="30" height="30" stroke="#3B687F"/>
<rect x="181" y="61" width="30" height="30" stroke="#3B687F"/>
<rect x="181" y="91" width="30" height="30" stroke="#3B687F"/>
<rect x="181" y="121" width="30" height="30" stroke="#3B687F"/>
<rect x="181" y="151" width="30" height="30" stroke="#3B687F"/>
<rect x="181" y="181" width="30" height="30" stroke="#3B687F"/>
<rect x="181" y="211" width="30" height="30" stroke="#3B687F"/>
<rect x="211" y="1" width="30" height="30" stroke="#3B687F"/>
<rect x="211" y="31" width="30" height="30" stroke="#3B687F"/>
<rect x="211" y="61" width="30" height="30" stroke="#3B687F"/>
<rect x="211" y="91" width="30" height="30" stroke="#3B687F"/>
<rect x="211" y="121" width="30" height="30" stroke="#3B687F"/>
<rect x="211" y="151" width="30" height="30" stroke="#3B687F"/>
<rect x="211" y="181" width="30" height="30" stroke="#3B687F"/>
<rect x="211" y="211" width="30" height="30" stroke="#3B687F"/>
<rect x="241" y="1" width="30" height="30" stroke="#3B687F"/>
<rect x="241" y="31" width="30" height="30" stroke="#3B687F"/>
<rect x="241" y="61" width="30" height="30" stroke="#3B687F"/>
<rect x="241" y="91" width="30" height="30" stroke="#3B687F"/>
<rect x="241" y="121" width="30" height="30" stroke="#3B687F"/>
<rect x="241" y="151" width="30" height="30" stroke="#3B687F"/>
<rect x="241" y="181" width="30" height="30" stroke="#3B687F"/>
<rect x="241" y="211" width="30" height="30" stroke="#3B687F"/>
<rect x="271" y="1" width="30" height="30" stroke="#3B687F"/>
<rect x="271" y="31" width="30" height="30" stroke="#3B687F"/>
<rect x="271" y="61" width="30" height="30" stroke="#3B687F"/>
<rect x="271" y="91" width="30" height="30" stroke="#3B687F"/>
<rect x="271" y="121" width="30" height="30" stroke="#3B687F"/>
<rect x="271" y="151" width="30" height="30" stroke="#3B687F"/>
<rect x="271" y="181" width="30" height="30" stroke="#3B687F"/>
<rect x="271" y="211" width="30" height="30" stroke="#3B687F"/>
<rect x="301" y="1" width="30" height="30" stroke="#3B687F"/>
<rect x="301" y="31" width="30" height="30" stroke="#3B687F"/>
<rect x="301" y="61" width="30" height="30" stroke="#3B687F"/>
<rect x="301" y="91" width="30" height="30" stroke="#3B687F"/>
<rect x="301" y="121" width="30" height="30" stroke="#3B687F"/>
<rect x="301" y="151" width="30" height="30" stroke="#3B687F"/>
<rect x="301" y="181" width="30" height="30" stroke="#3B687F"/>
<rect x="301" y="211" width="30" height="30" stroke="#3B687F"/>
<line x1="40" y1="80" x2="40" y2="175" stroke="#A1CF6F" stroke-width="2"/>
<rect x="34" y="95" width="12" height="65" fill="#A1CF6F"/>
<line x1="75" y1="60" x2="75" y2="150" stroke="#F05D84" stroke-width="2"/>
<rect x="69" y="80" width="12" height="50" fill="#F05D84"/>
<line x1="110" y1="55" x2="110" y2="140" stroke="#A1CF6F" stroke-width="2"/>
<rect x="104" y="70" width="12" height="50" fill="#A1CF6F"/>
<line x1="145" y1="40" x2="145" y2="130" stroke="#A1CF6F" stroke-width="2"/>
<rect x="139" y="55" width="12" height="55" fill="#A1CF6F"/>
<line x1="180" y1="50" x2="180" y2="125" stroke="#F05D84" stroke-width="2"/>
<rect x="174" y="70" width="12" height="45" fill="#F05D84"/>
<line x1="215" y1="30" x2="215" y2="110" stroke="#A1CF6F" stroke-width="2"/>
<rect x="209" y="45" width="12" height="50" fill="#A1CF6F"/>
<line x1="250" y1="45" x2="250" y2="95" stroke="#F05D84" stroke-width="2"/>
<rect x="244" y="55" width="12" height="30" fill="#F05D84"/>
<line x1="285" y1="25" x2="285" y2="90" stroke="#A1CF6F" stroke-width="2"/>
<rect x="279" y="40" width="12" height="35" fill="#A1CF6F"/>
</svg>
