<svg width="302" height="212" viewBox="0 0 302 212" fill="none" xmlns="http://www.w3.org/2000/svg">
<circle cx="15.0" cy="120.9" r="2" fill="#3B687F"/>
<circle cx="19.6" cy="139.5" r="2" fill="#3B687F"/>
<circle cx="24.2" cy="133.8" r="2" fill="#3B687F"/>
<circle cx="28.8" cy="144.5" r="2" fill="#3B687F"/>
<circle cx="33.4" cy="165.2" r="2" fill="#3B687F"/>
<circle cx="38.1" cy="157.6" r="2" fill="#3B687F"/>
<circle cx="42.7" cy="143.6" r="2" fill="#3B687F"/>
<circle cx="47.3" cy="117.2" r="2" fill="#3B687F"/>
<circle cx="51.9" cy="104.0" r="2" fill="#3B687F"/>
<circle cx="56.5" cy="84.1" r="2" fill="#3B687F"/>
<circle cx="61.1" cy="67.1" r="2" fill="#3B687F"/>
<circle cx="65.7" cy="46.5" r="2" fill="#3B687F"/>
<circle cx="70.3" cy="50.1" r="2" fill="#3B687F"/>
<circle cx="74.9" cy="54.2" r="2" fill="#3B687F"/>
<circle cx="79.5" cy="74.0" r="2" fill="#3B687F"/>
<circle cx="84.2" cy="97.4" r="2" fill="#3B687F"/>
<circle cx="88.8" cy="115.4" r="2" fill="#3B687F"/>
<circle cx="93.4" cy="123.9" r="2" fill="#3B687F"/>
<circle cx="98.0" cy="135.8" r="2" fill="#3B687F"/>
<circle cx="102.6" cy="139.5" r="2" fill="#3B687F"/>
<circle cx="107.2" cy="134.3" r="2" fill="#3B687F"/>
<circle cx="111.8" cy="126.7" r="2" fill="#3B687F"/>
<circle cx="116.4" cy="123.0" r="2" fill="#3B687F"/>
<circle cx="121.0" cy="100.7" r="2" fill="#3B687F"/>
<circle cx="125.6" cy="81.6" r="2" fill="#3B687F"/>
<circle cx="130.3" cy="74.7" r="2" fill="#3B687F"/>
<circle cx="134.9" cy="51.0" r="2" fill="#3B687F"/>
<circle cx="139.5" cy="43.5" r="2" fill="#3B687F"/>
<circle cx="144.1" cy="35.1" r="2" fill="#3B687F"/>
<circle cx="148.7" cy="37.1" r="2" fill="#3B687F"/>
<circle cx="153.3" cy="58.0" r="2" fill="#3B687F"/>
<circle cx="157.9" cy="71.3" r="2" fill="#3B687F"/>
<circle cx="162.5" cy="99.4" r="2" fill="#3B687F"/>
<circle cx="167.1" cy="128.5" r="2" fill="#3B687F"/>
<circle cx="171.7" cy="133.3" r="2" fill="#3B687F"/>
<circle cx="176.4" cy="127.4" r="2" fill="#3B687F"/>
<circle cx="181.0" cy="142.5" r="2" fill="#3B687F"/>
<circle cx="185.6" cy="130.6" r="2" fill="#3B687F"/>
<circle cx="190.2" cy="113.3" r="2" fill="#3B687F"/>
<circle cx="194.8" cy="97.8" r="2" fill="#3B687F"/>
<circle cx="199.4" cy="73.9" r="2" fill="#3B687F"/>
<circle cx="204.0" cy="56.3" r="2" fill="#3B687F"/>
<circle cx="208.6" cy="32.7" r="2" fill="#3B687F"/>
<circle cx="213.2" cy="41.6" r="2" fill="#3B687F"/>
<circle cx="217.8" cy="42.8" r="2" fill="#3B687F"/>
<circle cx="222.5" cy="32.8" r="2" fill="#3B687F"/>
<circle cx="227.1" cy="62.2" r="2" fill="#3B687F"/>
<circle cx="231.7" cy="79.8" r="2" fill="#3B687F"/>
<circle cx="236.3" cy="92.6" r="2" fill="#3B687F"/>
<circle cx="240.9" cy="110.5" r="2" fill="#3B687F"/>
<circle cx="245.5" cy="120.4" r="2" fill="#3B687F"/>
<circle cx="250.1" cy="134.5" r="2" fill="#3B687F"/>
<circle cx="254.7" cy="120.1" r="2" fill="#3B687F"/>
<circle cx="259.3" cy="116.4" r="2" fill="#3B687F"/>
<circle cx="263.9" cy="87.8" r="2" fill="#3B687F"/>
<circle cx="268.6" cy="80.2" r="2" fill="#3B687F"/>
<circle cx="273.2" cy="60.5" r="2" fill="#3B687F"/>
<circle cx="277.8" cy="33.0" r="2" fill="#3B687F"/>
<circle cx="282.4" cy="24.3" r="2" fill="#3B687F"/>
<circle cx="287.0" cy="28.8" r="2" fill="#3B687F"/>
<path d="M15.0 120.9 L42.7 143.6 L70.3 50.1 L98.0 135.8 L125.6 81.6 L153.3 58.0 L181.0 142.5 L208.6 32.7 L236.3 92.6 L263.9 87.8" stroke="#65C6DA" stroke-width="3" fill="none" stroke-linejoin="round"/>
</svg>
