<svg width="302" height="212" viewBox="0 0 302 212" fill="none" xmlns="http://www.w3.org/2000/svg">
<line x1="40" y1="20" x2="40" y2="190" stroke="#3B687F" stroke-width="2"/>
<line x1="262" y1="20" x2="262" y2="190" stroke="#3B687F" stroke-width="2"/>
<line x1="40" y1="190" x2="262" y2="190" stroke="#3B687F" stroke-width="2"/>
<line x1="34" y1="40" x2="40" y2="40" stroke="#3B687F" stroke-width="2"/>
<line x1="34" y1="80" x2="40" y2="80" stroke="#3B687F" stroke-width="2"/>
<line x1="34" y1="120" x2="40" y2="120" stroke="#3B687F" stroke-width="2"/>
<line x1="34" y1="160" x2="40" y2="160" stroke="#3B687F" stroke-width="2"/>
<line x1="262" y1="40" x2="268" y2="40" stroke="#3B687F" stroke-width="2"/>
<line x1="262" y1="80" x2="268" y2="80" stroke="#3B687F" stroke-width="2"/>
<line x1="262" y1="120" x2="268" y2="120" stroke="#3B687F" stroke-width="2"/>
<line x1="262" y1="160" x2="268" y2="160" stroke="#3B687F" stroke-width="2"/>
<path d="M50 170 L90 140 L130 150 L170 100 L210 120 L250 70" stroke="#65C6DA" stroke-width="3" fill="none" stroke-linejoin="round"/>
<path d="M50 80 L90 100 L130 70 L170 90 L210 50 L250 110" stroke="#65C6DA" stroke-width="3" stroke-dasharray="6 4" fill="none" stroke-linejoin="round"/>
</svg>
