<svg width="302" height="212" viewBox="0 0 302 212" fill="none" xmlns="http://www.w3.org/2000/svg">
<rect x="1" y="1" width="30" height="30" stroke="#3B687F"/>
<rect x="1" y="31" width="30" height="30" stroke="#3B687F"/>
<rect x="1" y="61" width="30" height="30" stroke="#3B687F"/>
<rect x="1" y="91" width="30" height="30" stroke="#3B687F"/>
<rect x="1" y="121" width="30" height="30" stroke="#3B687F"/>
<rect x="1" y="151" width="30" height="30" stroke="#3B687F"/>
<rect x="1" y="181" width="30" height="30" stroke="#3B687F"/>
<rect x="1" y="211" width="30" height="30" stroke="#3B687F"/>
<rect x="31" y="1" width="30" height="30" stroke="#3B687F"/>
<rect x="31" y="31" width="30" height="30" stroke="#3B687F"/>
<rect x="31" y="61" width="30" height="30" stroke="#3B687F"/>
<rect x="31" y="91" width="30" height="30" stroke="#3B687F"/>
<rect x="31" y="121" width="30" height="30" stroke="#3B687F"/>
<rect x="31" y="151" width="30" height="30" stroke="#3B687F"/>
<rect x="31" y="181" width="30" height="30" stroke="#3B687F"/>
<rect x="31" y="211" width="30" height="30" stroke="#3B687F"/>
<rect x="61" y="1" width="30" height="30" stroke="#3B687F"/>
<rect x="61" y="31" width="30" height="30" stroke="#3B687F"/>
<rect x="61" y="61" width="30" height="30" stroke="#3B687F"/>
<rect x="61" y="91" width="30" height="30" stroke="#3B687F"/>
<rect x="61" y="121" width="30" height="30" stroke="#3B687F"/>
<rect x="61" y="151" width="30" height="30" stroke="#3B687F"/>
<rect x="61" y="181" width="30" height="30" stroke="#3B687F"/>
<rect x="61" y="211" width="30" height="30" stroke="#3B687F"/>
<rect x="91" y="1" width="30" height="30" stroke="#3B687F"/>
<rect x="91" y="31" width="30" height="30" stroke="#3B687F"/>
<rect x="91" y="61" width="30" height="30" stroke="#3B687F"/>
<rect x="91" y="91" width="30" height="30" stroke="#3B687F"/>
<rect x="91" y="121" width="30" height="30" stroke="#3B687F"/>
<rect x="91" y="151" width="30" height="30" stroke="#3B687F"/>
<rect x="91" y="181" width="30" height="30" stroke="#3B687F"/>
<rect x="91" y="211" width="30" height="30" stroke="#3B687F"/>
<rect x="121" y="1" width="30" height="30" stroke="#3B687F"/>
<rect x="121" y="31" width="30" height="30" stroke="#3B687F"/>
<rect x="121" y="61" width="30" height="30" stroke="#3B687F"/>
<rect x="121" y="91" width="30" height="30" stroke="#3B687F"/>
<rect x="121" y="121" width="30" height="30" stroke="#3B687F"/>
<rect x="121" y="151" width="30" height="30" stroke="#3B687F"/>
<rect x="121" y="181" width="30" height="30" stroke="#3B687F"/>
<rect x="121" y="211" width="30" height="30" stroke="#3B687F"/>
<rect x="151" y="1" width="30" height="30" stroke="#3B687F"/>
<rect x="151" y="31" width="30" height="30" stroke="#3B687F"/>
<rect x="151" y="61" width="30" height="30" stroke="#3B687F"/>
<rect x="151" y="91" width="30" height="30" stroke="#3B687F"/>
<rect x="151" y="121" width="30" height="30" stroke="#3B687F"/>
<rect x="151" y="151" width="30" height="30" stroke="#3B687F"/>
<rect x="151" y="181" width="30" height="30" stroke="#3B687F"/>
<rect x="151" y="211" width="30" height="30" stroke="#3B687F"/>
<rect x="181" y="1" width="30" height="30" stroke="#3B687F"/>
<rect x="181" y="31" width="30" height="30" stroke="#3B687F"/>
<rect x="181" y="61" width="30" height="30" stroke="#3B687F"/>
<rect x="181" y="91" width="30" height="30" stroke="#3B687F"/>
<rect x="181" y="121" width="30" height="30" stroke="#3B687F"/>
<rect x="181" y="151" width="30" height="30" stroke="#3B687F"/>
<rect x="181" y="181" width="30" height="30" stroke="#3B687F"/>
<rect x="181" y="211" width="30" height="30" stroke="#3B687F"/>
<rect x="211" y="1" width="30" height="30" stroke="#3B687F"/>
<rect x="211" y="31" width="30" height="30" stroke="#3B687F"/>
<rect x="211" y="61" width="30" height="30" stroke="#3B687F"/>
<rect x="211" y="91" width="30" height="30" stroke="#3B687F"/>
<rect x="211" y="121" width="30" height="30" stroke="#3B687F"/>
<rect x="211" y="151" width="30" height="30" stroke="#3B687F"/>
<rect x="211" y="181" width="30" height="30" stroke="#3B687F"/>
<rect x="211" y="211" width="30" height="30" stroke="#3B687F"/>
<rect x="241" y="1" width="30" height="30" stroke="#3B687F"/>
<rect x="241" y="31" width="30" height="30" stroke="#3B687F"/>
<rect x="241" y="61" width="30" height="30" stroke="#3B687F"/>
<rect x="241" y="91" width="30" height="30" stroke="#3B687F"/>
<rect x="241" y="121" width="30" height="30" stroke="#3B687F"/>
<rect x="241" y="151" width="30" height="30" stroke="#3B687F"/>
<rect x="241" y="181" width="30" height="30" stroke="#3B687F"/>
<rect x="241" y="211" width="30" height="30" stroke="#3B687F"/>
<rect x="271" y="1" width="30" height="30" stroke="#3B687F"/>
<rect x="271" y="31" width="30" height="30" stroke="#3B687F"/>
<rect x="271" y="61" width="30" height="30" stroke="#3B687F"/>
<rect x="271" y="91" width="30" height="30" stroke="#3B687F"/>
<rect x="271" y="121" width="30" height="30" stroke="#3B687F"/>
<rect x="271" y="151" width="30" height="30" stroke="#3B687F"/>
<rect x="271" y="181" width="30" height="30" stroke="#3B687F"/>
<rect x="271" y="211" width="30" height="30" stroke="#3B687F"/>
<rect x="301" y="1" width="30" height="30" stroke="#3B687F"/>
<rect x="301" y="31" width="30" height="30" stroke="#3B687F"/>
<rect x="301" y="61" width="30" height="30" stroke="#3B687F"/>
<rect x="301" y="91" width="30" height="30" stroke="#3B687F"/>
<rect x="301" y="121" width="30" height="30" stroke="#3B687F"/>
<rect x="301" y="151" width="30" height="30" stroke="#3B687F"/>
<rect x="301" y="181" width="30" height="30" stroke="#3B687F"/>
<rect x="301" y="211" width="30" height="30" stroke="#3B687F"/>
<path d="M20 175 L60 140 L110 110 L165 85 L220 70 L275 55" stroke="#65C6DA" stroke-width="3" fill="none" stroke-linejoin="round"/>
<circle cx="20" cy="175" r="5" fill="#65C6DA"/>
<circle cx="60" cy="140" r="5" fill="#65C6DA"/>
<circle cx="110" cy="110" r="5" fill="#65C6DA"/>
<circle cx="165" cy="85" r="5" fill="#65C6DA"/>
<circle cx="220" cy="70" r="5" fill="#65C6DA"/>
<circle cx="275" cy="55" r="5" fill="#65C6DA"/>
</svg>
