<svg width="301" height="210" viewBox="0 0 301 210" fill="none" xmlns="http://www.w3.org/2000/svg">
<rect width="300" height="210" transform="translate(0.5)" fill="#121517"/>
<path d="M57.934 56.8372C59.593 56.8372 60.832 57.4252 61.861 58.1393L60.559 59.8193C58.921 58.3492 57.724 57.8663 55.099 57.8663C51.529 57.8663 49.03 55.3042 49.03 50.4532C49.03 45.6862 51.529 42.9352 55.141 42.9352C58.774 42.9352 61.252 45.5602 61.252 50.4322C61.252 53.9812 59.992 55.7662 57.934 56.8372ZM51.151 50.4532C51.151 54.6322 52.789 56.2703 55.141 56.2703C57.577 56.2703 59.131 54.6322 59.131 50.4322C59.131 46.2742 57.619 44.5732 55.141 44.5732C52.726 44.5732 51.151 46.2742 51.151 50.4532ZM72.5805 46.5892V57.6562H70.9215L70.7745 55.9342C69.9345 57.2782 68.9055 57.9083 67.3305 57.9083C65.3985 57.9083 64.2435 56.6902 64.2435 54.5272V46.5892H66.1755V54.3172C66.1755 55.8292 66.6795 56.3962 67.8765 56.3962C69.0735 56.3962 69.9765 55.5982 70.6485 54.4852V46.5892H72.5805ZM84.9292 51.7972C84.9292 52.1752 84.9082 52.5322 84.8872 52.7842H77.8312C78.0202 55.3462 79.2172 56.3332 80.8132 56.3332C81.9052 56.3332 82.7242 56.0392 83.6902 55.3672L84.5302 56.5222C83.4382 57.3832 82.1992 57.9083 80.6662 57.9083C77.5792 57.9083 75.7732 55.7452 75.7732 52.2382C75.7732 48.7942 77.5162 46.3372 80.3722 46.3372C83.3542 46.3372 84.9292 48.4162 84.9292 51.7972ZM83.0182 51.3562V51.2302C83.0182 49.0672 82.1572 47.8702 80.4142 47.8702C78.9442 47.8702 77.9782 48.8992 77.8312 51.3562H83.0182ZM91.1201 46.3372C92.6741 46.3372 93.8291 46.7992 94.8791 47.5972L94.0601 48.8152C93.0731 48.1852 92.2121 47.8702 91.1831 47.8702C89.9231 47.8702 89.1461 48.4372 89.1461 49.3192C89.1461 50.2222 89.7341 50.6422 91.5191 51.1042C93.8501 51.6922 95.1941 52.6162 95.1941 54.5482C95.1941 56.8582 93.0731 57.9083 90.8261 57.9083C88.9571 57.9083 87.6131 57.2992 86.6471 56.4592L87.6761 55.2832C88.5581 55.9552 89.5871 56.3542 90.7841 56.3542C92.2331 56.3542 93.1571 55.7242 93.1571 54.6742C93.1571 53.5822 92.6111 53.1622 90.4691 52.5952C88.0751 51.9652 87.1301 50.9362 87.1301 49.3822C87.1301 47.6182 88.8311 46.3372 91.1201 46.3372ZM102.771 55.8292L103.506 57.1522C102.771 57.6562 101.973 57.9083 101.028 57.9083C99.1588 57.9083 98.0458 56.8162 98.0458 54.7582V48.0802H96.1138V46.5892H98.0458V44.0902L99.9778 43.8592V46.5892H102.603L102.393 48.0802H99.9778V54.6742C99.9778 55.7872 100.335 56.3122 101.301 56.3122C101.784 56.3122 102.225 56.1652 102.771 55.8292ZM106.453 41.2762C107.272 41.2762 107.818 41.8432 107.818 42.5992C107.818 43.3342 107.272 43.9012 106.453 43.9012C105.655 43.9012 105.109 43.3342 105.109 42.5992C105.109 41.8432 105.655 41.2762 106.453 41.2762ZM107.44 46.5892V57.6562H105.508V46.5892H107.44ZM115.592 46.3372C118.742 46.3372 120.506 48.6052 120.506 52.1123C120.506 55.5352 118.7 57.9083 115.571 57.9083C112.421 57.9083 110.636 55.6402 110.636 52.1332C110.636 48.7102 112.442 46.3372 115.592 46.3372ZM115.592 47.8912C113.744 47.8912 112.715 49.2352 112.715 52.1332C112.715 55.0102 113.723 56.3542 115.571 56.3542C117.419 56.3542 118.427 55.0102 118.427 52.1123C118.427 49.2352 117.419 47.8912 115.592 47.8912ZM128.906 46.3372C130.943 46.3372 132.119 47.6182 132.119 49.7182V57.6562H130.187V49.9912C130.187 48.3322 129.515 47.8492 128.444 47.8492C127.205 47.8492 126.365 48.6262 125.63 49.8022V57.6562H123.698V46.5892H125.357L125.525 48.2272C126.281 47.0932 127.457 46.3372 128.906 46.3372ZM146.348 43.6072V57.6562H144.416V45.6652L141.14 47.6602L140.3 46.2952L144.647 43.6072H146.348Z" fill="white"/>
<path d="M57.2778 112.635C58.9368 112.635 60.1758 113.223 61.2048 113.937L59.9028 115.617C58.2648 114.147 57.0678 113.664 54.4428 113.664C50.8728 113.664 48.3738 111.102 48.3738 106.251C48.3738 101.484 50.8728 98.7331 54.4848 98.7331C58.1178 98.7331 60.5958 101.358 60.5958 106.23C60.5958 109.779 59.3358 111.564 57.2778 112.635ZM50.4948 106.251C50.4948 110.43 52.1328 112.068 54.4848 112.068C56.9208 112.068 58.4748 110.43 58.4748 106.23C58.4748 102.072 56.9628 100.371 54.4848 100.371C52.0698 100.371 50.4948 102.072 50.4948 106.251ZM71.9243 102.387V113.454H70.2653L70.1183 111.732C69.2783 113.076 68.2493 113.706 66.6743 113.706C64.7423 113.706 63.5873 112.488 63.5873 110.325V102.387H65.5193V110.115C65.5193 111.627 66.0233 112.194 67.2203 112.194C68.4173 112.194 69.3203 111.396 69.9923 110.283V102.387H71.9243ZM84.2729 107.595C84.2729 107.973 84.2519 108.33 84.2309 108.582H77.1749C77.3639 111.144 78.5609 112.131 80.1569 112.131C81.2489 112.131 82.0679 111.837 83.0339 111.165L83.8739 112.32C82.7819 113.181 81.5429 113.706 80.0099 113.706C76.9229 113.706 75.1169 111.543 75.1169 108.036C75.1169 104.592 76.8599 102.135 79.7159 102.135C82.6979 102.135 84.2729 104.214 84.2729 107.595ZM82.3619 107.154V107.028C82.3619 104.865 81.5009 103.668 79.7579 103.668C78.2879 103.668 77.3219 104.697 77.1749 107.154H82.3619ZM90.4638 102.135C92.0178 102.135 93.1728 102.597 94.2228 103.395L93.4038 104.613C92.4168 103.983 91.5558 103.668 90.5268 103.668C89.2668 103.668 88.4898 104.235 88.4898 105.117C88.4898 106.02 89.0778 106.44 90.8628 106.902C93.1938 107.49 94.5378 108.414 94.5378 110.346C94.5378 112.656 92.4168 113.706 90.1698 113.706C88.3008 113.706 86.9568 113.097 85.9908 112.257L87.0198 111.081C87.9018 111.753 88.9308 112.152 90.1278 112.152C91.5768 112.152 92.5008 111.522 92.5008 110.472C92.5008 109.38 91.9548 108.96 89.8128 108.393C87.4188 107.763 86.4738 106.734 86.4738 105.18C86.4738 103.416 88.1748 102.135 90.4638 102.135ZM102.115 111.627L102.85 112.95C102.115 113.454 101.317 113.706 100.372 113.706C98.5026 113.706 97.3896 112.614 97.3896 110.556V103.878H95.4576V102.387H97.3896V99.8881L99.3216 99.6571V102.387H101.947L101.737 103.878H99.3216V110.472C99.3216 111.585 99.6786 112.11 100.645 112.11C101.128 112.11 101.569 111.963 102.115 111.627ZM105.796 97.0741C106.615 97.0741 107.161 97.6411 107.161 98.3971C107.161 99.1321 106.615 99.6991 105.796 99.6991C104.998 99.6991 104.452 99.1321 104.452 98.3971C104.452 97.6411 104.998 97.0741 105.796 97.0741ZM106.783 102.387V113.454H104.851V102.387H106.783ZM114.936 102.135C118.086 102.135 119.85 104.403 119.85 107.91C119.85 111.333 118.044 113.706 114.915 113.706C111.765 113.706 109.98 111.438 109.98 107.931C109.98 104.508 111.786 102.135 114.936 102.135ZM114.936 103.689C113.088 103.689 112.059 105.033 112.059 107.931C112.059 110.808 113.067 112.152 114.915 112.152C116.763 112.152 117.771 110.808 117.771 107.91C117.771 105.033 116.763 103.689 114.936 103.689ZM128.25 102.135C130.287 102.135 131.463 103.416 131.463 105.516V113.454H129.531V105.789C129.531 104.13 128.859 103.647 127.788 103.647C126.549 103.647 125.709 104.424 124.974 105.6V113.454H123.042V102.387H124.701L124.869 104.025C125.625 102.891 126.801 102.135 128.25 102.135ZM143.697 99.1951C146.28 99.1951 147.918 100.854 147.918 103.038C147.918 105.663 146.238 107.532 141.933 111.837H148.254L148.023 113.454H139.728V111.921C144.684 106.755 145.902 105.411 145.902 103.122C145.902 101.652 144.957 100.791 143.592 100.791C142.416 100.791 141.639 101.253 140.736 102.324L139.434 101.316C140.568 99.9091 141.933 99.1951 143.697 99.1951Z" fill="white"/>
<path d="M26.561 58.1562L34.561 50.1562L26.561 42.1562" stroke="white" stroke-width="2"/>
<path d="M22.561 101.954L30.561 109.954L38.561 101.954" stroke="white" stroke-width="2"/>
<line x1="22.9385" y1="28.9009" x2="278.438" y2="28.9009" stroke="#6A6A6A"/>
<line x1="22.9385" y1="77.5552" x2="278.438" y2="77.5552" stroke="#6A6A6A"/>
<line x1="22.9385" y1="180.099" x2="278.438" y2="180.099" stroke="#6A6A6A"/>
<path d="M33.0961 157.027L32.0041 153.394H26.5231L25.4311 157.027H23.4151L28.0561 142.558H30.5761L35.1961 157.027H33.0961ZM27.0061 151.777H31.5211L29.2741 144.217L27.0061 151.777ZM42.5301 145.708C44.5671 145.708 45.7431 146.989 45.7431 149.089V157.027H43.8111V149.362C43.8111 147.703 43.1391 147.22 42.0681 147.22C40.8291 147.22 39.9891 147.997 39.2541 149.173V157.027H37.3221V145.96H38.9811L39.1491 147.598C39.9051 146.464 41.0811 145.708 42.5301 145.708ZM52.6298 145.708C54.1838 145.708 55.3388 146.17 56.3888 146.968L55.5698 148.186C54.5828 147.556 53.7218 147.241 52.6928 147.241C51.4328 147.241 50.6558 147.808 50.6558 148.69C50.6558 149.593 51.2438 150.013 53.0288 150.475C55.3598 151.063 56.7038 151.987 56.7038 153.919C56.7038 156.229 54.5828 157.279 52.3358 157.279C50.4668 157.279 49.1228 156.67 48.1568 155.83L49.1858 154.654C50.0678 155.326 51.0968 155.725 52.2938 155.725C53.7428 155.725 54.6668 155.095 54.6668 154.045C54.6668 152.953 54.1208 152.533 51.9788 151.966C49.5848 151.336 48.6398 150.307 48.6398 148.753C48.6398 146.989 50.3408 145.708 52.6298 145.708ZM71.8665 145.96L69.3465 157.027H66.7215L64.7895 147.703L62.7945 157.027H60.2325L57.6495 145.96H59.5815L61.5765 155.683L63.7605 145.96H65.9235L68.0025 155.683L70.0185 145.96H71.8665ZM82.4301 151.168C82.4301 151.546 82.4091 151.903 82.3881 152.155H75.3321C75.5211 154.717 76.7181 155.704 78.3141 155.704C79.4061 155.704 80.2251 155.41 81.1911 154.738L82.0311 155.893C80.9391 156.754 79.7001 157.279 78.1671 157.279C75.0801 157.279 73.2741 155.116 73.2741 151.609C73.2741 148.165 75.0171 145.708 77.8731 145.708C80.8551 145.708 82.4301 147.787 82.4301 151.168ZM80.5191 150.727V150.601C80.5191 148.438 79.6581 147.241 77.9151 147.241C76.4451 147.241 75.4791 148.27 75.3321 150.727H80.5191ZM90.427 145.708C90.784 145.708 91.183 145.75 91.519 145.834L91.162 147.724C90.826 147.64 90.595 147.598 90.196 147.598C88.81 147.598 88.012 148.585 87.55 150.706V157.027H85.618V145.96H87.277L87.466 148.207C88.054 146.548 89.083 145.708 90.427 145.708ZM104.127 155.2L104.862 156.523C104.127 157.027 103.329 157.279 102.384 157.279C100.515 157.279 99.4023 156.187 99.4023 154.129V147.451H97.4703V145.96H99.4023V143.461L101.334 143.23V145.96H103.959L103.749 147.451H101.334V154.045C101.334 155.158 101.691 155.683 102.657 155.683C103.14 155.683 103.581 155.536 104.127 155.2ZM110.817 145.708C113.967 145.708 115.731 147.976 115.731 151.483C115.731 154.906 113.925 157.279 110.796 157.279C107.646 157.279 105.861 155.011 105.861 151.504C105.861 148.081 107.667 145.708 110.817 145.708ZM110.817 147.262C108.969 147.262 107.94 148.606 107.94 151.504C107.94 154.381 108.948 155.725 110.796 155.725C112.644 155.725 113.652 154.381 113.652 151.483C113.652 148.606 112.644 147.262 110.817 147.262ZM131.284 145.96H132.943V161.5L131.011 161.269V155.557C130.297 156.628 129.205 157.279 127.861 157.279C125.173 157.279 123.682 154.99 123.682 151.546C123.682 148.165 125.32 145.708 128.029 145.708C129.394 145.708 130.381 146.359 131.137 147.199L131.284 145.96ZM128.281 155.746C129.52 155.746 130.276 155.137 131.011 154.108V148.69C130.318 147.808 129.541 147.241 128.449 147.241C126.79 147.241 125.761 148.627 125.761 151.504C125.761 154.423 126.685 155.746 128.281 155.746ZM145.161 145.96V157.027H143.502L143.355 155.305C142.515 156.649 141.486 157.279 139.911 157.279C137.979 157.279 136.824 156.061 136.824 153.898V145.96H138.756V153.688C138.756 155.2 139.26 155.767 140.457 155.767C141.654 155.767 142.557 154.969 143.229 153.856V145.96H145.161ZM157.509 151.168C157.509 151.546 157.488 151.903 157.467 152.155H150.411C150.6 154.717 151.797 155.704 153.393 155.704C154.485 155.704 155.304 155.41 156.27 154.738L157.11 155.893C156.018 156.754 154.779 157.279 153.246 157.279C150.159 157.279 148.353 155.116 148.353 151.609C148.353 148.165 150.096 145.708 152.952 145.708C155.934 145.708 157.509 147.787 157.509 151.168ZM155.598 150.727V150.601C155.598 148.438 154.737 147.241 152.994 147.241C151.524 147.241 150.558 148.27 150.411 150.727H155.598ZM163.7 145.708C165.254 145.708 166.409 146.17 167.459 146.968L166.64 148.186C165.653 147.556 164.792 147.241 163.763 147.241C162.503 147.241 161.726 147.808 161.726 148.69C161.726 149.593 162.314 150.013 164.099 150.475C166.43 151.063 167.774 151.987 167.774 153.919C167.774 156.229 165.653 157.279 163.406 157.279C161.537 157.279 160.193 156.67 159.227 155.83L160.256 154.654C161.138 155.326 162.167 155.725 163.364 155.725C164.813 155.725 165.737 155.095 165.737 154.045C165.737 152.953 165.191 152.533 163.049 151.966C160.655 151.336 159.71 150.307 159.71 148.753C159.71 146.989 161.411 145.708 163.7 145.708ZM175.351 155.2L176.086 156.523C175.351 157.027 174.553 157.279 173.608 157.279C171.739 157.279 170.626 156.187 170.626 154.129V147.451H168.694V145.96H170.626V143.461L172.558 143.23V145.96H175.183L174.973 147.451H172.558V154.045C172.558 155.158 172.915 155.683 173.881 155.683C174.364 155.683 174.805 155.536 175.351 155.2ZM179.033 140.647C179.852 140.647 180.398 141.214 180.398 141.97C180.398 142.705 179.852 143.272 179.033 143.272C178.235 143.272 177.689 142.705 177.689 141.97C177.689 141.214 178.235 140.647 179.033 140.647ZM180.02 145.96V157.027H178.088V145.96H180.02ZM188.173 145.708C191.323 145.708 193.087 147.976 193.087 151.483C193.087 154.906 191.281 157.279 188.152 157.279C185.002 157.279 183.217 155.011 183.217 151.504C183.217 148.081 185.023 145.708 188.173 145.708ZM188.173 147.262C186.325 147.262 185.296 148.606 185.296 151.504C185.296 154.381 186.304 155.725 188.152 155.725C190 155.725 191.008 154.381 191.008 151.483C191.008 148.606 190 147.262 188.173 147.262ZM201.486 145.708C203.523 145.708 204.699 146.989 204.699 149.089V157.027H202.767V149.362C202.767 147.703 202.095 147.22 201.024 147.22C199.785 147.22 198.945 147.997 198.21 149.173V157.027H196.278V145.96H197.937L198.105 147.598C198.861 146.464 200.037 145.708 201.486 145.708ZM216.934 142.768C219.517 142.768 221.155 144.427 221.155 146.611C221.155 149.236 219.475 151.105 215.17 155.41H221.491L221.26 157.027H212.965V155.494C217.921 150.328 219.139 148.984 219.139 146.695C219.139 145.225 218.194 144.364 216.829 144.364C215.653 144.364 214.876 144.826 213.973 145.897L212.671 144.889C213.805 143.482 215.17 142.768 216.934 142.768ZM225.042 154.36C225.882 154.36 226.512 155.011 226.512 155.809C226.512 156.628 225.882 157.279 225.042 157.279C224.223 157.279 223.593 156.628 223.593 155.809C223.593 155.011 224.223 154.36 225.042 154.36Z" fill="white"/>
</svg>
