<svg width="300" height="210" viewBox="0 0 300 210" fill="none" xmlns="http://www.w3.org/2000/svg">
<rect width="300" height="210" fill="#121517"/>
<rect x="66.5" y="82.5" width="159" height="45" rx="3.5" fill="black" stroke="white"/>
<path d="M112.867 112L111.775 108.367H106.294L105.202 112H103.186L107.827 97.531H110.347L114.967 112H112.867ZM106.777 106.75H111.292L109.045 99.19L106.777 106.75ZM122.175 100.681C125.115 100.681 126.27 102.97 126.27 106.456C126.27 109.816 124.779 112.252 121.923 112.252C120.726 112.252 119.739 111.853 119.025 110.992V116.242L117.093 116.473V100.933H118.752L118.899 102.424C119.718 101.29 120.915 100.681 122.175 100.681ZM121.461 110.677C123.225 110.677 124.191 109.354 124.191 106.456C124.191 103.579 123.351 102.214 121.692 102.214C120.516 102.214 119.613 103.054 119.025 103.936V109.333C119.592 110.194 120.453 110.677 121.461 110.677ZM134.644 100.681C137.584 100.681 138.739 102.97 138.739 106.456C138.739 109.816 137.248 112.252 134.392 112.252C133.195 112.252 132.208 111.853 131.494 110.992V116.242L129.562 116.473V100.933H131.221L131.368 102.424C132.187 101.29 133.384 100.681 134.644 100.681ZM133.93 110.677C135.694 110.677 136.66 109.354 136.66 106.456C136.66 103.579 135.82 102.214 134.161 102.214C132.985 102.214 132.082 103.054 131.494 103.936V109.333C132.061 110.194 132.922 110.677 133.93 110.677ZM144.236 112.252C142.829 112.252 141.926 111.391 141.926 109.816V96.481L143.858 96.25V109.774C143.858 110.362 144.047 110.656 144.551 110.656C144.824 110.656 145.055 110.614 145.265 110.53L145.769 111.874C145.349 112.105 144.803 112.252 144.236 112.252ZM156.31 100.933L152.614 112.063C151.837 114.415 150.535 116.137 147.469 116.473L147.259 114.961C149.506 114.583 150.136 113.722 150.766 112H150.115L146.398 100.933H148.456L151.417 110.593L154.315 100.933H156.31ZM167.878 96.25C169.117 96.25 170.041 96.544 170.944 97.006L170.272 98.35C169.579 98.014 168.802 97.825 167.941 97.825C166.387 97.825 165.988 98.413 165.988 99.463V100.933H172.162V112H170.23V102.424H165.988V112H164.056V102.424H162.292V100.933H164.056V99.484C164.056 97.615 165.19 96.25 167.878 96.25ZM178.361 112.252C176.954 112.252 176.051 111.391 176.051 109.816V96.481L177.983 96.25V109.774C177.983 110.362 178.172 110.656 178.676 110.656C178.949 110.656 179.18 110.614 179.39 110.53L179.894 111.874C179.474 112.105 178.928 112.252 178.361 112.252ZM187.159 110.173L187.894 111.496C187.159 112 186.361 112.252 185.416 112.252C183.547 112.252 182.434 111.16 182.434 109.102V102.424H180.502V100.933H182.434V98.434L184.366 98.203V100.933H186.991L186.781 102.424H184.366V109.018C184.366 110.131 184.723 110.656 185.689 110.656C186.172 110.656 186.613 110.509 187.159 110.173ZM198.049 106.141C198.049 106.519 198.028 106.876 198.007 107.128H190.951C191.14 109.69 192.337 110.677 193.933 110.677C195.025 110.677 195.844 110.383 196.81 109.711L197.65 110.866C196.558 111.727 195.319 112.252 193.786 112.252C190.699 112.252 188.893 110.089 188.893 106.582C188.893 103.138 190.636 100.681 193.492 100.681C196.474 100.681 198.049 102.76 198.049 106.141ZM196.138 105.7V105.574C196.138 103.411 195.277 102.214 193.534 102.214C192.064 102.214 191.098 103.243 190.951 105.7H196.138ZM206.046 100.681C206.403 100.681 206.802 100.723 207.138 100.807L206.781 102.697C206.445 102.613 206.214 102.571 205.815 102.571C204.429 102.571 203.631 103.558 203.169 105.679V112H201.237V100.933H202.896L203.085 103.18C203.673 101.521 204.702 100.681 206.046 100.681ZM212.135 100.681C213.689 100.681 214.844 101.143 215.894 101.941L215.075 103.159C214.088 102.529 213.227 102.214 212.198 102.214C210.938 102.214 210.161 102.781 210.161 103.663C210.161 104.566 210.749 104.986 212.534 105.448C214.865 106.036 216.209 106.96 216.209 108.892C216.209 111.202 214.088 112.252 211.841 112.252C209.972 112.252 208.628 111.643 207.662 110.803L208.691 109.627C209.573 110.299 210.602 110.698 211.799 110.698C213.248 110.698 214.172 110.068 214.172 109.018C214.172 107.926 213.626 107.506 211.484 106.939C209.09 106.309 208.145 105.28 208.145 103.726C208.145 101.962 209.846 100.681 212.135 100.681Z" fill="white"/>
<path d="M96 98V99.9911L90.3206 105.529V112H85.7405V105.529L80 99.9911V98H96Z" fill="white"/>
</svg>
