<svg width="301" height="210" viewBox="0 0 301 210" fill="none" xmlns="http://www.w3.org/2000/svg">
<rect width="300" height="210" transform="translate(0.5)" fill="#121517"/>
<rect x="35.999" y="25.7222" width="48.9661" height="45" rx="3.5" stroke="white"/>
<circle cx="46.6158" cy="48.2218" r="2.87708" fill="white"/>
<circle cx="60.4821" cy="48.2218" r="2.87708" fill="white"/>
<circle cx="74.3483" cy="48.2218" r="2.87708" fill="white"/>
<rect x="54.001" y="79.2778" width="211" height="105" rx="3.5" fill="black" stroke="white"/>
<rect x="54.501" y="117.778" width="210" height="31" fill="#262626"/>
<path d="M73.889 127.376L73.691 128.744H69.011V132.974H73.061V134.324H69.011V139.778H67.301V127.376H73.889ZM77.4077 125.738C78.1097 125.738 78.5777 126.224 78.5777 126.872C78.5777 127.502 78.1097 127.988 77.4077 127.988C76.7237 127.988 76.2557 127.502 76.2557 126.872C76.2557 126.224 76.7237 125.738 77.4077 125.738ZM78.2537 130.292V139.778H76.5977V130.292H78.2537ZM83.5678 139.994C82.3618 139.994 81.5878 139.256 81.5878 137.906V126.476L83.2438 126.278V137.87C83.2438 138.374 83.4058 138.626 83.8378 138.626C84.0718 138.626 84.2698 138.59 84.4498 138.518L84.8818 139.67C84.5218 139.868 84.0538 139.994 83.5678 139.994ZM91.1092 138.212L91.7392 139.346C91.1092 139.778 90.4252 139.994 89.6152 139.994C88.0132 139.994 87.0592 139.058 87.0592 137.294V131.57H85.4032V130.292H87.0592V128.15L88.7152 127.952V130.292H90.9652L90.7852 131.57H88.7152V137.222C88.7152 138.176 89.0212 138.626 89.8492 138.626C90.2632 138.626 90.6412 138.5 91.1092 138.212ZM100.443 134.756C100.443 135.08 100.425 135.386 100.407 135.602H94.3593C94.5213 137.798 95.5473 138.644 96.9153 138.644C97.8513 138.644 98.5533 138.392 99.3813 137.816L100.101 138.806C99.1653 139.544 98.1033 139.994 96.7893 139.994C94.1433 139.994 92.5953 138.14 92.5953 135.134C92.5953 132.182 94.0893 130.076 96.5373 130.076C99.0933 130.076 100.443 131.858 100.443 134.756ZM98.8053 134.378V134.27C98.8053 132.416 98.0673 131.39 96.5733 131.39C95.3133 131.39 94.4853 132.272 94.3593 134.378H98.8053ZM107.298 130.076C107.604 130.076 107.946 130.112 108.234 130.184L107.928 131.804C107.64 131.732 107.442 131.696 107.1 131.696C105.912 131.696 105.228 132.542 104.832 134.36V139.778H103.176V130.292H104.598L104.76 132.218C105.264 130.796 106.146 130.076 107.298 130.076Z" fill="white"/>
<path d="M74.015 95.3758L73.817 96.7438H69.011V100.794H73.187V102.162H69.011V106.41H74.159V107.778H67.301V95.3758H74.015ZM82.5318 94.2778L84.1878 94.4758V107.778H82.7298L82.5678 106.464C81.9558 107.418 81.0018 107.994 79.8318 107.994C77.5278 107.994 76.2498 106.032 76.2498 103.08C76.2498 100.182 77.6538 98.0758 79.9758 98.0758C81.0918 98.0758 81.9018 98.5798 82.5318 99.2458V94.2778ZM80.1918 106.68C81.2538 106.68 81.9018 106.158 82.5318 105.276V100.632C81.9378 99.8758 81.2718 99.3898 80.3358 99.3898C78.9138 99.3898 78.0318 100.578 78.0318 103.044C78.0318 105.546 78.8238 106.68 80.1918 106.68ZM88.4116 93.7378C89.1136 93.7378 89.5816 94.2238 89.5816 94.8718C89.5816 95.5018 89.1136 95.9878 88.4116 95.9878C87.7276 95.9878 87.2596 95.5018 87.2596 94.8718C87.2596 94.2238 87.7276 93.7378 88.4116 93.7378ZM89.2576 98.2918V107.778H87.6016V98.2918H89.2576ZM96.8397 106.212L97.4697 107.346C96.8397 107.778 96.1557 107.994 95.3457 107.994C93.7437 107.994 92.7897 107.058 92.7897 105.294V99.5698H91.1337V98.2918H92.7897V96.1498L94.4457 95.9518V98.2918H96.6957L96.5157 99.5698H94.4457V105.222C94.4457 106.176 94.7517 106.626 95.5797 106.626C95.9937 106.626 96.3717 106.5 96.8397 106.212Z" fill="white"/>
<path d="M69.893 159.376C73.061 159.376 76.103 160.366 76.103 165.514C76.103 170.572 72.953 171.778 70.271 171.778H67.301V159.376H69.893ZM70.271 160.744H69.011V170.428H70.397C72.341 170.428 74.285 169.6 74.285 165.514C74.285 161.32 72.251 160.744 70.271 160.744ZM85.959 166.756C85.959 167.08 85.941 167.386 85.923 167.602H79.875C80.037 169.798 81.063 170.644 82.431 170.644C83.367 170.644 84.069 170.392 84.897 169.816L85.617 170.806C84.681 171.544 83.619 171.994 82.305 171.994C79.659 171.994 78.111 170.14 78.111 167.134C78.111 164.182 79.605 162.076 82.053 162.076C84.609 162.076 85.959 163.858 85.959 166.756ZM84.321 166.378V166.27C84.321 164.416 83.583 163.39 82.089 163.39C80.829 163.39 80.001 164.272 79.875 166.378H84.321ZM90.5814 171.994C89.3754 171.994 88.6014 171.256 88.6014 169.906V158.476L90.2574 158.278V169.87C90.2574 170.374 90.4194 170.626 90.8514 170.626C91.0854 170.626 91.2834 170.59 91.4634 170.518L91.8954 171.67C91.5354 171.868 91.0674 171.994 90.5814 171.994ZM100.953 166.756C100.953 167.08 100.935 167.386 100.917 167.602H94.8691C95.0311 169.798 96.0571 170.644 97.4251 170.644C98.3611 170.644 99.0631 170.392 99.8911 169.816L100.611 170.806C99.6751 171.544 98.6131 171.994 97.2991 171.994C94.6531 171.994 93.1051 170.14 93.1051 167.134C93.1051 164.182 94.5991 162.076 97.0471 162.076C99.6031 162.076 100.953 163.858 100.953 166.756ZM99.3151 166.378V166.27C99.3151 164.416 98.5771 163.39 97.0831 163.39C95.8231 163.39 94.9951 164.272 94.8691 166.378H99.3151ZM107.844 170.212L108.474 171.346C107.844 171.778 107.16 171.994 106.35 171.994C104.748 171.994 103.794 171.058 103.794 169.294V163.57H102.138V162.292H103.794V160.15L105.45 159.952V162.292H107.7L107.52 163.57H105.45V169.222C105.45 170.176 105.756 170.626 106.584 170.626C106.998 170.626 107.376 170.5 107.844 170.212ZM117.178 166.756C117.178 167.08 117.16 167.386 117.142 167.602H111.094C111.256 169.798 112.282 170.644 113.65 170.644C114.586 170.644 115.288 170.392 116.116 169.816L116.836 170.806C115.9 171.544 114.838 171.994 113.524 171.994C110.878 171.994 109.33 170.14 109.33 167.134C109.33 164.182 110.824 162.076 113.272 162.076C115.828 162.076 117.178 163.858 117.178 166.756ZM115.54 166.378V166.27C115.54 164.416 114.802 163.39 113.308 163.39C112.048 163.39 111.22 164.272 111.094 166.378H115.54Z" fill="white"/>
</svg>
