<svg width="300" height="210" viewBox="0 0 300 210" fill="none" xmlns="http://www.w3.org/2000/svg">
<rect width="300" height="210" fill="#121517"/>
<rect x="69.5" y="82.5" width="159" height="45" rx="3.5" fill="black" stroke="white"/>
<line x1="121.5" y1="83" x2="121.5" y2="127" stroke="white"/>
<line x1="176.5" y1="83" x2="176.5" y2="127" stroke="white"/>
<path d="M101 98V99.9911L95.3206 105.529V112H90.7405V105.529L85 99.9911V98H101Z" fill="white"/>
<rect x="69.5" y="82.5" width="159" height="45" rx="3.5" fill="black" stroke="white"/>
<path d="M101 98V99.9911L95.3206 105.529V112H90.7405V105.529L85 99.9911V98H101Z" fill="white"/>
<path d="M206.316 104.387H199.631V105.667H206.316V104.387ZM200.982 96.3511L202.333 95H211.649L213 96.3511V105.667L211.649 107.018H208.947V109.72L207.667 111H198.28L197 109.72V100.333L198.28 99.0533H200.982V96.3511ZM202.333 99.0533H207.667L208.947 100.333V105.667H211.649V96.3511H202.333V99.0533ZM207.667 100.333H198.28V109.72H207.667V100.333Z" fill="white"/>
<path d="M158 98V99.3511H142V98H158ZM156.649 101.982V103.333H147.333V101.982H156.649ZM156.649 106.036V107.316H145.982V106.036H156.649ZM156.649 110.018V111.369H145.982V110.018H156.649ZM145.982 99.3511H147.333V111.369H145.982V99.3511Z" fill="white"/>
</svg>
