<svg width="301" height="210" viewBox="0 0 301 210" fill="none" xmlns="http://www.w3.org/2000/svg">
<rect width="300" height="210" transform="translate(0.5)" fill="#121517"/>
<path d="M29.786 113.57L26.321 107.438H24.074V113.57H22.079V99.1013H25.88C29.492 99.1013 31.382 100.487 31.382 103.196C31.382 105.233 30.332 106.451 28.253 107.081L32.159 113.57H29.786ZM24.074 105.905H26.09C28.106 105.905 29.261 105.149 29.261 103.196C29.261 101.39 28.232 100.655 25.859 100.655H24.074V105.905ZM38.6418 102.251C41.7918 102.251 43.5558 104.519 43.5558 108.026C43.5558 111.449 41.7498 113.822 38.6208 113.822C35.4708 113.822 33.6858 111.554 33.6858 108.047C33.6858 104.624 35.4918 102.251 38.6418 102.251ZM38.6418 103.805C36.7938 103.805 35.7648 105.149 35.7648 108.047C35.7648 110.924 36.7728 112.268 38.6208 112.268C40.4688 112.268 41.4768 110.924 41.4768 108.026C41.4768 105.149 40.4688 103.805 38.6418 103.805ZM50.9054 102.251C54.0554 102.251 55.8194 104.519 55.8194 108.026C55.8194 111.449 54.0134 113.822 50.8844 113.822C47.7344 113.822 45.9494 111.554 45.9494 108.047C45.9494 104.624 47.7554 102.251 50.9054 102.251ZM50.9054 103.805C49.0574 103.805 48.0284 105.149 48.0284 108.047C48.0284 110.924 49.0364 112.268 50.8844 112.268C52.7324 112.268 53.7404 110.924 53.7404 108.026C53.7404 105.149 52.7324 103.805 50.9054 103.805ZM63.8621 111.743L64.5971 113.066C63.8621 113.57 63.0641 113.822 62.1191 113.822C60.2501 113.822 59.1371 112.73 59.1371 110.672V103.994H57.2051V102.503H59.1371V100.004L61.0691 99.7733V102.503H63.6941L63.4841 103.994H61.0691V110.588C61.0691 111.701 61.4261 112.226 62.3921 112.226C62.8751 112.226 63.3161 112.079 63.8621 111.743Z" fill="#B4B4B4"/>
<path d="M113.731 99.1013V111.827H119.674L119.443 113.57H111.736V99.1013H113.731ZM129.545 110.987C129.545 111.953 129.902 112.268 130.469 112.478L130.028 113.822C128.915 113.696 128.201 113.255 127.865 112.163C127.088 113.318 125.912 113.822 124.568 113.822C122.363 113.822 121.04 112.457 121.04 110.483C121.04 108.11 122.825 106.829 125.912 106.829H127.613V106.01C127.613 104.414 126.836 103.826 125.303 103.826C124.484 103.826 123.455 104.036 122.321 104.414L121.838 103.007C123.203 102.503 124.421 102.251 125.66 102.251C128.327 102.251 129.545 103.616 129.545 105.926V110.987ZM125.009 112.373C126.143 112.373 126.983 111.806 127.613 110.651V108.11H126.164C124.127 108.11 123.098 108.866 123.098 110.378C123.098 111.68 123.749 112.373 125.009 112.373ZM141.435 102.503L137.739 113.633C136.962 115.985 135.66 117.707 132.594 118.043L132.384 116.531C134.631 116.153 135.261 115.292 135.891 113.57H135.24L131.523 102.503H133.581L136.542 112.163L139.44 102.503H141.435ZM151.694 107.711C151.694 108.089 151.673 108.446 151.652 108.698H144.596C144.785 111.26 145.982 112.247 147.578 112.247C148.67 112.247 149.489 111.953 150.455 111.281L151.295 112.436C150.203 113.297 148.964 113.822 147.431 113.822C144.344 113.822 142.538 111.659 142.538 108.152C142.538 104.708 144.281 102.251 147.137 102.251C150.119 102.251 151.694 104.33 151.694 107.711ZM149.783 107.27V107.144C149.783 104.981 148.922 103.784 147.179 103.784C145.709 103.784 144.743 104.813 144.596 107.27H149.783ZM159.691 102.251C160.048 102.251 160.447 102.293 160.783 102.377L160.426 104.267C160.09 104.183 159.859 104.141 159.46 104.141C158.074 104.141 157.276 105.128 156.814 107.249V113.57H154.882V102.503H156.541L156.73 104.75C157.318 103.091 158.347 102.251 159.691 102.251ZM173.328 99.5213V113.57H171.396V101.579L168.12 103.574L167.28 102.209L171.627 99.5213H173.328Z" fill="#B4B4B4"/>
<path d="M217.283 99.1013V111.827H223.226L222.995 113.57H215.288V99.1013H217.283ZM233.097 110.987C233.097 111.953 233.454 112.268 234.021 112.478L233.58 113.822C232.467 113.696 231.753 113.255 231.417 112.163C230.64 113.318 229.464 113.822 228.12 113.822C225.915 113.822 224.592 112.457 224.592 110.483C224.592 108.11 226.377 106.829 229.464 106.829H231.165V106.01C231.165 104.414 230.388 103.826 228.855 103.826C228.036 103.826 227.007 104.036 225.873 104.414L225.39 103.007C226.755 102.503 227.973 102.251 229.212 102.251C231.879 102.251 233.097 103.616 233.097 105.926V110.987ZM228.561 112.373C229.695 112.373 230.535 111.806 231.165 110.651V108.11H229.716C227.679 108.11 226.65 108.866 226.65 110.378C226.65 111.68 227.301 112.373 228.561 112.373ZM244.987 102.503L241.291 113.633C240.514 115.985 239.212 117.707 236.146 118.043L235.936 116.531C238.183 116.153 238.813 115.292 239.443 113.57H238.792L235.075 102.503H237.133L240.094 112.163L242.992 102.503H244.987ZM255.247 107.711C255.247 108.089 255.226 108.446 255.205 108.698H248.149C248.338 111.26 249.535 112.247 251.131 112.247C252.223 112.247 253.042 111.953 254.008 111.281L254.848 112.436C253.756 113.297 252.517 113.822 250.984 113.822C247.897 113.822 246.091 111.659 246.091 108.152C246.091 104.708 247.834 102.251 250.69 102.251C253.672 102.251 255.247 104.33 255.247 107.711ZM253.336 107.27V107.144C253.336 104.981 252.475 103.784 250.732 103.784C249.262 103.784 248.296 104.813 248.149 107.27H253.336ZM263.243 102.251C263.6 102.251 263.999 102.293 264.335 102.377L263.978 104.267C263.642 104.183 263.411 104.141 263.012 104.141C261.626 104.141 260.828 105.128 260.366 107.249V113.57H258.434V102.503H260.093L260.282 104.75C260.87 103.091 261.899 102.251 263.243 102.251ZM274.886 99.3113C277.469 99.3113 279.107 100.97 279.107 103.154C279.107 105.779 277.427 107.648 273.122 111.953H279.443L279.212 113.57H270.917V112.037C275.873 106.871 277.091 105.527 277.091 103.238C277.091 101.768 276.146 100.907 274.781 100.907C273.605 100.907 272.828 101.369 271.925 102.44L270.623 101.432C271.757 100.025 273.122 99.3113 274.886 99.3113Z" fill="white"/>
<path d="M86.5288 114.07L94.5288 106.07L86.5288 98.0703" stroke="#6A6A6A" stroke-width="2"/>
<path d="M190.737 114.07L198.737 106.07L190.737 98.0703" stroke="#6A6A6A" stroke-width="2"/>
</svg>
