<svg width="300" height="210" viewBox="0 0 300 210" fill="none" xmlns="http://www.w3.org/2000/svg">
<rect width="300" height="210" fill="#121517"/>
<path d="M93 105C93 92.2975 103.297 82 116 82H184C196.703 82 207 92.2975 207 105C207 117.703 196.703 128 184 128H116C103.297 128 93 117.703 93 105Z" fill="white"/>
<path d="M140.817 103.356C142.497 103.65 144.156 104.427 144.156 106.884C144.156 109.95 141.783 111 138.423 111H134.433V96.531H137.856C141.426 96.531 143.526 97.665 143.526 100.185C143.526 101.97 142.224 103.062 140.817 103.356ZM138.066 98.106H136.428V102.663H138.612C140.229 102.663 141.489 101.865 141.489 100.332C141.489 98.547 140.208 98.106 138.066 98.106ZM138.423 109.404C140.523 109.404 142.056 108.984 142.056 106.884C142.056 104.847 140.544 104.196 138.801 104.196H136.428V109.404H138.423ZM155.336 99.933V111H153.677L153.53 109.278C152.69 110.622 151.661 111.252 150.086 111.252C148.154 111.252 146.999 110.034 146.999 107.871V99.933H148.931V107.661C148.931 109.173 149.435 109.74 150.632 109.74C151.829 109.74 152.732 108.942 153.404 107.829V99.933H155.336ZM167.454 99.933L163.758 111.063C162.981 113.415 161.679 115.137 158.613 115.473L158.403 113.961C160.65 113.583 161.28 112.722 161.91 111H161.259L157.542 99.933H159.6L162.561 109.593L165.459 99.933H167.454Z" fill="black"/>
</svg>
