<svg width="300" height="210" viewBox="0 0 300 210" fill="none" xmlns="http://www.w3.org/2000/svg">
<rect width="300" height="210" fill="#121517"/>
<path d="M154 105C154 92.2975 164.297 82 177 82H245C257.703 82 268 92.2975 268 105C268 117.703 257.703 128 245 128H177C164.297 128 154 117.703 154 105Z" fill="white"/>
<path d="M32.5 105C32.5 93.1259 42.1259 83.5 54 83.5H122C133.874 83.5 143.5 93.1259 143.5 105C143.5 116.874 133.874 126.5 122 126.5H54C42.1259 126.5 32.5 116.874 32.5 105Z" stroke="white" stroke-width="3"/>
<path d="M184.842 96.279C186.837 96.279 188.097 96.867 189.315 97.959L188.223 99.177C187.131 98.295 186.123 97.917 184.926 97.917C183.477 97.917 182.322 98.589 182.322 99.975C182.322 101.193 182.889 101.781 185.493 102.579C187.803 103.293 189.777 104.196 189.777 106.968C189.777 109.488 187.866 111.252 184.611 111.252C182.532 111.252 180.894 110.559 179.697 109.383L180.81 108.144C181.881 109.047 183.015 109.614 184.59 109.614C186.291 109.614 187.698 108.774 187.698 107.031C187.698 105.624 187.026 104.994 184.569 104.238C181.755 103.377 180.285 102.306 180.285 100.059C180.285 97.833 182.175 96.279 184.842 96.279ZM200.843 99.933V111H199.184L199.037 109.278C198.197 110.622 197.168 111.252 195.593 111.252C193.661 111.252 192.506 110.034 192.506 107.871V99.933H194.438V107.661C194.438 109.173 194.942 109.74 196.139 109.74C197.336 109.74 198.239 108.942 198.911 107.829V99.933H200.843ZM209.894 99.681C212.393 99.681 214.01 101.76 214.01 105.456C214.01 108.921 212.351 111.252 209.663 111.252C208.445 111.252 207.479 110.706 206.723 109.782L206.534 111H204.833V95.481L206.765 95.25V101.319C207.521 100.29 208.55 99.681 209.894 99.681ZM209.201 109.719C210.818 109.719 211.931 108.48 211.931 105.456C211.931 102.306 210.902 101.214 209.348 101.214C208.13 101.214 207.332 102.054 206.765 102.936V108.228C207.332 109.11 208.214 109.719 209.201 109.719ZM228.411 99.681C230.217 99.681 231.414 100.983 231.414 103.062V111H229.482V103.335C229.482 101.676 228.768 101.193 227.928 101.193C226.731 101.193 226.08 101.97 225.324 103.146V111H223.392V103.335C223.392 101.676 222.678 101.193 221.838 101.193C220.641 101.193 219.969 101.97 219.234 103.146V111H217.302V99.933H218.961L219.129 101.55C219.864 100.437 220.872 99.681 222.321 99.681C223.686 99.681 224.694 100.416 225.114 101.676C225.912 100.479 226.92 99.681 228.411 99.681ZM236.253 94.62C237.072 94.62 237.618 95.187 237.618 95.943C237.618 96.678 237.072 97.245 236.253 97.245C235.455 97.245 234.909 96.678 234.909 95.943C234.909 95.187 235.455 94.62 236.253 94.62ZM237.24 99.933V111H235.308V99.933H237.24ZM246.086 109.173L246.821 110.496C246.086 111 245.288 111.252 244.343 111.252C242.474 111.252 241.361 110.16 241.361 108.102V101.424H239.429V99.933H241.361V97.434L243.293 97.203V99.933H245.918L245.708 101.424H243.293V108.018C243.293 109.131 243.65 109.656 244.616 109.656C245.099 109.656 245.54 109.509 246.086 109.173Z" fill="black"/>
<path d="M66.161 96.279C67.988 96.279 69.017 96.783 70.172 97.707L69.08 98.988C68.177 98.253 67.295 97.917 66.287 97.917C64.103 97.917 62.276 99.387 62.276 103.755C62.276 107.934 64.019 109.572 66.266 109.572C67.631 109.572 68.513 108.963 69.332 108.354L70.34 109.635C69.563 110.454 68.156 111.252 66.203 111.252C62.696 111.252 60.155 108.627 60.155 103.755C60.155 98.862 62.885 96.279 66.161 96.279ZM80.201 108.417C80.201 109.383 80.558 109.698 81.125 109.908L80.684 111.252C79.571 111.126 78.857 110.685 78.521 109.593C77.744 110.748 76.568 111.252 75.224 111.252C73.019 111.252 71.696 109.887 71.696 107.913C71.696 105.54 73.481 104.259 76.568 104.259H78.269V103.44C78.269 101.844 77.492 101.256 75.959 101.256C75.14 101.256 74.111 101.466 72.977 101.844L72.494 100.437C73.859 99.933 75.077 99.681 76.316 99.681C78.983 99.681 80.201 101.046 80.201 103.356V108.417ZM75.665 109.803C76.799 109.803 77.639 109.236 78.269 108.081V105.54H76.82C74.783 105.54 73.754 106.296 73.754 107.808C73.754 109.11 74.405 109.803 75.665 109.803ZM89.3768 99.681C91.4138 99.681 92.5898 100.962 92.5898 103.062V111H90.6578V103.335C90.6578 101.676 89.9858 101.193 88.9148 101.193C87.6758 101.193 86.8358 101.97 86.1008 103.146V111H84.1688V99.933H85.8278L85.9958 101.571C86.7518 100.437 87.9278 99.681 89.3768 99.681ZM100.506 99.681C101.808 99.681 102.858 100.017 103.887 100.878L102.963 102.096C102.207 101.55 101.514 101.277 100.59 101.277C98.8465 101.277 97.7545 102.642 97.7545 105.519C97.7545 108.417 98.8465 109.614 100.59 109.614C101.514 109.614 102.165 109.32 103.005 108.774L103.887 110.034C102.9 110.832 101.787 111.252 100.506 111.252C97.5235 111.252 95.6755 109.131 95.6755 105.561C95.6755 102.033 97.5025 99.681 100.506 99.681ZM114.655 105.141C114.655 105.519 114.634 105.876 114.613 106.128H107.557C107.746 108.69 108.943 109.677 110.539 109.677C111.631 109.677 112.45 109.383 113.416 108.711L114.256 109.866C113.164 110.727 111.925 111.252 110.392 111.252C107.305 111.252 105.499 109.089 105.499 105.582C105.499 102.138 107.242 99.681 110.098 99.681C113.08 99.681 114.655 101.76 114.655 105.141ZM112.744 104.7V104.574C112.744 102.411 111.883 101.214 110.14 101.214C108.67 101.214 107.704 102.243 107.557 104.7H112.744ZM120.048 111.252C118.641 111.252 117.738 110.391 117.738 108.816V95.481L119.67 95.25V108.774C119.67 109.362 119.859 109.656 120.363 109.656C120.636 109.656 120.867 109.614 121.077 109.53L121.581 110.874C121.161 111.105 120.615 111.252 120.048 111.252Z" fill="white"/>
</svg>
