<svg width="301" height="210" viewBox="0 0 301 210" fill="none" xmlns="http://www.w3.org/2000/svg">
<rect width="300" height="210" transform="translate(0.5)" fill="#121517"/>
<path d="M126.855 32.5703L126.036 29.3153H121.479L120.66 32.5703H117.447L121.92 18.0383H125.679L130.131 32.5703H126.855ZM122.046 27.0263H125.448L123.747 20.3273L122.046 27.0263ZM140.381 21.4403V32.5703H137.798L137.651 31.0793C136.853 32.3183 135.761 32.9063 134.27 32.9063C132.212 32.9063 131.162 31.5833 131.162 29.4413V21.4403H134.144V29.0633C134.144 30.2813 134.543 30.6803 135.362 30.6803C136.181 30.6803 136.874 30.1343 137.399 29.2313V21.4403H140.381ZM152.545 19.7603L153.28 22.0493C152.461 22.3643 151.411 22.4693 150.067 22.4693C151.432 23.0783 152.125 23.9183 152.125 25.3253C152.125 27.4883 150.382 29.0633 147.547 29.0633C147.064 29.0633 146.644 29.0213 146.245 28.9163C145.993 29.0843 145.825 29.3573 145.825 29.6513C145.825 30.0293 146.014 30.3863 147.106 30.3863H148.807C151.327 30.3863 152.944 31.7303 152.944 33.5783C152.944 35.8253 150.991 37.1903 147.274 37.1903C143.2 37.1903 142.087 35.8673 142.087 33.6413H144.754C144.754 34.6913 145.216 35.1533 147.337 35.1533C149.395 35.1533 149.941 34.5863 149.941 33.7883C149.941 33.0323 149.374 32.5703 148.198 32.5703H146.56C144.229 32.5703 143.263 31.5623 143.263 30.3863C143.263 29.5883 143.767 28.8113 144.565 28.3073C143.179 27.5513 142.591 26.5643 142.591 25.1363C142.591 22.6793 144.544 21.1043 147.337 21.1043C149.899 21.1673 151.201 20.5163 152.545 19.7603ZM147.4 23.0993C146.266 23.0993 145.573 23.8763 145.573 25.0943C145.573 26.3753 146.287 27.1313 147.421 27.1313C148.618 27.1313 149.248 26.4173 149.248 25.0523C149.248 23.7293 148.639 23.0993 147.4 23.0993ZM163.863 21.4403V32.5703H161.28L161.133 31.0793C160.335 32.3183 159.243 32.9063 157.752 32.9063C155.694 32.9063 154.644 31.5833 154.644 29.4413V21.4403H157.626V29.0633C157.626 30.2813 158.025 30.6803 158.844 30.6803C159.663 30.6803 160.356 30.1343 160.881 29.2313V21.4403H163.863ZM170.503 21.1043C172.12 21.1043 173.485 21.6083 174.535 22.4483L173.401 24.1493C172.498 23.5823 171.595 23.2673 170.629 23.2673C169.642 23.2673 169.096 23.6663 169.096 24.2753C169.096 24.9263 169.474 25.2203 171.427 25.7873C173.653 26.3963 174.913 27.3203 174.913 29.2943C174.913 31.6043 172.75 32.9063 170.104 32.9063C168.172 32.9063 166.618 32.2553 165.568 31.2893L167.038 29.6513C167.878 30.3023 168.907 30.7433 170.02 30.7433C171.133 30.7433 171.847 30.2813 171.847 29.5253C171.847 28.6853 171.448 28.4123 169.39 27.8453C167.143 27.2153 166.093 26.1023 166.093 24.4223C166.093 22.5323 167.815 21.1043 170.503 21.1043ZM182.484 30.1343L183.513 32.0453C182.694 32.6123 181.602 32.9063 180.615 32.9063C178.305 32.8853 177.129 31.5623 177.129 29.0843V23.5403H175.47V21.4403H177.129V19.0043L180.111 18.6473V21.4403H182.673L182.379 23.5403H180.111V29.0213C180.111 30.1133 180.468 30.5333 181.224 30.5333C181.623 30.5333 182.022 30.4073 182.484 30.1343Z" fill="white"/>
<path d="M38.4072 49.9418C40.0552 49.9418 41.1752 50.4378 42.1352 51.3338L41.0152 52.6298C40.2312 51.9898 39.4632 51.7018 38.5672 51.7018C37.6072 51.7018 36.9512 52.1178 36.9512 52.9018C36.9512 53.6698 37.3672 53.9898 39.1752 54.5498C41.1752 55.1898 42.4552 56.0218 42.4552 58.0698C42.4552 60.1018 40.8552 61.5258 38.1672 61.5258C36.3272 61.5258 34.9832 60.8698 34.0712 59.9738L35.2872 58.6458C36.0872 59.3338 36.9672 59.7498 38.1032 59.7498C39.2392 59.7498 40.0072 59.2058 40.0072 58.2298C40.0072 57.3498 39.5752 56.9658 37.8952 56.4538C35.4952 55.7018 34.5352 54.7418 34.5352 53.0618C34.5352 51.1738 36.1672 49.9418 38.4072 49.9418Z" fill="white"/>
<path d="M81.5416 50.1978L82.3896 61.2698H80.0856L79.8456 56.7738C79.7496 55.1898 79.7016 53.5258 79.7496 52.2618L77.8776 60.0858H75.6536L73.6536 52.2458C73.7496 53.7978 73.7336 55.2698 73.6536 56.8218L73.4136 61.2698H71.1256L71.9896 50.1978H74.9816L76.8056 57.8298L78.5176 50.1978H81.5416Z" fill="white"/>
<path d="M119.121 50.1978L118.865 52.0378H116.065V61.2698H113.713V52.0378H110.769V50.1978H119.121Z" fill="white"/>
<path d="M159.847 50.1978L157.911 61.2698H154.855L153.319 52.6138L151.703 61.2698H148.727L146.807 50.1978H149.159L150.423 59.4458L152.103 50.1978H154.583L156.199 59.4458L157.623 50.1978H159.847Z" fill="white"/>
<path d="M78.5442 76.6459V87.3499H77.0722V78.2139L74.5762 79.7339L73.9362 78.6939L77.2482 76.6459H78.5442Z" fill="white"/>
<path d="M114.57 76.4859C116.538 76.4859 117.786 77.7499 117.786 79.4139C117.786 81.4139 116.506 82.8379 113.226 86.1179H118.042L117.866 87.3499H111.546V86.1819C115.322 82.2459 116.25 81.2219 116.25 79.4779C116.25 78.3579 115.53 77.7019 114.49 77.7019C113.594 77.7019 113.002 78.0539 112.314 78.8699L111.322 78.1019C112.186 77.0299 113.226 76.4859 114.57 76.4859Z" fill="white"/>
<path d="M152.941 76.4859C154.989 76.4859 156.109 77.7659 156.109 79.2059C156.109 80.5659 155.229 81.3819 154.029 81.6699C155.373 81.7979 156.445 82.6459 156.445 84.2619C156.445 86.1339 155.021 87.5419 152.797 87.5419C151.517 87.5419 150.397 87.0779 149.581 86.1019L150.461 85.2859C151.165 86.0219 151.885 86.3419 152.749 86.3419C154.093 86.3419 154.909 85.5099 154.909 84.2459C154.909 82.7739 154.077 82.3259 152.781 82.3259H151.981L152.157 81.1899H152.701C153.757 81.1899 154.637 80.5499 154.637 79.3019C154.637 78.2939 153.933 77.6699 152.861 77.6699C152.013 77.6699 151.373 77.9579 150.653 78.6299L149.885 77.7499C150.797 76.9019 151.789 76.4859 152.941 76.4859Z" fill="white"/>
<path d="M195.558 83.5419V84.7099H194.166V87.3499H192.742V84.7099H188.166V83.6539L191.382 76.4859L192.614 76.9979L189.718 83.5419H192.758L192.886 80.6619H194.166V83.5419H195.558Z" fill="white"/>
<path d="M230.321 76.6459L230.113 77.7979H225.937V80.9499C226.497 80.6619 227.073 80.5339 227.649 80.5339C229.457 80.5339 230.689 81.7979 230.689 83.9259C230.689 86.0539 229.201 87.5419 226.977 87.5419C225.617 87.5419 224.641 87.0299 223.809 86.1819L224.705 85.3179C225.345 86.0059 226.033 86.3419 226.961 86.3419C228.305 86.3419 229.153 85.4619 229.153 83.8939C229.153 82.2459 228.305 81.6699 227.201 81.6699C226.625 81.6699 226.193 81.7979 225.681 82.0379H224.529V76.6459H230.321Z" fill="white"/>
<path d="M263.276 80.3099C264.844 80.3099 266.236 81.4299 266.236 83.7179C266.236 86.0539 264.716 87.5419 262.828 87.5419C260.22 87.5419 259.228 85.3979 259.228 82.3259C259.228 78.8219 260.748 76.4859 263.276 76.4859C264.14 76.4859 264.86 76.7259 265.484 77.1419L264.908 78.1179C264.412 77.8139 263.852 77.6539 263.26 77.6539C261.708 77.6539 260.78 79.2699 260.7 81.7179C261.404 80.7259 262.268 80.3099 263.276 80.3099ZM262.828 86.3739C264.092 86.3739 264.748 85.3339 264.748 83.7659C264.748 82.0699 264.028 81.4779 263.02 81.4779C262.06 81.4779 261.26 82.0699 260.716 82.9499C260.78 85.2859 261.404 86.3739 262.828 86.3739Z" fill="white"/>
<path d="M196.022 50.1978L195.766 52.0378H192.966V61.2698H190.614V52.0378H187.67V50.1978H196.022Z" fill="white"/>
<path d="M231.095 50.1978L230.839 51.9098H227.015V55.0458H230.343V56.7578H227.015V61.2698H224.663V50.1978H231.095Z" fill="white"/>
<path d="M262.634 49.9418C264.282 49.9418 265.402 50.4378 266.362 51.3338L265.242 52.6298C264.458 51.9898 263.69 51.7018 262.794 51.7018C261.834 51.7018 261.178 52.1178 261.178 52.9018C261.178 53.6698 261.594 53.9898 263.402 54.5498C265.402 55.1898 266.682 56.0218 266.682 58.0698C266.682 60.1018 265.082 61.5258 262.394 61.5258C260.554 61.5258 259.21 60.8698 258.298 59.9738L259.514 58.6458C260.314 59.3338 261.194 59.7498 262.33 59.7498C263.466 59.7498 264.234 59.2058 264.234 58.2298C264.234 57.3498 263.802 56.9658 262.122 56.4538C259.722 55.7018 258.762 54.7418 258.762 53.0618C258.762 51.1738 260.394 49.9418 262.634 49.9418Z" fill="white"/>
<path d="M262.756 33.0703L270.756 25.0703L262.756 17.0703" stroke="#6A6A6A" stroke-width="2"/>
<path d="M37.5298 17.0703L29.5298 25.0703L37.5298 33.0703" stroke="#6A6A6A" stroke-width="2"/>
<circle cx="114.248" cy="134.945" r="15.2051" fill="#434343"/>
<path d="M33.3106 183.153C35.2786 183.153 36.5266 184.417 36.5266 186.081C36.5266 188.081 35.2466 189.505 31.9666 192.785H36.7826L36.6066 194.017H30.2866V192.849C34.0626 188.913 34.9906 187.889 34.9906 186.145C34.9906 185.025 34.2706 184.369 33.2306 184.369C32.3346 184.369 31.7426 184.721 31.0546 185.537L30.0626 184.769C30.9266 183.697 31.9666 183.153 33.3106 183.153ZM43.4245 188.273C44.8965 188.865 45.6805 189.809 45.6805 191.153C45.6805 192.945 44.1445 194.209 41.9685 194.209C39.7605 194.209 38.3045 192.945 38.3045 191.185C38.3045 189.809 39.1045 188.977 40.4165 188.401C39.2645 187.825 38.7525 187.009 38.7525 185.905C38.7525 184.097 40.3685 183.153 42.0005 183.153C43.6005 183.153 45.2485 184.033 45.2485 185.857C45.2485 186.945 44.6405 187.665 43.4245 188.273ZM42.0005 184.257C40.8965 184.257 40.1925 184.849 40.1925 185.921C40.1925 187.025 40.9445 187.425 42.1765 187.825L42.4485 187.921C43.4085 187.377 43.8085 186.817 43.8085 185.905C43.8085 184.913 43.1685 184.257 42.0005 184.257ZM41.9845 193.041C43.3285 193.041 44.1445 192.289 44.1445 191.169C44.1445 190.017 43.5365 189.505 41.8085 188.913L41.4085 188.769C40.3525 189.281 39.8405 190.017 39.8405 191.185C39.8405 192.353 40.6565 193.041 41.9845 193.041Z" fill="white"/>
<path d="M71.9405 183.153C73.9085 183.153 75.1565 184.417 75.1565 186.081C75.1565 188.081 73.8765 189.505 70.5965 192.785H75.4125L75.2365 194.017H68.9165V192.849C72.6925 188.913 73.6205 187.889 73.6205 186.145C73.6205 185.025 72.9005 184.369 71.8605 184.369C70.9645 184.369 70.3725 184.721 69.6845 185.537L68.6925 184.769C69.5565 183.697 70.5965 183.153 71.9405 183.153ZM80.3584 183.153C82.6624 183.153 83.8144 184.801 83.8144 187.313C83.8144 191.745 82.0544 193.233 78.1184 194.369L77.7824 193.265C80.4704 192.497 82.1824 191.265 82.2944 188.849C81.8304 189.569 80.9824 190.129 79.8944 190.129C78.2304 190.129 76.9344 188.817 76.9344 186.689C76.9344 184.449 78.5024 183.153 80.3584 183.153ZM80.1984 188.977C81.1104 188.977 81.7984 188.465 82.3264 187.649C82.3744 185.233 81.7184 184.321 80.3904 184.321C79.1424 184.321 78.4224 185.185 78.4224 186.721C78.4224 188.257 79.1584 188.977 80.1984 188.977Z" fill="white"/>
<path d="M110.078 183.153C112.126 183.153 113.246 184.433 113.246 185.873C113.246 187.233 112.366 188.049 111.166 188.337C112.51 188.465 113.582 189.313 113.582 190.929C113.582 192.801 112.158 194.209 109.934 194.209C108.654 194.209 107.534 193.745 106.718 192.769L107.598 191.953C108.302 192.689 109.022 193.009 109.886 193.009C111.23 193.009 112.046 192.177 112.046 190.913C112.046 189.441 111.214 188.993 109.918 188.993H109.118L109.294 187.857H109.838C110.894 187.857 111.774 187.217 111.774 185.969C111.774 184.961 111.07 184.337 109.998 184.337C109.15 184.337 108.51 184.625 107.79 185.297L107.022 184.417C107.934 183.569 108.926 183.153 110.078 183.153ZM118.926 183.153C121.326 183.153 122.51 185.137 122.51 188.673C122.51 192.225 121.326 194.209 118.926 194.209C116.526 194.209 115.342 192.225 115.342 188.673C115.342 185.121 116.526 183.153 118.926 183.153ZM118.926 184.321C117.582 184.321 116.878 185.537 116.878 188.673C116.878 191.825 117.582 193.041 118.926 193.041C120.254 193.041 120.974 191.825 120.974 188.673C120.974 185.537 120.254 184.321 118.926 184.321Z" fill="white"/>
<path d="M149.695 183.153C151.743 183.153 152.863 184.433 152.863 185.873C152.863 187.233 151.983 188.049 150.783 188.337C152.127 188.465 153.199 189.313 153.199 190.929C153.199 192.801 151.775 194.209 149.551 194.209C148.271 194.209 147.151 193.745 146.335 192.769L147.215 191.953C147.919 192.689 148.639 193.009 149.503 193.009C150.847 193.009 151.663 192.177 151.663 190.913C151.663 189.441 150.831 188.993 149.535 188.993H148.735L148.911 187.857H149.455C150.511 187.857 151.391 187.217 151.391 185.969C151.391 184.961 150.687 184.337 149.615 184.337C148.767 184.337 148.127 184.625 147.407 185.297L146.639 184.417C147.551 183.569 148.543 183.153 149.695 183.153ZM159.247 183.313V194.017H157.775V184.881L155.279 186.401L154.639 185.361L157.951 183.313H159.247Z" fill="white"/>
<path d="M34.979 129.979V140.683H33.507V131.547L31.011 133.067L30.371 132.027L33.683 129.979H34.979ZM44.7649 136.875V138.043H43.3729V140.683H41.9489V138.043H37.3729V136.987L40.5889 129.819L41.8209 130.331L38.9249 136.875H41.9649L42.0929 133.995H43.3729V136.875H44.7649Z" fill="white"/>
<path d="M74.1558 129.979V140.683H72.6838V131.547L70.1878 133.067L69.5478 132.027L72.8598 129.979H74.1558ZM82.8377 129.979L82.6297 131.131H78.4537V134.283C79.0137 133.995 79.5897 133.867 80.1657 133.867C81.9737 133.867 83.2057 135.131 83.2057 137.259C83.2057 139.387 81.7177 140.875 79.4937 140.875C78.1337 140.875 77.1577 140.363 76.3257 139.515L77.2217 138.651C77.8617 139.339 78.5497 139.675 79.4777 139.675C80.8217 139.675 81.6697 138.795 81.6697 137.227C81.6697 135.579 80.8217 135.003 79.7177 135.003C79.1417 135.003 78.7097 135.131 78.1977 135.371H77.0457V129.979H82.8377Z" fill="white"/>
<path d="M111.872 129.979V140.683H110.4V131.547L107.904 133.067L107.264 132.027L110.576 129.979H111.872ZM118.554 133.643C120.122 133.643 121.514 134.763 121.514 137.051C121.514 139.387 119.994 140.875 118.106 140.875C115.498 140.875 114.506 138.731 114.506 135.659C114.506 132.155 116.026 129.819 118.554 129.819C119.418 129.819 120.138 130.059 120.762 130.475L120.186 131.451C119.69 131.147 119.13 130.987 118.538 130.987C116.986 130.987 116.058 132.603 115.978 135.051C116.682 134.059 117.546 133.643 118.554 133.643ZM118.106 139.707C119.37 139.707 120.026 138.667 120.026 137.099C120.026 135.403 119.306 134.811 118.298 134.811C117.338 134.811 116.538 135.403 115.994 136.283C116.058 138.619 116.682 139.707 118.106 139.707Z" fill="white"/>
<path d="M151.7 129.979V140.683H150.228V131.547L147.732 133.067L147.092 132.027L150.404 129.979H151.7ZM160.078 129.979V131.083L156.078 140.843L154.734 140.395L158.59 131.179H153.854V129.979H160.078Z" fill="white"/>
<path d="M188.632 129.979V140.683H187.16V131.547L184.664 133.067L184.024 132.027L187.336 129.979H188.632ZM196.226 134.939C197.698 135.531 198.482 136.475 198.482 137.819C198.482 139.611 196.946 140.875 194.77 140.875C192.562 140.875 191.106 139.611 191.106 137.851C191.106 136.475 191.906 135.643 193.218 135.067C192.066 134.491 191.554 133.675 191.554 132.571C191.554 130.763 193.17 129.819 194.802 129.819C196.402 129.819 198.05 130.699 198.05 132.523C198.05 133.611 197.442 134.331 196.226 134.939ZM194.802 130.923C193.698 130.923 192.994 131.515 192.994 132.587C192.994 133.691 193.746 134.091 194.978 134.491L195.25 134.587C196.21 134.043 196.61 133.483 196.61 132.571C196.61 131.579 195.97 130.923 194.802 130.923ZM194.786 139.707C196.13 139.707 196.946 138.955 196.946 137.835C196.946 136.683 196.338 136.171 194.61 135.579L194.21 135.435C193.154 135.947 192.642 136.683 192.642 137.851C192.642 139.019 193.458 139.707 194.786 139.707Z" fill="white"/>
<path d="M224.453 129.979V140.683H222.981V131.547L220.485 133.067L219.845 132.027L223.157 129.979H224.453ZM230.351 129.819C232.655 129.819 233.807 131.467 233.807 133.979C233.807 138.411 232.047 139.899 228.111 141.035L227.775 139.931C230.463 139.163 232.175 137.931 232.287 135.515C231.823 136.235 230.975 136.795 229.887 136.795C228.223 136.795 226.927 135.483 226.927 133.355C226.927 131.115 228.495 129.819 230.351 129.819ZM230.191 135.643C231.103 135.643 231.791 135.131 232.319 134.315C232.367 131.899 231.711 130.987 230.383 130.987C229.135 130.987 228.415 131.851 228.415 133.387C228.415 134.923 229.151 135.643 230.191 135.643Z" fill="white"/>
<path d="M257.482 129.819C259.45 129.819 260.698 131.083 260.698 132.747C260.698 134.747 259.418 136.171 256.138 139.451H260.954L260.778 140.683H254.458V139.515C258.234 135.579 259.162 134.555 259.162 132.811C259.162 131.691 258.442 131.035 257.402 131.035C256.506 131.035 255.914 131.387 255.226 132.203L254.234 131.435C255.098 130.363 256.138 129.819 257.482 129.819ZM266.22 129.819C268.62 129.819 269.804 131.803 269.804 135.339C269.804 138.891 268.62 140.875 266.22 140.875C263.82 140.875 262.636 138.891 262.636 135.339C262.636 131.787 263.82 129.819 266.22 129.819ZM266.22 130.987C264.876 130.987 264.172 132.203 264.172 135.339C264.172 138.491 264.876 139.707 266.22 139.707C267.548 139.707 268.268 138.491 268.268 135.339C268.268 132.203 267.548 130.987 266.22 130.987Z" fill="white"/>
<path d="M40.5991 103.313V104.417L36.5991 114.177L35.2551 113.729L39.1111 104.513H34.3751V103.313H40.5991Z" fill="white"/>
<path d="M77.8903 108.273C79.3623 108.865 80.1463 109.809 80.1463 111.153C80.1463 112.945 78.6103 114.209 76.4343 114.209C74.2263 114.209 72.7703 112.945 72.7703 111.185C72.7703 109.809 73.5703 108.977 74.8823 108.401C73.7303 107.825 73.2183 107.009 73.2183 105.905C73.2183 104.097 74.8343 103.153 76.4663 103.153C78.0663 103.153 79.7143 104.033 79.7143 105.857C79.7143 106.945 79.1063 107.665 77.8903 108.273ZM76.4663 104.257C75.3623 104.257 74.6583 104.849 74.6583 105.921C74.6583 107.025 75.4103 107.425 76.6423 107.825L76.9143 107.921C77.8743 107.377 78.2743 106.817 78.2743 105.905C78.2743 104.913 77.6343 104.257 76.4663 104.257ZM76.4503 113.041C77.7943 113.041 78.6103 112.289 78.6103 111.169C78.6103 110.017 78.0023 109.505 76.2743 108.913L75.8743 108.769C74.8183 109.281 74.3063 110.017 74.3063 111.185C74.3063 112.353 75.1223 113.041 76.4503 113.041Z" fill="white"/>
<path d="M114.872 103.153C117.176 103.153 118.328 104.801 118.328 107.313C118.328 111.745 116.568 113.233 112.632 114.369L112.296 113.265C114.984 112.497 116.696 111.265 116.808 108.849C116.344 109.569 115.496 110.129 114.408 110.129C112.744 110.129 111.448 108.817 111.448 106.689C111.448 104.449 113.016 103.153 114.872 103.153ZM114.712 108.977C115.624 108.977 116.312 108.465 116.84 107.649C116.888 105.233 116.232 104.321 114.904 104.321C113.656 104.321 112.936 105.185 112.936 106.721C112.936 108.257 113.672 108.977 114.712 108.977Z" fill="white"/>
<path d="M150.294 103.313V114.017H148.822V104.881L146.326 106.401L145.686 105.361L148.998 103.313H150.294ZM156.512 103.153C158.912 103.153 160.096 105.137 160.096 108.673C160.096 112.225 158.912 114.209 156.512 114.209C154.112 114.209 152.928 112.225 152.928 108.673C152.928 105.121 154.112 103.153 156.512 103.153ZM156.512 104.321C155.168 104.321 154.464 105.537 154.464 108.673C154.464 111.825 155.168 113.041 156.512 113.041C157.84 113.041 158.56 111.825 158.56 108.673C158.56 105.537 157.84 104.321 156.512 104.321Z" fill="white"/>
<path d="M189.578 103.313V114.017H188.106V104.881L185.61 106.401L184.97 105.361L188.282 103.313H189.578ZM196.5 103.313V114.017H195.028V104.881L192.532 106.401L191.892 105.361L195.204 103.313H196.5Z" fill="white"/>
<path d="M225.195 103.313V114.017H223.723V104.881L221.227 106.401L220.587 105.361L223.899 103.313H225.195ZM230.597 103.153C232.565 103.153 233.813 104.417 233.813 106.081C233.813 108.081 232.533 109.505 229.253 112.785H234.069L233.893 114.017H227.573V112.849C231.349 108.913 232.277 107.889 232.277 106.145C232.277 105.025 231.557 104.369 230.517 104.369C229.621 104.369 229.029 104.721 228.341 105.537L227.349 104.769C228.213 103.697 229.253 103.153 230.597 103.153Z" fill="white"/>
<path d="M259.971 103.313V114.017H258.499V104.881L256.003 106.401L255.363 105.361L258.675 103.313H259.971ZM265.325 103.153C267.373 103.153 268.493 104.433 268.493 105.873C268.493 107.233 267.613 108.049 266.413 108.337C267.757 108.465 268.829 109.313 268.829 110.929C268.829 112.801 267.405 114.209 265.181 114.209C263.901 114.209 262.781 113.745 261.965 112.769L262.845 111.953C263.549 112.689 264.269 113.009 265.133 113.009C266.477 113.009 267.293 112.177 267.293 110.913C267.293 109.441 266.461 108.993 265.165 108.993H264.365L264.541 107.857H265.085C266.141 107.857 267.021 107.217 267.021 105.969C267.021 104.961 266.317 104.337 265.245 104.337C264.397 104.337 263.757 104.625 263.037 105.297L262.269 104.417C263.181 103.569 264.173 103.153 265.325 103.153Z" fill="white"/>
<path d="M34.2559 156.486C36.2239 156.486 37.4719 157.75 37.4719 159.414C37.4719 161.414 36.1919 162.838 32.9119 166.118H37.7279L37.5519 167.35H31.2319V166.182C35.0079 162.246 35.9359 161.222 35.9359 159.478C35.9359 158.358 35.2159 157.702 34.1759 157.702C33.2799 157.702 32.6879 158.054 31.9999 158.87L31.0079 158.102C31.8719 157.03 32.9119 156.486 34.2559 156.486ZM43.6978 156.646V167.35H42.2258V158.214L39.7298 159.734L39.0898 158.694L42.4018 156.646H43.6978Z" fill="white"/>
<path d="M71.6827 156.486C73.6507 156.486 74.8987 157.75 74.8987 159.414C74.8987 161.414 73.6187 162.838 70.3387 166.118H75.1547L74.9787 167.35H68.6587V166.182C72.4347 162.246 73.3627 161.222 73.3627 159.478C73.3627 158.358 72.6427 157.702 71.6027 157.702C70.7067 157.702 70.1147 158.054 69.4267 158.87L68.4347 158.102C69.2987 157.03 70.3387 156.486 71.6827 156.486ZM79.6045 156.486C81.5725 156.486 82.8205 157.75 82.8205 159.414C82.8205 161.414 81.5405 162.838 78.2605 166.118H83.0765L82.9005 167.35H76.5805V166.182C80.3565 162.246 81.2845 161.222 81.2845 159.478C81.2845 158.358 80.5645 157.702 79.5245 157.702C78.6285 157.702 78.0365 158.054 77.3485 158.87L76.3565 158.102C77.2205 157.03 78.2605 156.486 79.6045 156.486Z" fill="white"/>
<path d="M110.126 156.486C112.094 156.486 113.342 157.75 113.342 159.414C113.342 161.414 112.062 162.838 108.782 166.118H113.598L113.422 167.35H107.102V166.182C110.878 162.246 111.806 161.222 111.806 159.478C111.806 158.358 111.086 157.702 110.046 157.702C109.15 157.702 108.558 158.054 107.87 158.87L106.878 158.102C107.742 157.03 108.782 156.486 110.126 156.486ZM117.999 156.486C120.047 156.486 121.167 157.766 121.167 159.206C121.167 160.566 120.287 161.382 119.087 161.67C120.431 161.798 121.503 162.646 121.503 164.262C121.503 166.134 120.079 167.542 117.855 167.542C116.575 167.542 115.455 167.078 114.639 166.102L115.519 165.286C116.223 166.022 116.943 166.342 117.807 166.342C119.151 166.342 119.967 165.51 119.967 164.246C119.967 162.774 119.135 162.326 117.839 162.326H117.039L117.215 161.19H117.759C118.815 161.19 119.695 160.55 119.695 159.302C119.695 158.294 118.991 157.67 117.919 157.67C117.071 157.67 116.431 157.958 115.711 158.63L114.943 157.75C115.855 156.902 116.847 156.486 117.999 156.486Z" fill="white"/>
<path d="M148.977 156.486C150.945 156.486 152.193 157.75 152.193 159.414C152.193 161.414 150.913 162.838 147.633 166.118H152.449L152.273 167.35H145.953V166.182C149.729 162.246 150.657 161.222 150.657 159.478C150.657 158.358 149.937 157.702 148.897 157.702C148.001 157.702 147.409 158.054 146.721 158.87L145.729 158.102C146.593 157.03 147.633 156.486 148.977 156.486ZM161.283 163.542V164.71H159.891V167.35H158.467V164.71H153.891V163.654L157.107 156.486L158.339 156.998L155.443 163.542H158.483L158.611 160.662H159.891V163.542H161.283Z" fill="white"/>
<path d="M187.011 156.486C188.979 156.486 190.227 157.75 190.227 159.414C190.227 161.414 188.947 162.838 185.667 166.118H190.483L190.307 167.35H183.987V166.182C187.763 162.246 188.691 161.222 188.691 159.478C188.691 158.358 187.971 157.702 186.931 157.702C186.035 157.702 185.443 158.054 184.755 158.87L183.763 158.102C184.627 157.03 185.667 156.486 187.011 156.486ZM198.213 156.646L198.005 157.798H193.829V160.95C194.389 160.662 194.965 160.534 195.541 160.534C197.349 160.534 198.581 161.798 198.581 163.926C198.581 166.054 197.093 167.542 194.869 167.542C193.509 167.542 192.533 167.03 191.701 166.182L192.597 165.318C193.237 166.006 193.925 166.342 194.853 166.342C196.197 166.342 197.045 165.462 197.045 163.894C197.045 162.246 196.197 161.67 195.093 161.67C194.517 161.67 194.085 161.798 193.573 162.038H192.421V156.646H198.213Z" fill="white"/>
<path d="M222.87 156.486C224.838 156.486 226.086 157.75 226.086 159.414C226.086 161.414 224.806 162.838 221.526 166.118H226.342L226.166 167.35H219.846V166.182C223.622 162.246 224.55 161.222 224.55 159.478C224.55 158.358 223.83 157.702 222.79 157.702C221.894 157.702 221.302 158.054 220.614 158.87L219.622 158.102C220.486 157.03 221.526 156.486 222.87 156.486ZM232.072 160.31C233.64 160.31 235.032 161.43 235.032 163.718C235.032 166.054 233.512 167.542 231.624 167.542C229.016 167.542 228.024 165.398 228.024 162.326C228.024 158.822 229.544 156.486 232.072 156.486C232.936 156.486 233.656 156.726 234.28 157.142L233.704 158.118C233.208 157.814 232.648 157.654 232.056 157.654C230.504 157.654 229.576 159.27 229.496 161.718C230.2 160.726 231.064 160.31 232.072 160.31ZM231.624 166.374C232.888 166.374 233.544 165.334 233.544 163.766C233.544 162.07 232.824 161.478 231.816 161.478C230.856 161.478 230.056 162.07 229.512 162.95C229.576 165.286 230.2 166.374 231.624 166.374Z" fill="white"/>
<path d="M258.467 156.486C260.435 156.486 261.683 157.75 261.683 159.414C261.683 161.414 260.403 162.838 257.123 166.118H261.939L261.763 167.35H255.443V166.182C259.219 162.246 260.147 161.222 260.147 159.478C260.147 158.358 259.427 157.702 258.387 157.702C257.491 157.702 256.899 158.054 256.211 158.87L255.219 158.102C256.083 157.03 257.123 156.486 258.467 156.486ZM269.208 156.646V157.75L265.208 167.51L263.864 167.062L267.72 157.846H262.984V156.646H269.208Z" fill="white"/>
</svg>
