<svg width="300" height="210" viewBox="0 0 300 210" fill="none" xmlns="http://www.w3.org/2000/svg">
<rect width="300" height="210" fill="#121517"/>
<rect x="86.9585" y="85.25" width="30" height="30" rx="4" fill="white"/>
<path fill-rule="evenodd" clip-rule="evenodd" d="M113.467 94.1292L101.347 108.46L99.3187 108.324L94.0657 100.903L96.7282 98.9508L100.491 104.259L110.856 92.0403L113.467 94.1292Z" fill="black"/>
<path d="M133.257 93.029C135.084 93.029 136.113 93.533 137.268 94.457L136.176 95.738C135.273 95.003 134.391 94.667 133.383 94.667C131.199 94.667 129.372 96.137 129.372 100.505C129.372 104.684 131.115 106.322 133.362 106.322C134.727 106.322 135.609 105.713 136.428 105.104L137.436 106.385C136.659 107.204 135.252 108.002 133.299 108.002C129.792 108.002 127.251 105.377 127.251 100.505C127.251 95.612 129.981 93.029 133.257 93.029ZM145.05 96.431C147.066 96.431 148.263 97.733 148.263 99.812V107.75H146.331V100.085C146.331 98.426 145.617 97.943 144.567 97.943C143.37 97.943 142.509 98.72 141.774 99.875V107.75H139.842V92.252L141.774 92.042V98.216C142.572 97.124 143.664 96.431 145.05 96.431ZM160.505 101.891C160.505 102.269 160.484 102.626 160.463 102.878H153.407C153.596 105.44 154.793 106.427 156.389 106.427C157.481 106.427 158.3 106.133 159.266 105.461L160.106 106.616C159.014 107.477 157.775 108.002 156.242 108.002C153.155 108.002 151.349 105.839 151.349 102.332C151.349 98.888 153.092 96.431 155.948 96.431C158.93 96.431 160.505 98.51 160.505 101.891ZM158.594 101.45V101.324C158.594 99.161 157.733 97.964 155.99 97.964C154.52 97.964 153.554 98.993 153.407 101.45H158.594ZM167.725 96.431C169.027 96.431 170.077 96.767 171.106 97.628L170.182 98.846C169.426 98.3 168.733 98.027 167.809 98.027C166.066 98.027 164.974 99.392 164.974 102.269C164.974 105.167 166.066 106.364 167.809 106.364C168.733 106.364 169.384 106.07 170.224 105.524L171.106 106.784C170.119 107.582 169.006 108.002 167.725 108.002C164.743 108.002 162.895 105.881 162.895 102.311C162.895 98.783 164.722 96.431 167.725 96.431ZM175.653 92V107.75H173.721V92.231L175.653 92ZM182.016 96.683L177.942 101.576L182.478 107.75H180.168L175.779 101.702L179.853 96.683H182.016ZM189.528 96.431C192.027 96.431 193.644 98.51 193.644 102.206C193.644 105.671 191.985 108.002 189.297 108.002C188.079 108.002 187.113 107.456 186.357 106.532L186.168 107.75H184.467V92.231L186.399 92V98.069C187.155 97.04 188.184 96.431 189.528 96.431ZM188.835 106.469C190.452 106.469 191.565 105.23 191.565 102.206C191.565 99.056 190.536 97.964 188.982 97.964C187.764 97.964 186.966 98.804 186.399 99.686V104.978C186.966 105.86 187.848 106.469 188.835 106.469ZM201.094 96.431C204.244 96.431 206.008 98.699 206.008 102.206C206.008 105.629 204.202 108.002 201.073 108.002C197.923 108.002 196.138 105.734 196.138 102.227C196.138 98.804 197.944 96.431 201.094 96.431ZM201.094 97.985C199.246 97.985 198.217 99.329 198.217 102.227C198.217 105.104 199.225 106.448 201.073 106.448C202.921 106.448 203.929 105.104 203.929 102.206C203.929 99.329 202.921 97.985 201.094 97.985ZM213.032 101.828L216.875 107.75H214.544L211.835 103.067L209.084 107.75H206.9L210.764 101.912L207.341 96.683H209.609L211.919 100.736L214.25 96.683H216.434L213.032 101.828Z" fill="white"/>
</svg>
