<svg width="301" height="210" viewBox="0 0 301 210" fill="none" xmlns="http://www.w3.org/2000/svg">
<rect width="300" height="210" transform="translate(0.75)" fill="#121517"/>
<rect x="45.25" y="36.5" width="211" height="45" rx="3.5" fill="black" stroke="white"/>
<rect x="45.25" y="87.5" width="211" height="105" rx="3.5" fill="black" stroke="white"/>
<path d="M211.25 36.5H252.75C254.683 36.5 256.25 38.067 256.25 40V78C256.25 79.933 254.683 81.5 252.75 81.5H211.25V36.5Z" fill="#111111" stroke="white"/>
<path d="M48.6101 15.186C49.9401 15.186 50.7801 15.578 51.5921 16.306L50.8641 17.118C50.1361 16.53 49.4641 16.278 48.6661 16.278C47.7001 16.278 46.9301 16.726 46.9301 17.65C46.9301 18.462 47.3081 18.854 49.0441 19.386C50.5841 19.862 51.9001 20.464 51.9001 22.312C51.9001 23.992 50.6261 25.168 48.4561 25.168C47.0701 25.168 45.9781 24.706 45.1801 23.922L45.9221 23.096C46.6361 23.698 47.3921 24.076 48.4421 24.076C49.5761 24.076 50.5141 23.516 50.5141 22.354C50.5141 21.416 50.0661 20.996 48.4281 20.492C46.5521 19.918 45.5721 19.204 45.5721 17.706C45.5721 16.222 46.8321 15.186 48.6101 15.186ZM58.9335 17.622L56.4695 25.042C55.9515 26.61 55.0835 27.758 53.0395 27.982L52.8995 26.974C54.3975 26.722 54.8175 26.148 55.2375 25H54.8035L52.3255 17.622H53.6975L55.6715 24.062L57.6035 17.622H58.9335ZM67.8122 17.454C69.0162 17.454 69.8142 18.322 69.8142 19.708V25H68.5262V19.89C68.5262 18.784 68.0502 18.462 67.4902 18.462C66.6922 18.462 66.2582 18.98 65.7542 19.764V25H64.4662V19.89C64.4662 18.784 63.9902 18.462 63.4302 18.462C62.6322 18.462 62.1842 18.98 61.6942 19.764V25H60.4062V17.622H61.5122L61.6242 18.7C62.1142 17.958 62.7862 17.454 63.7522 17.454C64.6622 17.454 65.3342 17.944 65.6142 18.784C66.1462 17.986 66.8182 17.454 67.8122 17.454ZM75.7841 17.454C77.4501 17.454 78.5281 18.84 78.5281 21.304C78.5281 23.614 77.4221 25.168 75.6301 25.168C74.8181 25.168 74.1741 24.804 73.6701 24.188L73.5441 25H72.4101V14.654L73.6981 14.5V18.546C74.2021 17.86 74.8881 17.454 75.7841 17.454ZM75.3221 24.146C76.4001 24.146 77.1421 23.32 77.1421 21.304C77.1421 19.204 76.4561 18.476 75.4201 18.476C74.6081 18.476 74.0761 19.036 73.6981 19.624V23.152C74.0761 23.74 74.6641 24.146 75.3221 24.146ZM83.4946 17.454C85.5946 17.454 86.7706 18.966 86.7706 21.304C86.7706 23.586 85.5666 25.168 83.4806 25.168C81.3806 25.168 80.1906 23.656 80.1906 21.318C80.1906 19.036 81.3946 17.454 83.4946 17.454ZM83.4946 18.49C82.2626 18.49 81.5766 19.386 81.5766 21.318C81.5766 23.236 82.2486 24.132 83.4806 24.132C84.7126 24.132 85.3846 23.236 85.3846 21.304C85.3846 19.386 84.7126 18.49 83.4946 18.49ZM90.3684 25.168C89.4304 25.168 88.8284 24.594 88.8284 23.544V14.654L90.1164 14.5V23.516C90.1164 23.908 90.2424 24.104 90.5784 24.104C90.7604 24.104 90.9144 24.076 91.0544 24.02L91.3904 24.916C91.1104 25.07 90.7464 25.168 90.3684 25.168Z" fill="white"/>
<path d="M64.156 65L63.22 61.886H58.522L57.586 65H55.858L59.836 52.598H61.996L65.956 65H64.156ZM58.936 60.5H62.806L60.88 54.02L58.936 60.5ZM74.4744 65L73.5384 61.886H68.8404L67.9044 65H66.1764L70.1544 52.598H72.3144L76.2744 65H74.4744ZM69.2544 60.5H73.1244L71.1984 54.02L69.2544 60.5Z" fill="white"/>
<path d="M65.156 148L64.22 144.886H59.522L58.586 148H56.858L60.836 135.598H62.996L66.956 148H65.156ZM59.936 143.5H63.806L61.88 137.02L59.936 143.5ZM74.3404 141.448C75.7804 141.7 77.2024 142.366 77.2024 144.472C77.2024 147.1 75.1684 148 72.2884 148H68.8684V135.598H71.8024C74.8624 135.598 76.6624 136.57 76.6624 138.73C76.6624 140.26 75.5464 141.196 74.3404 141.448ZM71.9824 136.948H70.5784V140.854H72.4504C73.8364 140.854 74.9164 140.17 74.9164 138.856C74.9164 137.326 73.8184 136.948 71.9824 136.948ZM72.2884 146.632C74.0884 146.632 75.4024 146.272 75.4024 144.472C75.4024 142.726 74.1064 142.168 72.6124 142.168H70.5784V146.632H72.2884ZM86.5335 135.598L86.3355 136.966H81.5295V141.016H85.7055V142.384H81.5295V146.632H86.6775V148H79.8195V135.598H86.5335ZM97.5523 135.598L93.5923 148H91.7563L87.7603 135.598H89.5963L92.7103 146.146L95.8243 135.598H97.5523Z" fill="white"/>
<path d="M65.156 116L64.22 112.886H59.522L58.586 116H56.858L60.836 103.598H62.996L66.956 116H65.156ZM59.936 111.5H63.806L61.88 105.02L59.936 111.5ZM75.4744 116L74.5384 112.886H69.8404L68.9044 116H67.1764L71.1544 103.598H73.3144L77.2744 116H75.4744ZM70.2544 111.5H74.1244L72.1984 105.02L70.2544 111.5ZM82.4447 103.598C85.4327 103.598 87.2687 104.822 87.2687 107.432C87.2687 110.276 85.1987 111.446 82.4627 111.446H80.8967V116H79.1867V103.598H82.4447ZM82.3907 110.096C84.2267 110.096 85.4507 109.556 85.4507 107.45C85.4507 105.596 84.2627 104.93 82.4267 104.93H80.8967V110.096H82.3907ZM91.3557 103.598V114.506H96.4497L96.2517 116H89.6457V103.598H91.3557Z" fill="white"/>
<path d="M227.75 55L235.75 63L243.75 55" stroke="white" stroke-width="2"/>
<line x1="78.25" y1="46" x2="78.25" y2="71" stroke="white"/>
<rect x="45.75" y="157" width="210" height="31" fill="#262626"/>
<path d="M65.156 180L64.22 176.886H59.522L58.586 180H56.858L60.836 167.598H62.996L66.956 180H65.156ZM59.936 175.5H63.806L61.88 169.02L59.936 175.5ZM71.4604 167.598C74.6284 167.598 77.6704 168.588 77.6704 173.736C77.6704 178.794 74.5204 180 71.8384 180H68.8684V167.598H71.4604ZM71.8384 168.966H70.5784V178.65H71.9644C73.9084 178.65 75.8524 177.822 75.8524 173.736C75.8524 169.542 73.8184 168.966 71.8384 168.966ZM85.9243 173.448C87.3643 173.7 88.7863 174.366 88.7863 176.472C88.7863 179.1 86.7523 180 83.8723 180H80.4523V167.598H83.3863C86.4463 167.598 88.2463 168.57 88.2463 170.73C88.2463 172.26 87.1303 173.196 85.9243 173.448ZM83.5663 168.948H82.1623V172.854H84.0343C85.4203 172.854 86.5003 172.17 86.5003 170.856C86.5003 169.326 85.4023 168.948 83.5663 168.948ZM83.8723 178.632C85.6723 178.632 86.9863 178.272 86.9863 176.472C86.9863 174.726 85.6903 174.168 84.1963 174.168H82.1623V178.632H83.8723ZM98.1175 167.598L97.9195 168.966H93.1135V173.016H97.2895V174.384H93.1135V178.632H98.2615V180H91.4035V167.598H98.1175Z" fill="white"/>
</svg>
