<svg width="300" height="210" viewBox="0 0 300 210" fill="none" xmlns="http://www.w3.org/2000/svg">
<rect width="300" height="210" fill="#121517"/>
<path d="M31.6657 66.2714C32.3797 66.2714 32.8837 66.7754 32.8837 67.4334C32.8837 68.0914 32.3797 68.5954 31.6657 68.5954C30.9517 68.5954 30.4617 68.0914 30.4617 67.4334C30.4617 66.7754 30.9517 66.2714 31.6657 66.2714ZM32.6737 70.0934V77.5134H30.6857V70.0934H32.6737Z" fill="white"/>
<circle cx="31.6814" cy="73.0017" r="11.0017" stroke="white" stroke-width="2"/>
<rect x="51.5903" y="61.5" width="227.91" height="83.5984" rx="3.5" fill="black" stroke="white"/>
<path d="M69.6623 80.6858C72.9563 80.6858 76.0883 81.7118 76.0883 86.8598C76.0883 91.8818 73.0283 93.1418 69.9683 93.1418H66.4043V80.6858H69.6623ZM70.0763 82.6298H69.0503V91.1978H70.1303C71.9483 91.1978 73.3343 90.3518 73.3343 86.8598C73.3343 83.2958 71.8763 82.6298 70.0763 82.6298ZM79.3174 78.6878C80.2354 78.6878 80.8834 79.3358 80.8834 80.1818C80.8834 81.0278 80.2354 81.6758 79.3174 81.6758C78.3994 81.6758 77.7694 81.0278 77.7694 80.1818C77.7694 79.3358 78.3994 78.6878 79.3174 78.6878ZM80.6134 83.6018V93.1418H78.0574V83.6018H80.6134ZM86.3054 83.3138C87.6914 83.3138 88.8614 83.7458 89.7614 84.4658L88.7894 85.9238C88.0154 85.4378 87.2414 85.1678 86.4134 85.1678C85.5674 85.1678 85.0994 85.5098 85.0994 86.0318C85.0994 86.5898 85.4234 86.8418 87.0974 87.3278C89.0054 87.8498 90.0854 88.6418 90.0854 90.3338C90.0854 92.3138 88.2314 93.4298 85.9634 93.4298C84.3074 93.4298 82.9754 92.8718 82.0754 92.0438L83.3354 90.6398C84.0554 91.1978 84.9374 91.5758 85.8914 91.5758C86.8454 91.5758 87.4574 91.1798 87.4574 90.5318C87.4574 89.8118 87.1154 89.5778 85.3514 89.0918C83.4254 88.5518 82.5254 87.5978 82.5254 86.1578C82.5254 84.5378 84.0014 83.3138 86.3054 83.3138ZM96.8627 83.3138C99.3827 83.3138 100.445 85.2758 100.445 88.3538C100.445 91.2698 99.0587 93.4298 96.6647 93.4298C95.7107 93.4298 94.9007 93.1058 94.3067 92.4038V96.8138L91.7507 97.1018V83.6018H94.0007L94.1267 84.7178C94.9007 83.7278 95.9267 83.3138 96.8627 83.3138ZM95.9087 91.5218C97.0787 91.5218 97.7807 90.6038 97.7807 88.3718C97.7807 85.9778 97.1687 85.2038 96.0707 85.2038C95.3687 85.2038 94.7387 85.7078 94.3067 86.4278V90.5858C94.7207 91.2158 95.2607 91.5218 95.9087 91.5218ZM104.849 93.4298C103.301 93.4298 102.383 92.4938 102.383 90.8378V79.8038L104.939 79.5158V90.7658C104.939 91.1798 105.101 91.3958 105.461 91.3958C105.659 91.3958 105.821 91.3598 105.965 91.2878L106.487 93.1058C106.073 93.2858 105.497 93.4298 104.849 93.4298ZM115.09 90.4958C115.09 91.2698 115.324 91.5398 115.792 91.7018L115.252 93.3938C114.172 93.2858 113.452 92.9438 113.056 92.0078C112.372 93.0338 111.328 93.4298 110.194 93.4298C108.286 93.4298 107.098 92.2058 107.098 90.4778C107.098 88.3898 108.664 87.2558 111.49 87.2558H112.588V86.7878C112.588 85.5998 112.084 85.2218 110.878 85.2218C110.248 85.2218 109.33 85.4018 108.358 85.7258L107.782 84.0158C108.97 83.5478 110.23 83.3138 111.31 83.3138C113.956 83.3138 115.09 84.4838 115.09 86.6438V90.4958ZM110.896 91.5938C111.634 91.5938 112.192 91.2158 112.588 90.5318V88.7138H111.742C110.356 88.7138 109.672 89.2178 109.672 90.2618C109.672 91.1078 110.104 91.5938 110.896 91.5938ZM125.46 83.6018L122.382 93.1598C121.644 95.4818 120.15 96.9038 117.234 97.1018L116.964 95.2658C118.854 95.0138 119.502 94.4378 120.024 93.1418H119.142L116.172 83.6018H118.89L120.798 91.4858L122.814 83.6018H125.46ZM136.401 83.3138C138.057 83.3138 139.065 84.3938 139.065 86.1938V93.1418H136.509V86.6258C136.509 85.5278 136.095 85.2218 135.465 85.2218C134.745 85.2218 134.151 85.7078 133.629 86.5358V93.1418H131.073V79.8038L133.629 79.5338V84.6818C134.385 83.7998 135.267 83.3138 136.401 83.3138ZM149.561 88.1558C149.561 88.4798 149.525 88.8758 149.507 89.1458H143.549C143.729 90.9818 144.593 91.5218 145.817 91.5218C146.627 91.5218 147.311 91.2698 148.139 90.6938L149.201 92.1338C148.265 92.8898 147.077 93.4298 145.583 93.4298C142.523 93.4298 140.921 91.4138 140.921 88.4258C140.921 85.5458 142.469 83.3138 145.259 83.3138C147.959 83.3138 149.561 85.1138 149.561 88.1558ZM147.023 87.5438V87.4358C147.023 85.9958 146.537 85.0598 145.313 85.0598C144.305 85.0598 143.693 85.7258 143.549 87.5438H147.023ZM153.822 93.4298C152.274 93.4298 151.356 92.4938 151.356 90.8378V79.8038L153.912 79.5158V90.7658C153.912 91.1798 154.074 91.3958 154.434 91.3958C154.632 91.3958 154.794 91.3598 154.938 91.2878L155.46 93.1058C155.046 93.2858 154.47 93.4298 153.822 93.4298ZM161.884 83.3138C164.404 83.3138 165.466 85.2758 165.466 88.3538C165.466 91.2698 164.08 93.4298 161.686 93.4298C160.732 93.4298 159.922 93.1058 159.328 92.4038V96.8138L156.772 97.1018V83.6018H159.022L159.148 84.7178C159.922 83.7278 160.948 83.3138 161.884 83.3138ZM160.93 91.5218C162.1 91.5218 162.802 90.6038 162.802 88.3718C162.802 85.9778 162.19 85.2038 161.092 85.2038C160.39 85.2038 159.76 85.7078 159.328 86.4278V90.5858C159.742 91.2158 160.282 91.5218 160.93 91.5218Z" fill="white"/>
<path d="M70.1483 112.345C73.1363 112.345 74.9723 113.569 74.9723 116.179C74.9723 119.023 72.9023 120.193 70.1663 120.193H68.6003V124.747H66.8903V112.345H70.1483ZM70.0943 118.843C71.9303 118.843 73.1543 118.303 73.1543 116.197C73.1543 114.343 71.9663 113.677 70.1303 113.677H68.6003V118.843H70.0943ZM81.3813 115.045C81.6873 115.045 82.0293 115.081 82.3173 115.153L82.0113 116.773C81.7233 116.701 81.5253 116.665 81.1833 116.665C79.9953 116.665 79.3113 117.511 78.9153 119.329V124.747H77.2593V115.261H78.6813L78.8433 117.187C79.3473 115.765 80.2293 115.045 81.3813 115.045ZM87.5909 115.045C90.2909 115.045 91.8029 116.989 91.8029 119.995C91.8029 122.929 90.2549 124.963 87.5729 124.963C84.8729 124.963 83.3429 123.019 83.3429 120.013C83.3429 117.079 84.8909 115.045 87.5909 115.045ZM87.5909 116.377C86.0069 116.377 85.1249 117.529 85.1249 120.013C85.1249 122.479 85.9889 123.631 87.5729 123.631C89.1569 123.631 90.0209 122.479 90.0209 119.995C90.0209 117.529 89.1569 116.377 87.5909 116.377ZM101.153 115.261L97.9311 124.747H95.9331L92.6571 115.261H94.4571L96.9411 123.271L99.4071 115.261H101.153ZM103.856 110.707C104.558 110.707 105.026 111.193 105.026 111.841C105.026 112.471 104.558 112.957 103.856 112.957C103.172 112.957 102.704 112.471 102.704 111.841C102.704 111.193 103.172 110.707 103.856 110.707ZM104.702 115.261V124.747H103.046V115.261H104.702ZM113.815 111.247L115.471 111.445V124.747H114.013L113.851 123.433C113.239 124.387 112.285 124.963 111.115 124.963C108.811 124.963 107.533 123.001 107.533 120.049C107.533 117.151 108.937 115.045 111.259 115.045C112.375 115.045 113.185 115.549 113.815 116.215V111.247ZM111.475 123.649C112.537 123.649 113.185 123.127 113.815 122.245V117.601C113.221 116.845 112.555 116.359 111.619 116.359C110.197 116.359 109.315 117.547 109.315 120.013C109.315 122.515 110.107 123.649 111.475 123.649ZM126.048 119.725C126.048 120.049 126.03 120.355 126.012 120.571H119.964C120.126 122.767 121.152 123.613 122.52 123.613C123.456 123.613 124.158 123.361 124.986 122.785L125.706 123.775C124.77 124.513 123.708 124.963 122.394 124.963C119.748 124.963 118.2 123.109 118.2 120.103C118.2 117.151 119.694 115.045 122.142 115.045C124.698 115.045 126.048 116.827 126.048 119.725ZM124.41 119.347V119.239C124.41 117.385 123.672 116.359 122.178 116.359C120.918 116.359 120.09 117.241 119.964 119.347H124.41ZM137 115.045C138.116 115.045 139.016 115.333 139.898 116.071L139.106 117.115C138.458 116.647 137.864 116.413 137.072 116.413C135.578 116.413 134.642 117.583 134.642 120.049C134.642 122.533 135.578 123.559 137.072 123.559C137.864 123.559 138.422 123.307 139.142 122.839L139.898 123.919C139.052 124.603 138.098 124.963 137 124.963C134.444 124.963 132.86 123.145 132.86 120.085C132.86 117.061 134.426 115.045 137 115.045ZM145.528 115.045C148.228 115.045 149.74 116.989 149.74 119.995C149.74 122.929 148.192 124.963 145.51 124.963C142.81 124.963 141.28 123.019 141.28 120.013C141.28 117.079 142.828 115.045 145.528 115.045ZM145.528 116.377C143.944 116.377 143.062 117.529 143.062 120.013C143.062 122.479 143.926 123.631 145.51 123.631C147.094 123.631 147.958 122.479 147.958 119.995C147.958 117.529 147.094 116.377 145.528 116.377ZM156.94 115.045C158.686 115.045 159.694 116.143 159.694 117.943V124.747H158.038V118.177C158.038 116.755 157.462 116.341 156.544 116.341C155.482 116.341 154.762 117.007 154.132 118.015V124.747H152.476V115.261H153.898L154.042 116.665C154.69 115.693 155.698 115.045 156.94 115.045ZM167.181 123.181L167.811 124.315C167.181 124.747 166.497 124.963 165.687 124.963C164.085 124.963 163.131 124.027 163.131 122.263V116.539H161.475V115.261H163.131V113.119L164.787 112.921V115.261H167.037L166.857 116.539H164.787V122.191C164.787 123.145 165.093 123.595 165.921 123.595C166.335 123.595 166.713 123.469 167.181 123.181ZM176.515 119.725C176.515 120.049 176.497 120.355 176.479 120.571H170.431C170.593 122.767 171.619 123.613 172.987 123.613C173.923 123.613 174.625 123.361 175.453 122.785L176.173 123.775C175.237 124.513 174.175 124.963 172.861 124.963C170.215 124.963 168.667 123.109 168.667 120.103C168.667 117.151 170.161 115.045 172.609 115.045C175.165 115.045 176.515 116.827 176.515 119.725ZM174.877 119.347V119.239C174.877 117.385 174.139 116.359 172.645 116.359C171.385 116.359 170.557 117.241 170.431 119.347H174.877ZM182.708 119.671L186.002 124.747H184.004L181.682 120.733L179.324 124.747H177.452L180.764 119.743L177.83 115.261H179.774L181.754 118.735L183.752 115.261H185.624L182.708 119.671ZM191.966 123.181L192.596 124.315C191.966 124.747 191.282 124.963 190.472 124.963C188.87 124.963 187.916 124.027 187.916 122.263V116.539H186.26V115.261H187.916V113.119L189.572 112.921V115.261H191.822L191.642 116.539H189.572V122.191C189.572 123.145 189.878 123.595 190.706 123.595C191.12 123.595 191.498 123.469 191.966 123.181ZM201.368 115.261V124.747H199.946L199.82 123.271C199.1 124.423 198.218 124.963 196.868 124.963C195.212 124.963 194.222 123.919 194.222 122.065V115.261H195.878V121.885C195.878 123.181 196.31 123.667 197.336 123.667C198.362 123.667 199.136 122.983 199.712 122.029V115.261H201.368ZM211.179 122.533C211.179 123.361 211.485 123.631 211.971 123.811L211.593 124.963C210.639 124.855 210.027 124.477 209.739 123.541C209.073 124.531 208.065 124.963 206.913 124.963C205.023 124.963 203.889 123.793 203.889 122.101C203.889 120.067 205.419 118.969 208.065 118.969H209.523V118.267C209.523 116.899 208.857 116.395 207.543 116.395C206.841 116.395 205.959 116.575 204.987 116.899L204.573 115.693C205.743 115.261 206.787 115.045 207.849 115.045C210.135 115.045 211.179 116.215 211.179 118.195V122.533ZM207.291 123.721C208.263 123.721 208.983 123.235 209.523 122.245V120.067H208.281C206.535 120.067 205.653 120.715 205.653 122.011C205.653 123.127 206.211 123.721 207.291 123.721ZM216.47 124.963C215.264 124.963 214.49 124.225 214.49 122.875V111.445L216.146 111.247V122.839C216.146 123.343 216.308 123.595 216.74 123.595C216.974 123.595 217.172 123.559 217.352 123.487L217.784 124.639C217.424 124.837 216.956 124.963 216.47 124.963ZM229.081 115.045C230.809 115.045 231.835 116.161 231.835 117.943V124.747H230.179V118.177C230.179 116.755 229.567 116.341 228.667 116.341C227.641 116.341 226.903 117.007 226.273 117.997V124.747H224.617V111.463L226.273 111.283V116.575C226.957 115.639 227.893 115.045 229.081 115.045ZM242.328 119.725C242.328 120.049 242.31 120.355 242.292 120.571H236.244C236.406 122.767 237.432 123.613 238.8 123.613C239.736 123.613 240.438 123.361 241.266 122.785L241.986 123.775C241.05 124.513 239.988 124.963 238.674 124.963C236.028 124.963 234.48 123.109 234.48 120.103C234.48 117.151 235.974 115.045 238.422 115.045C240.978 115.045 242.328 116.827 242.328 119.725ZM240.69 119.347V119.239C240.69 117.385 239.952 116.359 238.458 116.359C237.198 116.359 236.37 117.241 236.244 119.347H240.69ZM246.95 124.963C245.744 124.963 244.97 124.225 244.97 122.875V111.445L246.626 111.247V122.839C246.626 123.343 246.788 123.595 247.22 123.595C247.454 123.595 247.652 123.559 247.832 123.487L248.264 124.639C247.904 124.837 247.436 124.963 246.95 124.963ZM254.69 115.045C257.21 115.045 258.2 117.007 258.2 119.995C258.2 122.875 256.922 124.963 254.474 124.963C253.448 124.963 252.602 124.621 251.99 123.883V128.383L250.334 128.581V115.261H251.756L251.882 116.539C252.584 115.567 253.61 115.045 254.69 115.045ZM254.078 123.613C255.59 123.613 256.418 122.479 256.418 119.995C256.418 117.529 255.698 116.359 254.276 116.359C253.268 116.359 252.494 117.079 251.99 117.835V122.461C252.476 123.199 253.214 123.613 254.078 123.613ZM261.277 122.461C261.997 122.461 262.537 123.019 262.537 123.703C262.537 124.405 261.997 124.963 261.277 124.963C260.575 124.963 260.035 124.405 260.035 123.703C260.035 123.019 260.575 122.461 261.277 122.461Z" fill="white"/>
</svg>
