<svg width="301" height="210" viewBox="0 0 301 210" fill="none" xmlns="http://www.w3.org/2000/svg">
<rect width="300" height="210" transform="translate(0.5)" fill="#121517"/>
<rect x="24.0112" y="37.3704" width="252.978" height="151.625" fill="#121517" stroke="white"/>
<rect x="29.2593" y="43.0955" width="117.475" height="61.0015" fill="#121517" stroke="white"/>
<rect x="29.2593" y="110.019" width="241.527" height="72.6339" fill="#121517" stroke="white"/>
<rect x="153.516" y="43.0955" width="117.475" height="61.0015" fill="#121517" stroke="white"/>
<path d="M27.9032 19.1024C31.0712 19.1024 34.1132 20.0924 34.1132 25.2404C34.1132 30.2984 30.9632 31.5044 28.2812 31.5044H25.3112V19.1024H27.9032ZM28.2812 20.4704H27.0212V30.1544H28.4072C30.3512 30.1544 32.2952 29.3264 32.2952 25.2404C32.2952 21.0464 30.2612 20.4704 28.2812 20.4704ZM43.0194 29.2904C43.0194 30.1184 43.3254 30.3884 43.8114 30.5684L43.4334 31.7204C42.4794 31.6124 41.8674 31.2344 41.5794 30.2984C40.9134 31.2884 39.9054 31.7204 38.7534 31.7204C36.8634 31.7204 35.7294 30.5504 35.7294 28.8584C35.7294 26.8244 37.2594 25.7264 39.9054 25.7264H41.3634V25.0244C41.3634 23.6564 40.6974 23.1524 39.3834 23.1524C38.6814 23.1524 37.7994 23.3324 36.8274 23.6564L36.4134 22.4504C37.5834 22.0184 38.6274 21.8024 39.6894 21.8024C41.9754 21.8024 43.0194 22.9724 43.0194 24.9524V29.2904ZM39.1314 30.4784C40.1034 30.4784 40.8234 29.9924 41.3634 29.0024V26.8244H40.1214C38.3754 26.8244 37.4934 27.4724 37.4934 28.7684C37.4934 29.8844 38.0514 30.4784 39.1314 30.4784ZM48.9944 21.8024C50.3264 21.8024 51.3164 22.1984 52.2164 22.8824L51.5144 23.9264C50.6684 23.3864 49.9304 23.1164 49.0484 23.1164C47.9684 23.1164 47.3024 23.6024 47.3024 24.3584C47.3024 25.1324 47.8064 25.4924 49.3364 25.8884C51.3344 26.3924 52.4864 27.1844 52.4864 28.8404C52.4864 30.8204 50.6684 31.7204 48.7424 31.7204C47.1404 31.7204 45.9884 31.1984 45.1604 30.4784L46.0424 29.4704C46.7984 30.0464 47.6804 30.3884 48.7064 30.3884C49.9484 30.3884 50.7404 29.8484 50.7404 28.9484C50.7404 28.0124 50.2724 27.6524 48.4364 27.1664C46.3844 26.6264 45.5744 25.7444 45.5744 24.4124C45.5744 22.9004 47.0324 21.8024 48.9944 21.8024ZM59.2868 21.8024C61.0148 21.8024 62.0408 22.9184 62.0408 24.7004V31.5044H60.3848V24.9344C60.3848 23.5124 59.7728 23.0984 58.8728 23.0984C57.8468 23.0984 57.1088 23.7644 56.4788 24.7544V31.5044H54.8228V18.2204L56.4788 18.0404V23.3324C57.1628 22.3964 58.0988 21.8024 59.2868 21.8024ZM69.7077 21.8024C71.8497 21.8024 73.2357 23.5844 73.2357 26.7524C73.2357 29.7224 71.8137 31.7204 69.5097 31.7204C68.4657 31.7204 67.6377 31.2524 66.9897 30.4604L66.8277 31.5044H65.3697V18.2024L67.0257 18.0044V23.2064C67.6737 22.3244 68.5557 21.8024 69.7077 21.8024ZM69.1137 30.4064C70.4997 30.4064 71.4537 29.3444 71.4537 26.7524C71.4537 24.0524 70.5717 23.1164 69.2397 23.1164C68.1957 23.1164 67.5117 23.8364 67.0257 24.5924V29.1284C67.5117 29.8844 68.2677 30.4064 69.1137 30.4064ZM79.6212 21.8024C82.3212 21.8024 83.8332 23.7464 83.8332 26.7524C83.8332 29.6864 82.2852 31.7204 79.6032 31.7204C76.9032 31.7204 75.3732 29.7764 75.3732 26.7704C75.3732 23.8364 76.9212 21.8024 79.6212 21.8024ZM79.6212 23.1344C78.0372 23.1344 77.1552 24.2864 77.1552 26.7704C77.1552 29.2364 78.0192 30.3884 79.6032 30.3884C81.1872 30.3884 82.0512 29.2364 82.0512 26.7524C82.0512 24.2864 81.1872 23.1344 79.6212 23.1344ZM92.9589 29.2904C92.9589 30.1184 93.2649 30.3884 93.7509 30.5684L93.3729 31.7204C92.4189 31.6124 91.8069 31.2344 91.5189 30.2984C90.8529 31.2884 89.8449 31.7204 88.6929 31.7204C86.8029 31.7204 85.6689 30.5504 85.6689 28.8584C85.6689 26.8244 87.1989 25.7264 89.8449 25.7264H91.3029V25.0244C91.3029 23.6564 90.6369 23.1524 89.3229 23.1524C88.6209 23.1524 87.7389 23.3324 86.7669 23.6564L86.3529 22.4504C87.5229 22.0184 88.5669 21.8024 89.6289 21.8024C91.9149 21.8024 92.9589 22.9724 92.9589 24.9524V29.2904ZM89.0709 30.4784C90.0429 30.4784 90.7629 29.9924 91.3029 29.0024V26.8244H90.0609C88.3149 26.8244 87.4329 27.4724 87.4329 28.7684C87.4329 29.8844 87.9909 30.4784 89.0709 30.4784ZM100.482 21.8024C100.788 21.8024 101.13 21.8384 101.418 21.9104L101.112 23.5304C100.824 23.4584 100.626 23.4224 100.284 23.4224C99.0959 23.4224 98.4119 24.2684 98.0159 26.0864V31.5044H96.3599V22.0184H97.7819L97.9439 23.9444C98.4479 22.5224 99.3299 21.8024 100.482 21.8024ZM108.815 18.0044L110.471 18.2024V31.5044H109.013L108.851 30.1904C108.239 31.1444 107.285 31.7204 106.115 31.7204C103.811 31.7204 102.533 29.7584 102.533 26.8064C102.533 23.9084 103.937 21.8024 106.259 21.8024C107.375 21.8024 108.185 22.3064 108.815 22.9724V18.0044ZM106.475 30.4064C107.537 30.4064 108.185 29.8844 108.815 29.0024V24.3584C108.221 23.6024 107.555 23.1164 106.619 23.1164C105.197 23.1164 104.315 24.3044 104.315 26.7704C104.315 29.2724 105.107 30.4064 106.475 30.4064Z" fill="white"/>
</svg>
