<svg width="300" height="210" viewBox="0 0 300 210" fill="none" xmlns="http://www.w3.org/2000/svg">
<g clip-path="url(#clip0_2353_2180)">
<rect width="300" height="210" fill="#121517"/>
<rect x="23.0488" y="127.63" width="256.951" height="128.87" rx="3.5" fill="black" stroke="white"/>
<circle cx="192.188" cy="208.19" r="15.2051" fill="#434343"/>
<rect x="20.7119" y="73.5" width="259.288" height="45" rx="3.5" fill="black" stroke="white"/>
<path d="M56.1422 92.298C57.6902 92.298 58.7162 93.414 58.7162 95.196V102H57.0602V95.43C57.0602 94.008 56.4482 93.594 55.7282 93.594C54.7022 93.594 54.1442 94.26 53.4962 95.268V102H51.8402V95.43C51.8402 94.008 51.2282 93.594 50.5082 93.594C49.4822 93.594 48.9062 94.26 48.2762 95.268V102H46.6202V92.514H48.0422L48.1862 93.9C48.8162 92.946 49.6802 92.298 50.9222 92.298C52.0922 92.298 52.9562 92.928 53.3162 94.008C54.0002 92.982 54.8642 92.298 56.1422 92.298ZM71.5758 92.298C73.1238 92.298 74.1498 93.414 74.1498 95.196V102H72.4938V95.43C72.4938 94.008 71.8818 93.594 71.1618 93.594C70.1358 93.594 69.5778 94.26 68.9298 95.268V102H67.2738V95.43C67.2738 94.008 66.6618 93.594 65.9418 93.594C64.9158 93.594 64.3398 94.26 63.7098 95.268V102H62.0538V92.514H63.4758L63.6198 93.9C64.2498 92.946 65.1138 92.298 66.3558 92.298C67.5258 92.298 68.3898 92.928 68.7498 94.008C69.4337 92.982 70.2978 92.298 71.5758 92.298ZM81.8433 87.474L83.2473 87.798L79.0893 103.872L77.6673 103.53L81.8433 87.474ZM90.9097 88.5L92.5657 88.698V102H91.1077L90.9457 100.686C90.3337 101.64 89.3797 102.216 88.2097 102.216C85.9057 102.216 84.6277 100.254 84.6277 97.302C84.6277 94.404 86.0317 92.298 88.3537 92.298C89.4697 92.298 90.2797 92.802 90.9097 93.468V88.5ZM88.5697 100.902C89.6317 100.902 90.2797 100.38 90.9097 99.498V94.854C90.3157 94.098 89.6497 93.612 88.7137 93.612C87.2917 93.612 86.4097 94.8 86.4097 97.266C86.4097 99.768 87.2017 100.902 88.5697 100.902ZM101.668 88.5L103.324 88.698V102H101.866L101.704 100.686C101.092 101.64 100.138 102.216 98.9675 102.216C96.6635 102.216 95.3855 100.254 95.3855 97.302C95.3855 94.404 96.7895 92.298 99.1115 92.298C100.228 92.298 101.038 92.802 101.668 93.468V88.5ZM99.3275 100.902C100.39 100.902 101.038 100.38 101.668 99.498V94.854C101.074 94.098 100.408 93.612 99.4715 93.612C98.0495 93.612 97.1675 94.8 97.1675 97.266C97.1675 99.768 97.9595 100.902 99.3275 100.902ZM111.093 87.474L112.497 87.798L108.339 103.872L106.917 103.53L111.093 87.474ZM123.055 92.514L119.887 102.054C119.221 104.07 118.105 105.546 115.477 105.834L115.297 104.538C117.223 104.214 117.763 103.476 118.303 102H117.745L114.559 92.514H116.323L118.861 100.794L121.345 92.514H123.055ZM131.914 92.514L128.746 102.054C128.08 104.07 126.964 105.546 124.336 105.834L124.156 104.538C126.082 104.214 126.622 103.476 127.162 102H126.604L123.418 92.514H125.182L127.72 100.794L130.204 92.514H131.914ZM140.774 92.514L137.606 102.054C136.94 104.07 135.824 105.546 133.196 105.834L133.016 104.538C134.942 104.214 135.482 103.476 136.022 102H135.464L132.278 92.514H134.042L136.58 100.794L139.064 92.514H140.774ZM149.633 92.514L146.465 102.054C145.799 104.07 144.683 105.546 142.055 105.834L141.875 104.538C143.801 104.214 144.341 103.476 144.881 102H144.323L141.137 92.514H142.901L145.439 100.794L147.923 92.514H149.633ZM151.062 99.714C151.782 99.714 152.322 100.272 152.322 100.956C152.322 101.352 152.232 101.712 151.998 102.234L150.792 104.988H149.604L150.324 102C150.018 101.766 149.82 101.388 149.82 100.956C149.82 100.272 150.36 99.714 151.062 99.714ZM159.088 97.068V95.664H164.182V97.068H159.088ZM166.348 97.068V95.664H171.442V97.068H166.348ZM174.669 93.09C175.389 93.09 175.929 93.648 175.929 94.332C175.929 95.034 175.389 95.592 174.669 95.592C173.967 95.592 173.427 95.034 173.427 94.332C173.427 93.648 173.967 93.09 174.669 93.09ZM174.669 99.714C175.389 99.714 175.929 100.272 175.929 100.956C175.929 101.658 175.389 102.216 174.669 102.216C173.967 102.216 173.427 101.658 173.427 100.956C173.427 100.272 173.967 99.714 174.669 99.714ZM177.932 97.068V95.664H183.026V97.068H177.932ZM185.191 97.068V95.664H190.285V97.068H185.191ZM201.193 89.598C204.181 89.598 206.017 90.822 206.017 93.432C206.017 96.276 203.947 97.446 201.211 97.446H199.645V102H197.935V89.598H201.193ZM201.139 96.096C202.975 96.096 204.199 95.556 204.199 93.45C204.199 91.596 203.011 90.93 201.175 90.93H199.645V96.096H201.139ZM218.28 89.598L219.306 102H217.65L217.218 96.402C217.056 94.458 216.93 92.37 216.912 91.344L214.23 100.596H212.628L209.802 91.326C209.802 92.784 209.712 94.71 209.568 96.528L209.154 102H207.534L208.56 89.598H210.864L213.474 98.616L215.958 89.598H218.28Z" fill="white"/>
<path d="M25.3359 41.281C29.0319 41.281 32.5809 42.436 32.5809 48.442C32.5809 54.343 28.9059 55.75 25.7769 55.75H22.3119V41.281H25.3359ZM25.7769 42.877H24.3069V54.175H25.9239C28.1919 54.175 30.4599 53.209 30.4599 48.442C30.4599 43.549 28.0869 42.877 25.7769 42.877ZM42.9715 53.167C42.9715 54.133 43.3285 54.448 43.8955 54.658L43.4545 56.002C42.3415 55.876 41.6275 55.435 41.2915 54.343C40.5145 55.498 39.3385 56.002 37.9945 56.002C35.7895 56.002 34.4665 54.637 34.4665 52.663C34.4665 50.29 36.2515 49.009 39.3385 49.009H41.0395V48.19C41.0395 46.594 40.2625 46.006 38.7295 46.006C37.9105 46.006 36.8815 46.216 35.7475 46.594L35.2645 45.187C36.6295 44.683 37.8475 44.431 39.0865 44.431C41.7535 44.431 42.9715 45.796 42.9715 48.106V53.167ZM38.4355 54.553C39.5695 54.553 40.4095 53.986 41.0395 52.831V50.29H39.5905C37.5535 50.29 36.5245 51.046 36.5245 52.558C36.5245 53.86 37.1755 54.553 38.4355 54.553ZM51.7903 53.923L52.5253 55.246C51.7903 55.75 50.9923 56.002 50.0473 56.002C48.1783 56.002 47.0653 54.91 47.0653 52.852V46.174H45.1333V44.683H47.0653V42.184L48.9973 41.953V44.683H51.6223L51.4123 46.174H48.9973V52.768C48.9973 53.881 49.3543 54.406 50.3203 54.406C50.8033 54.406 51.2443 54.259 51.7903 53.923ZM62.6801 49.891C62.6801 50.269 62.6591 50.626 62.6381 50.878H55.5821C55.7711 53.44 56.9681 54.427 58.5641 54.427C59.6561 54.427 60.4751 54.133 61.4411 53.461L62.2811 54.616C61.1891 55.477 59.9501 56.002 58.4171 56.002C55.3301 56.002 53.5241 53.839 53.5241 50.332C53.5241 46.888 55.2671 44.431 58.1231 44.431C61.1051 44.431 62.6801 46.51 62.6801 49.891ZM60.7691 49.45V49.324C60.7691 47.161 59.9081 45.964 58.1651 45.964C56.6951 45.964 55.7291 46.993 55.5821 49.45H60.7691ZM76.5077 44.431C79.4477 44.431 80.6027 46.72 80.6027 50.206C80.6027 53.566 79.1117 56.002 76.2557 56.002C75.0587 56.002 74.0717 55.603 73.3577 54.742V59.992L71.4257 60.223V44.683H73.0847L73.2317 46.174C74.0507 45.04 75.2477 44.431 76.5077 44.431ZM75.7937 54.427C77.5577 54.427 78.5237 53.104 78.5237 50.206C78.5237 47.329 77.6837 45.964 76.0247 45.964C74.8487 45.964 73.9457 46.804 73.3577 47.686V53.083C73.9247 53.944 74.7857 54.427 75.7937 54.427ZM84.8394 39.37C85.6584 39.37 86.2044 39.937 86.2044 40.693C86.2044 41.428 85.6584 41.995 84.8394 41.995C84.0414 41.995 83.4954 41.428 83.4954 40.693C83.4954 39.937 84.0414 39.37 84.8394 39.37ZM85.8264 44.683V55.75H83.8944V44.683H85.8264ZM93.8532 44.431C95.1552 44.431 96.2052 44.767 97.2342 45.628L96.3102 46.846C95.5542 46.3 94.8612 46.027 93.9372 46.027C92.1942 46.027 91.1022 47.392 91.1022 50.269C91.1022 53.167 92.1942 54.364 93.9372 54.364C94.8612 54.364 95.5122 54.07 96.3522 53.524L97.2342 54.784C96.2472 55.582 95.1342 56.002 93.8532 56.002C90.8712 56.002 89.0232 53.881 89.0232 50.311C89.0232 46.783 90.8502 44.431 93.8532 44.431ZM101.781 40V55.75H99.8495V40.231L101.781 40ZM108.144 44.683L104.07 49.576L108.606 55.75H106.296L101.907 49.702L105.981 44.683H108.144ZM118.749 49.891C118.749 50.269 118.728 50.626 118.707 50.878H111.651C111.84 53.44 113.037 54.427 114.633 54.427C115.725 54.427 116.544 54.133 117.51 53.461L118.35 54.616C117.258 55.477 116.019 56.002 114.486 56.002C111.399 56.002 109.593 53.839 109.593 50.332C109.593 46.888 111.336 44.431 114.192 44.431C117.174 44.431 118.749 46.51 118.749 49.891ZM116.838 49.45V49.324C116.838 47.161 115.977 45.964 114.234 45.964C112.764 45.964 111.798 46.993 111.651 49.45H116.838ZM126.745 44.431C127.102 44.431 127.501 44.473 127.837 44.557L127.48 46.447C127.144 46.363 126.913 46.321 126.514 46.321C125.128 46.321 124.33 47.308 123.868 49.429V55.75H121.936V44.683H123.595L123.784 46.93C124.372 45.271 125.401 44.431 126.745 44.431Z" fill="white"/>
<path d="M269.82 89.22L270.36 89.82V103.32L269.82 103.86H255.18L254.64 103.32V89.82L255.18 89.22H256.86V88.14H258V89.22H267V88.14H268.14V89.22H269.82ZM269.28 102.72V92.64H255.78V102.72H269.28ZM269.28 91.5V90.36H255.78V91.5H269.28ZM258 96V97.14H256.86V96H258ZM256.86 98.22V99.36H258V98.22H256.86ZM258 100.5V101.64H256.86V100.5H258ZM260.28 96V97.14H261.36V96H260.28ZM261.36 98.22V99.36H260.28V98.22H261.36ZM260.28 100.5V101.64H261.36V100.5H260.28ZM261.36 93.72V94.86H260.28V93.72H261.36ZM263.64 96V97.14H264.78V96H263.64ZM264.78 98.22V99.36H263.64V98.22H264.78ZM263.64 100.5V101.64H264.78V100.5H263.64ZM264.78 93.72V94.86H263.64V93.72H264.78ZM267 96V97.14H268.14V96H267ZM268.14 98.22V99.36H267V98.22H268.14ZM267 93.72V94.86H268.14V93.72H267Z" fill="white"/>
<line x1="243.362" y1="73.699" x2="243.362" y2="118.078" stroke="white"/>
<path d="M126.712 157.949L125.893 154.694H121.336L120.517 157.949H117.304L121.777 143.417H125.536L129.988 157.949H126.712ZM121.903 152.405H125.305L123.604 145.706L121.903 152.405ZM140.238 146.819V157.949H137.655L137.508 156.458C136.71 157.697 135.618 158.285 134.127 158.285C132.069 158.285 131.019 156.962 131.019 154.82V146.819H134.001V154.442C134.001 155.66 134.4 156.059 135.219 156.059C136.038 156.059 136.731 155.513 137.256 154.61V146.819H140.238ZM152.402 145.139L153.137 147.428C152.318 147.743 151.268 147.848 149.924 147.848C151.289 148.457 151.982 149.297 151.982 150.704C151.982 152.867 150.239 154.442 147.404 154.442C146.921 154.442 146.501 154.4 146.102 154.295C145.85 154.463 145.682 154.736 145.682 155.03C145.682 155.408 145.871 155.765 146.963 155.765H148.664C151.184 155.765 152.801 157.109 152.801 158.957C152.801 161.204 150.848 162.569 147.131 162.569C143.057 162.569 141.944 161.246 141.944 159.02H144.611C144.611 160.07 145.073 160.532 147.194 160.532C149.252 160.532 149.798 159.965 149.798 159.167C149.798 158.411 149.231 157.949 148.055 157.949H146.417C144.086 157.949 143.12 156.941 143.12 155.765C143.12 154.967 143.624 154.19 144.422 153.686C143.036 152.93 142.448 151.943 142.448 150.515C142.448 148.058 144.401 146.483 147.194 146.483C149.756 146.546 151.058 145.895 152.402 145.139ZM147.257 148.478C146.123 148.478 145.43 149.255 145.43 150.473C145.43 151.754 146.144 152.51 147.278 152.51C148.475 152.51 149.105 151.796 149.105 150.431C149.105 149.108 148.496 148.478 147.257 148.478ZM163.72 146.819V157.949H161.137L160.99 156.458C160.192 157.697 159.1 158.285 157.609 158.285C155.551 158.285 154.501 156.962 154.501 154.82V146.819H157.483V154.442C157.483 155.66 157.882 156.059 158.701 156.059C159.52 156.059 160.213 155.513 160.738 154.61V146.819H163.72ZM170.36 146.483C171.977 146.483 173.342 146.987 174.392 147.827L173.258 149.528C172.355 148.961 171.452 148.646 170.486 148.646C169.499 148.646 168.953 149.045 168.953 149.654C168.953 150.305 169.331 150.599 171.284 151.166C173.51 151.775 174.77 152.699 174.77 154.673C174.77 156.983 172.607 158.285 169.961 158.285C168.029 158.285 166.475 157.634 165.425 156.668L166.895 155.03C167.735 155.681 168.764 156.122 169.877 156.122C170.99 156.122 171.704 155.66 171.704 154.904C171.704 154.064 171.305 153.791 169.247 153.224C167 152.594 165.95 151.481 165.95 149.801C165.95 147.911 167.672 146.483 170.36 146.483ZM182.341 155.513L183.37 157.424C182.551 157.991 181.459 158.285 180.472 158.285C178.162 158.264 176.986 156.941 176.986 154.463V148.919H175.327V146.819H176.986V144.383L179.968 144.026V146.819H182.53L182.236 148.919H179.968V154.4C179.968 155.492 180.325 155.912 181.081 155.912C181.48 155.912 181.879 155.786 182.341 155.513Z" fill="white"/>
<path d="M38.2642 175.32C39.9122 175.32 41.0322 175.816 41.9922 176.712L40.8722 178.008C40.0882 177.368 39.3202 177.08 38.4242 177.08C37.4642 177.08 36.8082 177.496 36.8082 178.28C36.8082 179.048 37.2242 179.368 39.0322 179.928C41.0322 180.568 42.3122 181.4 42.3122 183.448C42.3122 185.48 40.7122 186.904 38.0242 186.904C36.1842 186.904 34.8402 186.248 33.9282 185.352L35.1442 184.024C35.9442 184.712 36.8242 185.128 37.9602 185.128C39.0962 185.128 39.8642 184.584 39.8642 183.608C39.8642 182.728 39.4322 182.344 37.7522 181.832C35.3522 181.08 34.3922 180.12 34.3922 178.44C34.3922 176.552 36.0242 175.32 38.2642 175.32Z" fill="white"/>
<path d="M81.3985 175.576L82.2465 186.648H79.9425L79.7025 182.152C79.6065 180.568 79.5585 178.904 79.6065 177.64L77.7345 185.464H75.5105L73.5105 177.624C73.6065 179.176 73.5905 180.648 73.5105 182.2L73.2705 186.648H70.9825L71.8465 175.576H74.8385L76.6625 183.208L78.3745 175.576H81.3985Z" fill="white"/>
<path d="M118.978 175.576L118.722 177.416H115.922V186.648H113.57V177.416H110.626V175.576H118.978Z" fill="white"/>
<path d="M159.704 175.576L157.768 186.648H154.712L153.176 177.992L151.56 186.648H148.584L146.664 175.576H149.016L150.28 184.824L151.96 175.576H154.44L156.056 184.824L157.48 175.576H159.704Z" fill="white"/>
<path d="M78.4011 202.025V212.729H76.9291V203.593L74.4331 205.113L73.7931 204.073L77.1051 202.025H78.4011Z" fill="white"/>
<path d="M114.427 201.865C116.395 201.865 117.643 203.129 117.643 204.793C117.643 206.793 116.363 208.217 113.083 211.497H117.899L117.723 212.729H111.403V211.561C115.179 207.625 116.107 206.601 116.107 204.857C116.107 203.737 115.387 203.081 114.347 203.081C113.451 203.081 112.859 203.433 112.171 204.249L111.179 203.481C112.043 202.409 113.083 201.865 114.427 201.865Z" fill="white"/>
<path d="M152.798 201.865C154.846 201.865 155.966 203.145 155.966 204.585C155.966 205.945 155.086 206.761 153.886 207.049C155.23 207.177 156.302 208.025 156.302 209.641C156.302 211.513 154.878 212.921 152.654 212.921C151.374 212.921 150.254 212.457 149.438 211.481L150.318 210.665C151.022 211.401 151.742 211.721 152.606 211.721C153.95 211.721 154.766 210.889 154.766 209.625C154.766 208.153 153.934 207.705 152.638 207.705H151.838L152.014 206.569H152.558C153.614 206.569 154.494 205.929 154.494 204.681C154.494 203.673 153.79 203.049 152.718 203.049C151.87 203.049 151.23 203.337 150.51 204.009L149.742 203.129C150.654 202.281 151.646 201.865 152.798 201.865Z" fill="white"/>
<path d="M195.415 208.921V210.089H194.023V212.729H192.599V210.089H188.023V209.033L191.239 201.865L192.471 202.377L189.575 208.921H192.615L192.743 206.041H194.023V208.921H195.415Z" fill="white"/>
<path d="M230.178 202.025L229.97 203.177H225.794V206.329C226.354 206.041 226.93 205.913 227.506 205.913C229.314 205.913 230.546 207.177 230.546 209.305C230.546 211.433 229.058 212.921 226.834 212.921C225.474 212.921 224.498 212.409 223.666 211.561L224.562 210.697C225.202 211.385 225.89 211.721 226.818 211.721C228.162 211.721 229.01 210.841 229.01 209.273C229.01 207.625 228.162 207.049 227.058 207.049C226.482 207.049 226.05 207.177 225.538 207.417H224.386V202.025H230.178Z" fill="white"/>
<path d="M263.133 205.689C264.701 205.689 266.093 206.809 266.093 209.097C266.093 211.433 264.573 212.921 262.685 212.921C260.077 212.921 259.085 210.777 259.085 207.705C259.085 204.201 260.605 201.865 263.133 201.865C263.997 201.865 264.717 202.105 265.341 202.521L264.765 203.497C264.269 203.193 263.709 203.033 263.117 203.033C261.565 203.033 260.637 204.649 260.557 207.097C261.261 206.105 262.125 205.689 263.133 205.689ZM262.685 211.753C263.949 211.753 264.605 210.713 264.605 209.145C264.605 207.449 263.885 206.857 262.877 206.857C261.917 206.857 261.117 207.449 260.573 208.329C260.637 210.665 261.261 211.753 262.685 211.753Z" fill="white"/>
<path d="M195.879 175.576L195.623 177.416H192.823V186.648H190.471V177.416H187.527V175.576H195.879Z" fill="white"/>
<path d="M230.952 175.576L230.696 177.288H226.872V180.424H230.2V182.136H226.872V186.648H224.52V175.576H230.952Z" fill="white"/>
<path d="M262.491 175.32C264.139 175.32 265.259 175.816 266.219 176.712L265.099 178.008C264.315 177.368 263.547 177.08 262.651 177.08C261.691 177.08 261.035 177.496 261.035 178.28C261.035 179.048 261.451 179.368 263.259 179.928C265.259 180.568 266.539 181.4 266.539 183.448C266.539 185.48 264.939 186.904 262.251 186.904C260.411 186.904 259.067 186.248 258.155 185.352L259.371 184.024C260.171 184.712 261.051 185.128 262.187 185.128C263.323 185.128 264.091 184.584 264.091 183.608C264.091 182.728 263.659 182.344 261.979 181.832C259.579 181.08 258.619 180.12 258.619 178.44C258.619 176.552 260.251 175.32 262.491 175.32Z" fill="white"/>
<path d="M252.613 158.449L260.613 150.449L252.613 142.449" stroke="#6A6A6A" stroke-width="2"/>
<path d="M47.3867 142.449L39.3867 150.449L47.3867 158.449" stroke="#6A6A6A" stroke-width="2"/>
</g>
<defs>
<clipPath id="clip0_2353_2180">
<rect width="300" height="210" fill="white"/>
</clipPath>
</defs>
</svg>
