<svg width="300" height="210" viewBox="0 0 300 210" fill="none" xmlns="http://www.w3.org/2000/svg">
<rect width="300" height="210" fill="#121517"/>
<rect x="30.7119" y="82.5" width="238.576" height="45" rx="3.5" fill="black" stroke="white"/>
<path d="M75.6514 101.298C77.1994 101.298 78.2254 102.414 78.2254 104.196V111H76.5694V104.43C76.5694 103.008 75.9574 102.594 75.2374 102.594C74.2114 102.594 73.6534 103.26 73.0054 104.268V111H71.3494V104.43C71.3494 103.008 70.7374 102.594 70.0174 102.594C68.9914 102.594 68.4154 103.26 67.7854 104.268V111H66.1294V101.514H67.5514L67.6954 102.9C68.3254 101.946 69.1894 101.298 70.4314 101.298C71.6014 101.298 72.4654 101.928 72.8254 103.008C73.5094 101.982 74.3734 101.298 75.6514 101.298ZM91.085 101.298C92.633 101.298 93.659 102.414 93.659 104.196V111H92.003V104.43C92.003 103.008 91.391 102.594 90.671 102.594C89.645 102.594 89.087 103.26 88.439 104.268V111H86.783V104.43C86.783 103.008 86.171 102.594 85.451 102.594C84.425 102.594 83.849 103.26 83.219 104.268V111H81.563V101.514H82.985L83.129 102.9C83.759 101.946 84.623 101.298 85.865 101.298C87.035 101.298 87.899 101.928 88.259 103.008C88.943 101.982 89.807 101.298 91.085 101.298ZM101.353 96.474L102.757 96.798L98.5986 112.872L97.1766 112.53L101.353 96.474ZM110.419 97.5L112.075 97.698V111H110.617L110.455 109.686C109.843 110.64 108.889 111.216 107.719 111.216C105.415 111.216 104.137 109.254 104.137 106.302C104.137 103.404 105.541 101.298 107.863 101.298C108.979 101.298 109.789 101.802 110.419 102.468V97.5ZM108.079 109.902C109.141 109.902 109.789 109.38 110.419 108.498V103.854C109.825 103.098 109.159 102.612 108.223 102.612C106.801 102.612 105.919 103.8 105.919 106.266C105.919 108.768 106.711 109.902 108.079 109.902ZM121.177 97.5L122.833 97.698V111H121.375L121.213 109.686C120.601 110.64 119.647 111.216 118.477 111.216C116.173 111.216 114.895 109.254 114.895 106.302C114.895 103.404 116.299 101.298 118.621 101.298C119.737 101.298 120.547 101.802 121.177 102.468V97.5ZM118.837 109.902C119.899 109.902 120.547 109.38 121.177 108.498V103.854C120.583 103.098 119.917 102.612 118.981 102.612C117.559 102.612 116.677 103.8 116.677 106.266C116.677 108.768 117.469 109.902 118.837 109.902ZM130.603 96.474L132.007 96.798L127.849 112.872L126.427 112.53L130.603 96.474ZM142.564 101.514L139.396 111.054C138.73 113.07 137.614 114.546 134.986 114.834L134.806 113.538C136.732 113.214 137.272 112.476 137.812 111H137.254L134.068 101.514H135.832L138.37 109.794L140.854 101.514H142.564ZM151.424 101.514L148.256 111.054C147.59 113.07 146.474 114.546 143.846 114.834L143.666 113.538C145.592 113.214 146.132 112.476 146.672 111H146.114L142.928 101.514H144.692L147.23 109.794L149.714 101.514H151.424ZM160.283 101.514L157.115 111.054C156.449 113.07 155.333 114.546 152.705 114.834L152.525 113.538C154.451 113.214 154.991 112.476 155.531 111H154.973L151.787 101.514H153.551L156.089 109.794L158.573 101.514H160.283ZM169.142 101.514L165.974 111.054C165.308 113.07 164.192 114.546 161.564 114.834L161.384 113.538C163.31 113.214 163.85 112.476 164.39 111H163.832L160.646 101.514H162.41L164.948 109.794L167.432 101.514H169.142ZM170.571 108.714C171.291 108.714 171.831 109.272 171.831 109.956C171.831 110.352 171.741 110.712 171.507 111.234L170.301 113.988H169.113L169.833 111C169.527 110.766 169.329 110.388 169.329 109.956C169.329 109.272 169.869 108.714 170.571 108.714ZM178.597 106.068V104.664H183.691V106.068H178.597ZM185.857 106.068V104.664H190.951V106.068H185.857ZM194.179 102.09C194.899 102.09 195.439 102.648 195.439 103.332C195.439 104.034 194.899 104.592 194.179 104.592C193.477 104.592 192.937 104.034 192.937 103.332C192.937 102.648 193.477 102.09 194.179 102.09ZM194.179 108.714C194.899 108.714 195.439 109.272 195.439 109.956C195.439 110.658 194.899 111.216 194.179 111.216C193.477 111.216 192.937 110.658 192.937 109.956C192.937 109.272 193.477 108.714 194.179 108.714ZM197.441 106.068V104.664H202.535V106.068H197.441ZM204.701 106.068V104.664H209.795V106.068H204.701ZM220.702 98.598C223.69 98.598 225.526 99.822 225.526 102.432C225.526 105.276 223.456 106.446 220.72 106.446H219.154V111H217.444V98.598H220.702ZM220.648 105.096C222.484 105.096 223.708 104.556 223.708 102.45C223.708 100.596 222.52 99.93 220.684 99.93H219.154V105.096H220.648ZM237.789 98.598L238.815 111H237.159L236.727 105.402C236.565 103.458 236.439 101.37 236.421 100.344L233.739 109.596H232.137L229.311 100.326C229.311 101.784 229.221 103.71 229.077 105.528L228.663 111H227.043L228.069 98.598H230.373L232.983 107.616L235.467 98.598H237.789Z" fill="white"/>
<path d="M37.6726 50.281C41.3686 50.281 44.9176 51.436 44.9176 57.442C44.9176 63.343 41.2426 64.75 38.1136 64.75H34.6486V50.281H37.6726ZM38.1136 51.877H36.6436V63.175H38.2606C40.5286 63.175 42.7966 62.209 42.7966 57.442C42.7966 52.549 40.4236 51.877 38.1136 51.877ZM55.3082 62.167C55.3082 63.133 55.6652 63.448 56.2322 63.658L55.7912 65.002C54.6782 64.876 53.9642 64.435 53.6282 63.343C52.8512 64.498 51.6752 65.002 50.3312 65.002C48.1262 65.002 46.8032 63.637 46.8032 61.663C46.8032 59.29 48.5882 58.009 51.6752 58.009H53.3762V57.19C53.3762 55.594 52.5992 55.006 51.0662 55.006C50.2472 55.006 49.2182 55.216 48.0842 55.594L47.6012 54.187C48.9662 53.683 50.1842 53.431 51.4232 53.431C54.0902 53.431 55.3082 54.796 55.3082 57.106V62.167ZM50.7722 63.553C51.9062 63.553 52.7462 62.986 53.3762 61.831V59.29H51.9272C49.8902 59.29 48.8612 60.046 48.8612 61.558C48.8612 62.86 49.5122 63.553 50.7722 63.553ZM64.127 62.923L64.862 64.246C64.127 64.75 63.329 65.002 62.384 65.002C60.515 65.002 59.402 63.91 59.402 61.852V55.174H57.47V53.683H59.402V51.184L61.334 50.953V53.683H63.959L63.749 55.174H61.334V61.768C61.334 62.881 61.691 63.406 62.657 63.406C63.14 63.406 63.581 63.259 64.127 62.923ZM75.0168 58.891C75.0168 59.269 74.9958 59.626 74.9748 59.878H67.9188C68.1078 62.44 69.3048 63.427 70.9008 63.427C71.9928 63.427 72.8118 63.133 73.7778 62.461L74.6178 63.616C73.5258 64.477 72.2868 65.002 70.7538 65.002C67.6668 65.002 65.8608 62.839 65.8608 59.332C65.8608 55.888 67.6038 53.431 70.4598 53.431C73.4418 53.431 75.0168 55.51 75.0168 58.891ZM73.1058 58.45V58.324C73.1058 56.161 72.2448 54.964 70.5018 54.964C69.0318 54.964 68.0658 55.993 67.9188 58.45H73.1058ZM87.5633 49C88.8023 49 89.7263 49.294 90.6293 49.756L89.9573 51.1C89.2643 50.764 88.4873 50.575 87.6263 50.575C86.0723 50.575 85.6733 51.163 85.6733 52.213V53.683H91.8473V64.75H89.9153V55.174H85.6733V64.75H83.7413V55.174H81.9773V53.683H83.7413V52.234C83.7413 50.365 84.8753 49 87.5633 49ZM104.199 58.891C104.199 59.269 104.178 59.626 104.157 59.878H97.1014C97.2904 62.44 98.4874 63.427 100.083 63.427C101.175 63.427 101.994 63.133 102.96 62.461L103.8 63.616C102.708 64.477 101.469 65.002 99.9364 65.002C96.8494 65.002 95.0434 62.839 95.0434 59.332C95.0434 55.888 96.7864 53.431 99.6424 53.431C102.624 53.431 104.199 55.51 104.199 58.891ZM102.288 58.45V58.324C102.288 56.161 101.427 54.964 99.6844 54.964C98.2144 54.964 97.2484 55.993 97.1014 58.45H102.288ZM109.592 65.002C108.185 65.002 107.282 64.141 107.282 62.566V49.231L109.214 49V62.524C109.214 63.112 109.403 63.406 109.907 63.406C110.18 63.406 110.411 63.364 110.621 63.28L111.125 64.624C110.705 64.855 110.159 65.002 109.592 65.002ZM119.971 49L121.903 49.231V64.75H120.202L120.013 63.217C119.299 64.33 118.186 65.002 116.821 65.002C114.133 65.002 112.642 62.713 112.642 59.269C112.642 55.888 114.28 53.431 116.989 53.431C118.291 53.431 119.236 54.019 119.971 54.796V49ZM117.241 63.469C118.48 63.469 119.236 62.86 119.971 61.831V56.413C119.278 55.531 118.501 54.964 117.409 54.964C115.75 54.964 114.721 56.35 114.721 59.227C114.721 62.146 115.645 63.469 117.241 63.469Z" fill="white"/>
</svg>
