<svg width="301" height="210" viewBox="0 0 301 210" fill="none" xmlns="http://www.w3.org/2000/svg">
<g clip-path="url(#clip0_2353_2213)">
<rect width="300" height="210" transform="translate(0.5)" fill="#121517"/>
<rect x="23.5488" y="128.63" width="256.951" height="128.87" rx="3.5" fill="black" stroke="white"/>
<rect x="113.885" y="196.547" width="117.973" height="25.2859" fill="#363636"/>
<circle cx="113.885" cy="209.19" r="15.2051" fill="#434343"/>
<circle cx="227.806" cy="209.19" r="15.2051" fill="#434343"/>
<rect x="13.6436" y="73.5" width="273.712" height="45" rx="3.5" fill="black" stroke="white"/>
<path d="M31.7593 92.298C33.3073 92.298 34.3333 93.414 34.3333 95.196V102H32.6773V95.43C32.6773 94.008 32.0653 93.594 31.3453 93.594C30.3193 93.594 29.7613 94.26 29.1133 95.268V102H27.4573V95.43C27.4573 94.008 26.8453 93.594 26.1253 93.594C25.0993 93.594 24.5233 94.26 23.8933 95.268V102H22.2373V92.514H23.6593L23.8033 93.9C24.4333 92.946 25.2973 92.298 26.5393 92.298C27.7093 92.298 28.5733 92.928 28.9333 94.008C29.6173 92.982 30.4813 92.298 31.7593 92.298ZM47.1929 92.298C48.7409 92.298 49.7669 93.414 49.7669 95.196V102H48.1109V95.43C48.1109 94.008 47.4989 93.594 46.7789 93.594C45.7529 93.594 45.1949 94.26 44.5469 95.268V102H42.8909V95.43C42.8909 94.008 42.2789 93.594 41.5589 93.594C40.5329 93.594 39.9569 94.26 39.3269 95.268V102H37.6709V92.514H39.0929L39.2369 93.9C39.8669 92.946 40.7309 92.298 41.9729 92.298C43.1429 92.298 44.0069 92.928 44.3669 94.008C45.0509 92.982 45.9149 92.298 47.1929 92.298ZM57.4605 87.474L58.8645 87.798L54.7065 103.872L53.2845 103.53L57.4605 87.474ZM66.5269 88.5L68.1829 88.698V102H66.7249L66.5629 100.686C65.9509 101.64 64.9969 102.216 63.8269 102.216C61.5229 102.216 60.2449 100.254 60.2449 97.302C60.2449 94.404 61.6489 92.298 63.9709 92.298C65.0869 92.298 65.8969 92.802 66.5269 93.468V88.5ZM64.1869 100.902C65.2489 100.902 65.8969 100.38 66.5269 99.498V94.854C65.9329 94.098 65.2669 93.612 64.3309 93.612C62.9089 93.612 62.0269 94.8 62.0269 97.266C62.0269 99.768 62.8189 100.902 64.1869 100.902ZM77.2847 88.5L78.9407 88.698V102H77.4827L77.3207 100.686C76.7087 101.64 75.7547 102.216 74.5847 102.216C72.2807 102.216 71.0027 100.254 71.0027 97.302C71.0027 94.404 72.4067 92.298 74.7287 92.298C75.8447 92.298 76.6547 92.802 77.2847 93.468V88.5ZM74.9447 100.902C76.0067 100.902 76.6547 100.38 77.2847 99.498V94.854C76.6907 94.098 76.0247 93.612 75.0887 93.612C73.6667 93.612 72.7847 94.8 72.7847 97.266C72.7847 99.768 73.5767 100.902 74.9447 100.902ZM86.7105 87.474L88.1145 87.798L83.9565 103.872L82.5345 103.53L86.7105 87.474ZM98.6721 92.514L95.5041 102.054C94.8381 104.07 93.7221 105.546 91.0941 105.834L90.9141 104.538C92.8401 104.214 93.3801 103.476 93.9201 102H93.3621L90.1761 92.514H91.9401L94.4781 100.794L96.9621 92.514H98.6721ZM107.531 92.514L104.363 102.054C103.697 104.07 102.581 105.546 99.9535 105.834L99.7735 104.538C101.699 104.214 102.239 103.476 102.779 102H102.221L99.0355 92.514H100.799L103.337 100.794L105.821 92.514H107.531ZM116.391 92.514L113.223 102.054C112.557 104.07 111.441 105.546 108.813 105.834L108.633 104.538C110.559 104.214 111.099 103.476 111.639 102H111.081L107.895 92.514H109.659L112.197 100.794L114.681 92.514H116.391ZM125.25 92.514L122.082 102.054C121.416 104.07 120.3 105.546 117.672 105.834L117.492 104.538C119.418 104.214 119.958 103.476 120.498 102H119.94L116.754 92.514H118.518L121.056 100.794L123.54 92.514H125.25ZM131.277 97.068V95.664H136.371V97.068H131.277ZM153.453 92.298C155.001 92.298 156.027 93.414 156.027 95.196V102H154.371V95.43C154.371 94.008 153.759 93.594 153.039 93.594C152.013 93.594 151.455 94.26 150.807 95.268V102H149.151V95.43C149.151 94.008 148.539 93.594 147.819 93.594C146.793 93.594 146.217 94.26 145.587 95.268V102H143.931V92.514H145.353L145.497 93.9C146.127 92.946 146.991 92.298 148.233 92.298C149.403 92.298 150.267 92.928 150.627 94.008C151.311 92.982 152.175 92.298 153.453 92.298ZM168.886 92.298C170.434 92.298 171.46 93.414 171.46 95.196V102H169.804V95.43C169.804 94.008 169.192 93.594 168.472 93.594C167.446 93.594 166.888 94.26 166.24 95.268V102H164.584V95.43C164.584 94.008 163.972 93.594 163.252 93.594C162.226 93.594 161.65 94.26 161.02 95.268V102H159.364V92.514H160.786L160.93 93.9C161.56 92.946 162.424 92.298 163.666 92.298C164.836 92.298 165.7 92.928 166.06 94.008C166.744 92.982 167.608 92.298 168.886 92.298ZM179.154 87.474L180.558 87.798L176.4 103.872L174.978 103.53L179.154 87.474ZM188.22 88.5L189.876 88.698V102H188.418L188.256 100.686C187.644 101.64 186.69 102.216 185.52 102.216C183.216 102.216 181.938 100.254 181.938 97.302C181.938 94.404 183.342 92.298 185.664 92.298C186.78 92.298 187.59 92.802 188.22 93.468V88.5ZM185.88 100.902C186.942 100.902 187.59 100.38 188.22 99.498V94.854C187.626 94.098 186.96 93.612 186.024 93.612C184.602 93.612 183.72 94.8 183.72 97.266C183.72 99.768 184.512 100.902 185.88 100.902ZM198.978 88.5L200.634 88.698V102H199.176L199.014 100.686C198.402 101.64 197.448 102.216 196.278 102.216C193.974 102.216 192.696 100.254 192.696 97.302C192.696 94.404 194.1 92.298 196.422 92.298C197.538 92.298 198.348 92.802 198.978 93.468V88.5ZM196.638 100.902C197.7 100.902 198.348 100.38 198.978 99.498V94.854C198.384 94.098 197.718 93.612 196.782 93.612C195.36 93.612 194.478 94.8 194.478 97.266C194.478 99.768 195.27 100.902 196.638 100.902ZM208.404 87.474L209.808 87.798L205.65 103.872L204.228 103.53L208.404 87.474ZM220.365 92.514L217.197 102.054C216.531 104.07 215.415 105.546 212.787 105.834L212.607 104.538C214.533 104.214 215.073 103.476 215.613 102H215.055L211.869 92.514H213.633L216.171 100.794L218.655 92.514H220.365ZM229.225 92.514L226.057 102.054C225.391 104.07 224.275 105.546 221.647 105.834L221.467 104.538C223.393 104.214 223.933 103.476 224.473 102H223.915L220.729 92.514H222.493L225.031 100.794L227.515 92.514H229.225ZM238.084 92.514L234.916 102.054C234.25 104.07 233.134 105.546 230.506 105.834L230.326 104.538C232.252 104.214 232.792 103.476 233.332 102H232.774L229.588 92.514H231.352L233.89 100.794L236.374 92.514H238.084ZM246.944 92.514L243.776 102.054C243.11 104.07 241.994 105.546 239.366 105.834L239.186 104.538C241.112 104.214 241.652 103.476 242.192 102H241.634L238.448 92.514H240.212L242.75 100.794L245.234 92.514H246.944Z" fill="white"/>
<path d="M18.0981 41.281C21.7941 41.281 25.3431 42.436 25.3431 48.442C25.3431 54.343 21.6681 55.75 18.5391 55.75H15.0741V41.281H18.0981ZM18.5391 42.877H17.0691V54.175H18.6861C20.9541 54.175 23.2221 53.209 23.2221 48.442C23.2221 43.549 20.8491 42.877 18.5391 42.877ZM35.7337 53.167C35.7337 54.133 36.0907 54.448 36.6577 54.658L36.2167 56.002C35.1037 55.876 34.3897 55.435 34.0537 54.343C33.2767 55.498 32.1007 56.002 30.7567 56.002C28.5517 56.002 27.2287 54.637 27.2287 52.663C27.2287 50.29 29.0137 49.009 32.1007 49.009H33.8017V48.19C33.8017 46.594 33.0247 46.006 31.4917 46.006C30.6727 46.006 29.6437 46.216 28.5097 46.594L28.0267 45.187C29.3917 44.683 30.6097 44.431 31.8487 44.431C34.5157 44.431 35.7337 45.796 35.7337 48.106V53.167ZM31.1977 54.553C32.3317 54.553 33.1717 53.986 33.8017 52.831V50.29H32.3527C30.3157 50.29 29.2867 51.046 29.2867 52.558C29.2867 53.86 29.9377 54.553 31.1977 54.553ZM44.5525 53.923L45.2875 55.246C44.5525 55.75 43.7545 56.002 42.8095 56.002C40.9405 56.002 39.8275 54.91 39.8275 52.852V46.174H37.8955V44.683H39.8275V42.184L41.7595 41.953V44.683H44.3845L44.1745 46.174H41.7595V52.768C41.7595 53.881 42.1165 54.406 43.0825 54.406C43.5655 54.406 44.0065 54.259 44.5525 53.923ZM55.4424 49.891C55.4424 50.269 55.4214 50.626 55.4004 50.878H48.3444C48.5334 53.44 49.7304 54.427 51.3264 54.427C52.4184 54.427 53.2374 54.133 54.2034 53.461L55.0434 54.616C53.9514 55.477 52.7124 56.002 51.1794 56.002C48.0924 56.002 46.2864 53.839 46.2864 50.332C46.2864 46.888 48.0294 44.431 50.8854 44.431C53.8674 44.431 55.4424 46.51 55.4424 49.891ZM53.5314 49.45V49.324C53.5314 47.161 52.6704 45.964 50.9274 45.964C49.4574 45.964 48.4914 46.993 48.3444 49.45H53.5314ZM68.9969 44.431C69.3539 44.431 69.7529 44.473 70.0889 44.557L69.7319 46.447C69.3959 46.363 69.1649 46.321 68.7659 46.321C67.3799 46.321 66.5819 47.308 66.1199 49.429V55.75H64.1879V44.683H65.8469L66.0359 46.93C66.6239 45.271 67.6529 44.431 68.9969 44.431ZM79.3333 53.167C79.3333 54.133 79.6903 54.448 80.2573 54.658L79.8163 56.002C78.7033 55.876 77.9893 55.435 77.6533 54.343C76.8763 55.498 75.7003 56.002 74.3563 56.002C72.1513 56.002 70.8283 54.637 70.8283 52.663C70.8283 50.29 72.6133 49.009 75.7003 49.009H77.4013V48.19C77.4013 46.594 76.6243 46.006 75.0913 46.006C74.2723 46.006 73.2433 46.216 72.1093 46.594L71.6263 45.187C72.9913 44.683 74.2093 44.431 75.4483 44.431C78.1153 44.431 79.3333 45.796 79.3333 48.106V53.167ZM74.7973 54.553C75.9313 54.553 76.7713 53.986 77.4013 52.831V50.29H75.9523C73.9153 50.29 72.8863 51.046 72.8863 52.558C72.8863 53.86 73.5373 54.553 74.7973 54.553ZM88.5092 44.431C90.5462 44.431 91.7222 45.712 91.7222 47.812V55.75H89.7902V48.085C89.7902 46.426 89.1182 45.943 88.0472 45.943C86.8082 45.943 85.9682 46.72 85.2332 47.896V55.75H83.3012V44.683H84.9602L85.1282 46.321C85.8842 45.187 87.0602 44.431 88.5092 44.431ZM103.964 43.444L104.531 45.187C103.607 45.481 102.557 45.523 101.297 45.523C102.599 46.111 103.25 47.035 103.25 48.316C103.25 50.5 101.675 52.075 99.0288 52.075C98.5248 52.075 98.0838 52.012 97.6218 51.865C97.3068 52.096 97.0758 52.495 97.0758 52.894C97.0758 53.398 97.3908 53.797 98.5248 53.797H100.289C102.557 53.797 104.069 55.099 104.069 56.863C104.069 59.005 102.305 60.223 98.8818 60.223C95.2698 60.223 94.1358 59.11 94.1358 56.863H95.8788C95.8788 58.123 96.4458 58.711 98.8818 58.711C101.276 58.711 102.116 58.102 102.116 56.989C102.116 55.939 101.276 55.414 99.8898 55.414H98.1468C96.1728 55.414 95.2908 54.427 95.2908 53.314C95.2908 52.6 95.7108 51.886 96.5088 51.361C95.2278 50.689 94.6398 49.723 94.6398 48.295C94.6398 46.027 96.4668 44.431 98.9028 44.431C101.654 44.494 102.662 44.032 103.964 43.444ZM98.9028 45.817C97.4118 45.817 96.6138 46.846 96.6138 48.295C96.6138 49.765 97.4328 50.794 98.9448 50.794C100.457 50.794 101.276 49.87 101.276 48.274C101.276 46.657 100.478 45.817 98.9028 45.817ZM114.669 49.891C114.669 50.269 114.648 50.626 114.627 50.878H107.571C107.76 53.44 108.957 54.427 110.553 54.427C111.645 54.427 112.464 54.133 113.43 53.461L114.27 54.616C113.178 55.477 111.939 56.002 110.406 56.002C107.319 56.002 105.513 53.839 105.513 50.332C105.513 46.888 107.256 44.431 110.112 44.431C113.094 44.431 114.669 46.51 114.669 49.891ZM112.758 49.45V49.324C112.758 47.161 111.897 45.964 110.154 45.964C108.684 45.964 107.718 46.993 107.571 49.45H112.758ZM128.496 44.431C131.436 44.431 132.591 46.72 132.591 50.206C132.591 53.566 131.1 56.002 128.244 56.002C127.047 56.002 126.06 55.603 125.346 54.742V59.992L123.414 60.223V44.683H125.073L125.22 46.174C126.039 45.04 127.236 44.431 128.496 44.431ZM127.782 54.427C129.546 54.427 130.512 53.104 130.512 50.206C130.512 47.329 129.672 45.964 128.013 45.964C126.837 45.964 125.934 46.804 125.346 47.686V53.083C125.913 53.944 126.774 54.427 127.782 54.427ZM136.828 39.37C137.647 39.37 138.193 39.937 138.193 40.693C138.193 41.428 137.647 41.995 136.828 41.995C136.03 41.995 135.484 41.428 135.484 40.693C135.484 39.937 136.03 39.37 136.828 39.37ZM137.815 44.683V55.75H135.883V44.683H137.815ZM145.842 44.431C147.144 44.431 148.194 44.767 149.223 45.628L148.299 46.846C147.543 46.3 146.85 46.027 145.926 46.027C144.183 46.027 143.091 47.392 143.091 50.269C143.091 53.167 144.183 54.364 145.926 54.364C146.85 54.364 147.501 54.07 148.341 53.524L149.223 54.784C148.236 55.582 147.123 56.002 145.842 56.002C142.86 56.002 141.012 53.881 141.012 50.311C141.012 46.783 142.839 44.431 145.842 44.431ZM153.77 40V55.75H151.838V40.231L153.77 40ZM160.133 44.683L156.059 49.576L160.595 55.75H158.285L153.896 49.702L157.97 44.683H160.133ZM170.737 49.891C170.737 50.269 170.716 50.626 170.695 50.878H163.639C163.828 53.44 165.025 54.427 166.621 54.427C167.713 54.427 168.532 54.133 169.498 53.461L170.338 54.616C169.246 55.477 168.007 56.002 166.474 56.002C163.387 56.002 161.581 53.839 161.581 50.332C161.581 46.888 163.324 44.431 166.18 44.431C169.162 44.431 170.737 46.51 170.737 49.891ZM168.826 49.45V49.324C168.826 47.161 167.965 45.964 166.222 45.964C164.752 45.964 163.786 46.993 163.639 49.45H168.826ZM178.734 44.431C179.091 44.431 179.49 44.473 179.826 44.557L179.469 46.447C179.133 46.363 178.902 46.321 178.503 46.321C177.117 46.321 176.319 47.308 175.857 49.429V55.75H173.925V44.683H175.584L175.773 46.93C176.361 45.271 177.39 44.431 178.734 44.431Z" fill="white"/>
<path d="M277.32 89.22L277.86 89.82V103.32L277.32 103.86H262.68L262.14 103.32V89.82L262.68 89.22H264.36V88.14H265.5V89.22H274.5V88.14H275.64V89.22H277.32ZM276.78 102.72V92.64H263.28V102.72H276.78ZM276.78 91.5V90.36H263.28V91.5H276.78ZM265.5 96V97.14H264.36V96H265.5ZM264.36 98.22V99.36H265.5V98.22H264.36ZM265.5 100.5V101.64H264.36V100.5H265.5ZM267.78 96V97.14H268.86V96H267.78ZM268.86 98.22V99.36H267.78V98.22H268.86ZM267.78 100.5V101.64H268.86V100.5H267.78ZM268.86 93.72V94.86H267.78V93.72H268.86ZM271.14 96V97.14H272.28V96H271.14ZM272.28 98.22V99.36H271.14V98.22H272.28ZM271.14 100.5V101.64H272.28V100.5H271.14ZM272.28 93.72V94.86H271.14V93.72H272.28ZM274.5 96V97.14H275.64V96H274.5ZM275.64 98.22V99.36H274.5V98.22H275.64ZM274.5 93.72V94.86H275.64V93.72H274.5Z" fill="white"/>
<line x1="253.681" y1="73.699" x2="253.681" y2="118.078" stroke="white"/>
<path d="M127.212 158.949L126.393 155.694H121.836L121.017 158.949H117.804L122.277 144.417H126.036L130.488 158.949H127.212ZM122.403 153.405H125.805L124.104 146.706L122.403 153.405ZM140.738 147.819V158.949H138.155L138.008 157.458C137.21 158.697 136.118 159.285 134.627 159.285C132.569 159.285 131.519 157.962 131.519 155.82V147.819H134.501V155.442C134.501 156.66 134.9 157.059 135.719 157.059C136.538 157.059 137.231 156.513 137.756 155.61V147.819H140.738ZM152.902 146.139L153.637 148.428C152.818 148.743 151.768 148.848 150.424 148.848C151.789 149.457 152.482 150.297 152.482 151.704C152.482 153.867 150.739 155.442 147.904 155.442C147.421 155.442 147.001 155.4 146.602 155.295C146.35 155.463 146.182 155.736 146.182 156.03C146.182 156.408 146.371 156.765 147.463 156.765H149.164C151.684 156.765 153.301 158.109 153.301 159.957C153.301 162.204 151.348 163.569 147.631 163.569C143.557 163.569 142.444 162.246 142.444 160.02H145.111C145.111 161.07 145.573 161.532 147.694 161.532C149.752 161.532 150.298 160.965 150.298 160.167C150.298 159.411 149.731 158.949 148.555 158.949H146.917C144.586 158.949 143.62 157.941 143.62 156.765C143.62 155.967 144.124 155.19 144.922 154.686C143.536 153.93 142.948 152.943 142.948 151.515C142.948 149.058 144.901 147.483 147.694 147.483C150.256 147.546 151.558 146.895 152.902 146.139ZM147.757 149.478C146.623 149.478 145.93 150.255 145.93 151.473C145.93 152.754 146.644 153.51 147.778 153.51C148.975 153.51 149.605 152.796 149.605 151.431C149.605 150.108 148.996 149.478 147.757 149.478ZM164.22 147.819V158.949H161.637L161.49 157.458C160.692 158.697 159.6 159.285 158.109 159.285C156.051 159.285 155.001 157.962 155.001 155.82V147.819H157.983V155.442C157.983 156.66 158.382 157.059 159.201 157.059C160.02 157.059 160.713 156.513 161.238 155.61V147.819H164.22ZM170.86 147.483C172.477 147.483 173.842 147.987 174.892 148.827L173.758 150.528C172.855 149.961 171.952 149.646 170.986 149.646C169.999 149.646 169.453 150.045 169.453 150.654C169.453 151.305 169.831 151.599 171.784 152.166C174.01 152.775 175.27 153.699 175.27 155.673C175.27 157.983 173.107 159.285 170.461 159.285C168.529 159.285 166.975 158.634 165.925 157.668L167.395 156.03C168.235 156.681 169.264 157.122 170.377 157.122C171.49 157.122 172.204 156.66 172.204 155.904C172.204 155.064 171.805 154.791 169.747 154.224C167.5 153.594 166.45 152.481 166.45 150.801C166.45 148.911 168.172 147.483 170.86 147.483ZM182.841 156.513L183.87 158.424C183.051 158.991 181.959 159.285 180.972 159.285C178.662 159.264 177.486 157.941 177.486 155.463V149.919H175.827V147.819H177.486V145.383L180.468 145.026V147.819H183.03L182.736 149.919H180.468V155.4C180.468 156.492 180.825 156.912 181.581 156.912C181.98 156.912 182.379 156.786 182.841 156.513Z" fill="white"/>
<path d="M38.7642 176.32C40.4122 176.32 41.5322 176.816 42.4922 177.712L41.3722 179.008C40.5882 178.368 39.8202 178.08 38.9242 178.08C37.9642 178.08 37.3082 178.496 37.3082 179.28C37.3082 180.048 37.7242 180.368 39.5322 180.928C41.5322 181.568 42.8122 182.4 42.8122 184.448C42.8122 186.48 41.2122 187.904 38.5242 187.904C36.6842 187.904 35.3402 187.248 34.4282 186.352L35.6442 185.024C36.4442 185.712 37.3242 186.128 38.4602 186.128C39.5962 186.128 40.3642 185.584 40.3642 184.608C40.3642 183.728 39.9322 183.344 38.2522 182.832C35.8522 182.08 34.8922 181.12 34.8922 179.44C34.8922 177.552 36.5242 176.32 38.7642 176.32Z" fill="white"/>
<path d="M81.8985 176.576L82.7465 187.648H80.4425L80.2025 183.152C80.1065 181.568 80.0585 179.904 80.1065 178.64L78.2345 186.464H76.0105L74.0105 178.624C74.1065 180.176 74.0905 181.648 74.0105 183.2L73.7705 187.648H71.4825L72.3465 176.576H75.3385L77.1625 184.208L78.8745 176.576H81.8985Z" fill="white"/>
<path d="M119.478 176.576L119.222 178.416H116.422V187.648H114.07V178.416H111.126V176.576H119.478Z" fill="white"/>
<path d="M160.204 176.576L158.268 187.648H155.212L153.676 178.992L152.06 187.648H149.084L147.164 176.576H149.516L150.78 185.824L152.46 176.576H154.94L156.556 185.824L157.98 176.576H160.204Z" fill="white"/>
<path d="M78.9011 203.025V213.729H77.4291V204.593L74.9331 206.113L74.2931 205.073L77.6051 203.025H78.9011Z" fill="white"/>
<path d="M114.927 202.865C116.895 202.865 118.143 204.129 118.143 205.793C118.143 207.793 116.863 209.217 113.583 212.497H118.399L118.223 213.729H111.903V212.561C115.679 208.625 116.607 207.601 116.607 205.857C116.607 204.737 115.887 204.081 114.847 204.081C113.951 204.081 113.359 204.433 112.671 205.249L111.679 204.481C112.543 203.409 113.583 202.865 114.927 202.865Z" fill="white"/>
<path d="M153.298 202.865C155.346 202.865 156.466 204.145 156.466 205.585C156.466 206.945 155.586 207.761 154.386 208.049C155.73 208.177 156.802 209.025 156.802 210.641C156.802 212.513 155.378 213.921 153.154 213.921C151.874 213.921 150.754 213.457 149.938 212.481L150.818 211.665C151.522 212.401 152.242 212.721 153.106 212.721C154.45 212.721 155.266 211.889 155.266 210.625C155.266 209.153 154.434 208.705 153.138 208.705H152.338L152.514 207.569H153.058C154.114 207.569 154.994 206.929 154.994 205.681C154.994 204.673 154.29 204.049 153.218 204.049C152.37 204.049 151.73 204.337 151.01 205.009L150.242 204.129C151.154 203.281 152.146 202.865 153.298 202.865Z" fill="white"/>
<path d="M195.915 209.921V211.089H194.523V213.729H193.099V211.089H188.523V210.033L191.739 202.865L192.971 203.377L190.075 209.921H193.115L193.243 207.041H194.523V209.921H195.915Z" fill="white"/>
<path d="M230.678 203.025L230.47 204.177H226.294V207.329C226.854 207.041 227.43 206.913 228.006 206.913C229.814 206.913 231.046 208.177 231.046 210.305C231.046 212.433 229.558 213.921 227.334 213.921C225.974 213.921 224.998 213.409 224.166 212.561L225.062 211.697C225.702 212.385 226.39 212.721 227.318 212.721C228.662 212.721 229.51 211.841 229.51 210.273C229.51 208.625 228.662 208.049 227.558 208.049C226.982 208.049 226.55 208.177 226.038 208.417H224.886V203.025H230.678Z" fill="white"/>
<path d="M263.633 206.689C265.201 206.689 266.593 207.809 266.593 210.097C266.593 212.433 265.073 213.921 263.185 213.921C260.577 213.921 259.585 211.777 259.585 208.705C259.585 205.201 261.105 202.865 263.633 202.865C264.497 202.865 265.217 203.105 265.841 203.521L265.265 204.497C264.769 204.193 264.209 204.033 263.617 204.033C262.065 204.033 261.137 205.649 261.057 208.097C261.761 207.105 262.625 206.689 263.633 206.689ZM263.185 212.753C264.449 212.753 265.105 211.713 265.105 210.145C265.105 208.449 264.385 207.857 263.377 207.857C262.417 207.857 261.617 208.449 261.073 209.329C261.137 211.665 261.761 212.753 263.185 212.753Z" fill="white"/>
<path d="M196.379 176.576L196.123 178.416H193.323V187.648H190.971V178.416H188.027V176.576H196.379Z" fill="white"/>
<path d="M231.452 176.576L231.196 178.288H227.372V181.424H230.7V183.136H227.372V187.648H225.02V176.576H231.452Z" fill="white"/>
<path d="M262.991 176.32C264.639 176.32 265.759 176.816 266.719 177.712L265.599 179.008C264.815 178.368 264.047 178.08 263.151 178.08C262.191 178.08 261.535 178.496 261.535 179.28C261.535 180.048 261.951 180.368 263.759 180.928C265.759 181.568 267.039 182.4 267.039 184.448C267.039 186.48 265.439 187.904 262.751 187.904C260.911 187.904 259.567 187.248 258.655 186.352L259.871 185.024C260.671 185.712 261.551 186.128 262.687 186.128C263.823 186.128 264.591 185.584 264.591 184.608C264.591 183.728 264.159 183.344 262.479 182.832C260.079 182.08 259.119 181.12 259.119 179.44C259.119 177.552 260.751 176.32 262.991 176.32Z" fill="white"/>
<path d="M259.113 159.449L267.113 151.449L259.113 143.449" stroke="#6A6A6A" stroke-width="2"/>
<path d="M42.8867 143.449L34.8867 151.449L42.8867 159.449" stroke="#6A6A6A" stroke-width="2"/>
</g>
<defs>
<clipPath id="clip0_2353_2213">
<rect width="300" height="210" fill="white" transform="translate(0.5)"/>
</clipPath>
</defs>
</svg>
