<svg width="300" height="210" viewBox="0 0 300 210" fill="none" xmlns="http://www.w3.org/2000/svg">
<rect width="300" height="210" fill="#121517"/>
<mask id="path-1-inside-1_2357_1868" fill="white">
<path fill-rule="evenodd" clip-rule="evenodd" d="M23.0957 16.7842C20.8866 16.7842 19.0957 18.575 19.0957 20.7842V126.513C19.0957 128.722 20.8866 130.513 23.0957 130.513H135.023L150 144.594L164.977 130.513H276.905C279.114 130.513 280.905 128.722 280.905 126.513V20.7842C280.905 18.575 279.114 16.7842 276.905 16.7842H23.0957Z"/>
</mask>
<path fill-rule="evenodd" clip-rule="evenodd" d="M23.0957 16.7842C20.8866 16.7842 19.0957 18.575 19.0957 20.7842V126.513C19.0957 128.722 20.8866 130.513 23.0957 130.513H135.023L150 144.594L164.977 130.513H276.905C279.114 130.513 280.905 128.722 280.905 126.513V20.7842C280.905 18.575 279.114 16.7842 276.905 16.7842H23.0957Z" fill="black"/>
<path d="M135.023 130.513L135.708 129.784L135.419 129.513H135.023V130.513ZM150 144.594L149.315 145.323L150 145.967L150.685 145.323L150 144.594ZM164.977 130.513V129.513H164.581L164.292 129.784L164.977 130.513ZM20.0957 20.7842C20.0957 19.1273 21.4388 17.7842 23.0957 17.7842V15.7842C20.3343 15.7842 18.0957 18.0228 18.0957 20.7842H20.0957ZM20.0957 126.513V20.7842H18.0957V126.513H20.0957ZM23.0957 129.513C21.4389 129.513 20.0957 128.17 20.0957 126.513H18.0957C18.0957 129.274 20.3343 131.513 23.0957 131.513V129.513ZM135.023 129.513H23.0957V131.513H135.023V129.513ZM150.685 143.866L135.708 129.784L134.338 131.242L149.315 145.323L150.685 143.866ZM164.292 129.784L149.315 143.866L150.685 145.323L165.662 131.242L164.292 129.784ZM276.905 129.513H164.977V131.513H276.905V129.513ZM279.905 126.513C279.905 128.17 278.562 129.513 276.905 129.513V131.513C279.666 131.513 281.905 129.274 281.905 126.513H279.905ZM279.905 20.7842V126.513H281.905V20.7842H279.905ZM276.905 17.7842C278.562 17.7842 279.905 19.1273 279.905 20.7842H281.905C281.905 18.0228 279.666 15.7842 276.905 15.7842V17.7842ZM23.0957 17.7842H276.905V15.7842H23.0957V17.7842Z" fill="white" mask="url(#path-1-inside-1_2357_1868)"/>
<mask id="path-3-inside-2_2357_1868" fill="white">
<path fill-rule="evenodd" clip-rule="evenodd" d="M23.0957 16.7842C20.8866 16.7842 19.0957 18.575 19.0957 20.7842V126.513C19.0957 128.722 20.8866 130.513 23.0957 130.513H135.023L150 144.594L164.977 130.513H276.905C279.114 130.513 280.905 128.722 280.905 126.513V20.7842C280.905 18.575 279.114 16.7842 276.905 16.7842H23.0957Z"/>
</mask>
<path fill-rule="evenodd" clip-rule="evenodd" d="M23.0957 16.7842C20.8866 16.7842 19.0957 18.575 19.0957 20.7842V126.513C19.0957 128.722 20.8866 130.513 23.0957 130.513H135.023L150 144.594L164.977 130.513H276.905C279.114 130.513 280.905 128.722 280.905 126.513V20.7842C280.905 18.575 279.114 16.7842 276.905 16.7842H23.0957Z" fill="black"/>
<path d="M135.023 130.513L135.708 129.784L135.419 129.513H135.023V130.513ZM150 144.594L149.315 145.323L150 145.967L150.685 145.323L150 144.594ZM164.977 130.513V129.513H164.581L164.292 129.784L164.977 130.513ZM20.0957 20.7842C20.0957 19.1273 21.4388 17.7842 23.0957 17.7842V15.7842C20.3343 15.7842 18.0957 18.0228 18.0957 20.7842H20.0957ZM20.0957 126.513V20.7842H18.0957V126.513H20.0957ZM23.0957 129.513C21.4389 129.513 20.0957 128.17 20.0957 126.513H18.0957C18.0957 129.274 20.3343 131.513 23.0957 131.513V129.513ZM135.023 129.513H23.0957V131.513H135.023V129.513ZM150.685 143.866L135.708 129.784L134.338 131.242L149.315 145.323L150.685 143.866ZM164.292 129.784L149.315 143.866L150.685 145.323L165.662 131.242L164.292 129.784ZM276.905 129.513H164.977V131.513H276.905V129.513ZM279.905 126.513C279.905 128.17 278.562 129.513 276.905 129.513V131.513C279.666 131.513 281.905 129.274 281.905 126.513H279.905ZM279.905 20.7842V126.513H281.905V20.7842H279.905ZM276.905 17.7842C278.562 17.7842 279.905 19.1273 279.905 20.7842H281.905C281.905 18.0228 279.666 15.7842 276.905 15.7842V17.7842ZM23.0957 17.7842H276.905V15.7842H23.0957V17.7842Z" fill="white" mask="url(#path-3-inside-2_2357_1868)"/>
<path d="M38.3825 32.6666C41.6765 32.6666 44.8085 33.6926 44.8085 38.8406C44.8085 43.8626 41.7485 45.1226 38.6885 45.1226H35.1245V32.6666H38.3825ZM38.7965 34.6106H37.7705V43.1786H38.8505C40.6685 43.1786 42.0545 42.3326 42.0545 38.8406C42.0545 35.2766 40.5965 34.6106 38.7965 34.6106ZM48.0376 30.6686C48.9556 30.6686 49.6036 31.3166 49.6036 32.1626C49.6036 33.0086 48.9556 33.6566 48.0376 33.6566C47.1196 33.6566 46.4896 33.0086 46.4896 32.1626C46.4896 31.3166 47.1196 30.6686 48.0376 30.6686ZM49.3336 35.5826V45.1226H46.7776V35.5826H49.3336ZM59.1477 42.4766C59.1477 43.2506 59.3817 43.5206 59.8497 43.6826L59.3097 45.3746C58.2297 45.2666 57.5097 44.9246 57.1137 43.9886C56.4297 45.0146 55.3857 45.4106 54.2517 45.4106C52.3437 45.4106 51.1557 44.1866 51.1557 42.4586C51.1557 40.3706 52.7217 39.2366 55.5477 39.2366H56.6457V38.7686C56.6457 37.5806 56.1417 37.2026 54.9357 37.2026C54.3057 37.2026 53.3877 37.3826 52.4157 37.7066L51.8397 35.9966C53.0277 35.5286 54.2877 35.2946 55.3677 35.2946C58.0137 35.2946 59.1477 36.4646 59.1477 38.6246V42.4766ZM54.9537 43.5746C55.6917 43.5746 56.2497 43.1966 56.6457 42.5126V40.6946H55.7997C54.4137 40.6946 53.7297 41.1986 53.7297 42.2426C53.7297 43.0886 54.1617 43.5746 54.9537 43.5746ZM64.0774 45.4106C62.5294 45.4106 61.6114 44.4746 61.6114 42.8186V31.7846L64.1674 31.4966V42.7466C64.1674 43.1606 64.3294 43.3766 64.6894 43.3766C64.8874 43.3766 65.0494 43.3406 65.1934 43.2686L65.7154 45.0866C65.3014 45.2666 64.7254 45.4106 64.0774 45.4106ZM70.8658 35.2946C73.7098 35.2946 75.4198 37.1846 75.4198 40.3526C75.4198 43.3766 73.7098 45.4106 70.8478 45.4106C68.0038 45.4106 66.2758 43.5206 66.2758 40.3526C66.2758 37.3106 67.9858 35.2946 70.8658 35.2946ZM70.8658 37.2026C69.5878 37.2026 68.9398 38.1746 68.9398 40.3526C68.9398 42.5486 69.5878 43.5026 70.8478 43.5026C72.1078 43.5026 72.7558 42.5306 72.7558 40.3526C72.7558 38.1566 72.1078 37.2026 70.8658 37.2026ZM85.2655 34.1426L85.8955 36.1046C85.1935 36.3746 84.2935 36.4646 83.1415 36.4646C84.3115 36.9866 84.9055 37.7066 84.9055 38.9126C84.9055 40.7666 83.4115 42.1166 80.9815 42.1166C80.5675 42.1166 80.2075 42.0806 79.8655 41.9906C79.6495 42.1346 79.5055 42.3686 79.5055 42.6206C79.5055 42.9446 79.6675 43.2506 80.6035 43.2506H82.0615C84.2215 43.2506 85.6075 44.4026 85.6075 45.9866C85.6075 47.9126 83.9335 49.0826 80.7475 49.0826C77.2555 49.0826 76.3015 47.9486 76.3015 46.0406H78.5875C78.5875 46.9406 78.9835 47.3366 80.8015 47.3366C82.5655 47.3366 83.0335 46.8506 83.0335 46.1666C83.0335 45.5186 82.5475 45.1226 81.5395 45.1226H80.1355C78.1375 45.1226 77.3095 44.2586 77.3095 43.2506C77.3095 42.5666 77.7415 41.9006 78.4255 41.4686C77.2375 40.8206 76.7335 39.9746 76.7335 38.7506C76.7335 36.6446 78.4075 35.2946 80.8015 35.2946C82.9975 35.3486 84.1135 34.7906 85.2655 34.1426ZM80.8555 37.0046C79.8835 37.0046 79.2895 37.6706 79.2895 38.7146C79.2895 39.8126 79.9015 40.4606 80.8735 40.4606C81.8995 40.4606 82.4395 39.8486 82.4395 38.6786C82.4395 37.5446 81.9175 37.0046 80.8555 37.0046ZM99.8651 32.6666L99.5771 34.7366H96.4271V45.1226H93.7811V34.7366H90.4691V32.6666H99.8651ZM104.743 35.3126C105.085 35.3126 105.373 35.3666 105.697 35.4566L105.265 37.9226C104.977 37.8506 104.743 37.7966 104.419 37.7966C103.249 37.7966 102.709 38.6606 102.367 40.2086V45.1226H99.8108V35.5826H102.025L102.259 37.4366C102.709 36.1046 103.627 35.3126 104.743 35.3126ZM108.225 30.6686C109.143 30.6686 109.791 31.3166 109.791 32.1626C109.791 33.0086 109.143 33.6566 108.225 33.6566C107.307 33.6566 106.677 33.0086 106.677 32.1626C106.677 31.3166 107.307 30.6686 108.225 30.6686ZM109.521 35.5826V45.1226H106.965V35.5826H109.521ZM119.947 34.1426L120.577 36.1046C119.875 36.3746 118.975 36.4646 117.823 36.4646C118.993 36.9866 119.587 37.7066 119.587 38.9126C119.587 40.7666 118.093 42.1166 115.663 42.1166C115.249 42.1166 114.889 42.0806 114.547 41.9906C114.331 42.1346 114.187 42.3686 114.187 42.6206C114.187 42.9446 114.349 43.2506 115.285 43.2506H116.743C118.903 43.2506 120.289 44.4026 120.289 45.9866C120.289 47.9126 118.615 49.0826 115.429 49.0826C111.937 49.0826 110.983 47.9486 110.983 46.0406H113.269C113.269 46.9406 113.665 47.3366 115.483 47.3366C117.247 47.3366 117.715 46.8506 117.715 46.1666C117.715 45.5186 117.229 45.1226 116.221 45.1226H114.817C112.819 45.1226 111.991 44.2586 111.991 43.2506C111.991 42.5666 112.423 41.9006 113.107 41.4686C111.919 40.8206 111.415 39.9746 111.415 38.7506C111.415 36.6446 113.089 35.2946 115.483 35.2946C117.679 35.3486 118.795 34.7906 119.947 34.1426ZM115.537 37.0046C114.565 37.0046 113.971 37.6706 113.971 38.7146C113.971 39.8126 114.583 40.4606 115.555 40.4606C116.581 40.4606 117.121 39.8486 117.121 38.6786C117.121 37.5446 116.599 37.0046 115.537 37.0046ZM129.738 34.1426L130.368 36.1046C129.666 36.3746 128.766 36.4646 127.614 36.4646C128.784 36.9866 129.378 37.7066 129.378 38.9126C129.378 40.7666 127.884 42.1166 125.454 42.1166C125.04 42.1166 124.68 42.0806 124.338 41.9906C124.122 42.1346 123.978 42.3686 123.978 42.6206C123.978 42.9446 124.14 43.2506 125.076 43.2506H126.534C128.694 43.2506 130.08 44.4026 130.08 45.9866C130.08 47.9126 128.406 49.0826 125.22 49.0826C121.728 49.0826 120.774 47.9486 120.774 46.0406H123.06C123.06 46.9406 123.456 47.3366 125.274 47.3366C127.038 47.3366 127.506 46.8506 127.506 46.1666C127.506 45.5186 127.02 45.1226 126.012 45.1226H124.608C122.61 45.1226 121.782 44.2586 121.782 43.2506C121.782 42.5666 122.214 41.9006 122.898 41.4686C121.71 40.8206 121.206 39.9746 121.206 38.7506C121.206 36.6446 122.88 35.2946 125.274 35.2946C127.47 35.3486 128.586 34.7906 129.738 34.1426ZM125.328 37.0046C124.356 37.0046 123.762 37.6706 123.762 38.7146C123.762 39.8126 124.374 40.4606 125.346 40.4606C126.372 40.4606 126.912 39.8486 126.912 38.6786C126.912 37.5446 126.39 37.0046 125.328 37.0046ZM139.515 40.1366C139.515 40.4606 139.479 40.8566 139.461 41.1266H133.503C133.683 42.9626 134.547 43.5026 135.771 43.5026C136.581 43.5026 137.265 43.2506 138.093 42.6746L139.155 44.1146C138.219 44.8706 137.031 45.4106 135.537 45.4106C132.477 45.4106 130.875 43.3946 130.875 40.4066C130.875 37.5266 132.423 35.2946 135.213 35.2946C137.913 35.2946 139.515 37.0946 139.515 40.1366ZM136.977 39.5246V39.4166C136.977 37.9766 136.491 37.0406 135.267 37.0406C134.259 37.0406 133.647 37.7066 133.503 39.5246H136.977ZM146.333 35.3126C146.675 35.3126 146.963 35.3666 147.287 35.4566L146.855 37.9226C146.567 37.8506 146.333 37.7966 146.009 37.7966C144.839 37.7966 144.299 38.6606 143.957 40.2086V45.1226H141.401V35.5826H143.615L143.849 37.4366C144.299 36.1046 145.217 35.3126 146.333 35.3126Z" fill="white"/>
<path d="M42.9365 61.3912L42.7565 62.8492H39.3185V73.7932H37.6085V62.8492H34.0805V61.3912H42.9365ZM47.5 64.0912C47.806 64.0912 48.148 64.1272 48.436 64.1992L48.13 65.8192C47.842 65.7472 47.644 65.7112 47.302 65.7112C46.114 65.7112 45.43 66.5572 45.034 68.3752V73.7932H43.378V64.3072H44.8L44.962 66.2332C45.466 64.8112 46.348 64.0912 47.5 64.0912ZM51.1313 59.7532C51.8333 59.7532 52.3013 60.2392 52.3013 60.8872C52.3013 61.5172 51.8333 62.0032 51.1313 62.0032C50.4473 62.0032 49.9793 61.5172 49.9793 60.8872C49.9793 60.2392 50.4473 59.7532 51.1313 59.7532ZM51.9773 64.3072V73.7932H50.3213V64.3072H51.9773ZM62.5654 63.2452L63.0514 64.7392C62.2594 64.9912 61.3594 65.0272 60.2794 65.0272C61.3954 65.5312 61.9534 66.3232 61.9534 67.4212C61.9534 69.2932 60.6034 70.6432 58.3354 70.6432C57.9034 70.6432 57.5254 70.5892 57.1294 70.4632C56.8594 70.6612 56.6614 71.0032 56.6614 71.3452C56.6614 71.7772 56.9314 72.1192 57.9034 72.1192H59.4154C61.3594 72.1192 62.6554 73.2352 62.6554 74.7472C62.6554 76.5832 61.1434 77.6272 58.2094 77.6272C55.1134 77.6272 54.1414 76.6732 54.1414 74.7472H55.6354C55.6354 75.8272 56.1214 76.3312 58.2094 76.3312C60.2614 76.3312 60.9814 75.8092 60.9814 74.8552C60.9814 73.9552 60.2614 73.5052 59.0734 73.5052H57.5794C55.8874 73.5052 55.1314 72.6592 55.1314 71.7052C55.1314 71.0932 55.4914 70.4812 56.1754 70.0312C55.0774 69.4552 54.5734 68.6272 54.5734 67.4032C54.5734 65.4592 56.1394 64.0912 58.2274 64.0912C60.5854 64.1452 61.4494 63.7492 62.5654 63.2452ZM58.2274 65.2792C56.9494 65.2792 56.2654 66.1612 56.2654 67.4032C56.2654 68.6632 56.9674 69.5452 58.2634 69.5452C59.5594 69.5452 60.2614 68.7532 60.2614 67.3852C60.2614 65.9992 59.5774 65.2792 58.2274 65.2792ZM71.917 63.2452L72.403 64.7392C71.611 64.9912 70.711 65.0272 69.631 65.0272C70.747 65.5312 71.305 66.3232 71.305 67.4212C71.305 69.2932 69.955 70.6432 67.687 70.6432C67.255 70.6432 66.877 70.5892 66.481 70.4632C66.211 70.6612 66.013 71.0032 66.013 71.3452C66.013 71.7772 66.283 72.1192 67.255 72.1192H68.767C70.711 72.1192 72.007 73.2352 72.007 74.7472C72.007 76.5832 70.495 77.6272 67.561 77.6272C64.465 77.6272 63.493 76.6732 63.493 74.7472H64.987C64.987 75.8272 65.473 76.3312 67.561 76.3312C69.613 76.3312 70.333 75.8092 70.333 74.8552C70.333 73.9552 69.613 73.5052 68.425 73.5052H66.931C65.239 73.5052 64.483 72.6592 64.483 71.7052C64.483 71.0932 64.843 70.4812 65.527 70.0312C64.429 69.4552 63.925 68.6272 63.925 67.4032C63.925 65.4592 65.491 64.0912 67.579 64.0912C69.937 64.1452 70.801 63.7492 71.917 63.2452ZM67.579 65.2792C66.301 65.2792 65.617 66.1612 65.617 67.4032C65.617 68.6632 66.319 69.5452 67.615 69.5452C68.911 69.5452 69.613 68.7532 69.613 67.3852C69.613 65.9992 68.929 65.2792 67.579 65.2792ZM81.0928 68.7712C81.0928 69.0952 81.0748 69.4012 81.0568 69.6172H75.0088C75.1708 71.8132 76.1968 72.6592 77.5648 72.6592C78.5008 72.6592 79.2028 72.4072 80.0308 71.8312L80.7508 72.8212C79.8148 73.5592 78.7528 74.0092 77.4388 74.0092C74.7928 74.0092 73.2448 72.1552 73.2448 69.1492C73.2448 66.1972 74.7388 64.0912 77.1868 64.0912C79.7428 64.0912 81.0928 65.8732 81.0928 68.7712ZM79.4548 68.3932V68.2852C79.4548 66.4312 78.7168 65.4052 77.2228 65.4052C75.9628 65.4052 75.1348 66.2872 75.0088 68.3932H79.4548ZM87.9472 64.0912C88.2532 64.0912 88.5952 64.1272 88.8832 64.1992L88.5772 65.8192C88.2892 65.7472 88.0912 65.7112 87.7492 65.7112C86.5612 65.7112 85.8772 66.5572 85.4812 68.3752V73.7932H83.8252V64.3072H85.2472L85.4092 66.2332C85.9132 64.8112 86.7952 64.0912 87.9472 64.0912ZM99.6903 72.2272L100.32 73.3612C99.6903 73.7932 99.0063 74.0092 98.1963 74.0092C96.5943 74.0092 95.6403 73.0732 95.6403 71.3092V65.5852H93.9843V64.3072H95.6403V62.1652L97.2963 61.9672V64.3072H99.5463L99.3663 65.5852H97.2963V71.2372C97.2963 72.1912 97.6023 72.6412 98.4303 72.6412C98.8443 72.6412 99.2223 72.5152 99.6903 72.2272ZM105.424 64.0912C108.124 64.0912 109.636 66.0352 109.636 69.0412C109.636 71.9752 108.088 74.0092 105.406 74.0092C102.706 74.0092 101.176 72.0652 101.176 69.0592C101.176 66.1252 102.724 64.0912 105.424 64.0912ZM105.424 65.4232C103.84 65.4232 102.958 66.5752 102.958 69.0592C102.958 71.5252 103.822 72.6772 105.406 72.6772C106.99 72.6772 107.854 71.5252 107.854 69.0412C107.854 66.5752 106.99 65.4232 105.424 65.4232ZM120.7 64.0912C123.4 64.0912 124.912 66.0352 124.912 69.0412C124.912 71.9752 123.364 74.0092 120.682 74.0092C117.982 74.0092 116.452 72.0652 116.452 69.0592C116.452 66.1252 118 64.0912 120.7 64.0912ZM120.7 65.4232C119.116 65.4232 118.234 66.5752 118.234 69.0592C118.234 71.5252 119.098 72.6772 120.682 72.6772C122.266 72.6772 123.13 71.5252 123.13 69.0412C123.13 66.5752 122.266 65.4232 120.7 65.4232ZM132.004 64.0912C134.524 64.0912 135.514 66.0532 135.514 69.0412C135.514 71.9212 134.236 74.0092 131.788 74.0092C130.762 74.0092 129.916 73.6672 129.304 72.9292V77.4292L127.648 77.6272V64.3072H129.07L129.196 65.5852C129.898 64.6132 130.924 64.0912 132.004 64.0912ZM131.392 72.6592C132.904 72.6592 133.732 71.5252 133.732 69.0412C133.732 66.5752 133.012 65.4052 131.59 65.4052C130.582 65.4052 129.808 66.1252 129.304 66.8812V71.5072C129.79 72.2452 130.528 72.6592 131.392 72.6592ZM145.499 68.7712C145.499 69.0952 145.481 69.4012 145.463 69.6172H139.415C139.577 71.8132 140.603 72.6592 141.971 72.6592C142.907 72.6592 143.609 72.4072 144.437 71.8312L145.157 72.8212C144.221 73.5592 143.159 74.0092 141.845 74.0092C139.199 74.0092 137.651 72.1552 137.651 69.1492C137.651 66.1972 139.145 64.0912 141.593 64.0912C144.149 64.0912 145.499 65.8732 145.499 68.7712ZM143.861 68.3932V68.2852C143.861 66.4312 143.123 65.4052 141.629 65.4052C140.369 65.4052 139.541 66.2872 139.415 68.3932H143.861ZM152.695 64.0912C154.441 64.0912 155.449 65.1892 155.449 66.9892V73.7932H153.793V67.2232C153.793 65.8012 153.217 65.3872 152.299 65.3872C151.237 65.3872 150.517 66.0532 149.887 67.0612V73.7932H148.231V64.3072H149.653L149.797 65.7112C150.445 64.7392 151.453 64.0912 152.695 64.0912ZM169.932 71.5792C169.932 72.4072 170.238 72.6772 170.724 72.8572L170.346 74.0092C169.392 73.9012 168.78 73.5232 168.492 72.5872C167.826 73.5772 166.818 74.0092 165.666 74.0092C163.776 74.0092 162.642 72.8392 162.642 71.1472C162.642 69.1132 164.172 68.0152 166.818 68.0152H168.276V67.3132C168.276 65.9452 167.61 65.4412 166.296 65.4412C165.594 65.4412 164.712 65.6212 163.74 65.9452L163.326 64.7392C164.496 64.3072 165.54 64.0912 166.602 64.0912C168.888 64.0912 169.932 65.2612 169.932 67.2412V71.5792ZM166.044 72.7672C167.016 72.7672 167.736 72.2812 168.276 71.2912V69.1132H167.034C165.288 69.1132 164.406 69.7612 164.406 71.0572C164.406 72.1732 164.964 72.7672 166.044 72.7672ZM183.785 60.2932L185.441 60.4912V73.7932H183.983L183.821 72.4792C183.209 73.4332 182.255 74.0092 181.085 74.0092C178.781 74.0092 177.503 72.0472 177.503 69.0952C177.503 66.1972 178.907 64.0912 181.229 64.0912C182.345 64.0912 183.155 64.5952 183.785 65.2612V60.2932ZM181.445 72.6952C182.507 72.6952 183.155 72.1732 183.785 71.2912V66.6472C183.191 65.8912 182.525 65.4052 181.589 65.4052C180.167 65.4052 179.285 66.5932 179.285 69.0592C179.285 71.5612 180.077 72.6952 181.445 72.6952ZM189.665 59.7532C190.367 59.7532 190.835 60.2392 190.835 60.8872C190.835 61.5172 190.367 62.0032 189.665 62.0032C188.981 62.0032 188.513 61.5172 188.513 60.8872C188.513 60.2392 188.981 59.7532 189.665 59.7532ZM190.511 64.3072V73.7932H188.855V64.3072H190.511ZM200.325 71.5792C200.325 72.4072 200.631 72.6772 201.117 72.8572L200.739 74.0092C199.785 73.9012 199.173 73.5232 198.885 72.5872C198.219 73.5772 197.211 74.0092 196.059 74.0092C194.169 74.0092 193.035 72.8392 193.035 71.1472C193.035 69.1132 194.565 68.0152 197.211 68.0152H198.669V67.3132C198.669 65.9452 198.003 65.4412 196.689 65.4412C195.987 65.4412 195.105 65.6212 194.133 65.9452L193.719 64.7392C194.889 64.3072 195.933 64.0912 196.995 64.0912C199.281 64.0912 200.325 65.2612 200.325 67.2412V71.5792ZM196.437 72.7672C197.409 72.7672 198.129 72.2812 198.669 71.2912V69.1132H197.427C195.681 69.1132 194.799 69.7612 194.799 71.0572C194.799 72.1732 195.357 72.7672 196.437 72.7672ZM205.616 74.0092C204.41 74.0092 203.636 73.2712 203.636 71.9212V60.4912L205.292 60.2932V71.8852C205.292 72.3892 205.454 72.6412 205.886 72.6412C206.12 72.6412 206.318 72.6052 206.498 72.5332L206.93 73.6852C206.57 73.8832 206.102 74.0092 205.616 74.0092ZM212.387 64.0912C215.087 64.0912 216.599 66.0352 216.599 69.0412C216.599 71.9752 215.051 74.0092 212.369 74.0092C209.669 74.0092 208.139 72.0652 208.139 69.0592C208.139 66.1252 209.687 64.0912 212.387 64.0912ZM212.387 65.4232C210.803 65.4232 209.921 66.5752 209.921 69.0592C209.921 71.5252 210.785 72.6772 212.369 72.6772C213.953 72.6772 214.817 71.5252 214.817 69.0412C214.817 66.5752 213.953 65.4232 212.387 65.4232ZM226.499 63.2452L226.985 64.7392C226.193 64.9912 225.293 65.0272 224.213 65.0272C225.329 65.5312 225.887 66.3232 225.887 67.4212C225.887 69.2932 224.537 70.6432 222.269 70.6432C221.837 70.6432 221.459 70.5892 221.063 70.4632C220.793 70.6612 220.595 71.0032 220.595 71.3452C220.595 71.7772 220.865 72.1192 221.837 72.1192H223.349C225.293 72.1192 226.589 73.2352 226.589 74.7472C226.589 76.5832 225.077 77.6272 222.143 77.6272C219.047 77.6272 218.075 76.6732 218.075 74.7472H219.569C219.569 75.8272 220.055 76.3312 222.143 76.3312C224.195 76.3312 224.915 75.8092 224.915 74.8552C224.915 73.9552 224.195 73.5052 223.007 73.5052H221.513C219.821 73.5052 219.065 72.6592 219.065 71.7052C219.065 71.0932 219.425 70.4812 220.109 70.0312C219.011 69.4552 218.507 68.6272 218.507 67.4032C218.507 65.4592 220.073 64.0912 222.161 64.0912C224.519 64.1452 225.383 63.7492 226.499 63.2452ZM222.161 65.2792C220.883 65.2792 220.199 66.1612 220.199 67.4032C220.199 68.6632 220.901 69.5452 222.197 69.5452C223.493 69.5452 224.195 68.7532 224.195 67.3852C224.195 65.9992 223.511 65.2792 222.161 65.2792ZM229.119 71.5072C229.839 71.5072 230.379 72.0652 230.379 72.7492C230.379 73.4512 229.839 74.0092 229.119 74.0092C228.417 74.0092 227.877 73.4512 227.877 72.7492C227.877 72.0652 228.417 71.5072 229.119 71.5072Z" fill="white"/>
<rect x="125.111" y="153.513" width="45" height="45" rx="3.5" fill="black" stroke="white"/>
<path d="M155.611 169.013V171.005L149.931 176.542V183.013H145.351V176.542L139.611 171.005V169.013H155.611Z" fill="white"/>
</svg>
