<svg width="300" height="210" viewBox="0 0 300 210" fill="none" xmlns="http://www.w3.org/2000/svg">
<rect width="300" height="210" fill="#121517"/>
<mask id="path-1-inside-1_2357_1868" fill="white">
<path fill-rule="evenodd" clip-rule="evenodd" d="M23.0957 16.7842C20.8866 16.7842 19.0957 18.575 19.0957 20.7842V126.513C19.0957 128.722 20.8866 130.513 23.0957 130.513H135.023L150 144.594L164.977 130.513H276.905C279.114 130.513 280.905 128.722 280.905 126.513V20.7842C280.905 18.575 279.114 16.7842 276.905 16.7842H23.0957Z"/>
</mask>
<path fill-rule="evenodd" clip-rule="evenodd" d="M23.0957 16.7842C20.8866 16.7842 19.0957 18.575 19.0957 20.7842V126.513C19.0957 128.722 20.8866 130.513 23.0957 130.513H135.023L150 144.594L164.977 130.513H276.905C279.114 130.513 280.905 128.722 280.905 126.513V20.7842C280.905 18.575 279.114 16.7842 276.905 16.7842H23.0957Z" fill="black"/>
<path d="M135.023 130.513L135.708 129.784L135.419 129.513H135.023V130.513ZM150 144.594L149.315 145.323L150 145.967L150.685 145.323L150 144.594ZM164.977 130.513V129.513H164.581L164.292 129.784L164.977 130.513ZM20.0957 20.7842C20.0957 19.1273 21.4388 17.7842 23.0957 17.7842V15.7842C20.3343 15.7842 18.0957 18.0228 18.0957 20.7842H20.0957ZM20.0957 126.513V20.7842H18.0957V126.513H20.0957ZM23.0957 129.513C21.4389 129.513 20.0957 128.17 20.0957 126.513H18.0957C18.0957 129.274 20.3343 131.513 23.0957 131.513V129.513ZM135.023 129.513H23.0957V131.513H135.023V129.513ZM150.685 143.866L135.708 129.784L134.338 131.242L149.315 145.323L150.685 143.866ZM164.292 129.784L149.315 143.866L150.685 145.323L165.662 131.242L164.292 129.784ZM276.905 129.513H164.977V131.513H276.905V129.513ZM279.905 126.513C279.905 128.17 278.562 129.513 276.905 129.513V131.513C279.666 131.513 281.905 129.274 281.905 126.513H279.905ZM279.905 20.7842V126.513H281.905V20.7842H279.905ZM276.905 17.7842C278.562 17.7842 279.905 19.1273 279.905 20.7842H281.905C281.905 18.0228 279.666 15.7842 276.905 15.7842V17.7842ZM23.0957 17.7842H276.905V15.7842H23.0957V17.7842Z" fill="white" mask="url(#path-1-inside-1_2357_1868)"/>
<mask id="path-3-inside-2_2357_1868" fill="white">
<path fill-rule="evenodd" clip-rule="evenodd" d="M23.0957 16.7842C20.8866 16.7842 19.0957 18.575 19.0957 20.7842V126.513C19.0957 128.722 20.8866 130.513 23.0957 130.513H135.023L150 144.594L164.977 130.513H276.905C279.114 130.513 280.905 128.722 280.905 126.513V20.7842C280.905 18.575 279.114 16.7842 276.905 16.7842H23.0957Z"/>
</mask>
<path fill-rule="evenodd" clip-rule="evenodd" d="M23.0957 16.7842C20.8866 16.7842 19.0957 18.575 19.0957 20.7842V126.513C19.0957 128.722 20.8866 130.513 23.0957 130.513H135.023L150 144.594L164.977 130.513H276.905C279.114 130.513 280.905 128.722 280.905 126.513V20.7842C280.905 18.575 279.114 16.7842 276.905 16.7842H23.0957Z" fill="black"/>
<path d="M135.023 130.513L135.708 129.784L135.419 129.513H135.023V130.513ZM150 144.594L149.315 145.323L150 145.967L150.685 145.323L150 144.594ZM164.977 130.513V129.513H164.581L164.292 129.784L164.977 130.513ZM20.0957 20.7842C20.0957 19.1273 21.4388 17.7842 23.0957 17.7842V15.7842C20.3343 15.7842 18.0957 18.0228 18.0957 20.7842H20.0957ZM20.0957 126.513V20.7842H18.0957V126.513H20.0957ZM23.0957 129.513C21.4389 129.513 20.0957 128.17 20.0957 126.513H18.0957C18.0957 129.274 20.3343 131.513 23.0957 131.513V129.513ZM135.023 129.513H23.0957V131.513H135.023V129.513ZM150.685 143.866L135.708 129.784L134.338 131.242L149.315 145.323L150.685 143.866ZM164.292 129.784L149.315 143.866L150.685 145.323L165.662 131.242L164.292 129.784ZM276.905 129.513H164.977V131.513H276.905V129.513ZM279.905 126.513C279.905 128.17 278.562 129.513 276.905 129.513V131.513C279.666 131.513 281.905 129.274 281.905 126.513H279.905ZM279.905 20.7842V126.513H281.905V20.7842H279.905ZM276.905 17.7842C278.562 17.7842 279.905 19.1273 279.905 20.7842H281.905C281.905 18.0228 279.666 15.7842 276.905 15.7842V17.7842ZM23.0957 17.7842H276.905V15.7842H23.0957V17.7842Z" fill="white" mask="url(#path-3-inside-2_2357_1868)"/>
<path d="M38.3825 32.6666C41.6765 32.6666 44.8085 33.6926 44.8085 38.8406C44.8085 43.8626 41.7485 45.1226 38.6885 45.1226H35.1245V32.6666H38.3825ZM38.7965 34.6106H37.7705V43.1786H38.8505C40.6685 43.1786 42.0545 42.3326 42.0545 38.8406C42.0545 35.2766 40.5965 34.6106 38.7965 34.6106ZM48.0376 30.6686C48.9556 30.6686 49.6036 31.3166 49.6036 32.1626C49.6036 33.0086 48.9556 33.6566 48.0376 33.6566C47.1196 33.6566 46.4896 33.0086 46.4896 32.1626C46.4896 31.3166 47.1196 30.6686 48.0376 30.6686ZM49.3336 35.5826V45.1226H46.7776V35.5826H49.3336ZM59.1477 42.4766C59.1477 43.2506 59.3817 43.5206 59.8497 43.6826L59.3097 45.3746C58.2297 45.2666 57.5097 44.9246 57.1137 43.9886C56.4297 45.0146 55.3857 45.4106 54.2517 45.4106C52.3437 45.4106 51.1557 44.1866 51.1557 42.4586C51.1557 40.3706 52.7217 39.2366 55.5477 39.2366H56.6457V38.7686C56.6457 37.5806 56.1417 37.2026 54.9357 37.2026C54.3057 37.2026 53.3877 37.3826 52.4157 37.7066L51.8397 35.9966C53.0277 35.5286 54.2877 35.2946 55.3677 35.2946C58.0137 35.2946 59.1477 36.4646 59.1477 38.6246V42.4766ZM54.9537 43.5746C55.6917 43.5746 56.2497 43.1966 56.6457 42.5126V40.6946H55.7997C54.4137 40.6946 53.7297 41.1986 53.7297 42.2426C53.7297 43.0886 54.1617 43.5746 54.9537 43.5746ZM64.0774 45.4106C62.5294 45.4106 61.6114 44.4746 61.6114 42.8186V31.7846L64.1674 31.4966V42.7466C64.1674 43.1606 64.3294 43.3766 64.6894 43.3766C64.8874 43.3766 65.0494 43.3406 65.1934 43.2686L65.7154 45.0866C65.3014 45.2666 64.7254 45.4106 64.0774 45.4106ZM70.8658 35.2946C73.7098 35.2946 75.4198 37.1846 75.4198 40.3526C75.4198 43.3766 73.7098 45.4106 70.8478 45.4106C68.0038 45.4106 66.2758 43.5206 66.2758 40.3526C66.2758 37.3106 67.9858 35.2946 70.8658 35.2946ZM70.8658 37.2026C69.5878 37.2026 68.9398 38.1746 68.9398 40.3526C68.9398 42.5486 69.5878 43.5026 70.8478 43.5026C72.1078 43.5026 72.7558 42.5306 72.7558 40.3526C72.7558 38.1566 72.1078 37.2026 70.8658 37.2026ZM85.2655 34.1426L85.8955 36.1046C85.1935 36.3746 84.2935 36.4646 83.1415 36.4646C84.3115 36.9866 84.9055 37.7066 84.9055 38.9126C84.9055 40.7666 83.4115 42.1166 80.9815 42.1166C80.5675 42.1166 80.2075 42.0806 79.8655 41.9906C79.6495 42.1346 79.5055 42.3686 79.5055 42.6206C79.5055 42.9446 79.6675 43.2506 80.6035 43.2506H82.0615C84.2215 43.2506 85.6075 44.4026 85.6075 45.9866C85.6075 47.9126 83.9335 49.0826 80.7475 49.0826C77.2555 49.0826 76.3015 47.9486 76.3015 46.0406H78.5875C78.5875 46.9406 78.9835 47.3366 80.8015 47.3366C82.5655 47.3366 83.0335 46.8506 83.0335 46.1666C83.0335 45.5186 82.5475 45.1226 81.5395 45.1226H80.1355C78.1375 45.1226 77.3095 44.2586 77.3095 43.2506C77.3095 42.5666 77.7415 41.9006 78.4255 41.4686C77.2375 40.8206 76.7335 39.9746 76.7335 38.7506C76.7335 36.6446 78.4075 35.2946 80.8015 35.2946C82.9975 35.3486 84.1135 34.7906 85.2655 34.1426ZM80.8555 37.0046C79.8835 37.0046 79.2895 37.6706 79.2895 38.7146C79.2895 39.8126 79.9015 40.4606 80.8735 40.4606C81.8995 40.4606 82.4395 39.8486 82.4395 38.6786C82.4395 37.5446 81.9175 37.0046 80.8555 37.0046ZM99.8651 32.6666L99.5771 34.7366H96.4271V45.1226H93.7811V34.7366H90.4691V32.6666H99.8651ZM104.743 35.3126C105.085 35.3126 105.373 35.3666 105.697 35.4566L105.265 37.9226C104.977 37.8506 104.743 37.7966 104.419 37.7966C103.249 37.7966 102.709 38.6606 102.367 40.2086V45.1226H99.8108V35.5826H102.025L102.259 37.4366C102.709 36.1046 103.627 35.3126 104.743 35.3126ZM108.225 30.6686C109.143 30.6686 109.791 31.3166 109.791 32.1626C109.791 33.0086 109.143 33.6566 108.225 33.6566C107.307 33.6566 106.677 33.0086 106.677 32.1626C106.677 31.3166 107.307 30.6686 108.225 30.6686ZM109.521 35.5826V45.1226H106.965V35.5826H109.521ZM119.947 34.1426L120.577 36.1046C119.875 36.3746 118.975 36.4646 117.823 36.4646C118.993 36.9866 119.587 37.7066 119.587 38.9126C119.587 40.7666 118.093 42.1166 115.663 42.1166C115.249 42.1166 114.889 42.0806 114.547 41.9906C114.331 42.1346 114.187 42.3686 114.187 42.6206C114.187 42.9446 114.349 43.2506 115.285 43.2506H116.743C118.903 43.2506 120.289 44.4026 120.289 45.9866C120.289 47.9126 118.615 49.0826 115.429 49.0826C111.937 49.0826 110.983 47.9486 110.983 46.0406H113.269C113.269 46.9406 113.665 47.3366 115.483 47.3366C117.247 47.3366 117.715 46.8506 117.715 46.1666C117.715 45.5186 117.229 45.1226 116.221 45.1226H114.817C112.819 45.1226 111.991 44.2586 111.991 43.2506C111.991 42.5666 112.423 41.9006 113.107 41.4686C111.919 40.8206 111.415 39.9746 111.415 38.7506C111.415 36.6446 113.089 35.2946 115.483 35.2946C117.679 35.3486 118.795 34.7906 119.947 34.1426ZM115.537 37.0046C114.565 37.0046 113.971 37.6706 113.971 38.7146C113.971 39.8126 114.583 40.4606 115.555 40.4606C116.581 40.4606 117.121 39.8486 117.121 38.6786C117.121 37.5446 116.599 37.0046 115.537 37.0046ZM129.738 34.1426L130.368 36.1046C129.666 36.3746 128.766 36.4646 127.614 36.4646C128.784 36.9866 129.378 37.7066 129.378 38.9126C129.378 40.7666 127.884 42.1166 125.454 42.1166C125.04 42.1166 124.68 42.0806 124.338 41.9906C124.122 42.1346 123.978 42.3686 123.978 42.6206C123.978 42.9446 124.14 43.2506 125.076 43.2506H126.534C128.694 43.2506 130.08 44.4026 130.08 45.9866C130.08 47.9126 128.406 49.0826 125.22 49.0826C121.728 49.0826 120.774 47.9486 120.774 46.0406H123.06C123.06 46.9406 123.456 47.3366 125.274 47.3366C127.038 47.3366 127.506 46.8506 127.506 46.1666C127.506 45.5186 127.02 45.1226 126.012 45.1226H124.608C122.61 45.1226 121.782 44.2586 121.782 43.2506C121.782 42.5666 122.214 41.9006 122.898 41.4686C121.71 40.8206 121.206 39.9746 121.206 38.7506C121.206 36.6446 122.88 35.2946 125.274 35.2946C127.47 35.3486 128.586 34.7906 129.738 34.1426ZM125.328 37.0046C124.356 37.0046 123.762 37.6706 123.762 38.7146C123.762 39.8126 124.374 40.4606 125.346 40.4606C126.372 40.4606 126.912 39.8486 126.912 38.6786C126.912 37.5446 126.39 37.0046 125.328 37.0046ZM139.515 40.1366C139.515 40.4606 139.479 40.8566 139.461 41.1266H133.503C133.683 42.9626 134.547 43.5026 135.771 43.5026C136.581 43.5026 137.265 43.2506 138.093 42.6746L139.155 44.1146C138.219 44.8706 137.031 45.4106 135.537 45.4106C132.477 45.4106 130.875 43.3946 130.875 40.4066C130.875 37.5266 132.423 35.2946 135.213 35.2946C137.913 35.2946 139.515 37.0946 139.515 40.1366ZM136.977 39.5246V39.4166C136.977 37.9766 136.491 37.0406 135.267 37.0406C134.259 37.0406 133.647 37.7066 133.503 39.5246H136.977ZM146.333 35.3126C146.675 35.3126 146.963 35.3666 147.287 35.4566L146.855 37.9226C146.567 37.8506 146.333 37.7966 146.009 37.7966C144.839 37.7966 144.299 38.6606 143.957 40.2086V45.1226H141.401V35.5826H143.615L143.849 37.4366C144.299 36.1046 145.217 35.3126 146.333 35.3126Z" fill="white"/>
<path d="M39.9485 61.1752C41.5145 61.1752 42.3965 61.6072 43.3865 62.3992L42.4505 63.4972C41.6765 62.8672 40.9205 62.5792 40.0565 62.5792C38.1845 62.5792 36.6185 63.8392 36.6185 67.5832C36.6185 71.1652 38.1125 72.5692 40.0385 72.5692C41.2085 72.5692 41.9645 72.0472 42.6665 71.5252L43.5305 72.6232C42.8645 73.3252 41.6585 74.0092 39.9845 74.0092C36.9785 74.0092 34.8005 71.7592 34.8005 67.5832C34.8005 63.3892 37.1405 61.1752 39.9485 61.1752ZM48.981 64.0912C51.681 64.0912 53.193 66.0352 53.193 69.0412C53.193 71.9752 51.645 74.0092 48.963 74.0092C46.263 74.0092 44.733 72.0652 44.733 69.0592C44.733 66.1252 46.281 64.0912 48.981 64.0912ZM48.981 65.4232C47.397 65.4232 46.515 66.5752 46.515 69.0592C46.515 71.5252 47.379 72.6772 48.963 72.6772C50.547 72.6772 51.411 71.5252 51.411 69.0412C51.411 66.5752 50.547 65.4232 48.981 65.4232ZM60.3928 64.0912C62.1388 64.0912 63.1468 65.1892 63.1468 66.9892V73.7932H61.4908V67.2232C61.4908 65.8012 60.9148 65.3872 59.9968 65.3872C58.9348 65.3872 58.2148 66.0532 57.5848 67.0612V73.7932H55.9288V64.3072H57.3508L57.4948 65.7112C58.1428 64.7392 59.1508 64.0912 60.3928 64.0912ZM70.6336 72.2272L71.2636 73.3612C70.6336 73.7932 69.9496 74.0092 69.1396 74.0092C67.5376 74.0092 66.5836 73.0732 66.5836 71.3092V65.5852H64.9276V64.3072H66.5836V62.1652L68.2396 61.9672V64.3072H70.4896L70.3096 65.5852H68.2396V71.2372C68.2396 72.1912 68.5456 72.6412 69.3736 72.6412C69.7876 72.6412 70.1656 72.5152 70.6336 72.2272ZM77.1015 64.0912C77.4075 64.0912 77.7495 64.1272 78.0375 64.1992L77.7315 65.8192C77.4435 65.7472 77.2455 65.7112 76.9035 65.7112C75.7155 65.7112 75.0315 66.5572 74.6355 68.3752V73.7932H72.9795V64.3072H74.4015L74.5635 66.2332C75.0675 64.8112 75.9495 64.0912 77.1015 64.0912ZM83.3111 64.0912C86.0111 64.0912 87.5231 66.0352 87.5231 69.0412C87.5231 71.9752 85.9751 74.0092 83.2931 74.0092C80.5931 74.0092 79.0631 72.0652 79.0631 69.0592C79.0631 66.1252 80.6111 64.0912 83.3111 64.0912ZM83.3111 65.4232C81.7271 65.4232 80.8451 66.5752 80.8451 69.0592C80.8451 71.5252 81.7091 72.6772 83.2931 72.6772C84.8771 72.6772 85.7411 71.5252 85.7411 69.0412C85.7411 66.5752 84.8771 65.4232 83.3111 65.4232ZM92.1488 74.0092C90.9428 74.0092 90.1688 73.2712 90.1688 71.9212V60.4912L91.8248 60.2932V71.8852C91.8248 72.3892 91.9868 72.6412 92.4188 72.6412C92.6528 72.6412 92.8508 72.6052 93.0308 72.5332L93.4628 73.6852C93.1028 73.8832 92.6348 74.0092 92.1488 74.0092ZM105.984 60.2932L107.64 60.4912V73.7932H106.182L106.02 72.4792C105.408 73.4332 104.454 74.0092 103.284 74.0092C100.98 74.0092 99.7019 72.0472 99.7019 69.0952C99.7019 66.1972 101.106 64.0912 103.428 64.0912C104.544 64.0912 105.354 64.5952 105.984 65.2612V60.2932ZM103.644 72.6952C104.706 72.6952 105.354 72.1732 105.984 71.2912V66.6472C105.39 65.8912 104.724 65.4052 103.788 65.4052C102.366 65.4052 101.484 66.5932 101.484 69.0592C101.484 71.5612 102.276 72.6952 103.644 72.6952ZM111.864 59.7532C112.566 59.7532 113.034 60.2392 113.034 60.8872C113.034 61.5172 112.566 62.0032 111.864 62.0032C111.18 62.0032 110.712 61.5172 110.712 60.8872C110.712 60.2392 111.18 59.7532 111.864 59.7532ZM112.71 64.3072V73.7932H111.054V64.3072H112.71ZM122.524 71.5792C122.524 72.4072 122.83 72.6772 123.316 72.8572L122.938 74.0092C121.984 73.9012 121.372 73.5232 121.084 72.5872C120.418 73.5772 119.41 74.0092 118.258 74.0092C116.368 74.0092 115.234 72.8392 115.234 71.1472C115.234 69.1132 116.764 68.0152 119.41 68.0152H120.868V67.3132C120.868 65.9452 120.202 65.4412 118.888 65.4412C118.186 65.4412 117.304 65.6212 116.332 65.9452L115.918 64.7392C117.088 64.3072 118.132 64.0912 119.194 64.0912C121.48 64.0912 122.524 65.2612 122.524 67.2412V71.5792ZM118.636 72.7672C119.608 72.7672 120.328 72.2812 120.868 71.2912V69.1132H119.626C117.88 69.1132 116.998 69.7612 116.998 71.0572C116.998 72.1732 117.556 72.7672 118.636 72.7672ZM127.815 74.0092C126.609 74.0092 125.835 73.2712 125.835 71.9212V60.4912L127.491 60.2932V71.8852C127.491 72.3892 127.653 72.6412 128.085 72.6412C128.319 72.6412 128.517 72.6052 128.697 72.5332L129.129 73.6852C128.769 73.8832 128.301 74.0092 127.815 74.0092ZM134.587 64.0912C137.287 64.0912 138.799 66.0352 138.799 69.0412C138.799 71.9752 137.251 74.0092 134.569 74.0092C131.869 74.0092 130.339 72.0652 130.339 69.0592C130.339 66.1252 131.887 64.0912 134.587 64.0912ZM134.587 65.4232C133.003 65.4232 132.121 66.5752 132.121 69.0592C132.121 71.5252 132.985 72.6772 134.569 72.6772C136.153 72.6772 137.017 71.5252 137.017 69.0412C137.017 66.5752 136.153 65.4232 134.587 65.4232ZM148.698 63.2452L149.184 64.7392C148.392 64.9912 147.492 65.0272 146.412 65.0272C147.528 65.5312 148.086 66.3232 148.086 67.4212C148.086 69.2932 146.736 70.6432 144.468 70.6432C144.036 70.6432 143.658 70.5892 143.262 70.4632C142.992 70.6612 142.794 71.0032 142.794 71.3452C142.794 71.7772 143.064 72.1192 144.036 72.1192H145.548C147.492 72.1192 148.788 73.2352 148.788 74.7472C148.788 76.5832 147.276 77.6272 144.342 77.6272C141.246 77.6272 140.274 76.6732 140.274 74.7472H141.768C141.768 75.8272 142.254 76.3312 144.342 76.3312C146.394 76.3312 147.114 75.8092 147.114 74.8552C147.114 73.9552 146.394 73.5052 145.206 73.5052H143.712C142.02 73.5052 141.264 72.6592 141.264 71.7052C141.264 71.0932 141.624 70.4812 142.308 70.0312C141.21 69.4552 140.706 68.6272 140.706 67.4032C140.706 65.4592 142.272 64.0912 144.36 64.0912C146.718 64.1452 147.582 63.7492 148.698 63.2452ZM144.36 65.2792C143.082 65.2792 142.398 66.1612 142.398 67.4032C142.398 68.6632 143.1 69.5452 144.396 69.5452C145.692 69.5452 146.394 68.7532 146.394 67.3852C146.394 65.9992 145.71 65.2792 144.36 65.2792ZM161.337 60.2932L162.993 60.4912V73.7932H161.535L161.373 72.4792C160.761 73.4332 159.807 74.0092 158.637 74.0092C156.333 74.0092 155.055 72.0472 155.055 69.0952C155.055 66.1972 156.459 64.0912 158.781 64.0912C159.897 64.0912 160.707 64.5952 161.337 65.2612V60.2932ZM158.997 72.6952C160.059 72.6952 160.707 72.1732 161.337 71.2912V66.6472C160.743 65.8912 160.077 65.4052 159.141 65.4052C157.719 65.4052 156.837 66.5932 156.837 69.0592C156.837 71.5612 157.629 72.6952 158.997 72.6952ZM167.217 59.7532C167.919 59.7532 168.387 60.2392 168.387 60.8872C168.387 61.5172 167.919 62.0032 167.217 62.0032C166.533 62.0032 166.065 61.5172 166.065 60.8872C166.065 60.2392 166.533 59.7532 167.217 59.7532ZM168.063 64.3072V73.7932H166.407V64.3072H168.063ZM174.061 64.0912C175.393 64.0912 176.383 64.4872 177.283 65.1712L176.581 66.2152C175.735 65.6752 174.997 65.4052 174.115 65.4052C173.035 65.4052 172.369 65.8912 172.369 66.6472C172.369 67.4212 172.873 67.7812 174.403 68.1772C176.401 68.6812 177.553 69.4732 177.553 71.1292C177.553 73.1092 175.735 74.0092 173.809 74.0092C172.207 74.0092 171.055 73.4872 170.227 72.7672L171.109 71.7592C171.865 72.3352 172.747 72.6772 173.773 72.6772C175.015 72.6772 175.807 72.1372 175.807 71.2372C175.807 70.3012 175.339 69.9412 173.503 69.4552C171.451 68.9152 170.641 68.0332 170.641 66.7012C170.641 65.1892 172.099 64.0912 174.061 64.0912ZM184.246 64.0912C186.766 64.0912 187.756 66.0532 187.756 69.0412C187.756 71.9212 186.478 74.0092 184.03 74.0092C183.004 74.0092 182.158 73.6672 181.546 72.9292V77.4292L179.89 77.6272V64.3072H181.312L181.438 65.5852C182.14 64.6132 183.166 64.0912 184.246 64.0912ZM183.634 72.6592C185.146 72.6592 185.974 71.5252 185.974 69.0412C185.974 66.5752 185.254 65.4052 183.832 65.4052C182.824 65.4052 182.05 66.1252 181.546 66.8812V71.5072C182.032 72.2452 182.77 72.6592 183.634 72.6592ZM192.467 74.0092C191.261 74.0092 190.487 73.2712 190.487 71.9212V60.4912L192.143 60.2932V71.8852C192.143 72.3892 192.305 72.6412 192.737 72.6412C192.971 72.6412 193.169 72.6052 193.349 72.5332L193.781 73.6852C193.421 73.8832 192.953 74.0092 192.467 74.0092ZM202.241 71.5792C202.241 72.4072 202.547 72.6772 203.033 72.8572L202.655 74.0092C201.701 73.9012 201.089 73.5232 200.801 72.5872C200.135 73.5772 199.127 74.0092 197.975 74.0092C196.085 74.0092 194.951 72.8392 194.951 71.1472C194.951 69.1132 196.481 68.0152 199.127 68.0152H200.585V67.3132C200.585 65.9452 199.919 65.4412 198.605 65.4412C197.903 65.4412 197.021 65.6212 196.049 65.9452L195.635 64.7392C196.805 64.3072 197.849 64.0912 198.911 64.0912C201.197 64.0912 202.241 65.2612 202.241 67.2412V71.5792ZM198.353 72.7672C199.325 72.7672 200.045 72.2812 200.585 71.2912V69.1132H199.343C197.597 69.1132 196.715 69.7612 196.715 71.0572C196.715 72.1732 197.273 72.7672 198.353 72.7672ZM212.432 64.3072L209.264 73.8472C208.598 75.8632 207.482 77.3392 204.854 77.6272L204.674 76.3312C206.6 76.0072 207.14 75.2692 207.68 73.7932H207.122L203.936 64.3072H205.7L208.238 72.5872L210.722 64.3072H212.432ZM213.861 71.5072C214.581 71.5072 215.121 72.0652 215.121 72.7492C215.121 73.4512 214.581 74.0092 213.861 74.0092C213.159 74.0092 212.619 73.4512 212.619 72.7492C212.619 72.0652 213.159 71.5072 213.861 71.5072Z" fill="white"/>
<rect x="125.111" y="153.513" width="45" height="45" rx="3.5" fill="black" stroke="white"/>
<path d="M155.611 169.013V171.005L149.931 176.542V183.013H145.351V176.542L139.611 171.005V169.013H155.611Z" fill="white"/>
</svg>
