<svg width="301" height="210" viewBox="0 0 301 210" fill="none" xmlns="http://www.w3.org/2000/svg">
<rect width="300" height="210" transform="translate(0.75)" fill="#121517"/>
<rect x="20.3457" y="25.9402" width="260.809" height="158.12" rx="3.5" fill="black" stroke="white"/>
<path d="M39.1325 42.7898C42.4265 42.7898 45.5585 43.8158 45.5585 48.9638C45.5585 53.9858 42.4985 55.2458 39.4385 55.2458H35.8745V42.7898H39.1325ZM39.5465 44.7338H38.5205V53.3018H39.6005C41.4185 53.3018 42.8045 52.4558 42.8045 48.9638C42.8045 45.3998 41.3465 44.7338 39.5465 44.7338ZM48.7876 40.7918C49.7056 40.7918 50.3536 41.4398 50.3536 42.2858C50.3536 43.1318 49.7056 43.7798 48.7876 43.7798C47.8696 43.7798 47.2396 43.1318 47.2396 42.2858C47.2396 41.4398 47.8696 40.7918 48.7876 40.7918ZM50.0836 45.7058V55.2458H47.5276V45.7058H50.0836ZM59.8977 52.5998C59.8977 53.3738 60.1317 53.6438 60.5997 53.8058L60.0597 55.4978C58.9797 55.3898 58.2597 55.0478 57.8637 54.1118C57.1797 55.1378 56.1357 55.5338 55.0017 55.5338C53.0937 55.5338 51.9057 54.3098 51.9057 52.5818C51.9057 50.4938 53.4717 49.3598 56.2977 49.3598H57.3957V48.8918C57.3957 47.7038 56.8917 47.3258 55.6857 47.3258C55.0557 47.3258 54.1377 47.5058 53.1657 47.8298L52.5897 46.1198C53.7777 45.6518 55.0377 45.4178 56.1177 45.4178C58.7637 45.4178 59.8977 46.5878 59.8977 48.7478V52.5998ZM55.7037 53.6978C56.4417 53.6978 56.9997 53.3198 57.3957 52.6358V50.8178H56.5497C55.1637 50.8178 54.4797 51.3218 54.4797 52.3658C54.4797 53.2118 54.9117 53.6978 55.7037 53.6978ZM64.8274 55.5338C63.2794 55.5338 62.3614 54.5978 62.3614 52.9418V41.9078L64.9174 41.6198V52.8698C64.9174 53.2838 65.0794 53.4998 65.4394 53.4998C65.6374 53.4998 65.7994 53.4638 65.9434 53.3918L66.4654 55.2098C66.0514 55.3898 65.4754 55.5338 64.8274 55.5338ZM71.6158 45.4178C74.4598 45.4178 76.1698 47.3078 76.1698 50.4758C76.1698 53.4998 74.4598 55.5338 71.5978 55.5338C68.7538 55.5338 67.0258 53.6438 67.0258 50.4758C67.0258 47.4338 68.7358 45.4178 71.6158 45.4178ZM71.6158 47.3258C70.3378 47.3258 69.6898 48.2978 69.6898 50.4758C69.6898 52.6718 70.3378 53.6258 71.5978 53.6258C72.8578 53.6258 73.5058 52.6538 73.5058 50.4758C73.5058 48.2798 72.8578 47.3258 71.6158 47.3258ZM86.0155 44.2658L86.6455 46.2278C85.9435 46.4978 85.0435 46.5878 83.8915 46.5878C85.0615 47.1098 85.6555 47.8298 85.6555 49.0358C85.6555 50.8898 84.1615 52.2398 81.7315 52.2398C81.3175 52.2398 80.9575 52.2038 80.6155 52.1138C80.3995 52.2578 80.2555 52.4918 80.2555 52.7438C80.2555 53.0678 80.4175 53.3738 81.3535 53.3738H82.8115C84.9715 53.3738 86.3575 54.5258 86.3575 56.1098C86.3575 58.0358 84.6835 59.2058 81.4975 59.2058C78.0055 59.2058 77.0515 58.0718 77.0515 56.1638H79.3375C79.3375 57.0638 79.7335 57.4598 81.5515 57.4598C83.3155 57.4598 83.7835 56.9738 83.7835 56.2898C83.7835 55.6418 83.2975 55.2458 82.2895 55.2458H80.8855C78.8875 55.2458 78.0595 54.3818 78.0595 53.3738C78.0595 52.6898 78.4915 52.0238 79.1755 51.5918C77.9875 50.9438 77.4835 50.0978 77.4835 48.8738C77.4835 46.7678 79.1575 45.4178 81.5515 45.4178C83.7475 45.4718 84.8635 44.9138 86.0155 44.2658ZM81.6055 47.1278C80.6335 47.1278 80.0395 47.7938 80.0395 48.8378C80.0395 49.9358 80.6515 50.5838 81.6235 50.5838C82.6495 50.5838 83.1895 49.9718 83.1895 48.8018C83.1895 47.6678 82.6675 47.1278 81.6055 47.1278Z" fill="white"/>
<path d="M46.4225 73.7318L47.4485 86.1338H45.7925L45.3605 80.5358C45.1985 78.5918 45.0725 76.5038 45.0545 75.4778L42.3725 84.7298H40.7705L37.9445 75.4598C37.9445 76.9178 37.8545 78.8438 37.7105 80.6618L37.2965 86.1338H35.6765L36.7025 73.7318H39.0065L41.6165 82.7498L44.1005 73.7318H46.4225ZM54.0728 76.4318C56.7728 76.4318 58.2848 78.3758 58.2848 81.3818C58.2848 84.3158 56.7368 86.3498 54.0548 86.3498C51.3548 86.3498 49.8248 84.4058 49.8248 81.3998C49.8248 78.4658 51.3728 76.4318 54.0728 76.4318ZM54.0728 77.7638C52.4888 77.7638 51.6068 78.9158 51.6068 81.3998C51.6068 83.8658 52.4708 85.0178 54.0548 85.0178C55.6388 85.0178 56.5028 83.8658 56.5028 81.3818C56.5028 78.9158 55.6388 77.7638 54.0728 77.7638ZM66.7085 72.6338L68.3645 72.8318V86.1338H66.9065L66.7445 84.8198C66.1325 85.7738 65.1785 86.3498 64.0085 86.3498C61.7045 86.3498 60.4265 84.3878 60.4265 81.4358C60.4265 78.5378 61.8305 76.4318 64.1525 76.4318C65.2685 76.4318 66.0785 76.9358 66.7085 77.6018V72.6338ZM64.3685 85.0358C65.4305 85.0358 66.0785 84.5138 66.7085 83.6318V78.9878C66.1145 78.2318 65.4485 77.7458 64.5125 77.7458C63.0905 77.7458 62.2085 78.9338 62.2085 81.3998C62.2085 83.9018 63.0005 85.0358 64.3685 85.0358ZM78.1684 83.9198C78.1684 84.7478 78.4744 85.0178 78.9604 85.1978L78.5824 86.3498C77.6284 86.2418 77.0164 85.8638 76.7284 84.9278C76.0624 85.9178 75.0544 86.3498 73.9024 86.3498C72.0124 86.3498 70.8784 85.1798 70.8784 83.4878C70.8784 81.4538 72.4084 80.3558 75.0544 80.3558H76.5124V79.6538C76.5124 78.2858 75.8464 77.7818 74.5324 77.7818C73.8304 77.7818 72.9484 77.9618 71.9764 78.2858L71.5624 77.0798C72.7324 76.6478 73.7764 76.4318 74.8384 76.4318C77.1244 76.4318 78.1684 77.6018 78.1684 79.5818V83.9198ZM74.2804 85.1078C75.2524 85.1078 75.9724 84.6218 76.5124 83.6318V81.4538H75.2704C73.5244 81.4538 72.6424 82.1018 72.6424 83.3978C72.6424 84.5138 73.2004 85.1078 74.2804 85.1078ZM83.4594 86.3498C82.2534 86.3498 81.4794 85.6118 81.4794 84.2618V72.8318L83.1354 72.6338V84.2258C83.1354 84.7298 83.2974 84.9818 83.7294 84.9818C83.9634 84.9818 84.1614 84.9458 84.3414 84.8738L84.7734 86.0258C84.4134 86.2238 83.9454 86.3498 83.4594 86.3498ZM97.2945 72.6338L98.9505 72.8318V86.1338H97.4925L97.3305 84.8198C96.7185 85.7738 95.7645 86.3498 94.5945 86.3498C92.2905 86.3498 91.0125 84.3878 91.0125 81.4358C91.0125 78.5378 92.4165 76.4318 94.7385 76.4318C95.8545 76.4318 96.6645 76.9358 97.2945 77.6018V72.6338ZM94.9545 85.0358C96.0165 85.0358 96.6645 84.5138 97.2945 83.6318V78.9878C96.7005 78.2318 96.0345 77.7458 95.0985 77.7458C93.6765 77.7458 92.7945 78.9338 92.7945 81.3998C92.7945 83.9018 93.5865 85.0358 94.9545 85.0358ZM103.174 72.0938C103.876 72.0938 104.344 72.5798 104.344 73.2278C104.344 73.8578 103.876 74.3438 103.174 74.3438C102.49 74.3438 102.022 73.8578 102.022 73.2278C102.022 72.5798 102.49 72.0938 103.174 72.0938ZM104.02 76.6478V86.1338H102.364V76.6478H104.02ZM113.834 83.9198C113.834 84.7478 114.14 85.0178 114.626 85.1978L114.248 86.3498C113.294 86.2418 112.682 85.8638 112.394 84.9278C111.728 85.9178 110.72 86.3498 109.568 86.3498C107.678 86.3498 106.544 85.1798 106.544 83.4878C106.544 81.4538 108.074 80.3558 110.72 80.3558H112.178V79.6538C112.178 78.2858 111.512 77.7818 110.198 77.7818C109.496 77.7818 108.614 77.9618 107.642 78.2858L107.228 77.0798C108.398 76.6478 109.442 76.4318 110.504 76.4318C112.79 76.4318 113.834 77.6018 113.834 79.5818V83.9198ZM109.946 85.1078C110.918 85.1078 111.638 84.6218 112.178 83.6318V81.4538H110.936C109.19 81.4538 108.308 82.1018 108.308 83.3978C108.308 84.5138 108.866 85.1078 109.946 85.1078ZM119.125 86.3498C117.919 86.3498 117.145 85.6118 117.145 84.2618V72.8318L118.801 72.6338V84.2258C118.801 84.7298 118.963 84.9818 119.395 84.9818C119.629 84.9818 119.827 84.9458 120.007 84.8738L120.439 86.0258C120.079 86.2238 119.611 86.3498 119.125 86.3498ZM125.897 76.4318C128.597 76.4318 130.109 78.3758 130.109 81.3818C130.109 84.3158 128.561 86.3498 125.879 86.3498C123.179 86.3498 121.649 84.4058 121.649 81.3998C121.649 78.4658 123.197 76.4318 125.897 76.4318ZM125.897 77.7638C124.313 77.7638 123.431 78.9158 123.431 81.3998C123.431 83.8658 124.295 85.0178 125.879 85.0178C127.463 85.0178 128.327 83.8658 128.327 81.3818C128.327 78.9158 127.463 77.7638 125.897 77.7638ZM140.009 75.5858L140.495 77.0798C139.703 77.3318 138.803 77.3678 137.723 77.3678C138.839 77.8718 139.397 78.6638 139.397 79.7618C139.397 81.6338 138.047 82.9838 135.779 82.9838C135.347 82.9838 134.969 82.9298 134.573 82.8038C134.303 83.0018 134.105 83.3438 134.105 83.6858C134.105 84.1178 134.375 84.4598 135.347 84.4598H136.859C138.803 84.4598 140.099 85.5758 140.099 87.0878C140.099 88.9238 138.587 89.9678 135.653 89.9678C132.557 89.9678 131.585 89.0138 131.585 87.0878H133.079C133.079 88.1678 133.565 88.6718 135.653 88.6718C137.705 88.6718 138.425 88.1498 138.425 87.1958C138.425 86.2958 137.705 85.8458 136.517 85.8458H135.023C133.331 85.8458 132.575 84.9998 132.575 84.0458C132.575 83.4338 132.935 82.8218 133.619 82.3718C132.521 81.7958 132.017 80.9678 132.017 79.7438C132.017 77.7998 133.583 76.4318 135.671 76.4318C138.029 76.4858 138.893 76.0898 140.009 75.5858ZM135.671 77.6198C134.393 77.6198 133.709 78.5018 133.709 79.7438C133.709 81.0038 134.411 81.8858 135.707 81.8858C137.003 81.8858 137.705 81.0938 137.705 79.7258C137.705 78.3398 137.021 77.6198 135.671 77.6198ZM152.648 72.6338L154.304 72.8318V86.1338H152.846L152.684 84.8198C152.072 85.7738 151.118 86.3498 149.948 86.3498C147.644 86.3498 146.366 84.3878 146.366 81.4358C146.366 78.5378 147.77 76.4318 150.092 76.4318C151.208 76.4318 152.018 76.9358 152.648 77.6018V72.6338ZM150.308 85.0358C151.37 85.0358 152.018 84.5138 152.648 83.6318V78.9878C152.054 78.2318 151.388 77.7458 150.452 77.7458C149.03 77.7458 148.148 78.9338 148.148 81.3998C148.148 83.9018 148.94 85.0358 150.308 85.0358ZM158.528 72.0938C159.23 72.0938 159.698 72.5798 159.698 73.2278C159.698 73.8578 159.23 74.3438 158.528 74.3438C157.844 74.3438 157.376 73.8578 157.376 73.2278C157.376 72.5798 157.844 72.0938 158.528 72.0938ZM159.374 76.6478V86.1338H157.718V76.6478H159.374ZM165.372 76.4318C166.704 76.4318 167.694 76.8278 168.594 77.5118L167.892 78.5558C167.046 78.0158 166.308 77.7458 165.426 77.7458C164.346 77.7458 163.68 78.2318 163.68 78.9878C163.68 79.7618 164.184 80.1218 165.714 80.5178C167.712 81.0218 168.864 81.8138 168.864 83.4698C168.864 85.4498 167.046 86.3498 165.12 86.3498C163.518 86.3498 162.366 85.8278 161.538 85.1078L162.42 84.0998C163.176 84.6758 164.058 85.0178 165.084 85.0178C166.326 85.0178 167.118 84.4778 167.118 83.5778C167.118 82.6418 166.65 82.2818 164.814 81.7958C162.762 81.2558 161.952 80.3738 161.952 79.0418C161.952 77.5298 163.41 76.4318 165.372 76.4318ZM175.556 76.4318C178.076 76.4318 179.066 78.3938 179.066 81.3818C179.066 84.2618 177.788 86.3498 175.34 86.3498C174.314 86.3498 173.468 86.0078 172.856 85.2698V89.7698L171.2 89.9678V76.6478H172.622L172.748 77.9258C173.45 76.9538 174.476 76.4318 175.556 76.4318ZM174.944 84.9998C176.456 84.9998 177.284 83.8658 177.284 81.3818C177.284 78.9158 176.564 77.7458 175.142 77.7458C174.134 77.7458 173.36 78.4658 172.856 79.2218V83.8478C173.342 84.5858 174.08 84.9998 174.944 84.9998ZM183.778 86.3498C182.572 86.3498 181.798 85.6118 181.798 84.2618V72.8318L183.454 72.6338V84.2258C183.454 84.7298 183.616 84.9818 184.048 84.9818C184.282 84.9818 184.48 84.9458 184.66 84.8738L185.092 86.0258C184.732 86.2238 184.264 86.3498 183.778 86.3498ZM193.551 83.9198C193.551 84.7478 193.857 85.0178 194.343 85.1978L193.965 86.3498C193.011 86.2418 192.399 85.8638 192.111 84.9278C191.445 85.9178 190.437 86.3498 189.285 86.3498C187.395 86.3498 186.261 85.1798 186.261 83.4878C186.261 81.4538 187.791 80.3558 190.437 80.3558H191.895V79.6538C191.895 78.2858 191.229 77.7818 189.915 77.7818C189.213 77.7818 188.331 77.9618 187.359 78.2858L186.945 77.0798C188.115 76.6478 189.159 76.4318 190.221 76.4318C192.507 76.4318 193.551 77.6018 193.551 79.5818V83.9198ZM189.663 85.1078C190.635 85.1078 191.355 84.6218 191.895 83.6318V81.4538H190.653C188.907 81.4538 188.025 82.1018 188.025 83.3978C188.025 84.5138 188.583 85.1078 189.663 85.1078ZM203.742 76.6478L200.574 86.1878C199.908 88.2038 198.792 89.6798 196.164 89.9678L195.984 88.6718C197.91 88.3478 198.45 87.6098 198.99 86.1338H198.432L195.246 76.6478H197.01L199.548 84.9278L202.032 76.6478H203.742ZM205.171 83.8478C205.891 83.8478 206.431 84.4058 206.431 85.0898C206.431 85.7918 205.891 86.3498 205.171 86.3498C204.469 86.3498 203.929 85.7918 203.929 85.0898C203.929 84.4058 204.469 83.8478 205.171 83.8478Z" fill="white"/>
<path d="M186.507 149.19C186.507 140.236 193.765 132.978 202.719 132.978H250.649C259.602 132.978 266.861 140.236 266.861 149.19C266.861 158.143 259.602 165.401 250.649 165.401H202.719C193.765 165.401 186.507 158.143 186.507 149.19Z" fill="white"/>
<path d="M101.31 149.19C101.31 141.064 107.896 134.478 116.021 134.478H163.952C172.077 134.478 178.663 141.064 178.663 149.19C178.663 157.315 172.077 163.901 163.952 163.901H116.021C107.896 163.901 101.31 157.315 101.31 149.19Z" stroke="white" stroke-width="3"/>
<path d="M202.548 142.571C204.258 142.571 205.338 143.075 206.382 144.011L205.446 145.055C204.51 144.299 203.646 143.975 202.62 143.975C201.378 143.975 200.388 144.551 200.388 145.739C200.388 146.783 200.874 147.287 203.106 147.971C205.086 148.583 206.778 149.357 206.778 151.733C206.778 153.893 205.14 155.405 202.35 155.405C200.568 155.405 199.164 154.811 198.138 153.803L199.092 152.741C200.01 153.515 200.982 154.001 202.332 154.001C203.79 154.001 204.996 153.281 204.996 151.787C204.996 150.581 204.42 150.041 202.314 149.393C199.902 148.655 198.642 147.737 198.642 145.811C198.642 143.903 200.262 142.571 202.548 142.571ZM216.263 145.703V155.189H214.841L214.715 153.713C213.995 154.865 213.113 155.405 211.763 155.405C210.107 155.405 209.117 154.361 209.117 152.507V145.703H210.773V152.327C210.773 153.623 211.205 154.109 212.231 154.109C213.257 154.109 214.031 153.425 214.607 152.471V145.703H216.263ZM224.022 145.487C226.164 145.487 227.55 147.269 227.55 150.437C227.55 153.407 226.128 155.405 223.824 155.405C222.78 155.405 221.952 154.937 221.304 154.145L221.142 155.189H219.684V141.887L221.34 141.689V146.891C221.988 146.009 222.87 145.487 224.022 145.487ZM223.428 154.091C224.814 154.091 225.768 153.029 225.768 150.437C225.768 147.737 224.886 146.801 223.554 146.801C222.51 146.801 221.826 147.521 221.34 148.277V152.813C221.826 153.569 222.582 154.091 223.428 154.091ZM239.893 145.487C241.441 145.487 242.467 146.603 242.467 148.385V155.189H240.811V148.619C240.811 147.197 240.199 146.783 239.479 146.783C238.453 146.783 237.895 147.449 237.247 148.457V155.189H235.591V148.619C235.591 147.197 234.979 146.783 234.259 146.783C233.233 146.783 232.657 147.449 232.027 148.457V155.189H230.371V145.703H231.793L231.937 147.089C232.567 146.135 233.431 145.487 234.673 145.487C235.843 145.487 236.707 146.117 237.067 147.197C237.751 146.171 238.615 145.487 239.893 145.487ZM246.615 141.149C247.317 141.149 247.785 141.635 247.785 142.283C247.785 142.913 247.317 143.399 246.615 143.399C245.931 143.399 245.463 142.913 245.463 142.283C245.463 141.635 245.931 141.149 246.615 141.149ZM247.461 145.703V155.189H245.805V145.703H247.461ZM255.043 153.623L255.673 154.757C255.043 155.189 254.359 155.405 253.549 155.405C251.947 155.405 250.993 154.469 250.993 152.705V146.981H249.337V145.703H250.993V143.561L252.649 143.363V145.703H254.899L254.719 146.981H252.649V152.633C252.649 153.587 252.955 154.037 253.783 154.037C254.197 154.037 254.575 153.911 255.043 153.623Z" fill="black"/>
<path d="M119.124 142.571C120.69 142.571 121.572 143.003 122.562 143.795L121.626 144.893C120.852 144.263 120.096 143.975 119.232 143.975C117.36 143.975 115.794 145.235 115.794 148.979C115.794 152.561 117.288 153.965 119.214 153.965C120.384 153.965 121.14 153.443 121.842 152.921L122.706 154.019C122.04 154.721 120.834 155.405 119.16 155.405C116.154 155.405 113.976 153.155 113.976 148.979C113.976 144.785 116.316 142.571 119.124 142.571ZM131.159 152.975C131.159 153.803 131.465 154.073 131.951 154.253L131.573 155.405C130.619 155.297 130.007 154.919 129.719 153.983C129.053 154.973 128.045 155.405 126.893 155.405C125.003 155.405 123.869 154.235 123.869 152.543C123.869 150.509 125.399 149.411 128.045 149.411H129.503V148.709C129.503 147.341 128.837 146.837 127.523 146.837C126.821 146.837 125.939 147.017 124.967 147.341L124.553 146.135C125.723 145.703 126.767 145.487 127.829 145.487C130.115 145.487 131.159 146.657 131.159 148.637V152.975ZM127.271 154.163C128.243 154.163 128.963 153.677 129.503 152.687V150.509H128.261C126.515 150.509 125.633 151.157 125.633 152.453C125.633 153.569 126.191 154.163 127.271 154.163ZM139.024 145.487C140.77 145.487 141.778 146.585 141.778 148.385V155.189H140.122V148.619C140.122 147.197 139.546 146.783 138.628 146.783C137.566 146.783 136.846 147.449 136.216 148.457V155.189H134.56V145.703H135.982L136.126 147.107C136.774 146.135 137.782 145.487 139.024 145.487ZM148.562 145.487C149.678 145.487 150.578 145.775 151.46 146.513L150.668 147.557C150.02 147.089 149.426 146.855 148.634 146.855C147.14 146.855 146.204 148.025 146.204 150.491C146.204 152.975 147.14 154.001 148.634 154.001C149.426 154.001 149.984 153.749 150.704 153.281L151.46 154.361C150.614 155.045 149.66 155.405 148.562 155.405C146.006 155.405 144.422 153.587 144.422 150.527C144.422 147.503 145.988 145.487 148.562 145.487ZM160.69 150.167C160.69 150.491 160.672 150.797 160.654 151.013H154.606C154.768 153.209 155.794 154.055 157.162 154.055C158.098 154.055 158.8 153.803 159.628 153.227L160.348 154.217C159.412 154.955 158.35 155.405 157.036 155.405C154.39 155.405 152.842 153.551 152.842 150.545C152.842 147.593 154.336 145.487 156.784 145.487C159.34 145.487 160.69 147.269 160.69 150.167ZM159.052 149.789V149.681C159.052 147.827 158.314 146.801 156.82 146.801C155.56 146.801 154.732 147.683 154.606 149.789H159.052ZM165.313 155.405C164.107 155.405 163.333 154.667 163.333 153.317V141.887L164.989 141.689V153.281C164.989 153.785 165.151 154.037 165.583 154.037C165.817 154.037 166.015 154.001 166.195 153.929L166.627 155.081C166.267 155.279 165.799 155.405 165.313 155.405Z" fill="white"/>
</svg>
