<svg width="301" height="210" viewBox="0 0 301 210" fill="none" xmlns="http://www.w3.org/2000/svg">
<rect width="300" height="210" transform="translate(0.5)" fill="#121517"/>
<path d="M54.3801 74.658C58.0761 74.658 61.6251 75.813 61.6251 81.819C61.6251 87.72 57.9501 89.127 54.8211 89.127H51.3561V74.658H54.3801ZM54.8211 76.254H53.3511V87.552H54.9681C57.2361 87.552 59.5041 86.586 59.5041 81.819C59.5041 76.926 57.1311 76.254 54.8211 76.254ZM65.7108 72.747C66.5298 72.747 67.0758 73.314 67.0758 74.07C67.0758 74.805 66.5298 75.372 65.7108 75.372C64.9128 75.372 64.3668 74.805 64.3668 74.07C64.3668 73.314 64.9128 72.747 65.7108 72.747ZM66.6978 78.06V89.127H64.7658V78.06H66.6978ZM73.6955 77.808C75.2495 77.808 76.4045 78.27 77.4545 79.068L76.6355 80.286C75.6485 79.656 74.7875 79.341 73.7585 79.341C72.4985 79.341 71.7215 79.908 71.7215 80.79C71.7215 81.693 72.3095 82.113 74.0945 82.575C76.4255 83.163 77.7695 84.087 77.7695 86.019C77.7695 88.329 75.6485 89.379 73.4015 89.379C71.5325 89.379 70.1885 88.77 69.2225 87.93L70.2515 86.754C71.1335 87.426 72.1625 87.825 73.3595 87.825C74.8085 87.825 75.7325 87.195 75.7325 86.145C75.7325 85.053 75.1865 84.633 73.0445 84.066C70.6505 83.436 69.7055 82.407 69.7055 80.853C69.7055 79.089 71.4065 77.808 73.6955 77.808ZM84.5272 77.808C85.8292 77.808 86.8792 78.144 87.9082 79.005L86.9842 80.223C86.2282 79.677 85.5352 79.404 84.6112 79.404C82.8682 79.404 81.7762 80.769 81.7762 83.646C81.7762 86.544 82.8682 87.741 84.6112 87.741C85.5352 87.741 86.1862 87.447 87.0262 86.901L87.9082 88.161C86.9212 88.959 85.8082 89.379 84.5272 89.379C81.5452 89.379 79.6972 87.258 79.6972 83.688C79.6972 80.16 81.5242 77.808 84.5272 77.808ZM92.7286 89.379C91.3216 89.379 90.4186 88.518 90.4186 86.943V73.608L92.3506 73.377V86.901C92.3506 87.489 92.5396 87.783 93.0436 87.783C93.3166 87.783 93.5476 87.741 93.7576 87.657L94.2616 89.001C93.8416 89.232 93.2956 89.379 92.7286 89.379ZM100.629 77.808C103.779 77.808 105.543 80.076 105.543 83.583C105.543 87.006 103.737 89.379 100.608 89.379C97.4578 89.379 95.6728 87.111 95.6728 83.604C95.6728 80.181 97.4788 77.808 100.629 77.808ZM100.629 79.362C98.7808 79.362 97.7518 80.706 97.7518 83.604C97.7518 86.481 98.7598 87.825 100.608 87.825C102.456 87.825 103.464 86.481 103.464 83.583C103.464 80.706 102.456 79.362 100.629 79.362ZM111.738 77.808C113.292 77.808 114.447 78.27 115.497 79.068L114.678 80.286C113.691 79.656 112.83 79.341 111.801 79.341C110.541 79.341 109.764 79.908 109.764 80.79C109.764 81.693 110.352 82.113 112.137 82.575C114.468 83.163 115.812 84.087 115.812 86.019C115.812 88.329 113.691 89.379 111.444 89.379C109.575 89.379 108.231 88.77 107.265 87.93L108.294 86.754C109.176 87.426 110.205 87.825 111.402 87.825C112.851 87.825 113.775 87.195 113.775 86.145C113.775 85.053 113.229 84.633 111.087 84.066C108.693 83.436 107.748 82.407 107.748 80.853C107.748 79.089 109.449 77.808 111.738 77.808ZM126.769 78.06V89.127H125.11L124.963 87.405C124.123 88.749 123.094 89.379 121.519 89.379C119.587 89.379 118.432 88.161 118.432 85.998V78.06H120.364V85.788C120.364 87.3 120.868 87.867 122.065 87.867C123.262 87.867 124.165 87.069 124.837 85.956V78.06H126.769ZM135.569 77.808C135.926 77.808 136.325 77.85 136.661 77.934L136.304 79.824C135.968 79.74 135.737 79.698 135.338 79.698C133.952 79.698 133.154 80.685 132.692 82.806V89.127H130.76V78.06H132.419L132.608 80.307C133.196 78.648 134.225 77.808 135.569 77.808ZM147.013 83.268C147.013 83.646 146.992 84.003 146.971 84.255H139.915C140.104 86.817 141.301 87.804 142.897 87.804C143.989 87.804 144.808 87.51 145.774 86.838L146.614 87.993C145.522 88.854 144.283 89.379 142.75 89.379C139.663 89.379 137.857 87.216 137.857 83.709C137.857 80.265 139.6 77.808 142.456 77.808C145.438 77.808 147.013 79.887 147.013 83.268ZM145.102 82.827V82.701C145.102 80.538 144.241 79.341 142.498 79.341C141.028 79.341 140.062 80.37 139.915 82.827H145.102Z" fill="white"/>
<path d="M22.561 77.627L30.561 85.627L38.561 77.627" stroke="white" stroke-width="2"/>
<line x1="22.9387" y1="53.228" x2="278.439" y2="53.228" stroke="#6A6A6A"/>
<line x1="22.9387" y1="155.772" x2="278.439" y2="155.772" stroke="#6A6A6A"/>
<path d="M32.494 118.231L32.263 119.827H26.656V124.552H31.528V126.148H26.656V131.104H32.662V132.7H24.661V118.231H32.494ZM40.0363 126.778L43.8793 132.7H41.5483L38.8393 128.017L36.0883 132.7H33.9043L37.7683 126.862L34.3453 121.633H36.6133L38.9233 125.686L41.2543 121.633H43.4383L40.0363 126.778ZM51.0687 121.381C54.0087 121.381 55.1637 123.67 55.1637 127.156C55.1637 130.516 53.6727 132.952 50.8167 132.952C49.6197 132.952 48.6327 132.553 47.9187 131.692V136.942L45.9867 137.173V121.633H47.6457L47.7927 123.124C48.6117 121.99 49.8087 121.381 51.0687 121.381ZM50.3547 131.377C52.1187 131.377 53.0847 130.054 53.0847 127.156C53.0847 124.279 52.2447 122.914 50.5857 122.914C49.4097 122.914 48.5067 123.754 47.9187 124.636V130.033C48.4857 130.894 49.3467 131.377 50.3547 131.377ZM65.9104 130.117C65.9104 131.083 66.2674 131.398 66.8344 131.608L66.3934 132.952C65.2804 132.826 64.5664 132.385 64.2304 131.293C63.4534 132.448 62.2774 132.952 60.9334 132.952C58.7284 132.952 57.4054 131.587 57.4054 129.613C57.4054 127.24 59.1904 125.959 62.2774 125.959H63.9784V125.14C63.9784 123.544 63.2014 122.956 61.6684 122.956C60.8494 122.956 59.8204 123.166 58.6864 123.544L58.2034 122.137C59.5684 121.633 60.7864 121.381 62.0254 121.381C64.6924 121.381 65.9104 122.746 65.9104 125.056V130.117ZM61.3744 131.503C62.5084 131.503 63.3484 130.936 63.9784 129.781V127.24H62.5294C60.4924 127.24 59.4634 127.996 59.4634 129.508C59.4634 130.81 60.1144 131.503 61.3744 131.503ZM75.0863 121.381C77.1233 121.381 78.2993 122.662 78.2993 124.762V132.7H76.3673V125.035C76.3673 123.376 75.6953 122.893 74.6243 122.893C73.3853 122.893 72.5453 123.67 71.8103 124.846V132.7H69.8783V121.633H71.5373L71.7053 123.271C72.4613 122.137 73.6373 121.381 75.0863 121.381ZM88.819 116.95L90.751 117.181V132.7H89.05L88.861 131.167C88.147 132.28 87.034 132.952 85.669 132.952C82.981 132.952 81.49 130.663 81.49 127.219C81.49 123.838 83.128 121.381 85.837 121.381C87.139 121.381 88.084 121.969 88.819 122.746V116.95ZM86.089 131.419C87.328 131.419 88.084 130.81 88.819 129.781V124.363C88.126 123.481 87.349 122.914 86.257 122.914C84.598 122.914 83.569 124.3 83.569 127.177C83.569 130.096 84.493 131.419 86.089 131.419ZM103.092 126.841C103.092 127.219 103.071 127.576 103.05 127.828H95.9938C96.1828 130.39 97.3798 131.377 98.9758 131.377C100.068 131.377 100.887 131.083 101.853 130.411L102.693 131.566C101.601 132.427 100.362 132.952 98.8288 132.952C95.7418 132.952 93.9358 130.789 93.9358 127.282C93.9358 123.838 95.6788 121.381 98.5348 121.381C101.517 121.381 103.092 123.46 103.092 126.841ZM101.181 126.4V126.274C101.181 124.111 100.32 122.914 98.5768 122.914C97.1068 122.914 96.1408 123.943 95.9938 126.4H101.181ZM112.916 116.95L114.848 117.181V132.7H113.147L112.958 131.167C112.244 132.28 111.131 132.952 109.766 132.952C107.078 132.952 105.587 130.663 105.587 127.219C105.587 123.838 107.225 121.381 109.934 121.381C111.236 121.381 112.181 121.969 112.916 122.746V116.95ZM110.186 131.419C111.425 131.419 112.181 130.81 112.916 129.781V124.363C112.223 123.481 111.446 122.914 110.354 122.914C108.695 122.914 107.666 124.3 107.666 127.177C107.666 130.096 108.59 131.419 110.186 131.419ZM131.843 130.117C131.843 131.083 132.2 131.398 132.767 131.608L132.326 132.952C131.213 132.826 130.499 132.385 130.163 131.293C129.386 132.448 128.21 132.952 126.866 132.952C124.661 132.952 123.338 131.587 123.338 129.613C123.338 127.24 125.123 125.959 128.21 125.959H129.911V125.14C129.911 123.544 129.134 122.956 127.601 122.956C126.782 122.956 125.753 123.166 124.619 123.544L124.136 122.137C125.501 121.633 126.719 121.381 127.958 121.381C130.625 121.381 131.843 122.746 131.843 125.056V130.117ZM127.307 131.503C128.441 131.503 129.281 130.936 129.911 129.781V127.24H128.462C126.425 127.24 125.396 127.996 125.396 129.508C125.396 130.81 126.047 131.503 127.307 131.503ZM140.62 121.381C140.977 121.381 141.376 121.423 141.712 121.507L141.355 123.397C141.019 123.313 140.788 123.271 140.389 123.271C139.003 123.271 138.205 124.258 137.743 126.379V132.7H135.811V121.633H137.47L137.659 123.88C138.247 122.221 139.276 121.381 140.62 121.381ZM152.064 126.841C152.064 127.219 152.043 127.576 152.022 127.828H144.966C145.155 130.39 146.352 131.377 147.948 131.377C149.04 131.377 149.859 131.083 150.825 130.411L151.665 131.566C150.573 132.427 149.334 132.952 147.801 132.952C144.714 132.952 142.908 130.789 142.908 127.282C142.908 123.838 144.651 121.381 147.507 121.381C150.489 121.381 152.064 123.46 152.064 126.841ZM150.153 126.4V126.274C150.153 124.111 149.292 122.914 147.549 122.914C146.079 122.914 145.113 123.943 144.966 126.4H150.153ZM162.707 130.117C162.707 131.083 163.064 131.398 163.631 131.608L163.19 132.952C162.077 132.826 161.363 132.385 161.027 131.293C160.25 132.448 159.074 132.952 157.73 132.952C155.525 132.952 154.202 131.587 154.202 129.613C154.202 127.24 155.987 125.959 159.074 125.959H160.775V125.14C160.775 123.544 159.998 122.956 158.465 122.956C157.646 122.956 156.617 123.166 155.483 123.544L155 122.137C156.365 121.633 157.583 121.381 158.822 121.381C161.489 121.381 162.707 122.746 162.707 125.056V130.117ZM158.171 131.503C159.305 131.503 160.145 130.936 160.775 129.781V127.24H159.326C157.289 127.24 156.26 127.996 156.26 129.508C156.26 130.81 156.911 131.503 158.171 131.503ZM177.294 121.381C179.793 121.381 181.41 123.46 181.41 127.156C181.41 130.621 179.751 132.952 177.063 132.952C175.845 132.952 174.879 132.406 174.123 131.482L173.934 132.7H172.233V117.181L174.165 116.95V123.019C174.921 121.99 175.95 121.381 177.294 121.381ZM176.601 131.419C178.218 131.419 179.331 130.18 179.331 127.156C179.331 124.006 178.302 122.914 176.748 122.914C175.53 122.914 174.732 123.754 174.165 124.636V129.928C174.732 130.81 175.614 131.419 176.601 131.419ZM193.06 126.841C193.06 127.219 193.039 127.576 193.018 127.828H185.962C186.151 130.39 187.348 131.377 188.944 131.377C190.036 131.377 190.855 131.083 191.821 130.411L192.661 131.566C191.569 132.427 190.33 132.952 188.797 132.952C185.71 132.952 183.904 130.789 183.904 127.282C183.904 123.838 185.647 121.381 188.503 121.381C191.485 121.381 193.06 123.46 193.06 126.841ZM191.149 126.4V126.274C191.149 124.111 190.288 122.914 188.545 122.914C187.075 122.914 186.109 123.943 185.962 126.4H191.149ZM198.452 132.952C197.045 132.952 196.142 132.091 196.142 130.516V117.181L198.074 116.95V130.474C198.074 131.062 198.263 131.356 198.767 131.356C199.04 131.356 199.271 131.314 199.481 131.23L199.985 132.574C199.565 132.805 199.019 132.952 198.452 132.952ZM206.353 121.381C209.503 121.381 211.267 123.649 211.267 127.156C211.267 130.579 209.461 132.952 206.332 132.952C203.182 132.952 201.397 130.684 201.397 127.177C201.397 123.754 203.203 121.381 206.353 121.381ZM206.353 122.935C204.505 122.935 203.476 124.279 203.476 127.177C203.476 130.054 204.484 131.398 206.332 131.398C208.18 131.398 209.188 130.054 209.188 127.156C209.188 124.279 208.18 122.935 206.353 122.935ZM226.895 121.633L224.375 132.7H221.75L219.818 123.376L217.823 132.7H215.261L212.678 121.633H214.61L216.605 131.356L218.789 121.633H220.952L223.031 131.356L225.047 121.633H226.895Z" fill="white"/>
</svg>
