<svg width="300" height="210" viewBox="0 0 300 210" fill="none" xmlns="http://www.w3.org/2000/svg">
<rect width="300" height="210" fill="#121517"/>
<line x1="22.4387" y1="103.5" x2="277.939" y2="103.5" stroke="white" stroke-width="3"/>
<path d="M31.868 81.4277L30.776 77.7947H25.295L24.203 81.4277H22.187L26.828 66.9587H29.348L33.968 81.4277H31.868ZM25.778 76.1777H30.293L28.046 68.6177L25.778 76.1777ZM41.1551 70.1087C43.6541 70.1087 45.2711 72.1877 45.2711 75.8837C45.2711 79.3487 43.6121 81.6797 40.9241 81.6797C39.7061 81.6797 38.7401 81.1337 37.9841 80.2097L37.7951 81.4277H36.0941V65.9087L38.0261 65.6777V71.7467C38.7821 70.7177 39.8111 70.1087 41.1551 70.1087ZM40.4621 80.1467C42.0791 80.1467 43.1921 78.9077 43.1921 75.8837C43.1921 72.7337 42.1631 71.6417 40.6091 71.6417C39.3911 71.6417 38.5931 72.4817 38.0261 73.3637V78.6557C38.5931 79.5377 39.4751 80.1467 40.4621 80.1467ZM52.7209 70.1087C55.8709 70.1087 57.6349 72.3767 57.6349 75.8837C57.6349 79.3067 55.8289 81.6797 52.6999 81.6797C49.5499 81.6797 47.7649 79.4117 47.7649 75.9047C47.7649 72.4817 49.5709 70.1087 52.7209 70.1087ZM52.7209 71.6627C50.8729 71.6627 49.8439 73.0067 49.8439 75.9047C49.8439 78.7817 50.8519 80.1257 52.6999 80.1257C54.5479 80.1257 55.5559 78.7817 55.5559 75.8837C55.5559 73.0067 54.5479 71.6627 52.7209 71.6627ZM68.5434 70.3607L64.7844 81.4277H62.4534L58.6314 70.3607H60.7314L63.6294 79.7057L66.5064 70.3607H68.5434ZM78.9052 75.5687C78.9052 75.9467 78.8842 76.3037 78.8632 76.5557H71.8072C71.9962 79.1177 73.1932 80.1047 74.7892 80.1047C75.8812 80.1047 76.7002 79.8107 77.6662 79.1387L78.5062 80.2937C77.4142 81.1547 76.1752 81.6797 74.6422 81.6797C71.5552 81.6797 69.7492 79.5167 69.7492 76.0097C69.7492 72.5657 71.4922 70.1087 74.3482 70.1087C77.3302 70.1087 78.9052 72.1877 78.9052 75.5687ZM76.9942 75.1277V75.0017C76.9942 72.8387 76.1332 71.6417 74.3902 71.6417C72.9202 71.6417 71.9542 72.6707 71.8072 75.1277H76.9942ZM94.2868 65.6777L96.2188 65.9087V81.4277H94.5178L94.3288 79.8947C93.6148 81.0077 92.5018 81.6797 91.1368 81.6797C88.4488 81.6797 86.9578 79.3907 86.9578 75.9467C86.9578 72.5657 88.5958 70.1087 91.3048 70.1087C92.6068 70.1087 93.5518 70.6967 94.2868 71.4737V65.6777ZM91.5568 80.1467C92.7958 80.1467 93.5518 79.5377 94.2868 78.5087V73.0907C93.5938 72.2087 92.8168 71.6417 91.7248 71.6417C90.0658 71.6417 89.0368 73.0277 89.0368 75.9047C89.0368 78.8237 89.9608 80.1467 91.5568 80.1467ZM101.147 65.0477C101.966 65.0477 102.512 65.6147 102.512 66.3707C102.512 67.1057 101.966 67.6727 101.147 67.6727C100.349 67.6727 99.8025 67.1057 99.8025 66.3707C99.8025 65.6147 100.349 65.0477 101.147 65.0477ZM102.134 70.3607V81.4277H100.202V70.3607H102.134ZM114.255 70.3607L110.496 81.4277H108.165L104.343 70.3607H106.443L109.341 79.7057L112.218 70.3607H114.255ZM117.409 65.0477C118.228 65.0477 118.774 65.6147 118.774 66.3707C118.774 67.1057 118.228 67.6727 117.409 67.6727C116.611 67.6727 116.065 67.1057 116.065 66.3707C116.065 65.6147 116.611 65.0477 117.409 65.0477ZM118.396 70.3607V81.4277H116.464V70.3607H118.396ZM129.027 65.6777L130.959 65.9087V81.4277H129.258L129.069 79.8947C128.355 81.0077 127.242 81.6797 125.877 81.6797C123.189 81.6797 121.698 79.3907 121.698 75.9467C121.698 72.5657 123.336 70.1087 126.045 70.1087C127.347 70.1087 128.292 70.6967 129.027 71.4737V65.6777ZM126.297 80.1467C127.536 80.1467 128.292 79.5377 129.027 78.5087V73.0907C128.334 72.2087 127.557 71.6417 126.465 71.6417C124.806 71.6417 123.777 73.0277 123.777 75.9047C123.777 78.8237 124.701 80.1467 126.297 80.1467ZM143.3 75.5687C143.3 75.9467 143.279 76.3037 143.258 76.5557H136.202C136.391 79.1177 137.588 80.1047 139.184 80.1047C140.276 80.1047 141.095 79.8107 142.061 79.1387L142.901 80.2937C141.809 81.1547 140.57 81.6797 139.037 81.6797C135.95 81.6797 134.144 79.5167 134.144 76.0097C134.144 72.5657 135.887 70.1087 138.743 70.1087C141.725 70.1087 143.3 72.1877 143.3 75.5687ZM141.389 75.1277V75.0017C141.389 72.8387 140.528 71.6417 138.785 71.6417C137.315 71.6417 136.349 72.6707 136.202 75.1277H141.389ZM151.297 70.1087C151.654 70.1087 152.053 70.1507 152.389 70.2347L152.032 72.1247C151.696 72.0407 151.465 71.9987 151.066 71.9987C149.68 71.9987 148.882 72.9857 148.42 75.1067V81.4277H146.488V70.3607H148.147L148.336 72.6077C148.924 70.9487 149.953 70.1087 151.297 70.1087Z" fill="#B4B4B4"/>
<path d="M30.545 135.928C32.225 136.222 33.884 136.999 33.884 139.456C33.884 142.522 31.511 143.572 28.151 143.572H24.161V129.103H27.584C31.154 129.103 33.254 130.237 33.254 132.757C33.254 134.542 31.952 135.634 30.545 135.928ZM27.794 130.678H26.156V135.235H28.34C29.957 135.235 31.217 134.437 31.217 132.904C31.217 131.119 29.936 130.678 27.794 130.678ZM28.151 141.976C30.251 141.976 31.784 141.556 31.784 139.456C31.784 137.419 30.272 136.768 28.529 136.768H26.156V141.976H28.151ZM45.1904 137.713C45.1904 138.091 45.1694 138.448 45.1484 138.7H38.0924C38.2814 141.262 39.4784 142.249 41.0744 142.249C42.1664 142.249 42.9854 141.955 43.9514 141.283L44.7914 142.438C43.6994 143.299 42.4604 143.824 40.9274 143.824C37.8404 143.824 36.0344 141.661 36.0344 138.154C36.0344 134.71 37.7774 132.253 40.6334 132.253C43.6154 132.253 45.1904 134.332 45.1904 137.713ZM43.2794 137.272V137.146C43.2794 134.983 42.4184 133.786 40.6754 133.786C39.2054 133.786 38.2394 134.815 38.0924 137.272H43.2794ZM50.5833 143.824C49.1763 143.824 48.2733 142.963 48.2733 141.388V128.053L50.2053 127.822V141.346C50.2053 141.934 50.3943 142.228 50.8983 142.228C51.1713 142.228 51.4023 142.186 51.6123 142.102L52.1163 143.446C51.6963 143.677 51.1503 143.824 50.5833 143.824ZM58.4836 132.253C61.6336 132.253 63.3976 134.521 63.3976 138.028C63.3976 141.451 61.5916 143.824 58.4626 143.824C55.3126 143.824 53.5276 141.556 53.5276 138.049C53.5276 134.626 55.3336 132.253 58.4836 132.253ZM58.4836 133.807C56.6356 133.807 55.6066 135.151 55.6066 138.049C55.6066 140.926 56.6146 142.27 58.4626 142.27C60.3106 142.27 61.3186 140.926 61.3186 138.028C61.3186 135.151 60.3106 133.807 58.4836 133.807ZM79.0262 132.505L76.5062 143.572H73.8812L71.9492 134.248L69.9542 143.572H67.3922L64.8092 132.505H66.7412L68.7362 142.228L70.9202 132.505H73.0832L75.1622 142.228L77.1782 132.505H79.0262ZM93.6305 127.822L95.5625 128.053V143.572H93.8615L93.6725 142.039C92.9585 143.152 91.8455 143.824 90.4805 143.824C87.7925 143.824 86.3015 141.535 86.3015 138.091C86.3015 134.71 87.9395 132.253 90.6485 132.253C91.9505 132.253 92.8955 132.841 93.6305 133.618V127.822ZM90.9005 142.291C92.1395 142.291 92.8955 141.682 93.6305 140.653V135.235C92.9375 134.353 92.1605 133.786 91.0685 133.786C89.4095 133.786 88.3805 135.172 88.3805 138.049C88.3805 140.968 89.3045 142.291 90.9005 142.291ZM100.49 127.192C101.309 127.192 101.855 127.759 101.855 128.515C101.855 129.25 101.309 129.817 100.49 129.817C99.6923 129.817 99.1463 129.25 99.1463 128.515C99.1463 127.759 99.6923 127.192 100.49 127.192ZM101.477 132.505V143.572H99.5453V132.505H101.477ZM113.599 132.505L109.84 143.572H107.509L103.687 132.505H105.787L108.685 141.85L111.562 132.505H113.599ZM116.753 127.192C117.572 127.192 118.118 127.759 118.118 128.515C118.118 129.25 117.572 129.817 116.753 129.817C115.955 129.817 115.409 129.25 115.409 128.515C115.409 127.759 115.955 127.192 116.753 127.192ZM117.74 132.505V143.572H115.808V132.505H117.74ZM128.371 127.822L130.303 128.053V143.572H128.602L128.413 142.039C127.699 143.152 126.586 143.824 125.221 143.824C122.533 143.824 121.042 141.535 121.042 138.091C121.042 134.71 122.68 132.253 125.389 132.253C126.691 132.253 127.636 132.841 128.371 133.618V127.822ZM125.641 142.291C126.88 142.291 127.636 141.682 128.371 140.653V135.235C127.678 134.353 126.901 133.786 125.809 133.786C124.15 133.786 123.121 135.172 123.121 138.049C123.121 140.968 124.045 142.291 125.641 142.291ZM142.644 137.713C142.644 138.091 142.623 138.448 142.602 138.7H135.546C135.735 141.262 136.932 142.249 138.528 142.249C139.62 142.249 140.439 141.955 141.405 141.283L142.245 142.438C141.153 143.299 139.914 143.824 138.381 143.824C135.294 143.824 133.488 141.661 133.488 138.154C133.488 134.71 135.231 132.253 138.087 132.253C141.069 132.253 142.644 134.332 142.644 137.713ZM140.733 137.272V137.146C140.733 134.983 139.872 133.786 138.129 133.786C136.659 133.786 135.693 134.815 135.546 137.272H140.733ZM150.64 132.253C150.997 132.253 151.396 132.295 151.732 132.379L151.375 134.269C151.039 134.185 150.808 134.143 150.409 134.143C149.023 134.143 148.225 135.13 147.763 137.251V143.572H145.831V132.505H147.49L147.679 134.752C148.267 133.093 149.296 132.253 150.64 132.253Z" fill="#B4B4B4"/>
</svg>
