<svg width="301" height="210" viewBox="0 0 301 210" fill="none" xmlns="http://www.w3.org/2000/svg">
<rect width="300" height="210" transform="translate(0.5)" fill="#121517"/>
<rect x="45" y="65.1934" width="211" height="45" rx="3.5" fill="black" stroke="white"/>
<path d="M52.0624 44.0476L51.9224 45.1816H49.2484V53.6936H47.9184V45.1816H45.1744V44.0476H52.0624ZM57.9777 49.7876C57.9777 50.0396 57.9637 50.2776 57.9497 50.4456H53.2457C53.3717 52.1536 54.1697 52.8116 55.2337 52.8116C55.9617 52.8116 56.5077 52.6156 57.1517 52.1676L57.7117 52.9376C56.9837 53.5116 56.1577 53.8616 55.1357 53.8616C53.0777 53.8616 51.8737 52.4196 51.8737 50.0816C51.8737 47.7856 53.0357 46.1476 54.9397 46.1476C56.9277 46.1476 57.9777 47.5336 57.9777 49.7876ZM56.7037 49.4936V49.4096C56.7037 47.9676 56.1297 47.1696 54.9677 47.1696C53.9877 47.1696 53.3437 47.8556 53.2457 49.4936H56.7037ZM62.7942 49.7456L65.3562 53.6936H63.8022L61.9962 50.5716L60.1622 53.6936H58.7062L61.2822 49.8016L59.0002 46.3156H60.5122L62.0522 49.0176L63.6062 46.3156H65.0622L62.7942 49.7456ZM69.9952 52.4756L70.4852 53.3576C69.9952 53.6936 69.4632 53.8616 68.8332 53.8616C67.5872 53.8616 66.8452 53.1336 66.8452 51.7616V47.3096H65.5572V46.3156H66.8452V44.6496L68.1332 44.4956V46.3156H69.8832L69.7432 47.3096H68.1332V51.7056C68.1332 52.4476 68.3712 52.7976 69.0152 52.7976C69.3372 52.7976 69.6312 52.6996 69.9952 52.4756ZM78.0588 43.1936C78.8848 43.1936 79.5008 43.3896 80.1028 43.6976L79.6548 44.5936C79.1928 44.3696 78.6748 44.2436 78.1008 44.2436C77.0648 44.2436 76.7988 44.6356 76.7988 45.3356V46.3156H80.9148V53.6936H79.6268V47.3096H76.7988V53.6936H75.5108V47.3096H74.3348V46.3156H75.5108V45.3496C75.5108 44.1036 76.2668 43.1936 78.0588 43.1936ZM89.1496 49.7876C89.1496 50.0396 89.1356 50.2776 89.1216 50.4456H84.4176C84.5436 52.1536 85.3416 52.8116 86.4056 52.8116C87.1336 52.8116 87.6796 52.6156 88.3236 52.1676L88.8836 52.9376C88.1556 53.5116 87.3296 53.8616 86.3076 53.8616C84.2496 53.8616 83.0456 52.4196 83.0456 50.0816C83.0456 47.7856 84.2076 46.1476 86.1116 46.1476C88.0996 46.1476 89.1496 47.5336 89.1496 49.7876ZM87.8756 49.4936V49.4096C87.8756 47.9676 87.3016 47.1696 86.1396 47.1696C85.1596 47.1696 84.5156 47.8556 84.4176 49.4936H87.8756ZM92.7448 53.8616C91.8068 53.8616 91.2048 53.2876 91.2048 52.2376V43.3476L92.4928 43.1936V52.2096C92.4928 52.6016 92.6188 52.7976 92.9548 52.7976C93.1368 52.7976 93.2908 52.7696 93.4308 52.7136L93.7668 53.6096C93.4868 53.7636 93.1228 53.8616 92.7448 53.8616ZM99.6637 43.1936L100.952 43.3476V53.6936H99.8177L99.6917 52.6716C99.2157 53.4136 98.4737 53.8616 97.5637 53.8616C95.7717 53.8616 94.7777 52.3356 94.7777 50.0396C94.7777 47.7856 95.8697 46.1476 97.6757 46.1476C98.5437 46.1476 99.1737 46.5396 99.6637 47.0576V43.1936ZM97.8437 52.8396C98.6697 52.8396 99.1737 52.4336 99.6637 51.7476V48.1356C99.2017 47.5476 98.6837 47.1696 97.9557 47.1696C96.8497 47.1696 96.1637 48.0936 96.1637 50.0116C96.1637 51.9576 96.7797 52.8396 97.8437 52.8396Z" fill="white"/>
<rect x="44.9644" y="119.56" width="23.2095" height="23.2095" rx="4" fill="white"/>
<path fill-rule="evenodd" clip-rule="evenodd" d="M64.4729 126.429L55.0964 137.515L53.5269 137.411L49.4629 131.669L51.5227 130.159L54.4337 134.265L62.4527 124.812L64.4729 126.429Z" fill="black"/>
<path d="M78.9415 128.955C80.1595 128.955 80.8455 129.291 81.6155 129.907L80.8875 130.761C80.2855 130.271 79.6975 130.047 79.0255 130.047C77.5695 130.047 76.3515 131.027 76.3515 133.939C76.3515 136.725 77.5135 137.817 79.0115 137.817C79.9215 137.817 80.5095 137.411 81.0555 137.005L81.7275 137.859C81.2095 138.405 80.2715 138.937 78.9695 138.937C76.6315 138.937 74.9375 137.187 74.9375 133.939C74.9375 130.677 76.7575 128.955 78.9415 128.955ZM86.8035 131.223C88.1475 131.223 88.9455 132.091 88.9455 133.477V138.769H87.6575V133.659C87.6575 132.553 87.1815 132.231 86.4815 132.231C85.6835 132.231 85.1095 132.749 84.6195 133.519V138.769H83.3315V128.437L84.6195 128.297V132.413C85.1515 131.685 85.8795 131.223 86.8035 131.223ZM97.1066 134.863C97.1066 135.115 97.0926 135.353 97.0786 135.521H92.3746C92.5006 137.229 93.2986 137.887 94.3626 137.887C95.0906 137.887 95.6366 137.691 96.2806 137.243L96.8406 138.013C96.1126 138.587 95.2866 138.937 94.2646 138.937C92.2066 138.937 91.0026 137.495 91.0026 135.157C91.0026 132.861 92.1646 131.223 94.0686 131.223C96.0566 131.223 97.1066 132.609 97.1066 134.863ZM95.8326 134.569V134.485C95.8326 133.043 95.2586 132.245 94.0966 132.245C93.1166 132.245 92.4726 132.931 92.3746 134.569H95.8326ZM101.92 131.223C102.788 131.223 103.488 131.447 104.174 132.021L103.558 132.833C103.054 132.469 102.592 132.287 101.976 132.287C100.814 132.287 100.086 133.197 100.086 135.115C100.086 137.047 100.814 137.845 101.976 137.845C102.592 137.845 103.026 137.649 103.586 137.285L104.174 138.125C103.516 138.657 102.774 138.937 101.92 138.937C99.9319 138.937 98.6999 137.523 98.6999 135.143C98.6999 132.791 99.9179 131.223 101.92 131.223ZM107.205 128.269V138.769H105.917V128.423L107.205 128.269ZM111.447 131.391L108.731 134.653L111.755 138.769H110.215L107.289 134.737L110.005 131.391H111.447ZM116.455 131.223C118.121 131.223 119.199 132.609 119.199 135.073C119.199 137.383 118.093 138.937 116.301 138.937C115.489 138.937 114.845 138.573 114.341 137.957L114.215 138.769H113.081V128.423L114.369 128.269V132.315C114.873 131.629 115.559 131.223 116.455 131.223ZM115.993 137.915C117.071 137.915 117.813 137.089 117.813 135.073C117.813 132.973 117.127 132.245 116.091 132.245C115.279 132.245 114.747 132.805 114.369 133.393V136.921C114.747 137.509 115.335 137.915 115.993 137.915ZM124.166 131.223C126.266 131.223 127.442 132.735 127.442 135.073C127.442 137.355 126.238 138.937 124.152 138.937C122.052 138.937 120.862 137.425 120.862 135.087C120.862 132.805 122.066 131.223 124.166 131.223ZM124.166 132.259C122.934 132.259 122.248 133.155 122.248 135.087C122.248 137.005 122.92 137.901 124.152 137.901C125.384 137.901 126.056 137.005 126.056 135.073C126.056 133.155 125.384 132.259 124.166 132.259ZM132.124 134.821L134.686 138.769H133.132L131.326 135.647L129.492 138.769H128.036L130.612 134.877L128.33 131.391H129.842L131.382 134.093L132.936 131.391H134.392L132.124 134.821Z" fill="white"/>
<path d="M176.146 158.981C176.146 150.027 183.404 142.769 192.358 142.769H240.288C249.242 142.769 256.5 150.027 256.5 158.981C256.5 167.934 249.242 175.192 240.288 175.192H192.358C183.404 175.192 176.146 167.934 176.146 158.981Z" fill="white"/>
<path d="M192.188 152.363C193.898 152.363 194.978 152.867 196.022 153.803L195.086 154.847C194.15 154.091 193.286 153.767 192.26 153.767C191.018 153.767 190.028 154.343 190.028 155.531C190.028 156.575 190.514 157.079 192.746 157.763C194.726 158.375 196.418 159.149 196.418 161.525C196.418 163.685 194.78 165.197 191.99 165.197C190.208 165.197 188.804 164.603 187.778 163.595L188.732 162.533C189.65 163.307 190.622 163.793 191.972 163.793C193.43 163.793 194.636 163.073 194.636 161.579C194.636 160.373 194.06 159.833 191.954 159.185C189.542 158.447 188.282 157.529 188.282 155.603C188.282 153.695 189.902 152.363 192.188 152.363ZM205.902 155.495V164.981H204.48L204.354 163.505C203.634 164.657 202.752 165.197 201.402 165.197C199.746 165.197 198.756 164.153 198.756 162.299V155.495H200.412V162.119C200.412 163.415 200.844 163.901 201.87 163.901C202.896 163.901 203.67 163.217 204.246 162.263V155.495H205.902ZM213.661 155.279C215.803 155.279 217.189 157.061 217.189 160.229C217.189 163.199 215.767 165.197 213.463 165.197C212.419 165.197 211.591 164.729 210.943 163.937L210.781 164.981H209.323V151.679L210.979 151.481V156.683C211.627 155.801 212.509 155.279 213.661 155.279ZM213.067 163.883C214.453 163.883 215.407 162.821 215.407 160.229C215.407 157.529 214.525 156.593 213.193 156.593C212.149 156.593 211.465 157.313 210.979 158.069V162.605C211.465 163.361 212.221 163.883 213.067 163.883ZM229.532 155.279C231.08 155.279 232.106 156.395 232.106 158.177V164.981H230.45V158.411C230.45 156.989 229.838 156.575 229.118 156.575C228.092 156.575 227.534 157.241 226.886 158.249V164.981H225.23V158.411C225.23 156.989 224.618 156.575 223.898 156.575C222.872 156.575 222.296 157.241 221.666 158.249V164.981H220.01V155.495H221.432L221.576 156.881C222.206 155.927 223.07 155.279 224.312 155.279C225.482 155.279 226.346 155.909 226.706 156.989C227.39 155.963 228.254 155.279 229.532 155.279ZM236.254 150.941C236.956 150.941 237.424 151.427 237.424 152.075C237.424 152.705 236.956 153.191 236.254 153.191C235.57 153.191 235.102 152.705 235.102 152.075C235.102 151.427 235.57 150.941 236.254 150.941ZM237.1 155.495V164.981H235.444V155.495H237.1ZM244.682 163.415L245.312 164.549C244.682 164.981 243.998 165.197 243.188 165.197C241.586 165.197 240.632 164.261 240.632 162.497V156.773H238.976V155.495H240.632V153.353L242.288 153.155V155.495H244.538L244.358 156.773H242.288V162.425C242.288 163.379 242.594 163.829 243.422 163.829C243.836 163.829 244.214 163.703 244.682 163.415Z" fill="black"/>
<rect x="25.0122" y="22.094" width="250.975" height="165.812" stroke="white" stroke-dasharray="2 2"/>
</svg>
