<svg width="301" height="210" viewBox="0 0 301 210" fill="none" xmlns="http://www.w3.org/2000/svg">
<rect width="300" height="210" transform="translate(0.75)" fill="#121517"/>
<path d="M68.0931 101.514V111H66.6711L66.5451 109.524C65.8251 110.676 64.9431 111.216 63.5931 111.216C61.9371 111.216 60.9471 110.172 60.9471 108.318V101.514H62.6031V108.138C62.6031 109.434 63.0351 109.92 64.0611 109.92C65.0871 109.92 65.8611 109.236 66.4371 108.282V101.514H68.0931ZM72.3237 96.96C73.0257 96.96 73.4937 97.446 73.4937 98.094C73.4937 98.724 73.0257 99.21 72.3237 99.21C71.6397 99.21 71.1717 98.724 71.1717 98.094C71.1717 97.446 71.6397 96.96 72.3237 96.96ZM73.1697 101.514V111H71.5137V101.514H73.1697ZM77.0258 108.714C77.7458 108.714 78.2858 109.272 78.2858 109.956C78.2858 110.658 77.7458 111.216 77.0258 111.216C76.3238 111.216 75.7838 110.658 75.7838 109.956C75.7838 109.272 76.3238 108.714 77.0258 108.714ZM84.14 98.832C83.096 98.832 82.736 99.282 82.736 100.2V101.514H85.04L84.86 102.792H82.736V111H81.08V102.792H79.388V101.514H81.08V100.218C81.08 98.634 82.124 97.5 84.05 97.5C84.95 97.5 85.562 97.662 86.318 97.986L85.796 99.192C85.184 98.922 84.626 98.832 84.14 98.832ZM91.0693 101.298C91.3753 101.298 91.7173 101.334 92.0053 101.406L91.6993 103.026C91.4113 102.954 91.2133 102.918 90.8713 102.918C89.6833 102.918 88.9993 103.764 88.6033 105.582V111H86.9473V101.514H88.3693L88.5313 103.44C89.0353 102.018 89.9173 101.298 91.0693 101.298ZM99.9291 108.786C99.9291 109.614 100.235 109.884 100.721 110.064L100.343 111.216C99.3891 111.108 98.7771 110.73 98.4891 109.794C97.8231 110.784 96.8151 111.216 95.6631 111.216C93.7731 111.216 92.6391 110.046 92.6391 108.354C92.6391 106.32 94.1691 105.222 96.8151 105.222H98.2731V104.52C98.2731 103.152 97.6071 102.648 96.2931 102.648C95.5911 102.648 94.7091 102.828 93.7371 103.152L93.3231 101.946C94.4931 101.514 95.5371 101.298 96.5991 101.298C98.8851 101.298 99.9291 102.468 99.9291 104.448V108.786ZM96.0411 109.974C97.0131 109.974 97.7331 109.488 98.2731 108.498V106.32H97.0311C95.2851 106.32 94.4031 106.968 94.4031 108.264C94.4031 109.38 94.9611 109.974 96.0411 109.974ZM110.494 100.452L110.98 101.946C110.188 102.198 109.288 102.234 108.208 102.234C109.324 102.738 109.882 103.53 109.882 104.628C109.882 106.5 108.532 107.85 106.264 107.85C105.832 107.85 105.454 107.796 105.058 107.67C104.788 107.868 104.59 108.21 104.59 108.552C104.59 108.984 104.86 109.326 105.832 109.326H107.344C109.288 109.326 110.584 110.442 110.584 111.954C110.584 113.79 109.072 114.834 106.138 114.834C103.042 114.834 102.07 113.88 102.07 111.954H103.564C103.564 113.034 104.05 113.538 106.138 113.538C108.19 113.538 108.91 113.016 108.91 112.062C108.91 111.162 108.19 110.712 107.002 110.712H105.508C103.816 110.712 103.06 109.866 103.06 108.912C103.06 108.3 103.42 107.688 104.104 107.238C103.006 106.662 102.502 105.834 102.502 104.61C102.502 102.666 104.068 101.298 106.156 101.298C108.514 101.352 109.378 100.956 110.494 100.452ZM106.156 102.486C104.878 102.486 104.194 103.368 104.194 104.61C104.194 105.87 104.896 106.752 106.192 106.752C107.488 106.752 108.19 105.96 108.19 104.592C108.19 103.206 107.506 102.486 106.156 102.486ZM122.204 101.298C123.752 101.298 124.778 102.414 124.778 104.196V111H123.122V104.43C123.122 103.008 122.51 102.594 121.79 102.594C120.764 102.594 120.206 103.26 119.558 104.268V111H117.902V104.43C117.902 103.008 117.29 102.594 116.57 102.594C115.544 102.594 114.968 103.26 114.338 104.268V111H112.682V101.514H114.104L114.248 102.9C114.878 101.946 115.742 101.298 116.984 101.298C118.154 101.298 119.018 101.928 119.378 103.008C120.062 101.982 120.926 101.298 122.204 101.298ZM135.279 105.978C135.279 106.302 135.261 106.608 135.243 106.824H129.195C129.357 109.02 130.383 109.866 131.751 109.866C132.687 109.866 133.389 109.614 134.217 109.038L134.937 110.028C134.001 110.766 132.939 111.216 131.625 111.216C128.979 111.216 127.431 109.362 127.431 106.356C127.431 103.404 128.925 101.298 131.373 101.298C133.929 101.298 135.279 103.08 135.279 105.978ZM133.641 105.6V105.492C133.641 103.638 132.903 102.612 131.409 102.612C130.149 102.612 129.321 103.494 129.195 105.6H133.641ZM142.476 101.298C144.222 101.298 145.23 102.396 145.23 104.196V111H143.574V104.43C143.574 103.008 142.998 102.594 142.08 102.594C141.018 102.594 140.298 103.26 139.668 104.268V111H138.012V101.514H139.434L139.578 102.918C140.226 101.946 141.234 101.298 142.476 101.298ZM152.717 109.434L153.347 110.568C152.717 111 152.033 111.216 151.223 111.216C149.621 111.216 148.667 110.28 148.667 108.516V102.792H147.011V101.514H148.667V99.372L150.323 99.174V101.514H152.573L152.393 102.792H150.323V108.444C150.323 109.398 150.629 109.848 151.457 109.848C151.871 109.848 152.249 109.722 152.717 109.434ZM157.421 95.79L158.465 96.51C156.845 98.904 155.801 100.83 155.801 104.7C155.801 108.552 156.845 110.496 158.465 112.89L157.421 113.61C155.657 111.108 154.073 108.966 154.073 104.7C154.073 100.434 155.657 98.292 157.421 95.79ZM237.101 95.79C238.865 98.292 240.449 100.434 240.449 104.7C240.449 108.966 238.865 111.108 237.101 113.61L236.057 112.89C237.677 110.496 238.721 108.552 238.721 104.7C238.721 100.83 237.677 98.904 236.057 96.51L237.101 95.79Z" fill="#B4B4B4"/>
<path d="M166.094 108.714C166.814 108.714 167.354 109.272 167.354 109.956C167.354 110.658 166.814 111.216 166.094 111.216C165.392 111.216 164.852 110.658 164.852 109.956C164.852 109.272 165.392 108.714 166.094 108.714ZM170.418 108.714C171.138 108.714 171.678 109.272 171.678 109.956C171.678 110.658 171.138 111.216 170.418 111.216C169.716 111.216 169.176 110.658 169.176 109.956C169.176 109.272 169.716 108.714 170.418 108.714ZM174.743 108.714C175.463 108.714 176.003 109.272 176.003 109.956C176.003 110.658 175.463 111.216 174.743 111.216C174.041 111.216 173.501 110.658 173.501 109.956C173.501 109.272 174.041 108.714 174.743 108.714ZM183.83 108.714C184.55 108.714 185.09 109.272 185.09 109.956C185.09 110.352 185 110.712 184.766 111.234L183.56 113.988H182.372L183.092 111C182.786 110.766 182.588 110.388 182.588 109.956C182.588 109.272 183.128 108.714 183.83 108.714ZM192.918 108.714C193.638 108.714 194.178 109.272 194.178 109.956C194.178 110.658 193.638 111.216 192.918 111.216C192.216 111.216 191.676 110.658 191.676 109.956C191.676 109.272 192.216 108.714 192.918 108.714ZM197.243 108.714C197.963 108.714 198.503 109.272 198.503 109.956C198.503 110.658 197.963 111.216 197.243 111.216C196.541 111.216 196.001 110.658 196.001 109.956C196.001 109.272 196.541 108.714 197.243 108.714ZM201.567 108.714C202.287 108.714 202.827 109.272 202.827 109.956C202.827 110.658 202.287 111.216 201.567 111.216C200.865 111.216 200.325 110.658 200.325 109.956C200.325 109.272 200.865 108.714 201.567 108.714ZM210.655 108.714C211.375 108.714 211.915 109.272 211.915 109.956C211.915 110.352 211.825 110.712 211.591 111.234L210.385 113.988H209.197L209.917 111C209.611 110.766 209.413 110.388 209.413 109.956C209.413 109.272 209.953 108.714 210.655 108.714ZM219.743 108.714C220.463 108.714 221.003 109.272 221.003 109.956C221.003 110.658 220.463 111.216 219.743 111.216C219.041 111.216 218.501 110.658 218.501 109.956C218.501 109.272 219.041 108.714 219.743 108.714ZM224.067 108.714C224.787 108.714 225.327 109.272 225.327 109.956C225.327 110.658 224.787 111.216 224.067 111.216C223.365 111.216 222.825 110.658 222.825 109.956C222.825 109.272 223.365 108.714 224.067 108.714ZM228.391 108.714C229.111 108.714 229.651 109.272 229.651 109.956C229.651 110.658 229.111 111.216 228.391 111.216C227.689 111.216 227.149 110.658 227.149 109.956C227.149 109.272 227.689 108.714 228.391 108.714Z" fill="white"/>
</svg>
