<svg width="301" height="210" viewBox="0 0 301 210" fill="none" xmlns="http://www.w3.org/2000/svg">
<rect width="300" height="210" transform="translate(0.5)" fill="#121517"/>
<path d="M44.7817 75.1226V69.6686H40.6597V75.1226H38.0137V62.6666H40.6597V67.5806H44.7817V62.6666H47.4277V75.1226H44.7817ZM58.0647 70.1366C58.0647 70.4606 58.0287 70.8566 58.0107 71.1266H52.0527C52.2327 72.9626 53.0967 73.5026 54.3207 73.5026C55.1307 73.5026 55.8147 73.2506 56.6427 72.6746L57.7047 74.1146C56.7687 74.8706 55.5807 75.4106 54.0867 75.4106C51.0267 75.4106 49.4247 73.3946 49.4247 70.4066C49.4247 67.5266 50.9727 65.2946 53.7627 65.2946C56.4627 65.2946 58.0647 67.0946 58.0647 70.1366ZM55.5267 69.5246V69.4166C55.5267 67.9766 55.0407 67.0406 53.8167 67.0406C52.8087 67.0406 52.1967 67.7066 52.0527 69.5246H55.5267ZM67.2399 72.4766C67.2399 73.2506 67.4739 73.5206 67.9419 73.6826L67.4019 75.3746C66.3219 75.2666 65.6019 74.9246 65.2059 73.9886C64.5219 75.0146 63.4779 75.4106 62.3439 75.4106C60.4359 75.4106 59.2479 74.1866 59.2479 72.4586C59.2479 70.3706 60.8139 69.2366 63.6399 69.2366H64.7379V68.7686C64.7379 67.5806 64.2339 67.2026 63.0279 67.2026C62.3979 67.2026 61.4799 67.3826 60.5079 67.7066L59.9319 65.9966C61.1199 65.5286 62.3799 65.2946 63.4599 65.2946C66.1059 65.2946 67.2399 66.4646 67.2399 68.6246V72.4766ZM63.0459 73.5746C63.7839 73.5746 64.3419 73.1966 64.7379 72.5126V70.6946H63.8919C62.5059 70.6946 61.8219 71.1986 61.8219 72.2426C61.8219 73.0886 62.2539 73.5746 63.0459 73.5746ZM75.4997 61.4966L78.0557 61.7846V75.1226H75.8057L75.6437 73.9526C75.0857 74.7806 74.2037 75.4106 72.9257 75.4106C70.5317 75.4106 69.3077 73.3946 69.3077 70.3526C69.3077 67.4006 70.7837 65.2946 73.2137 65.2946C74.1317 65.2946 74.9237 65.6906 75.4997 66.2666V61.4966ZM73.6997 73.5026C74.4557 73.5026 75.0137 73.1066 75.4997 72.3506V68.0846C75.0317 67.5266 74.5457 67.1846 73.8617 67.1846C72.7277 67.1846 71.9717 68.1206 71.9717 70.3526C71.9717 72.7466 72.6557 73.5026 73.6997 73.5026ZM81.8291 60.6686C82.7471 60.6686 83.3951 61.3166 83.3951 62.1626C83.3951 63.0086 82.7471 63.6566 81.8291 63.6566C80.9111 63.6566 80.2811 63.0086 80.2811 62.1626C80.2811 61.3166 80.9111 60.6686 81.8291 60.6686ZM83.1251 65.5826V75.1226H80.5691V65.5826H83.1251ZM90.9772 65.2946C92.6512 65.2946 93.6412 66.3746 93.6412 68.1746V75.1226H91.0852V68.6066C91.0852 67.5086 90.6892 67.2026 90.0412 67.2026C89.3032 67.2026 88.7272 67.6886 88.2052 68.5346V75.1226H85.6492V65.5826H87.8632L88.0612 66.7886C88.8352 65.8346 89.7712 65.2946 90.9772 65.2946ZM103.975 64.1426L104.605 66.1046C103.903 66.3746 103.003 66.4646 101.851 66.4646C103.021 66.9866 103.615 67.7066 103.615 68.9126C103.615 70.7666 102.121 72.1166 99.691 72.1166C99.277 72.1166 98.917 72.0806 98.575 71.9906C98.359 72.1346 98.215 72.3686 98.215 72.6206C98.215 72.9446 98.377 73.2506 99.313 73.2506H100.771C102.931 73.2506 104.317 74.4026 104.317 75.9866C104.317 77.9126 102.643 79.0826 99.457 79.0826C95.965 79.0826 95.011 77.9486 95.011 76.0406H97.297C97.297 76.9406 97.693 77.3366 99.511 77.3366C101.275 77.3366 101.743 76.8506 101.743 76.1666C101.743 75.5186 101.257 75.1226 100.249 75.1226H98.845C96.847 75.1226 96.019 74.2586 96.019 73.2506C96.019 72.5666 96.451 71.9006 97.135 71.4686C95.947 70.8206 95.443 69.9746 95.443 68.7506C95.443 66.6446 97.117 65.2946 99.511 65.2946C101.707 65.3486 102.823 64.7906 103.975 64.1426ZM99.565 67.0046C98.593 67.0046 97.999 67.6706 97.999 68.7146C97.999 69.8126 98.611 70.4606 99.583 70.4606C100.609 70.4606 101.149 69.8486 101.149 68.6786C101.149 67.5446 100.627 67.0046 99.565 67.0046Z" fill="white"/>
<path d="M39.4297 92.147V100.631H43.3917L43.2377 101.793H38.0997V92.147H39.4297ZM47.7744 94.247C49.8744 94.247 51.0504 95.759 51.0504 98.097C51.0504 100.379 49.8464 101.961 47.7604 101.961C45.6604 101.961 44.4704 100.449 44.4704 98.111C44.4704 95.829 45.6744 94.247 47.7744 94.247ZM47.7744 95.283C46.5424 95.283 45.8564 96.179 45.8564 98.111C45.8564 100.029 46.5284 100.925 47.7604 100.925C48.9924 100.925 49.6644 100.029 49.6644 98.097C49.6644 96.179 48.9924 95.283 47.7744 95.283ZM56.3841 94.247C56.6221 94.247 56.8881 94.275 57.1121 94.331L56.8741 95.591C56.6501 95.535 56.4961 95.507 56.2301 95.507C55.3061 95.507 54.7741 96.165 54.4661 97.579V101.793H53.1781V94.415H54.2841L54.4101 95.913C54.8021 94.807 55.4881 94.247 56.3841 94.247ZM64.0138 97.887C64.0138 98.139 63.9998 98.377 63.9858 98.545H59.2818C59.4078 100.253 60.2058 100.911 61.2698 100.911C61.9978 100.911 62.5438 100.715 63.1878 100.267L63.7478 101.037C63.0198 101.611 62.1938 101.961 61.1718 101.961C59.1138 101.961 57.9098 100.519 57.9098 98.181C57.9098 95.885 59.0718 94.247 60.9758 94.247C62.9638 94.247 64.0138 95.633 64.0138 97.887ZM62.7398 97.593V97.509C62.7398 96.067 62.1658 95.269 61.0038 95.269C60.0238 95.269 59.3798 95.955 59.2818 97.593H62.7398ZM73.5451 94.247C74.7491 94.247 75.5471 95.115 75.5471 96.501V101.793H74.2591V96.683C74.2591 95.577 73.7831 95.255 73.2231 95.255C72.4251 95.255 71.9911 95.773 71.4871 96.557V101.793H70.1991V96.683C70.1991 95.577 69.7231 95.255 69.1631 95.255C68.3651 95.255 67.9171 95.773 67.4271 96.557V101.793H66.1391V94.415H67.2451L67.3571 95.493C67.8471 94.751 68.5191 94.247 69.4851 94.247C70.3951 94.247 71.0671 94.737 71.3471 95.577C71.8791 94.779 72.5511 94.247 73.5451 94.247ZM82.4781 90.873C83.0241 90.873 83.3881 91.251 83.3881 91.755C83.3881 92.245 83.0241 92.623 82.4781 92.623C81.9461 92.623 81.5821 92.245 81.5821 91.755C81.5821 91.251 81.9461 90.873 82.4781 90.873ZM83.1361 94.415V101.793H81.8481V94.415H83.1361ZM89.1872 94.247C91.1472 94.247 91.9172 95.773 91.9172 98.097C91.9172 100.337 90.9232 101.961 89.0192 101.961C88.2212 101.961 87.5632 101.695 87.0872 101.121V104.621L85.7992 104.775V94.415H86.9052L87.0032 95.409C87.5492 94.653 88.3472 94.247 89.1872 94.247ZM88.7112 100.911C89.8872 100.911 90.5312 100.029 90.5312 98.097C90.5312 96.179 89.9712 95.269 88.8652 95.269C88.0812 95.269 87.4792 95.829 87.0872 96.417V100.015C87.4652 100.589 88.0392 100.911 88.7112 100.911ZM96.1137 94.247C97.1497 94.247 97.9197 94.555 98.6197 95.087L98.0737 95.899C97.4157 95.479 96.8417 95.269 96.1557 95.269C95.3157 95.269 94.7977 95.647 94.7977 96.235C94.7977 96.837 95.1897 97.117 96.3797 97.425C97.9337 97.817 98.8297 98.433 98.8297 99.721C98.8297 101.261 97.4157 101.961 95.9177 101.961C94.6717 101.961 93.7757 101.555 93.1317 100.995L93.8177 100.211C94.4057 100.659 95.0917 100.925 95.8897 100.925C96.8557 100.925 97.4717 100.505 97.4717 99.805C97.4717 99.077 97.1077 98.797 95.6797 98.419C94.0837 97.999 93.4537 97.313 93.4537 96.277C93.4537 95.101 94.5877 94.247 96.1137 94.247ZM106.135 94.415V101.793H105.029L104.931 100.645C104.371 101.541 103.685 101.961 102.635 101.961C101.347 101.961 100.577 101.149 100.577 99.707V94.415H101.865V99.567C101.865 100.575 102.201 100.953 102.999 100.953C103.797 100.953 104.399 100.421 104.847 99.679V94.415H106.135ZM116.201 94.247C117.405 94.247 118.203 95.115 118.203 96.501V101.793H116.915V96.683C116.915 95.577 116.439 95.255 115.879 95.255C115.081 95.255 114.647 95.773 114.143 96.557V101.793H112.855V96.683C112.855 95.577 112.379 95.255 111.819 95.255C111.021 95.255 110.573 95.773 110.083 96.557V101.793H108.795V94.415H109.901L110.013 95.493C110.503 94.751 111.175 94.247 112.141 94.247C113.051 94.247 113.723 94.737 114.003 95.577C114.535 94.779 115.207 94.247 116.201 94.247ZM128.928 91.293L130.216 91.447V101.793H129.082L128.956 100.771C128.48 101.513 127.738 101.961 126.828 101.961C125.036 101.961 124.042 100.435 124.042 98.139C124.042 95.885 125.134 94.247 126.94 94.247C127.808 94.247 128.438 94.639 128.928 95.157V91.293ZM127.108 100.939C127.934 100.939 128.438 100.533 128.928 99.847V96.235C128.466 95.647 127.948 95.269 127.22 95.269C126.114 95.269 125.428 96.193 125.428 98.111C125.428 100.057 126.044 100.939 127.108 100.939ZM135.644 94.247C137.744 94.247 138.92 95.759 138.92 98.097C138.92 100.379 137.716 101.961 135.63 101.961C133.53 101.961 132.34 100.449 132.34 98.111C132.34 95.829 133.544 94.247 135.644 94.247ZM135.644 95.283C134.412 95.283 133.726 96.179 133.726 98.111C133.726 100.029 134.398 100.925 135.63 100.925C136.862 100.925 137.534 100.029 137.534 98.097C137.534 96.179 136.862 95.283 135.644 95.283ZM142.517 101.961C141.579 101.961 140.977 101.387 140.977 100.337V91.447L142.265 91.293V100.309C142.265 100.701 142.391 100.897 142.727 100.897C142.909 100.897 143.063 100.869 143.203 100.813L143.539 101.709C143.259 101.863 142.895 101.961 142.517 101.961ZM150.119 100.071C150.119 100.715 150.357 100.925 150.735 101.065L150.441 101.961C149.699 101.877 149.223 101.583 148.999 100.855C148.481 101.625 147.697 101.961 146.801 101.961C145.331 101.961 144.449 101.051 144.449 99.735C144.449 98.153 145.639 97.299 147.697 97.299H148.831V96.753C148.831 95.689 148.313 95.297 147.291 95.297C146.745 95.297 146.059 95.437 145.303 95.689L144.981 94.751C145.891 94.415 146.703 94.247 147.529 94.247C149.307 94.247 150.119 95.157 150.119 96.697V100.071ZM147.095 100.995C147.851 100.995 148.411 100.617 148.831 99.847V98.153H147.865C146.507 98.153 145.821 98.657 145.821 99.665C145.821 100.533 146.255 100.995 147.095 100.995ZM155.97 94.247C156.208 94.247 156.474 94.275 156.698 94.331L156.46 95.591C156.236 95.535 156.082 95.507 155.816 95.507C154.892 95.507 154.36 96.165 154.052 97.579V101.793H152.764V94.415H153.87L153.996 95.913C154.388 94.807 155.074 94.247 155.97 94.247ZM163.872 94.247C164.908 94.247 165.678 94.555 166.378 95.087L165.832 95.899C165.174 95.479 164.6 95.269 163.914 95.269C163.074 95.269 162.556 95.647 162.556 96.235C162.556 96.837 162.948 97.117 164.138 97.425C165.692 97.817 166.588 98.433 166.588 99.721C166.588 101.261 165.174 101.961 163.676 101.961C162.43 101.961 161.534 101.555 160.89 100.995L161.576 100.211C162.164 100.659 162.85 100.925 163.648 100.925C164.614 100.925 165.23 100.505 165.23 99.805C165.23 99.077 164.866 98.797 163.438 98.419C161.842 97.999 161.212 97.313 161.212 96.277C161.212 95.101 162.346 94.247 163.872 94.247ZM169.035 90.873C169.581 90.873 169.945 91.251 169.945 91.755C169.945 92.245 169.581 92.623 169.035 92.623C168.503 92.623 168.139 92.245 168.139 91.755C168.139 91.251 168.503 90.873 169.035 90.873ZM169.693 94.415V101.793H168.405V94.415H169.693ZM175.59 100.575L176.08 101.457C175.59 101.793 175.058 101.961 174.428 101.961C173.182 101.961 172.44 101.233 172.44 99.861V95.409H171.152V94.415H172.44V92.749L173.728 92.595V94.415H175.478L175.338 95.409H173.728V99.805C173.728 100.547 173.966 100.897 174.61 100.897C174.932 100.897 175.226 100.799 175.59 100.575ZM186.09 100.071C186.09 100.715 186.328 100.925 186.706 101.065L186.412 101.961C185.67 101.877 185.194 101.583 184.97 100.855C184.452 101.625 183.668 101.961 182.772 101.961C181.302 101.961 180.42 101.051 180.42 99.735C180.42 98.153 181.61 97.299 183.668 97.299H184.802V96.753C184.802 95.689 184.284 95.297 183.262 95.297C182.716 95.297 182.03 95.437 181.274 95.689L180.952 94.751C181.862 94.415 182.674 94.247 183.5 94.247C185.278 94.247 186.09 95.157 186.09 96.697V100.071ZM183.066 100.995C183.822 100.995 184.382 100.617 184.802 99.847V98.153H183.836C182.478 98.153 181.792 98.657 181.792 99.665C181.792 100.533 182.226 100.995 183.066 100.995ZM196.141 94.247C197.345 94.247 198.143 95.115 198.143 96.501V101.793H196.855V96.683C196.855 95.577 196.379 95.255 195.819 95.255C195.021 95.255 194.587 95.773 194.083 96.557V101.793H192.795V96.683C192.795 95.577 192.319 95.255 191.759 95.255C190.961 95.255 190.513 95.773 190.023 96.557V101.793H188.735V94.415H189.841L189.953 95.493C190.443 94.751 191.115 94.247 192.081 94.247C192.991 94.247 193.663 94.737 193.943 95.577C194.475 94.779 195.147 94.247 196.141 94.247ZM206.311 97.887C206.311 98.139 206.297 98.377 206.283 98.545H201.579C201.705 100.253 202.503 100.911 203.567 100.911C204.295 100.911 204.841 100.715 205.485 100.267L206.045 101.037C205.317 101.611 204.491 101.961 203.469 101.961C201.411 101.961 200.207 100.519 200.207 98.181C200.207 95.885 201.369 94.247 203.273 94.247C205.261 94.247 206.311 95.633 206.311 97.887ZM205.037 97.593V97.509C205.037 96.067 204.463 95.269 203.301 95.269C202.321 95.269 201.677 95.955 201.579 97.593H205.037ZM211.67 100.575L212.16 101.457C211.67 101.793 211.138 101.961 210.508 101.961C209.262 101.961 208.52 101.233 208.52 99.861V95.409H207.232V94.415H208.52V92.749L209.808 92.595V94.415H211.558L211.418 95.409H209.808V99.805C209.808 100.547 210.046 100.897 210.69 100.897C211.012 100.897 211.306 100.799 211.67 100.575ZM213.831 100.015C214.391 100.015 214.811 100.449 214.811 100.981C214.811 101.527 214.391 101.961 213.831 101.961C213.285 101.961 212.865 101.527 212.865 100.981C212.865 100.449 213.285 100.015 213.831 100.015Z" fill="white"/>
</svg>
