<svg width="300" height="210" viewBox="0 0 300 210" fill="none" xmlns="http://www.w3.org/2000/svg">
<rect width="300" height="210" fill="#121517"/>
<path d="M121.24 115.849L122.068 117.703L116.326 120.115L122.068 122.491L121.24 124.381L114.184 121.267V118.963L121.24 115.849ZM128.434 111.457L130.648 111.961L126.436 128.089L124.204 127.567L128.434 111.457ZM140.18 126.109V120.655H136.058V126.109H133.412V113.653H136.058V118.567H140.18V113.653H142.826V126.109H140.18ZM153.715 113.653L153.427 115.723H150.277V126.109H147.631V115.723H144.319V113.653H153.715ZM165.84 113.653L166.794 126.109H164.202L163.932 121.051C163.824 119.269 163.77 117.397 163.824 115.975L161.718 124.777H159.216L156.966 115.957C157.074 117.703 157.056 119.359 156.966 121.105L156.696 126.109H154.122L155.094 113.653H158.46L160.512 122.239L162.438 113.653H165.84ZM171.653 113.653V123.985H176.585L176.297 126.109H169.007V113.653H171.653ZM178.364 115.849L185.42 118.963V121.267L178.364 124.381L177.536 122.491L183.278 120.115L177.536 117.703L178.364 115.849Z" fill="white"/>
<path d="M125.74 85.6306L126.568 87.4846L120.826 89.8966L126.568 92.2726L125.74 94.1626L118.684 91.0486V88.7446L125.74 85.6306ZM135.328 95.8906V90.4366H131.206V95.8906H128.56V83.4346H131.206V88.3486H135.328V83.4346H137.974V95.8906H135.328ZM148.863 83.4346L148.575 85.5046H145.425V95.8906H142.779V85.5046H139.467V83.4346H148.863ZM160.989 83.4346L161.943 95.8906H159.351L159.081 90.8326C158.973 89.0506 158.919 87.1786 158.973 85.7566L156.867 94.5586H154.365L152.115 85.7386C152.223 87.4846 152.205 89.1406 152.115 90.8866L151.845 95.8906H149.271L150.243 83.4346H153.609L155.661 92.0206L157.587 83.4346H160.989ZM166.802 83.4346V93.7666H171.734L171.446 95.8906H164.156V83.4346H166.802ZM173.512 85.6306L180.568 88.7446V91.0486L173.512 94.1626L172.684 92.2726L178.426 89.8966L172.684 87.4846L173.512 85.6306Z" fill="white"/>
</svg>
