<svg width="300" height="210" viewBox="0 0 300 210" fill="none" xmlns="http://www.w3.org/2000/svg">
<rect width="300" height="210" fill="#121517"/>
<path d="M116.75 101.809V103.8L111.071 109.338V115.809H106.49V109.338L100.75 103.8V101.809H116.75Z" fill="white"/>
<path d="M156.095 104.47C155.991 104.064 155.831 103.675 155.619 103.313C155.416 102.937 155.156 102.594 154.848 102.297C154.402 101.853 153.874 101.499 153.292 101.256C152.123 100.776 150.811 100.776 149.641 101.256C149.092 101.489 148.587 101.815 148.15 102.22L148.086 102.297L147.25 103.133L146.414 102.297L146.35 102.22C145.913 101.815 145.408 101.489 144.859 101.256C143.689 100.776 142.377 100.776 141.208 101.256C140.626 101.499 140.098 101.853 139.652 102.297C139.344 102.597 139.08 102.939 138.868 103.313C138.665 103.678 138.51 104.066 138.405 104.47C138.296 104.89 138.244 105.322 138.251 105.756C138.251 106.163 138.303 106.569 138.405 106.964C138.513 107.363 138.668 107.747 138.868 108.108C139.083 108.48 139.347 108.822 139.652 109.124L147.25 116.722L154.848 109.124C155.153 108.825 155.413 108.482 155.619 108.108C155.829 107.75 155.989 107.365 156.095 106.964C156.197 106.569 156.249 106.163 156.249 105.756C156.256 105.322 156.204 104.89 156.095 104.47Z" fill="white"/>
<path d="M195.058 100.501H178.442L177.75 101.194V116.425L178.442 117.117H195.058L195.75 116.425V101.194L195.058 100.501ZM179.135 101.886H194.365V103.271H179.135V101.886ZM188.827 107.425H184.673V104.655H188.827V107.425ZM188.827 108.809V111.578H184.673V108.809H188.827ZM179.135 104.655H183.288V107.425H179.135V104.655ZM179.135 108.809H183.288V111.578H179.135V108.809ZM179.135 115.732V112.963H183.288V115.732H179.135ZM184.673 115.732V112.963H188.827V115.732H184.673ZM194.365 115.732H190.212V112.963H194.365V115.732ZM194.365 111.578H190.212V108.809H194.365V111.578ZM190.212 107.425V104.655H194.365V107.425H190.212Z" fill="white"/>
</svg>
