<svg width="300" height="210" viewBox="0 0 300 210" fill="none" xmlns="http://www.w3.org/2000/svg">
<rect width="300" height="210" fill="#121517"/>
<path fill-rule="evenodd" clip-rule="evenodd" d="M148.039 49.0916H152.052L181.878 105.003L179.871 108.378H120.129L118.122 105.003L148.039 49.0916ZM150.046 54.929L123.96 103.817H176.04L150.046 54.929ZM152.896 99.2567V94.6963H147.195V99.2567H152.896ZM147.195 90.1358V71.8939H152.896V90.1358H147.195Z" fill="white"/>
<path d="M90.095 133.959V148.428H88.1V133.959H90.095ZM98.2204 137.109C99.5224 137.109 100.572 137.445 101.601 138.306L100.677 139.524C99.9214 138.978 99.2284 138.705 98.3044 138.705C96.5614 138.705 95.4694 140.07 95.4694 142.947C95.4694 145.845 96.5614 147.042 98.3044 147.042C99.2284 147.042 99.8794 146.748 100.719 146.202L101.601 147.462C100.614 148.26 99.5014 148.68 98.2204 148.68C95.2384 148.68 93.3904 146.559 93.3904 142.989C93.3904 139.461 95.2174 137.109 98.2204 137.109ZM108.17 137.109C111.32 137.109 113.084 139.377 113.084 142.884C113.084 146.307 111.278 148.68 108.149 148.68C104.999 148.68 103.214 146.412 103.214 142.905C103.214 139.482 105.02 137.109 108.17 137.109ZM108.17 138.663C106.322 138.663 105.293 140.007 105.293 142.905C105.293 145.782 106.301 147.126 108.149 147.126C109.997 147.126 111.005 145.782 111.005 142.884C111.005 140.007 109.997 138.663 108.17 138.663ZM121.483 137.109C123.52 137.109 124.696 138.39 124.696 140.49V148.428H122.764V140.763C122.764 139.104 122.092 138.621 121.021 138.621C119.782 138.621 118.942 139.398 118.207 140.574V148.428H116.275V137.361H117.934L118.102 138.999C118.858 137.865 120.034 137.109 121.483 137.109ZM145.982 133.959L147.179 148.428H145.247L144.743 141.897C144.554 139.629 144.407 137.193 144.386 135.996L141.257 146.79H139.388L136.091 135.975C136.091 137.676 135.986 139.923 135.818 142.044L135.335 148.428H133.445L134.642 133.959H137.33L140.375 144.48L143.273 133.959H145.982ZM159.107 142.569C159.107 142.947 159.086 143.304 159.065 143.556H152.009C152.198 146.118 153.395 147.105 154.991 147.105C156.083 147.105 156.902 146.811 157.868 146.139L158.708 147.294C157.616 148.155 156.377 148.68 154.844 148.68C151.757 148.68 149.951 146.517 149.951 143.01C149.951 139.566 151.694 137.109 154.55 137.109C157.532 137.109 159.107 139.188 159.107 142.569ZM157.196 142.128V142.002C157.196 139.839 156.335 138.642 154.592 138.642C153.122 138.642 152.156 139.671 152.009 142.128H157.196ZM165.298 137.109C166.852 137.109 168.007 137.571 169.057 138.369L168.238 139.587C167.251 138.957 166.39 138.642 165.361 138.642C164.101 138.642 163.324 139.209 163.324 140.091C163.324 140.994 163.912 141.414 165.697 141.876C168.028 142.464 169.372 143.388 169.372 145.32C169.372 147.63 167.251 148.68 165.004 148.68C163.135 148.68 161.791 148.071 160.825 147.231L161.854 146.055C162.736 146.727 163.765 147.126 164.962 147.126C166.411 147.126 167.335 146.496 167.335 145.446C167.335 144.354 166.789 143.934 164.647 143.367C162.253 142.737 161.308 141.708 161.308 140.154C161.308 138.39 163.009 137.109 165.298 137.109ZM175.101 137.109C176.655 137.109 177.81 137.571 178.86 138.369L178.041 139.587C177.054 138.957 176.193 138.642 175.164 138.642C173.904 138.642 173.127 139.209 173.127 140.091C173.127 140.994 173.715 141.414 175.5 141.876C177.831 142.464 179.175 143.388 179.175 145.32C179.175 147.63 177.054 148.68 174.807 148.68C172.938 148.68 171.594 148.071 170.628 147.231L171.657 146.055C172.539 146.727 173.568 147.126 174.765 147.126C176.214 147.126 177.138 146.496 177.138 145.446C177.138 144.354 176.592 143.934 174.45 143.367C172.056 142.737 171.111 141.708 171.111 140.154C171.111 138.39 172.812 137.109 175.101 137.109ZM189.355 145.845C189.355 146.811 189.712 147.126 190.279 147.336L189.838 148.68C188.725 148.554 188.011 148.113 187.675 147.021C186.898 148.176 185.722 148.68 184.378 148.68C182.173 148.68 180.85 147.315 180.85 145.341C180.85 142.968 182.635 141.687 185.722 141.687H187.423V140.868C187.423 139.272 186.646 138.684 185.113 138.684C184.294 138.684 183.265 138.894 182.131 139.272L181.648 137.865C183.013 137.361 184.231 137.109 185.47 137.109C188.137 137.109 189.355 138.474 189.355 140.784V145.845ZM184.819 147.231C185.953 147.231 186.793 146.664 187.423 145.509V142.968H185.974C183.937 142.968 182.908 143.724 182.908 145.236C182.908 146.538 183.559 147.231 184.819 147.231ZM201.681 136.122L202.248 137.865C201.324 138.159 200.274 138.201 199.014 138.201C200.316 138.789 200.967 139.713 200.967 140.994C200.967 143.178 199.392 144.753 196.746 144.753C196.242 144.753 195.801 144.69 195.339 144.543C195.024 144.774 194.793 145.173 194.793 145.572C194.793 146.076 195.108 146.475 196.242 146.475H198.006C200.274 146.475 201.786 147.777 201.786 149.541C201.786 151.683 200.022 152.901 196.599 152.901C192.987 152.901 191.853 151.788 191.853 149.541H193.596C193.596 150.801 194.163 151.389 196.599 151.389C198.993 151.389 199.833 150.78 199.833 149.667C199.833 148.617 198.993 148.092 197.607 148.092H195.864C193.89 148.092 193.008 147.105 193.008 145.992C193.008 145.278 193.428 144.564 194.226 144.039C192.945 143.367 192.357 142.401 192.357 140.973C192.357 138.705 194.184 137.109 196.62 137.109C199.371 137.172 200.379 136.71 201.681 136.122ZM196.62 138.495C195.129 138.495 194.331 139.524 194.331 140.973C194.331 142.443 195.15 143.472 196.662 143.472C198.174 143.472 198.993 142.548 198.993 140.952C198.993 139.335 198.195 138.495 196.62 138.495ZM212.386 142.569C212.386 142.947 212.365 143.304 212.344 143.556H205.288C205.477 146.118 206.674 147.105 208.27 147.105C209.362 147.105 210.181 146.811 211.147 146.139L211.987 147.294C210.895 148.155 209.656 148.68 208.123 148.68C205.036 148.68 203.23 146.517 203.23 143.01C203.23 139.566 204.973 137.109 207.829 137.109C210.811 137.109 212.386 139.188 212.386 142.569ZM210.475 142.128V142.002C210.475 139.839 209.614 138.642 207.871 138.642C206.401 138.642 205.435 139.671 205.288 142.128H210.475Z" fill="white"/>
</svg>
