<svg width="300" height="210" viewBox="0 0 300 210" fill="none" xmlns="http://www.w3.org/2000/svg">
<rect width="300" height="210" fill="#121517"/>
<path d="M61.095 143.959V158.428H59.1V143.959H61.095ZM67.3934 158.68C65.9864 158.68 65.0834 157.819 65.0834 156.244V142.909L67.0154 142.678V156.202C67.0154 156.79 67.2044 157.084 67.7084 157.084C67.9814 157.084 68.2124 157.042 68.4224 156.958L68.9264 158.302C68.5064 158.533 67.9604 158.68 67.3934 158.68ZM73.5457 158.68C72.1387 158.68 71.2357 157.819 71.2357 156.244V142.909L73.1677 142.678V156.202C73.1677 156.79 73.3567 157.084 73.8607 157.084C74.1337 157.084 74.3647 157.042 74.5747 156.958L75.0787 158.302C74.6587 158.533 74.1127 158.68 73.5457 158.68ZM85.725 147.361V158.428H84.066L83.919 156.706C83.079 158.05 82.05 158.68 80.475 158.68C78.543 158.68 77.388 157.462 77.388 155.299V147.361H79.32V155.089C79.32 156.601 79.824 157.168 81.021 157.168C82.218 157.168 83.121 156.37 83.793 155.257V147.361H85.725ZM92.7187 147.109C94.2727 147.109 95.4277 147.571 96.4777 148.369L95.6587 149.587C94.6717 148.957 93.8107 148.642 92.7817 148.642C91.5217 148.642 90.7447 149.209 90.7447 150.091C90.7447 150.994 91.3327 151.414 93.1177 151.876C95.4487 152.464 96.7927 153.388 96.7927 155.32C96.7927 157.63 94.6717 158.68 92.4247 158.68C90.5557 158.68 89.2117 158.071 88.2457 157.231L89.2747 156.055C90.1567 156.727 91.1857 157.126 92.3827 157.126C93.8317 157.126 94.7557 156.496 94.7557 155.446C94.7557 154.354 94.2097 153.934 92.0677 153.367C89.6737 152.737 88.7287 151.708 88.7287 150.154C88.7287 148.39 90.4297 147.109 92.7187 147.109ZM104.369 156.601L105.104 157.924C104.369 158.428 103.571 158.68 102.626 158.68C100.757 158.68 99.6444 157.588 99.6444 155.53V148.852H97.7124V147.361H99.6444V144.862L101.576 144.631V147.361H104.201L103.991 148.852H101.576V155.446C101.576 156.559 101.933 157.084 102.899 157.084C103.382 157.084 103.823 156.937 104.369 156.601ZM111.915 147.109C112.272 147.109 112.671 147.151 113.007 147.235L112.65 149.125C112.314 149.041 112.083 148.999 111.684 148.999C110.298 148.999 109.5 149.986 109.038 152.107V158.428H107.106V147.361H108.765L108.954 149.608C109.542 147.949 110.571 147.109 111.915 147.109ZM122.252 155.845C122.252 156.811 122.609 157.126 123.176 157.336L122.735 158.68C121.622 158.554 120.908 158.113 120.572 157.021C119.795 158.176 118.619 158.68 117.275 158.68C115.07 158.68 113.747 157.315 113.747 155.341C113.747 152.968 115.532 151.687 118.619 151.687H120.32V150.868C120.32 149.272 119.543 148.684 118.01 148.684C117.191 148.684 116.162 148.894 115.028 149.272L114.545 147.865C115.91 147.361 117.128 147.109 118.367 147.109C121.034 147.109 122.252 148.474 122.252 150.784V155.845ZM117.716 157.231C118.85 157.231 119.69 156.664 120.32 155.509V152.968H118.871C116.834 152.968 115.805 153.724 115.805 155.236C115.805 156.538 116.456 157.231 117.716 157.231ZM131.071 156.601L131.806 157.924C131.071 158.428 130.273 158.68 129.328 158.68C127.459 158.68 126.346 157.588 126.346 155.53V148.852H124.414V147.361H126.346V144.862L128.278 144.631V147.361H130.903L130.693 148.852H128.278V155.446C128.278 156.559 128.635 157.084 129.601 157.084C130.084 157.084 130.525 156.937 131.071 156.601ZM141.96 152.569C141.96 152.947 141.939 153.304 141.918 153.556H134.862C135.051 156.118 136.248 157.105 137.844 157.105C138.936 157.105 139.755 156.811 140.721 156.139L141.561 157.294C140.469 158.155 139.23 158.68 137.697 158.68C134.61 158.68 132.804 156.517 132.804 153.01C132.804 149.566 134.547 147.109 137.403 147.109C140.385 147.109 141.96 149.188 141.96 152.569ZM140.049 152.128V152.002C140.049 149.839 139.188 148.642 137.445 148.642C135.975 148.642 135.009 149.671 134.862 152.128H140.049ZM151.784 142.678L153.716 142.909V158.428H152.015L151.826 156.895C151.112 158.008 149.999 158.68 148.634 158.68C145.946 158.68 144.455 156.391 144.455 152.947C144.455 149.566 146.093 147.109 148.802 147.109C150.104 147.109 151.049 147.697 151.784 148.474V142.678ZM149.054 157.147C150.293 157.147 151.049 156.538 151.784 155.509V150.091C151.091 149.209 150.314 148.642 149.222 148.642C147.563 148.642 146.534 150.028 146.534 152.905C146.534 155.824 147.458 157.147 149.054 157.147ZM175.101 143.959L176.298 158.428H174.366L173.862 151.897C173.673 149.629 173.526 147.193 173.505 145.996L170.376 156.79H168.507L165.21 145.975C165.21 147.676 165.105 149.923 164.937 152.044L164.454 158.428H162.564L163.761 143.959H166.449L169.494 154.48L172.392 143.959H175.101ZM188.226 152.569C188.226 152.947 188.205 153.304 188.184 153.556H181.128C181.317 156.118 182.514 157.105 184.11 157.105C185.202 157.105 186.021 156.811 186.987 156.139L187.827 157.294C186.735 158.155 185.496 158.68 183.963 158.68C180.876 158.68 179.07 156.517 179.07 153.01C179.07 149.566 180.813 147.109 183.669 147.109C186.651 147.109 188.226 149.188 188.226 152.569ZM186.315 152.128V152.002C186.315 149.839 185.454 148.642 183.711 148.642C182.241 148.642 181.275 149.671 181.128 152.128H186.315ZM194.417 147.109C195.971 147.109 197.126 147.571 198.176 148.369L197.357 149.587C196.37 148.957 195.509 148.642 194.48 148.642C193.22 148.642 192.443 149.209 192.443 150.091C192.443 150.994 193.031 151.414 194.816 151.876C197.147 152.464 198.491 153.388 198.491 155.32C198.491 157.63 196.37 158.68 194.123 158.68C192.254 158.68 190.91 158.071 189.944 157.231L190.973 156.055C191.855 156.727 192.884 157.126 194.081 157.126C195.53 157.126 196.454 156.496 196.454 155.446C196.454 154.354 195.908 153.934 193.766 153.367C191.372 152.737 190.427 151.708 190.427 150.154C190.427 148.39 192.128 147.109 194.417 147.109ZM204.22 147.109C205.774 147.109 206.929 147.571 207.979 148.369L207.16 149.587C206.173 148.957 205.312 148.642 204.283 148.642C203.023 148.642 202.246 149.209 202.246 150.091C202.246 150.994 202.834 151.414 204.619 151.876C206.95 152.464 208.294 153.388 208.294 155.32C208.294 157.63 206.173 158.68 203.926 158.68C202.057 158.68 200.713 158.071 199.747 157.231L200.776 156.055C201.658 156.727 202.687 157.126 203.884 157.126C205.333 157.126 206.257 156.496 206.257 155.446C206.257 154.354 205.711 153.934 203.569 153.367C201.175 152.737 200.23 151.708 200.23 150.154C200.23 148.39 201.931 147.109 204.22 147.109ZM218.474 155.845C218.474 156.811 218.831 157.126 219.398 157.336L218.957 158.68C217.844 158.554 217.13 158.113 216.794 157.021C216.017 158.176 214.841 158.68 213.497 158.68C211.292 158.68 209.969 157.315 209.969 155.341C209.969 152.968 211.754 151.687 214.841 151.687H216.542V150.868C216.542 149.272 215.765 148.684 214.232 148.684C213.413 148.684 212.384 148.894 211.25 149.272L210.767 147.865C212.132 147.361 213.35 147.109 214.589 147.109C217.256 147.109 218.474 148.474 218.474 150.784V155.845ZM213.938 157.231C215.072 157.231 215.912 156.664 216.542 155.509V152.968H215.093C213.056 152.968 212.027 153.724 212.027 155.236C212.027 156.538 212.678 157.231 213.938 157.231ZM230.8 146.122L231.367 147.865C230.443 148.159 229.393 148.201 228.133 148.201C229.435 148.789 230.086 149.713 230.086 150.994C230.086 153.178 228.511 154.753 225.865 154.753C225.361 154.753 224.92 154.69 224.458 154.543C224.143 154.774 223.912 155.173 223.912 155.572C223.912 156.076 224.227 156.475 225.361 156.475H227.125C229.393 156.475 230.905 157.777 230.905 159.541C230.905 161.683 229.141 162.901 225.718 162.901C222.106 162.901 220.972 161.788 220.972 159.541H222.715C222.715 160.801 223.282 161.389 225.718 161.389C228.112 161.389 228.952 160.78 228.952 159.667C228.952 158.617 228.112 158.092 226.726 158.092H224.983C223.009 158.092 222.127 157.105 222.127 155.992C222.127 155.278 222.547 154.564 223.345 154.039C222.064 153.367 221.476 152.401 221.476 150.973C221.476 148.705 223.303 147.109 225.739 147.109C228.49 147.172 229.498 146.71 230.8 146.122ZM225.739 148.495C224.248 148.495 223.45 149.524 223.45 150.973C223.45 152.443 224.269 153.472 225.781 153.472C227.293 153.472 228.112 152.548 228.112 150.952C228.112 149.335 227.314 148.495 225.739 148.495ZM241.505 152.569C241.505 152.947 241.484 153.304 241.463 153.556H234.407C234.596 156.118 235.793 157.105 237.389 157.105C238.481 157.105 239.3 156.811 240.266 156.139L241.106 157.294C240.014 158.155 238.775 158.68 237.242 158.68C234.155 158.68 232.349 156.517 232.349 153.01C232.349 149.566 234.092 147.109 236.948 147.109C239.93 147.109 241.505 149.188 241.505 152.569ZM239.594 152.128V152.002C239.594 149.839 238.733 148.642 236.99 148.642C235.52 148.642 234.554 149.671 234.407 152.128H239.594Z" fill="white"/>
<circle cx="150" cy="77.2625" r="45.291" fill="white"/>
<path fill-rule="evenodd" clip-rule="evenodd" d="M176.439 60.5806L143.407 99.6375L137.878 99.2689L123.561 79.0431L130.817 73.7216L141.072 88.1886L169.323 54.8872L176.439 60.5806Z" fill="black"/>
</svg>
