<svg width="301" height="210" viewBox="0 0 301 210" fill="none" xmlns="http://www.w3.org/2000/svg">
<rect width="300" height="210" transform="translate(0.75)" fill="#121517"/>
<rect x="20.3457" y="62.9634" width="260.809" height="84.0728" rx="3.5" fill="black" stroke="white"/>
<path d="M42.4625 92.9126L41.7605 90.1226H37.8545L37.1525 92.9126H34.3985L38.2325 80.4566H41.4545L45.2705 92.9126H42.4625ZM38.3405 88.1606H41.2565L39.7985 82.4186L38.3405 88.1606ZM48.7434 93.2006C47.1954 93.2006 46.2774 92.2646 46.2774 90.6086V79.5746L48.8334 79.2866V90.5366C48.8334 90.9506 48.9954 91.1666 49.3554 91.1666C49.5534 91.1666 49.7154 91.1306 49.8594 91.0586L50.3814 92.8766C49.9674 93.0566 49.3914 93.2006 48.7434 93.2006ZM59.5818 87.9266C59.5818 88.2506 59.5458 88.6466 59.5278 88.9166H53.5698C53.7498 90.7526 54.6138 91.2926 55.8378 91.2926C56.6478 91.2926 57.3318 91.0406 58.1598 90.4646L59.2218 91.9046C58.2858 92.6606 57.0978 93.2006 55.6038 93.2006C52.5438 93.2006 50.9418 91.1846 50.9418 88.1966C50.9418 85.3166 52.4898 83.0846 55.2798 83.0846C57.9798 83.0846 59.5818 84.8846 59.5818 87.9266ZM57.0438 87.3146V87.2066C57.0438 85.7666 56.5578 84.8306 55.3338 84.8306C54.3258 84.8306 53.7138 85.4966 53.5698 87.3146H57.0438ZM66.399 83.1026C66.741 83.1026 67.029 83.1566 67.353 83.2466L66.921 85.7126C66.633 85.6406 66.399 85.5866 66.075 85.5866C64.905 85.5866 64.365 86.4506 64.023 87.9986V92.9126H61.467V83.3726H63.681L63.915 85.2266C64.365 83.8946 65.283 83.1026 66.399 83.1026ZM73.7442 90.8246L74.6262 92.4626C73.9242 92.9486 72.9882 93.2006 72.1422 93.2006C70.1622 93.1826 69.1542 92.0486 69.1542 89.9246V85.1726H67.7322V83.3726H69.1542V81.2846L71.7102 80.9786V83.3726H73.9062L73.6542 85.1726H71.7102V89.8706C71.7102 90.8066 72.0162 91.1666 72.6642 91.1666C73.0062 91.1666 73.3482 91.0586 73.7442 90.8246Z" fill="white"/>
<path d="M38.9525 110.755C42.1205 110.755 45.1625 111.745 45.1625 116.893C45.1625 121.951 42.0125 123.157 39.3305 123.157H36.3605V110.755H38.9525ZM39.3305 112.123H38.0705V121.807H39.4565C41.4005 121.807 43.3445 120.979 43.3445 116.893C43.3445 112.699 41.3105 112.123 39.3305 112.123ZM48.6645 109.117C49.3665 109.117 49.8345 109.603 49.8345 110.251C49.8345 110.881 49.3665 111.367 48.6645 111.367C47.9805 111.367 47.5125 110.881 47.5125 110.251C47.5125 109.603 47.9805 109.117 48.6645 109.117ZM49.5105 113.671V123.157H47.8545V113.671H49.5105ZM55.5086 113.455C56.8406 113.455 57.8306 113.851 58.7306 114.535L58.0286 115.579C57.1826 115.039 56.4446 114.769 55.5626 114.769C54.4826 114.769 53.8166 115.255 53.8166 116.011C53.8166 116.785 54.3206 117.145 55.8506 117.541C57.8486 118.045 59.0006 118.837 59.0006 120.493C59.0006 122.473 57.1826 123.373 55.2566 123.373C53.6546 123.373 52.5026 122.851 51.6746 122.131L52.5566 121.123C53.3126 121.699 54.1946 122.041 55.2206 122.041C56.4626 122.041 57.2546 121.501 57.2546 120.601C57.2546 119.665 56.7866 119.305 54.9506 118.819C52.8986 118.279 52.0886 117.397 52.0886 116.065C52.0886 114.553 53.5466 113.455 55.5086 113.455ZM65.693 113.455C68.213 113.455 69.203 115.417 69.203 118.405C69.203 121.285 67.925 123.373 65.477 123.373C64.451 123.373 63.605 123.031 62.993 122.293V126.793L61.337 126.991V113.671H62.759L62.885 114.949C63.587 113.977 64.613 113.455 65.693 113.455ZM65.081 122.023C66.593 122.023 67.421 120.889 67.421 118.405C67.421 115.939 66.701 114.769 65.279 114.769C64.271 114.769 63.497 115.489 62.993 116.245V120.871C63.479 121.609 64.217 122.023 65.081 122.023ZM73.9145 123.373C72.7085 123.373 71.9345 122.635 71.9345 121.285V109.855L73.5905 109.657V121.249C73.5905 121.753 73.7525 122.005 74.1845 122.005C74.4185 122.005 74.6165 121.969 74.7965 121.897L75.2285 123.049C74.8685 123.247 74.4005 123.373 73.9145 123.373ZM83.6879 120.943C83.6879 121.771 83.9939 122.041 84.4799 122.221L84.1019 123.373C83.1479 123.265 82.5359 122.887 82.2479 121.951C81.5819 122.941 80.5739 123.373 79.4219 123.373C77.5319 123.373 76.3979 122.203 76.3979 120.511C76.3979 118.477 77.9279 117.379 80.5739 117.379H82.0319V116.677C82.0319 115.309 81.3659 114.805 80.0519 114.805C79.3499 114.805 78.4679 114.985 77.4959 115.309L77.0819 114.103C78.2519 113.671 79.2959 113.455 80.3579 113.455C82.6439 113.455 83.6879 114.625 83.6879 116.605V120.943ZM79.7999 122.131C80.7719 122.131 81.4919 121.645 82.0319 120.655V118.477H80.7899C79.0439 118.477 78.1619 119.125 78.1619 120.421C78.1619 121.537 78.7199 122.131 79.7999 122.131ZM93.8791 113.671L90.7111 123.211C90.0451 125.227 88.9291 126.703 86.3011 126.991L86.1211 125.695C88.0471 125.371 88.5871 124.633 89.1271 123.157H88.5691L85.3831 113.671H87.1471L89.6851 121.951L92.1691 113.671H93.8791ZM106.926 120.943C106.926 121.771 107.232 122.041 107.718 122.221L107.34 123.373C106.386 123.265 105.774 122.887 105.486 121.951C104.82 122.941 103.812 123.373 102.66 123.373C100.77 123.373 99.6362 122.203 99.6362 120.511C99.6362 118.477 101.166 117.379 103.812 117.379H105.27V116.677C105.27 115.309 104.604 114.805 103.29 114.805C102.588 114.805 101.706 114.985 100.734 115.309L100.32 114.103C101.49 113.671 102.534 113.455 103.596 113.455C105.882 113.455 106.926 114.625 106.926 116.605V120.943ZM103.038 122.131C104.01 122.131 104.73 121.645 105.27 120.655V118.477H104.028C102.282 118.477 101.4 119.125 101.4 120.421C101.4 121.537 101.958 122.131 103.038 122.131ZM125.927 113.671L123.767 123.157H121.517L119.861 115.165L118.151 123.157H115.955L113.741 113.671H115.397L117.107 122.005L118.979 113.671H120.833L122.615 122.005L124.343 113.671H125.927ZM134.383 120.943C134.383 121.771 134.689 122.041 135.175 122.221L134.797 123.373C133.843 123.265 133.231 122.887 132.943 121.951C132.277 122.941 131.269 123.373 130.117 123.373C128.227 123.373 127.093 122.203 127.093 120.511C127.093 118.477 128.623 117.379 131.269 117.379H132.727V116.677C132.727 115.309 132.061 114.805 130.747 114.805C130.045 114.805 129.163 114.985 128.191 115.309L127.777 114.103C128.947 113.671 129.991 113.455 131.053 113.455C133.339 113.455 134.383 114.625 134.383 116.605V120.943ZM130.495 122.131C131.467 122.131 132.187 121.645 132.727 120.655V118.477H131.485C129.739 118.477 128.857 119.125 128.857 120.421C128.857 121.537 129.415 122.131 130.495 122.131ZM141.906 113.455C142.212 113.455 142.554 113.491 142.842 113.563L142.536 115.183C142.248 115.111 142.05 115.075 141.708 115.075C140.52 115.075 139.836 115.921 139.44 117.739V123.157H137.784V113.671H139.206L139.368 115.597C139.872 114.175 140.754 113.455 141.906 113.455ZM149.192 113.455C150.938 113.455 151.946 114.553 151.946 116.353V123.157H150.29V116.587C150.29 115.165 149.714 114.751 148.796 114.751C147.734 114.751 147.014 115.417 146.384 116.425V123.157H144.728V113.671H146.15L146.294 115.075C146.942 114.103 147.95 113.455 149.192 113.455ZM156.084 109.117C156.786 109.117 157.254 109.603 157.254 110.251C157.254 110.881 156.786 111.367 156.084 111.367C155.4 111.367 154.932 110.881 154.932 110.251C154.932 109.603 155.4 109.117 156.084 109.117ZM156.93 113.671V123.157H155.274V113.671H156.93ZM164.819 113.455C166.565 113.455 167.573 114.553 167.573 116.353V123.157H165.917V116.587C165.917 115.165 165.341 114.751 164.423 114.751C163.361 114.751 162.641 115.417 162.011 116.425V123.157H160.355V113.671H161.777L161.921 115.075C162.569 114.103 163.577 113.455 164.819 113.455ZM178.065 112.609L178.551 114.103C177.759 114.355 176.859 114.391 175.779 114.391C176.895 114.895 177.453 115.687 177.453 116.785C177.453 118.657 176.103 120.007 173.835 120.007C173.403 120.007 173.025 119.953 172.629 119.827C172.359 120.025 172.161 120.367 172.161 120.709C172.161 121.141 172.431 121.483 173.403 121.483H174.915C176.859 121.483 178.155 122.599 178.155 124.111C178.155 125.947 176.643 126.991 173.709 126.991C170.613 126.991 169.641 126.037 169.641 124.111H171.135C171.135 125.191 171.621 125.695 173.709 125.695C175.761 125.695 176.481 125.173 176.481 124.219C176.481 123.319 175.761 122.869 174.573 122.869H173.079C171.387 122.869 170.631 122.023 170.631 121.069C170.631 120.457 170.991 119.845 171.675 119.395C170.577 118.819 170.073 117.991 170.073 116.767C170.073 114.823 171.639 113.455 173.727 113.455C176.085 113.509 176.949 113.113 178.065 112.609ZM173.727 114.643C172.449 114.643 171.765 115.525 171.765 116.767C171.765 118.027 172.467 118.909 173.763 118.909C175.059 118.909 175.761 118.117 175.761 116.749C175.761 115.363 175.077 114.643 173.727 114.643ZM185.827 109.117C186.529 109.117 186.997 109.603 186.997 110.251C186.997 110.881 186.529 111.367 185.827 111.367C185.143 111.367 184.675 110.881 184.675 110.251C184.675 109.603 185.143 109.117 185.827 109.117ZM186.673 113.671V123.157H185.017V113.671H186.673ZM194.561 113.455C196.307 113.455 197.315 114.553 197.315 116.353V123.157H195.659V116.587C195.659 115.165 195.083 114.751 194.165 114.751C193.103 114.751 192.383 115.417 191.753 116.425V123.157H190.097V113.671H191.519L191.663 115.075C192.311 114.103 193.319 113.455 194.561 113.455ZM202.534 123.373C201.328 123.373 200.554 122.635 200.554 121.285V109.855L202.21 109.657V121.249C202.21 121.753 202.372 122.005 202.804 122.005C203.038 122.005 203.236 121.969 203.416 121.897L203.848 123.049C203.488 123.247 203.02 123.373 202.534 123.373ZM206.727 109.117C207.429 109.117 207.897 109.603 207.897 110.251C207.897 110.881 207.429 111.367 206.727 111.367C206.043 111.367 205.575 110.881 205.575 110.251C205.575 109.603 206.043 109.117 206.727 109.117ZM207.573 113.671V123.157H205.917V113.671H207.573ZM215.461 113.455C217.207 113.455 218.215 114.553 218.215 116.353V123.157H216.559V116.587C216.559 115.165 215.983 114.751 215.065 114.751C214.003 114.751 213.283 115.417 212.653 116.425V123.157H210.997V113.671H212.419L212.563 115.075C213.211 114.103 214.219 113.455 215.461 113.455ZM228.708 118.135C228.708 118.459 228.69 118.765 228.672 118.981H222.624C222.786 121.177 223.812 122.023 225.18 122.023C226.116 122.023 226.818 121.771 227.646 121.195L228.366 122.185C227.43 122.923 226.368 123.373 225.054 123.373C222.408 123.373 220.86 121.519 220.86 118.513C220.86 115.561 222.354 113.455 224.802 113.455C227.358 113.455 228.708 115.237 228.708 118.135ZM227.07 117.757V117.649C227.07 115.795 226.332 114.769 224.838 114.769C223.578 114.769 222.75 115.651 222.624 117.757H227.07ZM231.872 120.871C232.592 120.871 233.132 121.429 233.132 122.113C233.132 122.815 232.592 123.373 231.872 123.373C231.17 123.373 230.63 122.815 230.63 122.113C230.63 121.429 231.17 120.871 231.872 120.871Z" fill="white"/>
<path fill-rule="evenodd" clip-rule="evenodd" d="M257.007 75.9126H258.301L267.921 93.9467L267.274 95.0352H248.004L247.357 93.9467L257.007 75.9126ZM257.654 77.7954L249.24 93.5643H266.038L257.654 77.7954ZM258.573 92.0933V90.6223H256.734V92.0933H258.573ZM256.734 89.1514V83.2675H258.573V89.1514H256.734Z" fill="white"/>
</svg>
