<svg width="301" height="210" viewBox="0 0 301 210" fill="none" xmlns="http://www.w3.org/2000/svg">
<rect width="300" height="210" transform="translate(0.75)" fill="#121517"/>
<rect x="20.3457" y="62.9634" width="260.809" height="84.0728" rx="3.5" fill="black" stroke="white"/>
<path d="M42.4625 92.9126L41.7605 90.1226H37.8545L37.1525 92.9126H34.3985L38.2325 80.4566H41.4545L45.2705 92.9126H42.4625ZM38.3405 88.1606H41.2565L39.7985 82.4186L38.3405 88.1606ZM48.7434 93.2006C47.1954 93.2006 46.2774 92.2646 46.2774 90.6086V79.5746L48.8334 79.2866V90.5366C48.8334 90.9506 48.9954 91.1666 49.3554 91.1666C49.5534 91.1666 49.7154 91.1306 49.8594 91.0586L50.3814 92.8766C49.9674 93.0566 49.3914 93.2006 48.7434 93.2006ZM59.5818 87.9266C59.5818 88.2506 59.5458 88.6466 59.5278 88.9166H53.5698C53.7498 90.7526 54.6138 91.2926 55.8378 91.2926C56.6478 91.2926 57.3318 91.0406 58.1598 90.4646L59.2218 91.9046C58.2858 92.6606 57.0978 93.2006 55.6038 93.2006C52.5438 93.2006 50.9418 91.1846 50.9418 88.1966C50.9418 85.3166 52.4898 83.0846 55.2798 83.0846C57.9798 83.0846 59.5818 84.8846 59.5818 87.9266ZM57.0438 87.3146V87.2066C57.0438 85.7666 56.5578 84.8306 55.3338 84.8306C54.3258 84.8306 53.7138 85.4966 53.5698 87.3146H57.0438ZM66.399 83.1026C66.741 83.1026 67.029 83.1566 67.353 83.2466L66.921 85.7126C66.633 85.6406 66.399 85.5866 66.075 85.5866C64.905 85.5866 64.365 86.4506 64.023 87.9986V92.9126H61.467V83.3726H63.681L63.915 85.2266C64.365 83.8946 65.283 83.1026 66.399 83.1026ZM73.7442 90.8246L74.6262 92.4626C73.9242 92.9486 72.9882 93.2006 72.1422 93.2006C70.1622 93.1826 69.1542 92.0486 69.1542 89.9246V85.1726H67.7322V83.3726H69.1542V81.2846L71.7102 80.9786V83.3726H73.9062L73.6542 85.1726H71.7102V89.8706C71.7102 90.8066 72.0162 91.1666 72.6642 91.1666C73.0062 91.1666 73.3482 91.0586 73.7442 90.8246Z" fill="white"/>
<path d="M38.9525 110.755C42.1205 110.755 45.1625 111.745 45.1625 116.893C45.1625 121.951 42.0125 123.157 39.3305 123.157H36.3605V110.755H38.9525ZM39.3305 112.123H38.0705V121.807H39.4565C41.4005 121.807 43.3445 120.979 43.3445 116.893C43.3445 112.699 41.3105 112.123 39.3305 112.123ZM48.6645 109.117C49.3665 109.117 49.8345 109.603 49.8345 110.251C49.8345 110.881 49.3665 111.367 48.6645 111.367C47.9805 111.367 47.5125 110.881 47.5125 110.251C47.5125 109.603 47.9805 109.117 48.6645 109.117ZM49.5105 113.671V123.157H47.8545V113.671H49.5105ZM55.5086 113.455C56.8406 113.455 57.8306 113.851 58.7306 114.535L58.0286 115.579C57.1826 115.039 56.4446 114.769 55.5626 114.769C54.4826 114.769 53.8166 115.255 53.8166 116.011C53.8166 116.785 54.3206 117.145 55.8506 117.541C57.8486 118.045 59.0006 118.837 59.0006 120.493C59.0006 122.473 57.1826 123.373 55.2566 123.373C53.6546 123.373 52.5026 122.851 51.6746 122.131L52.5566 121.123C53.3126 121.699 54.1946 122.041 55.2206 122.041C56.4626 122.041 57.2546 121.501 57.2546 120.601C57.2546 119.665 56.7866 119.305 54.9506 118.819C52.8986 118.279 52.0886 117.397 52.0886 116.065C52.0886 114.553 53.5466 113.455 55.5086 113.455ZM65.693 113.455C68.213 113.455 69.203 115.417 69.203 118.405C69.203 121.285 67.925 123.373 65.477 123.373C64.451 123.373 63.605 123.031 62.993 122.293V126.793L61.337 126.991V113.671H62.759L62.885 114.949C63.587 113.977 64.613 113.455 65.693 113.455ZM65.081 122.023C66.593 122.023 67.421 120.889 67.421 118.405C67.421 115.939 66.701 114.769 65.279 114.769C64.271 114.769 63.497 115.489 62.993 116.245V120.871C63.479 121.609 64.217 122.023 65.081 122.023ZM73.9145 123.373C72.7085 123.373 71.9345 122.635 71.9345 121.285V109.855L73.5905 109.657V121.249C73.5905 121.753 73.7525 122.005 74.1845 122.005C74.4185 122.005 74.6165 121.969 74.7965 121.897L75.2285 123.049C74.8685 123.247 74.4005 123.373 73.9145 123.373ZM83.6879 120.943C83.6879 121.771 83.9939 122.041 84.4799 122.221L84.1019 123.373C83.1479 123.265 82.5359 122.887 82.2479 121.951C81.5819 122.941 80.5739 123.373 79.4219 123.373C77.5319 123.373 76.3979 122.203 76.3979 120.511C76.3979 118.477 77.9279 117.379 80.5739 117.379H82.0319V116.677C82.0319 115.309 81.3659 114.805 80.0519 114.805C79.3499 114.805 78.4679 114.985 77.4959 115.309L77.0819 114.103C78.2519 113.671 79.2959 113.455 80.3579 113.455C82.6439 113.455 83.6879 114.625 83.6879 116.605V120.943ZM79.7999 122.131C80.7719 122.131 81.4919 121.645 82.0319 120.655V118.477H80.7899C79.0439 118.477 78.1619 119.125 78.1619 120.421C78.1619 121.537 78.7199 122.131 79.7999 122.131ZM93.8791 113.671L90.7111 123.211C90.0451 125.227 88.9291 126.703 86.3011 126.991L86.1211 125.695C88.0471 125.371 88.5871 124.633 89.1271 123.157H88.5691L85.3831 113.671H87.1471L89.6851 121.951L92.1691 113.671H93.8791ZM106.926 120.943C106.926 121.771 107.232 122.041 107.718 122.221L107.34 123.373C106.386 123.265 105.774 122.887 105.486 121.951C104.82 122.941 103.812 123.373 102.66 123.373C100.77 123.373 99.6362 122.203 99.6362 120.511C99.6362 118.477 101.166 117.379 103.812 117.379H105.27V116.677C105.27 115.309 104.604 114.805 103.29 114.805C102.588 114.805 101.706 114.985 100.734 115.309L100.32 114.103C101.49 113.671 102.534 113.455 103.596 113.455C105.882 113.455 106.926 114.625 106.926 116.605V120.943ZM103.038 122.131C104.01 122.131 104.73 121.645 105.27 120.655V118.477H104.028C102.282 118.477 101.4 119.125 101.4 120.421C101.4 121.537 101.958 122.131 103.038 122.131ZM114.791 113.455C116.537 113.455 117.545 114.553 117.545 116.353V123.157H115.889V116.587C115.889 115.165 115.313 114.751 114.395 114.751C113.333 114.751 112.613 115.417 111.983 116.425V123.157H110.327V113.671H111.749L111.893 115.075C112.541 114.103 113.549 113.455 114.791 113.455ZM132.028 120.943C132.028 121.771 132.334 122.041 132.82 122.221L132.442 123.373C131.488 123.265 130.876 122.887 130.588 121.951C129.922 122.941 128.914 123.373 127.762 123.373C125.872 123.373 124.738 122.203 124.738 120.511C124.738 118.477 126.268 117.379 128.914 117.379H130.372V116.677C130.372 115.309 129.706 114.805 128.392 114.805C127.69 114.805 126.808 114.985 125.836 115.309L125.422 114.103C126.592 113.671 127.636 113.455 128.698 113.455C130.984 113.455 132.028 114.625 132.028 116.605V120.943ZM128.14 122.131C129.112 122.131 129.832 121.645 130.372 120.655V118.477H129.13C127.384 118.477 126.502 119.125 126.502 120.421C126.502 121.537 127.06 122.131 128.14 122.131ZM137.319 123.373C136.113 123.373 135.339 122.635 135.339 121.285V109.855L136.995 109.657V121.249C136.995 121.753 137.157 122.005 137.589 122.005C137.823 122.005 138.021 121.969 138.201 121.897L138.633 123.049C138.273 123.247 137.805 123.373 137.319 123.373ZM147.69 118.135C147.69 118.459 147.672 118.765 147.654 118.981H141.606C141.768 121.177 142.794 122.023 144.162 122.023C145.098 122.023 145.8 121.771 146.628 121.195L147.348 122.185C146.412 122.923 145.35 123.373 144.036 123.373C141.39 123.373 139.842 121.519 139.842 118.513C139.842 115.561 141.336 113.455 143.784 113.455C146.34 113.455 147.69 115.237 147.69 118.135ZM146.052 117.757V117.649C146.052 115.795 145.314 114.769 143.82 114.769C142.56 114.769 141.732 115.651 141.606 117.757H146.052ZM154.545 113.455C154.851 113.455 155.193 113.491 155.481 113.563L155.175 115.183C154.887 115.111 154.689 115.075 154.347 115.075C153.159 115.075 152.475 115.921 152.079 117.739V123.157H150.423V113.671H151.845L152.007 115.597C152.511 114.175 153.393 113.455 154.545 113.455ZM161.7 121.591L162.33 122.725C161.7 123.157 161.016 123.373 160.206 123.373C158.604 123.373 157.65 122.437 157.65 120.673V114.949H155.994V113.671H157.65V111.529L159.306 111.331V113.671H161.556L161.376 114.949H159.306V120.601C159.306 121.555 159.612 122.005 160.44 122.005C160.854 122.005 161.232 121.879 161.7 121.591ZM169.62 109.117C170.322 109.117 170.79 109.603 170.79 110.251C170.79 110.881 170.322 111.367 169.62 111.367C168.936 111.367 168.468 110.881 168.468 110.251C168.468 109.603 168.936 109.117 169.62 109.117ZM170.466 113.671V123.157H168.81V113.671H170.466ZM178.354 113.455C180.1 113.455 181.108 114.553 181.108 116.353V123.157H179.452V116.587C179.452 115.165 178.876 114.751 177.958 114.751C176.896 114.751 176.176 115.417 175.546 116.425V123.157H173.89V113.671H175.312L175.456 115.075C176.104 114.103 177.112 113.455 178.354 113.455ZM186.327 123.373C185.121 123.373 184.347 122.635 184.347 121.285V109.855L186.003 109.657V121.249C186.003 121.753 186.165 122.005 186.597 122.005C186.831 122.005 187.029 121.969 187.209 121.897L187.641 123.049C187.281 123.247 186.813 123.373 186.327 123.373ZM190.52 109.117C191.222 109.117 191.69 109.603 191.69 110.251C191.69 110.881 191.222 111.367 190.52 111.367C189.836 111.367 189.368 110.881 189.368 110.251C189.368 109.603 189.836 109.117 190.52 109.117ZM191.366 113.671V123.157H189.71V113.671H191.366ZM199.254 113.455C201 113.455 202.008 114.553 202.008 116.353V123.157H200.352V116.587C200.352 115.165 199.776 114.751 198.858 114.751C197.796 114.751 197.076 115.417 196.446 116.425V123.157H194.79V113.671H196.212L196.356 115.075C197.004 114.103 198.012 113.455 199.254 113.455ZM212.501 118.135C212.501 118.459 212.483 118.765 212.465 118.981H206.417C206.579 121.177 207.605 122.023 208.973 122.023C209.909 122.023 210.611 121.771 211.439 121.195L212.159 122.185C211.223 122.923 210.161 123.373 208.847 123.373C206.201 123.373 204.653 121.519 204.653 118.513C204.653 115.561 206.147 113.455 208.595 113.455C211.151 113.455 212.501 115.237 212.501 118.135ZM210.863 117.757V117.649C210.863 115.795 210.125 114.769 208.631 114.769C207.371 114.769 206.543 115.651 206.417 117.757H210.863ZM215.665 120.871C216.385 120.871 216.925 121.429 216.925 122.113C216.925 122.815 216.385 123.373 215.665 123.373C214.963 123.373 214.423 122.815 214.423 122.113C214.423 121.429 214.963 120.871 215.665 120.871Z" fill="white"/>
<path fill-rule="evenodd" clip-rule="evenodd" d="M257.007 75.9126H258.301L267.921 93.9467L267.274 95.0352H248.004L247.357 93.9467L257.007 75.9126ZM257.654 77.7954L249.24 93.5643H266.038L257.654 77.7954ZM258.573 92.0933V90.6223H256.734V92.0933H258.573ZM256.734 89.1514V83.2675H258.573V89.1514H256.734Z" fill="white"/>
</svg>
