<svg width="300" height="210" viewBox="0 0 300 210" fill="none" xmlns="http://www.w3.org/2000/svg">
<rect width="300" height="210" fill="#121517"/>
<path d="M99.0377 119.367C99.0377 121.167 97.8497 122.517 95.7797 122.859V125.505H94.3397V122.913C92.7917 122.841 91.5857 122.283 90.6497 121.365L91.6217 120.303C92.4317 121.095 93.4217 121.563 94.7177 121.563C96.1397 121.563 97.3097 120.861 97.3097 119.421C97.3097 118.251 96.7517 117.729 94.6997 117.099C92.3597 116.379 91.1357 115.479 91.1357 113.625C91.1357 111.933 92.4497 110.727 94.3397 110.511V107.883H95.7797V110.529C96.9857 110.655 97.8497 111.123 98.6597 111.879L97.7057 112.923C96.8777 112.149 96.0137 111.843 95.0057 111.843C93.7997 111.843 92.8457 112.401 92.8457 113.553C92.8457 114.561 93.3137 115.047 95.4737 115.713C97.3997 116.307 99.0377 117.063 99.0377 119.367ZM105.225 110.673V122.715H103.569V112.437L100.761 114.147L100.041 112.977L103.767 110.673H105.225ZM109.34 120.429C110.06 120.429 110.6 120.987 110.6 121.671C110.6 122.067 110.51 122.427 110.276 122.949L109.07 125.703H107.882L108.602 122.715C108.296 122.481 108.098 122.103 108.098 121.671C108.098 120.987 108.638 120.429 109.34 120.429ZM116.544 110.493C119.244 110.493 120.576 112.725 120.576 116.703C120.576 120.699 119.244 122.931 116.544 122.931C113.844 122.931 112.512 120.699 112.512 116.703C112.512 112.707 113.844 110.493 116.544 110.493ZM116.544 111.807C115.032 111.807 114.24 113.175 114.24 116.703C114.24 120.249 115.032 121.617 116.544 121.617C118.038 121.617 118.848 120.249 118.848 116.703C118.848 113.175 118.038 111.807 116.544 111.807ZM126.581 110.493C129.281 110.493 130.613 112.725 130.613 116.703C130.613 120.699 129.281 122.931 126.581 122.931C123.881 122.931 122.549 120.699 122.549 116.703C122.549 112.707 123.881 110.493 126.581 110.493ZM126.581 111.807C125.069 111.807 124.277 113.175 124.277 116.703C124.277 120.249 125.069 121.617 126.581 121.617C128.075 121.617 128.885 120.249 128.885 116.703C128.885 113.175 128.075 111.807 126.581 111.807ZM136.618 110.493C139.318 110.493 140.65 112.725 140.65 116.703C140.65 120.699 139.318 122.931 136.618 122.931C133.918 122.931 132.586 120.699 132.586 116.703C132.586 112.707 133.918 110.493 136.618 110.493ZM136.618 111.807C135.106 111.807 134.314 113.175 134.314 116.703C134.314 120.249 135.106 121.617 136.618 121.617C138.112 121.617 138.922 120.249 138.922 116.703C138.922 113.175 138.112 111.807 136.618 111.807ZM143.775 120.429C144.495 120.429 145.035 120.987 145.035 121.671C145.035 122.373 144.495 122.931 143.775 122.931C143.073 122.931 142.533 122.373 142.533 121.671C142.533 120.987 143.073 120.429 143.775 120.429ZM149.609 110.673V122.715H147.953V112.437L145.145 114.147L144.425 112.977L148.151 110.673H149.609ZM155.687 110.493C157.901 110.493 159.305 111.915 159.305 113.787C159.305 116.037 157.865 117.639 154.175 121.329H159.593L159.395 122.715H152.285V121.401C156.533 116.973 157.577 115.821 157.577 113.859C157.577 112.599 156.767 111.861 155.597 111.861C154.589 111.861 153.923 112.257 153.149 113.175L152.033 112.311C153.005 111.105 154.175 110.493 155.687 110.493ZM164.545 110.493C166.849 110.493 168.109 111.933 168.109 113.553C168.109 115.083 167.119 116.001 165.769 116.325C167.281 116.469 168.487 117.423 168.487 119.241C168.487 121.347 166.885 122.931 164.383 122.931C162.943 122.931 161.683 122.409 160.765 121.311L161.755 120.393C162.547 121.221 163.357 121.581 164.329 121.581C165.841 121.581 166.759 120.645 166.759 119.223C166.759 117.567 165.823 117.063 164.365 117.063H163.465L163.663 115.785H164.275C165.463 115.785 166.453 115.065 166.453 113.661C166.453 112.527 165.661 111.825 164.455 111.825C163.501 111.825 162.781 112.149 161.971 112.905L161.107 111.915C162.133 110.961 163.249 110.493 164.545 110.493Z" fill="white"/>
<path d="M92.9997 95.4532C92.0617 95.4532 91.4597 94.8792 91.4597 93.8292V84.9392L92.7477 84.7852V93.8012C92.7477 94.1932 92.8737 94.3892 93.2097 94.3892C93.3917 94.3892 93.5457 94.3612 93.6857 94.3052L94.0217 95.2012C93.7417 95.3552 93.3777 95.4532 92.9997 95.4532ZM100.601 93.5632C100.601 94.2072 100.839 94.4172 101.217 94.5572L100.923 95.4532C100.181 95.3692 99.7053 95.0752 99.4813 94.3472C98.9633 95.1172 98.1793 95.4532 97.2833 95.4532C95.8133 95.4532 94.9313 94.5432 94.9313 93.2272C94.9313 91.6452 96.1213 90.7912 98.1793 90.7912H99.3133V90.2452C99.3133 89.1812 98.7953 88.7892 97.7733 88.7892C97.2273 88.7892 96.5413 88.9292 95.7853 89.1812L95.4633 88.2432C96.3733 87.9072 97.1853 87.7392 98.0113 87.7392C99.7893 87.7392 100.601 88.6492 100.601 90.1892V93.5632ZM97.5773 94.4872C98.3333 94.4872 98.8933 94.1092 99.3133 93.3392V91.6452H98.3473C96.9893 91.6452 96.3033 92.1492 96.3033 93.1572C96.3033 94.0252 96.7373 94.4872 97.5773 94.4872ZM106.621 87.7392C108.287 87.7392 109.365 89.1252 109.365 91.5892C109.365 93.8992 108.259 95.4532 106.467 95.4532C105.655 95.4532 105.011 95.0892 104.507 94.4732L104.381 95.2852H103.247V84.9392L104.535 84.7852V88.8312C105.039 88.1452 105.725 87.7392 106.621 87.7392ZM106.159 94.4312C107.237 94.4312 107.979 93.6052 107.979 91.5892C107.979 89.4892 107.293 88.7612 106.257 88.7612C105.445 88.7612 104.913 89.3212 104.535 89.9092V93.4372C104.913 94.0252 105.501 94.4312 106.159 94.4312ZM117.131 91.3792C117.131 91.6312 117.117 91.8692 117.103 92.0372H112.399C112.525 93.7452 113.323 94.4032 114.387 94.4032C115.115 94.4032 115.661 94.2072 116.305 93.7592L116.865 94.5292C116.137 95.1032 115.311 95.4532 114.289 95.4532C112.231 95.4532 111.027 94.0112 111.027 91.6732C111.027 89.3772 112.189 87.7392 114.093 87.7392C116.081 87.7392 117.131 89.1252 117.131 91.3792ZM115.857 91.0852V91.0012C115.857 89.5592 115.283 88.7612 114.121 88.7612C113.141 88.7612 112.497 89.4472 112.399 91.0852H115.857ZM120.726 95.4532C119.788 95.4532 119.186 94.8792 119.186 93.8292V84.9392L120.474 84.7852V93.8012C120.474 94.1932 120.6 94.3892 120.936 94.3892C121.118 94.3892 121.272 94.3612 121.412 94.3052L121.748 95.2012C121.468 95.3552 121.104 95.4532 120.726 95.4532Z" fill="white"/>
</svg>
