<svg width="301" height="210" viewBox="0 0 301 210" fill="none" xmlns="http://www.w3.org/2000/svg">
<rect width="300" height="210" transform="translate(0.5)" fill="#121517"/>
<path d="M120.6 111.216C119.394 111.216 118.62 110.478 118.62 109.128V97.698L120.276 97.5V109.092C120.276 109.596 120.438 109.848 120.87 109.848C121.104 109.848 121.302 109.812 121.482 109.74L121.914 110.892C121.554 111.09 121.086 111.216 120.6 111.216ZM124.793 96.96C125.495 96.96 125.963 97.446 125.963 98.094C125.963 98.724 125.495 99.21 124.793 99.21C124.109 99.21 123.641 98.724 123.641 98.094C123.641 97.446 124.109 96.96 124.793 96.96ZM125.639 101.514V111H123.983V101.514H125.639ZM133.528 101.298C135.274 101.298 136.282 102.396 136.282 104.196V111H134.626V104.43C134.626 103.008 134.05 102.594 133.132 102.594C132.07 102.594 131.35 103.26 130.72 104.268V111H129.064V101.514H130.486L130.63 102.918C131.278 101.946 132.286 101.298 133.528 101.298ZM141.266 97.5V111H139.61V97.698L141.266 97.5ZM146.72 101.514L143.228 105.708L147.116 111H145.136L141.374 105.816L144.866 101.514H146.72ZM157.743 109.434L158.373 110.568C157.743 111 157.059 111.216 156.249 111.216C154.647 111.216 153.693 110.28 153.693 108.516V102.792H152.037V101.514H153.693V99.372L155.349 99.174V101.514H157.599L157.419 102.792H155.349V108.444C155.349 109.398 155.655 109.848 156.483 109.848C156.897 109.848 157.275 109.722 157.743 109.434ZM167.077 105.978C167.077 106.302 167.059 106.608 167.041 106.824H160.993C161.155 109.02 162.181 109.866 163.549 109.866C164.485 109.866 165.187 109.614 166.015 109.038L166.735 110.028C165.799 110.766 164.737 111.216 163.423 111.216C160.777 111.216 159.229 109.362 159.229 106.356C159.229 103.404 160.723 101.298 163.171 101.298C165.727 101.298 167.077 103.08 167.077 105.978ZM165.439 105.6V105.492C165.439 103.638 164.701 102.612 163.207 102.612C161.947 102.612 161.119 103.494 160.993 105.6H165.439ZM173.27 105.924L176.564 111H174.566L172.244 106.986L169.886 111H168.014L171.326 105.996L168.392 101.514H170.336L172.316 104.988L174.314 101.514H176.186L173.27 105.924ZM182.528 109.434L183.158 110.568C182.528 111 181.844 111.216 181.034 111.216C179.432 111.216 178.478 110.28 178.478 108.516V102.792H176.822V101.514H178.478V99.372L180.134 99.174V101.514H182.384L182.204 102.792H180.134V108.444C180.134 109.398 180.44 109.848 181.268 109.848C181.682 109.848 182.06 109.722 182.528 109.434Z" fill="#4DCCFA"/>
<path d="M117 112.8H183.158V113.7H117V112.8Z" fill="#4DCCFA"/>
</svg>
