<svg width="300" height="210" viewBox="0 0 300 210" fill="none" xmlns="http://www.w3.org/2000/svg">
<rect width="300" height="210" fill="#121517"/>
<rect x="36.0452" y="19.6587" width="227.91" height="172.683" rx="3.5" fill="black" stroke="#6A6A6A"/>
<line x1="35.5452" y1="62.2148" x2="264.455" y2="62.2148" stroke="#6A6A6A"/>
<line x1="35.5452" y1="106.236" x2="264.455" y2="106.236" stroke="#6A6A6A"/>
<line x1="35.5452" y1="150.257" x2="264.455" y2="150.257" stroke="#6A6A6A"/>
<rect x="48.1548" y="25.6401" width="28" height="28" rx="3" stroke="white" stroke-width="2"/>
<rect x="47.1548" y="68.7812" width="30" height="30" rx="4" fill="#4DCCFA"/>
<path fill-rule="evenodd" clip-rule="evenodd" d="M73.6637 77.6607L61.544 91.991L59.5153 91.8558L54.2622 84.4347L56.9247 82.4823L60.6874 87.7903L71.0525 75.5718L73.6637 77.6607Z" fill="black"/>
<path d="M94.4516 32.6711C98.1476 32.6711 101.697 33.8261 101.697 39.8321C101.697 45.7331 98.0216 47.1401 94.8926 47.1401H91.4276V32.6711H94.4516ZM94.8926 34.2671H93.4226V45.5651H95.0396C97.3076 45.5651 99.5756 44.5991 99.5756 39.8321C99.5756 34.9391 97.2026 34.2671 94.8926 34.2671ZM108.995 35.8211C112.145 35.8211 113.909 38.0891 113.909 41.5961C113.909 45.0191 112.103 47.3921 108.974 47.3921C105.824 47.3921 104.039 45.1241 104.039 41.6171C104.039 38.1941 105.845 35.8211 108.995 35.8211ZM108.995 37.3751C107.147 37.3751 106.118 38.7191 106.118 41.6171C106.118 44.4941 107.126 45.8381 108.974 45.8381C110.822 45.8381 111.83 44.4941 111.83 41.5961C111.83 38.7191 110.822 37.3751 108.995 37.3751ZM125.459 34.8341L126.026 36.5771C125.102 36.8711 124.052 36.9131 122.792 36.9131C124.094 37.5011 124.745 38.4251 124.745 39.7061C124.745 41.8901 123.17 43.4651 120.524 43.4651C120.02 43.4651 119.579 43.4021 119.117 43.2551C118.802 43.4861 118.571 43.8851 118.571 44.2841C118.571 44.7881 118.886 45.1871 120.02 45.1871H121.784C124.052 45.1871 125.564 46.4891 125.564 48.2531C125.564 50.3951 123.8 51.6131 120.377 51.6131C116.765 51.6131 115.631 50.5001 115.631 48.2531H117.374C117.374 49.5131 117.941 50.1011 120.377 50.1011C122.771 50.1011 123.611 49.4921 123.611 48.3791C123.611 47.3291 122.771 46.8041 121.385 46.8041H119.642C117.668 46.8041 116.786 45.8171 116.786 44.7041C116.786 43.9901 117.206 43.2761 118.004 42.7511C116.723 42.0791 116.135 41.1131 116.135 39.6851C116.135 37.4171 117.962 35.8211 120.398 35.8211C123.149 35.8841 124.157 35.4221 125.459 34.8341ZM120.398 37.2071C118.907 37.2071 118.109 38.2361 118.109 39.6851C118.109 41.1551 118.928 42.1841 120.44 42.1841C121.952 42.1841 122.771 41.2601 122.771 39.6641C122.771 38.0471 121.973 37.2071 120.398 37.2071Z" fill="white"/>
<path d="M96.4886 76.5602C98.3156 76.5602 99.3446 77.0642 100.5 77.9882L99.4076 79.2692C98.5046 78.5342 97.6226 78.1982 96.6146 78.1982C94.4306 78.1982 92.6036 79.6682 92.6036 84.0362C92.6036 88.2152 94.3466 89.8532 96.5936 89.8532C97.9586 89.8532 98.8406 89.2442 99.6596 88.6352L100.668 89.9162C99.8906 90.7352 98.4836 91.5333 96.5306 91.5333C93.0236 91.5333 90.4826 88.9082 90.4826 84.0362C90.4826 79.1432 93.2126 76.5602 96.4886 76.5602ZM110.529 88.6982C110.529 89.6642 110.886 89.9792 111.453 90.1892L111.012 91.5333C109.899 91.4073 109.185 90.9662 108.849 89.8742C108.072 91.0292 106.896 91.5333 105.552 91.5333C103.347 91.5333 102.024 90.1682 102.024 88.1943C102.024 85.8212 103.809 84.5402 106.896 84.5402H108.597V83.7212C108.597 82.1252 107.82 81.5372 106.287 81.5372C105.468 81.5372 104.439 81.7472 103.305 82.1252L102.822 80.7182C104.187 80.2142 105.405 79.9622 106.644 79.9622C109.311 79.9622 110.529 81.3272 110.529 83.6372V88.6982ZM105.993 90.0842C107.127 90.0842 107.967 89.5172 108.597 88.3622V85.8212H107.148C105.111 85.8212 104.082 86.5772 104.082 88.0892C104.082 89.3912 104.733 90.0842 105.993 90.0842ZM119.347 89.4542L120.082 90.7772C119.347 91.2812 118.549 91.5333 117.604 91.5333C115.735 91.5333 114.622 90.4412 114.622 88.3832V81.7052H112.69V80.2142H114.622V77.7152L116.554 77.4842V80.2142H119.179L118.969 81.7052H116.554V88.2992C116.554 89.4122 116.911 89.9372 117.877 89.9372C118.36 89.9372 118.801 89.7902 119.347 89.4542Z" fill="white"/>
<path d="M99.1136 120.953L98.8826 122.549H93.4226V127.484H98.1476V129.059H93.4226V135.422H91.4276V120.953H99.1136ZM103.219 119.042C104.038 119.042 104.584 119.609 104.584 120.365C104.584 121.1 104.038 121.667 103.219 121.667C102.421 121.667 101.875 121.1 101.875 120.365C101.875 119.609 102.421 119.042 103.219 119.042ZM104.206 124.355V135.422H102.274V124.355H104.206ZM111.204 124.103C112.758 124.103 113.913 124.565 114.963 125.363L114.144 126.581C113.157 125.951 112.296 125.636 111.267 125.636C110.007 125.636 109.23 126.203 109.23 127.085C109.23 127.988 109.818 128.408 111.603 128.87C113.934 129.458 115.278 130.382 115.278 132.314C115.278 134.624 113.157 135.674 110.91 135.674C109.041 135.674 107.697 135.065 106.731 134.225L107.76 133.049C108.642 133.721 109.671 134.12 110.868 134.12C112.317 134.12 113.241 133.49 113.241 132.44C113.241 131.348 112.695 130.928 110.553 130.361C108.159 129.731 107.214 128.702 107.214 127.148C107.214 125.384 108.915 124.103 111.204 124.103ZM123.211 124.103C125.227 124.103 126.424 125.405 126.424 127.484V135.422H124.492V127.757C124.492 126.098 123.778 125.615 122.728 125.615C121.531 125.615 120.67 126.392 119.935 127.547V135.422H118.003V119.924L119.935 119.714V125.888C120.733 124.796 121.825 124.103 123.211 124.103Z" fill="white"/>
<path d="M93.4226 164.622V177.348H99.3656L99.1346 179.091H91.4276V164.622H93.4226ZM102.727 162.711C103.546 162.711 104.092 163.278 104.092 164.034C104.092 164.769 103.546 165.336 102.727 165.336C101.929 165.336 101.383 164.769 101.383 164.034C101.383 163.278 101.929 162.711 102.727 162.711ZM103.714 168.024V179.091H101.782V168.024H103.714ZM114.197 168.024V169.494L108.422 177.474H114.26L114.029 179.091H106.238V177.642L111.992 169.662H106.721V168.024H114.197ZM124.33 176.508C124.33 177.474 124.687 177.789 125.254 177.999L124.813 179.343C123.7 179.217 122.986 178.776 122.65 177.684C121.873 178.839 120.697 179.343 119.353 179.343C117.148 179.343 115.825 177.978 115.825 176.004C115.825 173.631 117.61 172.35 120.697 172.35H122.398V171.531C122.398 169.935 121.621 169.347 120.088 169.347C119.269 169.347 118.24 169.557 117.106 169.935L116.623 168.528C117.988 168.024 119.206 167.772 120.445 167.772C123.112 167.772 124.33 169.137 124.33 171.447V176.508ZM119.794 177.894C120.928 177.894 121.768 177.327 122.398 176.172V173.631H120.949C118.912 173.631 117.883 174.387 117.883 175.899C117.883 177.201 118.534 177.894 119.794 177.894ZM133.107 167.772C133.464 167.772 133.863 167.814 134.199 167.898L133.842 169.788C133.506 169.704 133.275 169.662 132.876 169.662C131.49 169.662 130.692 170.649 130.23 172.77V179.091H128.298V168.024H129.957L130.146 170.271C130.734 168.612 131.763 167.772 133.107 167.772ZM142.83 163.341L144.762 163.572V179.091H143.061L142.872 177.558C142.158 178.671 141.045 179.343 139.68 179.343C136.992 179.343 135.501 177.054 135.501 173.61C135.501 170.229 137.139 167.772 139.848 167.772C141.15 167.772 142.095 168.36 142.83 169.137V163.341ZM140.1 177.81C141.339 177.81 142.095 177.201 142.83 176.172V170.754C142.137 169.872 141.36 169.305 140.268 169.305C138.609 169.305 137.58 170.691 137.58 173.568C137.58 176.487 138.504 177.81 140.1 177.81Z" fill="white"/>
<rect x="48.1548" y="113.922" width="28" height="28" rx="3" stroke="white" stroke-width="2"/>
<rect x="48.1548" y="157.591" width="28" height="28" rx="3" stroke="white" stroke-width="2"/>
<rect x="36.5452" y="62.7012" width="226.91" height="43.0347" fill="#4DCCFA" fill-opacity="0.2" stroke="#4DCCFA" stroke-width="2"/>
</svg>
