<svg width="300" height="210" viewBox="0 0 300 210" fill="none" xmlns="http://www.w3.org/2000/svg">
<rect width="300" height="210" fill="#121517"/>
<rect x="118.389" y="69.4658" width="51.2212" height="31.0684" rx="4" fill="#F33666"/>
<rect x="118.389" y="109.466" width="51.2212" height="31.0684" rx="4" fill="#4DCCFA"/>
<path d="M139.971 80.681C143.121 80.681 144.885 82.949 144.885 86.456C144.885 89.879 143.079 92.252 139.95 92.252C136.8 92.252 135.015 89.984 135.015 86.477C135.015 83.054 136.821 80.681 139.971 80.681ZM139.971 82.235C138.123 82.235 137.094 83.579 137.094 86.477C137.094 89.354 138.102 90.698 139.95 90.698C141.798 90.698 142.806 89.354 142.806 86.456C142.806 83.579 141.798 82.235 139.971 82.235ZM152.886 80.681C153.243 80.681 153.642 80.723 153.978 80.807L153.621 82.697C153.285 82.613 153.054 82.571 152.655 82.571C151.269 82.571 150.471 83.558 150.009 85.679V92H148.077V80.933H149.736L149.925 83.18C150.513 81.521 151.542 80.681 152.886 80.681Z" fill="#121517"/>
<path d="M135.311 129.417C135.311 130.383 135.668 130.698 136.235 130.908L135.794 132.252C134.681 132.126 133.967 131.685 133.631 130.593C132.854 131.748 131.678 132.252 130.334 132.252C128.129 132.252 126.806 130.887 126.806 128.913C126.806 126.54 128.591 125.259 131.678 125.259H133.379V124.44C133.379 122.844 132.602 122.256 131.069 122.256C130.25 122.256 129.221 122.466 128.087 122.844L127.604 121.437C128.969 120.933 130.187 120.681 131.426 120.681C134.093 120.681 135.311 122.046 135.311 124.356V129.417ZM130.775 130.803C131.909 130.803 132.749 130.236 133.379 129.081V126.54H131.93C129.893 126.54 128.864 127.296 128.864 128.808C128.864 130.11 129.515 130.803 130.775 130.803ZM144.487 120.681C146.524 120.681 147.7 121.962 147.7 124.062V132H145.768V124.335C145.768 122.676 145.096 122.193 144.025 122.193C142.786 122.193 141.946 122.97 141.211 124.146V132H139.279V120.933H140.938L141.106 122.571C141.862 121.437 143.038 120.681 144.487 120.681ZM158.219 116.25L160.151 116.481V132H158.45L158.261 130.467C157.547 131.58 156.434 132.252 155.069 132.252C152.381 132.252 150.89 129.963 150.89 126.519C150.89 123.138 152.528 120.681 155.237 120.681C156.539 120.681 157.484 121.269 158.219 122.046V116.25ZM155.489 130.719C156.728 130.719 157.484 130.11 158.219 129.081V123.663C157.526 122.781 156.749 122.214 155.657 122.214C153.998 122.214 152.969 123.6 152.969 126.477C152.969 129.396 153.893 130.719 155.489 130.719Z" fill="#121517"/>
</svg>
