<svg width="301" height="210" viewBox="0 0 301 210" fill="none" xmlns="http://www.w3.org/2000/svg">
<rect width="300" height="210" transform="translate(0.5)" fill="#121517"/>
<path d="M62.063 78.113H60.467L59.879 82.628H61.286V84.077H59.669L59.228 87.5H57.59L58.031 84.077H54.797L54.356 87.5H52.718L53.159 84.077H51.815V82.628H53.369L53.957 78.113H52.592V76.643H54.146L54.566 73.451H56.204L55.784 76.643H59.018L59.438 73.451H61.076L60.656 76.643H62.063V78.113ZM58.241 82.628L58.829 78.113H55.595L55.007 82.628H58.241ZM81.7658 73.031L82.9628 87.5H81.0308L80.5268 80.969C80.3378 78.701 80.1908 76.265 80.1698 75.068L77.0408 85.862H75.1718L71.8748 75.047C71.8748 76.748 71.7698 78.995 71.6018 81.116L71.1188 87.5H69.2288L70.4258 73.031H73.1138L76.1588 83.552L79.0568 73.031H81.7658ZM94.0906 84.917C94.0906 85.883 94.4476 86.198 95.0146 86.408L94.5736 87.752C93.4606 87.626 92.7466 87.185 92.4106 86.093C91.6336 87.248 90.4576 87.752 89.1136 87.752C86.9086 87.752 85.5856 86.387 85.5856 84.413C85.5856 82.04 87.3706 80.759 90.4576 80.759H92.1586V79.94C92.1586 78.344 91.3816 77.756 89.8486 77.756C89.0296 77.756 88.0006 77.966 86.8666 78.344L86.3836 76.937C87.7486 76.433 88.9666 76.181 90.2056 76.181C92.8726 76.181 94.0906 77.546 94.0906 79.856V84.917ZM89.5546 86.303C90.6886 86.303 91.5286 85.736 92.1586 84.581V82.04H90.7096C88.6726 82.04 87.6436 82.796 87.6436 84.308C87.6436 85.61 88.2946 86.303 89.5546 86.303ZM102.867 76.181C103.224 76.181 103.623 76.223 103.959 76.307L103.602 78.197C103.266 78.113 103.035 78.071 102.636 78.071C101.25 78.071 100.452 79.058 99.9905 81.179V87.5H98.0585V76.433H99.7175L99.9065 78.68C100.494 77.021 101.523 76.181 102.867 76.181ZM108.091 71.75V87.5H106.159V71.981L108.091 71.75ZM114.454 76.433L110.38 81.326L114.916 87.5H112.606L108.217 81.452L112.291 76.433H114.454ZM123.336 71.75L125.268 71.981V87.5H123.567L123.378 85.967C122.664 87.08 121.551 87.752 120.186 87.752C117.498 87.752 116.007 85.463 116.007 82.019C116.007 78.638 117.645 76.181 120.354 76.181C121.656 76.181 122.601 76.769 123.336 77.546V71.75ZM120.606 86.219C121.845 86.219 122.601 85.61 123.336 84.581V79.163C122.643 78.281 121.866 77.714 120.774 77.714C119.115 77.714 118.086 79.1 118.086 81.977C118.086 84.896 119.01 86.219 120.606 86.219ZM133.409 76.181C136.559 76.181 138.323 78.449 138.323 81.956C138.323 85.379 136.517 87.752 133.388 87.752C130.238 87.752 128.453 85.484 128.453 81.977C128.453 78.554 130.259 76.181 133.409 76.181ZM133.409 77.735C131.561 77.735 130.532 79.079 130.532 81.977C130.532 84.854 131.54 86.198 133.388 86.198C135.236 86.198 136.244 84.854 136.244 81.956C136.244 79.079 135.236 77.735 133.409 77.735ZM153.951 76.433L151.431 87.5H148.806L146.874 78.176L144.879 87.5H142.317L139.734 76.433H141.666L143.661 86.156L145.845 76.433H148.008L150.087 86.156L152.103 76.433H153.951ZM161.57 76.181C163.607 76.181 164.783 77.462 164.783 79.562V87.5H162.851V79.835C162.851 78.176 162.179 77.693 161.108 77.693C159.869 77.693 159.029 78.47 158.294 79.646V87.5H156.362V76.433H158.021L158.189 78.071C158.945 76.937 160.121 76.181 161.57 76.181ZM59.906 134.5L56.936 129.244H55.01V134.5H53.3V122.098H56.558C59.654 122.098 61.274 123.286 61.274 125.608C61.274 127.354 60.374 128.398 58.592 128.938L61.94 134.5H59.906ZM55.01 127.93H56.738C58.466 127.93 59.456 127.282 59.456 125.608C59.456 124.06 58.574 123.43 56.54 123.43H55.01V127.93ZM71.0967 129.478C71.0967 129.802 71.0787 130.108 71.0607 130.324H65.0127C65.1747 132.52 66.2007 133.366 67.5687 133.366C68.5047 133.366 69.2067 133.114 70.0347 132.538L70.7547 133.528C69.8187 134.266 68.7567 134.716 67.4427 134.716C64.7967 134.716 63.2487 132.862 63.2487 129.856C63.2487 126.904 64.7427 124.798 67.1907 124.798C69.7467 124.798 71.0967 126.58 71.0967 129.478ZM69.4587 129.1V128.992C69.4587 127.138 68.7207 126.112 67.2267 126.112C65.9667 126.112 65.1387 126.994 65.0127 129.1H69.4587ZM78.2931 124.798C80.0391 124.798 81.0471 125.896 81.0471 127.696V134.5H79.3911V127.93C79.3911 126.508 78.8151 126.094 77.8971 126.094C76.8351 126.094 76.1151 126.76 75.4851 127.768V134.5H73.8291V125.014H75.2511L75.3951 126.418C76.0431 125.446 77.0511 124.798 78.2931 124.798ZM90.064 121L91.72 121.198V134.5H90.262L90.1 133.186C89.488 134.14 88.534 134.716 87.364 134.716C85.06 134.716 83.782 132.754 83.782 129.802C83.782 126.904 85.186 124.798 87.508 124.798C88.624 124.798 89.434 125.302 90.064 125.968V121ZM87.724 133.402C88.786 133.402 89.434 132.88 90.064 131.998V127.354C89.47 126.598 88.804 126.112 87.868 126.112C86.446 126.112 85.564 127.3 85.564 129.766C85.564 132.268 86.356 133.402 87.724 133.402ZM102.298 129.478C102.298 129.802 102.28 130.108 102.262 130.324H96.2138C96.3758 132.52 97.4018 133.366 98.7698 133.366C99.7058 133.366 100.408 133.114 101.236 132.538L101.956 133.528C101.02 134.266 99.9578 134.716 98.6438 134.716C95.9978 134.716 94.4498 132.862 94.4498 129.856C94.4498 126.904 95.9438 124.798 98.3918 124.798C100.948 124.798 102.298 126.58 102.298 129.478ZM100.66 129.1V128.992C100.66 127.138 99.9218 126.112 98.4278 126.112C97.1678 126.112 96.3398 126.994 96.2138 129.1H100.66ZM109.152 124.798C109.458 124.798 109.8 124.834 110.088 124.906L109.782 126.526C109.494 126.454 109.296 126.418 108.954 126.418C107.766 126.418 107.082 127.264 106.686 129.082V134.5H105.03V125.014H106.452L106.614 126.94C107.118 125.518 108 124.798 109.152 124.798ZM114.372 124.798C115.704 124.798 116.694 125.194 117.594 125.878L116.892 126.922C116.046 126.382 115.308 126.112 114.426 126.112C113.346 126.112 112.68 126.598 112.68 127.354C112.68 128.128 113.184 128.488 114.714 128.884C116.712 129.388 117.864 130.18 117.864 131.836C117.864 133.816 116.046 134.716 114.12 134.716C112.518 134.716 111.366 134.194 110.538 133.474L111.42 132.466C112.176 133.042 113.058 133.384 114.084 133.384C115.326 133.384 116.118 132.844 116.118 131.944C116.118 131.008 115.65 130.648 113.814 130.162C111.762 129.622 110.952 128.74 110.952 127.408C110.952 125.896 112.41 124.798 114.372 124.798ZM134.486 124.798C136.034 124.798 137.06 125.914 137.06 127.696V134.5H135.404V127.93C135.404 126.508 134.792 126.094 134.072 126.094C133.046 126.094 132.488 126.76 131.84 127.768V134.5H130.184V127.93C130.184 126.508 129.572 126.094 128.852 126.094C127.826 126.094 127.25 126.76 126.62 127.768V134.5H124.964V125.014H126.386L126.53 126.4C127.16 125.446 128.024 124.798 129.266 124.798C130.436 124.798 131.3 125.428 131.66 126.508C132.344 125.482 133.208 124.798 134.486 124.798ZM146.788 132.286C146.788 133.114 147.094 133.384 147.58 133.564L147.202 134.716C146.248 134.608 145.636 134.23 145.348 133.294C144.682 134.284 143.674 134.716 142.522 134.716C140.632 134.716 139.498 133.546 139.498 131.854C139.498 129.82 141.028 128.722 143.674 128.722H145.132V128.02C145.132 126.652 144.466 126.148 143.152 126.148C142.45 126.148 141.568 126.328 140.596 126.652L140.182 125.446C141.352 125.014 142.396 124.798 143.458 124.798C145.744 124.798 146.788 125.968 146.788 127.948V132.286ZM142.9 133.474C143.872 133.474 144.592 132.988 145.132 131.998V129.82H143.89C142.144 129.82 141.262 130.468 141.262 131.764C141.262 132.88 141.82 133.474 142.9 133.474ZM154.311 124.798C154.617 124.798 154.959 124.834 155.247 124.906L154.941 126.526C154.653 126.454 154.455 126.418 154.113 126.418C152.925 126.418 152.241 127.264 151.845 129.082V134.5H150.189V125.014H151.611L151.773 126.94C152.277 125.518 153.159 124.798 154.311 124.798ZM158.788 121V134.5H157.132V121.198L158.788 121ZM164.242 125.014L160.75 129.208L164.638 134.5H162.658L158.896 129.316L162.388 125.014H164.242ZM171.855 121L173.511 121.198V134.5H172.053L171.891 133.186C171.279 134.14 170.325 134.716 169.155 134.716C166.851 134.716 165.573 132.754 165.573 129.802C165.573 126.904 166.977 124.798 169.299 124.798C170.415 124.798 171.225 125.302 171.855 125.968V121ZM169.515 133.402C170.577 133.402 171.225 132.88 171.855 131.998V127.354C171.261 126.598 170.595 126.112 169.659 126.112C168.237 126.112 167.355 127.3 167.355 129.766C167.355 132.268 168.147 133.402 169.515 133.402ZM180.489 124.798C183.189 124.798 184.701 126.742 184.701 129.748C184.701 132.682 183.153 134.716 180.471 134.716C177.771 134.716 176.241 132.772 176.241 129.766C176.241 126.832 177.789 124.798 180.489 124.798ZM180.489 126.13C178.905 126.13 178.023 127.282 178.023 129.766C178.023 132.232 178.887 133.384 180.471 133.384C182.055 133.384 182.919 132.232 182.919 129.748C182.919 127.282 182.055 126.13 180.489 126.13ZM198.097 125.014L195.937 134.5H193.687L192.031 126.508L190.321 134.5H188.125L185.911 125.014H187.567L189.277 133.348L191.149 125.014H193.003L194.785 133.348L196.513 125.014H198.097ZM204.627 124.798C206.373 124.798 207.381 125.896 207.381 127.696V134.5H205.725V127.93C205.725 126.508 205.149 126.094 204.231 126.094C203.169 126.094 202.449 126.76 201.819 127.768V134.5H200.163V125.014H201.585L201.729 126.418C202.377 125.446 203.385 124.798 204.627 124.798ZM219.632 132.934L220.262 134.068C219.632 134.5 218.948 134.716 218.138 134.716C216.536 134.716 215.582 133.78 215.582 132.016V126.292H213.926V125.014H215.582V122.872L217.238 122.674V125.014H219.488L219.308 126.292H217.238V131.944C217.238 132.898 217.544 133.348 218.372 133.348C218.786 133.348 219.164 133.222 219.632 132.934ZM228.966 129.478C228.966 129.802 228.948 130.108 228.93 130.324H222.882C223.044 132.52 224.07 133.366 225.438 133.366C226.374 133.366 227.076 133.114 227.904 132.538L228.624 133.528C227.688 134.266 226.626 134.716 225.312 134.716C222.666 134.716 221.118 132.862 221.118 129.856C221.118 126.904 222.612 124.798 225.06 124.798C227.616 124.798 228.966 126.58 228.966 129.478ZM227.328 129.1V128.992C227.328 127.138 226.59 126.112 225.096 126.112C223.836 126.112 223.008 126.994 222.882 129.1H227.328ZM235.159 129.424L238.453 134.5H236.455L234.133 130.486L231.775 134.5H229.903L233.215 129.496L230.281 125.014H232.225L234.205 128.488L236.203 125.014H238.075L235.159 129.424ZM244.417 132.934L245.047 134.068C244.417 134.5 243.733 134.716 242.923 134.716C241.321 134.716 240.367 133.78 240.367 132.016V126.292H238.711V125.014H240.367V122.872L242.023 122.674V125.014H244.273L244.093 126.292H242.023V131.944C242.023 132.898 242.329 133.348 243.157 133.348C243.571 133.348 243.949 133.222 244.417 132.934ZM247.195 132.214C247.915 132.214 248.455 132.772 248.455 133.456C248.455 134.158 247.915 134.716 247.195 134.716C246.493 134.716 245.953 134.158 245.953 133.456C245.953 132.772 246.493 132.214 247.195 132.214Z" fill="white"/>
</svg>
