<svg width="300" height="210" viewBox="0 0 300 210" fill="none" xmlns="http://www.w3.org/2000/svg">
<rect width="300" height="210" fill="#121517"/>
<rect x="63.501" y="79.2778" width="211" height="105" rx="3.5" fill="black" stroke="white"/>
<rect x="64.001" y="117.778" width="210" height="31" fill="#262626"/>
<path d="M83.407 139.778L82.471 136.664H77.773L76.837 139.778H75.109L79.087 127.376H81.247L85.207 139.778H83.407ZM78.187 135.278H82.057L80.131 128.798L78.187 135.278ZM91.3853 130.076C93.9053 130.076 94.8953 132.038 94.8953 135.026C94.8953 137.906 93.6173 139.994 91.1693 139.994C90.1433 139.994 89.2973 139.652 88.6853 138.914V143.414L87.0293 143.612V130.292H88.4513L88.5773 131.57C89.2793 130.598 90.3053 130.076 91.3853 130.076ZM90.7733 138.644C92.2853 138.644 93.1133 137.51 93.1133 135.026C93.1133 132.56 92.3933 131.39 90.9713 131.39C89.9633 131.39 89.1893 132.11 88.6853 132.866V137.492C89.1713 138.23 89.9093 138.644 90.7733 138.644ZM102.073 130.076C104.593 130.076 105.583 132.038 105.583 135.026C105.583 137.906 104.305 139.994 101.857 139.994C100.831 139.994 99.9848 139.652 99.3728 138.914V143.414L97.7168 143.612V130.292H99.1388L99.2648 131.57C99.9668 130.598 100.993 130.076 102.073 130.076ZM101.461 138.644C102.973 138.644 103.801 137.51 103.801 135.026C103.801 132.56 103.081 131.39 101.659 131.39C100.651 131.39 99.8768 132.11 99.3728 132.866V137.492C99.8588 138.23 100.597 138.644 101.461 138.644ZM110.294 139.994C109.088 139.994 108.314 139.256 108.314 137.906V126.476L109.97 126.278V137.87C109.97 138.374 110.132 138.626 110.564 138.626C110.798 138.626 110.996 138.59 111.176 138.518L111.608 139.67C111.248 139.868 110.78 139.994 110.294 139.994ZM120.644 130.292L117.476 139.832C116.81 141.848 115.694 143.324 113.066 143.612L112.886 142.316C114.812 141.992 115.352 141.254 115.892 139.778H115.334L112.148 130.292H113.912L116.45 138.572L118.934 130.292H120.644Z" fill="white"/>
<path d="M83.515 95.3758L83.317 96.7438H78.511V100.794H82.687V102.162H78.511V106.41H83.659V107.778H76.801V95.3758H83.515ZM92.0318 94.2778L93.6878 94.4758V107.778H92.2298L92.0678 106.464C91.4558 107.418 90.5018 107.994 89.3318 107.994C87.0278 107.994 85.7498 106.032 85.7498 103.08C85.7498 100.182 87.1538 98.0758 89.4758 98.0758C90.5918 98.0758 91.4018 98.5798 92.0318 99.2458V94.2778ZM89.6918 106.68C90.7538 106.68 91.4018 106.158 92.0318 105.276V100.632C91.4378 99.8758 90.7718 99.3898 89.8358 99.3898C88.4138 99.3898 87.5318 100.578 87.5318 103.044C87.5318 105.546 88.3238 106.68 89.6918 106.68ZM97.9116 93.7378C98.6136 93.7378 99.0816 94.2238 99.0816 94.8718C99.0816 95.5018 98.6136 95.9878 97.9116 95.9878C97.2276 95.9878 96.7596 95.5018 96.7596 94.8718C96.7596 94.2238 97.2276 93.7378 97.9116 93.7378ZM98.7576 98.2918V107.778H97.1016V98.2918H98.7576ZM106.34 106.212L106.97 107.346C106.34 107.778 105.656 107.994 104.846 107.994C103.244 107.994 102.29 107.058 102.29 105.294V99.5698H100.634V98.2918H102.29V96.1498L103.946 95.9518V98.2918H106.196L106.016 99.5698H103.946V105.222C103.946 106.176 104.252 106.626 105.08 106.626C105.494 106.626 105.872 106.5 106.34 106.212Z" fill="white"/>
<path d="M79.393 159.376C82.561 159.376 85.603 160.366 85.603 165.514C85.603 170.572 82.453 171.778 79.771 171.778H76.801V159.376H79.393ZM79.771 160.744H78.511V170.428H79.897C81.841 170.428 83.785 169.6 83.785 165.514C83.785 161.32 81.751 160.744 79.771 160.744ZM95.459 166.756C95.459 167.08 95.441 167.386 95.423 167.602H89.375C89.537 169.798 90.563 170.644 91.931 170.644C92.867 170.644 93.569 170.392 94.397 169.816L95.117 170.806C94.181 171.544 93.119 171.994 91.805 171.994C89.159 171.994 87.611 170.14 87.611 167.134C87.611 164.182 89.105 162.076 91.553 162.076C94.109 162.076 95.459 163.858 95.459 166.756ZM93.821 166.378V166.27C93.821 164.416 93.083 163.39 91.589 163.39C90.329 163.39 89.501 164.272 89.375 166.378H93.821ZM100.081 171.994C98.8754 171.994 98.1014 171.256 98.1014 169.906V158.476L99.7574 158.278V169.87C99.7574 170.374 99.9194 170.626 100.351 170.626C100.585 170.626 100.783 170.59 100.963 170.518L101.395 171.67C101.035 171.868 100.567 171.994 100.081 171.994ZM110.453 166.756C110.453 167.08 110.435 167.386 110.417 167.602H104.369C104.531 169.798 105.557 170.644 106.925 170.644C107.861 170.644 108.563 170.392 109.391 169.816L110.111 170.806C109.175 171.544 108.113 171.994 106.799 171.994C104.153 171.994 102.605 170.14 102.605 167.134C102.605 164.182 104.099 162.076 106.547 162.076C109.103 162.076 110.453 163.858 110.453 166.756ZM108.815 166.378V166.27C108.815 164.416 108.077 163.39 106.583 163.39C105.323 163.39 104.495 164.272 104.369 166.378H108.815ZM117.344 170.212L117.974 171.346C117.344 171.778 116.66 171.994 115.85 171.994C114.248 171.994 113.294 171.058 113.294 169.294V163.57H111.638V162.292H113.294V160.15L114.95 159.952V162.292H117.2L117.02 163.57H114.95V169.222C114.95 170.176 115.256 170.626 116.084 170.626C116.498 170.626 116.876 170.5 117.344 170.212ZM126.678 166.756C126.678 167.08 126.66 167.386 126.642 167.602H120.594C120.756 169.798 121.782 170.644 123.15 170.644C124.086 170.644 124.788 170.392 125.616 169.816L126.336 170.806C125.4 171.544 124.338 171.994 123.024 171.994C120.378 171.994 118.83 170.14 118.83 167.134C118.83 164.182 120.324 162.076 122.772 162.076C125.328 162.076 126.678 163.858 126.678 166.756ZM125.04 166.378V166.27C125.04 164.416 124.302 163.39 122.808 163.39C121.548 163.39 120.72 164.272 120.594 166.378H125.04Z" fill="white"/>
<rect x="24.4868" y="23.3447" width="102.213" height="44" rx="3" stroke="white" stroke-width="2" stroke-dasharray="5 5"/>
</svg>
