<svg width="301" height="210" viewBox="0 0 301 210" fill="none" xmlns="http://www.w3.org/2000/svg">
<rect width="300" height="210" transform="translate(0.75)" fill="#121517"/>
<rect x="64.251" y="79.2778" width="211" height="105" rx="3.5" fill="black" stroke="white"/>
<rect x="64.751" y="117.778" width="210" height="31" fill="#262626"/>
<path d="M84.157 139.778L83.221 136.664H78.523L77.587 139.778H75.859L79.837 127.376H81.997L85.957 139.778H84.157ZM78.937 135.278H82.807L80.881 128.798L78.937 135.278ZM92.1353 130.076C94.6553 130.076 95.6453 132.038 95.6453 135.026C95.6453 137.906 94.3673 139.994 91.9193 139.994C90.8933 139.994 90.0473 139.652 89.4353 138.914V143.414L87.7793 143.612V130.292H89.2013L89.3273 131.57C90.0293 130.598 91.0553 130.076 92.1353 130.076ZM91.5233 138.644C93.0353 138.644 93.8633 137.51 93.8633 135.026C93.8633 132.56 93.1433 131.39 91.7213 131.39C90.7133 131.39 89.9393 132.11 89.4353 132.866V137.492C89.9213 138.23 90.6593 138.644 91.5233 138.644ZM102.823 130.076C105.343 130.076 106.333 132.038 106.333 135.026C106.333 137.906 105.055 139.994 102.607 139.994C101.581 139.994 100.735 139.652 100.123 138.914V143.414L98.4668 143.612V130.292H99.8888L100.015 131.57C100.717 130.598 101.743 130.076 102.823 130.076ZM102.211 138.644C103.723 138.644 104.551 137.51 104.551 135.026C104.551 132.56 103.831 131.39 102.409 131.39C101.401 131.39 100.627 132.11 100.123 132.866V137.492C100.609 138.23 101.347 138.644 102.211 138.644ZM111.044 139.994C109.838 139.994 109.064 139.256 109.064 137.906V126.476L110.72 126.278V137.87C110.72 138.374 110.882 138.626 111.314 138.626C111.548 138.626 111.746 138.59 111.926 138.518L112.358 139.67C111.998 139.868 111.53 139.994 111.044 139.994ZM121.394 130.292L118.226 139.832C117.56 141.848 116.444 143.324 113.816 143.612L113.636 142.316C115.562 141.992 116.102 141.254 116.642 139.778H116.084L112.898 130.292H114.662L117.2 138.572L119.684 130.292H121.394Z" fill="white"/>
<path d="M84.265 95.3758L84.067 96.7438H79.261V100.794H83.437V102.162H79.261V106.41H84.409V107.778H77.551V95.3758H84.265ZM92.7818 94.2778L94.4378 94.4758V107.778H92.9798L92.8178 106.464C92.2058 107.418 91.2518 107.994 90.0818 107.994C87.7778 107.994 86.4998 106.032 86.4998 103.08C86.4998 100.182 87.9038 98.0758 90.2258 98.0758C91.3418 98.0758 92.1518 98.5798 92.7818 99.2458V94.2778ZM90.4418 106.68C91.5038 106.68 92.1518 106.158 92.7818 105.276V100.632C92.1878 99.8758 91.5218 99.3898 90.5858 99.3898C89.1638 99.3898 88.2818 100.578 88.2818 103.044C88.2818 105.546 89.0738 106.68 90.4418 106.68ZM98.6616 93.7378C99.3636 93.7378 99.8316 94.2238 99.8316 94.8718C99.8316 95.5018 99.3636 95.9878 98.6616 95.9878C97.9776 95.9878 97.5096 95.5018 97.5096 94.8718C97.5096 94.2238 97.9776 93.7378 98.6616 93.7378ZM99.5076 98.2918V107.778H97.8516V98.2918H99.5076ZM107.09 106.212L107.72 107.346C107.09 107.778 106.406 107.994 105.596 107.994C103.994 107.994 103.04 107.058 103.04 105.294V99.5698H101.384V98.2918H103.04V96.1498L104.696 95.9518V98.2918H106.946L106.766 99.5698H104.696V105.222C104.696 106.176 105.002 106.626 105.83 106.626C106.244 106.626 106.622 106.5 107.09 106.212Z" fill="white"/>
<path d="M80.143 159.376C83.311 159.376 86.353 160.366 86.353 165.514C86.353 170.572 83.203 171.778 80.521 171.778H77.551V159.376H80.143ZM80.521 160.744H79.261V170.428H80.647C82.591 170.428 84.535 169.6 84.535 165.514C84.535 161.32 82.501 160.744 80.521 160.744ZM96.209 166.756C96.209 167.08 96.191 167.386 96.173 167.602H90.125C90.287 169.798 91.313 170.644 92.681 170.644C93.617 170.644 94.319 170.392 95.147 169.816L95.867 170.806C94.931 171.544 93.869 171.994 92.555 171.994C89.909 171.994 88.361 170.14 88.361 167.134C88.361 164.182 89.855 162.076 92.303 162.076C94.859 162.076 96.209 163.858 96.209 166.756ZM94.571 166.378V166.27C94.571 164.416 93.833 163.39 92.339 163.39C91.079 163.39 90.251 164.272 90.125 166.378H94.571ZM100.831 171.994C99.6254 171.994 98.8514 171.256 98.8514 169.906V158.476L100.507 158.278V169.87C100.507 170.374 100.669 170.626 101.101 170.626C101.335 170.626 101.533 170.59 101.713 170.518L102.145 171.67C101.785 171.868 101.317 171.994 100.831 171.994ZM111.203 166.756C111.203 167.08 111.185 167.386 111.167 167.602H105.119C105.281 169.798 106.307 170.644 107.675 170.644C108.611 170.644 109.313 170.392 110.141 169.816L110.861 170.806C109.925 171.544 108.863 171.994 107.549 171.994C104.903 171.994 103.355 170.14 103.355 167.134C103.355 164.182 104.849 162.076 107.297 162.076C109.853 162.076 111.203 163.858 111.203 166.756ZM109.565 166.378V166.27C109.565 164.416 108.827 163.39 107.333 163.39C106.073 163.39 105.245 164.272 105.119 166.378H109.565ZM118.094 170.212L118.724 171.346C118.094 171.778 117.41 171.994 116.6 171.994C114.998 171.994 114.044 171.058 114.044 169.294V163.57H112.388V162.292H114.044V160.15L115.7 159.952V162.292H117.95L117.77 163.57H115.7V169.222C115.7 170.176 116.006 170.626 116.834 170.626C117.248 170.626 117.626 170.5 118.094 170.212ZM127.428 166.756C127.428 167.08 127.41 167.386 127.392 167.602H121.344C121.506 169.798 122.532 170.644 123.9 170.644C124.836 170.644 125.538 170.392 126.366 169.816L127.086 170.806C126.15 171.544 125.088 171.994 123.774 171.994C121.128 171.994 119.58 170.14 119.58 167.134C119.58 164.182 121.074 162.076 123.522 162.076C126.078 162.076 127.428 163.858 127.428 166.756ZM125.79 166.378V166.27C125.79 164.416 125.052 163.39 123.558 163.39C122.298 163.39 121.47 164.272 121.344 166.378H125.79Z" fill="white"/>
<rect x="24.7368" y="22.8447" width="118.796" height="45" rx="3.5" fill="black" stroke="white"/>
<path d="M64.0922 37.8757L63.8612 39.4717H58.4012V44.4067H63.1262V45.9817H58.4012V52.3447H56.4062V37.8757H64.0922ZM68.1973 35.9647C69.0163 35.9647 69.5623 36.5317 69.5623 37.2877C69.5623 38.0227 69.0163 38.5897 68.1973 38.5897C67.3993 38.5897 66.8533 38.0227 66.8533 37.2877C66.8533 36.5317 67.3993 35.9647 68.1973 35.9647ZM69.1843 41.2777V52.3447H67.2523V41.2777H69.1843ZM75.3841 52.5967C73.9771 52.5967 73.0741 51.7357 73.0741 50.1607V36.8257L75.0061 36.5947V50.1187C75.0061 50.7067 75.1951 51.0007 75.6991 51.0007C75.9721 51.0007 76.2031 50.9587 76.4131 50.8747L76.9171 52.2187C76.4971 52.4497 75.9511 52.5967 75.3841 52.5967ZM84.1824 50.5177L84.9174 51.8407C84.1824 52.3447 83.3844 52.5967 82.4394 52.5967C80.5704 52.5967 79.4574 51.5047 79.4574 49.4467V42.7687H77.5254V41.2777H79.4574V38.7787L81.3894 38.5477V41.2777H84.0144L83.8044 42.7687H81.3894V49.3627C81.3894 50.4757 81.7464 51.0007 82.7124 51.0007C83.1954 51.0007 83.6364 50.8537 84.1824 50.5177ZM95.0722 46.4857C95.0722 46.8637 95.0512 47.2207 95.0302 47.4727H87.9742C88.1632 50.0347 89.3602 51.0217 90.9562 51.0217C92.0482 51.0217 92.8672 50.7277 93.8332 50.0557L94.6732 51.2107C93.5812 52.0717 92.3422 52.5967 90.8092 52.5967C87.7222 52.5967 85.9162 50.4337 85.9162 46.9267C85.9162 43.4827 87.6592 41.0257 90.5152 41.0257C93.4972 41.0257 95.0722 43.1047 95.0722 46.4857ZM93.1612 46.0447V45.9187C93.1612 43.7557 92.3002 42.5587 90.5572 42.5587C89.0872 42.5587 88.1212 43.5877 87.9742 46.0447H93.1612ZM103.069 41.0257C103.426 41.0257 103.825 41.0677 104.161 41.1517L103.804 43.0417C103.468 42.9577 103.237 42.9157 102.838 42.9157C101.452 42.9157 100.654 43.9027 100.192 46.0237V52.3447H98.2601V41.2777H99.9191L100.108 43.5247C100.696 41.8657 101.725 41.0257 103.069 41.0257ZM109.159 41.0257C110.713 41.0257 111.868 41.4877 112.918 42.2857L112.099 43.5037C111.112 42.8737 110.251 42.5587 109.222 42.5587C107.962 42.5587 107.185 43.1257 107.185 44.0077C107.185 44.9107 107.773 45.3307 109.558 45.7927C111.889 46.3807 113.233 47.3047 113.233 49.2367C113.233 51.5467 111.112 52.5967 108.865 52.5967C106.996 52.5967 105.652 51.9877 104.686 51.1477L105.715 49.9717C106.597 50.6437 107.626 51.0427 108.823 51.0427C110.272 51.0427 111.196 50.4127 111.196 49.3627C111.196 48.2707 110.65 47.8507 108.508 47.2837C106.114 46.6537 105.169 45.6247 105.169 44.0707C105.169 42.3067 106.87 41.0257 109.159 41.0257Z" fill="white"/>
</svg>
