<svg width="300" height="210" viewBox="0 0 300 210" fill="none" xmlns="http://www.w3.org/2000/svg">
<rect width="300" height="210" fill="#121517"/>
<path d="M36.1278 87L32.6628 80.868H30.4158V87H28.4208V72.531H32.2218C35.8338 72.531 37.7238 73.917 37.7238 76.626C37.7238 78.663 36.6738 79.881 34.5948 80.511L38.5008 87H36.1278ZM30.4158 79.335H32.4318C34.4478 79.335 35.6028 78.579 35.6028 76.626C35.6028 74.82 34.5738 74.085 32.2008 74.085H30.4158V79.335ZM48.8426 87L47.7506 83.367H42.2696L41.1776 87H39.1616L43.8026 72.531H46.3226L50.9426 87H48.8426ZM42.7526 81.75H47.2676L45.0206 74.19L42.7526 81.75ZM64.9127 72.531L66.1097 87H64.1777L63.6737 80.469C63.4847 78.201 63.3377 75.765 63.3167 74.568L60.1877 85.362H58.3187L55.0217 74.547C55.0217 76.248 54.9167 78.495 54.7487 80.616L54.2657 87H52.3757L53.5727 72.531H56.2607L59.3057 83.052L62.2037 72.531H64.9127ZM85.3572 72.531V82.359C85.3572 85.236 83.5302 87.252 80.2752 87.252C76.9782 87.252 75.2352 85.236 75.2352 82.359V72.531H77.2302V82.212C77.2302 84.459 78.2172 85.572 80.2752 85.572C82.3542 85.572 83.3412 84.459 83.3412 82.212V72.531H85.3572ZM92.2475 75.681C93.8015 75.681 94.9565 76.143 96.0065 76.941L95.1875 78.159C94.2005 77.529 93.3395 77.214 92.3105 77.214C91.0505 77.214 90.2735 77.781 90.2735 78.663C90.2735 79.566 90.8615 79.986 92.6465 80.448C94.9775 81.036 96.3215 81.96 96.3215 83.892C96.3215 86.202 94.2005 87.252 91.9535 87.252C90.0845 87.252 88.7405 86.643 87.7745 85.803L88.8035 84.627C89.6855 85.299 90.7145 85.698 91.9115 85.698C93.3605 85.698 94.2845 85.068 94.2845 84.018C94.2845 82.926 93.7385 82.506 91.5965 81.939C89.2025 81.309 88.2575 80.28 88.2575 78.726C88.2575 76.962 89.9585 75.681 92.2475 75.681ZM106.502 84.417C106.502 85.383 106.859 85.698 107.426 85.908L106.985 87.252C105.872 87.126 105.158 86.685 104.822 85.593C104.045 86.748 102.869 87.252 101.525 87.252C99.3202 87.252 97.9972 85.887 97.9972 83.913C97.9972 81.54 99.7822 80.259 102.869 80.259H104.57V79.44C104.57 77.844 103.793 77.256 102.26 77.256C101.441 77.256 100.412 77.466 99.2782 77.844L98.7952 76.437C100.16 75.933 101.378 75.681 102.617 75.681C105.284 75.681 106.502 77.046 106.502 79.356V84.417ZM101.966 85.803C103.1 85.803 103.94 85.236 104.57 84.081V81.54H103.121C101.084 81.54 100.055 82.296 100.055 83.808C100.055 85.11 100.706 85.803 101.966 85.803ZM118.828 74.694L119.395 76.437C118.471 76.731 117.421 76.773 116.161 76.773C117.463 77.361 118.114 78.285 118.114 79.566C118.114 81.75 116.539 83.325 113.893 83.325C113.389 83.325 112.948 83.262 112.486 83.115C112.171 83.346 111.94 83.745 111.94 84.144C111.94 84.648 112.255 85.047 113.389 85.047H115.153C117.421 85.047 118.933 86.349 118.933 88.113C118.933 90.255 117.169 91.473 113.746 91.473C110.134 91.473 109 90.36 109 88.113H110.743C110.743 89.373 111.31 89.961 113.746 89.961C116.14 89.961 116.98 89.352 116.98 88.239C116.98 87.189 116.14 86.664 114.754 86.664H113.011C111.037 86.664 110.155 85.677 110.155 84.564C110.155 83.85 110.575 83.136 111.373 82.611C110.092 81.939 109.504 80.973 109.504 79.545C109.504 77.277 111.331 75.681 113.767 75.681C116.518 75.744 117.526 75.282 118.828 74.694ZM113.767 77.067C112.276 77.067 111.478 78.096 111.478 79.545C111.478 81.015 112.297 82.044 113.809 82.044C115.321 82.044 116.14 81.12 116.14 79.524C116.14 77.907 115.342 77.067 113.767 77.067ZM129.533 81.141C129.533 81.519 129.512 81.876 129.491 82.128H122.435C122.624 84.69 123.821 85.677 125.417 85.677C126.509 85.677 127.328 85.383 128.294 84.711L129.134 85.866C128.042 86.727 126.803 87.252 125.27 87.252C122.183 87.252 120.377 85.089 120.377 81.582C120.377 78.138 122.12 75.681 124.976 75.681C127.958 75.681 129.533 77.76 129.533 81.141ZM127.622 80.7V80.574C127.622 78.411 126.761 77.214 125.018 77.214C123.548 77.214 122.582 78.243 122.435 80.7H127.622Z" fill="white"/>
<path d="M240.027 72.741C242.715 72.741 244.185 74.421 244.185 76.311C244.185 78.096 243.03 79.167 241.455 79.545C243.219 79.713 244.626 80.826 244.626 82.947C244.626 85.404 242.757 87.252 239.838 87.252C238.158 87.252 236.688 86.643 235.617 85.362L236.772 84.291C237.696 85.257 238.641 85.677 239.775 85.677C241.539 85.677 242.61 84.585 242.61 82.926C242.61 80.994 241.518 80.406 239.817 80.406H238.767L238.998 78.915H239.712C241.098 78.915 242.253 78.075 242.253 76.437C242.253 75.114 241.329 74.295 239.922 74.295C238.809 74.295 237.969 74.673 237.024 75.555L236.016 74.4C237.213 73.287 238.515 72.741 240.027 72.741ZM254.875 72.951L254.602 74.463H249.121V78.6C249.856 78.222 250.612 78.054 251.368 78.054C253.741 78.054 255.358 79.713 255.358 82.506C255.358 85.299 253.405 87.252 250.486 87.252C248.701 87.252 247.42 86.58 246.328 85.467L247.504 84.333C248.344 85.236 249.247 85.677 250.465 85.677C252.229 85.677 253.342 84.522 253.342 82.464C253.342 80.301 252.229 79.545 250.78 79.545C250.024 79.545 249.457 79.713 248.785 80.028H247.273V72.951H254.875ZM269.175 72.069L270.519 72.951L260.796 87.651L259.452 86.769L269.175 72.069ZM260.649 72.741C262.623 72.741 264.072 74.106 264.072 76.29C264.072 78.474 262.623 79.839 260.649 79.839C258.696 79.839 257.247 78.474 257.247 76.29C257.247 74.106 258.696 72.741 260.649 72.741ZM260.649 74.043C259.305 74.043 258.948 75.156 258.948 76.29C258.948 77.382 259.305 78.537 260.649 78.537C262.014 78.537 262.35 77.424 262.35 76.29C262.35 75.198 262.014 74.043 260.649 74.043ZM269.301 80.154C271.275 80.154 272.703 81.519 272.703 83.703C272.703 85.887 271.275 87.252 269.301 87.252C267.327 87.252 265.878 85.887 265.878 83.703C265.878 81.519 267.327 80.154 269.301 80.154ZM269.301 81.477C267.957 81.477 267.6 82.569 267.6 83.703C267.6 84.795 267.957 85.95 269.301 85.95C270.666 85.95 271.002 84.837 271.002 83.703C271.002 82.611 270.666 81.477 269.301 81.477Z" fill="white"/>
<rect x="26.0234" y="111.769" width="247.954" height="15.8721" rx="7.93604" fill="#6A6A6A"/>
<path d="M26.0234 119.705C26.0234 115.322 29.5765 111.769 33.9595 111.769H112.806V127.641H33.9595C29.5765 127.641 26.0234 124.088 26.0234 119.705Z" fill="#4DCCFA"/>
</svg>
