<svg width="301" height="210" viewBox="0 0 301 210" fill="none" xmlns="http://www.w3.org/2000/svg">
<rect width="300" height="210" transform="translate(0.5)" fill="#121517"/>
<rect x="45" y="81.6885" width="211" height="45" rx="3.5" fill="black" stroke="white"/>
<path d="M211 81.6885H252.5C254.433 81.6885 256 83.2555 256 85.1885V123.188C256 125.121 254.433 126.688 252.5 126.688H211V81.6885Z" fill="#111111" stroke="white"/>
<path d="M52.662 60.5425V70.1885H50.884L46.964 61.9985C47.034 62.7965 47.146 63.9725 47.146 65.7645V70.1885H45.9V60.5425H47.636L51.598 68.7465C51.57 68.5225 51.416 66.9825 51.416 65.8065V60.5425H52.662ZM60.8746 62.8105V70.1885H59.7686L59.6706 69.0405C59.1106 69.9365 58.4246 70.3565 57.3746 70.3565C56.0866 70.3565 55.3166 69.5445 55.3166 68.1025V62.8105H56.6046V67.9625C56.6046 68.9705 56.9406 69.3485 57.7386 69.3485C58.5366 69.3485 59.1386 68.8165 59.5866 68.0745V62.8105H60.8746ZM70.9411 62.6425C72.1451 62.6425 72.9431 63.5105 72.9431 64.8965V70.1885H71.6551V65.0785C71.6551 63.9725 71.1791 63.6505 70.6191 63.6505C69.8211 63.6505 69.3871 64.1685 68.8831 64.9525V70.1885H67.5951V65.0785C67.5951 63.9725 67.1191 63.6505 66.5591 63.6505C65.7611 63.6505 65.3131 64.1685 64.8231 64.9525V70.1885H63.5351V62.8105H64.6411L64.7531 63.8885C65.2431 63.1465 65.9151 62.6425 66.8811 62.6425C67.7911 62.6425 68.4631 63.1325 68.7431 63.9725C69.2751 63.1745 69.9471 62.6425 70.9411 62.6425ZM78.913 62.6425C80.579 62.6425 81.657 64.0285 81.657 66.4925C81.657 68.8025 80.551 70.3565 78.759 70.3565C77.947 70.3565 77.303 69.9925 76.799 69.3765L76.673 70.1885H75.539V59.8425L76.827 59.6885V63.7345C77.331 63.0485 78.017 62.6425 78.913 62.6425ZM78.451 69.3345C79.529 69.3345 80.271 68.5085 80.271 66.4925C80.271 64.3925 79.585 63.6645 78.549 63.6645C77.737 63.6645 77.205 64.2245 76.827 64.8125V68.3405C77.205 68.9285 77.793 69.3345 78.451 69.3345ZM89.4235 66.2825C89.4235 66.5345 89.4095 66.7725 89.3955 66.9405H84.6915C84.8175 68.6485 85.6155 69.3065 86.6795 69.3065C87.4075 69.3065 87.9535 69.1105 88.5975 68.6625L89.1575 69.4325C88.4295 70.0065 87.6035 70.3565 86.5815 70.3565C84.5235 70.3565 83.3195 68.9145 83.3195 66.5765C83.3195 64.2805 84.4815 62.6425 86.3855 62.6425C88.3735 62.6425 89.4235 64.0285 89.4235 66.2825ZM88.1495 65.9885V65.9045C88.1495 64.4625 87.5755 63.6645 86.4135 63.6645C85.4335 63.6645 84.7895 64.3505 84.6915 65.9885H88.1495ZM94.7548 62.6425C94.9928 62.6425 95.2588 62.6705 95.4828 62.7265L95.2448 63.9865C95.0208 63.9305 94.8668 63.9025 94.6008 63.9025C93.6768 63.9025 93.1448 64.5605 92.8368 65.9745V70.1885H91.5488V62.8105H92.6548L92.7808 64.3085C93.1728 63.2025 93.8588 62.6425 94.7548 62.6425ZM98.8144 62.6425C99.8504 62.6425 100.62 62.9505 101.32 63.4825L100.774 64.2945C100.116 63.8745 99.5424 63.6645 98.8564 63.6645C98.0164 63.6645 97.4984 64.0425 97.4984 64.6305C97.4984 65.2325 97.8904 65.5125 99.0804 65.8205C100.634 66.2125 101.53 66.8285 101.53 68.1165C101.53 69.6565 100.116 70.3565 98.6184 70.3565C97.3724 70.3565 96.4764 69.9505 95.8324 69.3905L96.5184 68.6065C97.1064 69.0545 97.7924 69.3205 98.5904 69.3205C99.5564 69.3205 100.172 68.9005 100.172 68.2005C100.172 67.4725 99.8084 67.1925 98.3804 66.8145C96.7844 66.3945 96.1544 65.7085 96.1544 64.6725C96.1544 63.4965 97.2884 62.6425 98.8144 62.6425Z" fill="white"/>
<path d="M61.314 98.1465V110.188H59.658V99.9105L56.85 101.62L56.13 100.45L59.856 98.1465H61.314ZM68.3091 97.9665C71.0091 97.9665 72.3411 100.198 72.3411 104.176C72.3411 108.172 71.0091 110.404 68.3091 110.404C65.6091 110.404 64.2771 108.172 64.2771 104.176C64.2771 100.18 65.6091 97.9665 68.3091 97.9665ZM68.3091 99.2805C66.7971 99.2805 66.0051 100.648 66.0051 104.176C66.0051 107.722 66.7971 109.09 68.3091 109.09C69.8031 109.09 70.6131 107.722 70.6131 104.176C70.6131 100.648 69.8031 99.2805 68.3091 99.2805ZM77.4282 97.9665C79.6422 97.9665 81.0462 99.3885 81.0462 101.26C81.0462 103.51 79.6062 105.112 75.9162 108.802H81.3342L81.1362 110.188H74.0262V108.874C78.2742 104.446 79.3182 103.294 79.3182 101.332C79.3182 100.072 78.5082 99.3345 77.3382 99.3345C76.3302 99.3345 75.6642 99.7305 74.8902 100.648L73.7742 99.7845C74.7462 98.5785 75.9162 97.9665 77.4282 97.9665ZM91.2723 105.904V107.218H89.7063V110.188H88.1043V107.218H82.9563V106.03L86.5743 97.9665L87.9603 98.5425L84.7023 105.904H88.1223L88.2663 102.664H89.7063V105.904H91.2723Z" fill="white"/>
<path d="M226.705 111.32L234.705 119.32L242.705 111.32" stroke="white" stroke-width="2"/>
<path d="M242.705 96.5098L234.705 88.5098L226.705 96.5098" stroke="white" stroke-width="2"/>
<line x1="95.5" y1="91.1885" x2="95.5" y2="116.188" stroke="white"/>
<line x1="211.073" y1="103.842" x2="255.849" y2="103.842" stroke="white"/>
</svg>
