<svg width="300" height="210" viewBox="0 0 300 210" fill="none" xmlns="http://www.w3.org/2000/svg">
<rect width="300" height="210" fill="#121517"/>
<path d="M66.684 41.5425C69.008 41.5425 70.436 42.4945 70.436 44.5245C70.436 46.7365 68.826 47.6465 66.698 47.6465H65.48V51.1885H64.15V41.5425H66.684ZM66.642 46.5965C68.07 46.5965 69.022 46.1765 69.022 44.5385C69.022 43.0965 68.098 42.5785 66.67 42.5785H65.48V46.5965H66.642ZM76.7609 49.4665C76.7609 50.1105 76.9989 50.3205 77.3769 50.4605L77.0829 51.3565C76.3409 51.2725 75.8649 50.9785 75.6409 50.2505C75.1229 51.0205 74.3389 51.3565 73.4429 51.3565C71.9729 51.3565 71.0909 50.4465 71.0909 49.1305C71.0909 47.5485 72.2809 46.6945 74.3389 46.6945H75.4729V46.1485C75.4729 45.0845 74.9549 44.6925 73.9329 44.6925C73.3869 44.6925 72.7009 44.8325 71.9449 45.0845L71.6229 44.1465C72.5329 43.8105 73.3449 43.6425 74.1709 43.6425C75.9489 43.6425 76.7609 44.5525 76.7609 46.0925V49.4665ZM73.7369 50.3905C74.4929 50.3905 75.0529 50.0125 75.4729 49.2425V47.5485H74.5069C73.1489 47.5485 72.4629 48.0525 72.4629 49.0605C72.4629 49.9285 72.8969 50.3905 73.7369 50.3905ZM82.8782 43.6425C84.2362 43.6425 85.0202 44.4965 85.0202 45.8965V51.1885H83.7322V46.0785C83.7322 44.9725 83.2842 44.6505 82.5702 44.6505C81.7442 44.6505 81.1842 45.1685 80.6942 45.9525V51.1885H79.4062V43.8105H80.5122L80.6242 44.9025C81.1282 44.1465 81.9122 43.6425 82.8782 43.6425ZM93.1813 47.2825C93.1813 47.5345 93.1673 47.7725 93.1533 47.9405H88.4493C88.5753 49.6485 89.3733 50.3065 90.4373 50.3065C91.1653 50.3065 91.7113 50.1105 92.3553 49.6625L92.9153 50.4325C92.1873 51.0065 91.3613 51.3565 90.3393 51.3565C88.2813 51.3565 87.0773 49.9145 87.0773 47.5765C87.0773 45.2805 88.2393 43.6425 90.1433 43.6425C92.1313 43.6425 93.1813 45.0285 93.1813 47.2825ZM91.9073 46.9885V46.9045C91.9073 45.4625 91.3333 44.6645 90.1713 44.6645C89.1913 44.6645 88.5473 45.3505 88.4493 46.9885H91.9073ZM96.7766 51.3565C95.8386 51.3565 95.2366 50.7825 95.2366 49.7325V40.8425L96.5246 40.6885V49.7045C96.5246 50.0965 96.6506 50.2925 96.9866 50.2925C97.1686 50.2925 97.3226 50.2645 97.4626 50.2085L97.7986 51.1045C97.5186 51.2585 97.1546 51.3565 96.7766 51.3565Z" fill="white"/>
<rect x="41.6296" y="62.5957" width="216.741" height="110.404" fill="#121517" stroke="white"/>
<rect x="41.6296" y="30.5957" width="84.2407" height="32" stroke="white"/>
</svg>
