<svg width="301" height="210" viewBox="0 0 301 210" fill="none" xmlns="http://www.w3.org/2000/svg">
<rect width="300" height="210" transform="translate(0.25)" fill="#121517"/>
<rect x="44.75" y="82.5" width="211" height="45" rx="3.5" fill="black" stroke="white"/>
<path d="M50.872 60.8057L50.718 61.8697H46.98V65.0197H50.228V66.0837H46.98V69.3877H50.984V70.4517H45.65V60.8057H50.872ZM55.9002 66.5037L58.4622 70.4517H56.9082L55.1022 67.3297L53.2682 70.4517H51.8122L54.3882 66.5597L52.1062 63.0737H53.6182L55.1582 65.7757L56.7122 63.0737H58.1682L55.9002 66.5037ZM62.2817 62.9057C63.1497 62.9057 63.8497 63.1297 64.5357 63.7037L63.9197 64.5157C63.4157 64.1517 62.9537 63.9697 62.3377 63.9697C61.1757 63.9697 60.4477 64.8797 60.4477 66.7977C60.4477 68.7297 61.1757 69.5277 62.3377 69.5277C62.9537 69.5277 63.3877 69.3317 63.9477 68.9677L64.5357 69.8077C63.8777 70.3397 63.1357 70.6197 62.2817 70.6197C60.2937 70.6197 59.0617 69.2057 59.0617 66.8257C59.0617 64.4737 60.2797 62.9057 62.2817 62.9057ZM69.7512 62.9057C71.0952 62.9057 71.8932 63.7737 71.8932 65.1597V70.4517H70.6052V65.3417C70.6052 64.2357 70.1292 63.9137 69.4292 63.9137C68.6312 63.9137 68.0572 64.4317 67.5672 65.2017V70.4517H66.2792V60.1197L67.5672 59.9797V64.0957C68.0992 63.3677 68.8272 62.9057 69.7512 62.9057ZM79.4523 68.7297C79.4523 69.3737 79.6903 69.5837 80.0683 69.7237L79.7743 70.6197C79.0323 70.5357 78.5563 70.2417 78.3323 69.5137C77.8143 70.2837 77.0303 70.6197 76.1343 70.6197C74.6643 70.6197 73.7823 69.7097 73.7823 68.3937C73.7823 66.8117 74.9723 65.9577 77.0303 65.9577H78.1643V65.4117C78.1643 64.3477 77.6463 63.9557 76.6243 63.9557C76.0783 63.9557 75.3923 64.0957 74.6363 64.3477L74.3143 63.4097C75.2243 63.0737 76.0363 62.9057 76.8623 62.9057C78.6403 62.9057 79.4523 63.8157 79.4523 65.3557V68.7297ZM76.4283 69.6537C77.1843 69.6537 77.7443 69.2757 78.1643 68.5057V66.8117H77.1983C75.8403 66.8117 75.1543 67.3157 75.1543 68.3237C75.1543 69.1917 75.5883 69.6537 76.4283 69.6537ZM85.5696 62.9057C86.9276 62.9057 87.7116 63.7597 87.7116 65.1597V70.4517H86.4236V65.3417C86.4236 64.2357 85.9756 63.9137 85.2616 63.9137C84.4356 63.9137 83.8756 64.4317 83.3856 65.2157V70.4517H82.0976V63.0737H83.2036L83.3156 64.1657C83.8196 63.4097 84.6036 62.9057 85.5696 62.9057ZM95.8727 62.2477L96.2507 63.4097C95.6347 63.6057 94.9347 63.6337 94.0947 63.6337C94.9627 64.0257 95.3967 64.6417 95.3967 65.4957C95.3967 66.9517 94.3467 68.0017 92.5827 68.0017C92.2467 68.0017 91.9527 67.9597 91.6447 67.8617C91.4347 68.0157 91.2807 68.2817 91.2807 68.5477C91.2807 68.8837 91.4907 69.1497 92.2467 69.1497H93.4227C94.9347 69.1497 95.9427 70.0177 95.9427 71.1937C95.9427 72.6217 94.7667 73.4337 92.4847 73.4337C90.0767 73.4337 89.3207 72.6917 89.3207 71.1937H90.4827C90.4827 72.0337 90.8607 72.4257 92.4847 72.4257C94.0807 72.4257 94.6407 72.0197 94.6407 71.2777C94.6407 70.5777 94.0807 70.2277 93.1567 70.2277H91.9947C90.6787 70.2277 90.0907 69.5697 90.0907 68.8277C90.0907 68.3517 90.3707 67.8757 90.9027 67.5257C90.0487 67.0777 89.6567 66.4337 89.6567 65.4817C89.6567 63.9697 90.8747 62.9057 92.4987 62.9057C94.3327 62.9477 95.0047 62.6397 95.8727 62.2477ZM92.4987 63.8297C91.5047 63.8297 90.9727 64.5157 90.9727 65.4817C90.9727 66.4617 91.5187 67.1477 92.5267 67.1477C93.5347 67.1477 94.0807 66.5317 94.0807 65.4677C94.0807 64.3897 93.5487 63.8297 92.4987 63.8297ZM103.009 66.5457C103.009 66.7977 102.995 67.0357 102.981 67.2037H98.2774C98.4034 68.9117 99.2014 69.5697 100.265 69.5697C100.993 69.5697 101.539 69.3737 102.183 68.9257L102.743 69.6957C102.015 70.2697 101.189 70.6197 100.167 70.6197C98.1094 70.6197 96.9054 69.1777 96.9054 66.8397C96.9054 64.5437 98.0674 62.9057 99.9714 62.9057C101.959 62.9057 103.009 64.2917 103.009 66.5457ZM101.735 66.2517V66.1677C101.735 64.7257 101.161 63.9277 99.9994 63.9277C99.0194 63.9277 98.3754 64.6137 98.2774 66.2517H101.735Z" fill="white"/>
<path d="M65.744 98.0497V110.452H63.458L58.418 99.9217C58.508 100.948 58.652 102.46 58.652 104.764V110.452H57.05V98.0497H59.282L64.376 108.598C64.34 108.31 64.142 106.33 64.142 104.818V98.0497H65.744ZM77.3471 98.0497L73.3511 105.682V110.452H71.6231V105.7L67.6271 98.0497H69.5171L72.5411 104.188L75.5651 98.0497H77.3471ZM81.5729 97.8337C83.2829 97.8337 84.3629 98.3377 85.4069 99.2737L84.4709 100.318C83.5349 99.5617 82.6709 99.2377 81.6449 99.2377C80.4029 99.2377 79.4129 99.8137 79.4129 101.002C79.4129 102.046 79.8989 102.55 82.1309 103.234C84.1109 103.846 85.8029 104.62 85.8029 106.996C85.8029 109.156 84.1649 110.668 81.3749 110.668C79.5929 110.668 78.1889 110.074 77.1629 109.066L78.1169 108.004C79.0349 108.778 80.0069 109.264 81.3569 109.264C82.8149 109.264 84.0209 108.544 84.0209 107.05C84.0209 105.844 83.4449 105.304 81.3389 104.656C78.9269 103.918 77.6669 103 77.6669 101.074C77.6669 99.1657 79.2869 97.8337 81.5729 97.8337ZM95.0355 98.0497L94.8375 99.4177H90.0315V103.468H94.2075V104.836H90.0315V109.084H95.1795V110.452H88.3215V98.0497H95.0355Z" fill="white"/>
<path d="M227.25 100.452L235.25 108.452L243.25 100.452" stroke="white" stroke-width="2"/>
</svg>
