<svg width="300" height="210" viewBox="0 0 300 210" fill="none" xmlns="http://www.w3.org/2000/svg">
<rect width="300" height="210" fill="#121517"/>
<rect x="109.414" y="90" width="30" height="30" rx="15" fill="white"/>
<path d="M156.866 53.8899C160.562 53.8899 164.111 55.0449 164.111 61.0509C164.111 66.9519 160.436 68.3589 157.307 68.3589H153.842V53.8899H156.866ZM157.307 55.4859H155.837V66.7839H157.454C159.722 66.7839 161.99 65.8179 161.99 61.0509C161.99 56.1579 159.617 55.4859 157.307 55.4859ZM171.41 57.0399C174.56 57.0399 176.324 59.3079 176.324 62.8149C176.324 66.2379 174.518 68.6109 171.389 68.6109C168.239 68.6109 166.454 66.3429 166.454 62.8359C166.454 59.4129 168.26 57.0399 171.41 57.0399ZM171.41 58.5939C169.562 58.5939 168.533 59.9379 168.533 62.8359C168.533 65.7129 169.541 67.0569 171.389 67.0569C173.237 67.0569 174.245 65.7129 174.245 62.8149C174.245 59.9379 173.237 58.5939 171.41 58.5939ZM187.874 56.0529L188.441 57.7959C187.517 58.0899 186.467 58.1319 185.207 58.1319C186.509 58.7199 187.16 59.6439 187.16 60.9249C187.16 63.1089 185.585 64.6839 182.939 64.6839C182.435 64.6839 181.994 64.6209 181.532 64.4739C181.217 64.7049 180.986 65.1039 180.986 65.5029C180.986 66.0069 181.301 66.4059 182.435 66.4059H184.199C186.467 66.4059 187.979 67.7079 187.979 69.4719C187.979 71.6139 186.215 72.8319 182.792 72.8319C179.18 72.8319 178.046 71.7189 178.046 69.4719H179.789C179.789 70.7319 180.356 71.3199 182.792 71.3199C185.186 71.3199 186.026 70.7109 186.026 69.5979C186.026 68.5479 185.186 68.0229 183.8 68.0229H182.057C180.083 68.0229 179.201 67.0359 179.201 65.9229C179.201 65.2089 179.621 64.4949 180.419 63.9699C179.138 63.2979 178.55 62.3319 178.55 60.9039C178.55 58.6359 180.377 57.0399 182.813 57.0399C185.564 57.1029 186.572 56.6409 187.874 56.0529ZM182.813 58.4259C181.322 58.4259 180.524 59.4549 180.524 60.9039C180.524 62.3739 181.343 63.4029 182.855 63.4029C184.367 63.4029 185.186 62.4789 185.186 60.8829C185.186 59.2659 184.388 58.4259 182.813 58.4259Z" fill="white"/>
<path d="M158.867 97.779C160.694 97.779 161.723 98.283 162.878 99.207L161.786 100.488C160.883 99.753 160.001 99.417 158.993 99.417C156.809 99.417 154.982 100.887 154.982 105.255C154.982 109.434 156.725 111.072 158.972 111.072C160.337 111.072 161.219 110.463 162.038 109.854L163.046 111.135C162.269 111.954 160.862 112.752 158.909 112.752C155.402 112.752 152.861 110.127 152.861 105.255C152.861 100.362 155.591 97.779 158.867 97.779ZM172.907 109.917C172.907 110.883 173.264 111.198 173.831 111.408L173.39 112.752C172.277 112.626 171.563 112.185 171.227 111.093C170.45 112.248 169.274 112.752 167.93 112.752C165.725 112.752 164.402 111.387 164.402 109.413C164.402 107.04 166.187 105.759 169.274 105.759H170.975V104.94C170.975 103.344 170.198 102.756 168.665 102.756C167.846 102.756 166.817 102.966 165.683 103.344L165.2 101.937C166.565 101.433 167.783 101.181 169.022 101.181C171.689 101.181 172.907 102.546 172.907 104.856V109.917ZM168.371 111.303C169.505 111.303 170.345 110.736 170.975 109.581V107.04H169.526C167.489 107.04 166.46 107.796 166.46 109.308C166.46 110.61 167.111 111.303 168.371 111.303ZM181.725 110.673L182.46 111.996C181.725 112.5 180.927 112.752 179.982 112.752C178.113 112.752 177 111.66 177 109.602V102.924H175.068V101.433H177V98.934L178.932 98.703V101.433H181.557L181.347 102.924H178.932V109.518C178.932 110.631 179.289 111.156 180.255 111.156C180.738 111.156 181.179 111.009 181.725 110.673Z" fill="white"/>
<path d="M161.38 142.172L161.149 143.768H155.689V148.703H160.414V150.278H155.689V156.641H153.694V142.172H161.38ZM165.485 140.261C166.304 140.261 166.85 140.828 166.85 141.584C166.85 142.319 166.304 142.886 165.485 142.886C164.687 142.886 164.141 142.319 164.141 141.584C164.141 140.828 164.687 140.261 165.485 140.261ZM166.472 145.574V156.641H164.54V145.574H166.472ZM173.47 145.322C175.024 145.322 176.179 145.784 177.229 146.582L176.41 147.8C175.423 147.17 174.562 146.855 173.533 146.855C172.273 146.855 171.496 147.422 171.496 148.304C171.496 149.207 172.084 149.627 173.869 150.089C176.2 150.677 177.544 151.601 177.544 153.533C177.544 155.843 175.423 156.893 173.176 156.893C171.307 156.893 169.963 156.284 168.997 155.444L170.026 154.268C170.908 154.94 171.937 155.339 173.134 155.339C174.583 155.339 175.507 154.709 175.507 153.659C175.507 152.567 174.961 152.147 172.819 151.58C170.425 150.95 169.48 149.921 169.48 148.367C169.48 146.603 171.181 145.322 173.47 145.322ZM185.477 145.322C187.493 145.322 188.69 146.624 188.69 148.703V156.641H186.758V148.976C186.758 147.317 186.044 146.834 184.994 146.834C183.797 146.834 182.936 147.611 182.201 148.766V156.641H180.269V141.143L182.201 140.933V147.107C182.999 146.015 184.091 145.322 185.477 145.322Z" fill="white"/>
<rect x="110.414" y="135.141" width="28" height="28" rx="14" stroke="white" stroke-width="2"/>
<rect x="110.414" y="46.8589" width="28" height="28" rx="14" stroke="white" stroke-width="2"/>
<circle cx="124.414" cy="105" r="6.99902" fill="black"/>
</svg>
