<svg width="300" height="210" viewBox="0 0 300 210" fill="none" xmlns="http://www.w3.org/2000/svg">
<rect width="300" height="210" fill="#121517"/>
<path d="M39 105L259.838 105" stroke="#6A6A6A" stroke-width="3" stroke-linecap="round"/>
<line x1="114.929" y1="104.5" x2="225.377" y2="104.5" stroke="white" stroke-width="3"/>
<rect x="97.3669" y="95.9971" width="16.562" height="16.562" rx="8.28101" fill="#121517" stroke="white" stroke-width="2"/>
<rect x="212.393" y="95.9971" width="16.562" height="16.562" rx="8.28101" fill="#121517" stroke="white" stroke-width="2"/>
<path d="M42.467 77.5698L40.157 73.4818H38.659V77.5698H37.329V67.9238H39.863C42.271 67.9238 43.531 68.8478 43.531 70.6538C43.531 72.0118 42.831 72.8238 41.445 73.2438L44.049 77.5698H42.467ZM38.659 72.4598H40.003C41.347 72.4598 42.117 71.9558 42.117 70.6538C42.117 69.4498 41.431 68.9598 39.849 68.9598H38.659V72.4598ZM50.5688 75.8478C50.5688 76.4918 50.8068 76.7018 51.1848 76.8418L50.8908 77.7378C50.1488 77.6538 49.6728 77.3598 49.4488 76.6318C48.9308 77.4018 48.1468 77.7378 47.2508 77.7378C45.7808 77.7378 44.8988 76.8278 44.8988 75.5118C44.8988 73.9298 46.0888 73.0758 48.1468 73.0758H49.2808V72.5298C49.2808 71.4658 48.7628 71.0738 47.7408 71.0738C47.1948 71.0738 46.5088 71.2138 45.7528 71.4658L45.4308 70.5278C46.3408 70.1918 47.1528 70.0238 47.9788 70.0238C49.7568 70.0238 50.5688 70.9338 50.5688 72.4738V75.8478ZM47.5448 76.7718C48.3008 76.7718 48.8608 76.3938 49.2808 75.6238V73.9298H48.3148C46.9568 73.9298 46.2708 74.4338 46.2708 75.4418C46.2708 76.3098 46.7048 76.7718 47.5448 76.7718ZM56.686 70.0238C58.044 70.0238 58.828 70.8778 58.828 72.2778V77.5698H57.54V72.4598C57.54 71.3538 57.092 71.0318 56.378 71.0318C55.552 71.0318 54.992 71.5498 54.502 72.3338V77.5698H53.214V70.1918H54.32L54.432 71.2838C54.936 70.5278 55.72 70.0238 56.686 70.0238ZM66.9892 69.3658L67.3672 70.5278C66.7512 70.7238 66.0512 70.7518 65.2112 70.7518C66.0792 71.1438 66.5132 71.7598 66.5132 72.6138C66.5132 74.0698 65.4632 75.1198 63.6992 75.1198C63.3632 75.1198 63.0692 75.0778 62.7612 74.9798C62.5512 75.1338 62.3972 75.3998 62.3972 75.6658C62.3972 76.0018 62.6072 76.2678 63.3632 76.2678H64.5392C66.0512 76.2678 67.0592 77.1358 67.0592 78.3118C67.0592 79.7398 65.8832 80.5518 63.6012 80.5518C61.1932 80.5518 60.4372 79.8098 60.4372 78.3118H61.5992C61.5992 79.1518 61.9772 79.5438 63.6012 79.5438C65.1972 79.5438 65.7572 79.1378 65.7572 78.3958C65.7572 77.6958 65.1972 77.3458 64.2732 77.3458H63.1112C61.7952 77.3458 61.2072 76.6878 61.2072 75.9458C61.2072 75.4698 61.4872 74.9938 62.0192 74.6438C61.1652 74.1958 60.7732 73.5518 60.7732 72.5998C60.7732 71.0878 61.9912 70.0238 63.6152 70.0238C65.4492 70.0658 66.1212 69.7578 66.9892 69.3658ZM63.6152 70.9478C62.6212 70.9478 62.0892 71.6338 62.0892 72.5998C62.0892 73.5798 62.6352 74.2658 63.6432 74.2658C64.6512 74.2658 65.1972 73.6498 65.1972 72.5858C65.1972 71.5078 64.6652 70.9478 63.6152 70.9478ZM74.1259 73.6638C74.1259 73.9158 74.1119 74.1538 74.0979 74.3218H69.3939C69.5199 76.0298 70.3179 76.6878 71.3819 76.6878C72.1099 76.6878 72.6559 76.4918 73.2999 76.0438L73.8599 76.8138C73.1319 77.3878 72.3059 77.7378 71.2839 77.7378C69.2259 77.7378 68.0219 76.2958 68.0219 73.9578C68.0219 71.6618 69.1839 70.0238 71.0879 70.0238C73.0759 70.0238 74.1259 71.4098 74.1259 73.6638ZM72.8519 73.3698V73.2858C72.8519 71.8438 72.2779 71.0458 71.1159 71.0458C70.1359 71.0458 69.4919 71.7318 69.3939 73.3698H72.8519ZM81.9582 70.0238C82.9942 70.0238 83.7642 70.3318 84.4642 70.8638L83.9182 71.6758C83.2602 71.2558 82.6862 71.0458 82.0002 71.0458C81.1602 71.0458 80.6422 71.4238 80.6422 72.0118C80.6422 72.6138 81.0342 72.8938 82.2242 73.2018C83.7782 73.5938 84.6742 74.2098 84.6742 75.4978C84.6742 77.0378 83.2602 77.7378 81.7622 77.7378C80.5162 77.7378 79.6202 77.3318 78.9762 76.7718L79.6622 75.9878C80.2502 76.4358 80.9362 76.7018 81.7342 76.7018C82.7002 76.7018 83.3162 76.2818 83.3162 75.5818C83.3162 74.8538 82.9522 74.5738 81.5242 74.1958C79.9282 73.7758 79.2982 73.0898 79.2982 72.0538C79.2982 70.8778 80.4322 70.0238 81.9582 70.0238ZM87.9614 77.7378C87.0234 77.7378 86.4214 77.1638 86.4214 76.1138V67.2238L87.7094 67.0698V76.0858C87.7094 76.4778 87.8354 76.6738 88.1714 76.6738C88.3534 76.6738 88.5074 76.6458 88.6474 76.5898L88.9834 77.4858C88.7034 77.6398 88.3394 77.7378 87.9614 77.7378ZM91.2229 66.6498C91.7689 66.6498 92.1329 67.0278 92.1329 67.5318C92.1329 68.0218 91.7689 68.3998 91.2229 68.3998C90.6909 68.3998 90.3269 68.0218 90.3269 67.5318C90.3269 67.0278 90.6909 66.6498 91.2229 66.6498ZM91.8809 70.1918V77.5698H90.5929V70.1918H91.8809ZM98.9681 67.0698L100.256 67.2238V77.5698H99.1221L98.9961 76.5478C98.5201 77.2898 97.7781 77.7378 96.8681 77.7378C95.0761 77.7378 94.0821 76.2118 94.0821 73.9158C94.0821 71.6618 95.1741 70.0238 96.9801 70.0238C97.8481 70.0238 98.4781 70.4158 98.9681 70.9338V67.0698ZM97.1481 76.7158C97.9741 76.7158 98.4781 76.3098 98.9681 75.6238V72.0118C98.5061 71.4238 97.9881 71.0458 97.2601 71.0458C96.1541 71.0458 95.4681 71.9698 95.4681 73.8878C95.4681 75.8338 96.0841 76.7158 97.1481 76.7158ZM108.483 73.6638C108.483 73.9158 108.469 74.1538 108.455 74.3218H103.751C103.877 76.0298 104.675 76.6878 105.739 76.6878C106.467 76.6878 107.013 76.4918 107.657 76.0438L108.217 76.8138C107.489 77.3878 106.663 77.7378 105.641 77.7378C103.583 77.7378 102.379 76.2958 102.379 73.9578C102.379 71.6618 103.541 70.0238 105.445 70.0238C107.433 70.0238 108.483 71.4098 108.483 73.6638ZM107.209 73.3698V73.2858C107.209 71.8438 106.635 71.0458 105.473 71.0458C104.493 71.0458 103.849 71.7318 103.751 73.3698H107.209ZM113.815 70.0238C114.053 70.0238 114.319 70.0518 114.543 70.1078L114.305 71.3678C114.081 71.3118 113.927 71.2838 113.661 71.2838C112.737 71.2838 112.205 71.9418 111.897 73.3558V77.5698H110.609V70.1918H111.715L111.841 71.6898C112.233 70.5838 112.919 70.0238 113.815 70.0238Z" fill="white"/>
<path d="M219.62 68.0638C221.412 68.0638 222.392 69.1838 222.392 70.4438C222.392 71.6338 221.622 72.3478 220.572 72.5998C221.748 72.7118 222.686 73.4538 222.686 74.8678C222.686 76.5058 221.44 77.7378 219.494 77.7378C218.374 77.7378 217.394 77.3318 216.68 76.4778L217.45 75.7638C218.066 76.4078 218.696 76.6878 219.452 76.6878C220.628 76.6878 221.342 75.9598 221.342 74.8538C221.342 73.5658 220.614 73.1738 219.48 73.1738H218.78L218.934 72.1798H219.41C220.334 72.1798 221.104 71.6198 221.104 70.5278C221.104 69.6458 220.488 69.0998 219.55 69.0998C218.808 69.0998 218.248 69.3518 217.618 69.9398L216.946 69.1698C217.744 68.4278 218.612 68.0638 219.62 68.0638ZM227.363 68.0638C229.463 68.0638 230.499 69.7998 230.499 72.8938C230.499 76.0018 229.463 77.7378 227.363 77.7378C225.263 77.7378 224.227 76.0018 224.227 72.8938C224.227 69.7858 225.263 68.0638 227.363 68.0638ZM227.363 69.0858C226.187 69.0858 225.571 70.1498 225.571 72.8938C225.571 75.6518 226.187 76.7158 227.363 76.7158C228.525 76.7158 229.155 75.6518 229.155 72.8938C229.155 70.1498 228.525 69.0858 227.363 69.0858ZM235.809 73.7338V72.6418H239.771V73.7338H235.809ZM249.43 72.5438C250.718 73.0618 251.404 73.8878 251.404 75.0638C251.404 76.6318 250.06 77.7378 248.156 77.7378C246.224 77.7378 244.95 76.6318 244.95 75.0918C244.95 73.8878 245.65 73.1598 246.798 72.6558C245.79 72.1518 245.342 71.4378 245.342 70.4718C245.342 68.8898 246.756 68.0638 248.184 68.0638C249.584 68.0638 251.026 68.8338 251.026 70.4298C251.026 71.3818 250.494 72.0118 249.43 72.5438ZM248.184 69.0298C247.218 69.0298 246.602 69.5478 246.602 70.4858C246.602 71.4518 247.26 71.8018 248.338 72.1518L248.576 72.2358C249.416 71.7598 249.766 71.2698 249.766 70.4718C249.766 69.6038 249.206 69.0298 248.184 69.0298ZM248.17 76.7158C249.346 76.7158 250.06 76.0578 250.06 75.0778C250.06 74.0698 249.528 73.6218 248.016 73.1038L247.666 72.9778C246.742 73.4258 246.294 74.0698 246.294 75.0918C246.294 76.1138 247.008 76.7158 248.17 76.7158ZM255.937 68.0638C258.037 68.0638 259.073 69.7998 259.073 72.8938C259.073 76.0018 258.037 77.7378 255.937 77.7378C253.837 77.7378 252.801 76.0018 252.801 72.8938C252.801 69.7858 253.837 68.0638 255.937 68.0638ZM255.937 69.0858C254.761 69.0858 254.145 70.1498 254.145 72.8938C254.145 75.6518 254.761 76.7158 255.937 76.7158C257.099 76.7158 257.729 75.6518 257.729 72.8938C257.729 70.1498 257.099 69.0858 255.937 69.0858Z" fill="#B4B4B4"/>
</svg>
