<svg width="301" height="210" viewBox="0 0 301 210" fill="none" xmlns="http://www.w3.org/2000/svg">
<rect width="300" height="210" transform="translate(0.25)" fill="#121517"/>
<rect x="51.4941" y="82.5" width="211" height="45" rx="3.5" fill="black" stroke="white"/>
<path fill-rule="evenodd" clip-rule="evenodd" d="M75.6417 98.7481C73.0818 96.1881 68.9313 96.1881 66.3713 98.7481C63.8114 101.308 63.8114 105.459 66.3713 108.019C68.9313 110.578 73.0818 110.578 75.6417 108.019C78.2017 105.459 78.2017 101.308 75.6417 98.7481ZM64.6036 96.9803C68.1398 93.4441 73.8732 93.4441 77.4095 96.9803C80.6458 100.217 80.9203 105.293 78.233 108.842L82.9293 113.538C83.4174 114.026 83.4174 114.818 82.9293 115.306C82.4411 115.794 81.6497 115.794 81.1615 115.306L76.4653 110.61C72.9168 113.297 67.84 113.023 64.6036 109.786C61.0673 106.25 61.0673 100.517 64.6036 96.9803Z" fill="white"/>
<path d="M54.7741 62.8779C56.1041 62.8779 56.9441 63.2699 57.7561 63.9979L57.0281 64.8099C56.3001 64.2219 55.6281 63.9699 54.8301 63.9699C53.8641 63.9699 53.0941 64.4179 53.0941 65.3419C53.0941 66.1539 53.4721 66.5459 55.2081 67.0779C56.7481 67.5539 58.0641 68.1559 58.0641 70.0039C58.0641 71.6839 56.7901 72.8599 54.6201 72.8599C53.2341 72.8599 52.1421 72.3979 51.3441 71.6139L52.0861 70.7879C52.8001 71.3899 53.5561 71.7679 54.6061 71.7679C55.7401 71.7679 56.6781 71.2079 56.6781 70.0459C56.6781 69.1079 56.2301 68.6879 54.5921 68.1839C52.7161 67.6099 51.7361 66.8959 51.7361 65.3979C51.7361 63.9139 52.9961 62.8779 54.7741 62.8779ZM65.525 68.7859C65.525 69.0379 65.511 69.2759 65.497 69.4439H60.793C60.919 71.1519 61.717 71.8099 62.781 71.8099C63.509 71.8099 64.055 71.6139 64.699 71.1659L65.259 71.9359C64.531 72.5099 63.705 72.8599 62.683 72.8599C60.625 72.8599 59.421 71.4179 59.421 69.0799C59.421 66.7839 60.583 65.1459 62.487 65.1459C64.475 65.1459 65.525 66.5319 65.525 68.7859ZM64.251 68.4919V68.4079C64.251 66.9659 63.677 66.1679 62.515 66.1679C61.535 66.1679 60.891 66.8539 60.793 68.4919H64.251ZM72.6203 70.9699C72.6203 71.6139 72.8583 71.8239 73.2363 71.9639L72.9423 72.8599C72.2003 72.7759 71.7243 72.4819 71.5003 71.7539C70.9823 72.5239 70.1983 72.8599 69.3023 72.8599C67.8323 72.8599 66.9503 71.9499 66.9503 70.6339C66.9503 69.0519 68.1403 68.1979 70.1983 68.1979H71.3323V67.6519C71.3323 66.5879 70.8143 66.1959 69.7923 66.1959C69.2463 66.1959 68.5603 66.3359 67.8043 66.5879L67.4823 65.6499C68.3923 65.3139 69.2043 65.1459 70.0303 65.1459C71.8083 65.1459 72.6203 66.0559 72.6203 67.5959V70.9699ZM69.5963 71.8939C70.3523 71.8939 70.9123 71.5159 71.3323 70.7459V69.0519H70.3663C69.0083 69.0519 68.3223 69.5559 68.3223 70.5639C68.3223 71.4319 68.7563 71.8939 69.5963 71.8939ZM78.4715 65.1459C78.7095 65.1459 78.9755 65.1739 79.1995 65.2299L78.9615 66.4899C78.7375 66.4339 78.5835 66.4059 78.3175 66.4059C77.3935 66.4059 76.8615 67.0639 76.5535 68.4779V72.6919H75.2655V65.3139H76.3715L76.4975 66.8119C76.8895 65.7059 77.5755 65.1459 78.4715 65.1459ZM83.2172 65.1459C84.0852 65.1459 84.7852 65.3699 85.4712 65.9439L84.8552 66.7559C84.3512 66.3919 83.8892 66.2099 83.2732 66.2099C82.1112 66.2099 81.3832 67.1199 81.3832 69.0379C81.3832 70.9699 82.1112 71.7679 83.2732 71.7679C83.8892 71.7679 84.3232 71.5719 84.8832 71.2079L85.4712 72.0479C84.8132 72.5799 84.0712 72.8599 83.2172 72.8599C81.2292 72.8599 79.9972 71.4459 79.9972 69.0659C79.9972 66.7139 81.2152 65.1459 83.2172 65.1459ZM90.6868 65.1459C92.0308 65.1459 92.8288 66.0139 92.8288 67.3999V72.6919H91.5408V67.5819C91.5408 66.4759 91.0648 66.1539 90.3648 66.1539C89.5668 66.1539 88.9928 66.6719 88.5028 67.4419V72.6919H87.2148V62.3599L88.5028 62.2199V66.3359C89.0348 65.6079 89.7628 65.1459 90.6868 65.1459ZM101.657 62.1919C102.483 62.1919 103.099 62.3879 103.701 62.6959L103.253 63.5919C102.791 63.3679 102.273 63.2419 101.699 63.2419C100.663 63.2419 100.397 63.6339 100.397 64.3339V65.3139H104.513V72.6919H103.225V66.3079H100.397V72.6919H99.109V66.3079H97.933V65.3139H99.109V64.3479C99.109 63.1019 99.865 62.1919 101.657 62.1919ZM112.748 68.7859C112.748 69.0379 112.734 69.2759 112.72 69.4439H108.016C108.142 71.1519 108.94 71.8099 110.004 71.8099C110.732 71.8099 111.278 71.6139 111.922 71.1659L112.482 71.9359C111.754 72.5099 110.928 72.8599 109.906 72.8599C107.848 72.8599 106.644 71.4179 106.644 69.0799C106.644 66.7839 107.806 65.1459 109.71 65.1459C111.698 65.1459 112.748 66.5319 112.748 68.7859ZM111.474 68.4919V68.4079C111.474 66.9659 110.9 66.1679 109.738 66.1679C108.758 66.1679 108.114 66.8539 108.016 68.4919H111.474ZM116.343 72.8599C115.405 72.8599 114.803 72.2859 114.803 71.2359V62.3459L116.091 62.1919V71.2079C116.091 71.5999 116.217 71.7959 116.553 71.7959C116.735 71.7959 116.889 71.7679 117.029 71.7119L117.365 72.6079C117.085 72.7619 116.721 72.8599 116.343 72.8599ZM123.262 62.1919L124.55 62.3459V72.6919H123.416L123.29 71.6699C122.814 72.4119 122.072 72.8599 121.162 72.8599C119.37 72.8599 118.376 71.3339 118.376 69.0379C118.376 66.7839 119.468 65.1459 121.274 65.1459C122.142 65.1459 122.772 65.5379 123.262 66.0559V62.1919ZM121.442 71.8379C122.268 71.8379 122.772 71.4319 123.262 70.7459V67.1339C122.8 66.5459 122.282 66.1679 121.554 66.1679C120.448 66.1679 119.762 67.0919 119.762 69.0099C119.762 70.9559 120.378 71.8379 121.442 71.8379Z" fill="white"/>
</svg>
