<svg width="301" height="210" viewBox="0 0 301 210" fill="none" xmlns="http://www.w3.org/2000/svg">
<rect width="300" height="210" transform="translate(0.5)" fill="#121517"/>
<path d="M48.3608 104.008L269.198 104.008" stroke="#6A6A6A" stroke-width="3" stroke-linecap="round"/>
<rect x="106.728" y="95.7266" width="16.562" height="16.562" rx="8.28101" fill="#121517" stroke="white" stroke-width="2"/>
<path d="M49.07 67.4853C50.4 67.4853 51.24 67.8773 52.052 68.6053L51.324 69.4173C50.596 68.8293 49.924 68.5773 49.126 68.5773C48.16 68.5773 47.39 69.0253 47.39 69.9493C47.39 70.7613 47.768 71.1533 49.504 71.6853C51.044 72.1613 52.36 72.7633 52.36 74.6113C52.36 76.2913 51.086 77.4673 48.916 77.4673C47.53 77.4673 46.438 77.0053 45.64 76.2213L46.382 75.3953C47.096 75.9973 47.852 76.3753 48.902 76.3753C50.036 76.3753 50.974 75.8153 50.974 74.6533C50.974 73.7153 50.526 73.2953 48.888 72.7913C47.012 72.2173 46.032 71.5033 46.032 70.0053C46.032 68.5213 47.292 67.4853 49.07 67.4853ZM55.7189 77.4673C54.7809 77.4673 54.1789 76.8933 54.1789 75.8433V66.9533L55.4669 66.7993V75.8153C55.4669 76.2073 55.5929 76.4033 55.9289 76.4033C56.1109 76.4033 56.2649 76.3753 56.4049 76.3193L56.7409 77.2153C56.4609 77.3693 56.0969 77.4673 55.7189 77.4673ZM58.9805 66.3793C59.5265 66.3793 59.8905 66.7573 59.8905 67.2613C59.8905 67.7513 59.5265 68.1293 58.9805 68.1293C58.4485 68.1293 58.0845 67.7513 58.0845 67.2613C58.0845 66.7573 58.4485 66.3793 58.9805 66.3793ZM59.6385 69.9213V77.2993H58.3505V69.9213H59.6385ZM66.7257 66.7993L68.0137 66.9533V77.2993H66.8797L66.7537 76.2773C66.2777 77.0193 65.5357 77.4673 64.6257 77.4673C62.8337 77.4673 61.8397 75.9413 61.8397 73.6453C61.8397 71.3913 62.9317 69.7533 64.7377 69.7533C65.6057 69.7533 66.2357 70.1453 66.7257 70.6633V66.7993ZM64.9057 76.4453C65.7317 76.4453 66.2357 76.0393 66.7257 75.3533V71.7413C66.2637 71.1533 65.7457 70.7753 65.0177 70.7753C63.9117 70.7753 63.2257 71.6993 63.2257 73.6173C63.2257 75.5633 63.8417 76.4453 64.9057 76.4453ZM76.2409 73.3933C76.2409 73.6453 76.2269 73.8833 76.2129 74.0513H71.5089C71.6349 75.7593 72.4329 76.4173 73.4969 76.4173C74.2249 76.4173 74.7709 76.2213 75.4149 75.7733L75.9749 76.5433C75.2469 77.1173 74.4209 77.4673 73.3989 77.4673C71.3409 77.4673 70.1369 76.0253 70.1369 73.6873C70.1369 71.3913 71.2989 69.7533 73.2029 69.7533C75.1909 69.7533 76.2409 71.1393 76.2409 73.3933ZM74.9669 73.0993V73.0153C74.9669 71.5733 74.3929 70.7753 73.2309 70.7753C72.2509 70.7753 71.6069 71.4613 71.5089 73.0993H74.9669ZM81.5721 69.7533C81.8101 69.7533 82.0761 69.7813 82.3001 69.8373L82.0621 71.0973C81.8381 71.0413 81.6841 71.0133 81.4181 71.0133C80.4941 71.0133 79.9621 71.6713 79.6541 73.0853V77.2993H78.3661V69.9213H79.4721L79.5981 71.4193C79.9901 70.3133 80.6761 69.7533 81.5721 69.7533Z" fill="white"/>
</svg>
