<svg width="300" height="210" viewBox="0 0 300 210" fill="none" xmlns="http://www.w3.org/2000/svg">
<rect width="300" height="210" fill="#121517"/>
<rect x="23.5" y="26.5" width="253" height="157" fill="#1D1B1E" stroke="white"/>
<rect x="24" y="53.375" width="252" height="26" fill="#121517"/>
<rect x="24" y="79.25" width="252" height="26" fill="#272528"/>
<rect x="24" y="105.25" width="252" height="26" fill="#121517"/>
<rect x="24" y="131" width="252" height="26" fill="#272528"/>
<rect x="24" y="157" width="252" height="26" fill="#121517"/>
<path d="M58.726 35.588C60.168 35.588 61.148 36.022 61.988 36.806L61.008 37.94C60.322 37.38 59.65 37.128 58.866 37.128C58.026 37.128 57.452 37.492 57.452 38.178C57.452 38.85 57.816 39.13 59.398 39.62C61.148 40.18 62.268 40.908 62.268 42.7C62.268 44.478 60.868 45.724 58.516 45.724C56.906 45.724 55.73 45.15 54.932 44.366L55.996 43.204C56.696 43.806 57.466 44.17 58.46 44.17C59.454 44.17 60.126 43.694 60.126 42.84C60.126 42.07 59.748 41.734 58.278 41.286C56.178 40.628 55.338 39.788 55.338 38.318C55.338 36.666 56.766 35.588 58.726 35.588ZM69.5886 38.08L67.1946 45.514C66.6206 47.32 65.4586 48.426 63.1906 48.58L62.9806 47.152C64.4506 46.956 64.9546 46.508 65.3606 45.5H64.6746L62.3646 38.08H64.4786L65.9626 44.212L67.5306 38.08H69.5886ZM78.5586 37.856C79.7206 37.856 80.5186 38.696 80.5186 40.096V45.5H78.5306V40.432C78.5306 39.578 78.1946 39.34 77.8026 39.34C77.2566 39.34 76.8926 39.718 76.5146 40.376V45.5H74.5266V40.432C74.5266 39.578 74.2046 39.34 73.7986 39.34C73.2526 39.34 72.8886 39.718 72.5246 40.376V45.5H70.5366V38.08H72.2586L72.4126 39.004C72.9586 38.262 73.6306 37.856 74.5686 37.856C75.4086 37.856 76.0526 38.29 76.3466 39.074C76.9206 38.29 77.5926 37.856 78.5586 37.856ZM86.3798 37.856C88.1718 37.856 89.1658 39.312 89.1658 41.79C89.1658 44.086 88.0598 45.724 86.2258 45.724C85.3998 45.724 84.7418 45.36 84.2798 44.772L84.1678 45.5H82.4038V35.126L84.3918 34.902V38.878C84.8538 38.248 85.5818 37.856 86.3798 37.856ZM85.6798 44.254C86.5058 44.254 87.0938 43.596 87.0938 41.79C87.0938 39.858 86.5478 39.326 85.7638 39.326C85.1758 39.326 84.7278 39.718 84.3918 40.278V43.47C84.6998 43.96 85.1478 44.254 85.6798 44.254ZM93.8657 37.856C96.0777 37.856 97.4077 39.326 97.4077 41.79C97.4077 44.142 96.0777 45.724 93.8517 45.724C91.6397 45.724 90.2957 44.254 90.2957 41.79C90.2957 39.424 91.6257 37.856 93.8657 37.856ZM93.8657 39.34C92.8717 39.34 92.3677 40.096 92.3677 41.79C92.3677 43.498 92.8717 44.24 93.8517 44.24C94.8317 44.24 95.3357 43.484 95.3357 41.79C95.3357 40.082 94.8317 39.34 93.8657 39.34ZM100.767 45.724C99.5635 45.724 98.8495 44.996 98.8495 43.708V35.126L100.837 34.902V43.652C100.837 43.974 100.963 44.142 101.243 44.142C101.397 44.142 101.523 44.114 101.635 44.058L102.041 45.472C101.719 45.612 101.271 45.724 100.767 45.724Z" fill="white"/>
<path d="M61.288 70.875L60.56 68.453H56.906L56.178 70.875H54.834L57.928 61.229H59.608L62.688 70.875H61.288ZM57.228 67.375H60.238L58.74 62.335L57.228 67.375ZM69.3134 70.875L68.5854 68.453H64.9314L64.2034 70.875H62.8594L65.9534 61.229H67.6334L70.7134 70.875H69.3134ZM65.2534 67.375H68.2634L66.7654 62.335L65.2534 67.375ZM74.7348 61.229C77.0588 61.229 78.4868 62.181 78.4868 64.211C78.4868 66.423 76.8768 67.333 74.7488 67.333H73.5308V70.875H72.2008V61.229H74.7348ZM74.6928 66.283C76.1208 66.283 77.0728 65.863 77.0728 64.225C77.0728 62.783 76.1488 62.265 74.7208 62.265H73.5308V66.283H74.6928ZM81.6655 61.229V69.713H85.6275L85.4735 70.875H80.3355V61.229H81.6655Z" fill="white"/>
<path d="M176.192 61.369C177.914 61.369 179.006 62.475 179.006 63.931C179.006 65.681 177.886 66.927 175.016 69.797H179.23L179.076 70.875H173.546V69.853C176.85 66.409 177.662 65.513 177.662 63.987C177.662 63.007 177.032 62.433 176.122 62.433C175.338 62.433 174.82 62.741 174.218 63.455L173.35 62.783C174.106 61.845 175.016 61.369 176.192 61.369ZM183.838 61.369C185.938 61.369 186.974 63.105 186.974 66.199C186.974 69.307 185.938 71.043 183.838 71.043C181.738 71.043 180.702 69.307 180.702 66.199C180.702 63.091 181.738 61.369 183.838 61.369ZM183.838 62.391C182.662 62.391 182.046 63.455 182.046 66.199C182.046 68.957 182.662 70.021 183.838 70.021C185 70.021 185.63 68.957 185.63 66.199C185.63 63.455 185 62.391 183.838 62.391ZM193.8 61.509L193.618 62.517H189.964V65.275C190.454 65.023 190.958 64.911 191.462 64.911C193.044 64.911 194.122 66.017 194.122 67.879C194.122 69.741 192.82 71.043 190.874 71.043C189.684 71.043 188.83 70.595 188.102 69.853L188.886 69.097C189.446 69.699 190.048 69.993 190.86 69.993C192.036 69.993 192.778 69.223 192.778 67.851C192.778 66.409 192.036 65.905 191.07 65.905C190.566 65.905 190.188 66.017 189.74 66.227H188.732V61.509H193.8ZM196.418 69.097C196.978 69.097 197.398 69.531 197.398 70.063C197.398 70.609 196.978 71.043 196.418 71.043C195.872 71.043 195.452 70.609 195.452 70.063C195.452 69.531 195.872 69.097 196.418 69.097ZM204.177 61.509L203.995 62.517H200.341V65.275C200.831 65.023 201.335 64.911 201.839 64.911C203.421 64.911 204.499 66.017 204.499 67.879C204.499 69.741 203.197 71.043 201.251 71.043C200.061 71.043 199.207 70.595 198.479 69.853L199.263 69.097C199.823 69.699 200.425 69.993 201.237 69.993C202.413 69.993 203.155 69.223 203.155 67.851C203.155 66.409 202.413 65.905 201.447 65.905C200.943 65.905 200.565 66.017 200.117 66.227H199.109V61.509H204.177ZM208.321 61.369C210.043 61.369 211.135 62.475 211.135 63.931C211.135 65.681 210.015 66.927 207.145 69.797H211.359L211.205 70.875H205.675V69.853C208.979 66.409 209.791 65.513 209.791 63.987C209.791 63.007 209.161 62.433 208.251 62.433C207.467 62.433 206.949 62.741 206.347 63.455L205.479 62.783C206.235 61.845 207.145 61.369 208.321 61.369Z" fill="#79D362"/>
<path d="M59.678 86.936C60.98 86.936 61.778 87.314 62.604 88L61.82 88.812C61.148 88.266 60.574 88.028 59.706 88.028C58.32 88.028 56.934 89.078 56.934 91.92C56.934 94.692 57.872 95.826 59.566 95.826C60.21 95.826 60.854 95.7 61.4 95.378V92.48H59.692L59.538 91.402H62.716V96.064C61.834 96.582 60.826 96.918 59.468 96.918C57.074 96.918 55.52 95.252 55.52 91.92C55.52 88.672 57.508 86.936 59.678 86.936ZM68.426 86.936C70.848 86.936 72.5 88.686 72.5 91.934C72.5 95.126 70.848 96.918 68.426 96.918C66.018 96.918 64.352 95.182 64.352 91.948C64.352 88.77 66.018 86.936 68.426 86.936ZM68.426 88.028C66.816 88.028 65.766 89.162 65.766 91.948C65.766 94.734 66.858 95.826 68.426 95.826C70.05 95.826 71.086 94.734 71.086 91.934C71.086 89.162 70.078 88.028 68.426 88.028ZM78.1194 86.936C80.5414 86.936 82.1934 88.686 82.1934 91.934C82.1934 95.126 80.5414 96.918 78.1194 96.918C75.7114 96.918 74.0454 95.182 74.0454 91.948C74.0454 88.77 75.7114 86.936 78.1194 86.936ZM78.1194 88.028C76.5094 88.028 75.4594 89.162 75.4594 91.948C75.4594 94.734 76.5514 95.826 78.1194 95.826C79.7434 95.826 80.7794 94.734 80.7794 91.934C80.7794 89.162 79.7714 88.028 78.1194 88.028ZM87.8968 86.936C89.1988 86.936 89.9968 87.314 90.8228 88L90.0387 88.812C89.3668 88.266 88.7928 88.028 87.9248 88.028C86.5388 88.028 85.1528 89.078 85.1528 91.92C85.1528 94.692 86.0908 95.826 87.7848 95.826C88.4288 95.826 89.0728 95.7 89.6188 95.378V92.48H87.9108L87.7568 91.402H90.9348V96.064C90.0528 96.582 89.0448 96.918 87.6868 96.918C85.2928 96.918 83.7388 95.252 83.7388 91.92C83.7388 88.672 85.7268 86.936 87.8968 86.936Z" fill="white"/>
<path d="M177.522 87.384V96.75H176.234V88.756L174.05 90.086L173.49 89.176L176.388 87.384H177.522ZM183.369 90.59C184.741 90.59 185.959 91.57 185.959 93.572C185.959 95.616 184.629 96.918 182.977 96.918C180.695 96.918 179.827 95.042 179.827 92.354C179.827 89.288 181.157 87.244 183.369 87.244C184.125 87.244 184.755 87.454 185.301 87.818L184.797 88.672C184.363 88.406 183.873 88.266 183.355 88.266C181.997 88.266 181.185 89.68 181.115 91.822C181.731 90.954 182.487 90.59 183.369 90.59ZM182.977 95.896C184.083 95.896 184.657 94.986 184.657 93.614C184.657 92.13 184.027 91.612 183.145 91.612C182.305 91.612 181.605 92.13 181.129 92.9C181.185 94.944 181.731 95.896 182.977 95.896ZM189.713 87.244C191.435 87.244 192.527 88.35 192.527 89.806C192.527 91.556 191.407 92.802 188.537 95.672H192.751L192.597 96.75H187.067V95.728C190.371 92.284 191.183 91.388 191.183 89.862C191.183 88.882 190.553 88.308 189.643 88.308C188.859 88.308 188.341 88.616 187.739 89.33L186.871 88.658C187.627 87.72 188.537 87.244 189.713 87.244ZM195.119 94.972C195.679 94.972 196.099 95.406 196.099 95.938C196.099 96.484 195.679 96.918 195.119 96.918C194.573 96.918 194.153 96.484 194.153 95.938C194.153 95.406 194.573 94.972 195.119 94.972ZM200.008 87.244C201.73 87.244 202.822 88.35 202.822 89.806C202.822 91.556 201.702 92.802 198.832 95.672H203.046L202.892 96.75H197.362V95.728C200.666 92.284 201.478 91.388 201.478 89.862C201.478 88.882 200.848 88.308 199.938 88.308C199.154 88.308 198.636 88.616 198.034 89.33L197.166 88.658C197.922 87.72 198.832 87.244 200.008 87.244ZM207.374 87.244C209.39 87.244 210.398 88.686 210.398 90.884C210.398 94.762 208.858 96.064 205.414 97.058L205.12 96.092C207.472 95.42 208.97 94.342 209.068 92.228C208.662 92.858 207.92 93.348 206.968 93.348C205.512 93.348 204.378 92.2 204.378 90.338C204.378 88.378 205.75 87.244 207.374 87.244ZM207.234 92.34C208.032 92.34 208.634 91.892 209.096 91.178C209.138 89.064 208.564 88.266 207.402 88.266C206.31 88.266 205.68 89.022 205.68 90.366C205.68 91.71 206.324 92.34 207.234 92.34Z" fill="#79D362"/>
<path d="M58.53 112.936C59.86 112.936 60.7 113.328 61.512 114.056L60.784 114.868C60.056 114.28 59.384 114.028 58.586 114.028C57.62 114.028 56.85 114.476 56.85 115.4C56.85 116.212 57.228 116.604 58.964 117.136C60.504 117.612 61.82 118.214 61.82 120.062C61.82 121.742 60.546 122.918 58.376 122.918C56.99 122.918 55.898 122.456 55.1 121.672L55.842 120.846C56.556 121.448 57.312 121.826 58.362 121.826C59.496 121.826 60.434 121.266 60.434 120.104C60.434 119.166 59.986 118.746 58.348 118.242C56.472 117.668 55.492 116.954 55.492 115.456C55.492 113.972 56.752 112.936 58.53 112.936ZM66.3129 113.104C68.6369 113.104 70.0649 114.056 70.0649 116.086C70.0649 118.298 68.4549 119.208 66.3269 119.208H65.1089V122.75H63.7789V113.104H66.3129ZM66.2709 118.158C67.6989 118.158 68.6509 117.738 68.6509 116.1C68.6509 114.658 67.7269 114.14 66.2989 114.14H65.1089V118.158H66.2709ZM77.7198 113.104L74.6118 119.04V122.75H73.2678V119.054L70.1598 113.104H71.6298L73.9818 117.878L76.3338 113.104H77.7198Z" fill="white"/>
<path d="M179.062 113.384L178.88 114.392H175.226V117.15C175.716 116.898 176.22 116.786 176.724 116.786C178.306 116.786 179.384 117.892 179.384 119.754C179.384 121.616 178.082 122.918 176.136 122.918C174.946 122.918 174.092 122.47 173.364 121.728L174.148 120.972C174.708 121.574 175.31 121.868 176.122 121.868C177.298 121.868 178.04 121.098 178.04 119.726C178.04 118.284 177.298 117.78 176.332 117.78C175.828 117.78 175.45 117.892 175.002 118.102H173.994V113.384H179.062ZM187.042 119.418V120.44H185.824V122.75H184.578V120.44H180.574V119.516L183.388 113.244L184.466 113.692L181.932 119.418H184.592L184.704 116.898H185.824V119.418H187.042ZM191.987 113.384V122.75H190.699V114.756L188.515 116.086L187.955 115.176L190.853 113.384H191.987ZM195.187 120.972C195.747 120.972 196.167 121.406 196.167 121.938C196.167 122.484 195.747 122.918 195.187 122.918C194.641 122.918 194.221 122.484 194.221 121.938C194.221 121.406 194.641 120.972 195.187 120.972ZM201.197 116.59C202.569 116.59 203.787 117.57 203.787 119.572C203.787 121.616 202.457 122.918 200.805 122.918C198.523 122.918 197.655 121.042 197.655 118.354C197.655 115.288 198.985 113.244 201.197 113.244C201.953 113.244 202.583 113.454 203.129 113.818L202.625 114.672C202.191 114.406 201.701 114.266 201.183 114.266C199.825 114.266 199.013 115.68 198.943 117.822C199.559 116.954 200.315 116.59 201.197 116.59ZM200.805 121.896C201.911 121.896 202.485 120.986 202.485 119.614C202.485 118.13 201.855 117.612 200.973 117.612C200.133 117.612 199.433 118.13 198.957 118.9C199.013 120.944 199.559 121.896 200.805 121.896ZM208.174 113.384V122.75H206.886V114.756L204.702 116.086L204.142 115.176L207.04 113.384H208.174Z" fill="#79D362"/>
<path d="M62.912 138.854V148.5H61.134L57.214 140.31C57.284 141.108 57.396 142.284 57.396 144.076V148.5H56.15V138.854H57.886L61.848 147.058C61.82 146.834 61.666 145.294 61.666 144.118V138.854H62.912ZM72.0066 138.854L68.9266 148.5H67.4986L64.3906 138.854H65.8186L68.2406 147.058L70.6626 138.854H72.0066ZM75.5019 138.854C77.9659 138.854 80.3319 139.624 80.3319 143.628C80.3319 147.562 77.8819 148.5 75.7959 148.5H73.4859V138.854H75.5019ZM75.7959 139.918H74.8159V147.45H75.8939C77.4059 147.45 78.9179 146.806 78.9179 143.628C78.9179 140.366 77.3359 139.918 75.7959 139.918ZM87.2099 148.5L86.4819 146.078H82.8279L82.0999 148.5H80.7559L83.8499 138.854H85.5299L88.6099 148.5H87.2099ZM83.1499 145H86.1599L84.6619 139.96L83.1499 145Z" fill="white"/>
<path d="M177.522 139.134V148.5H176.234V140.506L174.05 141.836L173.49 140.926L176.388 139.134H177.522ZM183.579 139.134V148.5H182.291V140.506L180.107 141.836L179.547 140.926L182.445 139.134H183.579ZM189.635 139.134V148.5H188.347V140.506L186.163 141.836L185.603 140.926L188.501 139.134H189.635ZM192.836 146.722C193.396 146.722 193.816 147.156 193.816 147.688C193.816 148.234 193.396 148.668 192.836 148.668C192.29 148.668 191.87 148.234 191.87 147.688C191.87 147.156 192.29 146.722 192.836 146.722ZM200.595 139.134L200.413 140.142H196.759V142.9C197.249 142.648 197.753 142.536 198.257 142.536C199.839 142.536 200.917 143.642 200.917 145.504C200.917 147.366 199.615 148.668 197.669 148.668C196.479 148.668 195.625 148.22 194.897 147.478L195.681 146.722C196.241 147.324 196.843 147.618 197.655 147.618C198.831 147.618 199.573 146.848 199.573 145.476C199.573 144.034 198.831 143.53 197.865 143.53C197.361 143.53 196.983 143.642 196.535 143.852H195.527V139.134H200.595ZM208.575 145.168V146.19H207.357V148.5H206.111V146.19H202.107V145.266L204.921 138.994L205.999 139.442L203.465 145.168H206.125L206.237 142.648H207.357V145.168H208.575Z" fill="#79D362"/>
<path d="M62.912 164.854V174.5H61.134L57.214 166.31C57.284 167.108 57.396 168.284 57.396 170.076V174.5H56.15V164.854H57.886L61.848 173.058C61.82 172.834 61.666 171.294 61.666 170.118V164.854H62.912ZM70.8306 164.854L70.6766 165.918H67.0366V169.208H70.1866V170.258H67.0366V174.5H65.7066V164.854H70.8306ZM73.9136 164.854V173.338H77.8756L77.7216 174.5H72.5836V164.854H73.9136ZM82.7063 169.292L85.6463 174.5H84.1343L81.9083 170.23L79.6543 174.5H78.2263L81.1243 169.362L78.4783 164.854H79.9903L81.9363 168.48L83.8963 164.854H85.3243L82.7063 169.292Z" fill="white"/>
<path d="M176.626 164.994C178.642 164.994 179.65 166.436 179.65 168.634C179.65 172.512 178.11 173.814 174.666 174.808L174.372 173.842C176.724 173.17 178.222 172.092 178.32 169.978C177.914 170.608 177.172 171.098 176.22 171.098C174.764 171.098 173.63 169.95 173.63 168.088C173.63 166.128 175.002 164.994 176.626 164.994ZM176.486 170.09C177.284 170.09 177.886 169.642 178.348 168.928C178.39 166.814 177.816 166.016 176.654 166.016C175.562 166.016 174.932 166.772 174.932 168.116C174.932 169.46 175.576 170.09 176.486 170.09ZM183.369 164.994C185.161 164.994 186.141 166.114 186.141 167.374C186.141 168.564 185.371 169.278 184.321 169.53C185.497 169.642 186.435 170.384 186.435 171.798C186.435 173.436 185.189 174.668 183.243 174.668C182.123 174.668 181.143 174.262 180.429 173.408L181.199 172.694C181.815 173.338 182.445 173.618 183.201 173.618C184.377 173.618 185.091 172.89 185.091 171.784C185.091 170.496 184.363 170.104 183.229 170.104H182.529L182.683 169.11H183.159C184.083 169.11 184.853 168.55 184.853 167.458C184.853 166.576 184.237 166.03 183.299 166.03C182.557 166.03 181.997 166.282 181.367 166.87L180.695 166.1C181.493 165.358 182.361 164.994 183.369 164.994ZM191.517 168.34C192.889 168.34 194.107 169.32 194.107 171.322C194.107 173.366 192.777 174.668 191.125 174.668C188.843 174.668 187.975 172.792 187.975 170.104C187.975 167.038 189.305 164.994 191.517 164.994C192.273 164.994 192.903 165.204 193.449 165.568L192.945 166.422C192.511 166.156 192.021 166.016 191.503 166.016C190.145 166.016 189.333 167.43 189.263 169.572C189.879 168.704 190.635 168.34 191.517 168.34ZM191.125 173.646C192.231 173.646 192.805 172.736 192.805 171.364C192.805 169.88 192.175 169.362 191.293 169.362C190.453 169.362 189.753 169.88 189.277 170.65C189.333 172.694 189.879 173.646 191.125 173.646ZM196.336 172.722C196.896 172.722 197.316 173.156 197.316 173.688C197.316 174.234 196.896 174.668 196.336 174.668C195.79 174.668 195.37 174.234 195.37 173.688C195.37 173.156 195.79 172.722 196.336 172.722ZM200.874 165.134V174.5H199.586V166.506L197.402 167.836L196.842 166.926L199.74 165.134H200.874ZM206.72 168.34C208.092 168.34 209.31 169.32 209.31 171.322C209.31 173.366 207.98 174.668 206.328 174.668C204.046 174.668 203.178 172.792 203.178 170.104C203.178 167.038 204.508 164.994 206.72 164.994C207.476 164.994 208.106 165.204 208.652 165.568L208.148 166.422C207.714 166.156 207.224 166.016 206.706 166.016C205.348 166.016 204.536 167.43 204.466 169.572C205.082 168.704 205.838 168.34 206.72 168.34ZM206.328 173.646C207.434 173.646 208.008 172.736 208.008 171.364C208.008 169.88 207.378 169.362 206.496 169.362C205.656 169.362 204.956 169.88 204.48 170.65C204.536 172.694 205.082 173.646 206.328 173.646Z" fill="#79D362"/>
<path d="M177.018 35.812C179.482 35.812 180.994 36.82 180.994 38.934C180.994 41.174 179.398 42.196 177.186 42.196H176.08V45.5H174.022V35.812H177.018ZM177.018 40.684C178.152 40.684 178.866 40.25 178.866 38.934C178.866 37.8 178.194 37.296 176.99 37.296H176.08V40.684H177.018ZM186.142 37.87C186.408 37.87 186.632 37.912 186.884 37.982L186.548 39.9C186.324 39.844 186.142 39.802 185.89 39.802C184.98 39.802 184.56 40.474 184.294 41.678V45.5H182.306V38.08H184.028L184.21 39.522C184.56 38.486 185.274 37.87 186.142 37.87ZM188.851 34.258C189.565 34.258 190.069 34.762 190.069 35.42C190.069 36.078 189.565 36.582 188.851 36.582C188.137 36.582 187.647 36.078 187.647 35.42C187.647 34.762 188.137 34.258 188.851 34.258ZM189.859 38.08V45.5H187.871V38.08H189.859ZM194.916 37.856C195.91 37.856 196.68 38.15 197.38 38.752L196.512 39.928C196.036 39.564 195.602 39.396 195.056 39.396C194.062 39.396 193.474 40.11 193.474 41.832C193.474 43.554 194.104 44.128 195.042 44.128C195.588 44.128 195.966 43.96 196.512 43.61L197.38 44.856C196.708 45.402 195.924 45.724 194.944 45.724C192.732 45.724 191.374 44.212 191.374 41.846C191.374 39.494 192.746 37.856 194.916 37.856ZM204.643 41.622C204.643 41.874 204.615 42.182 204.601 42.392H199.967C200.107 43.82 200.779 44.24 201.731 44.24C202.361 44.24 202.893 44.044 203.537 43.596L204.363 44.716C203.635 45.304 202.711 45.724 201.549 45.724C199.169 45.724 197.923 44.156 197.923 41.832C197.923 39.592 199.127 37.856 201.297 37.856C203.397 37.856 204.643 39.256 204.643 41.622ZM202.669 41.146V41.062C202.669 39.942 202.291 39.214 201.339 39.214C200.555 39.214 200.079 39.732 199.967 41.146H202.669Z" fill="white"/>
</svg>
