<svg width="301" height="210" viewBox="0 0 301 210" fill="none" xmlns="http://www.w3.org/2000/svg">
<rect width="300" height="210" transform="translate(0.5)" fill="#121517"/>
<path d="M41.6167 111.008L262.454 111.008" stroke="#6A6A6A" stroke-width="3" stroke-linecap="round"/>
<path d="M41.6167 111.008L91.8318 111.008" stroke="white" stroke-width="3" stroke-linecap="round"/>
<path d="M57.6864 84.5063L57.5464 85.6403H54.8724V94.1523H53.5424V85.6403H50.7984V84.5063H57.6864ZM62.9997 92.4303C62.9997 93.0743 63.2377 93.2843 63.6157 93.4243L63.3217 94.3203C62.5797 94.2363 62.1037 93.9423 61.8797 93.2143C61.3617 93.9843 60.5777 94.3203 59.6817 94.3203C58.2117 94.3203 57.3297 93.4103 57.3297 92.0943C57.3297 90.5123 58.5197 89.6583 60.5777 89.6583H61.7117V89.1123C61.7117 88.0483 61.1937 87.6563 60.1717 87.6563C59.6257 87.6563 58.9397 87.7963 58.1837 88.0483L57.8617 87.1103C58.7717 86.7743 59.5837 86.6063 60.4097 86.6063C62.1877 86.6063 62.9997 87.5163 62.9997 89.0563V92.4303ZM59.9757 93.3543C60.7317 93.3543 61.2917 92.9763 61.7117 92.2063V90.5123H60.7457C59.3877 90.5123 58.7017 91.0163 58.7017 92.0243C58.7017 92.8923 59.1357 93.3543 59.9757 93.3543ZM69.0189 86.6063C70.6849 86.6063 71.7629 87.9923 71.7629 90.4563C71.7629 92.7663 70.6569 94.3203 68.8649 94.3203C68.0529 94.3203 67.4089 93.9563 66.9049 93.3403L66.7789 94.1523H65.6449V83.8063L66.9329 83.6523V87.6983C67.4369 87.0123 68.1229 86.6063 69.0189 86.6063ZM68.5569 93.2983C69.6349 93.2983 70.3769 92.4723 70.3769 90.4563C70.3769 88.3563 69.6909 87.6283 68.6549 87.6283C67.8429 87.6283 67.3109 88.1883 66.9329 88.7763V92.3043C67.3109 92.8923 67.8989 93.2983 68.5569 93.2983ZM80.8545 84.7863V94.1523H79.5665V86.1583L77.3825 87.4883L76.8225 86.5783L79.7205 84.7863H80.8545Z" fill="white"/>
<path d="M148.036 84.5063L147.896 85.6403H145.222V94.1523H143.892V85.6403H141.148V84.5063H148.036ZM153.349 92.4303C153.349 93.0743 153.587 93.2843 153.965 93.4243L153.671 94.3203C152.929 94.2363 152.453 93.9423 152.229 93.2143C151.711 93.9843 150.927 94.3203 150.031 94.3203C148.561 94.3203 147.679 93.4103 147.679 92.0943C147.679 90.5123 148.869 89.6583 150.927 89.6583H152.061V89.1123C152.061 88.0483 151.543 87.6563 150.521 87.6563C149.975 87.6563 149.289 87.7963 148.533 88.0483L148.211 87.1103C149.121 86.7743 149.933 86.6063 150.759 86.6063C152.537 86.6063 153.349 87.5163 153.349 89.0563V92.4303ZM150.325 93.3543C151.081 93.3543 151.641 92.9763 152.061 92.2063V90.5123H151.095C149.737 90.5123 149.051 91.0163 149.051 92.0243C149.051 92.8923 149.485 93.3543 150.325 93.3543ZM159.369 86.6063C161.035 86.6063 162.113 87.9923 162.113 90.4563C162.113 92.7663 161.007 94.3203 159.215 94.3203C158.403 94.3203 157.759 93.9563 157.255 93.3403L157.129 94.1523H155.995V83.8063L157.283 83.6523V87.6983C157.787 87.0123 158.473 86.6063 159.369 86.6063ZM158.907 93.2983C159.985 93.2983 160.727 92.4723 160.727 90.4563C160.727 88.3563 160.041 87.6283 159.005 87.6283C158.193 87.6283 157.661 88.1883 157.283 88.7763V92.3043C157.661 92.8923 158.249 93.2983 158.907 93.2983ZM169.874 84.6463C171.596 84.6463 172.688 85.7523 172.688 87.2083C172.688 88.9583 171.568 90.2043 168.698 93.0743H172.912L172.758 94.1523H167.228V93.1303C170.532 89.6863 171.344 88.7903 171.344 87.2643C171.344 86.2843 170.714 85.7103 169.804 85.7103C169.02 85.7103 168.502 86.0183 167.9 86.7323L167.032 86.0603C167.788 85.1223 168.698 84.6463 169.874 84.6463Z" fill="white"/>
<path d="M222.386 84.5063L222.246 85.6403H219.572V94.1523H218.242V85.6403H215.498V84.5063H222.386ZM227.699 92.4303C227.699 93.0743 227.937 93.2843 228.315 93.4243L228.021 94.3203C227.279 94.2363 226.803 93.9423 226.579 93.2143C226.061 93.9843 225.277 94.3203 224.381 94.3203C222.911 94.3203 222.029 93.4103 222.029 92.0943C222.029 90.5123 223.219 89.6583 225.277 89.6583H226.411V89.1123C226.411 88.0483 225.893 87.6563 224.871 87.6563C224.325 87.6563 223.639 87.7963 222.883 88.0483L222.561 87.1103C223.471 86.7743 224.283 86.6063 225.109 86.6063C226.887 86.6063 227.699 87.5163 227.699 89.0563V92.4303ZM224.675 93.3543C225.431 93.3543 225.991 92.9763 226.411 92.2063V90.5123H225.445C224.087 90.5123 223.401 91.0163 223.401 92.0243C223.401 92.8923 223.835 93.3543 224.675 93.3543ZM233.719 86.6063C235.385 86.6063 236.463 87.9923 236.463 90.4563C236.463 92.7663 235.357 94.3203 233.565 94.3203C232.753 94.3203 232.109 93.9563 231.605 93.3403L231.479 94.1523H230.345V83.8063L231.633 83.6523V87.6983C232.137 87.0123 232.823 86.6063 233.719 86.6063ZM233.257 93.2983C234.335 93.2983 235.077 92.4723 235.077 90.4563C235.077 88.3563 234.391 87.6283 233.355 87.6283C232.543 87.6283 232.011 88.1883 231.633 88.7763V92.3043C232.011 92.8923 232.599 93.2983 233.257 93.2983ZM244.182 84.6463C245.974 84.6463 246.954 85.7663 246.954 87.0263C246.954 88.2163 246.184 88.9303 245.134 89.1823C246.31 89.2943 247.248 90.0363 247.248 91.4503C247.248 93.0883 246.002 94.3203 244.056 94.3203C242.936 94.3203 241.956 93.9143 241.242 93.0603L242.012 92.3463C242.628 92.9903 243.258 93.2703 244.014 93.2703C245.19 93.2703 245.904 92.5423 245.904 91.4363C245.904 90.1483 245.176 89.7563 244.042 89.7563H243.342L243.496 88.7623H243.972C244.896 88.7623 245.666 88.2023 245.666 87.1103C245.666 86.2283 245.05 85.6823 244.112 85.6823C243.37 85.6823 242.81 85.9343 242.18 86.5223L241.508 85.7523C242.306 85.0103 243.174 84.6463 244.182 84.6463Z" fill="white"/>
</svg>
