<svg width="300" height="210" viewBox="0 0 300 210" fill="none" xmlns="http://www.w3.org/2000/svg">
<rect width="300" height="210" fill="#121517"/>
<rect x="26.5632" y="91.1816" width="76.1138" height="27.6367" rx="3.5" fill="black" stroke="white"/>
<rect x="111.943" y="91.1816" width="76.1138" height="27.6367" rx="3.5" fill="black" stroke="white"/>
<rect x="197.323" y="91.1816" width="76.1138" height="27.6367" rx="3.5" fill="black" stroke="white"/>
<path d="M37.2701 99.994C39.0621 99.994 40.0421 101.114 40.0421 102.374C40.0421 103.564 39.2721 104.278 38.2221 104.53C39.3981 104.642 40.3361 105.384 40.3361 106.798C40.3361 108.436 39.0901 109.668 37.1441 109.668C36.0241 109.668 35.0441 109.262 34.3301 108.408L35.1001 107.694C35.7161 108.338 36.3461 108.618 37.1021 108.618C38.2781 108.618 38.9921 107.89 38.9921 106.784C38.9921 105.496 38.2641 105.104 37.1301 105.104H36.4301L36.5841 104.11H37.0601C37.9841 104.11 38.7541 103.55 38.7541 102.458C38.7541 101.576 38.1381 101.03 37.2001 101.03C36.4581 101.03 35.8981 101.282 35.2681 101.87L34.5961 101.1C35.3941 100.358 36.2621 99.994 37.2701 99.994ZM49.3475 101.954C49.5855 101.954 49.8515 101.982 50.0755 102.038L49.8375 103.298C49.6135 103.242 49.4595 103.214 49.1935 103.214C48.2695 103.214 47.7375 103.872 47.4295 105.286V109.5H46.1415V102.122H47.2475L47.3735 103.62C47.7655 102.514 48.4515 101.954 49.3475 101.954ZM57.0299 102.122V109.5H55.9239L55.8259 108.352C55.2659 109.248 54.5799 109.668 53.5299 109.668C52.2419 109.668 51.4719 108.856 51.4719 107.414V102.122H52.7599V107.274C52.7599 108.282 53.0959 108.66 53.8939 108.66C54.6919 108.66 55.2939 108.128 55.7419 107.386V102.122H57.0299ZM63.1624 101.954C64.5204 101.954 65.3044 102.808 65.3044 104.208V109.5H64.0164V104.39C64.0164 103.284 63.5684 102.962 62.8544 102.962C62.0284 102.962 61.4684 103.48 60.9784 104.264V109.5H59.6904V102.122H60.7964L60.9084 103.214C61.4124 102.458 62.1964 101.954 63.1624 101.954ZM71.3655 101.954C72.7235 101.954 73.5075 102.808 73.5075 104.208V109.5H72.2195V104.39C72.2195 103.284 71.7715 102.962 71.0575 102.962C70.2315 102.962 69.6715 103.48 69.1815 104.264V109.5H67.8935V102.122H68.9995L69.1115 103.214C69.6155 102.458 70.3995 101.954 71.3655 101.954ZM76.7266 98.58C77.2726 98.58 77.6366 98.958 77.6366 99.462C77.6366 99.952 77.2726 100.33 76.7266 100.33C76.1946 100.33 75.8306 99.952 75.8306 99.462C75.8306 98.958 76.1946 98.58 76.7266 98.58ZM77.3846 102.122V109.5H76.0966V102.122H77.3846ZM83.5198 101.954C84.8778 101.954 85.6618 102.808 85.6618 104.208V109.5H84.3738V104.39C84.3738 103.284 83.9258 102.962 83.2118 102.962C82.3858 102.962 81.8258 103.48 81.3358 104.264V109.5H80.0478V102.122H81.1538L81.2658 103.214C81.7698 102.458 82.5538 101.954 83.5198 101.954ZM93.8229 101.296L94.2009 102.458C93.5849 102.654 92.8849 102.682 92.0449 102.682C92.9129 103.074 93.3469 103.69 93.3469 104.544C93.3469 106 92.2969 107.05 90.5329 107.05C90.1969 107.05 89.9029 107.008 89.5949 106.91C89.3849 107.064 89.2309 107.33 89.2309 107.596C89.2309 107.932 89.4409 108.198 90.1969 108.198H91.3729C92.8849 108.198 93.8929 109.066 93.8929 110.242C93.8929 111.67 92.7169 112.482 90.4349 112.482C88.0269 112.482 87.2709 111.74 87.2709 110.242H88.4329C88.4329 111.082 88.8109 111.474 90.4349 111.474C92.0309 111.474 92.5909 111.068 92.5909 110.326C92.5909 109.626 92.0309 109.276 91.1069 109.276H89.9449C88.6289 109.276 88.0409 108.618 88.0409 107.876C88.0409 107.4 88.3209 106.924 88.8529 106.574C87.9989 106.126 87.6069 105.482 87.6069 104.53C87.6069 103.018 88.8249 101.954 90.4489 101.954C92.2829 101.996 92.9549 101.688 93.8229 101.296ZM90.4489 102.878C89.4549 102.878 88.9229 103.564 88.9229 104.53C88.9229 105.51 89.4689 106.196 90.4769 106.196C91.4849 106.196 92.0309 105.58 92.0309 104.516C92.0309 103.438 91.4989 102.878 90.4489 102.878Z" fill="white"/>
<path d="M121.15 99.994C122.942 99.994 123.922 101.114 123.922 102.374C123.922 103.564 123.152 104.278 122.102 104.53C123.278 104.642 124.216 105.384 124.216 106.798C124.216 108.436 122.97 109.668 121.024 109.668C119.904 109.668 118.924 109.262 118.21 108.408L118.98 107.694C119.596 108.338 120.226 108.618 120.982 108.618C122.158 108.618 122.872 107.89 122.872 106.784C122.872 105.496 122.144 105.104 121.01 105.104H120.31L120.464 104.11H120.94C121.864 104.11 122.634 103.55 122.634 102.458C122.634 101.576 122.018 101.03 121.08 101.03C120.338 101.03 119.778 101.282 119.148 101.87L118.476 101.1C119.274 100.358 120.142 99.994 121.15 99.994ZM132.023 101.954C133.059 101.954 133.829 102.262 134.529 102.794L133.983 103.606C133.325 103.186 132.751 102.976 132.065 102.976C131.225 102.976 130.707 103.354 130.707 103.942C130.707 104.544 131.099 104.824 132.289 105.132C133.843 105.524 134.739 106.14 134.739 107.428C134.739 108.968 133.325 109.668 131.827 109.668C130.581 109.668 129.685 109.262 129.041 108.702L129.727 107.918C130.315 108.366 131.001 108.632 131.799 108.632C132.765 108.632 133.381 108.212 133.381 107.512C133.381 106.784 133.017 106.504 131.589 106.126C129.993 105.706 129.363 105.02 129.363 103.984C129.363 102.808 130.497 101.954 132.023 101.954ZM139.791 108.282L140.281 109.164C139.791 109.5 139.259 109.668 138.629 109.668C137.383 109.668 136.641 108.94 136.641 107.568V103.116H135.353V102.122H136.641V100.456L137.929 100.302V102.122H139.679L139.539 103.116H137.929V107.512C137.929 108.254 138.167 108.604 138.811 108.604C139.133 108.604 139.427 108.506 139.791 108.282ZM144.25 101.954C146.35 101.954 147.526 103.466 147.526 105.804C147.526 108.086 146.322 109.668 144.236 109.668C142.136 109.668 140.946 108.156 140.946 105.818C140.946 103.536 142.15 101.954 144.25 101.954ZM144.25 102.99C143.018 102.99 142.332 103.886 142.332 105.818C142.332 107.736 143.004 108.632 144.236 108.632C145.468 108.632 146.14 107.736 146.14 105.804C146.14 103.886 145.468 102.99 144.25 102.99ZM153.042 101.954C155.002 101.954 155.772 103.48 155.772 105.804C155.772 108.044 154.778 109.668 152.874 109.668C152.076 109.668 151.418 109.402 150.942 108.828V112.328L149.654 112.482V102.122H150.76L150.858 103.116C151.404 102.36 152.202 101.954 153.042 101.954ZM152.566 108.618C153.742 108.618 154.386 107.736 154.386 105.804C154.386 103.886 153.826 102.976 152.72 102.976C151.936 102.976 151.334 103.536 150.942 104.124V107.722C151.32 108.296 151.894 108.618 152.566 108.618ZM161.355 101.954C163.315 101.954 164.085 103.48 164.085 105.804C164.085 108.044 163.091 109.668 161.187 109.668C160.389 109.668 159.731 109.402 159.255 108.828V112.328L157.967 112.482V102.122H159.073L159.171 103.116C159.717 102.36 160.515 101.954 161.355 101.954ZM160.879 108.618C162.055 108.618 162.699 107.736 162.699 105.804C162.699 103.886 162.139 102.976 161.033 102.976C160.249 102.976 159.647 103.536 159.255 104.124V107.722C159.633 108.296 160.207 108.618 160.879 108.618ZM171.851 105.594C171.851 105.846 171.837 106.084 171.823 106.252H167.119C167.245 107.96 168.043 108.618 169.107 108.618C169.835 108.618 170.381 108.422 171.025 107.974L171.585 108.744C170.857 109.318 170.031 109.668 169.009 109.668C166.951 109.668 165.747 108.226 165.747 105.888C165.747 103.592 166.909 101.954 168.813 101.954C170.801 101.954 171.851 103.34 171.851 105.594ZM170.577 105.3V105.216C170.577 103.774 170.003 102.976 168.841 102.976C167.861 102.976 167.217 103.662 167.119 105.3H170.577ZM178.4 99L179.688 99.154V109.5H178.554L178.428 108.478C177.952 109.22 177.21 109.668 176.3 109.668C174.508 109.668 173.514 108.142 173.514 105.846C173.514 103.592 174.606 101.954 176.412 101.954C177.28 101.954 177.91 102.346 178.4 102.864V99ZM176.58 108.646C177.406 108.646 177.91 108.24 178.4 107.554V103.942C177.938 103.354 177.42 102.976 176.692 102.976C175.586 102.976 174.9 103.9 174.9 105.818C174.9 107.764 175.516 108.646 176.58 108.646Z" fill="white"/>
<path d="M215.286 99.994C217.386 99.994 218.422 101.73 218.422 104.824C218.422 107.932 217.386 109.668 215.286 109.668C213.186 109.668 212.15 107.932 212.15 104.824C212.15 101.716 213.186 99.994 215.286 99.994ZM215.286 101.016C214.11 101.016 213.494 102.08 213.494 104.824C213.494 107.582 214.11 108.646 215.286 108.646C216.448 108.646 217.078 107.582 217.078 104.824C217.078 102.08 216.448 101.016 215.286 101.016ZM226.728 100.036C225.916 100.036 225.636 100.386 225.636 101.1V102.122H227.428L227.288 103.116H225.636V109.5H224.348V103.116H223.032V102.122H224.348V101.114C224.348 99.882 225.16 99 226.658 99C227.358 99 227.834 99.126 228.422 99.378L228.016 100.316C227.54 100.106 227.106 100.036 226.728 100.036ZM233.881 107.778C233.881 108.422 234.119 108.632 234.497 108.772L234.203 109.668C233.461 109.584 232.985 109.29 232.761 108.562C232.243 109.332 231.459 109.668 230.563 109.668C229.093 109.668 228.211 108.758 228.211 107.442C228.211 105.86 229.401 105.006 231.459 105.006H232.593V104.46C232.593 103.396 232.075 103.004 231.053 103.004C230.507 103.004 229.821 103.144 229.065 103.396L228.743 102.458C229.653 102.122 230.465 101.954 231.291 101.954C233.069 101.954 233.881 102.864 233.881 104.404V107.778ZM230.857 108.702C231.613 108.702 232.173 108.324 232.593 107.554V105.86H231.627C230.269 105.86 229.583 106.364 229.583 107.372C229.583 108.24 230.017 108.702 230.857 108.702ZM237.156 98.58C237.702 98.58 238.066 98.958 238.066 99.462C238.066 99.952 237.702 100.33 237.156 100.33C236.624 100.33 236.26 99.952 236.26 99.462C236.26 98.958 236.624 98.58 237.156 98.58ZM237.814 102.122V109.5H236.526V102.122H237.814ZM241.947 109.668C241.009 109.668 240.407 109.094 240.407 108.044V99.154L241.695 99V108.016C241.695 108.408 241.821 108.604 242.157 108.604C242.339 108.604 242.493 108.576 242.633 108.52L242.969 109.416C242.689 109.57 242.325 109.668 241.947 109.668ZM250.014 105.594C250.014 105.846 250 106.084 249.986 106.252H245.282C245.408 107.96 246.206 108.618 247.27 108.618C247.998 108.618 248.544 108.422 249.188 107.974L249.748 108.744C249.02 109.318 248.194 109.668 247.172 109.668C245.114 109.668 243.91 108.226 243.91 105.888C243.91 103.592 245.072 101.954 246.976 101.954C248.964 101.954 250.014 103.34 250.014 105.594ZM248.74 105.3V105.216C248.74 103.774 248.166 102.976 247.004 102.976C246.024 102.976 245.38 103.662 245.282 105.3H248.74ZM256.564 99L257.852 99.154V109.5H256.718L256.592 108.478C256.116 109.22 255.374 109.668 254.464 109.668C252.672 109.668 251.678 108.142 251.678 105.846C251.678 103.592 252.77 101.954 254.576 101.954C255.444 101.954 256.074 102.346 256.564 102.864V99ZM254.744 108.646C255.57 108.646 256.074 108.24 256.564 107.554V103.942C256.102 103.354 255.584 102.976 254.856 102.976C253.75 102.976 253.064 103.9 253.064 105.818C253.064 107.764 253.68 108.646 254.744 108.646Z" fill="white"/>
</svg>
