<svg width="301" height="210" viewBox="0 0 301 210" fill="none" xmlns="http://www.w3.org/2000/svg">
<rect width="300" height="210" transform="translate(0.25)" fill="#121517"/>
<path d="M106.024 112.5V105.717H99.9339V112.5H97.9389V98.031H99.9339V104.079H106.024V98.031H108.019V112.5H106.024ZM120.465 106.641C120.465 107.019 120.444 107.376 120.423 107.628H113.367C113.556 110.19 114.753 111.177 116.349 111.177C117.441 111.177 118.26 110.883 119.226 110.211L120.066 111.366C118.974 112.227 117.735 112.752 116.202 112.752C113.115 112.752 111.309 110.589 111.309 107.082C111.309 103.638 113.052 101.181 115.908 101.181C118.89 101.181 120.465 103.26 120.465 106.641ZM118.554 106.2V106.074C118.554 103.911 117.693 102.714 115.95 102.714C114.48 102.714 113.514 103.743 113.367 106.2H118.554ZM125.858 112.752C124.451 112.752 123.548 111.891 123.548 110.316V96.981L125.48 96.75V110.274C125.48 110.862 125.669 111.156 126.173 111.156C126.446 111.156 126.677 111.114 126.887 111.03L127.391 112.374C126.971 112.605 126.425 112.752 125.858 112.752ZM132.011 112.752C130.604 112.752 129.701 111.891 129.701 110.316V96.981L131.633 96.75V110.274C131.633 110.862 131.822 111.156 132.326 111.156C132.599 111.156 132.83 111.114 133.04 111.03L133.544 112.374C133.124 112.605 132.578 112.752 132.011 112.752ZM139.911 101.181C143.061 101.181 144.825 103.449 144.825 106.956C144.825 110.379 143.019 112.752 139.89 112.752C136.74 112.752 134.955 110.484 134.955 106.977C134.955 103.554 136.761 101.181 139.911 101.181ZM139.911 102.735C138.063 102.735 137.034 104.079 137.034 106.977C137.034 109.854 138.042 111.198 139.89 111.198C141.738 111.198 142.746 109.854 142.746 106.956C142.746 104.079 141.738 102.735 139.911 102.735ZM166.216 101.433L163.696 112.5H161.071L159.139 103.176L157.144 112.5H154.582L151.999 101.433H153.931L155.926 111.156L158.11 101.433H160.273L162.352 111.156L164.368 101.433H166.216ZM172.58 101.181C175.73 101.181 177.494 103.449 177.494 106.956C177.494 110.379 175.688 112.752 172.559 112.752C169.409 112.752 167.624 110.484 167.624 106.977C167.624 103.554 169.43 101.181 172.58 101.181ZM172.58 102.735C170.732 102.735 169.703 104.079 169.703 106.977C169.703 109.854 170.711 111.198 172.559 111.198C174.407 111.198 175.415 109.854 175.415 106.956C175.415 104.079 174.407 102.735 172.58 102.735ZM185.494 101.181C185.851 101.181 186.25 101.223 186.586 101.307L186.229 103.197C185.893 103.113 185.662 103.071 185.263 103.071C183.877 103.071 183.079 104.058 182.617 106.179V112.5H180.685V101.433H182.344L182.533 103.68C183.121 102.021 184.15 101.181 185.494 101.181ZM190.991 112.752C189.584 112.752 188.681 111.891 188.681 110.316V96.981L190.613 96.75V110.274C190.613 110.862 190.802 111.156 191.306 111.156C191.579 111.156 191.81 111.114 192.02 111.03L192.524 112.374C192.104 112.605 191.558 112.752 190.991 112.752ZM201.369 96.75L203.301 96.981V112.5H201.6L201.411 110.967C200.697 112.08 199.584 112.752 198.219 112.752C195.531 112.752 194.04 110.463 194.04 107.019C194.04 103.638 195.678 101.181 198.387 101.181C199.689 101.181 200.634 101.769 201.369 102.546V96.75ZM198.639 111.219C199.878 111.219 200.634 110.61 201.369 109.581V104.163C200.676 103.281 199.899 102.714 198.807 102.714C197.148 102.714 196.119 104.1 196.119 106.977C196.119 109.896 197.043 111.219 198.639 111.219ZM207.788 109.833C208.628 109.833 209.258 110.484 209.258 111.282C209.258 112.101 208.628 112.752 207.788 112.752C206.969 112.752 206.339 112.101 206.339 111.282C206.339 110.484 206.969 109.833 207.788 109.833Z" fill="white"/>
</svg>
