<svg width="301" height="210" viewBox="0 0 301 210" fill="none" xmlns="http://www.w3.org/2000/svg">
<rect width="300" height="210" transform="translate(0.5)" fill="#121517"/>
<rect x="45" y="52.2354" width="211" height="105.529" rx="3.5" fill="black" stroke="white"/>
<path d="M51.598 34.1103L51.458 35.2443H48.784V43.7563H47.454V35.2443H44.71V34.1103H51.598ZM57.5133 39.8503C57.5133 40.1023 57.4993 40.3403 57.4853 40.5083H52.7813C52.9073 42.2163 53.7053 42.8743 54.7693 42.8743C55.4973 42.8743 56.0433 42.6783 56.6873 42.2303L57.2473 43.0003C56.5193 43.5743 55.6933 43.9243 54.6713 43.9243C52.6133 43.9243 51.4093 42.4823 51.4093 40.1443C51.4093 37.8483 52.5713 36.2103 54.4753 36.2103C56.4633 36.2103 57.5133 37.5963 57.5133 39.8503ZM56.2393 39.5563V39.4723C56.2393 38.0303 55.6653 37.2323 54.5033 37.2323C53.5233 37.2323 52.8793 37.9183 52.7813 39.5563H56.2393ZM62.3299 39.8083L64.8919 43.7563H63.3379L61.5319 40.6343L59.6979 43.7563H58.2419L60.8179 39.8643L58.5359 36.3783H60.0479L61.5879 39.0803L63.1419 36.3783H64.5979L62.3299 39.8083ZM69.5308 42.5383L70.0208 43.4203C69.5308 43.7563 68.9988 43.9243 68.3688 43.9243C67.1228 43.9243 66.3808 43.1963 66.3808 41.8243V37.3723H65.0928V36.3783H66.3808V34.7123L67.6688 34.5583V36.3783H69.4188L69.2788 37.3723H67.6688V41.7683C67.6688 42.5103 67.9068 42.8603 68.5508 42.8603C68.8728 42.8603 69.1668 42.7623 69.5308 42.5383ZM80.0305 42.0343C80.0305 42.6783 80.2685 42.8883 80.6465 43.0283L80.3525 43.9243C79.6105 43.8403 79.1345 43.5463 78.9105 42.8183C78.3925 43.5883 77.6085 43.9243 76.7125 43.9243C75.2425 43.9243 74.3605 43.0143 74.3605 41.6983C74.3605 40.1163 75.5505 39.2623 77.6085 39.2623H78.7425V38.7163C78.7425 37.6523 78.2245 37.2603 77.2025 37.2603C76.6565 37.2603 75.9705 37.4003 75.2145 37.6523L74.8925 36.7143C75.8025 36.3783 76.6145 36.2103 77.4405 36.2103C79.2185 36.2103 80.0305 37.1203 80.0305 38.6603V42.0343ZM77.0065 42.9583C77.7625 42.9583 78.3225 42.5803 78.7425 41.8103V40.1163H77.7765C76.4185 40.1163 75.7325 40.6203 75.7325 41.6283C75.7325 42.4963 76.1665 42.9583 77.0065 42.9583ZM85.8817 36.2103C86.1197 36.2103 86.3857 36.2383 86.6097 36.2943L86.3717 37.5543C86.1477 37.4983 85.9937 37.4703 85.7277 37.4703C84.8037 37.4703 84.2717 38.1283 83.9637 39.5423V43.7563H82.6757V36.3783H83.7817L83.9077 37.8763C84.2997 36.7703 84.9857 36.2103 85.8817 36.2103ZM93.5114 39.8503C93.5114 40.1023 93.4974 40.3403 93.4834 40.5083H88.7794C88.9054 42.2163 89.7034 42.8743 90.7674 42.8743C91.4954 42.8743 92.0414 42.6783 92.6854 42.2303L93.2454 43.0003C92.5174 43.5743 91.6914 43.9243 90.6694 43.9243C88.6114 43.9243 87.4074 42.4823 87.4074 40.1443C87.4074 37.8483 88.5694 36.2103 90.4734 36.2103C92.4614 36.2103 93.5114 37.5963 93.5114 39.8503ZM92.2374 39.5563V39.4723C92.2374 38.0303 91.6634 37.2323 90.5014 37.2323C89.5214 37.2323 88.8774 37.9183 88.7794 39.5563H92.2374ZM100.607 42.0343C100.607 42.6783 100.845 42.8883 101.223 43.0283L100.929 43.9243C100.187 43.8403 99.7106 43.5463 99.4866 42.8183C98.9686 43.5883 98.1846 43.9243 97.2886 43.9243C95.8186 43.9243 94.9366 43.0143 94.9366 41.6983C94.9366 40.1163 96.1266 39.2623 98.1846 39.2623H99.3186V38.7163C99.3186 37.6523 98.8006 37.2603 97.7786 37.2603C97.2326 37.2603 96.5466 37.4003 95.7906 37.6523L95.4686 36.7143C96.3786 36.3783 97.1906 36.2103 98.0166 36.2103C99.7946 36.2103 100.607 37.1203 100.607 38.6603V42.0343ZM97.5826 42.9583C98.3386 42.9583 98.8986 42.5803 99.3186 41.8103V40.1163H98.3526C96.9946 40.1163 96.3086 40.6203 96.3086 41.6283C96.3086 42.4963 96.7426 42.9583 97.5826 42.9583Z" fill="white"/>
<path d="M59.1 78.9723C57.894 78.9723 57.12 78.2343 57.12 76.8843V65.4543L58.776 65.2563V76.8483C58.776 77.3523 58.938 77.6043 59.37 77.6043C59.604 77.6043 59.802 77.5683 59.982 77.4963L60.414 78.6483C60.054 78.8463 59.586 78.9723 59.1 78.9723ZM65.8717 69.0543C68.5717 69.0543 70.0837 70.9983 70.0837 74.0043C70.0837 76.9383 68.5357 78.9723 65.8537 78.9723C63.1537 78.9723 61.6237 77.0283 61.6237 74.0223C61.6237 71.0883 63.1717 69.0543 65.8717 69.0543ZM65.8717 70.3863C64.2877 70.3863 63.4057 71.5383 63.4057 74.0223C63.4057 76.4883 64.2697 77.6403 65.8537 77.6403C67.4377 77.6403 68.3017 76.4883 68.3017 74.0043C68.3017 71.5383 67.4377 70.3863 65.8717 70.3863ZM76.9414 69.0543C77.2474 69.0543 77.5894 69.0903 77.8774 69.1623L77.5714 70.7823C77.2834 70.7103 77.0854 70.6743 76.7434 70.6743C75.5554 70.6743 74.8714 71.5203 74.4754 73.3383V78.7563H72.8194V69.2703H74.2414L74.4034 71.1963C74.9074 69.7743 75.7894 69.0543 76.9414 69.0543ZM86.751 73.7343C86.751 74.0583 86.733 74.3643 86.715 74.5803H80.667C80.829 76.7763 81.855 77.6223 83.223 77.6223C84.159 77.6223 84.861 77.3703 85.689 76.7943L86.409 77.7843C85.473 78.5223 84.411 78.9723 83.097 78.9723C80.451 78.9723 78.903 77.1183 78.903 74.1123C78.903 71.1603 80.397 69.0543 82.845 69.0543C85.401 69.0543 86.751 70.8363 86.751 73.7343ZM85.113 73.3563V73.2483C85.113 71.3943 84.375 70.3683 82.881 70.3683C81.621 70.3683 80.793 71.2503 80.667 73.3563H85.113ZM99.0054 69.0543C100.553 69.0543 101.579 70.1703 101.579 71.9523V78.7563H99.9234V72.1863C99.9234 70.7643 99.3114 70.3503 98.5914 70.3503C97.5654 70.3503 97.0074 71.0163 96.3594 72.0243V78.7563H94.7034V72.1863C94.7034 70.7643 94.0914 70.3503 93.3714 70.3503C92.3454 70.3503 91.7694 71.0163 91.1394 72.0243V78.7563H89.4834V69.2703H90.9054L91.0494 70.6563C91.6794 69.7023 92.5434 69.0543 93.7854 69.0543C94.9554 69.0543 95.8194 69.6843 96.1794 70.7643C96.8634 69.7383 97.7274 69.0543 99.0054 69.0543ZM110.491 64.7163C111.193 64.7163 111.661 65.2023 111.661 65.8503C111.661 66.4803 111.193 66.9663 110.491 66.9663C109.807 66.9663 109.339 66.4803 109.339 65.8503C109.339 65.2023 109.807 64.7163 110.491 64.7163ZM111.337 69.2703V78.7563H109.681V69.2703H111.337ZM119.117 69.0543C121.637 69.0543 122.627 71.0163 122.627 74.0043C122.627 76.8843 121.349 78.9723 118.901 78.9723C117.875 78.9723 117.029 78.6303 116.417 77.8923V82.3923L114.761 82.5903V69.2703H116.183L116.309 70.5483C117.011 69.5763 118.037 69.0543 119.117 69.0543ZM118.505 77.6223C120.017 77.6223 120.845 76.4883 120.845 74.0043C120.845 71.5383 120.125 70.3683 118.703 70.3683C117.695 70.3683 116.921 71.0883 116.417 71.8443V76.4703C116.903 77.2083 117.641 77.6223 118.505 77.6223ZM128.022 69.0543C129.354 69.0543 130.344 69.4503 131.244 70.1343L130.542 71.1783C129.696 70.6383 128.958 70.3683 128.076 70.3683C126.996 70.3683 126.33 70.8543 126.33 71.6103C126.33 72.3843 126.834 72.7443 128.364 73.1403C130.362 73.6443 131.514 74.4363 131.514 76.0923C131.514 78.0723 129.696 78.9723 127.77 78.9723C126.168 78.9723 125.016 78.4503 124.188 77.7303L125.07 76.7223C125.826 77.2983 126.708 77.6403 127.734 77.6403C128.976 77.6403 129.768 77.1003 129.768 76.2003C129.768 75.2643 129.3 74.9043 127.464 74.4183C125.412 73.8783 124.602 72.9963 124.602 71.6643C124.602 70.1523 126.06 69.0543 128.022 69.0543Z" fill="white"/>
<line x1="135.656" y1="59.7563" x2="135.656" y2="84.7563" stroke="white"/>
</svg>
