<svg width="301" height="210" viewBox="0 0 301 210" fill="none" xmlns="http://www.w3.org/2000/svg">
<rect width="300" height="210" transform="translate(0.75)" fill="#121517"/>
<rect x="45.25" y="82.5" width="211" height="45" rx="3.5" fill="black" stroke="white"/>
<path d="M51.848 61.1103L51.708 62.2443H49.034V70.7563H47.704V62.2443H44.96V61.1103H51.848ZM57.7633 66.8503C57.7633 67.1023 57.7493 67.3403 57.7353 67.5083H53.0313C53.1573 69.2163 53.9553 69.8743 55.0193 69.8743C55.7473 69.8743 56.2933 69.6783 56.9373 69.2303L57.4973 70.0003C56.7693 70.5743 55.9433 70.9243 54.9213 70.9243C52.8633 70.9243 51.6593 69.4823 51.6593 67.1443C51.6593 64.8483 52.8213 63.2103 54.7253 63.2103C56.7133 63.2103 57.7633 64.5963 57.7633 66.8503ZM56.4893 66.5563V66.4723C56.4893 65.0303 55.9153 64.2323 54.7533 64.2323C53.7733 64.2323 53.1293 64.9183 53.0313 66.5563H56.4893ZM62.5799 66.8083L65.1419 70.7563H63.5879L61.7819 67.6343L59.9479 70.7563H58.4919L61.0679 66.8643L58.7859 63.3783H60.2979L61.8379 66.0803L63.3919 63.3783H64.8479L62.5799 66.8083ZM69.7808 69.5383L70.2708 70.4203C69.7808 70.7563 69.2488 70.9243 68.6188 70.9243C67.3728 70.9243 66.6308 70.1963 66.6308 68.8243V64.3723H65.3428V63.3783H66.6308V61.7123L67.9188 61.5583V63.3783H69.6688L69.5288 64.3723H67.9188V68.7683C67.9188 69.5103 68.1568 69.8603 68.8008 69.8603C69.1228 69.8603 69.4168 69.7623 69.7808 69.5383ZM77.8445 60.2563C78.6705 60.2563 79.2865 60.4523 79.8885 60.7603L79.4405 61.6563C78.9785 61.4323 78.4605 61.3063 77.8865 61.3063C76.8505 61.3063 76.5845 61.6983 76.5845 62.3983V63.3783H80.7005V70.7563H79.4125V64.3723H76.5845V70.7563H75.2965V64.3723H74.1205V63.3783H75.2965V62.4123C75.2965 61.1663 76.0525 60.2563 77.8445 60.2563ZM88.9352 66.8503C88.9352 67.1023 88.9212 67.3403 88.9072 67.5083H84.2032C84.3292 69.2163 85.1272 69.8743 86.1912 69.8743C86.9192 69.8743 87.4652 69.6783 88.1092 69.2303L88.6692 70.0003C87.9412 70.5743 87.1152 70.9243 86.0932 70.9243C84.0352 70.9243 82.8312 69.4823 82.8312 67.1443C82.8312 64.8483 83.9932 63.2103 85.8972 63.2103C87.8852 63.2103 88.9352 64.5963 88.9352 66.8503ZM87.6612 66.5563V66.4723C87.6612 65.0303 87.0872 64.2323 85.9252 64.2323C84.9452 64.2323 84.3012 64.9183 84.2032 66.5563H87.6612ZM92.5305 70.9243C91.5925 70.9243 90.9905 70.3503 90.9905 69.3003V60.4103L92.2785 60.2563V69.2723C92.2785 69.6643 92.4045 69.8603 92.7405 69.8603C92.9225 69.8603 93.0765 69.8323 93.2165 69.7763L93.5525 70.6723C93.2725 70.8263 92.9085 70.9243 92.5305 70.9243ZM99.4493 60.2563L100.737 60.4103V70.7563H99.6033L99.4773 69.7343C99.0013 70.4763 98.2593 70.9243 97.3493 70.9243C95.5573 70.9243 94.5633 69.3983 94.5633 67.1023C94.5633 64.8483 95.6553 63.2103 97.4613 63.2103C98.3293 63.2103 98.9593 63.6023 99.4493 64.1203V60.2563ZM97.6293 69.9023C98.4553 69.9023 98.9593 69.4963 99.4493 68.8103V65.1983C98.9873 64.6103 98.4693 64.2323 97.7413 64.2323C96.6353 64.2323 95.9493 65.1563 95.9493 67.0743C95.9493 69.0203 96.5653 69.9023 97.6293 69.9023Z" fill="white"/>
<path d="M59.35 110.972C58.144 110.972 57.37 110.234 57.37 108.884V97.4543L59.026 97.2563V108.848C59.026 109.352 59.188 109.604 59.62 109.604C59.854 109.604 60.052 109.568 60.232 109.496L60.664 110.648C60.304 110.846 59.836 110.972 59.35 110.972ZM66.1217 101.054C68.8217 101.054 70.3337 102.998 70.3337 106.004C70.3337 108.938 68.7857 110.972 66.1037 110.972C63.4037 110.972 61.8737 109.028 61.8737 106.022C61.8737 103.088 63.4217 101.054 66.1217 101.054ZM66.1217 102.386C64.5377 102.386 63.6557 103.538 63.6557 106.022C63.6557 108.488 64.5197 109.64 66.1037 109.64C67.6877 109.64 68.5517 108.488 68.5517 106.004C68.5517 103.538 67.6877 102.386 66.1217 102.386ZM77.1914 101.054C77.4974 101.054 77.8394 101.09 78.1274 101.162L77.8214 102.782C77.5334 102.71 77.3354 102.674 76.9934 102.674C75.8054 102.674 75.1214 103.52 74.7254 105.338V110.756H73.0694V101.27H74.4914L74.6534 103.196C75.1574 101.774 76.0394 101.054 77.1914 101.054ZM87.001 105.734C87.001 106.058 86.983 106.364 86.965 106.58H80.917C81.079 108.776 82.105 109.622 83.473 109.622C84.409 109.622 85.111 109.37 85.939 108.794L86.659 109.784C85.723 110.522 84.661 110.972 83.347 110.972C80.701 110.972 79.153 109.118 79.153 106.112C79.153 103.16 80.647 101.054 83.095 101.054C85.651 101.054 87.001 102.836 87.001 105.734ZM85.363 105.356V105.248C85.363 103.394 84.625 102.368 83.131 102.368C81.871 102.368 81.043 103.25 80.917 105.356H85.363ZM99.2554 101.054C100.803 101.054 101.829 102.17 101.829 103.952V110.756H100.173V104.186C100.173 102.764 99.5614 102.35 98.8414 102.35C97.8154 102.35 97.2574 103.016 96.6094 104.024V110.756H94.9534V104.186C94.9534 102.764 94.3414 102.35 93.6214 102.35C92.5954 102.35 92.0194 103.016 91.3894 104.024V110.756H89.7334V101.27H91.1554L91.2994 102.656C91.9294 101.702 92.7934 101.054 94.0354 101.054C95.2054 101.054 96.0694 101.684 96.4294 102.764C97.1134 101.738 97.9774 101.054 99.2554 101.054ZM110.741 96.7163C111.443 96.7163 111.911 97.2023 111.911 97.8503C111.911 98.4803 111.443 98.9663 110.741 98.9663C110.057 98.9663 109.589 98.4803 109.589 97.8503C109.589 97.2023 110.057 96.7163 110.741 96.7163ZM111.587 101.27V110.756H109.931V101.27H111.587ZM119.367 101.054C121.887 101.054 122.877 103.016 122.877 106.004C122.877 108.884 121.599 110.972 119.151 110.972C118.125 110.972 117.279 110.63 116.667 109.892V114.392L115.011 114.59V101.27H116.433L116.559 102.548C117.261 101.576 118.287 101.054 119.367 101.054ZM118.755 109.622C120.267 109.622 121.095 108.488 121.095 106.004C121.095 103.538 120.375 102.368 118.953 102.368C117.945 102.368 117.171 103.088 116.667 103.844V108.47C117.153 109.208 117.891 109.622 118.755 109.622ZM128.272 101.054C129.604 101.054 130.594 101.45 131.494 102.134L130.792 103.178C129.946 102.638 129.208 102.368 128.326 102.368C127.246 102.368 126.58 102.854 126.58 103.61C126.58 104.384 127.084 104.744 128.614 105.14C130.612 105.644 131.764 106.436 131.764 108.092C131.764 110.072 129.946 110.972 128.02 110.972C126.418 110.972 125.266 110.45 124.438 109.73L125.32 108.722C126.076 109.298 126.958 109.64 127.984 109.64C129.226 109.64 130.018 109.1 130.018 108.2C130.018 107.264 129.55 106.904 127.714 106.418C125.662 105.878 124.852 104.996 124.852 103.664C124.852 102.152 126.31 101.054 128.272 101.054Z" fill="white"/>
<line x1="135.906" y1="91.7563" x2="135.906" y2="116.756" stroke="white"/>
</svg>
