<svg width="300" height="210" viewBox="0 0 300 210" fill="none" xmlns="http://www.w3.org/2000/svg">
<rect width="300" height="210" fill="#121517"/>
<rect x="44.5" y="82.5" width="211" height="45" rx="3.5" fill="black" stroke="white"/>
<path d="M51.098 61.1103L50.958 62.2443H48.284V70.7563H46.954V62.2443H44.21V61.1103H51.098ZM53.6163 59.8363C54.1623 59.8363 54.5263 60.2143 54.5263 60.7183C54.5263 61.2083 54.1623 61.5863 53.6163 61.5863C53.0843 61.5863 52.7203 61.2083 52.7203 60.7183C52.7203 60.2143 53.0843 59.8363 53.6163 59.8363ZM54.2743 63.3783V70.7563H52.9863V63.3783H54.2743ZM64.3434 63.2103C65.5474 63.2103 66.3454 64.0783 66.3454 65.4643V70.7563H65.0574V65.6463C65.0574 64.5403 64.5814 64.2183 64.0214 64.2183C63.2234 64.2183 62.7894 64.7363 62.2854 65.5203V70.7563H60.9974V65.6463C60.9974 64.5403 60.5214 64.2183 59.9614 64.2183C59.1634 64.2183 58.7154 64.7363 58.2254 65.5203V70.7563H56.9374V63.3783H58.0434L58.1554 64.4563C58.6454 63.7143 59.3174 63.2103 60.2834 63.2103C61.1934 63.2103 61.8654 63.7003 62.1454 64.5403C62.6774 63.7423 63.3494 63.2103 64.3434 63.2103ZM74.5133 66.8503C74.5133 67.1023 74.4993 67.3403 74.4853 67.5083H69.7813C69.9073 69.2163 70.7053 69.8743 71.7693 69.8743C72.4973 69.8743 73.0433 69.6783 73.6873 69.2303L74.2473 70.0003C73.5193 70.5743 72.6933 70.9243 71.6713 70.9243C69.6133 70.9243 68.4093 69.4823 68.4093 67.1443C68.4093 64.8483 69.5713 63.2103 71.4753 63.2103C73.4633 63.2103 74.5133 64.5963 74.5133 66.8503ZM73.2393 66.5563V66.4723C73.2393 65.0303 72.6653 64.2323 71.5033 64.2323C70.5233 64.2323 69.8793 64.9183 69.7813 66.5563H73.2393ZM82.8777 60.2563C83.7037 60.2563 84.3197 60.4523 84.9217 60.7603L84.4737 61.6563C84.0117 61.4323 83.4937 61.3063 82.9197 61.3063C81.8837 61.3063 81.6177 61.6983 81.6177 62.3983V63.3783H85.7337V70.7563H84.4457V64.3723H81.6177V70.7563H80.3297V64.3723H79.1537V63.3783H80.3297V62.4123C80.3297 61.1663 81.0857 60.2563 82.8777 60.2563ZM93.9684 66.8503C93.9684 67.1023 93.9544 67.3403 93.9404 67.5083H89.2364C89.3624 69.2163 90.1604 69.8743 91.2244 69.8743C91.9524 69.8743 92.4984 69.6783 93.1424 69.2303L93.7024 70.0003C92.9744 70.5743 92.1484 70.9243 91.1264 70.9243C89.0684 70.9243 87.8644 69.4823 87.8644 67.1443C87.8644 64.8483 89.0264 63.2103 90.9304 63.2103C92.9184 63.2103 93.9684 64.5963 93.9684 66.8503ZM92.6944 66.5563V66.4723C92.6944 65.0303 92.1204 64.2323 90.9584 64.2323C89.9784 64.2323 89.3344 64.9183 89.2364 66.5563H92.6944ZM97.5637 70.9243C96.6257 70.9243 96.0237 70.3503 96.0237 69.3003V60.4103L97.3117 60.2563V69.2723C97.3117 69.6643 97.4377 69.8603 97.7737 69.8603C97.9557 69.8603 98.1097 69.8323 98.2497 69.7763L98.5857 70.6723C98.3057 70.8263 97.9417 70.9243 97.5637 70.9243ZM104.483 60.2563L105.771 60.4103V70.7563H104.637L104.511 69.7343C104.035 70.4763 103.293 70.9243 102.383 70.9243C100.591 70.9243 99.5965 69.3983 99.5965 67.1023C99.5965 64.8483 100.689 63.2103 102.495 63.2103C103.363 63.2103 103.993 63.6023 104.483 64.1203V60.2563ZM102.663 69.9023C103.489 69.9023 103.993 69.4963 104.483 68.8103V65.1983C104.021 64.6103 103.503 64.2323 102.775 64.2323C101.669 64.2323 100.983 65.1563 100.983 67.0743C100.983 69.0203 101.599 69.9023 102.663 69.9023Z" fill="white"/>
<path d="M66.3896 106.068V104.664H71.4836V106.068H66.3896ZM73.6493 106.068V104.664H78.7433V106.068H73.6493ZM86.7348 102.09C87.4548 102.09 87.9948 102.648 87.9948 103.332C87.9948 104.034 87.4548 104.592 86.7348 104.592C86.0328 104.592 85.4928 104.034 85.4928 103.332C85.4928 102.648 86.0328 102.09 86.7348 102.09ZM86.7348 108.714C87.4548 108.714 87.9948 109.272 87.9948 109.956C87.9948 110.658 87.4548 111.216 86.7348 111.216C86.0328 111.216 85.4928 110.658 85.4928 109.956C85.4928 109.272 86.0328 108.714 86.7348 108.714ZM94.7607 106.068V104.664H99.8547V106.068H94.7607ZM102.02 106.068V104.664H107.114V106.068H102.02ZM115.106 102.09C115.826 102.09 116.366 102.648 116.366 103.332C116.366 104.034 115.826 104.592 115.106 104.592C114.404 104.592 113.864 104.034 113.864 103.332C113.864 102.648 114.404 102.09 115.106 102.09ZM115.106 108.714C115.826 108.714 116.366 109.272 116.366 109.956C116.366 110.658 115.826 111.216 115.106 111.216C114.404 111.216 113.864 110.658 113.864 109.956C113.864 109.272 114.404 108.714 115.106 108.714ZM123.132 106.068V104.664H128.226V106.068H123.132ZM130.392 106.068V104.664H135.486V106.068H130.392ZM146.393 98.598C149.381 98.598 151.217 99.822 151.217 102.432C151.217 105.276 149.147 106.446 146.411 106.446H144.845V111H143.135V98.598H146.393ZM146.339 105.096C148.175 105.096 149.399 104.556 149.399 102.45C149.399 100.596 148.211 99.93 146.375 99.93H144.845V105.096H146.339ZM163.48 98.598L164.506 111H162.85L162.418 105.402C162.256 103.458 162.13 101.37 162.112 100.344L159.43 109.596H157.828L155.002 100.326C155.002 101.784 154.912 103.71 154.768 105.528L154.354 111H152.734L153.76 98.598H156.064L158.674 107.616L161.158 98.598H163.48Z" fill="white"/>
</svg>
