<svg width="301" height="210" viewBox="0 0 301 210" fill="none" xmlns="http://www.w3.org/2000/svg">
<rect width="300" height="210" transform="translate(0.5)" fill="#121517"/>
<g filter="url(#filter0_d_2401_1976)">
<rect x="48.4868" y="141.801" width="212" height="46" rx="4" fill="#6A6A6A"/>
</g>
<path d="M69.2152 158.399V170.801H66.9292L61.8892 160.271C61.9792 161.297 62.1232 162.809 62.1232 165.113V170.801H60.5212V158.399H62.7532L67.8472 168.947C67.8112 168.659 67.6132 166.679 67.6132 165.167V158.399H69.2152ZM76.2823 161.099C78.9823 161.099 80.4943 163.043 80.4943 166.049C80.4943 168.983 78.9463 171.017 76.2643 171.017C73.5643 171.017 72.0343 169.073 72.0343 166.067C72.0343 163.133 73.5823 161.099 76.2823 161.099ZM76.2823 162.431C74.6983 162.431 73.8163 163.583 73.8163 166.067C73.8163 168.533 74.6803 169.685 76.2643 169.685C77.8483 169.685 78.7123 168.533 78.7123 166.049C78.7123 163.583 77.8483 162.431 76.2823 162.431ZM87.388 169.235L88.018 170.369C87.388 170.801 86.704 171.017 85.894 171.017C84.292 171.017 83.338 170.081 83.338 168.317V162.593H81.682V161.315H83.338V159.173L84.994 158.975V161.315H87.244L87.064 162.593H84.994V168.245C84.994 169.199 85.3 169.649 86.128 169.649C86.542 169.649 86.92 169.523 87.388 169.235ZM90.5439 156.761C91.2459 156.761 91.7139 157.247 91.7139 157.895C91.7139 158.525 91.2459 159.011 90.5439 159.011C89.8599 159.011 89.3919 158.525 89.3919 157.895C89.3919 157.247 89.8599 156.761 90.5439 156.761ZM91.3899 161.315V170.801H89.7339V161.315H91.3899ZM98.072 157.301C99.134 157.301 99.926 157.553 100.7 157.949L100.124 159.101C99.53 158.813 98.864 158.651 98.126 158.651C96.794 158.651 96.452 159.155 96.452 160.055V161.315H101.744V170.801H100.088V162.593H96.452V170.801H94.796V162.593H93.284V161.315H94.796V160.073C94.796 158.471 95.768 157.301 98.072 157.301ZM108.624 161.099C109.74 161.099 110.64 161.387 111.522 162.125L110.73 163.169C110.082 162.701 109.488 162.467 108.696 162.467C107.202 162.467 106.266 163.637 106.266 166.103C106.266 168.587 107.202 169.613 108.696 169.613C109.488 169.613 110.046 169.361 110.766 168.893L111.522 169.973C110.676 170.657 109.722 171.017 108.624 171.017C106.068 171.017 104.484 169.199 104.484 166.139C104.484 163.115 106.05 161.099 108.624 161.099ZM120.153 168.587C120.153 169.415 120.459 169.685 120.945 169.865L120.567 171.017C119.613 170.909 119.001 170.531 118.713 169.595C118.047 170.585 117.039 171.017 115.887 171.017C113.997 171.017 112.863 169.847 112.863 168.155C112.863 166.121 114.393 165.023 117.039 165.023H118.497V164.321C118.497 162.953 117.831 162.449 116.517 162.449C115.815 162.449 114.933 162.629 113.961 162.953L113.547 161.747C114.717 161.315 115.761 161.099 116.823 161.099C119.109 161.099 120.153 162.269 120.153 164.249V168.587ZM116.265 169.775C117.237 169.775 117.957 169.289 118.497 168.299V166.121H117.255C115.509 166.121 114.627 166.769 114.627 168.065C114.627 169.181 115.185 169.775 116.265 169.775ZM127.712 169.235L128.342 170.369C127.712 170.801 127.028 171.017 126.218 171.017C124.616 171.017 123.662 170.081 123.662 168.317V162.593H122.006V161.315H123.662V159.173L125.318 158.975V161.315H127.568L127.388 162.593H125.318V168.245C125.318 169.199 125.624 169.649 126.452 169.649C126.866 169.649 127.244 169.523 127.712 169.235ZM130.868 156.761C131.57 156.761 132.038 157.247 132.038 157.895C132.038 158.525 131.57 159.011 130.868 159.011C130.184 159.011 129.716 158.525 129.716 157.895C129.716 157.247 130.184 156.761 130.868 156.761ZM131.714 161.315V170.801H130.058V161.315H131.714ZM138.702 161.099C141.402 161.099 142.914 163.043 142.914 166.049C142.914 168.983 141.366 171.017 138.684 171.017C135.984 171.017 134.454 169.073 134.454 166.067C134.454 163.133 136.002 161.099 138.702 161.099ZM138.702 162.431C137.118 162.431 136.236 163.583 136.236 166.067C136.236 168.533 137.1 169.685 138.684 169.685C140.268 169.685 141.132 168.533 141.132 166.049C141.132 163.583 140.268 162.431 138.702 162.431ZM150.114 161.099C151.86 161.099 152.868 162.197 152.868 163.997V170.801H151.212V164.231C151.212 162.809 150.636 162.395 149.718 162.395C148.656 162.395 147.936 163.061 147.306 164.069V170.801H145.65V161.315H147.072L147.216 162.719C147.864 161.747 148.872 161.099 150.114 161.099Z" fill="white"/>
<rect x="233.321" y="160.558" width="2" height="14" transform="rotate(-45 233.321 160.558)" fill="#D9D9D9"/>
<rect x="243.22" y="159.144" width="2" height="14" transform="rotate(45 243.22 159.144)" fill="#D9D9D9"/>
<line x1="209.564" y1="147.703" x2="209.564" y2="182.033" stroke="#121517"/>
<defs>
<filter id="filter0_d_2401_1976" x="44.4868" y="141.801" width="220" height="54" filterUnits="userSpaceOnUse" color-interpolation-filters="sRGB">
<feFlood flood-opacity="0" result="BackgroundImageFix"/>
<feColorMatrix in="SourceAlpha" type="matrix" values="0 0 0 0 0 0 0 0 0 0 0 0 0 0 0 0 0 0 127 0" result="hardAlpha"/>
<feOffset dy="4"/>
<feGaussianBlur stdDeviation="2"/>
<feComposite in2="hardAlpha" operator="out"/>
<feColorMatrix type="matrix" values="0 0 0 0 0 0 0 0 0 0 0 0 0 0 0 0 0 0 0.25 0"/>
<feBlend mode="normal" in2="BackgroundImageFix" result="effect1_dropShadow_2401_1976"/>
<feBlend mode="normal" in="SourceGraphic" in2="effect1_dropShadow_2401_1976" result="shape"/>
</filter>
</defs>
</svg>
