<svg width="300" height="210" viewBox="0 0 300 210" fill="none" xmlns="http://www.w3.org/2000/svg">
<rect width="300" height="210" fill="#121517"/>
<rect x="76.5" y="54.5" width="147" height="45" rx="3.5" fill="white" stroke="white"/>
<rect x="76.5" y="110.5" width="147" height="45" rx="3.5" fill="black" stroke="white"/>
<path d="M133.055 69.531L132.824 71.127H127.364V76.062H132.089V77.637H127.364V84H125.369V69.531H133.055ZM137.16 67.62C137.979 67.62 138.525 68.187 138.525 68.943C138.525 69.678 137.979 70.245 137.16 70.245C136.362 70.245 135.816 69.678 135.816 68.943C135.816 68.187 136.362 67.62 137.16 67.62ZM138.147 72.933V84H136.215V72.933H138.147ZM144.347 84.252C142.94 84.252 142.037 83.391 142.037 81.816V68.481L143.969 68.25V81.774C143.969 82.362 144.158 82.656 144.662 82.656C144.935 82.656 145.166 82.614 145.376 82.53L145.88 83.874C145.46 84.105 144.914 84.252 144.347 84.252ZM153.145 82.173L153.88 83.496C153.145 84 152.347 84.252 151.402 84.252C149.533 84.252 148.42 83.16 148.42 81.102V74.424H146.488V72.933H148.42V70.434L150.352 70.203V72.933H152.977L152.767 74.424H150.352V81.018C150.352 82.131 150.709 82.656 151.675 82.656C152.158 82.656 152.599 82.509 153.145 82.173ZM164.035 78.141C164.035 78.519 164.014 78.876 163.993 79.128H156.937C157.126 81.69 158.323 82.677 159.919 82.677C161.011 82.677 161.83 82.383 162.796 81.711L163.636 82.866C162.544 83.727 161.305 84.252 159.772 84.252C156.685 84.252 154.879 82.089 154.879 78.582C154.879 75.138 156.622 72.681 159.478 72.681C162.46 72.681 164.035 74.76 164.035 78.141ZM162.124 77.7V77.574C162.124 75.411 161.263 74.214 159.52 74.214C158.05 74.214 157.084 75.243 156.937 77.7H162.124ZM172.032 72.681C172.389 72.681 172.788 72.723 173.124 72.807L172.767 74.697C172.431 74.613 172.2 74.571 171.801 74.571C170.415 74.571 169.617 75.558 169.155 77.679V84H167.223V72.933H168.882L169.071 75.18C169.659 73.521 170.688 72.681 172.032 72.681ZM186.152 69.279C189.785 69.279 192.263 71.904 192.263 76.776C192.263 81.564 189.785 84.252 186.152 84.252C182.54 84.252 180.041 81.648 180.041 76.797C180.041 72.03 182.54 69.279 186.152 69.279ZM186.152 70.917C183.737 70.917 182.162 72.618 182.162 76.797C182.162 80.976 183.8 82.614 186.152 82.614C188.588 82.614 190.142 80.976 190.142 76.776C190.142 72.618 188.63 70.917 186.152 70.917ZM200.629 72.681C202.666 72.681 203.842 73.962 203.842 76.062V84H201.91V76.335C201.91 74.676 201.238 74.193 200.167 74.193C198.928 74.193 198.088 74.97 197.353 76.146V84H195.421V72.933H197.08L197.248 74.571C198.004 73.437 199.18 72.681 200.629 72.681Z" fill="black"/>
<path d="M132.173 125.531L131.942 127.127H126.482V132.062H131.207V133.637H126.482V140H124.487V125.531H132.173ZM136.278 123.62C137.097 123.62 137.643 124.187 137.643 124.943C137.643 125.678 137.097 126.245 136.278 126.245C135.48 126.245 134.934 125.678 134.934 124.943C134.934 124.187 135.48 123.62 136.278 123.62ZM137.265 128.933V140H135.333V128.933H137.265ZM143.465 140.252C142.058 140.252 141.155 139.391 141.155 137.816V124.481L143.087 124.25V137.774C143.087 138.362 143.276 138.656 143.78 138.656C144.053 138.656 144.284 138.614 144.494 138.53L144.998 139.874C144.578 140.105 144.032 140.252 143.465 140.252ZM152.263 138.173L152.998 139.496C152.263 140 151.465 140.252 150.52 140.252C148.651 140.252 147.538 139.16 147.538 137.102V130.424H145.606V128.933H147.538V126.434L149.47 126.203V128.933H152.095L151.885 130.424H149.47V137.018C149.47 138.131 149.827 138.656 150.793 138.656C151.276 138.656 151.717 138.509 152.263 138.173ZM163.153 134.141C163.153 134.519 163.132 134.876 163.111 135.128H156.055C156.244 137.69 157.441 138.677 159.037 138.677C160.129 138.677 160.948 138.383 161.914 137.711L162.754 138.866C161.662 139.727 160.423 140.252 158.89 140.252C155.803 140.252 153.997 138.089 153.997 134.582C153.997 131.138 155.74 128.681 158.596 128.681C161.578 128.681 163.153 130.76 163.153 134.141ZM161.242 133.7V133.574C161.242 131.411 160.381 130.214 158.638 130.214C157.168 130.214 156.202 131.243 156.055 133.7H161.242ZM171.15 128.681C171.507 128.681 171.906 128.723 172.242 128.807L171.885 130.697C171.549 130.613 171.318 130.571 170.919 130.571C169.533 130.571 168.735 131.558 168.273 133.679V140H166.341V128.933H168L168.189 131.18C168.777 129.521 169.806 128.681 171.15 128.681ZM185.27 125.279C188.903 125.279 191.381 127.904 191.381 132.776C191.381 137.564 188.903 140.252 185.27 140.252C181.658 140.252 179.159 137.648 179.159 132.797C179.159 128.03 181.658 125.279 185.27 125.279ZM185.27 126.917C182.855 126.917 181.28 128.618 181.28 132.797C181.28 136.976 182.918 138.614 185.27 138.614C187.706 138.614 189.26 136.976 189.26 132.776C189.26 128.618 187.748 126.917 185.27 126.917ZM198.298 125.804C197.08 125.804 196.66 126.329 196.66 127.4V128.933H199.348L199.138 130.424H196.66V140H194.728V130.424H192.754V128.933H194.728V127.421C194.728 125.573 195.946 124.25 198.193 124.25C199.243 124.25 199.957 124.439 200.839 124.817L200.23 126.224C199.516 125.909 198.865 125.804 198.298 125.804ZM205.333 125.804C204.115 125.804 203.695 126.329 203.695 127.4V128.933H206.383L206.173 130.424H203.695V140H201.763V130.424H199.789V128.933H201.763V127.421C201.763 125.573 202.981 124.25 205.228 124.25C206.278 124.25 206.992 124.439 207.874 124.817L207.265 126.224C206.551 125.909 205.9 125.804 205.333 125.804Z" fill="white"/>
<path d="M108 70V71.9911L102.321 77.5289V84H97.7405V77.5289L92 71.9911V70H108Z" fill="black"/>
<path d="M101.821 133.529V139.5H98.2405V133.529V133.316L98.0876 133.169L92.5 127.779V126.5H107.5V127.78L101.972 133.171L101.821 133.318V133.529Z" stroke="white"/>
</svg>
