<svg width="301" height="210" viewBox="0 0 301 210" fill="none" xmlns="http://www.w3.org/2000/svg">
<rect width="300" height="210" transform="translate(0.25)" fill="#121517"/>
<rect x="30.0344" y="31.8872" width="240.431" height="146.225" rx="17.5" fill="#4DCCFA" stroke="white"/>
<path d="M103.367 100.929L104.06 102.525L97.1929 105.507L104.06 108.531L103.367 110.085L95.6599 106.494V104.52L103.367 100.929ZM111.137 101.181C112.439 101.181 113.489 101.517 114.518 102.378L113.594 103.596C112.838 103.05 112.145 102.777 111.221 102.777C109.478 102.777 108.386 104.142 108.386 107.019C108.386 109.917 109.478 111.114 111.221 111.114C112.145 111.114 112.796 110.82 113.636 110.274L114.518 111.534C113.531 112.332 112.418 112.752 111.137 112.752C108.155 112.752 106.307 110.631 106.307 107.061C106.307 103.533 108.134 101.181 111.137 101.181ZM121.086 101.181C124.236 101.181 126 103.449 126 106.956C126 110.379 124.194 112.752 121.065 112.752C117.915 112.752 116.13 110.484 116.13 106.977C116.13 103.554 117.936 101.181 121.086 101.181ZM121.086 102.735C119.238 102.735 118.209 104.079 118.209 106.977C118.209 109.854 119.217 111.198 121.065 111.198C122.913 111.198 123.921 109.854 123.921 106.956C123.921 104.079 122.913 102.735 121.086 102.735ZM134.4 101.181C136.437 101.181 137.613 102.462 137.613 104.562V112.5H135.681V104.835C135.681 103.176 135.009 102.693 133.938 102.693C132.699 102.693 131.859 103.47 131.124 104.646V112.5H129.192V101.433H130.851L131.019 103.071C131.775 101.937 132.951 101.181 134.4 101.181ZM146.347 110.673L147.082 111.996C146.347 112.5 145.549 112.752 144.604 112.752C142.735 112.752 141.622 111.66 141.622 109.602V102.924H139.69V101.433H141.622V98.934L143.554 98.703V101.433H146.179L145.969 102.924H143.554V109.518C143.554 110.631 143.911 111.156 144.877 111.156C145.36 111.156 145.801 111.009 146.347 110.673ZM156.539 109.917C156.539 110.883 156.896 111.198 157.463 111.408L157.022 112.752C155.909 112.626 155.195 112.185 154.859 111.093C154.082 112.248 152.906 112.752 151.562 112.752C149.357 112.752 148.034 111.387 148.034 109.413C148.034 107.04 149.819 105.759 152.906 105.759H154.607V104.94C154.607 103.344 153.83 102.756 152.297 102.756C151.478 102.756 150.449 102.966 149.315 103.344L148.832 101.937C150.197 101.433 151.415 101.181 152.654 101.181C155.321 101.181 156.539 102.546 156.539 104.856V109.917ZM152.003 111.303C153.137 111.303 153.977 110.736 154.607 109.581V107.04H153.158C151.121 107.04 150.092 107.796 150.092 109.308C150.092 110.61 150.743 111.303 152.003 111.303ZM161.452 96.12C162.271 96.12 162.817 96.687 162.817 97.443C162.817 98.178 162.271 98.745 161.452 98.745C160.654 98.745 160.108 98.178 160.108 97.443C160.108 96.687 160.654 96.12 161.452 96.12ZM162.439 101.433V112.5H160.507V101.433H162.439ZM171.642 101.181C173.679 101.181 174.855 102.462 174.855 104.562V112.5H172.923V104.835C172.923 103.176 172.251 102.693 171.18 102.693C169.941 102.693 169.101 103.47 168.366 104.646V112.5H166.434V101.433H168.093L168.261 103.071C169.017 101.937 170.193 101.181 171.642 101.181ZM187.097 106.641C187.097 107.019 187.076 107.376 187.055 107.628H179.999C180.188 110.19 181.385 111.177 182.981 111.177C184.073 111.177 184.892 110.883 185.858 110.211L186.698 111.366C185.606 112.227 184.367 112.752 182.834 112.752C179.747 112.752 177.941 110.589 177.941 107.082C177.941 103.638 179.684 101.181 182.54 101.181C185.522 101.181 187.097 103.26 187.097 106.641ZM185.186 106.2V106.074C185.186 103.911 184.325 102.714 182.582 102.714C181.112 102.714 180.146 103.743 179.999 106.2H185.186ZM195.094 101.181C195.451 101.181 195.85 101.223 196.186 101.307L195.829 103.197C195.493 103.113 195.262 103.071 194.863 103.071C193.477 103.071 192.679 104.058 192.217 106.179V112.5H190.285V101.433H191.944L192.133 103.68C192.721 102.021 193.75 101.181 195.094 101.181ZM198.133 100.929L205.84 104.52V106.494L198.133 110.085L197.44 108.531L204.307 105.507L197.44 102.525L198.133 100.929Z" fill="black"/>
</svg>
